<?xml version="1.0" encoding="utf-8"?>
<!-- Generator: Adobe Illustrator 25.4.1, SVG Export Plug-In . SVG Version: 6.00 Build 0)  -->
<svg version="1.1" id="Layer_1" xmlns="http://www.w3.org/2000/svg" xmlns:xlink="http://www.w3.org/1999/xlink" x="0px" y="0px"
	 viewBox="0 0 456.3 125.2" style="enable-background:new 0 0 456.3 125.2;" xml:space="preserve">
<style type="text/css">
	.st0{clip-path:url(#SVGID_00000055696917756224752420000008313134991746186916_);}
	.st1{display:none;}
	.st2{display:inline;fill:#011F5B;}
	.st3{fill:#FFFFFF;}
	.st4{fill:#990000;}
	.st5{fill:none;stroke:#990000;stroke-width:0.7379;stroke-miterlimit:5.9479;}
	.st6{display:none;fill:#011F5B;}
	.st7{display:none;fill:none;stroke:#011F5B;stroke-width:0.7374;stroke-miterlimit:5.9479;}
	.st8{fill:none;stroke:#011F5B;stroke-width:0.7379;stroke-miterlimit:5.9479;}
	.st9{fill:#011F5B;}
	.st10{fill:none;stroke:#011F5B;stroke-width:0.7374;stroke-miterlimit:5.9479;}
	.st11{display:none;fill:#FFFFFF;}
	.st12{display:none;fill:none;stroke:#011F5B;stroke-width:0.7379;stroke-miterlimit:5.9479;}
	.st13{fill:none;stroke:#011F5B;stroke-width:1.4625;stroke-miterlimit:5.9479;}
	.st14{fill-rule:evenodd;clip-rule:evenodd;}
	.st15{fill-rule:evenodd;clip-rule:evenodd;fill:#A51C21;}
	.st16{fill-rule:evenodd;clip-rule:evenodd;fill:#FFCC33;}
	.st17{font-family:'Times-Bold';}
	.st18{font-size:48px;}
	.st19{font-size:40px;}
	.st20{font-family:'Times-Roman';}
</style>
<g>
	<defs>
		<rect id="SVGID_1_" x="1.3" width="388.4" height="125.2"/>
	</defs>
	<clipPath id="SVGID_00000170996667709450072900000004270068365804656533_">
		<use xlink:href="#SVGID_1_"  style="overflow:visible;"/>
	</clipPath>
	<g style="clip-path:url(#SVGID_00000170996667709450072900000004270068365804656533_);">
		<g class="st1">
			<path class="st2" d="M146.1,48c4.4,1.5,6.9,1.7,12,1.7c14.4,0,23.5-7.8,23.5-21c0-10.3-5.8-24.2-23.5-24.2h-12V48z M146.1,79.5
				c0,12,2.9,15.4,11,15.4v2.9h-34.8v-2.9c6.8,0,11-2.2,11-15.1V19.1c0-11.8-2.9-15.4-11-15.4V0.9h35.3c26.7,0,37.5,14.2,37.5,27.6
				c0,16.1-12.2,25-34.2,25c-4.2,0-7.8-0.2-14.9-1"/>
			<path class="st2" d="M230,58.4c0.5-13.2-8.5-18.6-16.1-18.6c-10,0-15.9,7.4-16.6,18.6L230,58.4z M197.4,61.2
				c-0.3,26.9,15.7,33.7,23.8,33.7c8.3,0,12.5-2.9,21.1-12.5v4.4c-7.3,9.3-14.2,12.9-24.7,12.9c-18.8,0-32.3-13-32.3-31.1
				c0-18.1,13.2-32.3,30.1-32.3c13.9,0,26.7,11.2,25.9,25"/>
			<path class="st2" d="M306.3,84.7c0,7.8,1.7,10.1,10.1,10.1v2.9h-32v-2.9c8.1,0,10.3-1.9,10.3-7.4V56.2c0-9.6-6.9-13.7-13.4-13.7
				c-5.9,0-11.2,3.7-17.1,11.7v29.3c0,9.1,1.2,11.5,10.1,11.5v2.9h-31.6v-2.9c8,0,10-0.7,10-11.5V49.7c0-7.3-1.9-8.8-10-8.8v-2.9
				l18.6-1.9h2.9v12c7.1-8.1,14-12,21.6-12c10,0,20.3,7.1,20.3,21.5"/>
			<path class="st2" d="M379.6,84.7c0,7.8,1.7,10.1,10.1,10.1v2.9h-32v-2.9c8.1,0,10.3-1.9,10.3-7.4V56.2c0-9.6-6.9-13.7-13.4-13.7
				c-5.9,0-11.2,3.7-17.1,11.7v29.3c0,9.1,1.2,11.5,10.1,11.5v2.9h-31.6v-2.9c7.9,0,10-0.7,10-11.5V49.7c0-7.3-1.9-8.8-10-8.8v-2.9
				l18.6-1.9h2.9v12c7.1-8.1,14-12,21.6-12c10,0,20.3,7.1,20.3,21.5"/>
			<path class="st2" d="M125.7,115c0,2.7,0.7,4.7,3.6,4.7c2.6,0,4-1.8,4-4.8v-5.3c0-0.4-0.1-0.7-0.1-1c-0.1-0.7-0.7-1-1.6-1.1v-0.5
				h4.5v0.5c-0.9,0.1-1.6,0.4-1.7,1.1c0,0.3-0.1,0.6-0.1,1v5.4c0,4.1-2.6,5.7-5.1,5.7c-4.1,0-5.4-2.1-5.4-5.5v-5.7
				c0-1.8,0.1-1.7-1.7-1.9v-0.5h5.2v0.5c-1.7,0.2-1.7,0.1-1.7,1.9"/>
			<path class="st2" d="M147,120.4c-2.4-2.8-4.8-5.7-7.2-8.5v6.5c0,0.3,0.1,0.6,0.1,0.8c0.1,0.5,0.6,0.7,1.6,0.8v0.4h-3.6V120
				c0.7-0.1,1.2-0.3,1.3-0.8c0-0.2,0.1-0.5,0.1-0.8v-7c-0.4-0.5-0.9-1-1.7-1V110h2.7c2.2,2.7,4.5,5.4,6.7,8.1h0V112
				c0-0.3-0.1-0.6-0.1-0.8c-0.1-0.5-0.6-0.7-1.6-0.8V110h3.6v0.4c-0.7,0.1-1.2,0.3-1.3,0.8c0,0.2-0.1,0.5-0.1,0.8v8.4"/>
			<path class="st2" d="M154.6,118.5c0,1.4-0.1,1.3,1.3,1.5v0.4h-4V120c1.3-0.2,1.3-0.1,1.3-1.5v-6.7c0-1.4,0.1-1.3-1.3-1.5V110h4
				v0.4c-1.3,0.2-1.3,0.1-1.3,1.5"/>
			<path class="st2" d="M162.1,110.4c-0.8,0-1.4,0.2-0.9,1.7c0.6,1.7,1.4,4.3,2.2,6.5c0.9-2.3,1.8-4.5,2.8-6.8c0.4-0.9,0-1.4-1-1.4
				V110h3.2v0.4c-0.4,0-0.9,0.1-1.2,0.9c-1.2,3-2.5,6.1-3.7,9.1h-0.8c-0.9-2.6-1.9-5.4-2.8-7.9c-0.5-1.6-1-2-1.7-2V110h4"/>
			<path class="st2" d="M170.6,120c1.3-0.2,1.3-0.1,1.3-1.5v-6.7c0-1.4,0.1-1.3-1.3-1.5V110h6.6v2.4h-0.4c-0.1-1.1-0.4-1.9-1.5-1.9
				h-2v4.2h1.2c0.9,0,1.3-0.4,1.4-1.3h0.4v3.2H176c0-0.9-0.4-1.4-1.4-1.4h-1.2v3.3c0,1.3,0.6,1.4,1.9,1.4c2.1,0,2-0.6,2.7-2.2h0.4
				l-0.4,2.7h-7.3"/>
			<path class="st2" d="M183.4,115.3h1.2c1.3,0,1.9-1,1.9-2.7c0-1.6-0.9-2.2-2-2.2h-1.1V115.3z M180.6,110h4.3c1.5,0,3,0.8,3,2.5
				c0,1.5-0.9,2.6-2.1,3l1.5,2.2c0.7,1.1,1.6,2.1,2.1,2.4v0.2h-1.5c-0.9,0-1.3-1.6-3.1-4.6h-1.4v2.7c0,1.4-0.1,1.3,1.3,1.5v0.4h-4
				V120c1.3-0.2,1.3-0.1,1.3-1.5v-6.7c0-1.4,0.1-1.3-1.3-1.5"/>
			<path class="st2" d="M196.7,112.2c-0.1-1-0.7-1.9-1.9-1.9c-0.9,0-1.6,0.4-1.6,1.5c0,1,1,1.7,2.5,2.8c1.6,1.2,2.1,1.9,2.1,3.2
				c0,1.8-1.8,2.7-3.6,2.7c-0.9,0-1.8-0.2-2.5-0.5c-0.1,0-0.1-0.1-0.1-0.2v-2.1h0.4c0.2,1.6,1.2,2.3,2.4,2.3c1.1,0,1.9-0.8,1.9-1.9
				c0-1-0.5-1.7-2.7-3.2c-0.8-0.5-1.8-1.1-1.8-2.7c0-1.3,1.5-2.4,3.2-2.4c0.6,0,1.5,0.1,2.1,0.3c0.1,0,0.1,0.1,0.1,0.2v1.9"/>
			<path class="st2" d="M203.2,118.5c0,1.4-0.1,1.3,1.3,1.5v0.4h-4V120c1.3-0.2,1.3-0.1,1.3-1.5v-6.7c0-1.4,0.1-1.3-1.3-1.5V110h4
				v0.4c-1.3,0.2-1.3,0.1-1.3,1.5"/>
			<path class="st2" d="M211.8,118.5c0,1.4-0.1,1.3,1.3,1.5v0.4h-4V120c1.3-0.2,1.3-0.1,1.3-1.5v-8H209c-1.3,0-1.6,0.8-2.1,1.8h-0.4
				l0.4-2.3h8.2l0.4,2.3h-0.4c-0.5-1-0.8-1.8-2.1-1.8h-1.3"/>
			<path class="st2" d="M219.9,120c1.3-0.2,1.3-0.1,1.3-1.5v-2.3l-2.3-4.5c-0.5-1-0.9-1.3-1.6-1.3V110h3.8v0.4c-1.1,0-1,0.6-0.7,1.3
				l1.8,3.7l2-3.7c0.5-0.9,0-1.3-0.8-1.3V110h3.1v0.4c-0.4,0-0.8,0.2-1.2,0.9l-2.5,4.5c-0.1,0.3-0.2,0.7-0.2,1.1v1.7
				c0,1.4-0.1,1.3,1.3,1.5v0.4h-4"/>
			<path class="st2" d="M239.9,113.1c0-2-1.2-2.1-1.5-2.1c-2.1,0-3.4,3.7-3.4,6.2c0,1,0.2,2.8,1.6,2.8
				C238.7,120,239.9,116.4,239.9,113.1z M233.2,116.8c0-2.5,2.2-6.3,5.4-6.3c2.6,0,3.1,1.7,3.1,3.5c0,2.1-1.7,6.6-5.4,6.6
				C233.9,120.6,233.2,118.6,233.2,116.8"/>
			<path class="st2" d="M251.3,111.2l-0.5,0.4h-2.5c-0.9,4.6-2.5,10.6-3.6,13.6h-0.9l2.7-13.6h-1.8l0.2-0.8h1.8
				c1-4.1,4.4-4.5,5.2-4.5c0.4,0,1.4,0.1,1.7,0.3l-0.2,1.3l-0.5,0.2c-0.3-0.5-0.9-1.1-1.7-1.1c-1.2,0-2,0.8-2.5,2.9l-0.2,0.9h2.8"/>
			<path class="st2" d="M263,118c0,1.8-0.1,1.7,1.6,1.9v0.5h-5.2v-0.5c1.7-0.2,1.7-0.1,1.7-1.9v-8.6c0-1.8,0.1-1.7-1.7-1.9v-0.5h5
				c3.2,0,4.8,1.3,4.8,3.6c0,2.8-2.5,4.3-5.4,4.1v-0.4c2.4,0,3.5-1.4,3.5-3.5c0-2.2-1-3.1-3.2-3.1H263"/>
			<path class="st2" d="M271.9,120c1.3-0.2,1.3-0.1,1.3-1.5v-6.7c0-1.4,0.1-1.3-1.3-1.5V110h6.6v2.4h-0.4c-0.1-1.1-0.4-1.9-1.5-1.9
				h-2v4.2h1.2c0.9,0,1.3-0.4,1.4-1.3h0.4v3.2h-0.4c0-0.9-0.4-1.4-1.4-1.4h-1.2v3.3c0,1.3,0.6,1.4,1.9,1.4c2.1,0,2-0.6,2.7-2.2h0.4
				l-0.4,2.7h-7.3"/>
			<path class="st2" d="M291.4,120.4c-2.4-2.8-4.8-5.7-7.2-8.5v6.5c0,0.3,0.1,0.6,0.1,0.8c0.1,0.5,0.6,0.7,1.6,0.8v0.4h-3.6V120
				c0.7-0.1,1.2-0.3,1.3-0.8c0-0.2,0.1-0.5,0.1-0.8v-7c-0.4-0.5-0.9-1-1.7-1V110h2.7c2.2,2.7,4.5,5.4,6.7,8.1h0V112
				c0-0.3-0.1-0.6-0.1-0.8c-0.1-0.5-0.6-0.7-1.6-0.8V110h3.6v0.4c-0.7,0.1-1.2,0.3-1.3,0.8c0,0.2-0.1,0.5-0.1,0.8v8.4"/>
			<path class="st2" d="M304.7,120.4c-2.4-2.8-4.8-5.7-7.2-8.5v6.5c0,0.3,0.1,0.6,0.1,0.8c0.1,0.5,0.6,0.7,1.6,0.8v0.4h-3.6V120
				c0.7-0.1,1.2-0.3,1.3-0.8c0-0.2,0.1-0.5,0.1-0.8v-7c-0.4-0.5-0.9-1-1.7-1V110h2.7c2.2,2.7,4.5,5.4,6.7,8.1h0V112
				c0-0.3-0.1-0.6-0.1-0.8c-0.1-0.5-0.6-0.7-1.6-0.8V110h3.6v0.4c-0.7,0.1-1.2,0.3-1.3,0.8c0,0.2-0.1,0.5-0.1,0.8v8.4"/>
			<path class="st2" d="M314.3,112.2c-0.1-1-0.7-1.9-1.9-1.9c-0.9,0-1.6,0.4-1.6,1.5c0,1,1,1.7,2.5,2.8c1.6,1.2,2.1,1.9,2.1,3.2
				c0,1.8-1.8,2.7-3.6,2.7c-0.9,0-1.8-0.2-2.5-0.5c-0.1,0-0.1-0.1-0.1-0.2v-2.1h0.4c0.2,1.6,1.2,2.3,2.4,2.3c1.1,0,1.9-0.8,1.9-1.9
				c0-1-0.5-1.7-2.7-3.2c-0.8-0.5-1.8-1.1-1.8-2.7c0-1.3,1.5-2.4,3.2-2.4c0.6,0,1.5,0.1,2.1,0.3c0.1,0,0.1,0.1,0.1,0.2v1.9"/>
			<path class="st2" d="M320.3,120c1.3-0.2,1.3-0.1,1.3-1.5v-2.3l-2.3-4.5c-0.5-1-0.9-1.3-1.6-1.3V110h3.8v0.4c-1.1,0-1,0.6-0.7,1.3
				l1.8,3.7l2-3.7c0.5-0.9,0-1.3-0.8-1.3V110h3.1v0.4c-0.4,0-0.8,0.2-1.2,0.9l-2.5,4.5c-0.1,0.3-0.2,0.7-0.2,1.1v1.7
				c0,1.4-0.1,1.3,1.3,1.5v0.4h-4"/>
			<path class="st2" d="M329.3,120c1.3-0.2,1.3-0.1,1.3-1.5v-6.7c0-1.4,0.1-1.3-1.3-1.5V110h4v0.4c-1.3,0.2-1.3,0.1-1.3,1.5v6.9
				c0,1,0.6,1.1,1.9,1.1c2.1,0,2.1-0.6,2.7-2.2h0.4l-0.4,2.7h-7.3"/>
			<path class="st2" d="M342.2,110.4c-0.8,0-1.4,0.2-0.9,1.7c0.6,1.7,1.4,4.3,2.2,6.5c0.9-2.3,1.9-4.5,2.8-6.8c0.4-0.9,0-1.4-1-1.4
				V110h3.2v0.4c-0.4,0-0.9,0.1-1.2,0.9c-1.2,3-2.5,6.1-3.7,9.1h-0.8c-0.9-2.6-1.9-5.4-2.8-7.9c-0.5-1.6-1-2-1.7-2V110h4"/>
			<path class="st2" d="M354.5,116.4l-1.6-4.8h0l-1.8,4.8H354.5z M350.9,116.9l-0.7,2c-0.2,0.6,0.1,1.1,0.7,1.1v0.4h-2.7V120
				c0.4,0,0.8-0.3,1.1-0.7c0.6-1.3,2.4-6.1,3.6-9.4h0.8c1,3,2.5,7.5,3,8.9c0.3,0.8,0.6,1.3,1.2,1.3v0.4h-3.5V120
				c0.9,0,1-0.5,0.8-1.1l-0.6-1.9"/>
			<path class="st2" d="M369.4,120.4c-2.4-2.8-4.8-5.7-7.2-8.5v6.5c0,0.3,0.1,0.6,0.1,0.8c0.1,0.5,0.6,0.7,1.6,0.8v0.4h-3.6V120
				c0.7-0.1,1.2-0.3,1.3-0.8c0-0.2,0.1-0.5,0.1-0.8v-7c-0.4-0.5-0.9-1-1.7-1V110h2.7c2.2,2.7,4.5,5.4,6.7,8.1h0V112
				c0-0.3-0.1-0.6-0.1-0.8c-0.1-0.5-0.6-0.7-1.6-0.8V110h3.6v0.4c-0.7,0.1-1.2,0.3-1.3,0.8c0,0.2-0.1,0.5-0.1,0.8v8.4"/>
			<path class="st2" d="M376.4,118.5c0,1.4-0.1,1.3,1.3,1.5v0.4h-4V120c1.3-0.2,1.3-0.1,1.3-1.5v-6.7c0-1.4,0.1-1.3-1.3-1.5V110h4
				v0.4c-1.3,0.2-1.3,0.1-1.3,1.5"/>
			<path class="st2" d="M386.1,116.4l-1.6-4.8h0l-1.8,4.8H386.1z M382.5,116.9l-0.7,2c-0.2,0.6,0.1,1.1,0.7,1.1v0.4h-2.7V120
				c0.4,0,0.8-0.3,1.1-0.7c0.6-1.3,2.4-6.1,3.6-9.4h0.8c1,3,2.5,7.5,3,8.9c0.3,0.8,0.6,1.3,1.2,1.3v0.4h-3.4V120
				c0.9,0,1-0.5,0.8-1.1l-0.6-1.9"/>
		</g>
		<path class="st3" d="M2.2,0.9h106.2c0,0,0,52.2,0,53.1c-0.7,43.3-49.2,66-55.3,65.8c-6.3-0.2-51-22.5-50.9-66
			C2.2,53,2.2,0.9,2.2,0.9"/>
		<path class="st4" d="M2.2,33.1c0.2,0.2,0-32.3,0-32.3h106.1c0,0,0,17.4,0,32.3"/>
		<path class="st5" d="M2.2,33.1c0.2,0.2,0-32.3,0-32.3h106.1c0,0,0,17.4,0,32.3L2.2,33.1L2.2,33.1z"/>
		<path class="st6" d="M8.2,80.4c4.1,8.6,9.1,15.5,16.2,21.4l30.9-31.2L85,101c6.1-5.6,12.1-12.4,16.4-20.4L55.3,36.2L8.4,80.5"/>
		<path class="st7" d="M8.2,80.4c4.1,8.6,9.1,15.5,16.2,21.4l30.9-31.2L85,101c6.1-5.6,12.1-12.4,16.4-20.4L55.3,36.2L8.4,80.5
			L8.2,80.4z"/>
		<path class="st8" d="M2.2,33.4l106.1,0"/>
		<path class="st3" d="M81.8,8.9h2.9c2.1-0.5,2.9-1.7,5.1-1.7c1.6,0,2.3,1,3.4,1c1,0,2.5-1.1,4.1-1.1c1.7,0,2.5,1,3.6,1.5
			c1,0.4,2.2,0.4,3.6,0.4c0,1,0,1.5,0,2.4c0,0.8,1.1,0.5,1.1,1.9c0,1.4-1.4,1.1-1.4,1.7l-0.1,5.3c0.1,0.7,1.4,0.7,1.4,1.7
			c0,1.5-1.5,1-1.4,2.1c0.1,0.9,0,2.7,0,2.7c-2.9,0-21.2,0.2-22.1,0.1c0.1-2,0.4-1.8,0.4-2.8c0.1-0.8-1.7-1.2-1.7-2.5
			c0-0.9,1-0.8,1.1-1.7v-5.3c-0.1-0.7-1.6-1-1.5-2c0.1-1.2,1.4-1,1.4-1.8C81.8,10.5,81.8,9.2,81.8,8.9"/>
		<path class="st8" d="M81.8,8.9h2.9c2.1-0.5,2.9-1.7,5.1-1.7c1.6,0,2.3,1,3.4,1c1,0,2.5-1.1,4.1-1.1c1.7,0,2.5,1,3.6,1.5
			c1,0.4,2.2,0.4,3.6,0.4c0,1,0,1.5,0,2.4c0,0.8,1.1,0.5,1.1,1.9c0,1.4-1.4,1.1-1.4,1.7l-0.1,5.3c0.1,0.7,1.4,0.7,1.4,1.7
			c0,1.5-1.5,1-1.4,2.1c0.1,0.9,0,2.7,0,2.7c-2.9,0-21.2,0.2-22.1,0.1c0.1-2,0.4-1.8,0.4-2.8c0.1-0.8-1.7-1.2-1.7-2.5
			c0-0.9,1-0.8,1.1-1.7v-5.3c-0.1-0.7-1.6-1-1.5-2c0.1-1.2,1.4-1,1.4-1.8C81.8,10.5,81.8,9.2,81.8,8.9L81.8,8.9z"/>
		<path class="st8" d="M84.1,9c0,0,0,11.8,0,14.5c0,0,17.1,0,17.9,0c0-3.1,0-14.6,0-14.6"/>
		<path class="st8" d="M93.1,8.3v15.3"/>
		<path class="st9" d="M93.4,21.7c0.8,0,2.1,0.5,3.5,1c1.7,0.5,3.6,0.2,5,0.4c0.4,0.1-8.4,0.2-8.4,0.2
			C93.4,21.5,93.4,21.7,93.4,21.7"/>
		<path class="st8" d="M93.4,21.7c0.8,0,2.1,0.5,3.5,1c1.7,0.5,3.6,0.2,5,0.4c0.4,0.1-8.4,0.2-8.4,0.2
			C93.4,21.5,93.4,21.7,93.4,21.7L93.4,21.7z"/>
		<path class="st9" d="M92.1,23.9c0-0.4,0.4-0.7,1-0.7c0.6,0,1,0.3,1,0.7c0,0.4-0.4,0.7-1,0.7C92.5,24.6,92.1,24.3,92.1,23.9"/>
		<path class="st8" d="M92.1,23.9c0-0.4,0.4-0.7,1-0.7c0.6,0,1,0.3,1,0.7c0,0.4-0.4,0.7-1,0.7C92.5,24.6,92.1,24.3,92.1,23.9z"/>
		<path class="st9" d="M92.6,21.7c-0.8,0-2.1,0.5-3.5,1c-1.7,0.5-3.6,0.2-5,0.4c-0.4,0.1,8.4,0.2,8.4,0.2
			C92.5,21.5,92.6,21.7,92.6,21.7"/>
		<path class="st8" d="M92.6,21.7c-0.8,0-2.1,0.5-3.5,1c-1.7,0.5-3.6,0.2-5,0.4c-0.4,0.1,8.4,0.2,8.4,0.2
			C92.5,21.5,92.6,21.7,92.6,21.7L92.6,21.7z"/>
		<path class="st3" d="M33.8,28.3c0.3,1.1,1.1,1.9,2.5,1.9c2.6,0,5-1.9,6.5-3c1.2-0.8,2.4-1.7,2.4-3.5L45,24.4c0,0,2-2,7-0.4
			c1.4,0.4,7.3,3.8,8.5,4.3c1.1,0.5,4.9,3.2,10.9,2.2c0,0,9.2-1.3,7.1-10.7c-1.5-6.7-1-7.2-0.5-9.4c-0.2-0.1-5.6-1.3-5.5,6.2
			c-2.3,0.2-5.3,2-3.4,6.6c0.8-1.2,1.8-2.4,3.3-2.4c0.9,0,1.9,1.3,1.9,2.3c0.1,2.4-2.2,3.4-5.2,2.9c-1.5-0.2-2.9-1.9-4.9-3.4
			c0.4-0.2,0.7-1.4,0.7-1.9c0-1.2-1-1.7-1.7-2.1c0.1-0.4,0.4-1,0.4-1.4c0-1-1.3-0.9-1.9-1.2c0.2-0.3,0.2-0.1,0.2-0.6
			c0-1.4,0.2-2.1-2.6-2.1c0.2-1.4-0.1-2.2-1-2.6l-2.1-0.3c-1.3-0.2,0-0.7-1.2-1.8c-1.1-1-2.8,0-2.8,0c0-1-0.7-1.7-1.8-1.7
			c-0.6,0-1.4,0.1-1.8,0.3L48,7.8c-1.1,0-1.3-1-2.6-1c-1.2,0-1.7,1-2.2,1.6c-0.8-0.4-1-1.1-2.1-1.1c-0.7,0-0.9,0.7-1.1,1
			c-0.7,0.8-0.7,1.7-1.8,2.1l-0.4-0.8c0,0,0-0.1,0-0.1c-1.7,0.8-5.5,9.5-5.5,11.3c0,1.7,1.5,1,1.5,2.8c0,1.1-1.6,1.8-1.6,2.8
			c0,1.2,1.3,1.7,2.5,1.7"/>
		<path class="st10" d="M33.8,28.3c0.3,1.1,1.1,1.9,2.5,1.9c2.6,0,5-1.9,6.5-3c1.2-0.8,2.4-1.7,2.4-3.5L45,24.4c0,0,2-2,7-0.4
			c1.4,0.4,7.3,3.8,8.5,4.3c1.1,0.5,4.9,3.2,10.9,2.2c0,0,9.2-1.3,7.1-10.7c-1.5-6.7-1-7.2-0.5-9.4c-0.2-0.1-5.6-1.3-5.5,6.2
			c-2.3,0.2-5.3,2-3.4,6.6c0.8-1.2,1.8-2.4,3.3-2.4c0.9,0,1.9,1.3,1.9,2.3c0.1,2.4-2.2,3.4-5.2,2.9c-1.5-0.2-2.9-1.9-4.9-3.4
			c0.4-0.2,0.7-1.4,0.7-1.9c0-1.2-1-1.7-1.7-2.1c0.1-0.4,0.4-1,0.4-1.4c0-1-1.3-0.9-1.9-1.2c0.2-0.3,0.2-0.1,0.2-0.6
			c0-1.4,0.2-2.1-2.6-2.1c0.2-1.4-0.1-2.2-1-2.6l-2.1-0.3c-1.3-0.2,0-0.7-1.2-1.8c-1.1-1-2.8,0-2.8,0c0-1-0.7-1.7-1.8-1.7
			c-0.6,0-1.4,0.1-1.8,0.3L48,7.8c-1.1,0-1.3-1-2.6-1c-1.2,0-1.7,1-2.2,1.6c-0.8-0.4-1-1.1-2.1-1.1c-0.7,0-0.9,0.7-1.1,1
			c-0.7,0.8-0.7,1.7-1.8,2.1l-0.4-0.8c0,0,0-0.1,0-0.1c-1.7,0.8-5.5,9.5-5.5,11.3c0,1.7,1.5,1,1.5,2.8c0,1.1-1.6,1.8-1.6,2.8
			c0,1.2,1.3,1.7,2.5,1.7L33.8,28.3z"/>
		<path class="st9" d="M37.7,21c0,0,1.9,0.7,1.9,1.1c0,0.5-1.2,1.1-2,1.8h-1c0.4-1.2,0-0.7,0-1.8C36.6,21.3,37.4,21,37.7,21"/>
		<path class="st8" d="M37.7,21c0,0,1.9,0.7,1.9,1.1c0,0.5-1.2,1.1-2,1.8h-1c0.4-1.2,0-0.7,0-1.8C36.6,21.3,37.4,21,37.7,21z"/>
		<path class="st8" d="M44.6,17.8c1-0.5,0.5-1.7,2.1-1.7c1.4,0,1.9,1,3.2,1c0.8,0,1.4-0.8,2.6-0.8c1,0,2.4,1.4,2.2,3
			c0,0,3.6-1.2,3.4,2.7c2.9-1,2.6,1.4,2.9,2.6c0.3,1.1,2.2,0.2,1.9,2.6"/>
		<path class="st3" d="M6.2,9h2.9c2.1-0.5,2.9-1.7,5.1-1.7c1.6,0,2.3,1,3.4,1c1,0,2.5-1.1,4.1-1.1c1.7,0,2.5,1,3.6,1.5
			c1,0.4,2.2,0.4,3.6,0.4c0,1,0,1.5,0,2.4c0,0.8,1.1,0.5,1.1,1.8c0,1.4-1.4,1.1-1.4,1.7l-0.1,5.3c0.1,0.7,1.4,0.7,1.4,1.7
			c0,1.5-1.5,1-1.4,2.1c0.1,0.9,0,2.7,0,2.7c-2.9,0-20.8,0-21.7,0c0.1-2,0-1.7,0-2.6c0.1-0.8-1.7-1.2-1.7-2.5c0-0.9,1-0.8,1.1-1.7
			v-5.3c-0.1-0.7-1.6-1-1.5-2c0.1-1.2,1.4-1,1.4-1.8C6.2,10.6,6.3,9.3,6.2,9"/>
		<path class="st8" d="M6.2,9h2.9c2.1-0.5,2.9-1.7,5.1-1.7c1.6,0,2.3,1,3.4,1c1,0,2.5-1.1,4.1-1.1c1.7,0,2.5,1,3.6,1.5
			c1,0.4,2.2,0.4,3.6,0.4c0,1,0,1.5,0,2.4c0,0.8,1.1,0.5,1.1,1.8c0,1.4-1.4,1.1-1.4,1.7l-0.1,5.3c0.1,0.7,1.4,0.7,1.4,1.7
			c0,1.5-1.5,1-1.4,2.1c0.1,0.9,0,2.7,0,2.7c-2.9,0-20.8,0-21.7,0c0.1-2,0-1.7,0-2.6c0.1-0.8-1.7-1.2-1.7-2.5c0-0.9,1-0.8,1.1-1.7
			v-5.3c-0.1-0.7-1.6-1-1.5-2c0.1-1.2,1.4-1,1.4-1.8C6.2,10.6,6.3,9.3,6.2,9L6.2,9z"/>
		<path class="st8" d="M8.6,9.1c0,0,0,11.8,0,14.5c0,0,17.1,0,17.9,0c0-3.1,0-14.6,0-14.6"/>
		<path class="st8" d="M17.5,8.4v15.3"/>
		<path class="st9" d="M17.8,21.8c0.8,0,2.1,0.5,3.5,1c1.7,0.5,3.6,0.2,5,0.4c0.4,0.1-8.4,0.2-8.4,0.2
			C17.9,21.6,17.8,21.8,17.8,21.8"/>
		<path class="st8" d="M17.8,21.8c0.8,0,2.1,0.5,3.5,1c1.7,0.5,3.6,0.2,5,0.4c0.4,0.1-8.4,0.2-8.4,0.2
			C17.9,21.6,17.8,21.8,17.8,21.8z"/>
		<path class="st9" d="M16.5,24c0-0.4,0.4-0.7,1-0.7c0.6,0,1,0.3,1,0.7c0,0.4-0.4,0.7-1,0.7C17,24.7,16.5,24.4,16.5,24"/>
		<path class="st8" d="M16.5,24c0-0.4,0.4-0.7,1-0.7c0.6,0,1,0.3,1,0.7c0,0.4-0.4,0.7-1,0.7C17,24.7,16.5,24.4,16.5,24z"/>
		<path class="st9" d="M17.1,21.8c-0.8,0-2.1,0.5-3.5,1c-1.7,0.5-3.6,0.2-5,0.4c-0.4,0.1,8.4,0.2,8.4,0.2
			C17,21.6,17.1,21.8,17.1,21.8"/>
		<path class="st8" d="M17.1,21.8c-0.8,0-2.1,0.5-3.5,1c-1.7,0.5-3.6,0.2-5,0.4c-0.4,0.1,8.4,0.2,8.4,0.2
			C17,21.6,17.1,21.8,17.1,21.8L17.1,21.8z"/>
		<path class="st11" d="M20.5,76.8c0-4.9,4.1-8.9,9.3-8.9s9.3,4,9.3,8.9c0,4.9-4.1,8.9-9.3,8.9S20.5,81.8,20.5,76.8"/>
		<path class="st12" d="M20.5,76.8c0-4.9,4.1-8.9,9.3-8.9s9.3,4,9.3,8.9c0,4.9-4.1,8.9-9.3,8.9S20.5,81.8,20.5,76.8L20.5,76.8z"/>
		<path class="st11" d="M46,55.4c0-4.9,4.1-8.9,9.3-8.9c5.1,0,9.3,4,9.3,8.9c0,4.9-4.1,8.9-9.3,8.9C50.1,64.3,46,60.3,46,55.4"/>
		<path class="st7" d="M46,55.4c0-4.9,4.1-8.9,9.3-8.9c5.1,0,9.3,4,9.3,8.9c0,4.9-4.1,8.9-9.3,8.9C50.1,64.3,46,60.3,46,55.4z"/>
		<path class="st11" d="M70,76.8c0-4.9,4.1-8.9,9.3-8.9c5.1,0,9.3,4,9.3,8.9c0,4.9-4.1,8.9-9.3,8.9C74.1,85.8,70,81.8,70,76.8"/>
		<path class="st12" d="M70,76.8c0-4.9,4.1-8.9,9.3-8.9c5.1,0,9.3,4,9.3,8.9c0,4.9-4.1,8.9-9.3,8.9C74.1,85.8,70,81.8,70,76.8z"/>
		<path class="st8" d="M64.5,22.1c-2.4-2.6-4.5-5.7-4.8-5.8c-1.2-0.5-3.9-6-11.4-6.4c-1.9-0.1-9,0.6-9.3,2.4"/>
		<path class="st8" d="M45.2,24.1c0-0.2,0-0.4,0-0.6c0-0.3-1.7-0.1-2.2-0.3c-0.3-0.1,0.8-0.5,0.6-0.5c1.1-0.4,3.8-1.6,2.9-2.6
			c-0.9-0.9-1.5-1.8-2-2.4c-0.7-0.8-1.5-1.2-2.8-1.2c-1.1,0-2.9,1.9-3.6,2.4c0.5-0.5,2.1-1.9,2.1-3c0-2.5-2-4.6-2.5-6.7"/>
		<path class="st8" d="M34.5,27.9c2,0,3.1-0.1,4-0.6c1-0.5,2.9-1.7,3.3-2.7"/>
		<path class="st13" d="M2.2,0.9h106.2c0,0,0,52.2,0,53.1c-0.7,43.3-49.2,66-55.3,65.8c-6.3-0.2-51-22.5-50.9-66
			C2.2,53,2.2,0.9,2.2,0.9L2.2,0.9z"/>
	</g>
</g>
<g>
	<path class="st14" d="M92.4,43c0.1,0.1,0.2,0.2,0.2,0.2c0-0.2,0.1-0.5-0.1-0.7c-0.2-0.1-0.4,0-0.5,0.1C92.1,42.7,92.3,42.8,92.4,43
		 M96,50.4c0-0.6-0.1-1.2-0.4-1.7c-0.3-0.5-0.7-0.9-1.2-1.2c-0.5-0.3-1-0.3-1.3-0.9c-0.1-0.1-0.2-0.1-0.1-0.3c0-0.1,0.2-0.1,0.3,0
		c0-0.2,0.1-0.7-0.1-0.8c0.1-0.2-0.1-0.8-0.1-1.1c-0.1,0.1-0.2,0.1-0.4,0.2c0.1-0.2,0.2-0.3,0.3-0.5c-0.2,0-0.3-0.2-0.3-0.4
		c-0.6,0-1.2-1-1.5-1.4c0,0.3-0.4,0-0.5-0.1c-0.1-0.2-0.2-0.4-0.3-0.5c-0.2-0.2-0.4-0.4-0.7-0.5c-0.4-0.3-0.9-0.6-1.4-0.8
		c-0.4-0.2-0.8-0.5-1.1-0.7c0.1,0.2,0.2,0.3,0.2,0.5c-0.1-0.1-0.7-0.7-0.9-0.6c-0.3,0.1,0.1,0.4,0.2,0.5c-0.1-0.1-1.2-0.5-0.6-0.1
		c-0.2-0.1-0.5-0.3-0.6,0c-0.3-0.1-0.8-0.1-1-0.3c-0.2-0.1-0.5-0.4-0.7-0.4c0,0.1,0.1,0.2,0.2,0.3c-0.6-0.2-1.2-0.1-1.8-0.1
		c-0.2,0-0.4,0-0.7,0c-0.2,0-0.3,0.2-0.4,0.2c-1.4,0-2.6,0.3-3.9,0.6c-2.6,0.5-4.8,2-6.5,4c-0.9,1.1-1.7,2.2-2.5,3.4
		c-0.7,0.9-1.2,1.9-2.1,2.7c-0.9,0.8-2.2,1.4-3.3,1.9c-0.5,0.2-1.1,0.5-1.7,0.6c-0.6,0.1-1.2,0-1.8,0.1c-0.6,0.1-1.4-0.3-2-0.5
		c-0.7-0.2-1.4-0.4-2-0.5c-1.3-0.3-2.6-0.6-3.9-0.8c-1.5-0.2-2.9-0.4-4.4-0.6c-1.4-0.2-2.8-0.3-4.1-0.7c-2.6-0.7-3.7-3.3-5.7-4.8
		c-1.1-0.8-2.3-1.3-3.7-1.5c-0.3,0-0.7,0-1,0c-0.3,0-0.5-0.4-0.7-0.6c-0.5-0.5-1-0.9-1.6-1.2c-0.2-0.1-0.4-0.3-0.7-0.4
		c-0.4-0.1-0.6,0-0.8-0.2c-0.5-0.5-1-1-1.5-1.4c-1-0.9-2-1.7-3.3-2c-0.3-0.1-0.7-0.1-1-0.1c-0.3,0-0.5-0.1-0.8-0.1
		c-0.3,0-0.4,0.2-0.7,0.3c-0.4,0.1-0.8,0.1-1.2,0.2c-1.3,0.3-1.9,1.5-1.9,2.8c0,1-0.2,2-0.2,3c0,1.1,0.2,2.2,0.5,3.3
		c-1.1,0.1-1.3,1.9-0.8,2.7c-0.6,0.2-0.9,0.8-1,1.3c0,0.2,0,0.5,0.1,0.7c0.1,0.2,0.3,0.4,0.3,0.6c0,0.2-0.2,0.5-0.2,0.7
		c0,0.3,0,0.6,0,1c0.1,0.6,0.3,1.1,0.6,1.6c-0.5,0.1-1.2,0.1-1.2,0.7c-0.1,0.5,0.2,1.1,0.1,1.7c-0.1,1.1,0.6,2.3,1.6,2.9
		c0.1,0,0.3,0.1,0.4,0.2c0,0.1,0,0.4,0,0.4c0,0.3,0,0.6,0.1,0.9c0.1,0.5,0.3,1.1,0.6,1.6c0.6,1,1.4,1.8,2.5,2.4c0,0,0.1,0,0.1,0.1
		c-0.3,0.4-0.4,0.9-0.5,1.5c-0.1,0.7-0.2,1.3-0.1,2c0.2,1.3,1.1,2.1,2.2,2.8c-0.1,0.1-0.2,0.2-0.4,0.4c-0.1,0.1-0.3,0.2-0.4,0.3
		c0,0,0.1,0.1,0.1,0.2c-0.1,0.4,0,0.5,0.3,0.9c-0.3,0.2-0.7,0.7-0.1,0.7c-0.1,0.3-0.7,0.2-0.6,0.6c0.1,0.4,0.5,0.1,0.8,0
		c-0.2,0.3-0.9,0.3-1,0.6c-0.2,0.4,0.3,0.4,0.6,0.3c0.1,0.3-0.7,0.4-0.8,0.6c-0.1,0.1,0,0.3,0.1,0.3c0.2,0.1,0.3,0,0.5-0.1
		c-0.1,0.2-0.4,0.4-0.4,0.7c0,0.1,0,0.1,0,0.2c0,0.1,0,0.2-0.1,0.4c0.1-0.1,0.3-0.2,0.4,0c-0.2,0.1-0.7,0.9-0.2,0.7
		C22,79.7,22,80,22.4,80.1c0.2,0,0.3-0.1,0.4,0c0.1,0.1,0.2,0.3,0.3,0.4c0.2,0.4,0.4,0.7,0.7,1.1c0.1,0.2,0.3,0.3,0.5,0.5
		c0.2,0.2,0.2,0.2,0.1,0.5c-0.1,0.3-0.1,0.9,0.1,1.1c0.1,0.1,0.3,0.2,0.4,0.3c0.2,0.1,0.2,0.1,0.4,0.3c0.1,0.1,0,0.4,0.1,0.5
		c0.1,0.1,0.3,0.1,0.5,0.1c0.3,0,0.6,0.1,0.9,0c-0.3,0.2-0.9,0.6-0.8,1.1c0,0.4,0.6,0.4,0.9,0.3c0,0.4,0.1,0.5,0.6,0.5
		c0.2,0,0.3-0.2,0.4-0.2c0.2-0.1,0.1,0,0.3,0c0.4,0.1,0.7,0.2,0.8,0.6c0.1,0.4,0,0.9,0.1,1.3c0,0.3-0.2,1.7,0.4,1.6
		c0.2-0.1,0.4-0.2,0.6-0.2c0.2,0,0.5-0.1,0.7-0.2c-0.3,0.3-0.2,1.5,0.3,1.4c0.1,0,0.3-0.2,0.3-0.2c0.1,0.1,0.2,0.1,0.3,0.1
		c0.2,0,0.3-0.2,0.5-0.2c0,0.2,0.1,0.3,0.3,0.3c0.3,0,0.5,0.1,0.7,0.4c0.1,0.2,0.2,0.5,0.3,0.7c0.2,0.3,0.5,0.6,0.8,0.8
		c0.3,0.2,0.6,0.4,1,0.6c0.2,0.1,0.1,0.6,0.2,0.8c0.3,0.6,1,0.2,1.2-0.2c0.4,0.6,0.7,1.1,1.4,0.7c0.2,0.6,0.9,1,1.3,1.5
		c0.2,0.3,0.5,0.5,0.8,0.6c0.3,0.1,0.7-0.1,0.9,0.1c0.4,0.5,0.7,1.1,1.4,1.1c0.5,0,0.6-0.5,0.6-0.9c0.3,0.3,0.4,0.4,0.5,0.8
		c0.1,0.3,0.2,0.7,0.3,1c0.2,0.7,0.2,1.3,0.3,2c0,1.3,0.1,2.5-0.2,3.7c-0.1,0.3,0,1.3-0.3,1.5c-0.1,0.1-0.7,0.1-0.9,0.2
		c-0.3,0.1-0.7,0.3-1,0.4c-0.3,0.2-1,0.7-0.6,1.1c0.3,0.3,0.8-0.1,1.1-0.1c0.2-0.1,0.5,0,0.7,0c0.3,0,0.5-0.1,0.7,0.1
		c0.3,0.5,0.9,0.6,1.5,0.6c0.4,0,1,0.4,1.4,0.6c0.5,0.3,1.3,0.3,1.8,0.3c0.7,0,1.4,0.1,2.1,0.1c0.3,0,0.6,0,0.9,0
		c0.3,0,0.4,0.2,0.7,0.3c0.2,0.1,0.5,0.2,0.7,0.2c0.2,0,0.5,0.3,0.8,0.4c0.3,0.1,0.5,0.3,0.7,0.5c0.2,0.2,0.2,0.5,0.4,0.6
		c0.6,0.6,0.8-0.3,0.9-0.8c0.1-0.7-0.5-1.1-1-1.5c0.8,0,1.6-0.2,2.3-0.1c0.5,0.1,0.8,0.3,1.2,0.6c0.1,0.1,0.3,0.2,0.4,0.3
		c0.1,0.1,0.1,0.3,0.2,0.4c0.4,0.5,0.7-0.4,0.6-0.7c-0.1-0.7-0.9-1.2-1.5-1.6c0.8,0.2,1.7,0.4,2.3,0.8c0.5,0.3,0.8,1,1.2,1.4
		c0.4,0.5,0.7,0,0.8-0.5c0.1-0.8-0.2-1.5-0.9-1.9c0.4-0.1,0.1-0.8,0-1c-0.3-0.5-0.9-0.8-1.5-0.9c0.5-0.2,1-0.1,1.4,0.2
		c0.2,0.2,0.3,0.3,0.3,0.5c0,0.2,0.2,0.4,0.3,0.5c0.3,0.1,0.6-0.1,0.7-0.4c0.1-0.4-0.1-0.8-0.2-1.1c-1.3-2.1-4.7-0.8-6.6-0.7
		c-0.6,0-1.1,0.1-1.7,0.1c-0.6,0-0.8,0-0.8-0.6c0-0.5,0.1-0.9,0-1.4c0-0.5-0.2-1.1-0.4-1.6c-0.3-1.1-0.5-2.2-0.7-3.3
		c0-0.2-0.1-0.5-0.1-0.7c0-0.1-0.1-0.4,0-0.4c0.1-0.1,0.2,0,0.3-0.1c0.1-0.2-0.1-0.4-0.2-0.5c-0.1-0.3-0.1-0.5-0.1-0.8
		c0.2,0.2,0.4,0.3,0.6,0.5c0.1,0.2,0.2,0.5,0.4,0.4c-0.3-0.5-0.4-0.9-0.6-1.4c0.1,0.1,0.1,0.2,0.3,0.3c-0.2-0.3-0.2-0.6-0.4-0.8
		c-0.1-0.2-0.3-0.6-0.2-0.8c0.3,0.6,0.7,1.2,1,1.8c0.1,0.2,0.2,0.4,0.5,0.5c0.1,0.1,0.3,0.2,0.4,0.3c-0.1-0.2-0.2-0.3-0.1-0.5
		c0.1,0,0.3,0.1,0.3,0.1c0.1,0.1,0.2,0.3,0.3,0.3c0.2,0-0.1-0.3-0.1-0.4c-0.3-0.4-0.5-1.1-0.8-1.6c0.1,0.1,0.2,0.2,0.3,0.3
		c0,0,0,0,0-0.1c-0.5-0.5-0.7-1.4-0.9-2c0.5,0.7,1.1,1.5,1.7,2.1c0.2,0.2,0.8,0.4,0.5-0.1c-0.3-0.5-0.6-1-0.8-1.5
		c0.4,0.5,0.8,1.5,1.5,1.4c-0.1-0.1-0.2-0.3-0.1-0.4c0.1,0.1,0.8,0.5,0.7,0.3c-0.1-0.1,0-0.1,0-0.3c-0.1-0.2-0.2-0.4-0.4-0.6
		c0.3,0.3,0.7,0.5,1,0.8c0.1,0.1,0.2,0.3,0.3,0.1c0.1-0.1-0.2-0.3-0.3-0.4c0,0,0.1,0.1,0.1,0.1c-0.2-0.3-0.4-0.5-0.6-0.7
		c-0.1-0.2-0.2-0.5-0.4-0.7c-0.2-0.2,0-0.3,0.1-0.5c0.1-0.1,0.6,0.1,0.7,0.1c0.7,0.1,1.2-0.3,1.8-0.5c0.6-0.2,1.3-0.4,1.9-0.6
		c1.3-0.5,2.6-1,3.8-1.5c0.5-0.2,0.9-0.6,1.3-0.8c0.5-0.3,0.7-0.8,1.3-0.9c2.4-0.2,5-1.1,6.9-2.6c1.9-1.5,3.3-3.6,4.2-5.8
		c1-2.5,1.8-5.1,3-7.5c0.6-1.2,1.2-2.3,2.1-3.3c0.8-1,1.5-1.8,1.9-3c0.4-1.1,0.3-2.3,0.4-3.4c0.1-1.3,0-2.6,0.1-3.9
		c0.1-0.7,0.2-1.4,0.4-2c0.2-0.7,0.5-1.3,0.8-2c0.2-0.5,0.2-1,0.1-1.5c0-0.1,0.4-0.5,0.5-0.6c0.2-0.1,0.4,0,0.6-0.1
		c0.6-0.1,1-0.6,1.4-1c0.2-0.2,0.3-0.4,0.4-0.5c0.1-0.2,0.4-0.3,0.6-0.4c0.4-0.3,0.8-0.5,1.2-0.7c0.6-0.3,0.6-0.2,1.1,0
		c0.4,0.2,0.9,0.4,1.3,0.5c0.7,0.2,1.5-0.1,1.8,0.7C96.1,50.7,96,50.6,96,50.4 M46,93.2C46,93.2,46,93.2,46,93.2 M46.6,95.9
		c0-0.2-0.1-0.4-0.1-0.6C46.6,95.4,46.7,95.8,46.6,95.9 M49.1,95.6c0.1,0.3,0.5,0.7,0.4,1c-0.1-0.3-0.4-0.4-0.4-0.6
		c-0.1-0.5-0.3-0.9-0.3-1.4C48.9,94.9,49,95.3,49.1,95.6 M49.1,96.2c-0.2,0-0.2-0.1-0.2-0.3C48.9,96,49,96.1,49.1,96.2 M49.7,103.7
		c0,0.6-0.2,1.2-0.3,1.8c-1.3-2.1-2.1-4.5-2-7c0.3,0.1,0.3,0.4,0.4,0.6c0.1-0.1,0.1,0,0-0.1c-0.1-0.3-0.1-0.3-0.1-0.5
		c0-0.4-0.2-0.8-0.3-1.2c0.3,0.3,0.4,0.7,0.5,1c0.2,0.5,0.3,0.4,0.2-0.1c0.1,0.1,0.2,0.3,0.3,0.4c0-0.1-0.2-0.4-0.2-0.5
		c0.1-0.1,0-0.2,0-0.3c-0.1-0.4-0.5-1-0.5-1.4c0.3,0.7,0.4,1.5,0.9,2c-0.3-1.2-0.5-2.5-0.7-3.7c0.1,0.4,0.3,0.7,0.4,1
		c0.1,0.3,0.2,0.5,0.2,0.7c0.1,0.8,0.4,1.6,0.5,2.4C49.5,100.4,49.7,102.1,49.7,103.7 M49.8,95.9C49.8,95.8,49.8,95.9,49.8,95.9
		 M50.2,105.9C50.2,105.9,50.2,105.9,50.2,105.9 M60.4,107.5c0,0,0.1,0,0.1,0c-0.1,0-0.1,0-0.2-0.1
		C60.3,107.5,60.4,107.5,60.4,107.5 M83.1,40.8c0.1,0,0.1,0,0.2,0.1C83.2,40.9,83.1,40.8,83.1,40.8 M91.9,47.1
		C91.9,47.1,91.8,47.2,91.9,47.1C91.9,47.1,92,47.1,91.9,47.1C92,47.1,92,47.1,91.9,47.1 M91,41.7C91,41.7,91,41.7,91,41.7"/>
	<path class="st15" d="M92.5,42.5c0.1-0.3-0.2-0.8-0.4-0.4c-0.1-0.1,0-0.3-0.2-0.4c-0.2-0.2-0.4,0.1-0.4,0.4
		c-0.6-0.5-0.7-0.5-0.9,0.2c0,0.2,0.1,0.3,0.1,0.5c0,0.4,0.2,0.7,0.4,1c0.3,0.5,0.7,1.2,0.4,1.8c-0.1,0.2-0.3,0.4-0.5,0.5
		c-0.2,0.1-0.5,0.3-0.3,0.5c-0.9,0.1-1.4-1.4-1.9-1.9c-0.4-0.4-0.9-0.5-1.4-0.6c0,0,0-0.1-0.1-0.1c-0.1,0-0.2,0-0.4,0.1
		c-0.2,0.1-0.3,0.1-0.6,0.1c-0.6,0-1.1,0.2-1.7,0.3c-0.4,0.1-0.5,0.2-0.3,0.4c0.2,0.2,0.4,0.3,0.5,0.6c0.1,0.3,0.1,0.6,0.2,0.9
		c0.1,0.1,0.1,0.2,0.2,0.2c0.2,0,0.2,0.5,0.1,0.5c0,0,0,0,0,0C85.3,47,85,46.9,84.9,47c-0.1,0.1,0.1,0.1,0.1,0.2c0,0.1,0,0.3,0,0.5
		c-0.3-0.1-0.7-0.1-1-0.2c-0.3,0-0.4-0.1-0.7-0.2c0,0-0.3,0-0.3,0c-0.1-0.1-0.2-0.3-0.3-0.5c-0.1-0.2-0.3-0.3-0.3-0.6
		c0.2,0.1,0.3,0.2,0.5,0.2c-0.1-0.1-0.3-0.2-0.4-0.4c-0.1-0.1,0-0.3-0.2-0.4c-0.5-0.2-0.3,1.2-0.4,1.4c-0.1,0.1-0.3,0.2-0.4,0.4
		c0,0.1,0,0.2-0.1,0.3c0,0.1-0.1,0.4,0,0.4c0,0,0.1-0.2,0.2-0.2c-0.2,0.2-0.1,1.1,0,1.5c0.1,0.5,0.4,0.8,0.6,1.3
		c0.1,0.2,0.3,0.3,0.5,0.5c0.2,0.2,0.2,0.5,0.3,0.8c0.1,0.5,0.2,1.1,0.5,1.6c0.2,0.2,0.5,0,0.6-0.1c0.3-0.3,0.2-0.7,0.4-1
		c0.7-1.1,2.1-1.8,3.2-2.3c0.3-0.1,0.6-0.3,0.9-0.3c-1.3,0.7-2.7,1.2-3.7,2.3c-0.5,0.5,0.2,0.5,0.6,0.7c0.2,0.1,0.3,0,0.4,0.2
		c0.1,0.2,0.6-0.1,0.7-0.2c0,0.1-0.3,0.6-0.3,0.7c0.2,0.2,0.8-0.8,0.9-0.9c0.4-0.3,1-0.3,1.4-0.5c0.3-0.2,0.6-0.5,0.8-0.9
		c0.1-0.2,0.1-0.4,0.2-0.6c0-0.1,0.5-0.2,0.6-0.3c0.4-0.2-0.1-0.4-0.2-0.5c-0.3-0.3,0.9-0.8,1.1-0.8c0.5-0.1,1.1,0.1,1.7,0
		c0.1,0,0.1,0.1,0.2,0c0.1-0.1,0-0.1,0-0.2c0,0-0.1,0-0.1-0.1c0,0,0.1,0,0.2,0c0.1-0.1,0.2-0.1,0-0.2c-0.3-0.1-0.8,0-1.1,0
		c-0.6,0-1.1-0.2-1.7-0.1c-0.7,0-1.3,0-2,0.1c0,0,0-0.2,0-0.2c0.4-0.2,0.8-0.4,1.2-0.4c0.2,0,0.2-0.1,0.4-0.1c0.2,0,0.4-0.1,0.6,0
		c0.3,0,1,0.7,1.3,0.3c0.2-0.2,0.2-0.3,0.1-0.6c0.3,0.2,0.1-0.1,0.2-0.2c0.1-0.2,0-0.2,0.1-0.3c0.1-0.1,0.4-0.1,0.5,0
		c0.2,0,0.6,0.4,0.7,0.1c0-0.1-0.1-0.2-0.1-0.3c0.5,0,0.6-0.1,0.2-0.5c0,0-0.3,0-0.2-0.1c0.1-0.1,0.1-0.1,0.1-0.2
		c0-0.3-0.4-0.2-0.1-0.6c0.3-0.4,0.4-0.5,0.2-1c-0.1-0.2,0.2-0.8-0.2-0.7c0.1-0.2,0.3-0.6,0.2-0.8c-0.1-0.3-0.3-0.1-0.5,0.1
		c-0.3,0.4-0.3,0.2-0.2-0.2C92.8,42.7,92.8,42.5,92.5,42.5 M87.1,44.3c0.7,0.1,1.3,0.4,1.8,1c0,0.1-0.1,0-0.2,0.1
		c-0.1,0.1-0.2,0-0.2,0.1c0,0.1,0,0.3-0.1,0.4c-0.3,0.3-0.6,0.5-1.1,0.5c-0.4,0-0.8-0.3-1-0.6c-0.2-0.3-0.2-0.7-0.5-0.9
		c0.2-0.1,0.3-0.2,0.4-0.3c0.3-0.2,0.6-0.2,1-0.1c0.3,0.1,0.5,0.2,0.7,0.4c0.2,0.1,0.2,0.3,0.5,0.3C88.5,44.8,87.5,44.4,87.1,44.3
		 M85.8,45.4c0.2,0.8,1,1.5,1.9,1.4c0.4-0.1,0.9-0.2,1.2-0.5c-0.4,0.5-1,0.7-1.6,0.7c-0.5,0-0.8-0.2-1.1-0.5
		c-0.2-0.2-0.6-0.9-0.4-1.2C85.8,45.3,85.8,45.4,85.8,45.4 M92,45.5C92,45.5,92,45.5,92,45.5 M90.5,48.9c-0.6,0-1.3,0.2-1.9,0.3
		c-0.3,0.1-0.9,0.3-1.1,0.1c0.3-0.1,0.5-0.3,0.8-0.4c0,0.3,0.7,0,0.8,0C89.6,48.8,90.1,48.8,90.5,48.9 M84,51.5c0,0,0-0.1,0-0.1
		c0,0,0,0,0.1,0C84,51.4,84,51.4,84,51.5 M84.2,52.7C84.2,52.8,84.2,52.8,84.2,52.7"/>
	<path class="st16" d="M87,44.7c-0.9,0.3-0.5,1.8,0.5,1.8C88.6,46.4,88.1,44.5,87,44.7 M87.2,46.1c-0.7-0.3-0.3-1.3,0.3-1
		C87.9,45.4,87.7,46.2,87.2,46.1"/>
</g>
<text transform="matrix(1 0 0 1 120.1429 52.3709)"><tspan x="0" y="0" class="st17 st18">W</tspan><tspan x="48" y="0" class="st17 st19">ILD</tspan><tspan x="119.1" y="0" class="st17 st18"> C</tspan><tspan x="165.8" y="0" class="st17 st19">HICKEN</tspan></text>
<text transform="matrix(1 0 0 1 169.4092 96.2059)" class="st20 st19">UNIVERSITY</text>
</svg>
