<?xml version="1.0" encoding="UTF-8" standalone="no"?><!DOCTYPE svg PUBLIC "-//W3C//DTD SVG 1.1//EN" "http://www.w3.org/Graphics/SVG/1.1/DTD/svg11.dtd"><svg width="100%" height="100%" viewBox="0 0 2175 2175" version="1.1" xmlns="http://www.w3.org/2000/svg" xmlns:xlink="http://www.w3.org/1999/xlink" xml:space="preserve" xmlns:serif="http://www.serif.com/" style="fill-rule:evenodd;clip-rule:evenodd;stroke-linecap:round;stroke-linejoin:round;stroke-miterlimit:1.5;"><g><path d="M2009.38,1087.5l0,-1032.13l-1843.75,-0l-0,1032.13c51.862,494.108 372.454,830.338 921.875,1032.13c549.421,-201.791 870.012,-538.021 921.879,-1032.13" style="fill:#fff;stroke:#000;stroke-width:17.38px;"/><path d="M165.623,616.233c3.475,3.454 -0,-557.921 -0,-557.921l1843.75,0l0,557.921" style="fill:#a51c21;fill-rule:nonzero;stroke:#000;stroke-width:17.38px;stroke-linecap:butt;stroke-miterlimit:2;"/><path d="M165.623,616.25l1843.75,-2.946" style="fill:none;stroke:#000;stroke-width:17.38px;"/></g><path d="M1729.28,786.275l3.471,3.471c0,-3.471 1.738,-8.679 -1.737,-12.154c-3.471,-1.734 -6.942,-0 -8.68,1.737c1.738,1.738 5.209,3.471 6.946,6.946m62.5,128.471c0,-10.417 -1.737,-20.833 -6.946,-29.513c-5.099,-8.572 -12.261,-15.734 -20.833,-20.833c-8.679,-5.208 -17.362,-5.208 -22.571,-15.625c-1.733,-1.737 -3.471,-1.737 -1.733,-5.208c-0,-1.738 3.471,-1.738 5.208,-0c0,-3.475 1.734,-12.154 -1.737,-13.892c1.737,-3.471 -1.738,-13.887 -1.738,-19.096c-1.733,1.738 -3.471,1.738 -6.941,3.471c1.733,-3.471 3.47,-5.208 5.208,-8.679c-3.475,-0 -5.208,-3.471 -5.208,-6.946c-10.417,0 -20.834,-17.358 -26.042,-24.304c-0,5.208 -6.946,-0 -8.683,-1.738c-1.734,-3.47 -3.471,-6.941 -5.209,-8.679c-3.471,-3.471 -6.941,-6.946 -12.15,-8.679c-6.946,-5.208 -15.625,-10.417 -24.308,-13.892c-6.942,-3.47 -13.888,-8.679 -19.096,-12.15c1.738,3.471 3.471,5.209 3.471,8.68c-1.733,-1.738 -12.15,-12.155 -15.625,-10.417c-5.208,1.737 1.737,6.946 3.475,8.679c-1.738,-1.733 -20.833,-8.679 -10.417,-1.733c-3.475,-1.738 -8.683,-5.209 -10.416,-0c-5.209,-1.738 -13.892,-1.738 -17.363,-5.209c-3.471,-1.737 -8.679,-6.945 -12.154,-6.945c-0,1.737 1.737,3.47 3.475,5.208c-10.417,-3.471 -20.833,-1.738 -31.25,-1.738l-12.154,0c-3.471,0 -5.209,3.475 -6.946,3.475c-24.304,0 -45.138,5.209 -67.708,10.417c-45.138,8.679 -83.334,34.721 -112.846,69.442c-15.625,19.1 -29.513,38.196 -43.404,59.029c-12.15,15.625 -20.834,32.987 -36.459,46.875c-15.625,13.887 -38.191,24.304 -57.291,32.987c-8.68,3.471 -19.096,8.68 -29.513,10.417c-10.417,1.738 -20.833,0 -31.25,1.733c-10.417,1.734 -24.304,-5.208 -34.721,-8.679c-12.154,-3.471 -24.308,-6.946 -34.725,-8.679c-22.566,-5.208 -45.137,-10.417 -67.708,-13.892l-76.388,-10.416c-24.304,-3.471 -48.612,-5.209 -71.179,-12.15c-45.141,-12.154 -64.237,-57.292 -98.958,-83.334c-19.1,-13.891 -39.933,-22.57 -64.238,-26.041l-17.362,-0c-5.208,-0 -8.679,-6.946 -12.15,-10.417c-8.683,-8.683 -17.363,-15.625 -27.779,-20.833c-3.471,-1.738 -6.946,-5.209 -12.154,-6.946c-6.942,-1.738 -10.417,-0 -13.888,-3.471c-8.679,-8.683 -17.362,-17.362 -26.042,-24.308c-17.362,-15.625 -34.72,-29.513 -57.291,-34.721c-5.209,-1.738 -12.154,-1.738 -17.363,-1.738c-5.208,0 -8.679,-1.733 -13.887,-1.733c-5.209,0 -6.946,3.471 -12.154,5.208c-6.942,1.734 -13.888,1.734 -20.834,3.471c-22.566,5.209 -32.983,26.042 -32.983,48.613c-0,17.358 -3.475,34.721 -3.475,52.083c-0,19.096 3.475,38.192 8.683,57.292c-19.1,1.733 -22.571,32.983 -13.891,46.875c-10.417,3.471 -15.625,13.887 -17.359,22.566c0,3.475 0,8.684 1.734,12.155c1.733,3.47 5.208,6.945 5.208,10.416c-0,3.471 -3.471,8.679 -3.471,12.154l0,17.359c1.738,10.416 5.208,19.1 10.417,27.779c-8.679,1.737 -20.834,1.737 -20.834,12.154c-1.737,8.679 3.471,19.096 1.738,29.513c-1.738,19.095 10.417,39.929 27.775,50.345c1.737,0 5.208,1.738 6.946,3.475l-0,6.942c-0,5.208 -0,10.417 1.737,15.625c1.734,8.683 5.209,19.1 10.417,27.779c10.417,17.363 24.304,31.25 43.4,41.667c-0,-0 1.737,-0 1.737,1.737c-5.208,6.942 -6.945,15.625 -8.679,26.042c-1.737,12.15 -3.475,22.567 -1.737,34.721c3.471,22.571 19.096,36.458 38.196,48.612l-6.946,6.942c-1.738,1.738 -5.209,3.475 -6.946,5.208c-0,0 1.737,1.738 1.737,3.475c-1.737,6.942 0,8.68 5.209,15.625c-5.209,3.471 -12.154,12.15 -1.738,12.15c-1.733,5.209 -12.15,3.475 -10.416,10.417c1.733,6.942 8.683,1.738 13.891,0c-3.475,5.208 -15.625,5.208 -17.362,10.417c-3.471,6.946 5.208,6.946 10.416,5.208c1.738,5.208 -12.154,6.946 -13.887,10.417c-1.738,1.737 -0,5.208 1.733,5.208c3.475,1.738 5.209,0 8.684,-1.733c-1.738,3.471 -6.946,6.941 -6.946,12.15l-0,3.475c-0,1.733 -0,3.471 -1.738,6.941c1.738,-1.733 5.209,-3.47 6.946,0c-3.471,1.738 -12.154,15.625 -3.471,12.155c-3.475,-1.738 -3.475,3.47 3.471,5.208c3.471,-0 5.208,-1.738 6.946,-0c1.737,1.737 3.471,5.208 5.208,6.946c3.471,6.941 6.942,12.15 12.15,19.096c1.738,3.47 5.209,5.208 8.684,8.679c3.475,3.471 3.47,3.475 1.733,8.683c-1.738,5.208 -1.733,15.625 1.737,19.096c1.738,1.737 5.209,3.471 6.946,5.208c3.471,1.738 3.471,1.738 6.942,5.209c1.737,1.737 -0,6.945 1.737,8.679c1.738,1.733 5.209,1.737 8.68,1.737c5.208,0 10.416,1.738 15.625,0c-5.209,3.471 -15.625,10.417 -13.888,19.096c0,6.946 10.417,6.946 15.625,5.208c0,6.946 1.738,8.684 10.417,8.684c3.471,-0 5.208,-3.475 6.946,-3.475c3.47,-1.734 1.733,-0 5.208,-0c6.942,1.737 12.15,3.475 13.887,10.416c1.738,6.942 0,15.625 1.738,22.571c-0,5.208 -3.475,29.513 6.942,27.779c3.475,-1.737 6.945,-3.475 10.416,-3.475c3.471,0 8.684,-1.733 12.154,-3.471c-5.208,5.209 -3.47,26.042 5.209,24.305c1.737,-0 5.208,-3.471 5.208,-3.471c1.738,1.737 3.471,1.737 5.208,1.737c3.471,0 5.209,-3.475 8.68,-3.475c-0,3.475 1.737,5.209 5.208,5.209c5.208,-0 8.683,1.737 12.154,6.945c1.738,3.471 3.471,8.68 5.208,12.155c3.72,5.457 8.431,10.167 13.888,13.887c5.208,3.471 10.417,6.946 17.362,10.417c3.471,1.737 1.738,10.416 3.471,13.887c5.209,10.417 17.363,3.475 20.834,-3.471c6.945,10.417 12.154,19.096 24.308,12.155c3.471,10.416 15.625,17.358 22.567,26.041c3.475,5.209 8.683,8.679 13.891,10.417c5.209,1.737 12.15,-1.738 15.625,1.733c6.942,8.684 12.15,19.1 24.304,19.1c8.68,0 10.417,-8.683 10.417,-15.625c5.208,5.209 6.946,6.942 8.679,13.888c1.738,5.208 3.475,12.154 5.209,17.362c3.475,12.15 3.475,22.567 5.208,34.721c-0,22.571 1.737,43.404 -3.471,64.238c-1.737,5.208 0,22.566 -5.208,26.041c-1.738,1.734 -12.154,1.734 -15.625,3.471c-5.209,1.738 -12.154,5.208 -17.363,6.946c-5.208,3.471 -17.358,12.15 -10.416,19.096c5.208,5.208 13.891,-1.738 19.1,-1.738c3.47,-1.733 8.679,0 12.15,0c5.208,0 8.683,-1.733 12.154,1.738c5.208,8.679 15.625,10.416 26.041,10.416c6.946,0 17.363,6.946 24.305,10.417c8.683,5.208 22.57,5.208 31.25,5.208c12.154,0 24.308,1.738 36.458,1.738l15.625,0c5.208,0 6.946,3.471 12.154,5.208c3.471,1.734 8.679,3.471 12.154,3.471c3.475,0 8.679,5.208 13.888,6.946c5.208,1.737 8.679,5.208 12.154,8.679c3.475,3.471 3.471,8.679 6.942,10.417c10.416,10.416 13.891,-5.209 15.625,-13.888c1.737,-12.154 -8.68,-19.1 -17.359,-26.041c13.888,-0 27.775,-3.475 39.929,-1.738c8.68,1.738 13.888,5.208 20.834,10.417c1.737,1.737 5.208,3.471 6.946,5.208c1.737,1.738 1.733,5.208 3.47,6.946c6.946,8.679 12.155,-6.946 10.417,-12.154c-1.737,-12.154 -15.625,-20.834 -26.042,-27.779c13.888,3.475 29.513,6.945 39.93,13.891c8.683,5.209 13.891,17.359 20.833,24.305c6.946,8.679 12.154,-0 13.892,-8.68c1.733,-13.891 -3.475,-26.041 -15.625,-32.987c6.941,-1.738 1.733,-13.888 -0,-17.363c-5.209,-8.679 -15.625,-13.887 -26.042,-15.625c8.679,-3.47 17.358,-1.733 24.304,3.475c3.471,3.471 5.208,5.209 5.208,8.68c0,3.47 3.471,6.945 5.209,8.679c5.208,1.737 10.416,-1.734 12.154,-6.942c1.733,-6.946 -1.738,-13.892 -3.475,-19.1c-22.567,-36.458 -81.596,-13.887 -114.583,-12.15c-10.417,0 -19.096,1.733 -29.513,1.733c-10.417,0 -13.887,0 -13.887,-10.416c-0,-8.679 1.733,-15.625 -0,-24.304c-0,-8.68 -3.475,-19.096 -6.946,-27.78c-5.209,-19.095 -8.679,-38.191 -12.154,-57.291c-0,-3.471 -1.734,-8.679 -1.734,-12.15c0,-1.738 -1.737,-6.946 0,-6.946c1.734,-1.738 3.471,-0 5.209,-1.738c1.733,-3.47 -1.738,-6.941 -3.475,-8.679c-1.734,-5.208 -1.734,-8.679 -1.734,-13.887c3.471,3.471 6.942,5.208 10.417,8.679c1.733,3.471 3.471,8.679 6.942,6.946c-5.209,-8.684 -6.942,-15.625 -10.417,-24.309c1.737,1.738 1.737,3.475 5.208,5.209c-3.471,-5.209 -3.471,-10.417 -6.941,-13.888c-1.738,-3.471 -5.209,-10.416 -3.475,-13.887c5.208,10.416 12.154,20.833 17.362,31.25c1.738,3.471 3.471,6.941 8.679,8.679c1.738,1.737 5.209,3.471 6.946,5.208c-1.737,-3.471 -3.471,-5.208 -1.737,-8.679c1.737,0 5.208,1.733 5.208,1.733c1.737,1.738 3.475,5.209 5.208,5.209c3.475,-0 -1.733,-5.209 -1.733,-6.942c-5.208,-6.946 -8.683,-19.1 -13.892,-27.779l5.209,5.208l-0,-1.737c-8.68,-8.679 -12.15,-24.304 -15.625,-34.721c8.683,12.154 19.1,26.042 29.516,36.458c3.471,3.471 13.888,6.946 8.679,-1.737c-5.208,-8.684 -10.416,-17.359 -13.887,-26.042c6.942,8.683 13.887,26.042 26.042,24.308c-1.738,-1.737 -3.475,-5.208 -1.738,-6.945c1.738,1.737 13.888,8.679 12.154,5.208c-1.737,-1.738 0,-1.738 0,-5.208c-1.737,-3.471 -3.475,-6.946 -6.946,-10.417c5.209,5.208 12.155,8.679 17.363,13.887c1.733,1.738 3.471,5.209 5.208,1.738c1.734,-1.738 -3.475,-5.208 -5.208,-6.946l1.733,1.738c-3.471,-5.209 -6.941,-8.68 -10.416,-12.155c-1.734,-3.47 -3.471,-8.679 -6.942,-12.15c-3.471,-3.47 -0,-5.208 1.733,-8.683c1.738,-1.733 10.417,1.738 12.154,1.738c12.155,1.737 20.834,-5.209 31.25,-8.68c10.417,-3.47 22.571,-6.945 32.988,-10.416l65.971,-26.042c8.679,-3.475 15.625,-10.417 22.571,-13.892c8.679,-5.208 12.15,-13.887 22.566,-15.625c41.667,-3.471 86.809,-19.096 119.792,-45.137c32.983,-26.042 57.292,-62.5 72.917,-100.696c17.362,-43.4 31.25,-88.542 52.083,-130.208c10.417,-20.834 20.833,-39.93 36.458,-57.292c13.892,-17.358 26.042,-31.25 32.988,-52.083c6.946,-19.096 5.208,-39.93 6.946,-59.025c1.733,-22.571 -0,-45.142 1.733,-67.709c1.737,-12.154 3.475,-24.308 6.946,-34.725c3.471,-12.15 8.679,-22.566 13.887,-34.721c3.475,-8.679 3.475,-17.362 1.738,-26.041c-0,-1.738 6.946,-8.679 8.679,-10.417c3.475,-1.737 6.946,0 10.417,-1.737c10.416,-1.734 17.362,-10.417 24.308,-17.359c3.471,-3.475 5.208,-6.946 6.942,-8.683c1.737,-3.471 6.945,-5.208 10.416,-6.942c6.946,-5.208 13.892,-8.683 20.834,-12.154c10.416,-5.208 10.416,-3.471 19.1,0c6.941,3.471 15.625,6.946 22.566,8.679c12.154,3.475 26.042,-1.733 31.25,12.154c5.209,-5.208 3.475,-6.945 3.475,-10.416m-857.641,789.929c-0,-3.471 -1.734,-6.942 -1.734,-10.417c1.734,1.738 3.471,8.684 1.734,10.417m43.404,-5.208c1.737,5.208 8.679,12.154 6.946,17.362c-1.738,-5.208 -6.946,-6.946 -6.946,-10.417c-1.738,-8.679 -5.209,-15.625 -5.209,-24.304c1.738,5.209 3.471,12.15 5.209,17.359m-0,10.416c-3.471,0 -3.471,-1.733 -3.471,-5.208c-0,1.737 1.733,3.475 3.471,5.208m10.416,130.209c0,10.416 -3.47,20.833 -5.208,31.25c-22.571,-36.459 -36.458,-78.125 -34.721,-121.525c5.209,1.733 5.209,6.941 6.942,10.416c1.737,-1.737 1.737,0 -0,-1.737c-1.733,-5.208 -1.733,-5.208 -1.733,-8.679c-0,-6.946 -3.475,-13.892 -5.209,-20.834c5.209,5.209 6.942,12.15 8.679,17.359c3.471,8.683 5.209,6.946 3.471,-1.734c1.738,1.734 3.475,5.209 5.209,6.942c-0,-1.733 -3.471,-6.942 -3.471,-8.679c1.737,-1.738 -0,-3.471 -0,-5.208c-1.738,-6.946 -8.679,-17.363 -8.679,-24.305c5.208,12.15 6.941,26.042 15.625,34.721c-5.209,-20.833 -8.684,-43.404 -12.155,-64.237c1.738,6.946 5.209,12.154 6.946,17.362c1.738,5.209 3.471,8.679 3.471,12.154c1.738,13.888 6.946,27.775 8.679,41.667c8.684,27.775 12.154,57.292 12.154,85.067m1.738,-135.417c-0,-1.733 -0,0 -0,0m184.025,201.392l-1.733,-1.738c-0,1.738 1.733,1.738 1.733,1.738m394.1,-1157.99c1.733,0 1.733,0 3.471,1.738c-1.738,-0 -3.471,-1.738 -3.471,-1.738m152.775,109.375c-0,0 -1.733,1.738 -0,0Z"/><path d="M1731.02,777.592c1.737,-5.209 -3.471,-13.888 -6.942,-6.942c-1.738,-1.737 -0,-5.208 -3.475,-6.946c-3.471,-3.471 -6.942,1.738 -6.942,6.946c-10.416,-8.683 -12.154,-8.683 -15.625,3.471c0,3.471 1.734,5.208 1.734,8.679c-0,6.946 3.475,12.154 6.945,17.363c5.209,8.679 12.155,20.833 6.946,31.25c-1.961,3.696 -4.986,6.72 -8.683,8.679c-3.471,1.737 -8.679,5.208 -5.208,8.683c-15.625,1.733 -24.305,-24.308 -32.984,-32.987c-6.946,-6.946 -15.625,-8.68 -24.308,-10.417c-0,-0 -0,-1.738 -1.733,-1.738c-1.734,0 -3.475,0 -6.946,1.738c-3.471,1.737 -5.209,1.737 -10.417,1.737c-10.417,0 -19.096,3.471 -29.512,5.209c-6.946,1.733 -8.684,3.471 -5.209,6.941c3.475,3.471 6.942,5.209 8.679,10.417c1.738,5.208 1.738,10.417 3.471,15.625c1.738,1.738 1.738,3.475 3.475,3.475c3.471,0 3.471,8.679 1.734,8.679c-0,-1.737 -5.209,-3.471 -6.942,-1.737c-1.733,1.733 1.733,1.737 1.733,3.475l0,8.679c-5.208,-1.738 -12.15,-1.738 -17.358,-3.471c-5.208,0 -6.946,-1.737 -12.154,-3.475l-5.209,0c-1.737,-1.733 -3.47,-5.208 -5.208,-8.679c-1.737,-3.471 -5.208,-5.208 -5.208,-10.417c3.471,1.738 5.208,3.471 8.679,3.471c-1.733,-1.733 -5.208,-3.471 -6.942,-6.942c-1.737,-1.737 0,-5.208 -3.475,-6.945c-8.679,-3.471 -5.208,20.833 -6.941,24.304c-1.738,1.737 -5.209,3.475 -6.946,6.946c-0,1.737 -0,3.47 -1.738,5.208c0,1.737 -1.733,6.946 0,6.946c0,-0 1.738,-3.475 3.475,-3.475c-3.475,3.475 -1.737,19.1 0,26.041c1.734,8.684 6.942,13.892 10.417,22.571c1.733,3.471 5.208,5.209 8.679,8.679c3.471,3.471 3.471,8.684 5.208,13.892c1.738,8.679 3.471,19.096 8.68,27.775c3.475,3.475 8.683,0 10.416,-1.733c5.209,-5.209 3.475,-12.154 6.946,-17.363c12.154,-19.096 36.458,-31.25 55.554,-39.929c5.209,-1.737 10.417,-5.208 15.625,-5.208c-22.566,12.15 -46.875,20.833 -64.233,39.929c-8.683,8.679 3.471,8.679 10.417,12.154c3.47,1.733 5.208,0 6.941,3.471c1.734,3.471 10.417,-1.738 12.154,-3.471c0,1.733 -5.208,10.417 -5.208,12.15c3.471,3.475 13.888,-13.887 15.625,-15.625c6.946,-5.208 17.363,-5.208 24.304,-8.679c5.903,-3.92 10.69,-9.304 13.892,-15.625c1.733,-3.471 1.733,-6.946 3.471,-10.417c-0,-1.737 8.679,-3.471 10.416,-5.208c6.946,-3.471 -1.737,-6.946 -3.47,-8.679c-5.209,-5.209 15.625,-13.892 19.095,-13.892c8.68,-1.733 19.096,1.738 29.513,0c1.737,0 1.737,1.738 3.475,0c1.737,-1.737 -0,-1.733 -0,-3.471c-0,0 -1.738,0 -1.738,-1.737l3.471,-0c1.738,-1.734 3.475,-1.734 0,-3.471c-5.208,-1.738 -13.887,-0 -19.096,-0c-10.416,-0 -19.095,-3.471 -29.512,-1.738c-12.154,0 -22.571,0 -34.725,1.738l-0,-3.471c6.946,-3.475 13.892,-6.946 20.833,-6.946c3.475,0 3.475,-1.737 6.946,-1.737c3.471,-0 6.946,-1.734 10.417,-0c5.208,-0 17.362,12.154 22.571,5.208c3.47,-3.471 3.47,-5.208 1.733,-10.417c5.208,3.475 1.737,-1.733 3.475,-3.47c1.733,-3.471 -0,-3.471 1.733,-5.209c1.734,-1.737 6.946,-1.737 8.684,0c3.47,0 10.416,6.946 12.15,1.738c-0,-1.738 -1.734,-3.475 -1.734,-5.209c8.679,0 10.417,-1.737 3.471,-8.683c0,-0 -5.208,-0 -3.471,-1.733c1.738,-1.734 1.734,-1.738 1.734,-3.475c-0,-5.209 -6.942,-3.471 -1.734,-10.417c5.209,-6.946 6.942,-8.679 3.471,-17.358c-1.737,-3.475 3.471,-13.892 -3.471,-12.155c1.734,-3.47 5.209,-10.416 3.471,-13.887c-1.737,-5.208 -5.208,-1.738 -8.679,1.733c-5.208,6.946 -5.208,3.475 -3.475,-3.471c-0,-3.47 -0,-6.945 -5.208,-6.945m-93.75,31.25c12.154,1.737 22.57,6.946 31.25,17.362c-0,1.738 -1.734,0 -3.471,1.738c-1.738,1.737 -3.471,-0 -3.471,1.733c-0,1.733 -0,5.208 -1.738,6.946c-5.208,5.208 -10.416,8.679 -19.095,8.679c-6.946,0 -13.892,-5.208 -17.363,-10.417c-3.471,-5.208 -3.471,-12.15 -8.679,-15.625c3.471,-1.733 5.208,-3.47 6.942,-5.208c5.208,-3.471 10.416,-3.471 17.362,-1.733c5.208,1.733 8.679,3.471 12.154,6.941c3.471,1.738 3.471,5.209 8.679,5.209c1.738,-6.942 -15.625,-13.888 -22.57,-15.625m-22.567,19.1c3.471,13.887 17.358,26.041 32.983,24.304c6.946,-1.738 15.625,-3.471 20.834,-8.679c-6.942,8.679 -17.359,12.15 -27.775,12.15c-8.684,-0 -13.892,-3.471 -19.1,-8.679c-3.471,-3.471 -10.417,-15.625 -6.942,-19.096Zm81.596,60.762c-10.417,0 -22.571,3.471 -32.988,5.209c-5.208,1.737 -15.625,5.208 -19.096,1.737c5.209,-1.737 8.68,-5.208 13.888,-6.946c-0,5.209 12.154,0 13.892,0c8.679,-1.737 17.358,-1.737 24.304,0m-112.846,45.138c-0,-1.734 -0,-1.734 -0,-0m3.471,20.833c-0,1.738 -0,1.738 -0,0" style="fill:#a51c21;"/><path d="M1635.53,815.788c-15.625,5.208 -8.683,31.25 8.679,31.25c19.096,-1.738 10.417,-34.721 -8.679,-31.25m3.471,24.304c-12.154,-5.209 -5.208,-22.567 5.208,-17.359c6.946,5.209 3.471,19.096 -5.208,17.359" style="fill:#fc3;"/><g><path d="M1072.64,212.571c6.187,0.154 -2.209,7.083 -7.655,8.704c-10.495,6.062 -25.02,10.054 -34.154,17.079c36.407,2.229 72.389,9.026 107.1,20.229c64.379,20.788 125.509,52.042 178.638,63.775c15.033,0.021 27.162,2.996 40.754,1.338c10.992,-1.342 22.792,0.462 33.854,0.696c11.638,0.2 20.025,11.433 22.483,21.904c1.517,10.375 -0.737,28.383 -7.012,34.85c-13.5,11.483 -37.475,8.2 -53.513,15.441c-18.287,8.263 -37.033,15.025 -56.187,20.492c-32.096,8.225 -64.725,14.492 -96.158,25.179c-29.3,8.667 -58.1,19.371 -88.046,25.65c-19.988,3.046 -40.384,2.146 -60.525,1.475c-33.288,-2.879 -66.088,-10.462 -98.042,-20.087c-5.392,-2.942 -11.187,-5.254 -17.225,-6.283c-3.142,-0.23 -2.042,-6.063 -3.971,-5.013c-14.041,6.771 -29.9,1.879 -44.483,-0.025c-16.671,-3.408 -33.867,-6.188 -49.367,-13.471c-6.296,-6.946 -18.354,-16.658 -29.483,-19.875c-6.975,-3.391 -15.867,2.604 -21.654,-3.375c-7.375,-1.45 -14.959,-3.258 -21.842,-6.541c-3.371,-1.071 -6.533,-3.925 -9.621,-4.767c-13.583,1.542 -26.758,1.837 -39.216,0.362c-5.03,6.734 -14.513,4.617 -20.521,0.509c-5.934,-3.221 -14.346,-9.775 -10.429,-17.359c4.808,-5.808 13.575,-4.666 20.262,-6.55c9.017,-2.212 18.213,-1.395 27.204,0.4c7.759,1.1 15.679,1.034 23.55,2.159c-25.287,-20.6 -43.679,-48.784 -70.762,-67.3c-6.046,-4.621 -17.213,-6.738 -21.85,0.691c0.062,4.021 6.058,17.975 0.175,18.238c-6.321,-0.475 -12.35,-16.046 -14.125,-20.979c-2.496,-11.296 8.258,-19.5 17.65,-22.929c8.029,-2.5 17.212,-2.684 25.191,0.07c5.35,2.4 11.055,5.105 15.605,8.446c0.895,-7.291 9.8,-8.775 14.9,-12.35c24.841,-12.325 51.225,-21.225 77.287,-30.566c24.971,-8.271 51.692,-6.955 77.538,-9.846c27.791,-1.679 56.22,-6.65 83.758,-0.217c15.175,1.704 30.492,1.296 45.733,1.925c16.659,-10.225 42.871,-18.096 62.1,-21.987c0.675,-0.084 1.354,-0.159 2.038,-0.121l0.021,0.029Zm-243.605,47.262c-16.854,-0.846 -30.991,15.117 -32.208,31.221c-1.404,13.058 7.108,26.658 20.183,29.617c12.105,3.621 26.655,1.196 34.542,-9.429c12.221,-13.838 8.642,-37.713 -7.162,-47.338c-4.605,-3.021 -9.83,-4.608 -15.38,-4.1l0.025,0.029Z" style="fill:#fff;fill-rule:nonzero;"/><path d="M1512.24,238.121c-9.242,12.704 -12.996,31.087 -25.588,40.621c-2.241,0.412 0,2.712 -0.666,4.245c-0.759,8.821 -4.721,15.171 -11.367,21.013c-1.983,0.696 -2.263,1.137 -0.733,2.696c4.104,8.012 5.341,17.9 1.262,26.191c-0.879,2.15 -1.996,4.275 -3.712,5.875c3.887,1.875 -0.088,5.2 0.562,8.838c0.429,7.267 -0.25,15.375 -5.196,21.121c3.988,2.104 4.459,7.337 5.454,11.325c1.58,8.383 -0.191,17.116 -3.258,24.958c-0.908,1.888 -1.867,3.904 -3.662,5.117c4.366,2.875 7.016,7.912 8.77,12.771c1.634,4.979 2.163,10.854 -0.629,15.525c3.838,0.837 5.059,5.266 6.975,8.254c2.317,4.896 4.075,11.041 1.525,16.162c-3.054,4.204 -8.658,1.879 -12.762,1.013c-16.5,-3.979 -28.404,-17.875 -42.492,-26.679l-36.754,-22.684c-9,-5.771 -19.908,-9.696 -30.375,-12c-3.558,-0.2 -9.317,2.092 -7.392,-1.508c1.888,-3.725 -2.433,-3.783 0.842,-5.671c16.858,-1.967 37.658,-6.675 43.9,-9.704c10.379,-5.042 9.446,-4.371 12.204,-15.579c5.392,-10.929 -1.883,-41.888 -13.029,-40.454c-6.221,-2.3 -20.663,-4.721 -51.408,-7.53c25.275,-16.866 50.65,-29.425 76.208,-46.741c20.275,-12.813 37.587,-28.671 58.812,-40.054c17.275,-12.221 28.063,-5.021 32.505,2.887l0.004,-0.008Zm-331.596,-19.321c-10.442,17.604 -5.588,28.158 14.037,29.979c-10.4,9.292 -10.262,14.15 -2.62,29.979c-52.467,-20.121 -105.638,-36.012 -160.846,-39.687c1.504,-4.625 6.3,-3.959 9.833,-7.05c20.563,-14.192 44.438,-24.088 69.504,-26.009c15.6,-1.65 31.092,-4.791 46.704,-6.458c-6.808,12.158 6.684,24.538 23.384,19.242l0.004,0.004Zm-378.617,190.342c4.238,0.754 6.925,4.662 10.125,7.229c5.238,5.062 7.675,12.187 11.454,18.283c2.742,-2.604 6.646,-0.625 8.542,1.988c14.367,15.129 28.529,30.358 43.692,44.637c-10.725,-15.45 -19.717,-32.067 -31.284,-46.912c-2.683,-2.546 -2.666,-7.563 1.1,-9.055c0.813,-0.3 1.796,-0.458 2.675,-0.304c6.613,1.813 13.33,3.675 19.859,5.788c2.704,1.441 4.454,4.15 6.75,6.125c1.079,-3.329 5.154,-3.917 8.025,-2.646c11.871,2.796 24.483,3.862 36.512,6.746c1.884,0.479 3.746,1 5.613,1.55c1.821,-4 6.85,-2.625 10.258,-2.096c6.104,1.187 12.575,2.85 17.367,7.008c2.062,2.85 4.829,6.088 4.541,9.734c-0.808,4.775 -6.679,4.129 -9.825,6.616c-4.054,2.263 -7.075,6.754 -6.033,11.521c0.258,4.892 4.492,8.167 6.513,12.263c0.787,4.025 -3.217,5.704 -5.771,7.804c-5.538,4.179 -7.488,12.375 -3.621,18.325c2.125,2.833 2.133,7.621 -1.563,9.121c-4.045,1.22 -8.033,-1.438 -11.908,-2.359c-7.367,-2.308 -14.3,-5.733 -20.725,-9.946c0.1,2.305 -1.296,4.75 -3.058,6.267c-4.229,3.575 -5.909,9.65 -3.692,14.788c1.504,2.933 1.629,7.312 -1.921,8.795c-4.304,1.426 -8.025,-2.291 -11.821,-3.745c-16.091,-8.079 -29.2,-21.442 -37.666,-37.271c-15.104,-26.6 -32.713,-51.742 -46.967,-78.829c-1.583,-2.992 -4.008,-7.363 -0.658,-10.096c0.762,-1.158 2.229,-1.038 3.416,-1.333l0.071,0.004Zm431.475,21.7l1.567,0.054c5.212,3.175 9.508,8.754 10.329,14.896c0.013,4.675 -5.125,5.537 -8.629,5.596c-7.175,0.516 -14.292,3.158 -19.013,8.779c-3.933,4.2 -10.166,3.133 -14.962,5.733c-5.804,2.413 -9.458,8.05 -11.908,13.538c-3.15,4.279 -9.592,1.27 -13.496,4.708c-6.604,4.267 -7.063,12.679 -8.504,19.625c-1.559,4.187 -6.525,5.512 -8.546,9.508c-4.013,5.146 -5.538,12.196 -3.5,18.421c0.016,5.104 -6.379,6.333 -9.804,3.567c-20.896,-10.913 -38.438,-27.3 -53.525,-45.213c-3.467,-4.962 -7.68,-9.596 -10.138,-15.154c-0.908,-4.612 3.846,-6.717 7.671,-6.392c10.258,-0.329 20.379,-2.333 30.475,-3.733c4.212,2.55 4.175,-1.242 8.133,-2.358c11.717,-3.2 23.279,-7.096 34.896,-10.479c3.271,1.233 4.017,-1.613 6.996,-2.525c9.454,-3.142 18.862,-6.53 28.383,-9.313c3.238,1.396 4.263,-2.504 7.613,-2.525c8.579,-2.462 17.204,-5.267 25.962,-6.733Zm-557.15,-135.684c7.146,0.142 13.038,4.838 18.117,9.379l15.287,13.65c15.663,14.75 29.992,30.763 45.159,46.071c2.179,2.246 1.616,6.463 -1.334,7.796c-2.333,1.133 -5.033,0.304 -7.529,0.317c-8.05,-0.692 -16.029,-2.15 -23.896,-3.95c-4.408,-1.542 -8.32,-4.204 -12.316,-6.575c-27.321,-15.313 -49.304,-50.146 -48.109,-54.009c-0.737,-4.145 1.613,-8.379 5.305,-10.283c2.808,-1.637 6.041,-2.567 9.27,-2.425l0.046,0.029Z" style="fill:#fff;fill-rule:nonzero;"/></g><path d="M1102.25,211.075c-28.217,3.283 -42.888,11.958 -64.425,24.95c83.271,4.608 141.208,34.225 203.229,59.275c27.508,11.117 55.025,20.575 77.675,22.837c30.017,3.563 45.583,0.534 75.796,10.742l-77.292,-4.362c-27.533,-4.209 -54.354,-13.442 -78.808,-23.317c-76.829,-31.05 -133.204,-54.492 -211.55,-60.671c-2.292,2.254 -7.6,2.2 -9.892,0.863c4.242,0.379 8.342,-2.613 11.179,-4.638c14.363,-11.167 29.734,-15.4 44.142,-22c-22.808,3.35 -46.7,13.608 -62.671,24.454l-46.362,-1.396l-0.575,-0.166c-17.084,-4.992 -32.767,-4.396 -50.509,-2.825l-84.766,6.687c-16.238,1.279 -31.879,7.929 -47.829,13.867c-25.542,9.504 -51.584,18.258 -70.93,32.754l-2.333,0.442l-1.687,-0.975c-8.509,-4.913 -14.975,-7.479 -20.534,-8.229c-5.558,-0.75 -10.333,0.166 -16.129,2.783l-0.029,0.012l-0.017,0c-5.287,2.33 -8.662,4.93 -10.616,7.492c-1.955,2.563 -2.634,5.067 -2.442,8.038c0.387,5.941 5.1,13.787 12.662,21.987c15.121,16.392 37.763,36.35 59.571,46.033l-4.483,2.455c-1.863,-1.23 -3.246,0.904 -5.242,-0.425c-17.896,-11.925 -40.496,-27.609 -55.058,-43.263c-8.092,-8.7 -13.95,-17.412 -14.525,-26.321c-0.288,-4.454 0.954,-8.937 3.867,-12.758c2.912,-3.821 7.333,-6.979 13.345,-9.629l0.017,-0c6.604,-2.979 13.038,-4.284 19.954,-3.346c6.359,0.862 13.263,3.962 21.209,8.367c21.97,-11.546 45.516,-22.555 70.862,-31.988c15.729,-5.829 31.954,-12.862 49.721,-14.267l84.537,-6.662c18.884,-1.488 37.563,-2.179 52.213,2.921l43.196,1.483c38.625,-17.55 67.679,-24.687 102,-27.133l-6.471,5.929Z"/><path d="M706.415,281.325c29.629,22.429 39.987,48.258 66.129,63.358c-30.771,-12.866 -50.259,-45.329 -70.904,-59.041l4.775,-4.317Zm2.25,32.867c18.512,17.275 33.345,37.195 51.387,52.016c6.463,5.209 12.992,9.229 22.192,8.925c-6.263,4.829 -20.563,1.167 -26.459,-3.208c-16.941,-16.479 -34.633,-37.029 -51.808,-52.483c-12.15,-9.271 -22.546,-25.563 -35.325,-17.205c-11.908,7.834 28.046,41.455 45.442,53.692c-15.896,-6.333 -44.367,-34.079 -48.517,-40.008c-6.758,-9.667 -8.471,-14.617 -0.425,-19.771c15.413,-9.875 32.217,8.083 43.471,18.017l0.042,0.025Z"/><g><path d="M1071.03,468.554c3.067,0.192 6.242,-0.287 9.221,0.492c2.608,1.237 3.625,4.204 5.371,6.337c6.496,9.388 13.496,18.471 21.591,26.546c1.896,1.688 3.23,4.288 2.105,6.746c-1.171,3 -4.288,2.479 -6.738,0.529c-11.433,-7.458 -22.071,-15.987 -31.237,-26.012c-2.071,-2.555 -4.463,-4.905 -6.146,-7.73c-1.234,-2.766 0.6,-6.216 3.566,-6.775c0.75,-0.162 1.525,-0.095 2.288,-0.104l-0.021,-0.029Z" style="fill:#ac93a7;fill-rule:nonzero;"/><path d="M833.298,416.658c12.971,14.584 24.033,30.179 34.154,46.813c1.475,2.517 3.171,4.929 4.475,7.529c1.183,2.563 -0.412,5.892 -3.142,6.596c-2.208,0.766 -4.487,-0.45 -5.954,-2.084c-10.425,-10.304 -19.721,-21.662 -29.475,-32.591c-7.671,-8.654 -15.637,-17.108 -24.483,-24.579c-2.958,-2.505 -6.221,-4.9 -9.533,-7.079c3.05,6.133 6.425,12.095 9.916,17.983l28.929,47.733c1.371,2.388 0.334,5.784 -2.225,6.875c-2.179,1.134 -3.262,-0.65 -4.716,-2.525c-11.896,-13.041 -22.434,-27.641 -31,-43.079c-4.859,-8.971 -8.604,-18.454 -10.788,-28.479c-0.541,-2.013 -2.508,-3.296 -0.825,-4.688c1.346,-1.187 3.271,-1.491 4.954,-0.908c0.856,0.435 1.623,1.026 2.263,1.742c0.071,-0.584 0.142,-1.159 0.421,-1.7c10.525,-4.967 29.054,6.779 37.062,12.441l-0.033,0Z" style="fill:#fff;fill-rule:nonzero;"/></g><path d="M928.81,281.604c22.396,5.733 36.646,30.854 39.146,40.383c20.109,23.921 19.171,69.292 -8.654,85.251c-3.346,11.008 -10.112,24.266 -22.658,31.15c6.887,1.095 14.925,3.633 19.254,7.25c66.092,18.266 95.837,17.741 134.392,16.837c31.666,-0.746 61.291,-10.437 117.025,-26.796c47.758,-14.466 93.27,-29.446 137.658,-39.458c26.629,-5.713 33.017,-4.167 56.521,-13.108c-22.942,15.575 -28.209,12.787 -54.746,18.562l-137.917,40.313c-48,14.991 -82.141,26.633 -118.162,28.083c-49.429,1.992 -93.629,-6.3 -140.671,-19.238c-7.033,-4.304 -13.808,-6.366 -22.604,-6.212c-23.663,0.421 -57.138,-7.488 -86.059,-17.075l-11.208,-12.034c22.804,13.105 61.45,19.171 83.096,21.525c22.646,2.459 40.575,-17.887 40.6,-34.541c28.142,-13.717 25.85,-56.709 8.546,-77.829c-3.279,-17.03 -19.067,-36.575 -33.571,-43.042l0.012,-0.021Zm-209.05,81.454c13.2,2.95 26.475,5.409 36.73,4.705l3.65,5.337c-11.738,0.013 -24.45,0.167 -33.371,-2.508c-13.484,-1.9 -22.546,1.683 -34.275,3.508c-1.913,0.875 -2.792,1.979 -2.904,3.196c-0.496,5.15 12.629,12.379 18.2,13.375c6.637,-1.471 7.033,-3.117 6.804,-7.092c1.641,0.329 2.766,1.163 3.375,2.525c14.446,2.279 36.791,3.392 39.216,-2.071c6.28,6.2 24.784,13.105 32.534,12.288c0.058,1.279 2.633,3.187 6.791,5.433l-0.42,0l12.412,13.25c-9.333,-4.141 -17.008,-8.137 -21.412,-11.441c-12.009,-1.313 -23.246,-7.838 -31.463,-12.371c-11.658,1.116 -23.808,2.083 -37.362,-0.009c-10.692,10.58 -23.271,2.384 -32.963,-7.941c-2.312,-2.371 -3.008,-6.009 -1.987,-8.671c1.054,-2.667 2.95,-4.55 5.058,-6.354l0.796,-0.7l1.054,-0.15c9.342,-1.259 18.092,-4.45 29.642,-4.321l-0.105,0.012Zm200.625,-40.65c0.484,11.817 -3.054,23.813 -6.395,40.038c-7.68,39.146 -38.105,53.233 -67.8,45.637c-18.421,-5.612 -31.275,-12.116 -39.842,-21.87c15.429,12.024 30.954,15.558 41.233,17.62c29.5,5.954 57.546,-12.27 61.354,-42.383c0.784,-13.408 6.888,-27.788 6.755,-39.513c-0.309,-10.25 -2.505,-21.741 -18.238,-31.112c15.258,2.833 22.463,21.575 22.933,31.587l0,-0.004Z"/><path d="M835.406,416.796c22.354,22.979 32.992,46.675 47.075,66.071c12.346,17.012 27.296,29.812 53.796,36.008c-10.2,-13.821 -1.671,-25.113 7.221,-30.15c-12.525,-13.042 -7.896,-28.204 9.712,-32.2c-2.17,-2.221 -2.937,-5.042 -4.17,-7.667l6.158,-3.358c1.017,5.979 5.212,10.642 8.546,15.671c-22.404,2.075 -25.596,15.962 -8.75,29.133c-11.796,6.079 -20.571,10.833 -13.938,23.413c2.45,2.662 6.042,5.212 8.829,9.279l4.484,6.554l-7.859,-1.083c-32.7,-4.5 -51.295,-18.342 -65.429,-35.95c-34.9,-30.48 -61.662,-66.663 -85.033,-83.575c-4.063,-3.238 -3.488,-3.838 -3.642,-7.63c12.363,-4.25 35.396,7.634 43.029,15.509l-0.029,-0.025Zm-34.883,-10.617c25.412,15.796 47.596,48.963 67.65,67.671c-10.633,-17.417 -21.379,-35.817 -37.321,-54.217c-6.454,-7.466 -25.204,-18.479 -30.329,-13.491l-0,0.037Z"/><g><ellipse cx="829.035" cy="290.804" rx="32.008" ry="33.563" style="fill:#fff;stroke:#000;stroke-width:5px;"/><ellipse cx="831.823" cy="291.367" rx="17.958" ry="18.829" style="stroke:#000;stroke-width:2px;"/></g><path d="M789.006,311.454c15.559,27.454 39.738,28.588 64.167,19.325c-27.088,24.579 -53.988,6.179 -64.171,-19.312l0.004,-0.013Zm15.521,-45.933c-6.004,7.621 -11.029,22.258 -7.012,34.812c2.216,6.917 5.675,20.95 27.229,26.05c-35.363,-0.675 -41.95,-42.7 -20.217,-60.862Zm43.1,226.633c9.308,18.842 21.896,33.975 46.975,44.538c-7.729,-15.346 2.575,-25.042 12.183,-28.505l9.046,4.634c-12.654,4.012 -20.083,6.058 -15.658,19.575c1.958,3.033 5.071,6.15 7.133,10.621l3.321,7.22l-7.567,-2.391c-31.475,-9.938 -47.92,-29.779 -58.891,-49.513c-30.142,-30.237 -46.021,-50.937 -56.525,-88.737c-3.459,-3.875 -5,-8.379 -4.513,-12.142c6.8,0.029 12.7,5.742 17.129,14.471c1.65,3.258 2.98,6.654 5.021,10.346c11.95,21.596 30.179,49.575 42.342,69.879l0.004,0.004Zm-55.954,-83.792c2.962,18.55 23.492,51.775 43.35,72.484c-6.546,-9.988 -24.246,-39.279 -35.2,-58.234c-4.85,-8.408 -4.413,-10.012 -8.146,-14.254l-0.004,0.004Z"/><path d="M1151.66,209.662c-2.275,-0.041 -5.029,0.134 -7.6,0.217l7.6,-0.217Zm-7.6,0.217c-15.062,0.992 -35.625,5.696 -62.066,17.754c-8.9,4.059 -17.159,8.442 -25.025,12.838l-8.58,-1.279c9.95,-5.117 20.659,-10.267 32.246,-14.784c27.984,-10.921 48.209,-13.996 63.425,-14.529Zm24.513,16.917c-15.931,1.927 -31.685,5.105 -47.117,9.504c-11.279,3.287 -20.333,6.862 -27.996,10.492l-7.254,-1.642l-3.842,-0.633c9.838,-4.475 22.005,-8.588 37.292,-11.646c20.65,-4.129 42.833,-5.434 48.917,-6.075Zm-56.488,24.225c8.009,0.891 16.504,1.612 30.25,1.783l40.713,0.163c-11.217,-0 -21.809,1.52 -40.567,3.35l-12.092,0.983l-16.633,-5.892l-1.671,-0.387Z" style="fill-rule:nonzero;"/><path d="M1519.06,236.546c-16.312,15.954 -13.333,33.429 -28.1,44.15c0.138,5.662 -2.071,16.329 -13.341,24.483c5.02,10.759 5.458,22.004 -0.721,32.483c2.991,12.817 2.575,24.334 -3.604,33c8.362,12.459 3.687,32.642 -2.8,41.667c7.42,8.513 9.558,18.85 7.229,26.608c6.55,9.221 8.166,17.692 7.396,30.509c-20.142,2.754 -49.655,-22.979 -69.938,-35.321c-14.092,-8.575 -27.887,-18.492 -41.187,-24.167c-13.3,-5.675 -29.525,-7.72 -37.842,-6.158l6.254,-4.929c10.879,-2.042 20.863,-0.829 34.729,5.087c13.867,5.917 25.567,16.7 40.113,24.763c20.258,11.221 39.771,32.775 61.625,34.587c2.279,-6.362 -0.959,-13.287 -7.484,-21.67l-0.595,-0.825l-0.055,-1.042c4.359,-8.296 0.6,-17.888 -6.416,-24.629l-1.709,-1.7l0.975,-2.2c6.463,-6.634 12.563,-26.979 2.771,-39.684l-0.521,-1.82l1.242,-1.417c5.583,-6.454 6.046,-16.634 2.833,-29.8l-0.37,-1.509l0.862,-1.291c6.442,-9.754 5.892,-18.892 0.325,-29.404l-1.154,-2.509c11.429,-3.987 17.671,-21.629 14.696,-27.212l0.725,-0.509c16.562,-11.454 13.133,-23.633 24.271,-38.424c-5.838,-4.696 -12.275,-8.313 -18.638,-5.788c-18.137,7.221 -40.742,32.25 -63.829,44.246c-18.471,11.596 -54.425,32.808 -78.346,47.117l-0.221,0.104c-6.791,3.179 -15.062,0.916 -29.408,0.896l0.021,-5.255c13.558,-0.033 20.487,0.684 26.3,-2.008l78.35,-47.104c15.216,-6.959 43.308,-34.079 63.666,-43.075c12.575,-5.559 23.563,2.075 31.867,9.737l0.029,0.013Z"/><path d="M1472.39,308.771c-2.325,-0.696 -6.171,-1.358 -13.83,0.183c-5.758,1.154 -12.308,3.246 -20.22,6.004c-17.796,6.209 -38.13,12.425 -47.73,13.988c13.059,-2.125 25.613,-7.742 46.421,-17.246c7.571,-3.438 14.15,-6.313 20.129,-8.171c7.996,-2.5 13.342,-2.625 17.263,-1.454l-2.033,6.696Zm2.895,32.316c-2.166,1.575 -6.087,3.213 -12.641,4.617c-4.871,1.038 -10.779,1.858 -16.992,2.275c-6.25,0.417 -12.146,0.388 -17.125,-0.046c-6.779,-0.587 -10.425,-1.775 -12.596,-2.683c2.117,0.887 6.042,1.562 12.634,1.3c4.879,-0.2 10.658,-0.896 16.637,-2.054c5.979,-1.159 11.488,-2.646 15.921,-4.221c6.071,-2.146 8.737,-3.925 10.033,-4.867l4.129,5.679Zm10.03,-60.754c0.083,0.1 -0.28,-0.5 -2.121,-1.137c-1.425,-0.492 -3.579,-0.971 -6.613,-1.196c-5.304,-0.396 -12.921,0.012 -22.312,2.117c-24.809,5.562 -47.275,19.391 -63.059,34.075c16.046,-14.925 36.796,-29.655 62.159,-37.467c9.437,-2.908 17.421,-4.146 23.304,-4.363c3.367,-0.12 6.075,0.084 8.171,0.513c2.716,0.546 4.671,1.529 5.862,2.95l-5.391,4.508Zm-13.767,93.7c-6.783,3.442 -13.971,3.188 -23.25,-0.596c-8.158,-3.337 -16.6,-6.958 -21.488,-7.191c4.884,0.229 14.196,2.279 22.484,3.816c9.437,1.759 14.058,0.25 19.075,-2.295l3.179,6.266Zm-2.292,40.704c-1.512,0.971 -3.537,1.3 -6.054,1.105c-1.933,-0.146 -4.271,-0.617 -7.017,-1.417c-4.812,-1.404 -10.833,-3.833 -17.204,-7.075c-17.058,-8.671 -26.221,-17.371 -30.525,-23.179c4.059,5.483 14.95,13.533 31.946,19.966c6.563,2.488 12.488,4.084 17.025,4.788c2.588,0.404 4.521,0.483 5.892,0.387c1.754,-0.12 2.241,-0.541 2.15,-0.487l3.787,5.912Zm8.638,28.384c-0.892,1.162 -2.175,1.821 -3.575,2.116c-1.325,0.284 -2.85,0.263 -4.575,0.025c-2.65,-0.366 -6.084,-1.308 -10.292,-2.845c-7.387,-2.705 -17.137,-7.284 -27.35,-13.188c-10.312,-5.962 -19.904,-12.579 -27.342,-19.05c-10.158,-8.837 -13.97,-15.308 -15.379,-19.737c1.4,4.404 5.75,10.645 16.254,18.662c7.725,5.896 17.625,11.846 28.121,17.029c10.471,5.171 20.204,8.921 27.421,10.921c4.133,1.142 7.154,1.638 9.183,1.708c1.317,0.046 2.08,-0.095 2.363,-0.22c0.25,-0.109 -0.133,-0.046 -0.404,0.308l5.575,4.271Zm-608.85,-10.592l2.529,-2.458c5.937,6.187 16.746,19.996 28.404,32.233c12.867,13.504 23.513,20.709 32.688,24.2c-9.58,-3.646 -20.209,-8.941 -35.105,-21.658c-10.954,-9.342 -27.245,-25.988 -31.037,-29.85l2.525,-2.458l-0.004,-0.009Zm39.962,3.863c5.192,0.975 11.675,3.875 19.9,8.55l18.4,9.954l-19.816,-6.742c-10.196,-3.271 -13.975,-3.762 -19.784,-4.858l1.3,-6.904Zm-96.546,-19.384c0.33,0.684 4.121,1.475 4.484,2.213c3.362,6.829 12.904,27.479 25.621,49.421c15.366,26.512 27.937,42.154 37.079,49.829c-9.659,-8.108 -22.417,-21.746 -39.829,-48.121c-14.005,-21.233 -25.03,-41.592 -28.4,-48.425c-0.367,-0.746 1.333,-4.233 1.004,-4.917l0.041,0Z" style="fill-rule:nonzero;"/><path d="M1084.58,468.063c12.113,24.387 43.634,54.408 70.7,66.108c3.05,1.321 5.359,4.133 8.034,5.462c-20.292,-2.829 -33.167,-12.075 -49.275,-23.558c-25.571,-10.071 -43.088,-28.854 -54.267,-43.933c-0.279,-0.4 -0.542,-0.775 -0.796,-1.496c-0.125,-0.358 -0.279,-0.825 -0.233,-1.579c0.046,-0.755 0.462,-1.884 1.262,-2.575l2.467,0.875c0.729,-0.63 1.65,1.708 1.687,1.07c0.038,-0.637 1.513,0.088 1.442,-0.108c-0.137,-0.391 -0.167,-0.341 -0.083,-0.221c9.9,14.138 29.35,33.513 41.116,39.792c-13.145,-11.792 -24.495,-29.137 -31.675,-39.396l9.621,-0.442Z"/><path d="M1234.45,427.821c10.692,5.575 13.062,14.812 16.667,24.775c-13.492,-0.188 -28.067,-1.021 -33.867,12.179c-14.633,0.192 -22.142,7.108 -24.842,19.617c-16.066,-2.171 -22.521,8.766 -19.929,21.933c-14.65,7.85 -17,27.154 -9.587,33.196l-7.671,-3.25c-9.621,-10.321 -0.563,-28.229 9.833,-33.429c-0.683,-15.15 7.767,-26.346 22.204,-25.746c4.488,-13.354 13.979,-16.963 25.967,-18.696c7.517,-9.9 17.067,-11.304 27.883,-12.008c-0.929,-2.405 -1.933,-5.321 -2.8,-6.625c-1.404,-2.113 -3.091,-3.534 -7.133,-5.65l3.275,-6.296Zm-372.213,-116.65c8.188,-23.675 3.346,-41.967 -12.841,-53.038c-4.204,-2.875 -9.246,-4.696 -15.292,-6.129c34.767,-3.054 40.525,34.667 28.133,59.167Z"/><path d="M1126.43,463.288l13.209,17.575c6.804,8.112 12.379,12.67 16.312,14.245c-4.408,-1.762 -9.912,-4.4 -18.775,-11.737c-7.546,-6.242 -16.708,-15.45 -18.612,-17.829l7.866,-2.254Zm41.367,-14.325c1.75,2.05 3.65,5.941 6.263,10.524c2.612,4.584 4.77,7.53 6.645,8.659c-2.683,-1.613 -4.325,-2.208 -9.325,-6.392l-8.92,-8.216l5.337,-4.575Zm33.779,-9.13l3.184,-1.483c1.187,2.55 2.287,10.904 4.058,12.675c-1.771,-1.771 -9.138,-6.946 -10.425,-9.708l3.229,-1.475l-0.046,-0.009Z" style="fill-rule:nonzero;"/><path d="M1013.6,298.929c18.612,-7.725 7.725,-42.629 -5.338,-41.362c24.371,-3.442 26.83,38.483 5.338,41.362Zm2.108,57.379c19.625,-4.525 14.675,-40.762 1.575,-41.696c24.629,0.646 20.092,42.446 -1.575,41.696Zm-14.679,46.492c20.033,2.092 27.113,-33.792 15.025,-38.929c23.108,8.571 5.196,46.633 -15.029,38.908l0.004,0.021Zm46.142,-13.063c20.096,-1.37 20.925,-37.933 8.137,-40.925c24.217,4.525 13.138,45.088 -8.137,40.925Zm0.421,-60.75c19.891,-3.154 17.462,-39.645 4.458,-41.487c24.525,2.35 17.104,43.737 -4.458,41.487Zm-28.092,113.705c19.454,5.266 32.167,-29.005 21.071,-36.03c21.416,12.221 -2.321,46.913 -21.071,36.03Zm-49.021,-2.6c18.95,6.829 34.417,-26.313 23.913,-34.196c20.354,13.887 -6.109,46.562 -23.913,34.196Zm116.863,-83.642c18.604,-7.725 7.7,-42.633 -5.371,-41.379c24.371,-3.442 26.829,38.483 5.337,41.362l0.034,0.017Zm-15.592,63.558c20.096,-1.375 20.925,-37.937 8.137,-40.929c24.217,4.525 13.138,45.088 -8.137,40.929Zm-26.779,41.313c13.854,4.991 25.162,-19.234 17.483,-25c14.879,10.154 -4.467,34.046 -17.483,25Zm38.416,-6.109c20.142,0.321 24.034,-36.041 11.546,-40.1c23.75,6.546 9.304,46.034 -11.546,40.1Zm27.813,-63.208c19.55,-4.846 14.004,-40.992 0.892,-41.717c24.637,0.242 20.779,42.117 -0.892,41.717Zm9.479,-59.762c13.167,-7.634 1.533,-32.696 -8.133,-30.459c17.925,-5.008 23.941,26.188 8.133,30.459Zm29.708,79.92c17.4,-3.037 14.775,-35.008 3.346,-36.445c21.538,1.729 15.592,38.129 -3.341,36.441l-0.005,0.004Zm4.142,-42.279c17.671,-9.662 3.113,-43.212 -9.754,-40.571c23.892,-6.033 30.817,35.438 9.754,40.571Zm26.688,69.809c16.666,-4.13 11.941,-34.955 0.758,-35.563c21.004,0.204 17.721,35.9 -0.758,35.563Zm17.979,-55.484c15.266,-4.641 9.387,-33.008 -1.017,-33.037c19.5,-0.825 18.179,32.458 1.017,33.037Zm34.204,38.417c15.704,-3.458 11.25,-29.258 0.717,-29.775c19.787,0.175 16.691,30.058 -0.717,29.775Zm16.504,-45.579c16.038,-6.763 6.233,-33.354 -5.079,-31.834c21.1,-3.7 23.667,28.721 5.079,31.834Zm27.246,34.696c16.442,-6.296 6.392,-31.03 -5.204,-29.617c21.629,-3.442 24.262,26.717 5.204,29.617Zm21.212,-41.017c14.43,-5.525 5.609,-27.246 -4.575,-26.004c18.992,-3.021 21.309,23.462 4.575,26.004Zm29.775,24.583c14.046,-5.337 5.48,-26.479 -4.425,-25.283c18.467,-2.937 20.713,22.808 4.446,25.283l-0.021,0Zm24.65,-28.796c13.492,-7.733 1.35,-27.95 -8.579,-25.137c18.409,-5.95 24.817,20.012 8.579,25.137Zm-230.841,81.959c17.596,1.529 23.266,-30.046 12.583,-34.363c20.375,7.196 5.288,40.85 -12.587,34.363l0.004,-0Zm-45.159,-147.834c13.159,-7.629 1.53,-32.691 -8.133,-30.458c17.921,-5.008 23.942,26.188 8.133,30.459Z"/><path d="M664.348,307.725l0.071,-3.617l6.475,-6.037l9.108,-0.55l17.225,9.55l25.425,25.779c-10.204,-7.638 -55.529,-31.288 -29.187,8.558l-6.367,-5.375l-7.683,-8.008l-8.559,-8.342l-4.387,-6.475l-2.121,-5.483Zm22.608,71.492l1.317,-7.021l8.117,-1.975l16.241,-2.196l16.242,-0l17.996,2.633l10.975,-1.537l8.116,5.266l15.363,1.538c-10.075,6.637 -15.221,5.321 -26.333,2.742c2.941,10.616 25.887,12.937 38.516,12.512l4.942,5.267c5.05,0.775 10.096,-0.179 15.146,-3.95l13.391,7.583l16.9,4.388l15.142,2.195l16.9,-0.658c18.292,24.542 63.904,17.433 79.167,2.138c21.683,13.358 34.504,22.658 154.416,16.204c51.138,-2.746 107.434,-13.646 158.125,-22.15c61.905,-10.388 131.48,-17.171 141.017,-29.813c-0.158,5.263 -3.175,10.442 -13.846,14.788l-42.846,8.071l-16.804,6.304l-48.283,14.483l-51.229,14.988l9.862,16.829c-17.029,-7.359 -27.775,-3.746 -36.008,6.816c-20.854,-0.079 -22.846,9.271 -29.792,16.146c-19.433,-1.733 -30.108,7.284 -35.691,16.446c-19.034,-9.196 -38.013,-11.558 -52.08,-0.892c-5.795,-5.054 -11.85,-3.65 -13.458,0.492l-16.658,-18.75l-30.067,-1.537l-60.571,-12.73l-19.316,-3.95l5.05,7.9l-14.484,8.121l1.534,17.559l4.391,6.804c-26.487,-1.521 -46.004,-25.121 -67.816,-43.675c-11.567,-4.846 -22.146,-8.2 -21.509,5.266l-12.287,-14.925c-9.45,-6.929 -14.142,-6.725 -14.488,0l12.509,17.996c-8.655,-5.887 -12.271,-5.208 -11.409,1.317c-8.95,-13.742 -13.512,-13.525 -16.675,-9.204l-6.583,-9.879c-5.275,-5.505 -10.45,-10.721 -9.658,1.975l-8.996,-21.067l-3.071,-13.825l-3.075,-5.05l-23.921,-7.021l-5.408,-6.429c-1.888,1.967 -4.754,2.671 -7.088,4.004l-17.996,-0.437l-14.483,-0.88l-5.487,4.609l-7.463,0.658l-16.496,-14.487Zm3.929,-1.3c0.071,1.933 4.425,4.6 5.763,6.625c3.958,7.479 19.25,4.066 17.242,-1.125c3.725,-0.667 4.32,0.77 5.387,1.604c9.129,1.592 24.896,3.162 33.596,-2.029c1.7,-1.017 1.808,-2.559 2,-4.267c-1.042,-0.117 -0.729,-4.112 -3.1,-4.429c-6.667,-0.9 -17.288,-0.779 -21.588,-1.071c-3.125,-0.213 -10.733,-2.275 -13.912,-2.154c-8.663,0.333 -22.196,2.187 -25.125,6.062c-0.183,0.242 -0.246,0.504 -0.233,0.784l-0.03,-0Z" style="fill-opacity:0.29;"/><path d="M1169.61,197.658c-23.633,8.129 -8.062,27.138 16.4,18.492c-15.237,14.121 -5.466,31.479 12.054,30.604c-11.983,11.596 -11.9,23.917 0.742,30.642l-3.392,4.679c-13.245,-8.163 -16.433,-21.1 -7.8,-31.429c-14.483,-2.65 -17.725,-14 -13.058,-27.35c-15.687,-0.517 -27.367,-5.729 -21.071,-19.192c-18.333,-0.621 -41.591,6.283 -51.846,7.067l0.255,-5.446c22.32,-2.9 43.058,-8.975 67.716,-8.067Z"/><g><path d="M420.34,353.275c-2.717,44.208 -22.663,95.425 38.562,154.942l2.029,52.662c-60.925,-30.562 -63.254,-102.287 -72.054,-164.054l31.463,-43.55Z" style="fill:#ffd200;fill-rule:nonzero;stroke:#000;stroke-width:8.5px;stroke-miterlimit:4;"/><path d="M481.206,247.933c43.542,-41.5 57.217,-76.229 49.734,-122.533c-35.267,14.987 -54.496,59.7 -71.046,109.371c27.225,-59.113 15.154,-95.154 -3.042,-127.6c-11.362,36.183 -28.879,66.116 -20.3,122.533c0.029,-61.962 -31.296,-90.8 -77.133,-104.308c6.291,39.496 25.571,85.067 54.808,124.562c-36.95,-66.958 -84.321,-57.321 -123.817,-60.762c21.855,48.454 67.884,65.417 110.625,80.004c-49.383,-17.188 -97.575,-31.996 -130.92,12.15c55.312,29.567 97.204,19.146 137.008,14.179c-54.729,4.738 -103.892,17.267 -122.8,68.863c53.812,1.25 92.958,-21.934 132.954,-56.709c-47.492,33.5 -64.075,75.696 -61.912,125.575c40.466,-34.516 73.229,-71.233 76.12,-116.458c-20.866,74.05 -6.558,110.933 18.267,136.713c21.946,-47.455 7.863,-86.646 10.15,-137.725c0.454,73.433 37.488,89.075 69.013,113.42c-12.617,-42.437 -3.492,-72.137 -51.759,-121.525c70.838,84.463 89.867,59.075 119.759,56.713c-30.275,-42.108 -66.738,-59.979 -107.58,-70.888c34.392,7.021 74.675,26.234 119.759,-16.204c-35.004,-18.079 -72.75,-27.471 -118.746,-10.129c57.062,-12.946 87.987,-35.021 104.537,-66.833c-43.433,-11.788 -71.462,5.646 -113.67,47.596l-0.009,-0.005Z" style="fill:#f1ede5;fill-rule:nonzero;stroke:#000;stroke-width:8.5px;stroke-miterlimit:4;"/><path d="M402.06,274.775c0,24.329 19.767,44.054 44.15,44.054c24.384,0 44.146,-19.725 44.146,-44.054c0,-24.329 -19.766,-44.05 -44.146,-44.05c-24.379,-0 -44.15,19.721 -44.15,44.05Zm1326.55,78.5c2.717,44.208 22.663,95.425 -38.566,154.942l-2.029,52.662c60.925,-30.562 63.254,-102.287 72.058,-164.054l-31.463,-43.55Z" style="fill:#ffd200;fill-rule:nonzero;stroke:#000;stroke-width:8.5px;stroke-miterlimit:4;"/><path d="M1667.74,247.933c-43.542,-41.5 -57.217,-76.229 -49.73,-122.533c35.267,14.987 54.492,59.7 71.042,109.371c-27.225,-59.113 -15.15,-95.154 3.042,-127.6c11.362,36.183 28.879,66.116 20.3,122.533c-0.029,-61.962 31.296,-90.8 77.133,-104.308c-6.287,39.496 -25.567,85.067 -54.804,124.562c36.95,-66.958 84.317,-57.321 123.817,-60.762c-21.855,48.454 -67.888,65.417 -110.625,80.004c49.383,-17.188 97.57,-31.996 130.916,12.15c-55.308,29.567 -97.2,19.146 -137.008,14.179c54.729,4.738 103.892,17.267 122.8,68.863c-53.813,1.25 -92.958,-21.934 -132.95,-56.709c47.492,33.5 64.075,75.696 61.908,125.575c-40.466,-34.516 -73.229,-71.233 -76.116,-116.458c20.866,74.05 6.554,110.933 -18.267,136.713c-21.946,-47.455 -7.867,-86.646 -10.15,-137.725c-0.454,73.433 -37.488,89.075 -69.017,113.42c12.621,-42.437 3.492,-72.137 51.763,-121.525c-70.842,84.463 -89.871,59.075 -119.759,56.713c30.275,-42.108 66.734,-59.979 107.575,-70.888c-34.387,7.021 -74.67,26.234 -119.758,-16.204c35.004,-18.079 72.75,-27.471 118.746,-10.129c-57.063,-12.946 -87.988,-35.021 -104.533,-66.833c43.429,-11.788 71.458,5.646 113.666,47.596l0.009,-0.005Z" style="fill:#f1ede5;fill-rule:nonzero;stroke:#000;stroke-width:8.5px;stroke-miterlimit:4;"/><path d="M1746.88,274.775c0,24.329 -19.766,44.054 -44.145,44.054c-24.38,0 -44.15,-19.725 -44.15,-44.054c-0,-24.329 19.766,-44.05 44.15,-44.05c24.383,-0 44.145,19.721 44.145,44.05Z" style="fill:#ffd200;fill-rule:nonzero;stroke:#000;stroke-width:8.5px;stroke-miterlimit:4;"/></g></svg>