<svg xmlns="http://www.w3.org/2000/svg" xml:space="preserve" style="fill-rule:evenodd;clip-rule:evenodd;stroke-linejoin:round;stroke-miterlimit:2" viewBox="0 0 834 292"><path d="M1.375 133.223q0 4.625 5.25 4.625t13.437-4.25q8.188-4.25 16.5-11.937a485 485 0 0 0 16.313-15.813q-26.75 9.126-39.125 15.063T1.375 133.223m172.75-95q-10.75 0-29.563 13.688T108.75 84.473q27.625-10.875 47.812-23.937 20.188-13.062 20.188-20.313 0-2-2.625-2M96.5 141.723h1.25q7.375 0 14.125-3.5t11.062-8.625q4.313-5.124 6.813-10.5 2.5-5.375 2.5-9.5 0-6.25-5.875-6.25-8.75 0-19.313 11.438T96.5 140.973zm-61.75-77h3.125q11.126 0 21.312-2.687 10.188-2.688 16.938-6.75t10.687-8.688q3.938-4.625 3.938-8.375t-3.625-5.937q-3.626-2.187-10.875-2.188-14.75 0-27.188 11.25T34.75 64.723m20.125-53.625.375 1.5q-19.375 2.625-32.063 13.375Q10.5 36.723 10.5 47.723q0 6.375 5 10.875t15 5.75q.5-6.125 4.187-12.5 3.688-6.374 9.625-11.75Q50.251 34.724 59 31.286t17.437-3.438 12.625 2.625Q93 33.098 93 37.411t-4 9.312q-4 5.001-10.938 9.375-6.937 4.376-17.812 7.313t-23.125 2.937H34.5v1.5q0 6.5 4.625 10.438 4.625 3.937 13.187 3.937 8.563 0 18.938-4.187t21.5-12.938q18.25-17 32.25-23.5 5.25-2.374 7-2.5l.25.875q-10.75 4.75-19.375 11.75-8.625 7.25-22.125 21.25l-23.125 25.25-2 2Q78.125 95.849 98 88.598q16.75-21 38.562-36.5 21.813-15.5 37.813-15.5 4.25 0 4.25 3 0 8.376-21.313 22.125t-50.562 25q-11.125 12.876-17.813 24.375t-6.687 19.125q0 10.5 12.875 11.375v-1.625q0-8.375 3.312-15.812 3.314-7.437 8.25-12.25 4.938-4.812 10.438-7.625t10.062-2.813 7.125 2.438 2.563 7.062q0 4.626-3.063 10.188-3.062 5.562-8.187 10.437t-12.688 8.188q-7.561 3.312-15.687 3.312h-.75q.625 8.876 6.437 14.438t16.938 5.562q4 0 8.5-1.5l1 .625q-3.875 2.125-11.25 2.125-10.625 0-16.375-5.937t-6.5-15.438q-16.875-.75-16.875-14.375 0-14.624 18-38-20.125 7.251-32.75 11.625l-14.125 14.5q-4 5.126-18.438 13.875-14.437 8.75-24.812 8.75-6.25 0-6.25-5 0-4.25 2.875-7.75t10.625-7.187 13.375-5.75q5.625-2.062 15.187-5.313 9.563-3.25 12.688-4.375Q63.125 95.599 77 80.848l3.375-3.75q2.125-2.375 5.75-5.75-18.875 12.25-33.5 12.25-11.125 0-16.688-4.812t-5.562-12.563v-.25q-10.75-1.125-16.25-5.937t-5.5-11.688q0-11.375 12.937-22.625Q34.5 14.473 54.875 11.098" style="fill-rule:nonzero"/><path d="M141 137.098q4.75 0 12.688-4.812 7.937-4.812 13.25-9.313 5.312-4.5 5.312-5.25t-1.813-1.25-4.937-.5-8.25 2.438q-5.125 2.437-8.875 5.812t-6.25 6.625-2.5 4.75 1.375 1.5m33.5-21q2.5-2 2.75-2 3.375.375 3.5.563a.77.77 0 0 1 .125.437q0 .25-1 1.563T174 122.848q-12.125 11.876-12.125 14.375 0 1 .875 1 6 0 22.5-11.375l.25 1.875q-16.625 10.875-23.5 10.875-3.375 0-3.375-3.187t3.875-8.313q-14.75 10.875-23 11-3 0-3-3.625 0-6.5 8.313-13.875 8.312-7.374 21.937-7.375 4.5 0 7.75 1.875" style="fill-rule:nonzero"/><path d="m202.125 119.098 5.875-.75q1.5 0 2.375 1t.875 2.375q0 2.751-3.875 6a189 189 0 0 1-7.688 6.125q-3.812 2.876-3.812 4.625 0 1 1.625 1 5.375 0 16.375-6.25 4.75-2.625 10.125-6.375l.25 1.875q-4.25 2.751-9.5 5.625-3 1.875-8.75 4.313t-9.5 2.437-3.75-3.375q0-3.874 4-7.312 4-3.437 7.937-5.75t3.938-3.563q0-.375-.875-.375l-7 .625q-2 0-3.625-.375-6 4.25-12.625 8.375l-.375-1.75 11.875-8.25q.125-2.374 3-4.75t4.875-2.375q2 0 2 1.063t-2.375 2.687q-2.375 1.626-2.375 2.375t1 .75" style="fill-rule:nonzero"/><path d="M297.625 64.723q-6.25 0-29.25 20.125t-37.25 37Q247.75 110.474 273 89.786t25.25-24.688q0-.375-.625-.375m-70.25 61.75q-5 6.625-5 8.938t2.125 2.312q5.875 0 21.5-10.875l.25 1.875q-16.625 10.875-23.5 10.875-3.375 0-3.375-3.125 0-6.875 16.062-24.812t35.5-33.25q19.438-15.312 27.563-15.313 1.5 0 1.5 1.125 0 3-6.063 9.438t-16.312 14.687q-10.25 8.25-19.125 15t-19.25 14.313-11.875 8.812" style="fill-rule:nonzero"/><path d="M246.625 137.098q4.75 0 12.687-4.812 7.938-4.812 13.25-9.313 5.313-4.5 5.313-5.25t-1.813-1.25-4.937-.5-8.25 2.438q-5.125 2.437-8.875 5.812t-6.25 6.625-2.5 4.75 1.375 1.5m33.5-21q2.5-2 2.75-2 3.375.375 3.5.563a.77.77 0 0 1 .125.437q0 .25-1 1.563t-5.875 6.187Q267.5 134.724 267.5 137.223q0 1 .875 1 6 0 22.5-11.375l.25 1.875q-16.625 10.875-23.5 10.875-3.375 0-3.375-3.187t3.875-8.313q-14.75 10.875-23 11-3 0-3-3.625 0-6.5 8.312-13.875 8.313-7.374 21.938-7.375 4.5 0 7.75 1.875" style="fill-rule:nonzero"/><path d="M312.375 114.348q2.625 0 2.625 2.813t-4 8.187q14.25-9.875 22.875-9.875 3.375 0 3.375 2.875t-2.5 5.938a31.5 31.5 0 0 1-5.5 5.312q-8 5.75-8 7.25 0 .875 1.437.875t4.813-1.5 6-3.062a326 326 0 0 0 6.312-3.875q3.688-2.313 3.938-2.438l.25 1.875q-16.875 11.25-23.625 11.25-3.25 0-3.25-3.125 0-2.125 2.687-5.062a51.4 51.4 0 0 1 5.813-5.438q8.625-6.5 8.625-8.625 0-.625-1.375-.625-4.625 0-13.75 5t-20.25 16.25q-.75.75-2.813.75-2.062 0-2.062-1.125 0-.375 8.625-9.25t8.625-11.5q0-.624-.813-.625-.811 0-3.375 1.625-2.562 1.626-7.875 5.188a422 422 0 0 1-9.062 5.937l-.375-1.75q1.875-1.25 5.125-3.5t5.375-3.687a311 311 0 0 1 4.625-3.063q4.875-3 7.5-3" style="fill-rule:nonzero"/><path d="M344.375 137.098q4.375 0 12.125-4.562t13.437-9.25 5.688-5.5-1.813-1.313q-1.812-.5-4.937-.5t-8.25 2.438q-5.125 2.437-8.875 5.812t-6.25 6.625-2.5 4.75 1.375 1.5m63.75-45.125A2233 2233 0 0 0 396 103.911q-7 6.937-11.063 11.125-4.062 4.188-6.75 6.812a235 235 0 0 0-4.562 4.563 487 487 0 0 0-4 4.187q-2.125 2.25-3.25 3.938t-1.125 2.687.875 1q6 0 22.5-11.375l.25 1.875q-16.625 10.875-23.5 10.875-3.375 0-3.375-3.125 0-3.375 4-8.375-14.75 10.875-23.125 11-3 0-3-3.625 0-6.5 8.312-13.875 8.313-7.374 21.938-7.375 4.625 0 7.875 1.875a19 19 0 0 0 1.5-1.375l52.25-50.625q.75-.75 3-.75t2.25 1.375q0 .5-.563 1.063t-3.687 3.312a429 429 0 0 0-6.063 5.438 1638 1638 0 0 0-8.187 7.562 583 583 0 0 0-10.375 9.875M471.125 92.723q-8.625 0-15.688 4.625-7.062 4.626-11.312 11.875 8.625-1.5 17.812-1.5t16.938 1.625q2.625-5 2.625-8.75 0-7.875-10.375-7.875m-59.5 39q0 3.75 4.062 6.063t11.75 2.312 15.813-2.625q-5.375-4.624-5.375-12.25 0-7.624 3.25-14.125-13.375 3-21.438 9t-8.062 11.625m48.375 9.25q20.374 0 39.375-17.5-5.625-7.624-17.625-11.5-4.5 8-13.5 15.188-9 7.187-20.625 10.937 4.875 2.875 12.375 2.875m-16.625-30.375q-3.5 6.75-3.5 14.25t5.625 12q10.5-3.874 19.25-11.125T478 110.848q-8.125-1.875-17-1.875t-17.625 1.625m126.25-60.25q-3.875 3-6.688 5.5t-7.187 7.875q-4.375 5.376-6.688 8.375-2.312 3-7.375 9.938-5.062 6.938-7.187 9.812 14-3.249 27.562-11.562t21.375-16.875 7.813-13.938q0-4.625-7.25-4.625t-14.375 5.5m-50.25 43.375q3.75 0 5.75-.25 16-21.875 23.375-29.75 18.625-20.25 37-20.25 7.5 0 7.5 5.625 0 4.5-4.813 11.063t-12.625 13.187q-7.812 6.625-19.25 12.313t-23.187 8.062q-15.375 20.626-28.5 31.375 3.25 5 3.25 10.375 0 9.625-10.188 17.563-10.187 7.938-30.062 10.937v-1.375q17.374-2.75 26.625-10.437 9.25-7.688 9.25-17.063 0-3.874-1.75-7.75-20.25 15.25-43 15.25-8.5 0-13.75-3.625-9.375 2.5-18 2.5t-13.375-2.812-4.75-7.188q0-6.25 8.812-12.625 8.813-6.375 24.188-9.25 4.375-8.124 12.437-13.375 8.063-5.25 18.313-5.25 6.375 0 9.5 2.688t3.125 7.187q0 4.5-2.625 9.5 11.875 3.375 19.125 11 9.124-9 22.125-26.375-3.5.25-5.5.25-14.375 0-21.813-6.562t-7.437-16.438q0-12.874 11.687-23.437 11.688-10.563 30.813-10.563 4.25 0 7.875.5l-.625 1.75q-4.75-.624-8.125-.625-17.625 0-28.313 9.813T491.75 71.598q0 9.501 7.062 15.813t20.563 6.312" style="fill-rule:nonzero"/><path d="M523.5 137.098q4.75 0 12.687-4.812 7.938-4.812 13.25-9.313 5.313-4.5 5.313-5.25t-1.813-1.25-4.937-.5-8.25 2.438q-5.125 2.437-8.875 5.812t-6.25 6.625-2.5 4.75 1.375 1.5m33.5-21q2.5-2 2.75-2 3.375.375 3.5.563a.77.77 0 0 1 .125.437q0 .25-1 1.563t-5.875 6.187q-12.125 11.876-12.125 14.375 0 1 .875 1 6 0 22.5-11.375l.25 1.875q-16.625 10.875-23.5 10.875-3.375 0-3.375-3.187t3.875-8.313q-14.75 10.875-23 11-3 0-3-3.625 0-6.5 8.312-13.875 8.313-7.374 21.938-7.375 4.5 0 7.75 1.875" style="fill-rule:nonzero"/><path d="M589.25 114.348q2.625 0 2.625 2.813t-4 8.187q14.25-9.875 22.875-9.875 3.375 0 3.375 2.875t-2.5 5.938a31.5 31.5 0 0 1-5.5 5.312q-8 5.75-8 7.25 0 .875 1.437.875t4.813-1.5 6-3.062a326 326 0 0 0 6.312-3.875q3.688-2.313 3.938-2.438l.25 1.875q-16.875 11.25-23.625 11.25-3.25 0-3.25-3.125 0-2.125 2.687-5.062a51.4 51.4 0 0 1 5.813-5.438q8.625-6.5 8.625-8.625 0-.625-1.375-.625-4.625 0-13.75 5t-20.25 16.25q-.75.75-2.813.75-2.062 0-2.062-1.125 0-.375 8.625-9.25t8.625-11.5q0-.624-.813-.625-.812 0-3.375 1.625t-7.875 5.188a422 422 0 0 1-9.062 5.937l-.375-1.75q1.875-1.25 5.125-3.5t5.375-3.687a311 311 0 0 1 4.625-3.063q4.875-3 7.5-3" style="fill-rule:nonzero"/><path d="M621.25 137.098q4.375 0 12.125-4.562t13.437-9.25 5.688-5.5-1.813-1.313q-1.812-.5-4.937-.5t-8.25 2.438q-5.125 2.437-8.875 5.812t-6.25 6.625-2.5 4.75 1.375 1.5M685 91.973a2233 2233 0 0 0-12.125 11.938q-7 6.937-11.063 11.125-4.062 4.188-6.75 6.812a235 235 0 0 0-4.562 4.563 487 487 0 0 0-4 4.187q-2.125 2.25-3.25 3.938t-1.125 2.687.875 1q6 0 22.5-11.375l.25 1.875q-16.625 10.875-23.5 10.875-3.375 0-3.375-3.125 0-3.375 4-8.375-14.75 10.875-23.125 11-3 0-3-3.625 0-6.5 8.312-13.875 8.313-7.374 21.938-7.375 4.624 0 7.875 1.875a19 19 0 0 0 1.5-1.375l52.25-50.625q.75-.75 3-.75t2.25 1.375q0 .5-.563 1.063t-3.687 3.312a429 429 0 0 0-6.063 5.438 1638 1638 0 0 0-8.187 7.562A583 583 0 0 0 685 91.973" style="fill-rule:nonzero"/><path d="M691.125 115.848q0-1-2-1T681 118.661t-10.375 8.187q8.375-1.375 14.437-5.062 6.063-3.687 6.063-5.938m-24.5 17.625q0 3.625 5 3.625 9.5 0 23.625-10.25l.25 1.875q-14.75 10.375-25.25 10.375-7.5 0-7.5-6.25t9.312-13 19.188-6.75q3.125 0 3.125 1.875 0 3-6.938 7.188t-18.187 6.187q-2.625 3-2.625 5.125" style="fill-rule:nonzero"/><path d="m712.125 119.098 5.875-.75q1.5 0 2.375 1t.875 2.375q0 2.751-3.875 6a189 189 0 0 1-7.688 6.125q-3.812 2.876-3.812 4.625 0 1 1.625 1 5.375 0 16.375-6.25 4.75-2.625 10.125-6.375l.25 1.875q-4.25 2.751-9.5 5.625-3 1.875-8.75 4.313t-9.5 2.437-3.75-3.375q0-3.874 4-7.312 4-3.437 7.937-5.75t3.938-3.563q0-.375-.875-.375l-7 .625q-2 0-3.625-.375-6 4.25-12.625 8.375l-.375-1.75 11.875-8.25q.124-2.374 3-4.75t4.875-2.375q2 0 2 1.063t-2.375 2.687q-2.375 1.626-2.375 2.375t1 .75" style="fill-rule:nonzero"/><path d="M754.25 111.723q.5-.75 1.187-.75t.688.75-.75 1.5-1.063 4.563-1.937 9.25-5.625 9.812q0 .25.5.25.874 0 6.375-3l1.75-.875q4.75-2.625 10.125-6.375l.25 1.875q-19.5 12.625-29.875 12.625-4.125 0-6.063-1.75t-1.937-3.875q0-2.124 1-3.437t2.5-1.313q1.875 0 1.875 2 0 1.251-2 2.25-.625.375-.625 1.25t1.437 2.063q1.439 1.188 3.063 1.187 5.5 0 9.437-6.937 3.938-6.937 5.063-13.813v-.375q-12.125 8.25-16.375 10.75l-.375-1.75q20.374-13.124 21.375-15.875" style="fill-rule:nonzero"/><path d="m.602-.677.015.225H.602a.3.3 0 0 0-.086-.146.22.22 0 0 0-.135-.044.2.2 0 0 0-.119.033.22.22 0 0 0-.084.107.48.48 0 0 0-.002.338.2.2 0 0 0 .087.101.26.26 0 0 0 .132.035.23.23 0 0 0 .114-.027.4.4 0 0 0 .108-.11l.015.01a.34.34 0 0 1-.116.129.3.3 0 0 1-.158.041.3.3 0 0 1-.254-.122.35.35 0 0 1-.068-.214q0-.1.045-.182a.323.323 0 0 1 .434-.139.1.1 0 0 0 .029.011.03.03 0 0 0 .023-.01.1.1 0 0 0 .018-.036z" style="fill-rule:nonzero" transform="translate(-.997 216.734)scale(49.99992)"/><path d="M.25-.46q.102 0 .163.077a.24.24 0 0 1 .052.151q0 .06-.028.122a.21.21 0 0 1-.192.124.19.19 0 0 1-.161-.081.25.25 0 0 1-.05-.152q0-.061.03-.123A.21.21 0 0 1 .25-.46m-.015.031a.1.1 0 0 0-.052.016.1.1 0 0 0-.042.054.3.3 0 0 0-.016.099q0 .098.038.168.039.07.103.071A.1.1 0 0 0 .344-.06q.03-.04.031-.134a.3.3 0 0 0-.052-.188.1.1 0 0 0-.088-.047" style="fill-rule:nonzero" transform="translate(32.353 216.734)scale(49.99992)"/><path d="M.185-.694v.593a.2.2 0 0 0 .006.056q.006.014.019.02.012.007.047.007V0H.038v-.018A.1.1 0 0 0 .08-.024Q.091-.03.098-.045a.2.2 0 0 0 .006-.056v-.406A1 1 0 0 0 .101-.6Q.097-.618.09-.624A.03.03 0 0 0 .07-.63a.1.1 0 0 0-.032.007L.03-.64l.133-.054z" style="fill-rule:nonzero" transform="translate(57.352 216.734)scale(49.99992)"/><path d="M.25-.46q.102 0 .163.077a.24.24 0 0 1 .052.151q0 .06-.028.122a.21.21 0 0 1-.192.124.19.19 0 0 1-.161-.081.25.25 0 0 1-.05-.152q0-.061.03-.123A.21.21 0 0 1 .25-.46m-.015.031a.1.1 0 0 0-.052.016.1.1 0 0 0-.042.054.3.3 0 0 0-.016.099q0 .098.038.168.039.07.103.071A.1.1 0 0 0 .344-.06q.03-.04.031-.134a.3.3 0 0 0-.052-.188.1.1 0 0 0-.088-.047" style="fill-rule:nonzero" transform="translate(71.244 216.734)scale(49.99992)"/><path d="M.162-.366Q.24-.46.312-.46a.1.1 0 0 1 .063.018.13.13 0 0 1 .042.06q.01.03.01.09v.191q0 .042.007.058a.04.04 0 0 0 .017.019.1.1 0 0 0 .045.006V0H.274v-.018h.01q.031 0 .043-.009.013-.01.018-.028l.002-.046v-.183a.2.2 0 0 0-.016-.089Q.314-.4.277-.4.22-.4.162-.337v.236q0 .045.005.056.007.014.019.021a.1.1 0 0 0 .048.006V0H.013v-.018h.01q.034 0 .046-.017t.012-.066v-.166a1 1 0 0 0-.004-.098Q.074-.383.066-.389a.03.03 0 0 0-.02-.007.1.1 0 0 0-.033.008L.006-.406.141-.46h.021z" style="fill-rule:nonzero" transform="translate(96.244 216.734)scale(49.99992)"/><path d="M.106-.279q0 .1.049.156a.15.15 0 0 0 .115.057.13.13 0 0 0 .076-.024A.17.17 0 0 0 .4-.173l.016.01a.23.23 0 0 1-.06.122.16.16 0 0 1-.124.055.18.18 0 0 1-.138-.063.24.24 0 0 1-.057-.169q0-.114.059-.179a.2.2 0 0 1 .148-.064q.075 0 .123.05a.18.18 0 0 1 .049.132zm0-.028h.207a.2.2 0 0 0-.01-.061.095.095 0 0 0-.087-.058.1.1 0 0 0-.072.031.14.14 0 0 0-.038.088" style="fill-rule:nonzero" transform="translate(121.244 216.734)scale(49.99992)"/><path d="M.185-.694v.593a.2.2 0 0 0 .006.056q.006.014.019.02.012.007.047.007V0H.038v-.018A.1.1 0 0 0 .08-.024Q.091-.03.098-.045a.2.2 0 0 0 .006-.056v-.406A1 1 0 0 0 .101-.6Q.097-.618.09-.624A.03.03 0 0 0 .07-.63a.1.1 0 0 0-.032.007L.03-.64l.133-.054z" style="fill-rule:nonzero" transform="translate(143.437 216.734)scale(49.99992)"/><path d="M.206-.355h.307v-.189a.2.2 0 0 0-.006-.067Q.502-.623.486-.632a.1.1 0 0 0-.044-.012H.418v-.018h.284v.018H.678a.1.1 0 0 0-.044.011.04.04 0 0 0-.021.024.2.2 0 0 0-.006.065v.427q0 .05.006.066a.05.05 0 0 0 .02.021q.023.012.045.012h.024V0H.418v-.018h.024q.04 0 .059-.024.012-.015.012-.075v-.202H.206v.202q0 .05.006.066.005.012.02.021a.1.1 0 0 0 .045.012h.024V0H.017v-.018h.024q.04 0 .059-.024.012-.015.012-.075v-.427a.2.2 0 0 0-.007-.067.04.04 0 0 0-.02-.021.1.1 0 0 0-.044-.012H.017v-.018h.284v.018H.277a.1.1 0 0 0-.045.011.04.04 0 0 0-.021.024.3.3 0 0 0-.005.065z" style="fill-rule:nonzero" transform="translate(169.828 216.734)scale(49.99992)"/><path d="M.285-.064a1 1 0 0 1-.087.061.1.1 0 0 1-.056.012.1.1 0 0 1-.076-.031.12.12 0 0 1-.03-.084q0-.033.014-.057a.2.2 0 0 1 .07-.062q.05-.03.165-.071v-.018q0-.067-.022-.092a.08.08 0 0 0-.061-.025.07.07 0 0 0-.049.017.05.05 0 0 0-.019.038l.001.028a.05.05 0 0 1-.011.035.04.04 0 0 1-.03.012.04.04 0 0 1-.03-.012.05.05 0 0 1-.011-.035q0-.042.043-.077.043-.036.12-.035.06 0 .098.02.029.015.042.047a.3.3 0 0 1 .009.086v.152a1 1 0 0 0 .003.078q.002.015.008.019.005.005.013.005l.013-.003a.3.3 0 0 0 .04-.036v.028Q.387.009.337.009a.05.05 0 0 1-.038-.017Q.285-.025.285-.064m0-.032v-.171q-.074.03-.096.042a.2.2 0 0 0-.055.045.1.1 0 0 0-.016.051q0 .036.021.058.021.024.048.024.037 0 .098-.049" style="fill-rule:nonzero" transform="translate(205.936 216.734)scale(49.99992)"/><path d="M.162-.46v.1q.057-.1.115-.1.027 0 .045.016a.05.05 0 0 1 .017.038.05.05 0 0 1-.012.032.04.04 0 0 1-.031.013q-.017 0-.038-.017Q.236-.395.227-.395t-.019.01a.3.3 0 0 0-.046.066v.215q0 .036.009.056a.1.1 0 0 0 .023.022.1.1 0 0 0 .046.008V0H.011v-.018q.035 0 .051-.01a.05.05 0 0 0 .017-.025.2.2 0 0 0 .003-.048v-.173a1 1 0 0 0-.004-.093.04.04 0 0 0-.011-.022.04.04 0 0 0-.022-.007.1.1 0 0 0-.034.008L.006-.406.142-.46z" style="fill-rule:nonzero" transform="translate(228.129 216.734)scale(49.99992)"/><path d="M.185-.694v.593a.2.2 0 0 0 .006.056q.006.014.019.02.012.007.047.007V0H.038v-.018A.1.1 0 0 0 .08-.024Q.091-.03.098-.045a.2.2 0 0 0 .006-.056v-.406A1 1 0 0 0 .101-.6Q.097-.618.09-.624A.03.03 0 0 0 .07-.63a.1.1 0 0 0-.032.007L.03-.64l.133-.054z" style="fill-rule:nonzero" transform="translate(244.78 216.734)scale(49.99992)"/><path d="M.285-.064a1 1 0 0 1-.087.061.1.1 0 0 1-.056.012.1.1 0 0 1-.076-.031.12.12 0 0 1-.03-.084q0-.033.014-.057a.2.2 0 0 1 .07-.062q.05-.03.165-.071v-.018q0-.067-.022-.092a.08.08 0 0 0-.061-.025.07.07 0 0 0-.049.017.05.05 0 0 0-.019.038l.001.028a.05.05 0 0 1-.011.035.04.04 0 0 1-.03.012.04.04 0 0 1-.03-.012.05.05 0 0 1-.011-.035q0-.042.043-.077.043-.036.12-.035.06 0 .098.02.029.015.042.047a.3.3 0 0 1 .009.086v.152a1 1 0 0 0 .003.078q.002.015.008.019.005.005.013.005l.013-.003a.3.3 0 0 0 .04-.036v.028Q.387.009.337.009a.05.05 0 0 1-.038-.017Q.285-.025.285-.064m0-.032v-.171q-.074.03-.096.042a.2.2 0 0 0-.055.045.1.1 0 0 0-.016.051q0 .036.021.058.021.024.048.024.037 0 .098-.049" style="fill-rule:nonzero" transform="translate(258.67 216.734)scale(49.99992)"/><path d="M.162-.366Q.24-.46.312-.46a.1.1 0 0 1 .063.018.13.13 0 0 1 .042.06q.01.03.01.09v.191q0 .042.007.058a.04.04 0 0 0 .017.019.1.1 0 0 0 .045.006V0H.274v-.018h.01q.031 0 .043-.009.013-.01.018-.028l.002-.046v-.183a.2.2 0 0 0-.016-.089Q.314-.4.277-.4.22-.4.162-.337v.236q0 .045.005.056.007.014.019.021a.1.1 0 0 0 .048.006V0H.013v-.018h.01q.034 0 .046-.017t.012-.066v-.166a1 1 0 0 0-.004-.098Q.074-.383.066-.389a.03.03 0 0 0-.02-.007.1.1 0 0 0-.033.008L.006-.406.141-.46h.021z" style="fill-rule:nonzero" transform="translate(280.863 216.734)scale(49.99992)"/><path d="M.347-.05a.2.2 0 0 1-.064.049.2.2 0 0 1-.067.015.17.17 0 0 1-.128-.062.22.22 0 0 1-.055-.157q0-.096.061-.176a.19.19 0 0 1 .156-.08q.058 0 .097.038v-.083A1 1 0 0 0 .344-.6Q.339-.618.332-.624A.03.03 0 0 0 .313-.63a.1.1 0 0 0-.034.007L.272-.64l.134-.054h.022v.517q0 .078.003.096a.1.1 0 0 0 .012.024.03.03 0 0 0 .019.007.1.1 0 0 0 .035-.009l.005.017L.37.014H.347zm0-.034v-.231a.2.2 0 0 0-.017-.06.1.1 0 0 0-.039-.042.1.1 0 0 0-.047-.014.1.1 0 0 0-.077.039q-.045.05-.044.148 0 .099.043.151.042.053.095.053.045 0 .086-.044" style="fill-rule:nonzero" transform="translate(305.863 216.734)scale(49.99992)"/><path d="M.458-.677v.229H.44a.3.3 0 0 0-.031-.105.16.16 0 0 0-.065-.062.2.2 0 0 0-.087-.023.12.12 0 0 0-.084.031.1.1 0 0 0-.033.07q0 .031.021.056a.5.5 0 0 0 .144.097 1 1 0 0 1 .127.077.17.17 0 0 1 .07.138q0 .075-.058.13a.21.21 0 0 1-.15.054A.3.3 0 0 1 .24.011L.177-.007a.3.3 0 0 0-.06-.015.03.03 0 0 0-.02.007.1.1 0 0 0-.01.03H.069v-.227h.018a.3.3 0 0 0 .034.107.17.17 0 0 0 .066.059.2.2 0 0 0 .097.023q.06 0 .096-.032a.1.1 0 0 0 .036-.076.1.1 0 0 0-.014-.05.2.2 0 0 0-.042-.046 1 1 0 0 0-.104-.062 1 1 0 0 1-.121-.076.2.2 0 0 1-.054-.063.2.2 0 0 1-.019-.075q0-.07.055-.123a.2.2 0 0 1 .139-.051q.054 0 .112.026a.1.1 0 0 0 .039.012.03.03 0 0 0 .02-.008q.009-.007.013-.03z" style="fill-rule:nonzero" transform="translate(343.363 216.734)scale(49.99992)"/><path d="M.285-.064a1 1 0 0 1-.087.061.1.1 0 0 1-.056.012.1.1 0 0 1-.076-.031.12.12 0 0 1-.03-.084q0-.033.014-.057a.2.2 0 0 1 .07-.062q.05-.03.165-.071v-.018q0-.067-.022-.092a.08.08 0 0 0-.061-.025.07.07 0 0 0-.049.017.05.05 0 0 0-.019.038l.001.028a.05.05 0 0 1-.011.035.04.04 0 0 1-.03.012.04.04 0 0 1-.03-.012.05.05 0 0 1-.011-.035q0-.042.043-.077.043-.036.12-.035.06 0 .098.02.029.015.042.047a.3.3 0 0 1 .009.086v.152a1 1 0 0 0 .003.078q.002.015.008.019.005.005.013.005l.013-.003a.3.3 0 0 0 .04-.036v.028Q.387.009.337.009a.05.05 0 0 1-.038-.017Q.285-.025.285-.064m0-.032v-.171q-.074.03-.096.042a.2.2 0 0 0-.055.045.1.1 0 0 0-.016.051q0 .036.021.058.021.024.048.024.037 0 .098-.049" style="fill-rule:nonzero" transform="translate(371.17 216.734)scale(49.99992)"/><path d="M.162-.366Q.24-.46.312-.46a.1.1 0 0 1 .063.018.13.13 0 0 1 .042.06q.01.03.01.09v.191q0 .042.007.058a.04.04 0 0 0 .017.019.1.1 0 0 0 .045.006V0H.274v-.018h.01q.031 0 .043-.009.013-.01.018-.028l.002-.046v-.183a.2.2 0 0 0-.016-.089Q.314-.4.277-.4.22-.4.162-.337v.236q0 .045.005.056.007.014.019.021a.1.1 0 0 0 .048.006V0H.013v-.018h.01q.034 0 .046-.017t.012-.066v-.166a1 1 0 0 0-.004-.098Q.074-.383.066-.389a.03.03 0 0 0-.02-.007.1.1 0 0 0-.033.008L.006-.406.141-.46h.021z" style="fill-rule:nonzero" transform="translate(393.362 216.734)scale(49.99992)"/><path d="M.347-.05a.2.2 0 0 1-.064.049.2.2 0 0 1-.067.015.17.17 0 0 1-.128-.062.22.22 0 0 1-.055-.157q0-.096.061-.176a.19.19 0 0 1 .156-.08q.058 0 .097.038v-.083A1 1 0 0 0 .344-.6Q.339-.618.332-.624A.03.03 0 0 0 .313-.63a.1.1 0 0 0-.034.007L.272-.64l.134-.054h.022v.517q0 .078.003.096a.1.1 0 0 0 .012.024.03.03 0 0 0 .019.007.1.1 0 0 0 .035-.009l.005.017L.37.014H.347zm0-.034v-.231a.2.2 0 0 0-.017-.06.1.1 0 0 0-.039-.042.1.1 0 0 0-.047-.014.1.1 0 0 0-.077.039q-.045.05-.044.148 0 .099.043.151.042.053.095.053.045 0 .086-.044" style="fill-rule:nonzero" transform="translate(418.363 216.734)scale(49.99992)"/><path d="M.106-.279q0 .1.049.156a.15.15 0 0 0 .115.057.13.13 0 0 0 .076-.024A.17.17 0 0 0 .4-.173l.016.01a.23.23 0 0 1-.06.122.16.16 0 0 1-.124.055.18.18 0 0 1-.138-.063.24.24 0 0 1-.057-.169q0-.114.059-.179a.2.2 0 0 1 .148-.064q.075 0 .123.05a.18.18 0 0 1 .049.132zm0-.028h.207a.2.2 0 0 0-.01-.061.095.095 0 0 0-.087-.058.1.1 0 0 0-.072.031.14.14 0 0 0-.038.088" style="fill-rule:nonzero" transform="translate(443.363 216.734)scale(49.99992)"/><path d="M.162-.46v.1q.057-.1.115-.1.027 0 .045.016a.05.05 0 0 1 .017.038.05.05 0 0 1-.012.032.04.04 0 0 1-.031.013q-.017 0-.038-.017Q.236-.395.227-.395t-.019.01a.3.3 0 0 0-.046.066v.215q0 .036.009.056a.1.1 0 0 0 .023.022.1.1 0 0 0 .046.008V0H.011v-.018q.035 0 .051-.01a.05.05 0 0 0 .017-.025.2.2 0 0 0 .003-.048v-.173a1 1 0 0 0-.004-.093.04.04 0 0 0-.011-.022.04.04 0 0 0-.022-.007.1.1 0 0 0-.034.008L.006-.406.142-.46z" style="fill-rule:nonzero" transform="translate(465.555 216.734)scale(49.99992)"/><path d="M.32-.46v.152H.304Q.286-.38.257-.406a.1.1 0 0 0-.074-.026.1.1 0 0 0-.056.018q-.021.019-.021.04 0 .028.016.047.015.02.062.043l.071.034q.099.049.099.128a.12.12 0 0 1-.046.098.16.16 0 0 1-.103.038.3.3 0 0 1-.094-.015L.084-.006q-.01 0-.017.013H.051v-.16h.016q.013.069.052.103a.13.13 0 0 0 .087.035q.033 0 .054-.02a.06.06 0 0 0 .022-.048.07.07 0 0 0-.024-.056.4.4 0 0 0-.094-.058.3.3 0 0 1-.093-.064.1.1 0 0 1-.022-.07.12.12 0 0 1 .038-.092.13.13 0 0 1 .098-.037.2.2 0 0 1 .064.011.1.1 0 0 0 .033.007l.012-.003.01-.015z" style="fill-rule:nonzero" transform="translate(482.205 216.734)scale(49.99992)"/><path d="M.017 0v-.018h.025q.042 0 .06-.027.01-.016.01-.072v-.428q0-.061-.013-.078-.02-.021-.057-.021H.017v-.018h.27a.6.6 0 0 1 .225.034.26.26 0 0 1 .125.112.35.35 0 0 1 .047.182.33.33 0 0 1-.084.23Q.506 0 .313 0zm.189-.048a.5.5 0 0 0 .104.014.25.25 0 0 0 .188-.08.3.3 0 0 0 .075-.216.3.3 0 0 0-.075-.216.25.25 0 0 0-.192-.079.4.4 0 0 0-.1.014z" style="fill-rule:nonzero" transform="translate(-.997 268.858)scale(49.99992)"/><path d="M.145-.694q.02 0 .035.014t.014.035A.05.05 0 0 1 .18-.61a.05.05 0 0 1-.035.015A.05.05 0 0 1 .11-.61a.05.05 0 0 1-.015-.035q0-.02.015-.035a.05.05 0 0 1 .035-.014m.041.234v.359q0 .042.006.056t.018.021a.1.1 0 0 0 .043.006V0H.036v-.018A.1.1 0 0 0 .08-.024a.04.04 0 0 0 .018-.021.2.2 0 0 0 .006-.056v-.172A1 1 0 0 0 .1-.368a.04.04 0 0 0-.011-.021.03.03 0 0 0-.02-.007.1.1 0 0 0-.033.008L.029-.406.164-.46z" style="fill-rule:nonzero" transform="translate(35.112 268.858)scale(49.99992)"/><path d="M.162-.46v.1q.057-.1.115-.1.027 0 .045.016a.05.05 0 0 1 .017.038.05.05 0 0 1-.012.032.04.04 0 0 1-.031.013q-.017 0-.038-.017Q.236-.395.227-.395t-.019.01a.3.3 0 0 0-.046.066v.215q0 .036.009.056a.1.1 0 0 0 .023.022.1.1 0 0 0 .046.008V0H.011v-.018q.035 0 .051-.01a.05.05 0 0 0 .017-.025.2.2 0 0 0 .003-.048v-.173a1 1 0 0 0-.004-.093.04.04 0 0 0-.011-.022.04.04 0 0 0-.022-.007.1.1 0 0 0-.034.008L.006-.406.142-.46z" style="fill-rule:nonzero" transform="translate(49.003 268.858)scale(49.99992)"/><path d="M.106-.279q0 .1.049.156a.15.15 0 0 0 .115.057.13.13 0 0 0 .076-.024A.17.17 0 0 0 .4-.173l.016.01a.23.23 0 0 1-.06.122.16.16 0 0 1-.124.055.18.18 0 0 1-.138-.063.24.24 0 0 1-.057-.169q0-.114.059-.179a.2.2 0 0 1 .148-.064q.075 0 .123.05a.18.18 0 0 1 .049.132zm0-.028h.207a.2.2 0 0 0-.01-.061.095.095 0 0 0-.087-.058.1.1 0 0 0-.072.031.14.14 0 0 0-.038.088" style="fill-rule:nonzero" transform="translate(65.653 268.858)scale(49.99992)"/><path d="M.411-.17a.24.24 0 0 1-.071.136.17.17 0 0 1-.116.048.18.18 0 0 1-.133-.064.25.25 0 0 1-.057-.173.24.24 0 0 1 .063-.172.2.2 0 0 1 .151-.065q.066 0 .108.034.042.036.042.073a.04.04 0 0 1-.012.03q-.012.012-.033.011-.029 0-.043-.018Q.3-.34.299-.369a.07.07 0 0 0-.02-.044.07.07 0 0 0-.048-.015.1.1 0 0 0-.078.036.2.2 0 0 0-.04.127q0 .08.04.141.039.062.106.062a.13.13 0 0 0 .086-.033.2.2 0 0 0 .052-.082z" style="fill-rule:nonzero" transform="translate(87.846 268.858)scale(49.99992)"/><path d="M.161-.594v.147h.105v.034H.161v.29q0 .043.013.059a.04.04 0 0 0 .032.015q.015 0 .031-.01a.06.06 0 0 0 .023-.03h.019a.15.15 0 0 1-.048.072.1.1 0 0 1-.064.024.1.1 0 0 1-.044-.012.07.07 0 0 1-.032-.036.2.2 0 0 1-.01-.071v-.301H.01v-.016a.2.2 0 0 0 .055-.037.3.3 0 0 0 .05-.06 1 1 0 0 0 .031-.068z" style="fill-rule:nonzero" transform="translate(110.038 268.858)scale(49.99992)"/><path d="M.25-.46q.102 0 .163.077a.24.24 0 0 1 .052.151q0 .06-.028.122a.21.21 0 0 1-.192.124.19.19 0 0 1-.161-.081.25.25 0 0 1-.05-.152q0-.061.03-.123A.21.21 0 0 1 .25-.46m-.015.031a.1.1 0 0 0-.052.016.1.1 0 0 0-.042.054.3.3 0 0 0-.016.099q0 .098.038.168.039.07.103.071A.1.1 0 0 0 .344-.06q.03-.04.031-.134a.3.3 0 0 0-.052-.188.1.1 0 0 0-.088-.047" style="fill-rule:nonzero" transform="translate(123.93 268.858)scale(49.99992)"/><path d="M.162-.46v.1q.057-.1.115-.1.027 0 .045.016a.05.05 0 0 1 .017.038.05.05 0 0 1-.012.032.04.04 0 0 1-.031.013q-.017 0-.038-.017Q.236-.395.227-.395t-.019.01a.3.3 0 0 0-.046.066v.215q0 .036.009.056a.1.1 0 0 0 .023.022.1.1 0 0 0 .046.008V0H.011v-.018q.035 0 .051-.01a.05.05 0 0 0 .017-.025.2.2 0 0 0 .003-.048v-.173a1 1 0 0 0-.004-.093.04.04 0 0 0-.011-.022.04.04 0 0 0-.022-.007.1.1 0 0 0-.034.008L.006-.406.142-.46z" style="fill-rule:nonzero" transform="translate(148.93 268.858)scale(49.99992)"/><path d="M.25-.46q.102 0 .163.077a.24.24 0 0 1 .052.151q0 .06-.028.122a.21.21 0 0 1-.192.124.19.19 0 0 1-.161-.081.25.25 0 0 1-.05-.152q0-.061.03-.123A.21.21 0 0 1 .25-.46m-.015.031a.1.1 0 0 0-.052.016.1.1 0 0 0-.042.054.3.3 0 0 0-.016.099q0 .098.038.168.039.07.103.071A.1.1 0 0 0 .344-.06q.03-.04.031-.134a.3.3 0 0 0-.052-.188.1.1 0 0 0-.088-.047" style="fill-rule:nonzero" transform="translate(178.08 268.858)scale(49.99992)"/><path d="M.206-.412v.294q0 .063.014.079a.06.06 0 0 0 .048.021h.041V0H.042v-.018h.02a.1.1 0 0 0 .035-.009.05.05 0 0 0 .022-.027.2.2 0 0 0 .006-.064v-.294H.039v-.035h.086v-.03q0-.066.022-.113a.17.17 0 0 1 .066-.075.2.2 0 0 1 .099-.028.15.15 0 0 1 .094.033q.029.022.029.049 0 .015-.013.028-.013.012-.027.013a.1.1 0 0 1-.024-.008.1.1 0 0 1-.031-.035.1.1 0 0 0-.033-.036.1.1 0 0 0-.034-.009.06.06 0 0 0-.038.012.07.07 0 0 0-.022.037.7.7 0 0 0-.007.13v.032h.115v.035z" style="fill-rule:nonzero" transform="translate(203.08 268.858)scale(49.99992)"/><path d="M.458-.222H.201l-.045.105A.2.2 0 0 0 .14-.06q0 .016.014.027.015.012.062.015V0H.008v-.018q.04-.007.054-.019a.3.3 0 0 0 .055-.095L.35-.677h.017l.23.551a.3.3 0 0 0 .051.086q.022.02.063.022V0H.45v-.018Q.49-.02.503-.031a.04.04 0 0 0 .014-.028.2.2 0 0 0-.019-.067zM.444-.258.332-.525l-.116.267z" style="fill-rule:nonzero" transform="translate(229.471 268.858)scale(49.99992)"/><path d="M.347-.05a.2.2 0 0 1-.064.049.2.2 0 0 1-.067.015.17.17 0 0 1-.128-.062.22.22 0 0 1-.055-.157q0-.096.061-.176a.19.19 0 0 1 .156-.08q.058 0 .097.038v-.083A1 1 0 0 0 .344-.6Q.339-.618.332-.624A.03.03 0 0 0 .313-.63a.1.1 0 0 0-.034.007L.272-.64l.134-.054h.022v.517q0 .078.003.096a.1.1 0 0 0 .012.024.03.03 0 0 0 .019.007.1.1 0 0 0 .035-.009l.005.017L.37.014H.347zm0-.034v-.231a.2.2 0 0 0-.017-.06.1.1 0 0 0-.039-.042.1.1 0 0 0-.047-.014.1.1 0 0 0-.077.039q-.045.05-.044.148 0 .099.043.151.042.053.095.053.045 0 .086-.044" style="fill-rule:nonzero" transform="translate(265.58 268.858)scale(49.99992)"/><path d="m.164-.365.058-.056A.15.15 0 0 1 .319-.46q.042 0 .073.024t.04.071a.3.3 0 0 1 .085-.077.15.15 0 0 1 .071-.018q.036 0 .064.018a.12.12 0 0 1 .043.06.3.3 0 0 1 .011.089v.192a.2.2 0 0 0 .006.058q.006.01.018.018a.1.1 0 0 0 .043.007V0h-.22v-.018h.009a.1.1 0 0 0 .045-.011.04.04 0 0 0 .016-.025l.002-.047v-.192a.2.2 0 0 0-.013-.078.07.07 0 0 0-.061-.031.1.1 0 0 0-.052.013.3.3 0 0 0-.063.048l-.001.006.001.021v.213q0 .047.005.057.005.012.019.019a.1.1 0 0 0 .048.007V0H.282v-.018a.1.1 0 0 0 .051-.008.05.05 0 0 0 .02-.027l.002-.048v-.192q0-.055-.016-.079a.07.07 0 0 0-.06-.031.1.1 0 0 0-.052.014.2.2 0 0 0-.063.048v.24a.2.2 0 0 0 .006.057q.006.013.018.02a.1.1 0 0 0 .049.006V0H.016v-.018q.03 0 .043-.006a.05.05 0 0 0 .018-.021.2.2 0 0 0 .006-.056v-.171a1 1 0 0 0-.004-.095Q.076-.383.068-.389a.03.03 0 0 0-.02-.007.1.1 0 0 0-.032.008L.008-.406.143-.46h.021z" style="fill-rule:nonzero" transform="translate(290.58 268.858)scale(49.99992)"/><path d="M.145-.694q.02 0 .035.014t.014.035A.05.05 0 0 1 .18-.61a.05.05 0 0 1-.035.015A.05.05 0 0 1 .11-.61a.05.05 0 0 1-.015-.035q0-.02.015-.035a.05.05 0 0 1 .035-.014m.041.234v.359q0 .042.006.056t.018.021a.1.1 0 0 0 .043.006V0H.036v-.018A.1.1 0 0 0 .08-.024a.04.04 0 0 0 .018-.021.2.2 0 0 0 .006-.056v-.172A1 1 0 0 0 .1-.368a.04.04 0 0 0-.011-.021.03.03 0 0 0-.02-.007.1.1 0 0 0-.033.008L.029-.406.164-.46z" style="fill-rule:nonzero" transform="translate(329.472 268.858)scale(49.99992)"/><path d="M.32-.46v.152H.304Q.286-.38.257-.406a.1.1 0 0 0-.074-.026.1.1 0 0 0-.056.018q-.021.019-.021.04 0 .028.016.047.015.02.062.043l.071.034q.099.049.099.128a.12.12 0 0 1-.046.098.16.16 0 0 1-.103.038.3.3 0 0 1-.094-.015L.084-.006q-.01 0-.017.013H.051v-.16h.016q.013.069.052.103a.13.13 0 0 0 .087.035q.033 0 .054-.02a.06.06 0 0 0 .022-.048.07.07 0 0 0-.024-.056.4.4 0 0 0-.094-.058.3.3 0 0 1-.093-.064.1.1 0 0 1-.022-.07.12.12 0 0 1 .038-.092.13.13 0 0 1 .098-.037.2.2 0 0 1 .064.011.1.1 0 0 0 .033.007l.012-.003.01-.015z" style="fill-rule:nonzero" transform="translate(343.363 268.858)scale(49.99992)"/><path d="M.32-.46v.152H.304Q.286-.38.257-.406a.1.1 0 0 0-.074-.026.1.1 0 0 0-.056.018q-.021.019-.021.04 0 .028.016.047.015.02.062.043l.071.034q.099.049.099.128a.12.12 0 0 1-.046.098.16.16 0 0 1-.103.038.3.3 0 0 1-.094-.015L.084-.006q-.01 0-.017.013H.051v-.16h.016q.013.069.052.103a.13.13 0 0 0 .087.035q.033 0 .054-.02a.06.06 0 0 0 .022-.048.07.07 0 0 0-.024-.056.4.4 0 0 0-.094-.058.3.3 0 0 1-.093-.064.1.1 0 0 1-.022-.07.12.12 0 0 1 .038-.092.13.13 0 0 1 .098-.037.2.2 0 0 1 .064.011.1.1 0 0 0 .033.007l.012-.003.01-.015z" style="fill-rule:nonzero" transform="translate(362.821 268.858)scale(49.99992)"/><path d="M.145-.694q.02 0 .035.014t.014.035A.05.05 0 0 1 .18-.61a.05.05 0 0 1-.035.015A.05.05 0 0 1 .11-.61a.05.05 0 0 1-.015-.035q0-.02.015-.035a.05.05 0 0 1 .035-.014m.041.234v.359q0 .042.006.056t.018.021a.1.1 0 0 0 .043.006V0H.036v-.018A.1.1 0 0 0 .08-.024a.04.04 0 0 0 .018-.021.2.2 0 0 0 .006-.056v-.172A1 1 0 0 0 .1-.368a.04.04 0 0 0-.011-.021.03.03 0 0 0-.02-.007.1.1 0 0 0-.033.008L.029-.406.164-.46z" style="fill-rule:nonzero" transform="translate(382.28 268.858)scale(49.99992)"/><path d="M.25-.46q.102 0 .163.077a.24.24 0 0 1 .052.151q0 .06-.028.122a.21.21 0 0 1-.192.124.19.19 0 0 1-.161-.081.25.25 0 0 1-.05-.152q0-.061.03-.123A.21.21 0 0 1 .25-.46m-.015.031a.1.1 0 0 0-.052.016.1.1 0 0 0-.042.054.3.3 0 0 0-.016.099q0 .098.038.168.039.07.103.071A.1.1 0 0 0 .344-.06q.03-.04.031-.134a.3.3 0 0 0-.052-.188.1.1 0 0 0-.088-.047" style="fill-rule:nonzero" transform="translate(396.17 268.858)scale(49.99992)"/><path d="M.162-.366Q.24-.46.312-.46a.1.1 0 0 1 .063.018.13.13 0 0 1 .042.06q.01.03.01.09v.191q0 .042.007.058a.04.04 0 0 0 .017.019.1.1 0 0 0 .045.006V0H.274v-.018h.01q.031 0 .043-.009.013-.01.018-.028l.002-.046v-.183a.2.2 0 0 0-.016-.089Q.314-.4.277-.4.22-.4.162-.337v.236q0 .045.005.056.007.014.019.021a.1.1 0 0 0 .048.006V0H.013v-.018h.01q.034 0 .046-.017t.012-.066v-.166a1 1 0 0 0-.004-.098Q.074-.383.066-.389a.03.03 0 0 0-.02-.007.1.1 0 0 0-.033.008L.006-.406.141-.46h.021z" style="fill-rule:nonzero" transform="translate(421.17 268.858)scale(49.99992)"/></svg>