<svg xmlns="http://www.w3.org/2000/svg" xml:space="preserve" style="fill-rule:evenodd;clip-rule:evenodd;stroke-linejoin:round;stroke-miterlimit:2" viewBox="0 0 1875 1875"><circle cx="941.836" cy="929.244" r="897.418" style="fill:#f1ede5"/><path d="M.406-.118q0 .021.004.034a.04.04 0 0 0 .011.02q.007.006.016.009l.02.002h.042V0H.154v-.053h.042l.02-.002a.04.04 0 0 0 .016-.009.04.04 0 0 0 .011-.02.1.1 0 0 0 .004-.034v-.535h-.08a.1.1 0 0 0-.038.005l-.024.014-.014.022a.1.1 0 0 0-.007.03L.077-.52H.01l.005-.194h.623l.005.194H.576L.569-.582l-.007-.03a.06.06 0 0 0-.039-.036.1.1 0 0 0-.037-.005h-.08z" style="fill-rule:nonzero;stroke:#030000;stroke-width:.01px" transform="rotate(223.038 553.207 634.385)scale(199.99968)"/><path d="M.446 0v-.053h.043l.02-.002.016-.009a.04.04 0 0 0 .011-.02.1.1 0 0 0 .004-.034v-.224H.279v.224q0 .021.004.034l.011.02.016.009.02.002h.043V0H.028v-.053H.07l.02-.002.016-.009a.04.04 0 0 0 .011-.02.1.1 0 0 0 .004-.034V-.6a.1.1 0 0 0-.004-.032L.106-.65a.03.03 0 0 0-.017-.008L.07-.661H.028v-.053h.345v.053H.33l-.02.003a.03.03 0 0 0-.016.009Q.287-.643.283-.63a.1.1 0 0 0-.004.034v.193H.54v-.193A.1.1 0 0 0 .536-.63a.04.04 0 0 0-.011-.019.03.03 0 0 0-.016-.009l-.02-.003H.446v-.053h.345v.053H.749l-.02.003a.03.03 0 0 0-.016.009Q.706-.643.702-.63l-.004.034v.483q0 .02.004.032a.04.04 0 0 0 .012.018.03.03 0 0 0 .016.008l.019.002h.042V0z" style="fill-rule:nonzero;stroke:#030000;stroke-width:.01px" transform="rotate(235.432 578.218 581.384)scale(199.99966)"/><path d="M.28-.061h.2q.015 0 .026-.006l.018-.016.013-.024.007-.03.008-.047h.069L.614 0H.028v-.053H.07l.02-.002a.04.04 0 0 0 .016-.008.03.03 0 0 0 .011-.018.1.1 0 0 0 .004-.032v-.483A.1.1 0 0 0 .117-.63a.04.04 0 0 0-.011-.02.04.04 0 0 0-.016-.009L.07-.661H.028v-.053h.555l.004.184h-.07L.512-.577a.1.1 0 0 0-.018-.056q-.015-.02-.046-.02H.28v.25h.237v.06H.28z" style="fill-rule:nonzero;stroke:#030000;stroke-width:.01px" transform="rotate(247.915 589.22 512.44)scale(199.99972)"/><path d="M.065-.355q0-.023.006-.038a.1.1 0 0 1 .018-.025.1.1 0 0 1 .026-.013.1.1 0 0 1 .032-.004.1.1 0 0 1 .058.017.1.1 0 0 1 .017.025q.007.015.007.038a.1.1 0 0 1-.024.063.1.1 0 0 1-.058.017.1.1 0 0 1-.032-.004.1.1 0 0 1-.026-.013.1.1 0 0 1-.018-.025.1.1 0 0 1-.006-.038Z" style="fill-rule:nonzero;stroke:#030000;stroke-width:.01px" transform="rotate(256.049 586.08 451.485)scale(199.99963)"/><path d="m.604-.707.138.382.017.047.013.047.012.04.007.032.018-.086a1 1 0 0 1 .022-.099L.884-.56l.003-.014.003-.015.002-.014.001-.011q0-.025-.015-.036Q.862-.662.829-.661H.806v-.053h.261v.053h-.019l-.026.003-.02.011a.1.1 0 0 0-.016.024l-.014.04L.817 0H.703L.535-.469.391 0H.267L.084-.608.073-.634.058-.65.039-.659.013-.661H0v-.053h.334v.053H.311q-.03 0-.045.012-.015.011-.015.036l.003.024.007.03.067.231.012.041.011.045.01.044.006.037.015-.06.017-.058.132-.428z" style="fill-rule:nonzero;stroke:#030000;stroke-width:.01px" transform="rotate(-92.407 648.04 408.27)scale(199.99964)"/><path d="M.028 0v-.053H.07l.02-.002a.04.04 0 0 0 .016-.009.04.04 0 0 0 .011-.02.1.1 0 0 0 .004-.034v-.478A.1.1 0 0 0 .117-.63a.04.04 0 0 0-.011-.019.02.02 0 0 0-.016-.009L.07-.661H.028v-.053h.345v.053H.331l-.02.003a.03.03 0 0 0-.017.009.04.04 0 0 0-.01.019.1.1 0 0 0-.004.034v.478q0 .021.004.034l.01.02q.007.006.017.009l.02.002h.042V0z" style="fill-rule:nonzero;stroke:#030000;stroke-width:.01px" transform="rotate(-80.041 644.598 271.701)scale(199.99976)"/><path d="M.028 0v-.053H.07l.02-.002a.04.04 0 0 0 .016-.009.04.04 0 0 0 .011-.02.1.1 0 0 0 .004-.034v-.478A.1.1 0 0 0 .117-.63a.04.04 0 0 0-.011-.02.04.04 0 0 0-.016-.009L.07-.661H.028v-.053h.345v.053H.331l-.02.002q-.01.002-.016.009a.04.04 0 0 0-.011.018A.1.1 0 0 0 .28-.6v.539h.186a.07.07 0 0 0 .055-.022.14.14 0 0 0 .028-.065l.016-.075h.056L.614 0z" style="fill-rule:nonzero;stroke:#030000;stroke-width:.01px" transform="rotate(-71.046 684.894 195.426)scale(199.99968)"/><path d="M.712-.37a.5.5 0 0 1-.023.15.3.3 0 0 1-.067.117.3.3 0 0 1-.111.076A.4.4 0 0 1 .358 0h-.33v-.053H.07l.02-.002a.04.04 0 0 0 .016-.009.04.04 0 0 0 .011-.02.1.1 0 0 0 .004-.034V-.6a.1.1 0 0 0-.004-.032.03.03 0 0 0-.011-.018.04.04 0 0 0-.016-.009L.07-.661H.028v-.053h.33q.083 0 .149.022t.111.065q.046.044.07.107a.4.4 0 0 1 .024.15Zm-.169 0A.36.36 0 0 0 .49-.583q-.052-.07-.154-.07H.279v.591h.056a.2.2 0 0 0 .09-.021.2.2 0 0 0 .065-.062.3.3 0 0 0 .04-.096.6.6 0 0 0 .013-.129Z" style="fill-rule:nonzero;stroke:#030000;stroke-width:.01px" transform="rotate(-59.137 737.284 46.098)scale(199.99978)"/><path d="M.065-.355q0-.023.006-.038a.1.1 0 0 1 .018-.025.1.1 0 0 1 .026-.013.1.1 0 0 1 .032-.004.1.1 0 0 1 .058.017.1.1 0 0 1 .017.025q.007.015.007.038a.1.1 0 0 1-.024.063.1.1 0 0 1-.058.017.1.1 0 0 1-.032-.004.1.1 0 0 1-.026-.013.1.1 0 0 1-.018-.025.1.1 0 0 1-.006-.038Z" style="fill-rule:nonzero;stroke:#030000;stroke-width:.01px" transform="rotate(-49.929 765.445 -168.527)scale(199.99962)"/><path d="M.425-.07a.2.2 0 0 0 .116-.031.2.2 0 0 0 .039-.03l.03-.034a.04.04 0 0 1 .012.018l.005.025a.1.1 0 0 1-.011.044.1.1 0 0 1-.038.043.2.2 0 0 1-.07.032.4.4 0 0 1-.107.013.4.4 0 0 1-.152-.027.28.28 0 0 1-.172-.191.5.5 0 0 1-.022-.15q0-.08.022-.148a.3.3 0 0 1 .065-.116.3.3 0 0 1 .108-.075.5.5 0 0 1 .25-.018.2.2 0 0 1 .071.025.1.1 0 0 1 .043.036q.014.022.014.046a.1.1 0 0 1-.008.035.1.1 0 0 1-.024.027.1.1 0 0 1-.039.018.2.2 0 0 1-.054.007.3.3 0 0 0-.005-.05.1.1 0 0 0-.019-.044.1.1 0 0 0-.034-.033.1.1 0 0 0-.052-.012.15.15 0 0 0-.08.02.15.15 0 0 0-.053.058.3.3 0 0 0-.028.095.8.8 0 0 0 .002.256.3.3 0 0 0 .035.09.14.14 0 0 0 .062.053.2.2 0 0 0 .094.018Z" style="fill-rule:nonzero;stroke:#030000;stroke-width:.01px" transform="rotate(-41.715 847.083 -334.701)scale(199.99964)"/><path d="M.446 0v-.053h.043l.02-.002.016-.009a.04.04 0 0 0 .011-.02.1.1 0 0 0 .004-.034v-.224H.279v.224q0 .021.004.034l.011.02.016.009.02.002h.043V0H.028v-.053H.07l.02-.002.016-.009a.04.04 0 0 0 .011-.02.1.1 0 0 0 .004-.034V-.6a.1.1 0 0 0-.004-.032L.106-.65a.03.03 0 0 0-.017-.008L.07-.661H.028v-.053h.345v.053H.33l-.02.003a.03.03 0 0 0-.016.009Q.287-.643.283-.63a.1.1 0 0 0-.004.034v.193H.54v-.193A.1.1 0 0 0 .536-.63a.04.04 0 0 0-.011-.019.03.03 0 0 0-.016-.009l-.02-.003H.446v-.053h.345v.053H.749l-.02.003a.03.03 0 0 0-.016.009Q.706-.643.702-.63l-.004.034v.483q0 .02.004.032a.04.04 0 0 0 .012.018.03.03 0 0 0 .016.008l.019.002h.042V0z" style="fill-rule:nonzero;stroke:#030000;stroke-width:.01px" transform="rotate(-29.262 1011.531 -833.956)scale(199.99964)"/><path d="M.028 0v-.053H.07l.02-.002a.04.04 0 0 0 .016-.009.04.04 0 0 0 .011-.02.1.1 0 0 0 .004-.034v-.478A.1.1 0 0 0 .117-.63a.04.04 0 0 0-.011-.019.02.02 0 0 0-.016-.009L.07-.661H.028v-.053h.345v.053H.331l-.02.003a.03.03 0 0 0-.017.009.04.04 0 0 0-.01.019.1.1 0 0 0-.004.034v.478q0 .021.004.034l.01.02q.007.006.017.009l.02.002h.042V0z" style="fill-rule:nonzero;stroke:#030000;stroke-width:.01px" transform="rotate(-18.843 1278.53 -1898.218)scale(199.99959)"/><path d="M.425-.07a.2.2 0 0 0 .116-.031.2.2 0 0 0 .039-.03l.03-.034a.04.04 0 0 1 .012.018l.005.025a.1.1 0 0 1-.011.044.1.1 0 0 1-.038.043.2.2 0 0 1-.07.032.4.4 0 0 1-.107.013.4.4 0 0 1-.152-.027.28.28 0 0 1-.172-.191.5.5 0 0 1-.022-.15q0-.08.022-.148a.3.3 0 0 1 .065-.116.3.3 0 0 1 .108-.075.5.5 0 0 1 .25-.018.2.2 0 0 1 .071.025.1.1 0 0 1 .043.036q.014.022.014.046a.1.1 0 0 1-.008.035.1.1 0 0 1-.024.027.1.1 0 0 1-.039.018.2.2 0 0 1-.054.007.3.3 0 0 0-.005-.05.1.1 0 0 0-.019-.044.1.1 0 0 0-.034-.033.1.1 0 0 0-.052-.012.15.15 0 0 0-.08.02.15.15 0 0 0-.053.058.3.3 0 0 0-.028.095.8.8 0 0 0 .002.256.3.3 0 0 0 .035.09.14.14 0 0 0 .062.053.2.2 0 0 0 .094.018Z" style="fill-rule:nonzero;stroke:#030000;stroke-width:.01px" transform="rotate(-9.599 2064.45 -4365.956)scale(199.9996)"/><path d="m.434-.532.045-.057.009-.023.003-.021q0-.017-.012-.023a.1.1 0 0 0-.044-.006v-.052h.271v.052a.1.1 0 0 0-.039.006.2.2 0 0 0-.036.018L.597-.61l-.035.036-.132.145.186.295q.015.024.028.039.014.016.027.025.015.009.028.013.015.003.031.004h.004V0H.68L.613-.002a.5.5 0 0 1-.088-.02.13.13 0 0 1-.048-.041L.458-.092l-.135-.23-.044.035v.169q0 .021.004.034l.011.02q.007.006.017.009l.02.002h.042V0H.028v-.053H.07l.02-.002a.04.04 0 0 0 .016-.008.03.03 0 0 0 .011-.018.1.1 0 0 0 .004-.032V-.6a.1.1 0 0 0-.004-.032.03.03 0 0 0-.011-.018.04.04 0 0 0-.016-.009L.07-.661H.028v-.053h.345v.053H.331l-.02.002-.017.009-.011.02a.1.1 0 0 0-.004.034v.233z" style="fill-rule:nonzero;stroke:#030000;stroke-width:.01px" transform="rotate(2.316 -5980.475 22122.913)scale(199.9997)"/><path d="M.28-.061h.2q.015 0 .026-.006l.018-.016.013-.024.007-.03.008-.047h.069L.614 0H.028v-.053H.07l.02-.002a.04.04 0 0 0 .016-.008.03.03 0 0 0 .011-.018.1.1 0 0 0 .004-.032v-.483A.1.1 0 0 0 .117-.63a.04.04 0 0 0-.011-.02.04.04 0 0 0-.016-.009L.07-.661H.028v-.053h.555l.004.184h-.07L.512-.577a.1.1 0 0 0-.018-.056q-.015-.02-.046-.02H.28v.25h.237v.06H.28z" style="fill-rule:nonzero;stroke:#030000;stroke-width:.01px" transform="rotate(13.817 -580.698 4408.614)scale(199.9996)"/><path d="m.586 0-.39-.551v.433q0 .021.004.034l.011.02q.007.006.016.009l.02.002h.042V0H.028v-.053H.07l.02-.002.016-.009a.04.04 0 0 0 .011-.02.1.1 0 0 0 .004-.034V-.6a.1.1 0 0 0-.004-.032L.106-.65a.04.04 0 0 0-.017-.009L.07-.661H.028v-.053H.25l.353.499V-.6a.1.1 0 0 0-.004-.032L.588-.65a.04.04 0 0 0-.017-.009L.552-.661H.51v-.053h.261v.053H.729l-.02.002-.016.009-.011.02a.1.1 0 0 0-.004.034V0z" style="fill-rule:nonzero;stroke:#030000;stroke-width:.01px" transform="rotate(26.264 -52.868 2642.82)scale(199.9998)"/><path d="M.065-.355q0-.023.006-.038a.1.1 0 0 1 .018-.025.1.1 0 0 1 .026-.013.1.1 0 0 1 .032-.004.1.1 0 0 1 .058.017.1.1 0 0 1 .017.025q.007.015.007.038a.1.1 0 0 1-.024.063.1.1 0 0 1-.058.017.1.1 0 0 1-.032-.004.1.1 0 0 1-.026-.013.1.1 0 0 1-.018-.025.1.1 0 0 1-.006-.038Z" style="fill-rule:nonzero;stroke:#030000;stroke-width:.01px" transform="rotate(35.362 72.352 2229.566)scale(199.9997)"/><path d="M.731-.661H.688l-.02.002-.016.009-.011.02a.1.1 0 0 0-.004.034v.39a.3.3 0 0 1-.014.09.2.2 0 0 1-.045.068.2.2 0 0 1-.078.043.5.5 0 0 1-.23.002.2.2 0 0 1-.087-.039.2.2 0 0 1-.054-.071.3.3 0 0 1-.019-.105V-.6L.106-.632A.04.04 0 0 0 .094-.65Q.088-.657.078-.659L.059-.661H.016v-.053h.345v.053H.319l-.02.002-.016.009-.011.02a.1.1 0 0 0-.004.034v.386q0 .042.011.071a.11.11 0 0 0 .076.07.24.24 0 0 0 .122-.001.1.1 0 0 0 .046-.026.1.1 0 0 0 .029-.046.2.2 0 0 0 .01-.066V-.6a.1.1 0 0 0-.004-.032.03.03 0 0 0-.011-.018.04.04 0 0 0-.016-.009l-.02-.002H.469v-.053h.262z" style="fill-rule:nonzero;stroke:#030000;stroke-width:.01px" transform="rotate(44.147 182.618 1870.02)scale(199.9996)"/><path d="m.586 0-.39-.551v.433q0 .021.004.034l.011.02q.007.006.016.009l.02.002h.042V0H.028v-.053H.07l.02-.002.016-.009a.04.04 0 0 0 .011-.02.1.1 0 0 0 .004-.034V-.6a.1.1 0 0 0-.004-.032L.106-.65a.04.04 0 0 0-.017-.009L.07-.661H.028v-.053H.25l.353.499V-.6a.1.1 0 0 0-.004-.032L.588-.65a.04.04 0 0 0-.017-.009L.552-.661H.51v-.053h.261v.053H.729l-.02.002-.016.009-.011.02a.1.1 0 0 0-.004.034V0z" style="fill-rule:nonzero;stroke:#030000;stroke-width:.01px" transform="rotate(57.196 267.725 1593.655)scale(199.99972)"/><path d="M.028 0v-.053H.07l.02-.002a.04.04 0 0 0 .016-.009.04.04 0 0 0 .011-.02.1.1 0 0 0 .004-.034v-.478A.1.1 0 0 0 .117-.63a.04.04 0 0 0-.011-.019.02.02 0 0 0-.016-.009L.07-.661H.028v-.053h.345v.053H.331l-.02.003a.03.03 0 0 0-.017.009.04.04 0 0 0-.01.019.1.1 0 0 0-.004.034v.478q0 .021.004.034l.01.02q.007.006.017.009l.02.002h.042V0z" style="fill-rule:nonzero;stroke:#030000;stroke-width:.01px" transform="rotate(67.19 291.196 1482.311)scale(199.99977)"/><path d="M.698-.661H.65l-.012.003a.03.03 0 0 0-.011.011l-.011.022-.014.037L.398 0h-.1L.085-.613.073-.636.056-.651Q.048-.657.039-.659L.023-.661H0v-.053h.33v.053H.284L.27-.659l-.012.005-.009.01a.03.03 0 0 0-.004.016l.003.022.006.021.102.308.008.027.008.031.007.033.005.03.005-.022.008-.032.01-.033.01-.031.103-.304.004-.012.004-.014.003-.013.001-.01q0-.016-.011-.025a.04.04 0 0 0-.029-.009H.44v-.053h.258z" style="fill-rule:nonzero;stroke:#030000;stroke-width:.01px" transform="rotate(76.586 337.823 1355.695)scale(199.99972)"/><path d="M.28-.061h.2q.015 0 .026-.006l.018-.016.013-.024.007-.03.008-.047h.069L.614 0H.028v-.053H.07l.02-.002a.04.04 0 0 0 .016-.008.03.03 0 0 0 .011-.018.1.1 0 0 0 .004-.032v-.483A.1.1 0 0 0 .117-.63a.04.04 0 0 0-.011-.02.04.04 0 0 0-.016-.009L.07-.661H.028v-.053h.555l.004.184h-.07L.512-.577a.1.1 0 0 0-.018-.056q-.015-.02-.046-.02H.28v.25h.237v.06H.28z" style="fill-rule:nonzero;stroke:#030000;stroke-width:.01px" transform="rotate(88.047 365.708 1257.614)scale(199.99958)"/><path d="M.028-.053H.07l.019-.002a.03.03 0 0 0 .017-.008l.011-.018a.1.1 0 0 0 .004-.032V-.6a.1.1 0 0 0-.004-.032L.106-.65a.04.04 0 0 0-.017-.009L.07-.661H.028v-.053H.35q.142 0 .208.047a.16.16 0 0 1 .066.138q0 .04-.012.071a.2.2 0 0 1-.074.092.3.3 0 0 1-.05.026l.119.205a.2.2 0 0 0 .049.062.1.1 0 0 0 .024.015l.027.005h.004V0H.678L.6-.003a.2.2 0 0 1-.059-.014.14.14 0 0 1-.077-.073L.345-.31H.279v.197q0 .02.004.032a.04.04 0 0 0 .011.018q.007.006.017.008l.019.002h.043V0H.028zm.251-.315h.056a.2.2 0 0 0 .058-.009.1.1 0 0 0 .037-.028.1.1 0 0 0 .02-.046.3.3 0 0 0-.001-.129.1.1 0 0 0-.021-.043.1.1 0 0 0-.038-.024.2.2 0 0 0-.057-.008H.279z" style="fill-rule:nonzero;stroke:#030000;stroke-width:.01px" transform="rotate(99.779 394.96 1170.427)scale(199.99975)"/><path d="M.264.01a.4.4 0 0 1-.112-.013.2.2 0 0 1-.072-.033.1.1 0 0 1-.039-.045A.1.1 0 0 1 .03-.13q0-.026.009-.043a.1.1 0 0 1 .026-.029.1.1 0 0 1 .036-.016.1.1 0 0 1 .042-.005q0 .043.01.075.01.033.029.054a.1.1 0 0 0 .043.033.1.1 0 0 0 .055.011.13.13 0 0 0 .091-.031.1.1 0 0 0 .025-.034.1.1 0 0 0 .008-.043.1.1 0 0 0-.01-.045.1.1 0 0 0-.031-.037.3.3 0 0 0-.053-.032L.237-.305a1 1 0 0 1-.088-.044.3.3 0 0 1-.058-.049.2.2 0 0 1-.032-.058.2.2 0 0 1-.009-.067q0-.046.018-.083A.2.2 0 0 1 .12-.669.2.2 0 0 1 .197-.71.44.44 0 0 1 .39-.715a.2.2 0 0 1 .066.025q.027.015.039.036.013.022.013.046A.1.1 0 0 1 .5-.575a.1.1 0 0 1-.023.026.1.1 0 0 1-.038.018.2.2 0 0 1-.054.006.2.2 0 0 0-.024-.09.1.1 0 0 0-.033-.034.1.1 0 0 0-.049-.014.12.12 0 0 0-.07.023.1.1 0 0 0-.021.029.1.1 0 0 0-.001.08.1.1 0 0 0 .025.036.2.2 0 0 0 .05.036 1 1 0 0 0 .083.038 1 1 0 0 1 .088.043.3.3 0 0 1 .059.047.2.2 0 0 1 .034.055q.01.03.01.067a.2.2 0 0 1-.019.089.2.2 0 0 1-.055.069.3.3 0 0 1-.085.045.4.4 0 0 1-.113.016Z" style="fill-rule:nonzero;stroke:#030000;stroke-width:.01px" transform="rotate(110.39 406.106 1112.49)scale(199.9997)"/><path d="M.028 0v-.053H.07l.02-.002a.04.04 0 0 0 .016-.009.04.04 0 0 0 .011-.02.1.1 0 0 0 .004-.034v-.478A.1.1 0 0 0 .117-.63a.04.04 0 0 0-.011-.019.02.02 0 0 0-.016-.009L.07-.661H.028v-.053h.345v.053H.331l-.02.003a.03.03 0 0 0-.017.009.04.04 0 0 0-.01.019.1.1 0 0 0-.004.034v.478q0 .021.004.034l.01.02q.007.006.017.009l.02.002h.042V0z" style="fill-rule:nonzero;stroke:#030000;stroke-width:.01px" transform="rotate(118.98 411.945 1070.548)scale(199.99967)"/><path d="M.406-.118q0 .021.004.034a.04.04 0 0 0 .011.02q.007.006.016.009l.02.002h.042V0H.154v-.053h.042l.02-.002a.04.04 0 0 0 .016-.009.04.04 0 0 0 .011-.02.1.1 0 0 0 .004-.034v-.535h-.08a.1.1 0 0 0-.038.005l-.024.014-.014.022a.1.1 0 0 0-.007.03L.077-.52H.01l.005-.194h.623l.005.194H.576L.569-.582l-.007-.03a.06.06 0 0 0-.039-.036.1.1 0 0 0-.037-.005h-.08z" style="fill-rule:nonzero;stroke:#030000;stroke-width:.01px" transform="rotate(127.912 437.577 1019.3)scale(199.99967)"/><path d="M.164 0v-.053h.047l.023-.002a.04.04 0 0 0 .018-.007.04.04 0 0 0 .012-.019.1.1 0 0 0 .005-.033v-.139L.084-.608.07-.633a.06.06 0 0 0-.032-.025L.013-.661H0v-.053h.335v.053H.318q-.03 0-.045.012a.04.04 0 0 0-.015.033q0 .012.004.027l.011.028.074.147q.016.032.026.056l.018.048a1 1 0 0 1 .054-.122l.058-.12a.2.2 0 0 0 .017-.06q0-.026-.016-.037a.1.1 0 0 0-.05-.012H.431v-.053h.262v.053H.674l-.022.003-.017.012-.017.024-.02.039-.17.331v.137q0 .021.005.034a.04.04 0 0 0 .012.018q.007.007.017.008l.022.002h.049V0z" style="fill-rule:nonzero;stroke:#030000;stroke-width:.01px" transform="rotate(139.246 454.478 967.625)scale(199.99975)"/><path d="M.097 0v-.053h.082l.022-.003q.01-.004.016-.011l.009-.02.003-.031v-.501l-.036.042-.032.033-.031.021a.1.1 0 0 1-.03.008L.077-.52.059-.535a.1.1 0 0 1-.017-.054l.032-.009a.3.3 0 0 0 .075-.037l.047-.031.07-.052h.112v.6L.38-.09l.008.02q.006.009.016.013l.025.004H.51V0z" style="fill-rule:nonzero;stroke:#030000;stroke-width:.01px" transform="rotate(16.981 -5429.105 3008.208)scale(199.99972)"/><path d="M.227.01A.3.3 0 0 1 .15 0 .2.2 0 0 1 .1-.025a.1.1 0 0 1-.028-.036.1.1 0 0 1-.009-.042q0-.022.012-.037a.06.06 0 0 1 .037-.02l.017.042a.1.1 0 0 0 .025.034.1.1 0 0 0 .034.022.1.1 0 0 0 .044.009q.067 0 .104-.073a.5.5 0 0 0 .041-.217l-.026.027-.033.022a.2.2 0 0 1-.039.014.24.24 0 0 1-.127-.008.17.17 0 0 1-.102-.105.3.3 0 0 1 .001-.188.2.2 0 0 1 .117-.126.3.3 0 0 1 .096-.017q.054 0 .1.019a.2.2 0 0 1 .08.061.3.3 0 0 1 .052.104.7.7 0 0 1 .002.307.4.4 0 0 1-.05.126.3.3 0 0 1-.089.086.3.3 0 0 1-.132.031Zm.047-.357a.1.1 0 0 0 .062-.018.14.14 0 0 0 .041-.049.6.6 0 0 0-.009-.11.3.3 0 0 0-.022-.075.1.1 0 0 0-.033-.044.07.07 0 0 0-.043-.014q-.043 0-.066.042a.3.3 0 0 0-.024.127.2.2 0 0 0 .024.105q.023.036.07.036Z" style="fill-rule:nonzero;stroke:#030000;stroke-width:.01px" transform="rotate(5.648 -17435.047 8990.614)scale(199.99973)"/><path d="M.03-.182a.15.15 0 0 1 .04-.105.2.2 0 0 1 .047-.039l.06-.035a.3.3 0 0 1-.092-.078.2.2 0 0 1-.032-.103q0-.035.012-.068a.15.15 0 0 1 .039-.058.2.2 0 0 1 .072-.041.4.4 0 0 1 .109-.015q.052 0 .093.013a.2.2 0 0 1 .066.037.15.15 0 0 1 .041.055.18.18 0 0 1 .004.123.2.2 0 0 1-.028.042.2.2 0 0 1-.042.035l-.056.032q.045.021.076.044a.2.2 0 0 1 .052.046.16.16 0 0 1 .038.108.2.2 0 0 1-.068.147.3.3 0 0 1-.08.038.4.4 0 0 1-.216-.001.2.2 0 0 1-.076-.041.2.2 0 0 1-.045-.061.2.2 0 0 1-.014-.075Zm.248.135a.104.104 0 0 0 .104-.075.1.1 0 0 0 .008-.05.1.1 0 0 0-.008-.044.1.1 0 0 0-.026-.037.2.2 0 0 0-.046-.034L.244-.321l-.031.025a.15.15 0 0 0-.042.07.2.2 0 0 0 .002.101q.008.024.023.042.015.017.036.027a.1.1 0 0 0 .046.009Zm.094-.504a.2.2 0 0 0-.006-.042.1.1 0 0 0-.018-.037.1.1 0 0 0-.029-.026.1.1 0 0 0-.04-.01.08.08 0 0 0-.063.032.1.1 0 0 0-.017.035.2.2 0 0 0-.005.045q0 .025.007.045a.13.13 0 0 0 .054.063.3.3 0 0 0 .047.025l.031-.023a.12.12 0 0 0 .035-.063.2.2 0 0 0 .004-.044Z" style="fill-rule:nonzero;stroke:#030000;stroke-width:.01px" transform="rotate(-5.58 18646.47 -9001.27)scale(199.99967)"/><path d="M.436-.186v.061q0 .023.007.038.006.014.017.021l.026.01q.015.003.032.003h.013V0H.18v-.053h.028L.24-.056l.026-.01.017-.021A.1.1 0 0 0 .29-.125v-.061H.013v-.061l.284-.467h.139v.462H.54v.066zM.29-.427l.002-.094q0-.051.005-.098l-.016.032-.023.042-.023.041-.017.029-.135.223H.29z" style="fill-rule:nonzero;stroke:#030000;stroke-width:.01px" transform="rotate(-16.892 6453.473 -2917.513)scale(199.9998)"/><path d="M937.5 31.827c499.855 0 905.673 405.818 905.673 905.673s-405.818 905.673-905.673 905.673S31.827 1437.355 31.827 937.5 437.645 31.827 937.5 31.827m0 45.283c474.862 0 860.39 385.528 860.39 860.39s-385.528 860.39-860.39 860.39S77.11 1412.362 77.11 937.5 462.638 77.11 937.5 77.11" style="fill:#f1ede5;stroke:#000;stroke-width:12.5px;stroke-linecap:round;stroke-miterlimit:1.5"/><path d="M937.5 296.51c353.772 0 640.99 287.218 640.99 640.99s-287.218 640.99-640.99 640.99-640.99-287.218-640.99-640.99S583.728 296.51 937.5 296.51m0 64.099c318.395 0 576.891 258.496 576.891 576.891s-258.496 576.891-576.891 576.891S360.609 1255.895 360.609 937.5 619.105 360.609 937.5 360.609" style="fill:#f1ede5;stroke:#000;stroke-width:12.5px;stroke-linecap:round;stroke-miterlimit:1.5"/><circle cx="941.836" cy="937.5" r="603.284" style="fill:#e3d2b0;stroke:#000;stroke-width:12.5px;stroke-linecap:round;stroke-miterlimit:1.5"/><path d="m1219.41 710.329 1.533 1.574c0-1.574.767-3.936-.767-5.512-1.533-.786-3.066 0-3.834.788.768.788 2.301 1.574 3.068 3.15m27.603 58.27c0-4.724-.768-9.449-3.068-13.386a26.8 26.8 0 0 0-9.201-9.449c-3.833-2.362-7.668-2.362-9.968-7.087-.765-.788-1.533-.788-.765-2.362 0-.788 1.532-.788 2.3 0 0-1.576.765-5.513-.768-6.301.768-1.574-.767-6.299-.767-8.661-.765.788-1.533.788-3.066 1.574.766-1.574 1.533-2.362 2.301-3.937-1.535 0-2.301-1.574-2.301-3.15-4.6 0-9.201-7.873-11.501-11.024 0 2.363-3.067 0-3.835-.788-.765-1.574-1.533-3.148-2.3-3.936-1.533-1.574-3.066-3.151-5.366-3.937-3.067-2.362-6.901-4.724-10.736-6.301-3.065-1.574-6.133-3.936-8.433-5.51.767 1.574 1.533 2.362 1.533 3.936-.766-.788-5.366-5.513-6.901-4.725-2.3.789.768 3.151 1.535 3.937-.767-.786-9.201-3.937-4.601-.786-1.534-.788-3.835-2.362-4.6 0-2.3-.788-6.135-.788-7.668-2.362-1.533-.789-3.833-3.151-5.368-3.151 0 .788.768 1.574 1.535 2.362-4.601-1.574-9.201-.788-13.801-.788h-5.368c-1.533 0-2.3 1.577-3.068 1.577-10.734 0-19.934 2.362-29.903 4.724-19.934 3.937-36.803 15.748-49.837 31.497-6.901 8.663-13.034 17.324-19.169 26.773-5.366 7.087-9.201 14.962-16.102 21.261s-16.867 11.024-25.302 14.962c-3.833 1.575-8.434 3.937-13.034 4.725s-9.201 0-13.802.786-10.733-2.362-15.334-3.936c-5.368-1.575-10.735-3.151-15.336-3.937-9.966-2.362-19.935-4.725-29.903-6.301l-33.736-4.724c-10.734-1.575-21.469-2.363-31.436-5.511-19.936-5.513-28.37-25.986-43.704-37.798-8.435-6.3-17.636-10.237-28.37-11.811h-7.668c-2.3 0-3.833-3.151-5.366-4.725-3.835-3.938-7.668-7.087-12.268-9.449-1.533-.788-3.068-2.362-5.368-3.151-3.066-.788-4.6 0-6.133-1.574-3.833-3.938-7.668-7.875-11.501-11.025-7.668-7.087-15.335-13.386-25.303-15.749-2.3-.788-5.368-.788-7.668-.788s-3.833-.786-6.133-.786-3.068 1.574-5.368 2.363c-3.066.786-6.133.786-9.201 1.574-9.966 2.362-14.567 11.811-14.567 22.049 0 7.873-1.534 15.748-1.534 23.623 0 8.661 1.534 17.323 3.834 25.986-8.435.786-9.968 14.96-6.135 21.261-4.6 1.574-6.9 6.299-7.666 10.235 0 1.576 0 3.939.766 5.513.765 1.574 2.3 3.15 2.3 4.725s-1.533 3.936-1.533 5.512v7.874c.767 4.724 2.3 8.663 4.6 12.599-3.833.788-9.2.788-9.2 5.513-.768 3.937 1.532 8.661.767 13.386-.767 8.661 4.6 18.111 12.267 22.835.767 0 2.3.788 3.067 1.576v3.149c0 2.362 0 4.725.767 7.087.766 3.938 2.301 8.663 4.601 12.6 4.6 7.875 10.734 14.174 19.167 18.898 0 0 .768 0 .768.788-2.301 3.149-3.068 7.087-3.834 11.812-.767 5.511-1.534 10.235-.767 15.748 1.533 10.238 8.434 16.536 16.869 22.049l-3.068 3.149c-.767.788-2.3 1.576-3.067 2.362 0 0 .767.788.767 1.576-.767 3.149 0 3.937 2.3 7.087-2.3 1.574-5.367 5.511-.767 5.511-.765 2.362-5.366 1.576-4.6 4.725.765 3.148 3.835.788 6.135 0-1.535 2.362-6.901 2.362-7.668 4.724-1.533 3.151 2.3 3.151 4.6 2.363.768 2.362-5.368 3.15-6.133 4.724-.767.788 0 2.363.765 2.363 1.535.788 2.301 0 3.835-.787-.767 1.575-3.067 3.149-3.067 5.511v1.576c0 .787 0 1.575-.768 3.149.768-.786 2.301-1.574 3.068 0-1.533.788-5.368 7.087-1.533 5.513-1.535-.788-1.535 1.574 1.533 2.362 1.533 0 2.3-.788 3.068 0 .767.788 1.532 2.362 2.3 3.15 1.533 3.149 3.066 5.511 5.366 8.662.767 1.574 2.3 2.362 3.835 3.936 1.534 1.575 1.533 1.576.765 3.939s-.765 7.087.768 8.661c.767.788 2.3 1.574 3.067 2.362 1.533.788 1.533.788 3.066 2.363.767.788 0 3.15.767 3.936.768.786 2.3.788 3.833.788 2.301 0 4.601.788 6.901 0-2.3 1.575-6.901 4.725-6.133 8.662 0 3.15 4.6 3.15 6.9 2.362 0 3.15.768 3.938 4.601 3.938 1.533 0 2.3-1.576 3.067-1.576 1.533-.786.766 0 2.301 0 3.065.788 5.366 1.576 6.133 4.725s0 7.087.767 10.237c0 2.363-1.534 13.386 3.066 12.6 1.535-.788 3.068-1.576 4.6-1.576 1.533 0 3.835-.786 5.368-1.574-2.3 2.362-1.533 11.811 2.3 11.023.768 0 2.301-1.574 2.301-1.574.767.788 1.533.788 2.3.788 1.533 0 2.3-1.576 3.833-1.576q0 2.363 2.3 2.362c2.3 0 3.835.788 5.368 3.151.767 1.574 1.533 3.936 2.3 5.512a23.7 23.7 0 0 0 6.134 6.299c2.3 1.575 4.6 3.151 7.668 4.725 1.532.788.767 4.725 1.532 6.299 2.301 4.724 7.668 1.576 9.201-1.574 3.068 4.724 5.368 8.661 10.736 5.512 1.533 4.725 6.901 7.873 9.966 11.812 1.535 2.362 3.835 3.937 6.135 4.725 2.301.788 5.366-.788 6.901.786 3.066 3.938 5.366 8.663 10.734 8.663 3.833 0 4.6-3.939 4.6-7.087 2.301 2.362 3.068 3.148 3.833 6.299.768 2.362 1.535 5.513 2.301 7.875 1.534 5.511 1.534 10.235 2.3 15.748 0 10.238.767 19.687-1.533 29.136-.767 2.363 0 10.236-2.3 11.812-.768.786-5.368.786-6.901 1.574-2.3.788-5.368 2.362-7.668 3.151-2.3 1.574-7.666 5.51-4.6 8.661 2.3 2.362 6.135-.788 8.435-.788 1.533-.786 3.833 0 5.366 0 2.3 0 3.835-.786 5.368.788 2.3 3.936 6.9 4.724 11.501 4.724 3.067 0 7.668 3.151 10.734 4.725 3.835 2.362 9.968 2.362 13.801 2.362 5.368 0 10.736.788 16.102.788h6.9c2.3 0 3.068 1.575 5.368 2.363 1.533.786 3.833 1.574 5.368 1.574 1.534 0 3.833 2.362 6.133 3.15 2.3.789 3.833 2.363 5.368 3.937s1.533 3.937 3.066 4.725c4.6 4.724 6.135-2.363 6.9-6.299.768-5.513-3.833-8.663-7.666-11.812 6.133 0 12.267-1.576 17.635-.788 3.833.788 6.133 2.362 9.2 4.725.768.788 2.301 1.574 3.068 2.362s.766 2.362 1.533 3.15c3.067 3.937 5.368-3.15 4.6-5.512-.767-5.513-6.9-9.45-11.501-12.6 6.134 1.576 13.034 3.15 17.635 6.301 3.835 2.362 6.135 7.873 9.201 11.023 3.067 3.937 5.367 0 6.135-3.936.765-6.301-1.535-11.812-6.901-14.962 3.066-.788.766-6.299 0-7.875-2.3-3.937-6.901-6.299-11.501-7.087 3.833-1.575 7.666-.786 10.734 1.576 1.533 1.574 2.3 2.362 2.3 3.936 0 1.575 1.533 3.151 2.3 3.937 2.3.788 4.601-.786 5.368-3.148.765-3.151-.767-6.301-1.535-8.664-9.966-16.536-36.036-6.299-50.605-5.51-4.6 0-8.433.786-13.034.786-4.6 0-6.133 0-6.133-4.725 0-3.937.766-7.087 0-11.024 0-3.936-1.535-8.661-3.068-12.599-2.3-8.661-3.833-17.323-5.367-25.986 0-1.574-.766-3.936-.766-5.511 0-.788-.767-3.15 0-3.15.766-.788 1.533 0 2.3-.788.766-1.574-.767-3.149-1.534-3.937-.766-2.362-.766-3.936-.766-6.299 1.533 1.575 3.066 2.363 4.601 3.937.765 1.574 1.532 3.936 3.065 3.15-2.3-3.938-3.065-7.087-4.6-11.025.767.788.767 1.576 2.3 2.362-1.533-2.362-1.533-4.725-3.066-6.299-.767-1.574-2.3-4.724-1.534-6.299 2.3 4.725 5.367 9.45 7.668 14.174.767 1.575 1.533 3.149 3.833 3.937.767.788 2.3 1.574 3.067 2.362-.767-1.574-1.533-2.362-.767-3.936.767 0 2.3.786 2.3.786.768.788 1.535 2.362 2.3 2.362 1.535 0-.765-2.362-.765-3.148-2.3-3.151-3.835-8.664-6.135-12.6l2.3 2.362v-.788c-3.833-3.936-5.366-11.023-6.901-15.748 3.835 5.513 8.436 11.812 13.036 16.536 1.533 1.574 6.133 3.151 3.833-.788s-4.6-7.873-6.133-11.811c3.066 3.938 6.133 11.811 11.501 11.025-.767-.788-1.535-2.362-.767-3.15.767.788 6.133 3.936 5.367 2.362-.767-.788 0-.788 0-2.362-.767-1.575-1.534-3.151-3.067-4.725 2.3 2.362 5.368 3.937 7.668 6.299.765.788 1.533 2.362 2.3.788.766-.788-1.535-2.362-2.3-3.15l.765.788c-1.532-2.363-3.065-3.937-4.6-5.513-.766-1.574-1.533-3.937-3.066-5.511s0-2.362.766-3.938c.767-.787 4.6.788 5.368.788 5.367.788 9.2-2.363 13.801-3.937 4.6-1.574 9.968-3.15 14.569-4.725l29.135-11.811c3.833-1.576 6.901-4.725 9.968-6.301 3.833-2.362 5.366-6.299 9.967-7.087 18.402-1.574 38.338-8.661 52.905-20.473s25.302-28.348 32.203-45.672c7.668-19.685 13.801-40.16 23.002-59.059 4.601-9.449 9.201-18.11 16.102-25.985 6.135-7.873 11.501-14.174 14.568-23.624 3.068-8.661 2.301-18.11 3.068-26.771.765-10.238 0-20.475.765-30.711.768-5.512 1.535-11.025 3.068-15.75 1.533-5.511 3.833-10.235 6.133-15.748 1.535-3.937 1.535-7.875.768-11.812 0-.788 3.067-3.936 3.833-4.724 1.535-.788 3.067 0 4.6-.788 4.601-.787 7.668-4.725 10.736-7.874 1.533-1.576 2.3-3.15 3.066-3.938.767-1.574 3.067-2.362 4.6-3.149 3.068-2.362 6.135-3.938 9.201-5.512 4.6-2.363 4.6-1.575 8.435 0 3.066 1.574 6.901 3.15 9.967 3.936 5.367 1.576 11.501-.786 13.801 5.513 2.3-2.362 1.535-3.15 1.535-4.725m-378.771 358.286c0-1.574-.766-3.148-.766-4.724.766.788 1.533 3.938.766 4.724m19.169-2.362c.767 2.362 3.833 5.513 3.067 7.875-.767-2.362-3.067-3.15-3.067-4.724-.768-3.937-2.3-7.087-2.3-11.024.767 2.362 1.532 5.511 2.3 7.873m0 4.725c-1.533 0-1.533-.786-1.533-2.363 0 .789.765 1.577 1.533 2.363m4.6 59.058c0 4.725-1.533 9.449-2.3 14.174-9.968-16.536-16.102-35.435-15.334-55.12 2.3.786 2.3 3.149 3.066 4.725.767-.788.767 0 0-.788-.766-2.362-.766-2.362-.766-3.937 0-3.15-1.535-6.301-2.3-9.449 2.3 2.362 3.066 5.511 3.833 7.873 1.533 3.939 2.3 3.151 1.533-.786.767.786 1.534 2.362 2.3 3.148 0-.786-1.533-3.148-1.533-3.936.767-.788 0-1.574 0-2.362-.767-3.151-3.833-7.876-3.833-11.024 2.3 5.511 3.066 11.812 6.901 15.748-2.301-9.449-3.835-19.687-5.368-29.136.767 3.151 2.3 5.513 3.067 7.875s1.533 3.937 1.533 5.513c.768 6.299 3.068 12.598 3.833 18.899 3.835 12.597 5.368 25.985 5.368 38.583m.768-61.421c0-.786 0 0 0 0m81.273 91.345-.766-.788c0 .788.766.788.766.788m174.051-525.225c.766 0 .766 0 1.533.788-.767 0-1.533-.788-1.533-.788m67.472 49.609s-.765.788 0 0"/><path d="M1220.18 706.391c.767-2.363-1.533-6.299-3.066-3.149-.768-.788 0-2.362-1.535-3.15-1.533-1.574-3.066.788-3.066 3.15-4.6-3.938-5.367-3.938-6.9 1.574 0 1.575.765 2.363.765 3.937 0 3.15 1.535 5.513 3.068 7.875 2.3 3.937 5.368 9.449 3.067 14.174a9.37 9.37 0 0 1-3.835 3.937c-1.532.788-3.833 2.362-2.3 3.938-6.9.786-10.733-11.025-14.567-14.962-3.067-3.15-6.9-3.936-10.735-4.725 0 0 0-.788-.766-.788-.765 0-1.534 0-3.067.788-1.533.789-2.3.789-4.601.789-4.6 0-8.433 1.574-13.034 2.362-3.067.786-3.835 1.574-2.3 3.148s3.066 2.363 3.833 4.725.768 4.725 1.533 7.087c.767.788.767 1.576 1.535 1.576 1.533 0 1.533 3.937.765 3.937 0-.788-2.3-1.575-3.065-.788s.765.788.765 1.576v3.936c-2.3-.788-5.366-.788-7.666-1.574-2.3 0-3.068-.788-5.368-1.576h-2.3c-.768-.786-1.533-2.362-2.3-3.937-.768-1.574-2.301-2.362-2.301-4.724 1.533.788 2.301 1.574 3.833 1.574-.765-.786-2.3-1.574-3.065-3.149-.768-.788 0-2.362-1.535-3.15-3.833-1.574-2.3 9.449-3.066 11.024-.767.788-2.3 1.576-3.067 3.15 0 .788 0 1.574-.768 2.362 0 .788-.765 3.151 0 3.151 0 0 .768-1.576 1.535-1.576-1.535 1.576-.767 8.663 0 11.811.766 3.939 3.066 6.301 4.601 10.238.765 1.574 2.3 2.362 3.833 3.936 1.532 1.575 1.532 3.939 2.3 6.301.767 3.937 1.533 8.661 3.833 12.598 1.535 1.576 3.835 0 4.6-.786 2.301-2.363 1.535-5.513 3.068-7.875 5.368-8.662 16.102-14.174 24.535-18.111 2.3-.788 4.6-2.362 6.901-2.362-9.967 5.511-20.702 9.449-28.368 18.11-3.835 3.937 1.532 3.937 4.6 5.513 1.533.786 2.3 0 3.066 1.574.765 1.575 4.6-.788 5.368-1.574 0 .786-2.301 4.725-2.301 5.511 1.533 1.576 6.134-6.299 6.901-7.087 3.068-2.362 7.668-2.362 10.734-3.937a18.44 18.44 0 0 0 6.135-7.087c.765-1.574.765-3.15 1.533-4.724 0-.788 3.833-1.575 4.6-2.363 3.068-1.574-.767-3.15-1.533-3.936-2.3-2.363 6.901-6.301 8.434-6.301 3.833-.786 8.433.788 13.034 0 .767 0 .767.788 1.535 0s0-.786 0-1.574c0 0-.768 0-.768-.788h1.533c.767-.787 1.535-.787 0-1.575-2.3-.788-6.133 0-8.434 0-4.6 0-8.433-1.574-13.033-.788-5.368 0-9.969 0-15.337.788v-1.574c3.068-1.576 6.136-3.15 9.201-3.15 1.535 0 1.535-.788 3.068-.788s3.068-.787 4.6 0c2.301 0 7.668 5.512 9.969 2.362 1.532-1.574 1.532-2.362.765-4.725 2.3 1.576.767-.786 1.535-1.574.765-1.574 0-1.574.765-2.362.766-.788 3.068-.788 3.835 0 1.533 0 4.601 3.15 5.366.788 0-.788-.765-1.576-.765-2.363 3.833 0 4.6-.788 1.533-3.938 0 0-2.301 0-1.533-.786.767-.786.765-.788.765-1.576 0-2.363-3.065-1.575-.765-4.725s3.065-3.937 1.533-7.873c-.768-1.576 1.532-6.301-1.533-5.513.765-1.574 2.3-4.725 1.533-6.299-.768-2.362-2.301-.788-3.833.786-2.301 3.151-2.301 1.577-1.535-1.574 0-1.574 0-3.15-2.3-3.15m-41.404 14.174c5.367.788 9.968 3.15 13.801 7.875 0 .788-.766 0-1.533.788s-1.533 0-1.533.786 0 2.362-.767 3.15c-2.3 2.363-4.601 3.937-8.434 3.937-3.067 0-6.135-2.362-7.668-4.725s-1.533-5.511-3.833-7.087c1.533-.786 2.3-1.574 3.066-2.362 2.3-1.574 4.6-1.574 7.668-.786 2.3.786 3.833 1.574 5.368 3.148 1.533.788 1.533 2.363 3.833 2.363.767-3.149-6.901-6.299-9.968-7.087m-9.967 8.663c1.533 6.299 7.666 11.811 14.567 11.023 3.068-.788 6.901-1.574 9.201-3.936-3.066 3.936-7.666 5.511-12.267 5.511-3.835 0-6.135-1.575-8.435-3.937-1.533-1.574-4.601-7.087-3.066-8.661m36.036 27.56c-4.6 0-9.968 1.574-14.568 2.362-2.301.788-6.901 2.362-8.434.788 2.3-.788 3.833-2.362 6.133-3.15 0 2.362 5.368 0 6.136 0 3.833-.788 7.666-.788 10.733 0m-49.837 20.473q0-1.18 0 0m1.533 9.449q0 1.182 0 0" style="fill:#a51c21"/><path d="M1178.01 723.715c-6.901 2.362-3.835 14.174 3.833 14.174 8.434-.788 4.601-15.748-3.833-14.174m1.533 11.024c-5.368-2.363-2.3-10.236 2.3-7.874 3.068 2.363 1.533 8.662-2.3 7.874" style="fill:#fc3"/><path d="M477.958 897.72c-1.908 30.808-15.921 66.5 27.091 107.975l1.426 36.699c-42.801-21.298-44.438-71.281-50.62-114.325z" style="fill:#ffd200;fill-rule:nonzero;stroke:#000;stroke-width:5.95px;stroke-linecap:round;stroke-miterlimit:4"/><path d="M520.718 824.31c30.589-28.92 40.196-53.122 34.939-85.39-24.776 10.444-38.285 41.603-49.911 76.218 19.126-41.194 10.646-66.311-2.137-88.922-7.982 25.216-20.288 46.075-14.261 85.391.02-43.18-21.986-63.276-54.188-72.69 4.42 27.524 17.964 59.281 38.504 86.804-25.958-46.661-59.237-39.945-86.984-42.343 15.353 33.766 47.69 45.587 77.717 55.752-34.693-11.977-68.549-22.297-91.975 8.468 38.858 20.604 68.288 13.342 96.251 9.881-38.448 3.301-72.986 12.032-86.269 47.988 37.804.871 65.305-15.285 93.403-39.518-33.364 23.345-45.014 52.75-43.495 87.51 28.429-24.054 51.445-49.641 53.476-81.157-14.659 51.603-4.607 77.306 12.833 95.271 15.417-33.069 5.524-60.381 7.131-95.977.319 51.174 26.335 62.074 48.482 79.04-8.863-29.573-2.453-50.271-36.361-84.687 49.765 58.859 63.133 41.167 84.133 39.521-21.269-29.344-46.885-41.798-75.577-49.4 24.161 4.893 52.461 18.282 84.133-11.292-24.591-12.599-51.109-19.144-83.422-7.059 40.088-9.021 61.813-24.405 73.44-46.574-30.513-8.215-50.204 3.934-79.856 33.168z" style="fill:#f1ede5;fill-rule:nonzero;stroke:#000;stroke-width:5.95px;stroke-linecap:round;stroke-miterlimit:4"/><path d="M465.117 843.016c0 16.954 13.886 30.7 31.016 30.7s31.013-13.746 31.013-30.7-13.886-30.698-31.013-30.698-31.016 13.743-31.016 30.698m931.928 54.704c1.908 30.808 15.921 66.5-27.094 107.975l-1.426 36.699c42.801-21.298 44.438-71.281 50.623-114.325z" style="fill:#ffd200;fill-rule:nonzero;stroke:#000;stroke-width:5.95px;stroke-linecap:round;stroke-miterlimit:4"/><path d="M1354.28 824.31c-30.589-28.92-40.196-53.122-34.936-85.39 24.776 10.444 38.282 41.603 49.908 76.218-19.126-41.194-10.643-66.311 2.137-88.922 7.982 25.216 20.288 46.075 14.261 85.391-.02-43.18 21.986-63.276 54.188-72.69-4.417 27.524-17.961 59.281-38.501 86.804 25.958-46.661 59.234-39.945 86.984-42.343-15.353 33.766-47.693 45.587-77.717 55.752 34.693-11.977 68.546-22.297 91.972 8.468-38.855 20.604-68.285 13.342-96.251 9.881 38.448 3.301 72.986 12.032 86.269 47.988-37.804.871-65.305-15.285-93.4-39.518 33.364 23.345 45.014 52.75 43.492 87.51-28.429-24.054-51.445-49.641-53.473-81.157 14.659 51.603 4.604 77.306-12.833 95.271-15.418-33.069-5.527-60.381-7.131-95.977-.319 51.174-26.335 62.074-48.485 79.04 8.866-29.573 2.453-50.271 36.364-84.687-49.768 58.859-63.136 41.167-84.133 39.521 21.269-29.344 46.882-41.798 75.574-49.4-24.158 4.893-52.458 18.282-84.133-11.292 24.591-12.599 51.109-19.144 83.422-7.059-40.088-9.021-61.813-24.405-73.437-46.574 30.51-8.215 50.201 3.934 79.853 33.168z" style="fill:#f1ede5;fill-rule:nonzero;stroke:#000;stroke-width:5.95px;stroke-linecap:round;stroke-miterlimit:4"/><path d="M1409.88 843.016c0 16.954-13.886 30.7-31.013 30.7s-31.016-13.746-31.016-30.7 13.886-30.698 31.016-30.698 31.013 13.743 31.013 30.698" style="fill:#ffd200;fill-rule:nonzero;stroke:#000;stroke-width:5.95px;stroke-linecap:round;stroke-miterlimit:4"/><path d="M545.308 1259.39c-47.45-33.239-79.709-117.291-111.928-170.072l79.773 18.028 17.763-71.422c22.704 66.319 43.853 125.396 88.535 158.059zm782.642-2.98c48.774-47.995 85.447-137.363 113.671-178.225l-74.586 18.88-34.237-61.186c-4.622 21.274-27.513 101.307-79.32 144.549z" style="fill:#fff;stroke:#000;stroke-width:7.58px;stroke-linejoin:miter;stroke-miterlimit:4"/><path d="M593.619 1182.92c96.402 98.469 196.061 177.012 339.545 179.821 103.97 2.035 222.695-52.55 335.098-183.867 35.443 19.969 77.308 88.749 74.311 85.185-44.232 59.802-108.15 104.592-169.804 140.955-79.315 46.779-165.909 64.542-241.309 63.207-74.064-1.312-138.937-14.011-220.813-53.179-56.783-27.163-143.792-88.419-192.609-149.184 1.456-18.564 48.736-61.308 75.581-82.938Z" style="fill:#fff;stroke:#000;stroke-width:7.58px;stroke-linejoin:miter;stroke-miterlimit:4"/><path d="m.586 0-.39-.551v.433q0 .021.004.034l.011.02q.007.006.016.009l.02.002h.042V0H.028v-.053H.07l.02-.002.016-.009a.04.04 0 0 0 .011-.02.1.1 0 0 0 .004-.034V-.6a.1.1 0 0 0-.004-.032L.106-.65a.04.04 0 0 0-.017-.009L.07-.661H.028v-.053H.25l.353.499V-.6a.1.1 0 0 0-.004-.032L.588-.65a.04.04 0 0 0-.017-.009L.552-.661H.51v-.053h.261v.053H.729l-.02.002-.016.009-.011.02a.1.1 0 0 0-.004.034V0z" style="fill-rule:nonzero;stroke:#030000;stroke-width:.03px" transform="rotate(35.517 -1767.695 1627.094)scale(66.66663)"/><path d="M.028 0v-.053H.07l.02-.002a.04.04 0 0 0 .016-.009.04.04 0 0 0 .011-.02.1.1 0 0 0 .004-.034v-.478A.1.1 0 0 0 .117-.63a.04.04 0 0 0-.011-.019.02.02 0 0 0-.016-.009L.07-.661H.028v-.053h.345v.053H.331l-.02.003a.03.03 0 0 0-.017.009.04.04 0 0 0-.01.019.1.1 0 0 0-.004.034v.478q0 .021.004.034l.01.02q.007.006.017.009l.02.002h.042V0z" style="fill-rule:nonzero;stroke:#030000;stroke-width:.03px" transform="rotate(30.362 -2186.25 1926.384)scale(66.66654)"/><path d="M.446 0v-.053h.043l.02-.002.016-.009a.04.04 0 0 0 .011-.02.1.1 0 0 0 .004-.034v-.224H.279v.224q0 .021.004.034l.011.02.016.009.02.002h.043V0H.028v-.053H.07l.02-.002.016-.009a.04.04 0 0 0 .011-.02.1.1 0 0 0 .004-.034V-.6a.1.1 0 0 0-.004-.032L.106-.65a.03.03 0 0 0-.017-.008L.07-.661H.028v-.053h.345v.053H.33l-.02.003a.03.03 0 0 0-.016.009Q.287-.643.283-.63a.1.1 0 0 0-.004.034v.193H.54v-.193A.1.1 0 0 0 .536-.63a.04.04 0 0 0-.011-.019.03.03 0 0 0-.016-.009l-.02-.003H.446v-.053h.345v.053H.749l-.02.003a.03.03 0 0 0-.016.009Q.706-.643.702-.63l-.004.034v.483q0 .02.004.032a.04.04 0 0 0 .012.018.03.03 0 0 0 .016.008l.019.002h.042V0z" style="fill-rule:nonzero;stroke:#030000;stroke-width:.03px" transform="rotate(24.058 -2908.185 2366.686)scale(66.66658)"/><path d="M.028 0v-.053H.07l.02-.002a.04.04 0 0 0 .016-.009.04.04 0 0 0 .011-.02.1.1 0 0 0 .004-.034v-.478A.1.1 0 0 0 .117-.63a.04.04 0 0 0-.011-.019.02.02 0 0 0-.016-.009L.07-.661H.028v-.053h.345v.053H.331l-.02.003a.03.03 0 0 0-.017.009.04.04 0 0 0-.01.019.1.1 0 0 0-.004.034v.478q0 .021.004.034l.01.02q.007.006.017.009l.02.002h.042V0z" style="fill-rule:nonzero;stroke:#030000;stroke-width:.03px" transform="rotate(17.82 -4136.352 3192.146)scale(66.66655)"/><path d="M.028 0v-.053H.07l.02-.002a.04.04 0 0 0 .016-.009.04.04 0 0 0 .011-.02.1.1 0 0 0 .004-.034v-.478A.1.1 0 0 0 .117-.63a.04.04 0 0 0-.011-.02.04.04 0 0 0-.016-.009L.07-.661H.028v-.053h.345v.053H.331l-.02.002q-.01.002-.016.009a.04.04 0 0 0-.011.018A.1.1 0 0 0 .28-.6v.539h.186a.07.07 0 0 0 .055-.022.14.14 0 0 0 .028-.065l.016-.075h.056L.614 0z" style="fill-rule:nonzero;stroke:#030000;stroke-width:.03px" transform="rotate(11.172 -6910.575 4910.887)scale(66.66657)"/><path d="M.517-.53.512-.578Q.508-.618.488-.635a.07.07 0 0 0-.05-.018H.279v.273h.237v.059H.279v.203q0 .021.004.034l.011.02q.007.006.017.009l.02.002h.062V0H.028v-.053H.07l.02-.002a.04.04 0 0 0 .016-.008.03.03 0 0 0 .011-.018.1.1 0 0 0 .004-.032V-.6a.1.1 0 0 0-.004-.032.03.03 0 0 0-.011-.018.04.04 0 0 0-.016-.009L.07-.661H.028v-.053h.554l.005.184z" style="fill-rule:nonzero;stroke:#030000;stroke-width:.03px" transform="rotate(.558 -147990.056 94713.922)scale(66.6666)"/><path d="m.218-.235-.029.086-.008.029-.004.028a.03.03 0 0 0 .004.017.03.03 0 0 0 .01.012l.014.007.017.003h.042V0h-.26v-.053h.012L.04-.056l.021-.011.018-.022.017-.037.217-.588H.45l.209.589a.2.2 0 0 0 .033.057l.02.011.023.004h.018V0h-.33v-.053h.039l.015-.002.014-.007.01-.012a.03.03 0 0 0 .004-.018L.502-.115l-.006-.02-.035-.1zm.17-.225L.377-.496.366-.534.355-.573.346-.61l-.01.033-.013.037-.013.039-.012.036-.059.169h.202z" style="fill-rule:nonzero;stroke:#030000;stroke-width:.03px" transform="rotate(-7.69 11233.842 -6521.376)scale(66.66646)"/><path d="M.425-.07a.2.2 0 0 0 .116-.031.2.2 0 0 0 .039-.03l.03-.034a.04.04 0 0 1 .012.018l.005.025a.1.1 0 0 1-.011.044.1.1 0 0 1-.038.043.2.2 0 0 1-.07.032.4.4 0 0 1-.107.013.4.4 0 0 1-.152-.027.28.28 0 0 1-.172-.191.5.5 0 0 1-.022-.15q0-.08.022-.148a.3.3 0 0 1 .065-.116.3.3 0 0 1 .108-.075.5.5 0 0 1 .25-.018.2.2 0 0 1 .071.025.1.1 0 0 1 .043.036q.014.022.014.046a.1.1 0 0 1-.008.035.1.1 0 0 1-.024.027.1.1 0 0 1-.039.018.2.2 0 0 1-.054.007.3.3 0 0 0-.005-.05.1.1 0 0 0-.019-.044.1.1 0 0 0-.034-.033.1.1 0 0 0-.052-.012.15.15 0 0 0-.08.02.15.15 0 0 0-.053.058.3.3 0 0 0-.028.095.8.8 0 0 0 .002.256.3.3 0 0 0 .035.09.14.14 0 0 0 .062.053.2.2 0 0 0 .094.018Z" style="fill-rule:nonzero;stroke:#030000;stroke-width:.03px" transform="rotate(-15.935 5644.127 -3000.167)scale(66.66665)"/><path d="M.28-.061h.2q.015 0 .026-.006l.018-.016.013-.024.007-.03.008-.047h.069L.614 0H.028v-.053H.07l.02-.002a.04.04 0 0 0 .016-.008.03.03 0 0 0 .011-.018.1.1 0 0 0 .004-.032v-.483A.1.1 0 0 0 .117-.63a.04.04 0 0 0-.011-.02.04.04 0 0 0-.016-.009L.07-.661H.028v-.053h.555l.004.184h-.07L.512-.577a.1.1 0 0 0-.018-.056q-.015-.02-.046-.02H.28v.25h.237v.06H.28z" style="fill-rule:nonzero;stroke:#030000;stroke-width:.03px" transform="rotate(-23.68 3927.501 -1914.968)scale(66.66658)"/><path d="M.028-.053H.07l.019-.002a.03.03 0 0 0 .017-.008l.011-.018a.1.1 0 0 0 .004-.032V-.6a.1.1 0 0 0-.004-.032L.106-.65a.04.04 0 0 0-.017-.009L.07-.661H.028v-.053H.35q.142 0 .208.047a.16.16 0 0 1 .066.138q0 .04-.012.071a.2.2 0 0 1-.074.092.3.3 0 0 1-.05.026l.119.205a.2.2 0 0 0 .049.062.1.1 0 0 0 .024.015l.027.005h.004V0H.678L.6-.003a.2.2 0 0 1-.059-.014.14.14 0 0 1-.077-.073L.345-.31H.279v.197q0 .02.004.032a.04.04 0 0 0 .011.018q.007.006.017.008l.019.002h.043V0H.028zm.251-.315h.056a.2.2 0 0 0 .058-.009.1.1 0 0 0 .037-.028.1.1 0 0 0 .02-.046.3.3 0 0 0-.001-.129.1.1 0 0 0-.021-.043.1.1 0 0 0-.038-.024.2.2 0 0 0-.057-.008H.279z" style="fill-rule:nonzero;stroke:#030000;stroke-width:.03px" transform="rotate(-31.896 3011.006 -1325.725)scale(66.66653)"/><path d="M.28-.061h.2q.015 0 .026-.006l.018-.016.013-.024.007-.03.008-.047h.069L.614 0H.028v-.053H.07l.02-.002a.04.04 0 0 0 .016-.008.03.03 0 0 0 .011-.018.1.1 0 0 0 .004-.032v-.483A.1.1 0 0 0 .117-.63a.04.04 0 0 0-.011-.02.04.04 0 0 0-.016-.009L.07-.661H.028v-.053h.555l.004.184h-.07L.512-.577a.1.1 0 0 0-.018-.056q-.015-.02-.046-.02H.28v.25h.237v.06H.28z" style="fill-rule:nonzero;stroke:#030000;stroke-width:.03px" transform="rotate(-35.544 2720.608 -1208.748)scale(66.66646)"/><path d="m1121.21 421.025-82.97 97.052 10.078 127.285L930.377 483.03z" style="fill:#d7b97e"/><path d="M930.381 596.444 812.44 645.362 930.381 483.03zM739.549 421.025l124.169-29.749 66.663 91.754zm190.832-138.648 66.663 108.899-66.663 91.754z" style="fill:#d7b97e"/><path d="m863.718 391.276 66.663-108.899V483.03z" style="fill:#e3d2b0"/><path d="m930.381 282.377 66.663 108.899 124.17 29.749-82.97 97.052 10.078 127.285-117.941-48.918-117.941 48.918 10.078-127.285-82.969-97.052 124.169-29.749zm0 0v315.078m-190.832-176.43 297.456 96.649M812.44 645.362l185.542-255.376m-135.201 0 185.541 255.376M930.381 483.03l190.833-62.005" style="fill:none;stroke:#000;stroke-width:8.33px;stroke-linecap:round;stroke-miterlimit:1.5"/></svg>