<?xml version="1.0" encoding="UTF-8" standalone="no"?><!DOCTYPE svg PUBLIC "-//W3C//DTD SVG 1.1//EN" "http://www.w3.org/Graphics/SVG/1.1/DTD/svg11.dtd"><svg width="100%" height="100%" viewBox="0 0 1875 1875" version="1.1" xmlns="http://www.w3.org/2000/svg" xmlns:xlink="http://www.w3.org/1999/xlink" xml:space="preserve" xmlns:serif="http://www.serif.com/" style="fill-rule:evenodd;clip-rule:evenodd;stroke-linejoin:round;stroke-miterlimit:2;"><circle cx="941.836" cy="929.244" r="897.418" style="fill:#f1ede5;"/><g id="Text"><g transform="matrix(2.08333,0,0,2.08333,81.9673,-15.468)"><g transform="matrix(-70.1667,-65.5182,65.5182,-70.1667,212.46,715.72)"><path d="M0.406,-0.118c-0,0.014 0.001,0.026 0.004,0.034c0.002,0.008 0.006,0.015 0.011,0.02c0.004,0.004 0.01,0.007 0.016,0.009c0.006,0.001 0.013,0.002 0.02,0.002l0.042,-0l0,0.053l-0.345,-0l-0,-0.053l0.042,-0c0.007,-0 0.014,-0.001 0.02,-0.002c0.006,-0.002 0.012,-0.005 0.016,-0.009c0.005,-0.005 0.009,-0.012 0.011,-0.02c0.003,-0.008 0.004,-0.02 0.004,-0.034l0,-0.535l-0.08,0c-0.015,0 -0.028,0.002 -0.038,0.005c-0.01,0.003 -0.018,0.008 -0.024,0.014c-0.007,0.006 -0.011,0.013 -0.014,0.022c-0.004,0.009 -0.006,0.019 -0.007,0.03l-0.007,0.062l-0.067,-0l0.005,-0.194l0.623,0l0.005,0.194l-0.067,-0l-0.007,-0.062c-0.001,-0.011 -0.004,-0.021 -0.007,-0.03c-0.003,-0.009 -0.008,-0.016 -0.014,-0.022c-0.006,-0.006 -0.014,-0.011 -0.025,-0.014c-0.01,-0.003 -0.022,-0.005 -0.037,-0.005l-0.08,0l-0,0.535Z" style="fill-rule:nonzero;stroke:#030000;stroke-width:0.01px;"/></g><g transform="matrix(-54.4683,-79.0519,79.0519,-54.4683,165.876,673.371)"><path d="M0.446,-0l-0,-0.053l0.043,-0c0.007,-0 0.014,-0.001 0.02,-0.002c0.006,-0.002 0.011,-0.005 0.016,-0.009c0.005,-0.005 0.009,-0.012 0.011,-0.02c0.003,-0.008 0.004,-0.02 0.004,-0.034l0,-0.224l-0.261,0l-0,0.224c-0,0.014 0.001,0.026 0.004,0.034c0.003,0.008 0.006,0.015 0.011,0.02c0.005,0.004 0.01,0.007 0.016,0.009c0.006,0.001 0.013,0.002 0.02,0.002l0.043,-0l0,0.053l-0.345,0l-0,-0.053l0.042,-0c0.007,-0 0.014,-0.001 0.02,-0.002c0.006,-0.002 0.011,-0.005 0.016,-0.009c0.005,-0.005 0.009,-0.012 0.011,-0.02c0.003,-0.008 0.004,-0.02 0.004,-0.034l0,-0.482c0,-0.013 -0.001,-0.024 -0.004,-0.032c-0.003,-0.008 -0.007,-0.014 -0.011,-0.018c-0.005,-0.004 -0.01,-0.007 -0.017,-0.008c-0.006,-0.002 -0.012,-0.003 -0.019,-0.003l-0.042,0l-0,-0.053l0.345,0l0,0.053l-0.043,0c-0.007,0 -0.014,0.001 -0.02,0.003c-0.006,0.001 -0.011,0.004 -0.016,0.009c-0.005,0.004 -0.008,0.011 -0.011,0.019c-0.003,0.009 -0.004,0.02 -0.004,0.034l-0,0.193l0.261,0l0,-0.193c0,-0.014 -0.001,-0.025 -0.004,-0.034c-0.002,-0.008 -0.006,-0.015 -0.011,-0.019c-0.005,-0.005 -0.01,-0.008 -0.016,-0.009c-0.006,-0.002 -0.013,-0.003 -0.02,-0.003l-0.043,0l-0,-0.053l0.345,0l0,0.053l-0.042,0c-0.007,0 -0.013,0.001 -0.02,0.003c-0.006,0.001 -0.011,0.004 -0.016,0.009c-0.005,0.004 -0.008,0.011 -0.011,0.019c-0.002,0.009 -0.004,0.02 -0.004,0.034l0,0.483c0,0.013 0.002,0.024 0.004,0.032c0.003,0.008 0.007,0.014 0.012,0.018c0.004,0.004 0.01,0.007 0.016,0.008c0.006,0.001 0.012,0.002 0.019,0.002l0.042,-0l0,0.053l-0.345,-0Z" style="fill-rule:nonzero;stroke:#030000;stroke-width:0.01px;"/></g><g transform="matrix(-36.0943,-88.9562,88.9562,-36.0943,121.896,607.951)"><path d="M0.28,-0.061l0.2,-0c0.01,-0 0.019,-0.002 0.026,-0.006c0.007,-0.003 0.013,-0.009 0.018,-0.016c0.006,-0.006 0.01,-0.014 0.013,-0.024c0.003,-0.009 0.005,-0.019 0.007,-0.03l0.008,-0.047l0.069,-0l-0.007,0.184l-0.586,-0l-0,-0.053l0.042,-0c0.007,-0 0.014,-0.001 0.02,-0.002c0.006,-0.001 0.011,-0.004 0.016,-0.008c0.005,-0.004 0.009,-0.01 0.011,-0.018c0.003,-0.008 0.004,-0.019 0.004,-0.032l0,-0.483c0,-0.015 -0.001,-0.026 -0.004,-0.034c-0.002,-0.009 -0.006,-0.015 -0.011,-0.02c-0.004,-0.004 -0.009,-0.007 -0.016,-0.009c-0.006,-0.001 -0.013,-0.002 -0.02,-0.002l-0.042,-0l-0,-0.053l0.555,0l0.004,0.184l-0.07,0l-0.005,-0.047c-0.002,-0.025 -0.009,-0.043 -0.018,-0.056c-0.01,-0.013 -0.025,-0.02 -0.046,-0.02l-0.168,0l-0,0.25l0.237,0l0,0.06l-0.237,0l-0,0.282Z" style="fill-rule:nonzero;stroke:#030000;stroke-width:0.01px;"/></g><g transform="matrix(-23.1448,-93.1682,93.1682,-23.1448,99.4769,549.406)"><path d="M0.065,-0.355c-0,-0.015 0.002,-0.028 0.006,-0.038c0.005,-0.011 0.01,-0.019 0.018,-0.025c0.007,-0.006 0.016,-0.011 0.026,-0.013c0.01,-0.003 0.021,-0.004 0.032,-0.004c0.011,-0 0.022,0.001 0.031,0.004c0.01,0.002 0.019,0.007 0.027,0.013c0.007,0.006 0.013,0.014 0.017,0.025c0.005,0.01 0.007,0.023 0.007,0.038c0,0.015 -0.002,0.028 -0.007,0.038c-0.004,0.01 -0.01,0.018 -0.017,0.025c-0.008,0.006 -0.017,0.01 -0.027,0.013c-0.009,0.003 -0.02,0.004 -0.031,0.004c-0.011,0 -0.022,-0.001 -0.032,-0.004c-0.01,-0.003 -0.019,-0.007 -0.026,-0.013c-0.008,-0.007 -0.013,-0.015 -0.018,-0.025c-0.004,-0.01 -0.006,-0.023 -0.006,-0.038Z" style="fill-rule:nonzero;stroke:#030000;stroke-width:0.01px;"/></g><g transform="matrix(-4.03131,-95.9153,95.9153,-4.03131,88.9805,522.409)"><path d="M0.604,-0.707l0.138,0.382c0.006,0.015 0.011,0.031 0.017,0.047c0.005,0.017 0.009,0.032 0.013,0.047c0.005,0.014 0.008,0.028 0.012,0.04c0.003,0.012 0.005,0.023 0.007,0.032c0.003,-0.012 0.014,-0.07 0.018,-0.086c0.003,-0.016 0.007,-0.033 0.011,-0.05c0.003,-0.017 0.007,-0.033 0.011,-0.049l0.053,-0.216c0.001,-0.004 0.002,-0.009 0.003,-0.014c0.001,-0.005 0.002,-0.01 0.003,-0.015c0.001,-0.005 0.002,-0.01 0.002,-0.014c0.001,-0.005 0.001,-0.008 0.001,-0.011c0,-0.017 -0.005,-0.029 -0.015,-0.036c-0.011,-0.008 -0.027,-0.011 -0.049,-0.011l-0.023,-0l0,-0.053l0.261,0l-0,0.053l-0.019,-0c-0.01,-0 -0.019,0.001 -0.026,0.003c-0.008,0.002 -0.014,0.006 -0.02,0.011c-0.006,0.006 -0.011,0.014 -0.016,0.024c-0.005,0.01 -0.009,0.023 -0.014,0.04l-0.155,0.583l-0.114,-0l-0.168,-0.469l-0.144,0.469l-0.124,-0l-0.183,-0.608c-0.003,-0.01 -0.007,-0.019 -0.011,-0.026c-0.004,-0.007 -0.009,-0.012 -0.015,-0.016c-0.005,-0.004 -0.012,-0.007 -0.019,-0.009c-0.008,-0.001 -0.016,-0.002 -0.026,-0.002l-0.013,-0l-0,-0.053l0.334,0l-0,0.053l-0.023,-0c-0.02,-0 -0.035,0.004 -0.045,0.012c-0.01,0.007 -0.015,0.02 -0.015,0.036c-0,0.006 0.001,0.014 0.003,0.024c0.002,0.011 0.005,0.021 0.007,0.03l0.067,0.231c0.004,0.013 0.008,0.026 0.012,0.041c0.004,0.015 0.007,0.03 0.011,0.045c0.004,0.015 0.007,0.03 0.01,0.044c0.003,0.014 0.005,0.026 0.006,0.037c0.005,-0.022 0.01,-0.042 0.015,-0.06c0.005,-0.019 0.011,-0.038 0.017,-0.058l0.132,-0.428l0.073,-0Z" style="fill-rule:nonzero;stroke:#030000;stroke-width:0.01px;"/></g><g transform="matrix(16.6025,-94.5535,94.5535,16.6025,88.1017,420.032)"><path d="M0.028,-0l-0,-0.053l0.042,-0c0.007,-0 0.014,-0.001 0.02,-0.002c0.007,-0.002 0.012,-0.005 0.016,-0.009c0.005,-0.005 0.009,-0.012 0.011,-0.02c0.003,-0.008 0.004,-0.02 0.004,-0.034l0,-0.478c0,-0.014 -0.001,-0.025 -0.004,-0.034c-0.002,-0.008 -0.006,-0.015 -0.011,-0.019c-0.004,-0.005 -0.009,-0.008 -0.016,-0.009c-0.006,-0.002 -0.013,-0.003 -0.02,-0.003l-0.042,0l-0,-0.053l0.345,0l0,0.053l-0.042,0c-0.007,0 -0.014,0.001 -0.02,0.003c-0.007,0.001 -0.012,0.004 -0.017,0.009c-0.004,0.004 -0.008,0.011 -0.01,0.019c-0.003,0.009 -0.004,0.02 -0.004,0.034l-0,0.478c-0,0.014 0.001,0.026 0.004,0.034c0.002,0.008 0.006,0.015 0.01,0.02c0.005,0.004 0.01,0.007 0.017,0.009c0.006,0.001 0.013,0.002 0.02,0.002l0.042,-0l0,0.053l-0.345,0Z" style="fill-rule:nonzero;stroke:#030000;stroke-width:0.01px;"/></g><g transform="matrix(31.1818,-90.7948,90.7948,31.1818,93.9052,381.685)"><path d="M0.028,-0l-0,-0.053l0.042,-0c0.007,-0 0.014,-0.001 0.02,-0.002c0.007,-0.002 0.012,-0.005 0.016,-0.009c0.005,-0.005 0.009,-0.012 0.011,-0.02c0.003,-0.008 0.004,-0.02 0.004,-0.034l0,-0.478c0,-0.015 -0.001,-0.026 -0.004,-0.034c-0.002,-0.009 -0.006,-0.015 -0.011,-0.02c-0.004,-0.004 -0.009,-0.007 -0.016,-0.009c-0.006,-0.001 -0.013,-0.002 -0.02,-0.002l-0.042,-0l-0,-0.053l0.345,0l0,0.053l-0.042,-0c-0.007,-0 -0.013,0.001 -0.02,0.002c-0.006,0.002 -0.012,0.004 -0.016,0.009c-0.005,0.004 -0.008,0.01 -0.011,0.018c-0.003,0.008 -0.004,0.019 -0.004,0.032l-0,0.539l0.186,-0c0.023,-0 0.041,-0.007 0.055,-0.022c0.013,-0.015 0.022,-0.037 0.028,-0.065l0.016,-0.075l0.056,-0l-0.007,0.223l-0.586,0Z" style="fill-rule:nonzero;stroke:#030000;stroke-width:0.01px;"/></g><g transform="matrix(49.2466,-82.4062,82.4062,49.2466,114.015,321.985)"><path d="M0.712,-0.37c-0,0.055 -0.008,0.105 -0.023,0.15c-0.015,0.045 -0.037,0.084 -0.067,0.117c-0.029,0.033 -0.066,0.058 -0.111,0.076c-0.044,0.018 -0.095,0.027 -0.153,0.027l-0.33,-0l-0,-0.053l0.042,-0c0.007,-0 0.014,-0.001 0.02,-0.002c0.007,-0.002 0.012,-0.005 0.016,-0.009c0.005,-0.005 0.009,-0.012 0.011,-0.02c0.003,-0.008 0.004,-0.02 0.004,-0.034l0,-0.482c0,-0.013 -0.001,-0.024 -0.004,-0.032c-0.002,-0.008 -0.006,-0.014 -0.011,-0.018c-0.005,-0.005 -0.01,-0.007 -0.016,-0.009c-0.006,-0.001 -0.013,-0.002 -0.02,-0.002l-0.042,-0l-0,-0.053l0.33,0c0.055,0 0.105,0.007 0.149,0.022c0.043,0.014 0.08,0.036 0.111,0.065c0.03,0.029 0.054,0.065 0.07,0.107c0.016,0.043 0.024,0.093 0.024,0.15Zm-0.169,-0c-0,-0.095 -0.018,-0.166 -0.053,-0.213c-0.035,-0.047 -0.086,-0.07 -0.154,-0.07l-0.057,0l-0,0.591l0.056,-0c0.034,-0 0.064,-0.007 0.09,-0.021c0.026,-0.014 0.048,-0.035 0.065,-0.062c0.018,-0.026 0.031,-0.059 0.04,-0.096c0.009,-0.038 0.013,-0.081 0.013,-0.129Z" style="fill-rule:nonzero;stroke:#030000;stroke-width:0.01px;"/></g><g transform="matrix(61.7987,-73.4637,73.4637,61.7987,153.455,259.768)"><path d="M0.065,-0.355c-0,-0.015 0.002,-0.028 0.006,-0.038c0.005,-0.011 0.01,-0.019 0.018,-0.025c0.007,-0.006 0.016,-0.011 0.026,-0.013c0.01,-0.003 0.021,-0.004 0.032,-0.004c0.011,-0 0.022,0.001 0.031,0.004c0.01,0.002 0.019,0.007 0.027,0.013c0.007,0.006 0.013,0.014 0.017,0.025c0.005,0.01 0.007,0.023 0.007,0.038c0,0.015 -0.002,0.028 -0.007,0.038c-0.004,0.01 -0.01,0.018 -0.017,0.025c-0.008,0.006 -0.017,0.01 -0.027,0.013c-0.009,0.003 -0.02,0.004 -0.031,0.004c-0.011,0 -0.022,-0.001 -0.032,-0.004c-0.01,-0.003 -0.019,-0.007 -0.026,-0.013c-0.008,-0.007 -0.013,-0.015 -0.018,-0.025c-0.004,-0.01 -0.006,-0.023 -0.006,-0.038Z" style="fill-rule:nonzero;stroke:#030000;stroke-width:0.01px;"/></g><g transform="matrix(71.6605,-63.8809,63.8809,71.6605,170.649,237.255)"><path d="M0.425,-0.07c0.024,0 0.046,-0.003 0.065,-0.008c0.019,-0.006 0.036,-0.013 0.051,-0.023c0.015,-0.009 0.028,-0.019 0.039,-0.03c0.012,-0.012 0.021,-0.023 0.03,-0.034c0.005,0.004 0.009,0.01 0.012,0.018c0.003,0.008 0.005,0.016 0.005,0.025c-0,0.014 -0.004,0.029 -0.011,0.044c-0.008,0.016 -0.02,0.03 -0.038,0.043c-0.017,0.013 -0.041,0.024 -0.07,0.032c-0.029,0.009 -0.064,0.013 -0.107,0.013c-0.058,-0 -0.109,-0.009 -0.152,-0.027c-0.043,-0.017 -0.079,-0.042 -0.108,-0.074c-0.029,-0.033 -0.05,-0.071 -0.064,-0.117c-0.015,-0.045 -0.022,-0.095 -0.022,-0.15c0,-0.054 0.007,-0.103 0.022,-0.148c0.015,-0.045 0.037,-0.084 0.065,-0.116c0.029,-0.032 0.065,-0.057 0.108,-0.075c0.043,-0.018 0.093,-0.027 0.15,-0.027c0.038,-0 0.072,0.003 0.1,0.009c0.029,0.006 0.052,0.014 0.071,0.025c0.019,0.01 0.033,0.022 0.043,0.036c0.009,0.015 0.014,0.03 0.014,0.046c-0,0.012 -0.003,0.024 -0.008,0.035c-0.005,0.01 -0.013,0.019 -0.024,0.027c-0.011,0.008 -0.024,0.014 -0.039,0.018c-0.016,0.005 -0.034,0.007 -0.054,0.007c-0,-0.017 -0.002,-0.033 -0.005,-0.05c-0.004,-0.016 -0.01,-0.031 -0.019,-0.044c-0.008,-0.014 -0.02,-0.024 -0.034,-0.033c-0.014,-0.008 -0.031,-0.012 -0.052,-0.012c-0.032,-0 -0.058,0.007 -0.08,0.02c-0.022,0.013 -0.039,0.033 -0.053,0.058c-0.013,0.026 -0.022,0.058 -0.028,0.095c-0.006,0.038 -0.009,0.081 -0.009,0.129c0,0.048 0.004,0.09 0.011,0.127c0.007,0.036 0.019,0.066 0.035,0.09c0.016,0.024 0.036,0.041 0.062,0.053c0.025,0.012 0.057,0.018 0.094,0.018Z" style="fill-rule:nonzero;stroke:#030000;stroke-width:0.01px;"/></g><g transform="matrix(83.7497,-46.9253,46.9253,83.7497,218.282,193.676)"><path d="M0.446,-0l-0,-0.053l0.043,-0c0.007,-0 0.014,-0.001 0.02,-0.002c0.006,-0.002 0.011,-0.005 0.016,-0.009c0.005,-0.005 0.009,-0.012 0.011,-0.02c0.003,-0.008 0.004,-0.02 0.004,-0.034l0,-0.224l-0.261,0l-0,0.224c-0,0.014 0.001,0.026 0.004,0.034c0.003,0.008 0.006,0.015 0.011,0.02c0.005,0.004 0.01,0.007 0.016,0.009c0.006,0.001 0.013,0.002 0.02,0.002l0.043,-0l0,0.053l-0.345,0l-0,-0.053l0.042,-0c0.007,-0 0.014,-0.001 0.02,-0.002c0.006,-0.002 0.011,-0.005 0.016,-0.009c0.005,-0.005 0.009,-0.012 0.011,-0.02c0.003,-0.008 0.004,-0.02 0.004,-0.034l0,-0.482c0,-0.013 -0.001,-0.024 -0.004,-0.032c-0.003,-0.008 -0.007,-0.014 -0.011,-0.018c-0.005,-0.004 -0.01,-0.007 -0.017,-0.008c-0.006,-0.002 -0.012,-0.003 -0.019,-0.003l-0.042,0l-0,-0.053l0.345,0l0,0.053l-0.043,0c-0.007,0 -0.014,0.001 -0.02,0.003c-0.006,0.001 -0.011,0.004 -0.016,0.009c-0.005,0.004 -0.008,0.011 -0.011,0.019c-0.003,0.009 -0.004,0.02 -0.004,0.034l-0,0.193l0.261,0l0,-0.193c0,-0.014 -0.001,-0.025 -0.004,-0.034c-0.002,-0.008 -0.006,-0.015 -0.011,-0.019c-0.005,-0.005 -0.01,-0.008 -0.016,-0.009c-0.006,-0.002 -0.013,-0.003 -0.02,-0.003l-0.043,0l-0,-0.053l0.345,0l0,0.053l-0.042,0c-0.007,0 -0.013,0.001 -0.02,0.003c-0.006,0.001 -0.011,0.004 -0.016,0.009c-0.005,0.004 -0.008,0.011 -0.011,0.019c-0.002,0.009 -0.004,0.02 -0.004,0.034l0,0.483c0,0.013 0.002,0.024 0.004,0.032c0.003,0.008 0.007,0.014 0.012,0.018c0.004,0.004 0.01,0.007 0.016,0.008c0.006,0.001 0.012,0.002 0.019,0.002l0.042,-0l0,0.053l-0.345,-0Z" style="fill-rule:nonzero;stroke:#030000;stroke-width:0.01px;"/></g><g transform="matrix(90.8548,-31.0064,31.0064,90.8548,287.832,156.805)"><path d="M0.028,-0l-0,-0.053l0.042,-0c0.007,-0 0.014,-0.001 0.02,-0.002c0.007,-0.002 0.012,-0.005 0.016,-0.009c0.005,-0.005 0.009,-0.012 0.011,-0.02c0.003,-0.008 0.004,-0.02 0.004,-0.034l0,-0.478c0,-0.014 -0.001,-0.025 -0.004,-0.034c-0.002,-0.008 -0.006,-0.015 -0.011,-0.019c-0.004,-0.005 -0.009,-0.008 -0.016,-0.009c-0.006,-0.002 -0.013,-0.003 -0.02,-0.003l-0.042,0l-0,-0.053l0.345,0l0,0.053l-0.042,0c-0.007,0 -0.014,0.001 -0.02,0.003c-0.007,0.001 -0.012,0.004 -0.017,0.009c-0.004,0.004 -0.008,0.011 -0.01,0.019c-0.003,0.009 -0.004,0.02 -0.004,0.034l-0,0.478c-0,0.014 0.001,0.026 0.004,0.034c0.002,0.008 0.006,0.015 0.01,0.02c0.005,0.004 0.01,0.007 0.017,0.009c0.006,0.001 0.013,0.002 0.02,0.002l0.042,-0l0,0.053l-0.345,0Z" style="fill-rule:nonzero;stroke:#030000;stroke-width:0.01px;"/></g><g transform="matrix(94.6559,-16.0079,16.0079,94.6559,323.979,143.322)"><path d="M0.425,-0.07c0.024,0 0.046,-0.003 0.065,-0.008c0.019,-0.006 0.036,-0.013 0.051,-0.023c0.015,-0.009 0.028,-0.019 0.039,-0.03c0.012,-0.012 0.021,-0.023 0.03,-0.034c0.005,0.004 0.009,0.01 0.012,0.018c0.003,0.008 0.005,0.016 0.005,0.025c-0,0.014 -0.004,0.029 -0.011,0.044c-0.008,0.016 -0.02,0.03 -0.038,0.043c-0.017,0.013 -0.041,0.024 -0.07,0.032c-0.029,0.009 -0.064,0.013 -0.107,0.013c-0.058,-0 -0.109,-0.009 -0.152,-0.027c-0.043,-0.017 -0.079,-0.042 -0.108,-0.074c-0.029,-0.033 -0.05,-0.071 -0.064,-0.117c-0.015,-0.045 -0.022,-0.095 -0.022,-0.15c0,-0.054 0.007,-0.103 0.022,-0.148c0.015,-0.045 0.037,-0.084 0.065,-0.116c0.029,-0.032 0.065,-0.057 0.108,-0.075c0.043,-0.018 0.093,-0.027 0.15,-0.027c0.038,-0 0.072,0.003 0.1,0.009c0.029,0.006 0.052,0.014 0.071,0.025c0.019,0.01 0.033,0.022 0.043,0.036c0.009,0.015 0.014,0.03 0.014,0.046c-0,0.012 -0.003,0.024 -0.008,0.035c-0.005,0.01 -0.013,0.019 -0.024,0.027c-0.011,0.008 -0.024,0.014 -0.039,0.018c-0.016,0.005 -0.034,0.007 -0.054,0.007c-0,-0.017 -0.002,-0.033 -0.005,-0.05c-0.004,-0.016 -0.01,-0.031 -0.019,-0.044c-0.008,-0.014 -0.02,-0.024 -0.034,-0.033c-0.014,-0.008 -0.031,-0.012 -0.052,-0.012c-0.032,-0 -0.058,0.007 -0.08,0.02c-0.022,0.013 -0.039,0.033 -0.053,0.058c-0.013,0.026 -0.022,0.058 -0.028,0.095c-0.006,0.038 -0.009,0.081 -0.009,0.129c0,0.048 0.004,0.09 0.011,0.127c0.007,0.036 0.019,0.066 0.035,0.09c0.016,0.024 0.036,0.041 0.062,0.053c0.025,0.012 0.057,0.018 0.094,0.018Z" style="fill-rule:nonzero;stroke:#030000;stroke-width:0.01px;"/></g><g transform="matrix(95.9216,3.87934,-3.87934,95.9216,387.423,132.1)"><path d="M0.434,-0.532c0.011,-0.012 0.02,-0.022 0.027,-0.031c0.008,-0.01 0.013,-0.018 0.018,-0.026c0.004,-0.008 0.007,-0.016 0.009,-0.023c0.002,-0.007 0.003,-0.014 0.003,-0.021c0,-0.011 -0.004,-0.019 -0.012,-0.023c-0.009,-0.004 -0.023,-0.006 -0.044,-0.006l0,-0.052l0.271,0l0,0.052c-0.014,-0 -0.027,0.002 -0.039,0.006c-0.012,0.004 -0.024,0.01 -0.036,0.018c-0.011,0.008 -0.023,0.017 -0.034,0.028c-0.012,0.011 -0.023,0.023 -0.035,0.036l-0.132,0.145l0.186,0.295c0.01,0.016 0.019,0.029 0.028,0.039c0.009,0.01 0.018,0.019 0.027,0.025c0.01,0.006 0.019,0.01 0.028,0.013c0.01,0.002 0.02,0.004 0.031,0.004l0.004,-0l-0,0.053l-0.054,0c-0.025,0 -0.048,-0.001 -0.067,-0.002c-0.019,-0.002 -0.036,-0.005 -0.05,-0.008c-0.015,-0.003 -0.027,-0.007 -0.038,-0.012c-0.01,-0.005 -0.019,-0.011 -0.027,-0.018c-0.008,-0.007 -0.015,-0.015 -0.021,-0.023c-0.007,-0.009 -0.013,-0.018 -0.019,-0.029l-0.135,-0.23l-0.044,0.035l-0,0.169c-0,0.014 0.001,0.026 0.004,0.034c0.003,0.008 0.006,0.015 0.011,0.02c0.005,0.004 0.01,0.007 0.017,0.009c0.006,0.001 0.013,0.002 0.02,0.002l0.042,-0l0,0.053l-0.345,0l-0,-0.053l0.042,-0c0.007,-0 0.014,-0.001 0.02,-0.002c0.006,-0.001 0.011,-0.004 0.016,-0.008c0.005,-0.004 0.009,-0.01 0.011,-0.018c0.003,-0.008 0.004,-0.019 0.004,-0.032l0,-0.487c0,-0.013 -0.001,-0.024 -0.004,-0.032c-0.002,-0.008 -0.006,-0.014 -0.011,-0.018c-0.005,-0.005 -0.01,-0.007 -0.016,-0.009c-0.006,-0.001 -0.013,-0.002 -0.02,-0.002l-0.042,-0l-0,-0.053l0.345,0l0,0.053l-0.042,-0c-0.007,-0 -0.014,0.001 -0.02,0.002c-0.007,0.002 -0.012,0.005 -0.017,0.009c-0.005,0.005 -0.008,0.011 -0.011,0.02c-0.003,0.008 -0.004,0.019 -0.004,0.034l-0,0.233l0.155,-0.169Z" style="fill-rule:nonzero;stroke:#030000;stroke-width:0.01px;"/></g><g transform="matrix(93.2221,22.9267,-22.9267,93.2221,457.966,135.225)"><path d="M0.28,-0.061l0.2,-0c0.01,-0 0.019,-0.002 0.026,-0.006c0.007,-0.003 0.013,-0.009 0.018,-0.016c0.006,-0.006 0.01,-0.014 0.013,-0.024c0.003,-0.009 0.005,-0.019 0.007,-0.03l0.008,-0.047l0.069,-0l-0.007,0.184l-0.586,-0l-0,-0.053l0.042,-0c0.007,-0 0.014,-0.001 0.02,-0.002c0.006,-0.001 0.011,-0.004 0.016,-0.008c0.005,-0.004 0.009,-0.01 0.011,-0.018c0.003,-0.008 0.004,-0.019 0.004,-0.032l0,-0.483c0,-0.015 -0.001,-0.026 -0.004,-0.034c-0.002,-0.009 -0.006,-0.015 -0.011,-0.02c-0.004,-0.004 -0.009,-0.007 -0.016,-0.009c-0.006,-0.001 -0.013,-0.002 -0.02,-0.002l-0.042,-0l-0,-0.053l0.555,0l0.004,0.184l-0.07,0l-0.005,-0.047c-0.002,-0.025 -0.009,-0.043 -0.018,-0.056c-0.01,-0.013 -0.025,-0.02 -0.046,-0.02l-0.168,0l-0,0.25l0.237,0l0,0.06l-0.237,0l-0,0.282Z" style="fill-rule:nonzero;stroke:#030000;stroke-width:0.01px;"/></g><g transform="matrix(86.0893,42.4811,-42.4811,86.0893,519.386,149.616)"><path d="M0.586,-0l-0.39,-0.551l-0,0.433c-0,0.014 0.001,0.026 0.004,0.034c0.003,0.008 0.006,0.015 0.011,0.02c0.004,0.004 0.01,0.007 0.016,0.009c0.007,0.001 0.013,0.002 0.02,0.002l0.042,-0l0,0.053l-0.261,0l-0,-0.053l0.042,-0c0.007,-0 0.014,-0.001 0.02,-0.002c0.006,-0.002 0.011,-0.005 0.016,-0.009c0.005,-0.005 0.009,-0.012 0.011,-0.02c0.003,-0.008 0.004,-0.02 0.004,-0.034l0,-0.482c0,-0.013 -0.001,-0.024 -0.004,-0.032c-0.003,-0.008 -0.007,-0.014 -0.011,-0.018c-0.005,-0.005 -0.01,-0.007 -0.017,-0.009c-0.006,-0.001 -0.012,-0.002 -0.019,-0.002l-0.042,-0l-0,-0.053l0.222,0l0.353,0.499l0,-0.385c0,-0.013 -0.001,-0.024 -0.004,-0.032c-0.003,-0.008 -0.007,-0.014 -0.011,-0.018c-0.005,-0.005 -0.011,-0.007 -0.017,-0.009c-0.006,-0.001 -0.012,-0.002 -0.019,-0.002l-0.042,-0l-0,-0.053l0.261,0l-0,0.053l-0.042,-0c-0.007,-0 -0.013,0.001 -0.02,0.002c-0.006,0.002 -0.011,0.005 -0.016,0.009c-0.005,0.005 -0.008,0.011 -0.011,0.02c-0.002,0.008 -0.004,0.019 -0.004,0.034l0,0.596l-0.092,0Z" style="fill-rule:nonzero;stroke:#030000;stroke-width:0.01px;"/></g><g transform="matrix(78.2892,55.559,-55.559,78.2892,586.426,184.763)"><path d="M0.065,-0.355c-0,-0.015 0.002,-0.028 0.006,-0.038c0.005,-0.011 0.01,-0.019 0.018,-0.025c0.007,-0.006 0.016,-0.011 0.026,-0.013c0.01,-0.003 0.021,-0.004 0.032,-0.004c0.011,-0 0.022,0.001 0.031,0.004c0.01,0.002 0.019,0.007 0.027,0.013c0.007,0.006 0.013,0.014 0.017,0.025c0.005,0.01 0.007,0.023 0.007,0.038c0,0.015 -0.002,0.028 -0.007,0.038c-0.004,0.01 -0.01,0.018 -0.017,0.025c-0.008,0.006 -0.017,0.01 -0.027,0.013c-0.009,0.003 -0.02,0.004 -0.031,0.004c-0.011,0 -0.022,-0.001 -0.032,-0.004c-0.01,-0.003 -0.019,-0.007 -0.026,-0.013c-0.008,-0.007 -0.013,-0.015 -0.018,-0.025c-0.004,-0.01 -0.006,-0.023 -0.006,-0.038Z" style="fill-rule:nonzero;stroke:#030000;stroke-width:0.01px;"/></g><g transform="matrix(68.8853,66.8641,-66.8641,68.8853,610.601,199.897)"><path d="M0.731,-0.661l-0.043,-0c-0.007,-0 -0.013,0.001 -0.02,0.002c-0.006,0.002 -0.011,0.005 -0.016,0.009c-0.005,0.005 -0.008,0.011 -0.011,0.02c-0.002,0.008 -0.004,0.019 -0.004,0.034l0,0.39c0,0.033 -0.005,0.064 -0.014,0.09c-0.01,0.027 -0.025,0.05 -0.045,0.068c-0.02,0.019 -0.046,0.033 -0.078,0.043c-0.032,0.01 -0.069,0.015 -0.113,0.015c-0.043,-0 -0.082,-0.004 -0.117,-0.013c-0.034,-0.008 -0.063,-0.021 -0.087,-0.039c-0.024,-0.019 -0.042,-0.042 -0.054,-0.071c-0.013,-0.029 -0.019,-0.064 -0.019,-0.105l-0,-0.382c-0,-0.013 -0.002,-0.024 -0.004,-0.032c-0.003,-0.008 -0.007,-0.014 -0.012,-0.018c-0.004,-0.005 -0.01,-0.007 -0.016,-0.009c-0.006,-0.001 -0.012,-0.002 -0.019,-0.002l-0.043,-0l0,-0.053l0.345,0l-0,0.053l-0.042,-0c-0.007,-0 -0.013,0.001 -0.02,0.002c-0.006,0.002 -0.011,0.005 -0.016,0.009c-0.005,0.005 -0.008,0.011 -0.011,0.02c-0.003,0.008 -0.004,0.019 -0.004,0.034l0,0.386c0,0.028 0.004,0.052 0.011,0.071c0.007,0.019 0.017,0.034 0.03,0.045c0.013,0.012 0.028,0.02 0.046,0.025c0.019,0.005 0.039,0.008 0.062,0.008c0.022,-0 0.042,-0.003 0.06,-0.009c0.018,-0.005 0.033,-0.014 0.046,-0.026c0.012,-0.012 0.022,-0.028 0.029,-0.046c0.007,-0.019 0.01,-0.041 0.01,-0.066l0,-0.392c0,-0.013 -0.001,-0.024 -0.004,-0.032c-0.002,-0.008 -0.006,-0.014 -0.011,-0.018c-0.005,-0.005 -0.01,-0.007 -0.016,-0.009c-0.006,-0.001 -0.013,-0.002 -0.02,-0.002l-0.042,-0l0,-0.053l0.262,0l-0,0.053Z" style="fill-rule:nonzero;stroke:#030000;stroke-width:0.01px;"/></g><g transform="matrix(52.0096,80.6908,-80.6908,52.0096,662.51,249.938)"><path d="M0.586,-0l-0.39,-0.551l-0,0.433c-0,0.014 0.001,0.026 0.004,0.034c0.003,0.008 0.006,0.015 0.011,0.02c0.004,0.004 0.01,0.007 0.016,0.009c0.007,0.001 0.013,0.002 0.02,0.002l0.042,-0l0,0.053l-0.261,0l-0,-0.053l0.042,-0c0.007,-0 0.014,-0.001 0.02,-0.002c0.006,-0.002 0.011,-0.005 0.016,-0.009c0.005,-0.005 0.009,-0.012 0.011,-0.02c0.003,-0.008 0.004,-0.02 0.004,-0.034l0,-0.482c0,-0.013 -0.001,-0.024 -0.004,-0.032c-0.003,-0.008 -0.007,-0.014 -0.011,-0.018c-0.005,-0.005 -0.01,-0.007 -0.017,-0.009c-0.006,-0.001 -0.012,-0.002 -0.019,-0.002l-0.042,-0l-0,-0.053l0.222,0l0.353,0.499l0,-0.385c0,-0.013 -0.001,-0.024 -0.004,-0.032c-0.003,-0.008 -0.007,-0.014 -0.011,-0.018c-0.005,-0.005 -0.011,-0.007 -0.017,-0.009c-0.006,-0.001 -0.012,-0.002 -0.019,-0.002l-0.042,-0l-0,-0.053l0.261,0l-0,0.053l-0.042,-0c-0.007,-0 -0.013,0.001 -0.02,0.002c-0.006,0.002 -0.011,0.005 -0.016,0.009c-0.005,0.005 -0.008,0.011 -0.011,0.02c-0.002,0.008 -0.004,0.019 -0.004,0.034l0,0.596l-0.092,0Z" style="fill-rule:nonzero;stroke:#030000;stroke-width:0.01px;"/></g><g transform="matrix(37.2165,88.4926,-88.4926,37.2165,702.112,314.259)"><path d="M0.028,-0l-0,-0.053l0.042,-0c0.007,-0 0.014,-0.001 0.02,-0.002c0.007,-0.002 0.012,-0.005 0.016,-0.009c0.005,-0.005 0.009,-0.012 0.011,-0.02c0.003,-0.008 0.004,-0.02 0.004,-0.034l0,-0.478c0,-0.014 -0.001,-0.025 -0.004,-0.034c-0.002,-0.008 -0.006,-0.015 -0.011,-0.019c-0.004,-0.005 -0.009,-0.008 -0.016,-0.009c-0.006,-0.002 -0.013,-0.003 -0.02,-0.003l-0.042,0l-0,-0.053l0.345,0l0,0.053l-0.042,0c-0.007,0 -0.014,0.001 -0.02,0.003c-0.007,0.001 -0.012,0.004 -0.017,0.009c-0.004,0.004 -0.008,0.011 -0.01,0.019c-0.003,0.009 -0.004,0.02 -0.004,0.034l-0,0.478c-0,0.014 0.001,0.026 0.004,0.034c0.002,0.008 0.006,0.015 0.01,0.02c0.005,0.004 0.01,0.007 0.017,0.009c0.006,0.001 0.013,0.002 0.02,0.002l0.042,-0l0,0.053l-0.345,0Z" style="fill-rule:nonzero;stroke:#030000;stroke-width:0.01px;"/></g><g transform="matrix(22.2713,93.3809,-93.3809,22.2713,718.173,349.462)"><path d="M0.698,-0.661l-0.048,-0c-0.005,-0 -0.009,0.001 -0.012,0.003c-0.004,0.002 -0.007,0.005 -0.011,0.011c-0.004,0.005 -0.007,0.013 -0.011,0.022c-0.004,0.009 -0.009,0.022 -0.014,0.037l-0.204,0.588l-0.1,-0l-0.213,-0.613c-0.003,-0.009 -0.007,-0.017 -0.012,-0.023c-0.006,-0.007 -0.011,-0.012 -0.017,-0.015c-0.005,-0.004 -0.011,-0.006 -0.017,-0.008c-0.006,-0.001 -0.011,-0.002 -0.016,-0.002l-0.023,-0l0,-0.053l0.33,0l0,0.053l-0.046,-0c-0.005,-0 -0.009,0 -0.014,0.002c-0.005,0.001 -0.009,0.003 -0.012,0.005c-0.004,0.003 -0.007,0.006 -0.009,0.01c-0.003,0.005 -0.004,0.01 -0.004,0.016c0,0.007 0.001,0.014 0.003,0.022c0.002,0.009 0.004,0.016 0.006,0.021l0.102,0.308c0.003,0.008 0.005,0.016 0.008,0.027c0.003,0.01 0.005,0.02 0.008,0.031c0.003,0.011 0.005,0.022 0.007,0.033c0.002,0.011 0.004,0.021 0.005,0.03c0.001,-0.005 0.002,-0.013 0.005,-0.022c0.002,-0.01 0.005,-0.02 0.008,-0.032c0.004,-0.011 0.007,-0.022 0.01,-0.033c0.004,-0.012 0.007,-0.022 0.01,-0.031l0.103,-0.304c0.001,-0.004 0.003,-0.008 0.004,-0.012c0.002,-0.004 0.003,-0.009 0.004,-0.014c0.001,-0.004 0.002,-0.008 0.003,-0.013c0.001,-0.004 0.001,-0.007 0.001,-0.01c0,-0.011 -0.003,-0.019 -0.011,-0.025c-0.007,-0.006 -0.017,-0.009 -0.029,-0.009l-0.052,-0l-0,-0.053l0.258,0l0,0.053Z" style="fill-rule:nonzero;stroke:#030000;stroke-width:0.01px;"/></g><g transform="matrix(3.27132,95.9442,-95.9442,3.27132,733.519,415.072)"><path d="M0.28,-0.061l0.2,-0c0.01,-0 0.019,-0.002 0.026,-0.006c0.007,-0.003 0.013,-0.009 0.018,-0.016c0.006,-0.006 0.01,-0.014 0.013,-0.024c0.003,-0.009 0.005,-0.019 0.007,-0.03l0.008,-0.047l0.069,-0l-0.007,0.184l-0.586,-0l-0,-0.053l0.042,-0c0.007,-0 0.014,-0.001 0.02,-0.002c0.006,-0.001 0.011,-0.004 0.016,-0.008c0.005,-0.004 0.009,-0.01 0.011,-0.018c0.003,-0.008 0.004,-0.019 0.004,-0.032l0,-0.483c0,-0.015 -0.001,-0.026 -0.004,-0.034c-0.002,-0.009 -0.006,-0.015 -0.011,-0.02c-0.004,-0.004 -0.009,-0.007 -0.016,-0.009c-0.006,-0.001 -0.013,-0.002 -0.02,-0.002l-0.042,-0l-0,-0.053l0.555,0l0.004,0.184l-0.07,0l-0.005,-0.047c-0.002,-0.025 -0.009,-0.043 -0.018,-0.056c-0.01,-0.013 -0.025,-0.02 -0.046,-0.02l-0.168,0l-0,0.25l0.237,0l0,0.06l-0.237,0l-0,0.282Z" style="fill-rule:nonzero;stroke:#030000;stroke-width:0.01px;"/></g><g transform="matrix(-16.3053,94.6052,-94.6052,-16.3053,736.079,477.825)"><path d="M0.028,-0.053l0.042,-0c0.007,-0 0.013,-0.001 0.019,-0.002c0.007,-0.001 0.012,-0.004 0.017,-0.008c0.004,-0.004 0.008,-0.01 0.011,-0.018c0.003,-0.008 0.004,-0.019 0.004,-0.032l0,-0.487c0,-0.013 -0.001,-0.024 -0.004,-0.032c-0.003,-0.008 -0.007,-0.014 -0.011,-0.018c-0.005,-0.005 -0.01,-0.007 -0.017,-0.009c-0.006,-0.001 -0.012,-0.002 -0.019,-0.002l-0.042,-0l-0,-0.053l0.322,0c0.094,0 0.164,0.016 0.208,0.047c0.044,0.032 0.066,0.078 0.066,0.138c0,0.027 -0.004,0.05 -0.012,0.071c-0.008,0.02 -0.018,0.038 -0.031,0.053c-0.013,0.016 -0.027,0.028 -0.043,0.039c-0.017,0.011 -0.033,0.019 -0.05,0.026l0.119,0.205c0.008,0.015 0.017,0.027 0.025,0.037c0.008,0.01 0.016,0.019 0.024,0.025c0.007,0.007 0.016,0.012 0.024,0.015c0.009,0.003 0.018,0.005 0.027,0.005l0.004,-0l-0,0.053l-0.033,0c-0.03,0 -0.056,-0.001 -0.078,-0.003c-0.022,-0.003 -0.042,-0.007 -0.059,-0.014c-0.017,-0.007 -0.031,-0.016 -0.043,-0.027c-0.012,-0.012 -0.024,-0.027 -0.034,-0.046l-0.119,-0.22l-0.066,-0l-0,0.197c-0,0.013 0.001,0.024 0.004,0.032c0.003,0.008 0.006,0.014 0.011,0.018c0.005,0.004 0.01,0.007 0.017,0.008c0.006,0.001 0.012,0.002 0.019,0.002l0.043,-0l0,0.053l-0.345,-0l-0,-0.053Zm0.251,-0.315l0.056,-0c0.023,-0 0.042,-0.003 0.058,-0.009c0.015,-0.007 0.028,-0.016 0.037,-0.028c0.009,-0.012 0.016,-0.028 0.02,-0.046c0.004,-0.018 0.006,-0.04 0.006,-0.064c0,-0.026 -0.002,-0.047 -0.007,-0.065c-0.004,-0.017 -0.012,-0.032 -0.021,-0.043c-0.01,-0.011 -0.023,-0.019 -0.038,-0.024c-0.016,-0.005 -0.035,-0.008 -0.057,-0.008l-0.054,0l-0,0.287Z" style="fill-rule:nonzero;stroke:#030000;stroke-width:0.01px;"/></g><g transform="matrix(-33.447,89.985,-89.985,-33.447,724.04,544.751)"><path d="M0.264,0.01c-0.045,-0 -0.082,-0.004 -0.112,-0.013c-0.03,-0.008 -0.054,-0.019 -0.072,-0.033c-0.018,-0.013 -0.031,-0.028 -0.039,-0.045c-0.007,-0.016 -0.011,-0.033 -0.011,-0.049c-0,-0.017 0.003,-0.032 0.009,-0.043c0.007,-0.012 0.015,-0.022 0.026,-0.029c0.01,-0.008 0.022,-0.013 0.036,-0.016c0.013,-0.004 0.027,-0.005 0.042,-0.005c0,0.029 0.003,0.054 0.01,0.075c0.007,0.022 0.017,0.04 0.029,0.054c0.012,0.015 0.026,0.026 0.043,0.033c0.017,0.008 0.035,0.011 0.055,0.011c0.019,0 0.037,-0.003 0.052,-0.008c0.015,-0.006 0.028,-0.013 0.039,-0.023c0.011,-0.01 0.019,-0.021 0.025,-0.034c0.005,-0.014 0.008,-0.028 0.008,-0.043c-0,-0.017 -0.004,-0.032 -0.01,-0.045c-0.007,-0.014 -0.018,-0.026 -0.031,-0.037c-0.014,-0.011 -0.032,-0.022 -0.053,-0.032c-0.021,-0.01 -0.045,-0.021 -0.073,-0.033c-0.035,-0.014 -0.064,-0.029 -0.088,-0.044c-0.024,-0.016 -0.044,-0.032 -0.058,-0.049c-0.015,-0.018 -0.025,-0.037 -0.032,-0.058c-0.006,-0.02 -0.009,-0.043 -0.009,-0.067c-0,-0.031 0.006,-0.058 0.018,-0.083c0.013,-0.025 0.03,-0.046 0.052,-0.063c0.021,-0.018 0.047,-0.032 0.077,-0.041c0.03,-0.009 0.063,-0.014 0.098,-0.014c0.037,-0 0.068,0.003 0.095,0.009c0.027,0.006 0.049,0.014 0.066,0.025c0.018,0.01 0.031,0.022 0.039,0.036c0.009,0.015 0.013,0.03 0.013,0.046c-0,0.012 -0.003,0.023 -0.008,0.033c-0.005,0.01 -0.012,0.019 -0.023,0.026c-0.01,0.008 -0.023,0.014 -0.038,0.018c-0.016,0.004 -0.034,0.006 -0.054,0.006c-0,-0.014 -0.002,-0.029 -0.006,-0.045c-0.004,-0.016 -0.01,-0.031 -0.018,-0.045c-0.009,-0.014 -0.02,-0.025 -0.033,-0.034c-0.014,-0.01 -0.03,-0.014 -0.049,-0.014c-0.014,-0 -0.026,0.002 -0.038,0.006c-0.012,0.004 -0.023,0.01 -0.032,0.017c-0.009,0.008 -0.016,0.018 -0.021,0.029c-0.005,0.012 -0.008,0.025 -0.008,0.04c0,0.014 0.002,0.027 0.007,0.04c0.005,0.012 0.013,0.024 0.025,0.036c0.012,0.012 0.029,0.024 0.05,0.036c0.022,0.012 0.049,0.024 0.083,0.038c0.034,0.014 0.064,0.028 0.088,0.043c0.024,0.015 0.043,0.03 0.059,0.047c0.015,0.017 0.027,0.035 0.034,0.055c0.007,0.02 0.01,0.043 0.01,0.067c0,0.032 -0.006,0.062 -0.019,0.089c-0.013,0.026 -0.031,0.05 -0.055,0.069c-0.023,0.019 -0.052,0.034 -0.085,0.045c-0.034,0.01 -0.071,0.016 -0.113,0.016Z" style="fill-rule:nonzero;stroke:#030000;stroke-width:0.01px;"/></g><g transform="matrix(-46.513,83.9794,-83.9794,-46.513,703.714,597.286)"><path d="M0.028,-0l-0,-0.053l0.042,-0c0.007,-0 0.014,-0.001 0.02,-0.002c0.007,-0.002 0.012,-0.005 0.016,-0.009c0.005,-0.005 0.009,-0.012 0.011,-0.02c0.003,-0.008 0.004,-0.02 0.004,-0.034l0,-0.478c0,-0.014 -0.001,-0.025 -0.004,-0.034c-0.002,-0.008 -0.006,-0.015 -0.011,-0.019c-0.004,-0.005 -0.009,-0.008 -0.016,-0.009c-0.006,-0.002 -0.013,-0.003 -0.02,-0.003l-0.042,0l-0,-0.053l0.345,0l0,0.053l-0.042,0c-0.007,0 -0.014,0.001 -0.02,0.003c-0.007,0.001 -0.012,0.004 -0.017,0.009c-0.004,0.004 -0.008,0.011 -0.01,0.019c-0.003,0.009 -0.004,0.02 -0.004,0.034l-0,0.478c-0,0.014 0.001,0.026 0.004,0.034c0.002,0.008 0.006,0.015 0.01,0.02c0.005,0.004 0.01,0.007 0.017,0.009c0.006,0.001 0.013,0.002 0.02,0.002l0.042,-0l0,0.053l-0.345,0Z" style="fill-rule:nonzero;stroke:#030000;stroke-width:0.01px;"/></g><g transform="matrix(-58.987,75.7399,-75.7399,-58.987,685.759,631.606)"><path d="M0.406,-0.118c-0,0.014 0.001,0.026 0.004,0.034c0.002,0.008 0.006,0.015 0.011,0.02c0.004,0.004 0.01,0.007 0.016,0.009c0.006,0.001 0.013,0.002 0.02,0.002l0.042,-0l0,0.053l-0.345,-0l-0,-0.053l0.042,-0c0.007,-0 0.014,-0.001 0.02,-0.002c0.006,-0.002 0.012,-0.005 0.016,-0.009c0.005,-0.005 0.009,-0.012 0.011,-0.02c0.003,-0.008 0.004,-0.02 0.004,-0.034l0,-0.535l-0.08,0c-0.015,0 -0.028,0.002 -0.038,0.005c-0.01,0.003 -0.018,0.008 -0.024,0.014c-0.007,0.006 -0.011,0.013 -0.014,0.022c-0.004,0.009 -0.006,0.019 -0.007,0.03l-0.007,0.062l-0.067,-0l0.005,-0.194l0.623,0l0.005,0.194l-0.067,-0l-0.007,-0.062c-0.001,-0.011 -0.004,-0.021 -0.007,-0.03c-0.003,-0.009 -0.008,-0.016 -0.014,-0.022c-0.006,-0.006 -0.014,-0.011 -0.025,-0.014c-0.01,-0.003 -0.022,-0.005 -0.037,-0.005l-0.08,0l-0,0.535Z" style="fill-rule:nonzero;stroke:#030000;stroke-width:0.01px;"/></g><g transform="matrix(-72.7214,62.6706,-62.6706,-72.7214,647.266,681.309)"><path d="M0.164,-0l0,-0.053l0.047,-0c0.008,-0 0.016,-0.001 0.023,-0.002c0.007,-0.001 0.013,-0.003 0.018,-0.007c0.005,-0.004 0.009,-0.01 0.012,-0.019c0.003,-0.008 0.005,-0.019 0.005,-0.033l0,-0.139l-0.185,-0.355c-0.005,-0.01 -0.01,-0.018 -0.014,-0.025c-0.004,-0.007 -0.009,-0.012 -0.014,-0.016c-0.006,-0.004 -0.011,-0.007 -0.018,-0.009c-0.007,-0.002 -0.015,-0.003 -0.025,-0.003l-0.013,-0l-0,-0.053l0.335,0l-0,0.053l-0.017,-0c-0.02,-0 -0.035,0.004 -0.045,0.012c-0.01,0.008 -0.015,0.019 -0.015,0.033c-0,0.008 0.001,0.017 0.004,0.027c0.004,0.01 0.007,0.02 0.011,0.028l0.074,0.147c0.011,0.021 0.019,0.04 0.026,0.056c0.006,0.016 0.013,0.032 0.018,0.048c0.007,-0.018 0.015,-0.037 0.024,-0.057c0.009,-0.021 0.019,-0.043 0.03,-0.065l0.058,-0.12c0.007,-0.014 0.012,-0.027 0.014,-0.037c0.002,-0.01 0.003,-0.017 0.003,-0.023c0,-0.017 -0.005,-0.03 -0.016,-0.037c-0.011,-0.008 -0.028,-0.012 -0.05,-0.012l-0.023,-0l0,-0.053l0.262,0l-0,0.053l-0.019,-0c-0.009,-0 -0.016,0.001 -0.022,0.003c-0.006,0.003 -0.012,0.007 -0.017,0.012c-0.005,0.006 -0.011,0.014 -0.017,0.024c-0.005,0.011 -0.012,0.023 -0.02,0.039l-0.17,0.331l0,0.137c0,0.014 0.002,0.026 0.005,0.034c0.003,0.008 0.007,0.014 0.012,0.018c0.005,0.005 0.01,0.007 0.017,0.008c0.007,0.001 0.014,0.002 0.022,0.002l0.049,-0l0,0.053l-0.369,-0Z" style="fill-rule:nonzero;stroke:#030000;stroke-width:0.01px;"/></g></g><g transform="matrix(2.08333,0,0,2.08333,-74.2634,-171.699)"><g transform="matrix(91.8145,28.0375,-28.0375,91.8145,343.742,906.464)"><path d="M0.097,-0l0,-0.053l0.082,-0c0.009,-0 0.016,-0.001 0.022,-0.003c0.006,-0.003 0.012,-0.006 0.016,-0.011c0.004,-0.005 0.007,-0.011 0.009,-0.02c0.002,-0.008 0.003,-0.018 0.003,-0.031l0,-0.501c-0.013,0.015 -0.025,0.03 -0.036,0.042c-0.011,0.013 -0.022,0.024 -0.032,0.033c-0.011,0.009 -0.021,0.016 -0.031,0.021c-0.01,0.005 -0.02,0.008 -0.03,0.008c-0.008,-0 -0.016,-0.002 -0.023,-0.005c-0.007,-0.004 -0.013,-0.009 -0.018,-0.015c-0.005,-0.007 -0.009,-0.014 -0.012,-0.024c-0.003,-0.009 -0.005,-0.019 -0.005,-0.03c0.01,-0.002 0.021,-0.006 0.032,-0.009c0.011,-0.004 0.023,-0.009 0.035,-0.015c0.013,-0.006 0.026,-0.013 0.04,-0.022c0.015,-0.009 0.03,-0.019 0.047,-0.031l0.07,-0.052l0.112,0l-0,0.6c-0,0.01 0.001,0.02 0.002,0.028c0.002,0.008 0.004,0.015 0.008,0.02c0.004,0.006 0.009,0.01 0.016,0.013c0.006,0.002 0.015,0.004 0.025,0.004l0.081,-0l-0,0.053l-0.413,0Z" style="fill-rule:nonzero;stroke:#030000;stroke-width:0.01px;"/></g><g transform="matrix(95.534,9.44774,-9.44774,95.534,419.726,926.975)"><path d="M0.227,0.01c-0.03,-0 -0.056,-0.003 -0.077,-0.01c-0.02,-0.006 -0.037,-0.015 -0.05,-0.025c-0.013,-0.011 -0.023,-0.023 -0.028,-0.036c-0.006,-0.014 -0.009,-0.028 -0.009,-0.042c-0,-0.015 0.004,-0.027 0.012,-0.037c0.008,-0.01 0.02,-0.017 0.037,-0.02c0.005,0.015 0.011,0.029 0.017,0.042c0.007,0.013 0.015,0.024 0.025,0.034c0.01,0.009 0.021,0.017 0.034,0.022c0.013,0.006 0.027,0.009 0.044,0.009c0.045,-0 0.079,-0.024 0.104,-0.073c0.024,-0.048 0.038,-0.121 0.041,-0.217c-0.008,0.01 -0.017,0.019 -0.026,0.027c-0.01,0.008 -0.021,0.015 -0.033,0.022c-0.012,0.006 -0.025,0.011 -0.039,0.014c-0.015,0.003 -0.031,0.005 -0.048,0.005c-0.029,0 -0.055,-0.004 -0.079,-0.013c-0.024,-0.009 -0.044,-0.022 -0.062,-0.04c-0.017,-0.017 -0.031,-0.039 -0.04,-0.065c-0.01,-0.026 -0.015,-0.055 -0.015,-0.089c0,-0.036 0.005,-0.069 0.016,-0.099c0.01,-0.029 0.025,-0.055 0.045,-0.076c0.02,-0.021 0.044,-0.038 0.072,-0.05c0.028,-0.011 0.06,-0.017 0.096,-0.017c0.036,-0 0.07,0.006 0.1,0.019c0.031,0.013 0.057,0.034 0.08,0.061c0.022,0.027 0.039,0.062 0.052,0.104c0.012,0.043 0.018,0.093 0.018,0.152c0,0.055 -0.005,0.107 -0.016,0.155c-0.011,0.048 -0.028,0.09 -0.05,0.126c-0.023,0.036 -0.053,0.065 -0.089,0.086c-0.037,0.02 -0.081,0.031 -0.132,0.031Zm0.047,-0.357c0.024,-0 0.045,-0.006 0.062,-0.018c0.017,-0.013 0.031,-0.029 0.041,-0.049c-0,-0.043 -0.003,-0.079 -0.009,-0.11c-0.005,-0.031 -0.012,-0.056 -0.022,-0.075c-0.009,-0.02 -0.02,-0.035 -0.033,-0.044c-0.013,-0.01 -0.027,-0.014 -0.043,-0.014c-0.029,-0 -0.051,0.014 -0.066,0.042c-0.016,0.028 -0.024,0.071 -0.024,0.127c0,0.046 0.008,0.081 0.024,0.105c0.015,0.024 0.039,0.036 0.07,0.036Z" style="fill-rule:nonzero;stroke:#030000;stroke-width:0.01px;"/></g><g transform="matrix(95.5451,-9.33452,9.33452,95.5451,498.171,932.223)"><path d="M0.03,-0.182c-0,-0.022 0.003,-0.041 0.01,-0.058c0.007,-0.017 0.017,-0.033 0.03,-0.047c0.013,-0.015 0.029,-0.028 0.047,-0.039c0.018,-0.012 0.038,-0.024 0.06,-0.035c-0.04,-0.023 -0.07,-0.049 -0.092,-0.078c-0.021,-0.03 -0.032,-0.064 -0.032,-0.103c0,-0.023 0.004,-0.046 0.012,-0.068c0.008,-0.022 0.021,-0.041 0.039,-0.058c0.019,-0.017 0.043,-0.03 0.072,-0.041c0.03,-0.01 0.066,-0.015 0.109,-0.015c0.035,-0 0.066,0.004 0.093,0.013c0.026,0.009 0.048,0.021 0.066,0.037c0.018,0.015 0.032,0.034 0.041,0.055c0.009,0.021 0.013,0.045 0.013,0.07c0,0.02 -0.003,0.038 -0.009,0.053c-0.007,0.015 -0.016,0.029 -0.028,0.042c-0.011,0.012 -0.025,0.024 -0.042,0.035c-0.017,0.01 -0.035,0.021 -0.056,0.032c0.03,0.014 0.055,0.029 0.076,0.044c0.022,0.015 0.039,0.03 0.052,0.046c0.013,0.016 0.023,0.033 0.029,0.051c0.006,0.018 0.009,0.037 0.009,0.057c-0,0.032 -0.006,0.06 -0.018,0.084c-0.011,0.025 -0.028,0.046 -0.05,0.063c-0.022,0.016 -0.049,0.029 -0.08,0.038c-0.032,0.009 -0.068,0.014 -0.108,0.014c-0.042,-0 -0.078,-0.005 -0.108,-0.015c-0.031,-0.01 -0.056,-0.024 -0.076,-0.041c-0.02,-0.018 -0.035,-0.038 -0.045,-0.061c-0.009,-0.024 -0.014,-0.049 -0.014,-0.075Zm0.248,0.135c0.017,0 0.033,-0.003 0.046,-0.009c0.014,-0.006 0.026,-0.015 0.036,-0.026c0.01,-0.011 0.017,-0.024 0.022,-0.04c0.006,-0.015 0.008,-0.032 0.008,-0.05c0,-0.016 -0.003,-0.031 -0.008,-0.044c-0.006,-0.013 -0.014,-0.026 -0.026,-0.037c-0.012,-0.012 -0.027,-0.023 -0.046,-0.034c-0.018,-0.011 -0.04,-0.022 -0.066,-0.034c-0.011,0.007 -0.021,0.016 -0.031,0.025c-0.01,0.009 -0.018,0.02 -0.025,0.031c-0.007,0.012 -0.013,0.025 -0.017,0.039c-0.004,0.014 -0.006,0.03 -0.006,0.048c0,0.019 0.003,0.037 0.008,0.053c0.005,0.016 0.013,0.03 0.023,0.042c0.01,0.011 0.022,0.02 0.036,0.027c0.014,0.006 0.029,0.009 0.046,0.009Zm0.094,-0.504c0,-0.014 -0.002,-0.028 -0.006,-0.042c-0.004,-0.014 -0.01,-0.026 -0.018,-0.037c-0.008,-0.011 -0.017,-0.019 -0.029,-0.026c-0.011,-0.007 -0.025,-0.01 -0.04,-0.01c-0.014,-0 -0.026,0.003 -0.037,0.009c-0.01,0.005 -0.019,0.013 -0.026,0.023c-0.007,0.01 -0.013,0.022 -0.017,0.035c-0.003,0.014 -0.005,0.029 -0.005,0.045c-0,0.017 0.002,0.032 0.007,0.045c0.005,0.013 0.012,0.025 0.021,0.035c0.009,0.011 0.02,0.02 0.033,0.028c0.014,0.009 0.029,0.017 0.047,0.025c0.012,-0.007 0.023,-0.015 0.031,-0.023c0.009,-0.008 0.017,-0.017 0.022,-0.028c0.006,-0.01 0.01,-0.022 0.013,-0.035c0.003,-0.012 0.004,-0.027 0.004,-0.044Z" style="fill-rule:nonzero;stroke:#030000;stroke-width:0.01px;"/></g><g transform="matrix(91.8579,-27.8951,27.8951,91.8579,576.225,922.094)"><path d="M0.436,-0.186l0,0.061c0,0.016 0.002,0.028 0.007,0.038c0.004,0.009 0.01,0.016 0.017,0.021c0.008,0.005 0.016,0.009 0.026,0.01c0.01,0.002 0.021,0.003 0.032,0.003l0.013,-0l-0,0.053l-0.351,-0l0,-0.053l0.028,-0c0.011,-0 0.022,-0.001 0.032,-0.003c0.01,-0.001 0.019,-0.005 0.026,-0.01c0.007,-0.005 0.013,-0.012 0.017,-0.021c0.005,-0.01 0.007,-0.022 0.007,-0.038l0,-0.061l-0.277,-0l0,-0.061l0.284,-0.467l0.139,0l0,0.462l0.104,0l0,0.066l-0.104,-0Zm-0.146,-0.241c0,-0.029 0.001,-0.061 0.002,-0.094c0,-0.034 0.002,-0.067 0.005,-0.098c-0.003,0.008 -0.009,0.018 -0.016,0.032c-0.007,0.014 -0.015,0.028 -0.023,0.042c-0.008,0.015 -0.016,0.028 -0.023,0.041c-0.008,0.013 -0.013,0.023 -0.017,0.029l-0.135,0.223l0.207,0l0,-0.175Z" style="fill-rule:nonzero;stroke:#030000;stroke-width:0.01px;"/></g></g></g><path d="M937.5,31.827c499.855,-0 905.673,405.818 905.673,905.673c0,499.855 -405.818,905.673 -905.673,905.673c-499.855,0 -905.673,-405.818 -905.673,-905.673c-0,-499.855 405.818,-905.673 905.673,-905.673Zm-0,45.283c474.862,0 860.39,385.528 860.39,860.39c-0,474.862 -385.528,860.39 -860.39,860.39c-474.862,-0 -860.39,-385.528 -860.39,-860.39c0,-474.862 385.528,-860.39 860.39,-860.39Z" style="fill:#f1ede5;stroke:#000;stroke-width:12.5px;stroke-linecap:round;stroke-miterlimit:1.5;"/><path d="M937.5,296.51c353.772,-0 640.99,287.218 640.99,640.99c0,353.772 -287.218,640.99 -640.99,640.99c-353.772,0 -640.99,-287.218 -640.99,-640.99c-0,-353.772 287.218,-640.99 640.99,-640.99Zm-0,64.099c318.395,-0 576.891,258.496 576.891,576.891c0,318.395 -258.496,576.891 -576.891,576.891c-318.395,0 -576.891,-258.496 -576.891,-576.891c-0,-318.395 258.496,-576.891 576.891,-576.891Z" style="fill:#f1ede5;stroke:#000;stroke-width:12.5px;stroke-linecap:round;stroke-miterlimit:1.5;"/><circle cx="941.836" cy="937.5" r="603.284" style="fill:#e3d2b0;stroke:#000;stroke-width:12.5px;stroke-linecap:round;stroke-miterlimit:1.5;"/><g><g id="Chicken"><path d="M1219.41,710.329l1.533,1.574c-0,-1.574 0.767,-3.936 -0.767,-5.512c-1.533,-0.786 -3.066,-0 -3.834,0.788c0.768,0.788 2.301,1.574 3.068,3.15m27.603,58.27c-0,-4.724 -0.768,-9.449 -3.068,-13.386c-2.252,-3.887 -5.415,-7.136 -9.201,-9.449c-3.833,-2.362 -7.668,-2.362 -9.968,-7.087c-0.765,-0.788 -1.533,-0.788 -0.765,-2.362c-0,-0.788 1.532,-0.788 2.3,-0c-0,-1.576 0.765,-5.513 -0.768,-6.301c0.768,-1.574 -0.767,-6.299 -0.767,-8.661c-0.765,0.788 -1.533,0.788 -3.066,1.574c0.766,-1.574 1.533,-2.362 2.301,-3.937c-1.535,0 -2.301,-1.574 -2.301,-3.15c-4.6,0 -9.201,-7.873 -11.501,-11.024c0,2.363 -3.067,0 -3.835,-0.788c-0.765,-1.574 -1.533,-3.148 -2.3,-3.936c-1.533,-1.574 -3.066,-3.151 -5.366,-3.937c-3.067,-2.362 -6.901,-4.724 -10.736,-6.301c-3.065,-1.574 -6.133,-3.936 -8.433,-5.51c0.767,1.574 1.533,2.362 1.533,3.936c-0.766,-0.788 -5.366,-5.513 -6.901,-4.725c-2.3,0.789 0.768,3.151 1.535,3.937c-0.767,-0.786 -9.201,-3.937 -4.601,-0.786c-1.534,-0.788 -3.835,-2.362 -4.6,-0c-2.3,-0.788 -6.135,-0.788 -7.668,-2.362c-1.533,-0.789 -3.833,-3.151 -5.368,-3.151c0,0.788 0.768,1.574 1.535,2.362c-4.601,-1.574 -9.201,-0.788 -13.801,-0.788l-5.368,0c-1.533,0 -2.3,1.577 -3.068,1.577c-10.734,-0 -19.934,2.362 -29.903,4.724c-19.934,3.937 -36.803,15.748 -49.837,31.497c-6.901,8.663 -13.034,17.324 -19.169,26.773c-5.366,7.087 -9.201,14.962 -16.102,21.261c-6.901,6.299 -16.867,11.024 -25.302,14.962c-3.833,1.575 -8.434,3.937 -13.034,4.725c-4.601,0.788 -9.201,0 -13.802,0.786c-4.6,0.786 -10.733,-2.362 -15.334,-3.936c-5.368,-1.575 -10.735,-3.151 -15.336,-3.937c-9.966,-2.362 -19.935,-4.725 -29.903,-6.301l-33.736,-4.724c-10.734,-1.575 -21.469,-2.363 -31.436,-5.511c-19.936,-5.513 -28.37,-25.986 -43.704,-37.798c-8.435,-6.3 -17.636,-10.237 -28.37,-11.811l-7.668,-0c-2.3,-0 -3.833,-3.151 -5.366,-4.725c-3.835,-3.938 -7.668,-7.087 -12.268,-9.449c-1.533,-0.788 -3.068,-2.362 -5.368,-3.151c-3.066,-0.788 -4.6,0 -6.133,-1.574c-3.833,-3.938 -7.668,-7.875 -11.501,-11.025c-7.668,-7.087 -15.335,-13.386 -25.303,-15.749c-2.3,-0.788 -5.368,-0.788 -7.668,-0.788c-2.3,0 -3.833,-0.786 -6.133,-0.786c-2.3,0 -3.068,1.574 -5.368,2.363c-3.066,0.786 -6.133,0.786 -9.201,1.574c-9.966,2.362 -14.567,11.811 -14.567,22.049c0,7.873 -1.534,15.748 -1.534,23.623c-0,8.661 1.534,17.323 3.834,25.986c-8.435,0.786 -9.968,14.96 -6.135,21.261c-4.6,1.574 -6.9,6.299 -7.666,10.235c0,1.576 0,3.939 0.766,5.513c0.765,1.574 2.3,3.15 2.3,4.725c-0,1.574 -1.533,3.936 -1.533,5.512l0,7.874c0.767,4.724 2.3,8.663 4.6,12.599c-3.833,0.788 -9.2,0.788 -9.2,5.513c-0.768,3.937 1.532,8.661 0.767,13.386c-0.767,8.661 4.6,18.111 12.267,22.835c0.767,0 2.3,0.788 3.067,1.576l0,3.149c0,2.362 0,4.725 0.767,7.087c0.766,3.938 2.301,8.663 4.601,12.6c4.6,7.875 10.734,14.174 19.167,18.898c0,0 0.768,0 0.768,0.788c-2.301,3.149 -3.068,7.087 -3.834,11.812c-0.767,5.511 -1.534,10.235 -0.767,15.748c1.533,10.238 8.434,16.536 16.869,22.049l-3.068,3.149c-0.767,0.788 -2.3,1.576 -3.067,2.362c-0,0 0.767,0.788 0.767,1.576c-0.767,3.149 0,3.937 2.3,7.087c-2.3,1.574 -5.367,5.511 -0.767,5.511c-0.765,2.362 -5.366,1.576 -4.6,4.725c0.765,3.148 3.835,0.788 6.135,-0c-1.535,2.362 -6.901,2.362 -7.668,4.724c-1.533,3.151 2.3,3.151 4.6,2.363c0.768,2.362 -5.368,3.15 -6.133,4.724c-0.767,0.788 -0,2.363 0.765,2.363c1.535,0.788 2.301,-0 3.835,-0.787c-0.767,1.575 -3.067,3.149 -3.067,5.511l-0,1.576c-0,0.787 -0,1.575 -0.768,3.149c0.768,-0.786 2.301,-1.574 3.068,-0c-1.533,0.788 -5.368,7.087 -1.533,5.513c-1.535,-0.788 -1.535,1.574 1.533,2.362c1.533,0 2.3,-0.788 3.068,0c0.767,0.788 1.532,2.362 2.3,3.15c1.533,3.149 3.066,5.511 5.366,8.662c0.767,1.574 2.3,2.362 3.835,3.936c1.534,1.575 1.533,1.576 0.765,3.939c-0.767,2.362 -0.765,7.087 0.768,8.661c0.767,0.788 2.3,1.574 3.067,2.362c1.533,0.788 1.533,0.788 3.066,2.363c0.767,0.788 -0,3.15 0.767,3.936c0.768,0.786 2.3,0.788 3.833,0.788c2.301,0 4.601,0.788 6.901,0c-2.3,1.575 -6.901,4.725 -6.133,8.662c-0,3.15 4.6,3.15 6.9,2.362c0,3.15 0.768,3.938 4.601,3.938c1.533,0 2.3,-1.576 3.067,-1.576c1.533,-0.786 0.766,0 2.301,0c3.065,0.788 5.366,1.576 6.133,4.725c0.767,3.148 -0,7.087 0.767,10.237c0,2.363 -1.534,13.386 3.066,12.6c1.535,-0.788 3.068,-1.576 4.6,-1.576c1.533,-0 3.835,-0.786 5.368,-1.574c-2.3,2.362 -1.533,11.811 2.3,11.023c0.768,0 2.301,-1.574 2.301,-1.574c0.767,0.788 1.533,0.788 2.3,0.788c1.533,0 2.3,-1.576 3.833,-1.576c-0,1.576 0.767,2.362 2.3,2.362c2.3,0 3.835,0.788 5.368,3.151c0.767,1.574 1.533,3.936 2.3,5.512c1.643,2.475 3.724,4.612 6.134,6.299c2.3,1.575 4.6,3.151 7.668,4.725c1.532,0.788 0.767,4.725 1.532,6.299c2.301,4.724 7.668,1.576 9.201,-1.574c3.068,4.724 5.368,8.661 10.736,5.512c1.533,4.725 6.901,7.873 9.966,11.812c1.535,2.362 3.835,3.937 6.135,4.725c2.301,0.788 5.366,-0.788 6.901,0.786c3.066,3.938 5.366,8.663 10.734,8.663c3.833,-0 4.6,-3.939 4.6,-7.087c2.301,2.362 3.068,3.148 3.833,6.299c0.768,2.362 1.535,5.513 2.301,7.875c1.534,5.511 1.534,10.235 2.3,15.748c-0,10.238 0.767,19.687 -1.533,29.136c-0.767,2.363 0,10.236 -2.3,11.812c-0.768,0.786 -5.368,0.786 -6.901,1.574c-2.3,0.788 -5.368,2.362 -7.668,3.151c-2.3,1.574 -7.666,5.51 -4.6,8.661c2.3,2.362 6.135,-0.788 8.435,-0.788c1.533,-0.786 3.833,-0 5.366,-0c2.3,-0 3.835,-0.786 5.368,0.788c2.3,3.936 6.9,4.724 11.501,4.724c3.067,0 7.668,3.151 10.734,4.725c3.835,2.362 9.968,2.362 13.801,2.362c5.368,0 10.736,0.788 16.102,0.788l6.9,0c2.3,0 3.068,1.575 5.368,2.363c1.533,0.786 3.833,1.574 5.368,1.574c1.534,0 3.833,2.362 6.133,3.15c2.3,0.789 3.833,2.363 5.368,3.937c1.535,1.574 1.533,3.937 3.066,4.725c4.6,4.724 6.135,-2.363 6.9,-6.299c0.768,-5.513 -3.833,-8.663 -7.666,-11.812c6.133,0 12.267,-1.576 17.635,-0.788c3.833,0.788 6.133,2.362 9.2,4.725c0.768,0.788 2.301,1.574 3.068,2.362c0.767,0.788 0.766,2.362 1.533,3.15c3.067,3.937 5.368,-3.15 4.6,-5.512c-0.767,-5.513 -6.9,-9.45 -11.501,-12.6c6.134,1.576 13.034,3.15 17.635,6.301c3.835,2.362 6.135,7.873 9.201,11.023c3.067,3.937 5.367,0 6.135,-3.936c0.765,-6.301 -1.535,-11.812 -6.901,-14.962c3.066,-0.788 0.766,-6.299 0,-7.875c-2.3,-3.937 -6.901,-6.299 -11.501,-7.087c3.833,-1.575 7.666,-0.786 10.734,1.576c1.533,1.574 2.3,2.362 2.3,3.936c-0,1.575 1.533,3.151 2.3,3.937c2.3,0.788 4.601,-0.786 5.368,-3.148c0.765,-3.151 -0.767,-6.301 -1.535,-8.664c-9.966,-16.536 -36.036,-6.299 -50.605,-5.51c-4.6,-0 -8.433,0.786 -13.034,0.786c-4.6,-0 -6.133,-0 -6.133,-4.725c0,-3.937 0.766,-7.087 0,-11.024c0,-3.936 -1.535,-8.661 -3.068,-12.599c-2.3,-8.661 -3.833,-17.323 -5.367,-25.986c-0,-1.574 -0.766,-3.936 -0.766,-5.511c0,-0.788 -0.767,-3.15 0,-3.15c0.766,-0.788 1.533,-0 2.3,-0.788c0.766,-1.574 -0.767,-3.149 -1.534,-3.937c-0.766,-2.362 -0.766,-3.936 -0.766,-6.299c1.533,1.575 3.066,2.363 4.601,3.937c0.765,1.574 1.532,3.936 3.065,3.15c-2.3,-3.938 -3.065,-7.087 -4.6,-11.025c0.767,0.788 0.767,1.576 2.3,2.362c-1.533,-2.362 -1.533,-4.725 -3.066,-6.299c-0.767,-1.574 -2.3,-4.724 -1.534,-6.299c2.3,4.725 5.367,9.45 7.668,14.174c0.767,1.575 1.533,3.149 3.833,3.937c0.767,0.788 2.3,1.574 3.067,2.362c-0.767,-1.574 -1.533,-2.362 -0.767,-3.936c0.767,-0 2.3,0.786 2.3,0.786c0.768,0.788 1.535,2.362 2.3,2.362c1.535,0 -0.765,-2.362 -0.765,-3.148c-2.3,-3.151 -3.835,-8.664 -6.135,-12.6l2.3,2.362l-0,-0.788c-3.833,-3.936 -5.366,-11.023 -6.901,-15.748c3.835,5.513 8.436,11.812 13.036,16.536c1.533,1.574 6.133,3.151 3.833,-0.788c-2.3,-3.938 -4.6,-7.873 -6.133,-11.811c3.066,3.938 6.133,11.811 11.501,11.025c-0.767,-0.788 -1.535,-2.362 -0.767,-3.15c0.767,0.788 6.133,3.936 5.367,2.362c-0.767,-0.788 0,-0.788 0,-2.362c-0.767,-1.575 -1.534,-3.151 -3.067,-4.725c2.3,2.362 5.368,3.937 7.668,6.299c0.765,0.788 1.533,2.362 2.3,0.788c0.766,-0.788 -1.535,-2.362 -2.3,-3.15l0.765,0.788c-1.532,-2.363 -3.065,-3.937 -4.6,-5.513c-0.766,-1.574 -1.533,-3.937 -3.066,-5.511c-1.533,-1.574 0,-2.362 0.766,-3.938c0.767,-0.787 4.6,0.788 5.368,0.788c5.367,0.788 9.2,-2.363 13.801,-3.937c4.6,-1.574 9.968,-3.15 14.569,-4.725l29.135,-11.811c3.833,-1.576 6.901,-4.725 9.968,-6.301c3.833,-2.362 5.366,-6.299 9.967,-7.087c18.402,-1.574 38.338,-8.661 52.905,-20.473c14.567,-11.812 25.302,-28.348 32.203,-45.672c7.668,-19.685 13.801,-40.16 23.002,-59.059c4.601,-9.449 9.201,-18.11 16.102,-25.985c6.135,-7.873 11.501,-14.174 14.568,-23.624c3.068,-8.661 2.301,-18.11 3.068,-26.771c0.765,-10.238 -0,-20.475 0.765,-30.711c0.768,-5.512 1.535,-11.025 3.068,-15.75c1.533,-5.511 3.833,-10.235 6.133,-15.748c1.535,-3.937 1.535,-7.875 0.768,-11.812c-0,-0.788 3.067,-3.936 3.833,-4.724c1.535,-0.788 3.067,-0 4.6,-0.788c4.601,-0.787 7.668,-4.725 10.736,-7.874c1.533,-1.576 2.3,-3.15 3.066,-3.938c0.767,-1.574 3.067,-2.362 4.6,-3.149c3.068,-2.362 6.135,-3.938 9.201,-5.512c4.6,-2.363 4.6,-1.575 8.435,-0c3.066,1.574 6.901,3.15 9.967,3.936c5.367,1.576 11.501,-0.786 13.801,5.513c2.3,-2.362 1.535,-3.15 1.535,-4.725m-378.771,358.286c-0,-1.574 -0.766,-3.148 -0.766,-4.724c0.766,0.788 1.533,3.938 0.766,4.724m19.169,-2.362c0.767,2.362 3.833,5.513 3.067,7.875c-0.767,-2.362 -3.067,-3.15 -3.067,-4.724c-0.768,-3.937 -2.3,-7.087 -2.3,-11.024c0.767,2.362 1.532,5.511 2.3,7.873m-0,4.725c-1.533,-0 -1.533,-0.786 -1.533,-2.363c-0,0.789 0.765,1.577 1.533,2.363m4.6,59.058c0,4.725 -1.533,9.449 -2.3,14.174c-9.968,-16.536 -16.102,-35.435 -15.334,-55.12c2.3,0.786 2.3,3.149 3.066,4.725c0.767,-0.788 0.767,-0 -0,-0.788c-0.766,-2.362 -0.766,-2.362 -0.766,-3.937c0,-3.15 -1.535,-6.301 -2.3,-9.449c2.3,2.362 3.066,5.511 3.833,7.873c1.533,3.939 2.3,3.151 1.533,-0.786c0.767,0.786 1.534,2.362 2.3,3.148c-0,-0.786 -1.533,-3.148 -1.533,-3.936c0.767,-0.788 0,-1.574 0,-2.362c-0.767,-3.151 -3.833,-7.876 -3.833,-11.024c2.3,5.511 3.066,11.812 6.901,15.748c-2.301,-9.449 -3.835,-19.687 -5.368,-29.136c0.767,3.151 2.3,5.513 3.067,7.875c0.768,2.363 1.533,3.937 1.533,5.513c0.768,6.299 3.068,12.598 3.833,18.899c3.835,12.597 5.368,25.985 5.368,38.583m0.768,-61.421c-0,-0.786 -0,0 -0,0m81.273,91.345l-0.766,-0.788c0,0.788 0.766,0.788 0.766,0.788m174.051,-525.225c0.766,-0 0.766,-0 1.533,0.788c-0.767,-0 -1.533,-0.788 -1.533,-0.788m67.472,49.609c0,-0 -0.765,0.788 0,-0Z"/><path d="M1220.18,706.391c0.767,-2.363 -1.533,-6.299 -3.066,-3.149c-0.768,-0.788 -0,-2.362 -1.535,-3.15c-1.533,-1.574 -3.066,0.788 -3.066,3.15c-4.6,-3.938 -5.367,-3.938 -6.9,1.574c-0,1.575 0.765,2.363 0.765,3.937c0,3.15 1.535,5.513 3.068,7.875c2.3,3.937 5.368,9.449 3.067,14.174c-0.866,1.676 -2.202,3.048 -3.835,3.937c-1.532,0.788 -3.833,2.362 -2.3,3.938c-6.9,0.786 -10.733,-11.025 -14.567,-14.962c-3.067,-3.15 -6.9,-3.936 -10.735,-4.725c-0,0 -0,-0.788 -0.766,-0.788c-0.765,0 -1.534,0 -3.067,0.788c-1.533,0.789 -2.3,0.789 -4.601,0.789c-4.6,-0 -8.433,1.574 -13.034,2.362c-3.067,0.786 -3.835,1.574 -2.3,3.148c1.535,1.575 3.066,2.363 3.833,4.725c0.768,2.362 0.768,4.725 1.533,7.087c0.767,0.788 0.767,1.576 1.535,1.576c1.533,0 1.533,3.937 0.765,3.937c0,-0.788 -2.3,-1.575 -3.065,-0.788c-0.766,0.786 0.765,0.788 0.765,1.576l0,3.936c-2.3,-0.788 -5.366,-0.788 -7.666,-1.574c-2.3,0 -3.068,-0.788 -5.368,-1.576l-2.3,-0c-0.768,-0.786 -1.533,-2.362 -2.3,-3.937c-0.768,-1.574 -2.301,-2.362 -2.301,-4.724c1.533,0.788 2.301,1.574 3.833,1.574c-0.765,-0.786 -2.3,-1.574 -3.065,-3.149c-0.768,-0.788 -0,-2.362 -1.535,-3.15c-3.833,-1.574 -2.3,9.449 -3.066,11.024c-0.767,0.788 -2.3,1.576 -3.067,3.15c-0,0.788 -0,1.574 -0.768,2.362c0,0.788 -0.765,3.151 0,3.151c0,-0 0.768,-1.576 1.535,-1.576c-1.535,1.576 -0.767,8.663 0,11.811c0.766,3.939 3.066,6.301 4.601,10.238c0.765,1.574 2.3,2.362 3.833,3.936c1.532,1.575 1.532,3.939 2.3,6.301c0.767,3.937 1.533,8.661 3.833,12.598c1.535,1.576 3.835,-0 4.6,-0.786c2.301,-2.363 1.535,-5.513 3.068,-7.875c5.368,-8.662 16.102,-14.174 24.535,-18.111c2.3,-0.788 4.6,-2.362 6.901,-2.362c-9.967,5.511 -20.702,9.449 -28.368,18.11c-3.835,3.937 1.532,3.937 4.6,5.513c1.533,0.786 2.3,0 3.066,1.574c0.765,1.575 4.6,-0.788 5.368,-1.574c-0,0.786 -2.301,4.725 -2.301,5.511c1.533,1.576 6.134,-6.299 6.901,-7.087c3.068,-2.362 7.668,-2.362 10.734,-3.937c2.607,-1.778 4.721,-4.22 6.135,-7.087c0.765,-1.574 0.765,-3.15 1.533,-4.724c-0,-0.788 3.833,-1.575 4.6,-2.363c3.068,-1.574 -0.767,-3.15 -1.533,-3.936c-2.3,-2.363 6.901,-6.301 8.434,-6.301c3.833,-0.786 8.433,0.788 13.034,-0c0.767,-0 0.767,0.788 1.535,-0c0.767,-0.788 -0,-0.786 -0,-1.574c-0,-0 -0.768,-0 -0.768,-0.788l1.533,-0c0.767,-0.787 1.535,-0.787 0,-1.575c-2.3,-0.788 -6.133,0 -8.434,0c-4.6,0 -8.433,-1.574 -13.033,-0.788c-5.368,0 -9.969,0 -15.337,0.788l0,-1.574c3.068,-1.576 6.136,-3.15 9.201,-3.15c1.535,-0 1.535,-0.788 3.068,-0.788c1.533,-0 3.068,-0.787 4.6,-0c2.301,-0 7.668,5.512 9.969,2.362c1.532,-1.574 1.532,-2.362 0.765,-4.725c2.3,1.576 0.767,-0.786 1.535,-1.574c0.765,-1.574 -0,-1.574 0.765,-2.362c0.766,-0.788 3.068,-0.788 3.835,-0c1.533,-0 4.601,3.15 5.366,0.788c0,-0.788 -0.765,-1.576 -0.765,-2.363c3.833,0 4.6,-0.788 1.533,-3.938c-0,0 -2.301,0 -1.533,-0.786c0.767,-0.786 0.765,-0.788 0.765,-1.576c0,-2.363 -3.065,-1.575 -0.765,-4.725c2.3,-3.15 3.065,-3.937 1.533,-7.873c-0.768,-1.576 1.532,-6.301 -1.533,-5.513c0.765,-1.574 2.3,-4.725 1.533,-6.299c-0.768,-2.362 -2.301,-0.788 -3.833,0.786c-2.301,3.151 -2.301,1.577 -1.535,-1.574c-0,-1.574 -0,-3.15 -2.3,-3.15m-41.404,14.174c5.367,0.788 9.968,3.15 13.801,7.875c-0,0.788 -0.766,-0 -1.533,0.788c-0.767,0.788 -1.533,-0 -1.533,0.786c0,0.786 0,2.362 -0.767,3.15c-2.3,2.363 -4.601,3.937 -8.434,3.937c-3.067,0 -6.135,-2.362 -7.668,-4.725c-1.533,-2.362 -1.533,-5.511 -3.833,-7.087c1.533,-0.786 2.3,-1.574 3.066,-2.362c2.3,-1.574 4.6,-1.574 7.668,-0.786c2.3,0.786 3.833,1.574 5.368,3.148c1.533,0.788 1.533,2.363 3.833,2.363c0.767,-3.149 -6.901,-6.299 -9.968,-7.087m-9.967,8.663c1.533,6.299 7.666,11.811 14.567,11.023c3.068,-0.788 6.901,-1.574 9.201,-3.936c-3.066,3.936 -7.666,5.511 -12.267,5.511c-3.835,-0 -6.135,-1.575 -8.435,-3.937c-1.533,-1.574 -4.601,-7.087 -3.066,-8.661Zm36.036,27.56c-4.6,-0 -9.968,1.574 -14.568,2.362c-2.301,0.788 -6.901,2.362 -8.434,0.788c2.3,-0.788 3.833,-2.362 6.133,-3.15c0,2.362 5.368,-0 6.136,-0c3.833,-0.788 7.666,-0.788 10.733,-0m-49.837,20.473c-0,-0.787 -0,-0.787 -0,-0m1.533,9.449c-0,0.788 -0,0.788 -0,-0" style="fill:#a51c21;"/><path d="M1178.01,723.715c-6.901,2.362 -3.835,14.174 3.833,14.174c8.434,-0.788 4.601,-15.748 -3.833,-14.174m1.533,11.024c-5.368,-2.363 -2.3,-10.236 2.3,-7.874c3.068,2.363 1.533,8.662 -2.3,7.874" style="fill:#fc3;"/></g></g><g><path d="M477.958,897.72c-1.908,30.808 -15.921,66.5 27.091,107.975l1.426,36.699c-42.801,-21.298 -44.438,-71.281 -50.62,-114.325l22.103,-30.349Z" style="fill:#ffd200;fill-rule:nonzero;stroke:#000;stroke-width:5.95px;stroke-linecap:round;stroke-miterlimit:4;"/><path d="M520.718,824.31c30.589,-28.92 40.196,-53.122 34.939,-85.39c-24.776,10.444 -38.285,41.603 -49.911,76.218c19.126,-41.194 10.646,-66.311 -2.137,-88.922c-7.982,25.216 -20.288,46.075 -14.261,85.391c0.02,-43.18 -21.986,-63.276 -54.188,-72.69c4.42,27.524 17.964,59.281 38.504,86.804c-25.958,-46.661 -59.237,-39.945 -86.984,-42.343c15.353,33.766 47.69,45.587 77.717,55.752c-34.693,-11.977 -68.549,-22.297 -91.975,8.468c38.858,20.604 68.288,13.342 96.251,9.881c-38.448,3.301 -72.986,12.032 -86.269,47.988c37.804,0.871 65.305,-15.285 93.403,-39.518c-33.364,23.345 -45.014,52.75 -43.495,87.51c28.429,-24.054 51.445,-49.641 53.476,-81.157c-14.659,51.603 -4.607,77.306 12.833,95.271c15.417,-33.069 5.524,-60.381 7.131,-95.977c0.319,51.174 26.335,62.074 48.482,79.04c-8.863,-29.573 -2.453,-50.271 -36.361,-84.687c49.765,58.859 63.133,41.167 84.133,39.521c-21.269,-29.344 -46.885,-41.798 -75.577,-49.4c24.161,4.893 52.461,18.282 84.133,-11.292c-24.591,-12.599 -51.109,-19.144 -83.422,-7.059c40.088,-9.021 61.813,-24.405 73.44,-46.574c-30.513,-8.215 -50.204,3.934 -79.856,33.168l-0.006,-0.003Z" style="fill:#f1ede5;fill-rule:nonzero;stroke:#000;stroke-width:5.95px;stroke-linecap:round;stroke-miterlimit:4;"/><path d="M465.117,843.016c-0,16.954 13.886,30.7 31.016,30.7c17.13,-0 31.013,-13.746 31.013,-30.7c0,-16.955 -13.886,-30.698 -31.013,-30.698c-17.127,0 -31.016,13.743 -31.016,30.698Zm931.928,54.704c1.908,30.808 15.921,66.5 -27.094,107.975l-1.426,36.699c42.801,-21.298 44.438,-71.281 50.623,-114.325l-22.103,-30.349Z" style="fill:#ffd200;fill-rule:nonzero;stroke:#000;stroke-width:5.95px;stroke-linecap:round;stroke-miterlimit:4;"/><path d="M1354.28,824.31c-30.589,-28.92 -40.196,-53.122 -34.936,-85.39c24.776,10.444 38.282,41.603 49.908,76.218c-19.126,-41.194 -10.643,-66.311 2.137,-88.922c7.982,25.216 20.288,46.075 14.261,85.391c-0.02,-43.18 21.986,-63.276 54.188,-72.69c-4.417,27.524 -17.961,59.281 -38.501,86.804c25.958,-46.661 59.234,-39.945 86.984,-42.343c-15.353,33.766 -47.693,45.587 -77.717,55.752c34.693,-11.977 68.546,-22.297 91.972,8.468c-38.855,20.604 -68.285,13.342 -96.251,9.881c38.448,3.301 72.986,12.032 86.269,47.988c-37.804,0.871 -65.305,-15.285 -93.4,-39.518c33.364,23.345 45.014,52.75 43.492,87.51c-28.429,-24.054 -51.445,-49.641 -53.473,-81.157c14.659,51.603 4.604,77.306 -12.833,95.271c-15.418,-33.069 -5.527,-60.381 -7.131,-95.977c-0.319,51.174 -26.335,62.074 -48.485,79.04c8.866,-29.573 2.453,-50.271 36.364,-84.687c-49.768,58.859 -63.136,41.167 -84.133,39.521c21.269,-29.344 46.882,-41.798 75.574,-49.4c-24.158,4.893 -52.458,18.282 -84.133,-11.292c24.591,-12.599 51.109,-19.144 83.422,-7.059c-40.088,-9.021 -61.813,-24.405 -73.437,-46.574c30.51,-8.215 50.201,3.934 79.853,33.168l0.006,-0.003Z" style="fill:#f1ede5;fill-rule:nonzero;stroke:#000;stroke-width:5.95px;stroke-linecap:round;stroke-miterlimit:4;"/><path d="M1409.88,843.016c0,16.954 -13.886,30.7 -31.013,30.7c-17.127,-0 -31.016,-13.746 -31.016,-30.7c-0,-16.955 13.886,-30.698 31.016,-30.698c17.13,0 31.013,13.743 31.013,30.698Z" style="fill:#ffd200;fill-rule:nonzero;stroke:#000;stroke-width:5.95px;stroke-linecap:round;stroke-miterlimit:4;"/></g><g id="Banner"><path id="_3" serif:id="3" d="M545.308,1259.39c-47.45,-33.239 -79.709,-117.291 -111.928,-170.072l79.773,18.028l17.763,-71.422c22.704,66.319 43.853,125.396 88.535,158.059l-74.143,65.407Z" style="fill:#fff;stroke:#000;stroke-width:7.58px;stroke-linejoin:miter;stroke-miterlimit:4;"/><path id="_2" serif:id="2" d="M1327.95,1256.41c48.774,-47.995 85.447,-137.363 113.671,-178.225l-74.586,18.88l-34.237,-61.186c-4.622,21.274 -27.513,101.307 -79.32,144.549l74.472,75.982Z" style="fill:#fff;stroke:#000;stroke-width:7.58px;stroke-linejoin:miter;stroke-miterlimit:4;"/><path id="_1" serif:id="1" d="M593.619,1182.92c96.402,98.469 196.061,177.012 339.545,179.821c103.97,2.035 222.695,-52.55 335.098,-183.867c35.443,19.969 77.308,88.749 74.311,85.185c-44.232,59.802 -108.15,104.592 -169.804,140.955c-79.315,46.779 -165.909,64.542 -241.309,63.207c-74.064,-1.312 -138.937,-14.011 -220.813,-53.179c-56.783,-27.163 -143.792,-88.419 -192.609,-149.184c1.456,-18.564 48.736,-61.308 75.581,-82.938Z" style="fill:#fff;stroke:#000;stroke-width:7.58px;stroke-linejoin:miter;stroke-miterlimit:4;"/><g id="_11" serif:id="1" transform="matrix(2.08333,0,0,2.08333,477.713,709.186)"><g transform="matrix(26.0461,18.5904,-18.5904,26.0461,66.5512,297.837)"><path d="M0.586,-0l-0.39,-0.551l-0,0.433c-0,0.014 0.001,0.026 0.004,0.034c0.003,0.008 0.006,0.015 0.011,0.02c0.004,0.004 0.01,0.007 0.016,0.009c0.007,0.001 0.013,0.002 0.02,0.002l0.042,-0l0,0.053l-0.261,0l-0,-0.053l0.042,-0c0.007,-0 0.014,-0.001 0.02,-0.002c0.006,-0.002 0.011,-0.005 0.016,-0.009c0.005,-0.005 0.009,-0.012 0.011,-0.02c0.003,-0.008 0.004,-0.02 0.004,-0.034l0,-0.482c0,-0.013 -0.001,-0.024 -0.004,-0.032c-0.003,-0.008 -0.007,-0.014 -0.011,-0.018c-0.005,-0.005 -0.01,-0.007 -0.017,-0.009c-0.006,-0.001 -0.012,-0.002 -0.019,-0.002l-0.042,-0l-0,-0.053l0.222,0l0.353,0.499l0,-0.385c0,-0.013 -0.001,-0.024 -0.004,-0.032c-0.003,-0.008 -0.007,-0.014 -0.011,-0.018c-0.005,-0.005 -0.011,-0.007 -0.017,-0.009c-0.006,-0.001 -0.012,-0.002 -0.019,-0.002l-0.042,-0l-0,-0.053l0.261,0l-0,0.053l-0.042,-0c-0.007,-0 -0.013,0.001 -0.02,0.002c-0.006,0.002 -0.011,0.005 -0.016,0.009c-0.005,0.005 -0.008,0.011 -0.011,0.02c-0.002,0.008 -0.004,0.019 -0.004,0.034l0,0.596l-0.092,0Z" style="fill-rule:nonzero;stroke:#030000;stroke-width:0.03px;"/></g><g transform="matrix(27.6112,16.1747,-16.1747,27.6112,94.1534,316.838)"><path d="M0.028,-0l-0,-0.053l0.042,-0c0.007,-0 0.014,-0.001 0.02,-0.002c0.007,-0.002 0.012,-0.005 0.016,-0.009c0.005,-0.005 0.009,-0.012 0.011,-0.02c0.003,-0.008 0.004,-0.02 0.004,-0.034l0,-0.478c0,-0.014 -0.001,-0.025 -0.004,-0.034c-0.002,-0.008 -0.006,-0.015 -0.011,-0.019c-0.004,-0.005 -0.009,-0.008 -0.016,-0.009c-0.006,-0.002 -0.013,-0.003 -0.02,-0.003l-0.042,0l-0,-0.053l0.345,0l0,0.053l-0.042,0c-0.007,0 -0.014,0.001 -0.02,0.003c-0.007,0.001 -0.012,0.004 -0.017,0.009c-0.004,0.004 -0.008,0.011 -0.01,0.019c-0.003,0.009 -0.004,0.02 -0.004,0.034l-0,0.478c-0,0.014 0.001,0.026 0.004,0.034c0.002,0.008 0.006,0.015 0.01,0.02c0.005,0.004 0.01,0.007 0.017,0.009c0.006,0.001 0.013,0.002 0.02,0.002l0.042,-0l0,0.053l-0.345,0Z" style="fill-rule:nonzero;stroke:#030000;stroke-width:0.03px;"/></g><g transform="matrix(29.2203,13.0451,-13.0451,29.2203,112.544,327.335)"><path d="M0.446,-0l-0,-0.053l0.043,-0c0.007,-0 0.014,-0.001 0.02,-0.002c0.006,-0.002 0.011,-0.005 0.016,-0.009c0.005,-0.005 0.009,-0.012 0.011,-0.02c0.003,-0.008 0.004,-0.02 0.004,-0.034l0,-0.224l-0.261,0l-0,0.224c-0,0.014 0.001,0.026 0.004,0.034c0.003,0.008 0.006,0.015 0.011,0.02c0.005,0.004 0.01,0.007 0.016,0.009c0.006,0.001 0.013,0.002 0.02,0.002l0.043,-0l0,0.053l-0.345,0l-0,-0.053l0.042,-0c0.007,-0 0.014,-0.001 0.02,-0.002c0.006,-0.002 0.011,-0.005 0.016,-0.009c0.005,-0.005 0.009,-0.012 0.011,-0.02c0.003,-0.008 0.004,-0.02 0.004,-0.034l0,-0.482c0,-0.013 -0.001,-0.024 -0.004,-0.032c-0.003,-0.008 -0.007,-0.014 -0.011,-0.018c-0.005,-0.004 -0.01,-0.007 -0.017,-0.008c-0.006,-0.002 -0.012,-0.003 -0.019,-0.003l-0.042,0l-0,-0.053l0.345,0l0,0.053l-0.043,0c-0.007,0 -0.014,0.001 -0.02,0.003c-0.006,0.001 -0.011,0.004 -0.016,0.009c-0.005,0.004 -0.008,0.011 -0.011,0.019c-0.003,0.009 -0.004,0.02 -0.004,0.034l-0,0.193l0.261,0l0,-0.193c0,-0.014 -0.001,-0.025 -0.004,-0.034c-0.002,-0.008 -0.006,-0.015 -0.011,-0.019c-0.005,-0.005 -0.01,-0.008 -0.016,-0.009c-0.006,-0.002 -0.013,-0.003 -0.02,-0.003l-0.043,0l-0,-0.053l0.345,0l0,0.053l-0.042,0c-0.007,0 -0.013,0.001 -0.02,0.003c-0.006,0.001 -0.011,0.004 -0.016,0.009c-0.005,0.004 -0.008,0.011 -0.011,0.019c-0.002,0.009 -0.004,0.02 -0.004,0.034l0,0.483c0,0.013 0.002,0.024 0.004,0.032c0.003,0.008 0.007,0.014 0.012,0.018c0.004,0.004 0.01,0.007 0.016,0.008c0.006,0.001 0.012,0.002 0.019,0.002l0.042,-0l0,0.053l-0.345,-0Z" style="fill-rule:nonzero;stroke:#030000;stroke-width:0.03px;"/></g><g transform="matrix(30.4647,9.79295,-9.79295,30.4647,144.348,340.711)"><path d="M0.028,-0l-0,-0.053l0.042,-0c0.007,-0 0.014,-0.001 0.02,-0.002c0.007,-0.002 0.012,-0.005 0.016,-0.009c0.005,-0.005 0.009,-0.012 0.011,-0.02c0.003,-0.008 0.004,-0.02 0.004,-0.034l0,-0.478c0,-0.014 -0.001,-0.025 -0.004,-0.034c-0.002,-0.008 -0.006,-0.015 -0.011,-0.019c-0.004,-0.005 -0.009,-0.008 -0.016,-0.009c-0.006,-0.002 -0.013,-0.003 -0.02,-0.003l-0.042,0l-0,-0.053l0.345,0l0,0.053l-0.042,0c-0.007,0 -0.014,0.001 -0.02,0.003c-0.007,0.001 -0.012,0.004 -0.017,0.009c-0.004,0.004 -0.008,0.011 -0.01,0.019c-0.003,0.009 -0.004,0.02 -0.004,0.034l-0,0.478c-0,0.014 0.001,0.026 0.004,0.034c0.002,0.008 0.006,0.015 0.01,0.02c0.005,0.004 0.01,0.007 0.017,0.009c0.006,0.001 0.013,0.002 0.02,0.002l0.042,-0l0,0.053l-0.345,0Z" style="fill-rule:nonzero;stroke:#030000;stroke-width:0.03px;"/></g><g transform="matrix(31.3936,6.20017,-6.20017,31.3936,164.564,346.962)"><path d="M0.028,-0l-0,-0.053l0.042,-0c0.007,-0 0.014,-0.001 0.02,-0.002c0.007,-0.002 0.012,-0.005 0.016,-0.009c0.005,-0.005 0.009,-0.012 0.011,-0.02c0.003,-0.008 0.004,-0.02 0.004,-0.034l0,-0.478c0,-0.015 -0.001,-0.026 -0.004,-0.034c-0.002,-0.009 -0.006,-0.015 -0.011,-0.02c-0.004,-0.004 -0.009,-0.007 -0.016,-0.009c-0.006,-0.001 -0.013,-0.002 -0.02,-0.002l-0.042,-0l-0,-0.053l0.345,0l0,0.053l-0.042,-0c-0.007,-0 -0.013,0.001 -0.02,0.002c-0.006,0.002 -0.012,0.004 -0.016,0.009c-0.005,0.004 -0.008,0.01 -0.011,0.018c-0.003,0.008 -0.004,0.019 -0.004,0.032l-0,0.539l0.186,-0c0.023,-0 0.041,-0.007 0.055,-0.022c0.013,-0.015 0.022,-0.037 0.028,-0.065l0.016,-0.075l0.056,-0l-0.007,0.223l-0.586,0Z" style="fill-rule:nonzero;stroke:#030000;stroke-width:0.03px;"/></g><g transform="matrix(31.9985,0.311515,-0.311515,31.9985,209.904,353.262)"><path d="M0.517,-0.53l-0.005,-0.048c-0.003,-0.026 -0.011,-0.046 -0.024,-0.057c-0.013,-0.012 -0.03,-0.018 -0.05,-0.018l-0.159,0l-0,0.273l0.237,0l0,0.059l-0.237,0l-0,0.203c-0,0.014 0.001,0.026 0.004,0.034c0.003,0.008 0.006,0.015 0.011,0.02c0.005,0.004 0.01,0.007 0.017,0.009c0.006,0.001 0.013,0.002 0.02,0.002l0.062,-0l0,0.053l-0.365,0l-0,-0.053l0.042,-0c0.007,-0 0.014,-0.001 0.02,-0.002c0.006,-0.001 0.011,-0.004 0.016,-0.008c0.005,-0.004 0.009,-0.01 0.011,-0.018c0.003,-0.008 0.004,-0.019 0.004,-0.032l0,-0.487c0,-0.013 -0.001,-0.024 -0.004,-0.032c-0.002,-0.008 -0.006,-0.014 -0.011,-0.018c-0.005,-0.005 -0.01,-0.007 -0.016,-0.009c-0.006,-0.001 -0.013,-0.002 -0.02,-0.002l-0.042,-0l-0,-0.053l0.554,0l0.005,0.184l-0.07,0Z" style="fill-rule:nonzero;stroke:#030000;stroke-width:0.03px;"/></g><g transform="matrix(31.7121,-4.28248,4.28248,31.7121,238.119,353.065)"><path d="M0.218,-0.235l-0.029,0.086c-0.003,0.008 -0.005,0.018 -0.008,0.029c-0.003,0.011 -0.004,0.02 -0.004,0.028c-0,0.007 0.001,0.012 0.004,0.017c0.002,0.005 0.006,0.009 0.01,0.012c0.004,0.003 0.009,0.006 0.014,0.007c0.006,0.002 0.011,0.003 0.017,0.003l0.042,-0l0,0.053l-0.26,0l-0,-0.053l0.012,-0c0.009,-0 0.017,-0.001 0.024,-0.003c0.008,-0.002 0.014,-0.006 0.021,-0.011c0.006,-0.006 0.012,-0.013 0.018,-0.022c0.006,-0.01 0.011,-0.022 0.017,-0.037l0.217,-0.588l0.137,0l0.209,0.589c0.005,0.014 0.01,0.026 0.016,0.035c0.005,0.009 0.011,0.017 0.017,0.022c0.006,0.005 0.013,0.009 0.02,0.011c0.008,0.003 0.015,0.004 0.023,0.004l0.018,-0l-0,0.053l-0.33,0l-0,-0.053l0.039,-0c0.005,-0 0.01,-0.001 0.015,-0.002c0.005,-0.002 0.01,-0.004 0.014,-0.007c0.004,-0.003 0.007,-0.007 0.01,-0.012c0.003,-0.005 0.004,-0.011 0.004,-0.018c-0,-0.008 -0.001,-0.016 -0.003,-0.023c-0.002,-0.008 -0.004,-0.014 -0.006,-0.02l-0.035,-0.1l-0.243,0Zm0.17,-0.225c-0.003,-0.011 -0.007,-0.023 -0.011,-0.036c-0.004,-0.012 -0.007,-0.025 -0.011,-0.038c-0.004,-0.013 -0.007,-0.026 -0.011,-0.039c-0.003,-0.013 -0.006,-0.025 -0.009,-0.037c-0.003,0.01 -0.006,0.021 -0.01,0.033c-0.004,0.012 -0.008,0.025 -0.013,0.037c-0.004,0.013 -0.008,0.026 -0.013,0.039c-0.004,0.012 -0.008,0.024 -0.012,0.036l-0.059,0.169l0.202,0l-0.053,-0.164Z" style="fill-rule:nonzero;stroke:#030000;stroke-width:0.03px;"/></g><g transform="matrix(30.7704,-8.78552,8.78552,30.7704,270.172,348.052)"><path d="M0.425,-0.07c0.024,0 0.046,-0.003 0.065,-0.008c0.019,-0.006 0.036,-0.013 0.051,-0.023c0.015,-0.009 0.028,-0.019 0.039,-0.03c0.012,-0.012 0.021,-0.023 0.03,-0.034c0.005,0.004 0.009,0.01 0.012,0.018c0.003,0.008 0.005,0.016 0.005,0.025c-0,0.014 -0.004,0.029 -0.011,0.044c-0.008,0.016 -0.02,0.03 -0.038,0.043c-0.017,0.013 -0.041,0.024 -0.07,0.032c-0.029,0.009 -0.064,0.013 -0.107,0.013c-0.058,-0 -0.109,-0.009 -0.152,-0.027c-0.043,-0.017 -0.079,-0.042 -0.108,-0.074c-0.029,-0.033 -0.05,-0.071 -0.064,-0.117c-0.015,-0.045 -0.022,-0.095 -0.022,-0.15c0,-0.054 0.007,-0.103 0.022,-0.148c0.015,-0.045 0.037,-0.084 0.065,-0.116c0.029,-0.032 0.065,-0.057 0.108,-0.075c0.043,-0.018 0.093,-0.027 0.15,-0.027c0.038,-0 0.072,0.003 0.1,0.009c0.029,0.006 0.052,0.014 0.071,0.025c0.019,0.01 0.033,0.022 0.043,0.036c0.009,0.015 0.014,0.03 0.014,0.046c-0,0.012 -0.003,0.024 -0.008,0.035c-0.005,0.01 -0.013,0.019 -0.024,0.027c-0.011,0.008 -0.024,0.014 -0.039,0.018c-0.016,0.005 -0.034,0.007 -0.054,0.007c-0,-0.017 -0.002,-0.033 -0.005,-0.05c-0.004,-0.016 -0.01,-0.031 -0.019,-0.044c-0.008,-0.014 -0.02,-0.024 -0.034,-0.033c-0.014,-0.008 -0.031,-0.012 -0.052,-0.012c-0.032,-0 -0.058,0.007 -0.08,0.02c-0.022,0.013 -0.039,0.033 -0.053,0.058c-0.013,0.026 -0.022,0.058 -0.028,0.095c-0.006,0.038 -0.009,0.081 -0.009,0.129c0,0.048 0.004,0.09 0.011,0.127c0.007,0.036 0.019,0.066 0.035,0.09c0.016,0.024 0.036,0.041 0.062,0.053c0.025,0.012 0.057,0.018 0.094,0.018Z" style="fill-rule:nonzero;stroke:#030000;stroke-width:0.03px;"/></g><g transform="matrix(29.3057,-12.8521,12.8521,29.3057,298.597,339.348)"><path d="M0.28,-0.061l0.2,-0c0.01,-0 0.019,-0.002 0.026,-0.006c0.007,-0.003 0.013,-0.009 0.018,-0.016c0.006,-0.006 0.01,-0.014 0.013,-0.024c0.003,-0.009 0.005,-0.019 0.007,-0.03l0.008,-0.047l0.069,-0l-0.007,0.184l-0.586,-0l-0,-0.053l0.042,-0c0.007,-0 0.014,-0.001 0.02,-0.002c0.006,-0.001 0.011,-0.004 0.016,-0.008c0.005,-0.004 0.009,-0.01 0.011,-0.018c0.003,-0.008 0.004,-0.019 0.004,-0.032l0,-0.483c0,-0.015 -0.001,-0.026 -0.004,-0.034c-0.002,-0.009 -0.006,-0.015 -0.011,-0.02c-0.004,-0.004 -0.009,-0.007 -0.016,-0.009c-0.006,-0.001 -0.013,-0.002 -0.02,-0.002l-0.042,-0l-0,-0.053l0.555,0l0.004,0.184l-0.07,0l-0.005,-0.047c-0.002,-0.025 -0.009,-0.043 -0.018,-0.056c-0.01,-0.013 -0.025,-0.02 -0.046,-0.02l-0.168,0l-0,0.25l0.237,0l0,0.06l-0.237,0l-0,0.282Z" style="fill-rule:nonzero;stroke:#030000;stroke-width:0.03px;"/></g><g transform="matrix(27.1684,-16.9079,16.9079,27.1684,325.146,327.158)"><path d="M0.028,-0.053l0.042,-0c0.007,-0 0.013,-0.001 0.019,-0.002c0.007,-0.001 0.012,-0.004 0.017,-0.008c0.004,-0.004 0.008,-0.01 0.011,-0.018c0.003,-0.008 0.004,-0.019 0.004,-0.032l0,-0.487c0,-0.013 -0.001,-0.024 -0.004,-0.032c-0.003,-0.008 -0.007,-0.014 -0.011,-0.018c-0.005,-0.005 -0.01,-0.007 -0.017,-0.009c-0.006,-0.001 -0.012,-0.002 -0.019,-0.002l-0.042,-0l-0,-0.053l0.322,0c0.094,0 0.164,0.016 0.208,0.047c0.044,0.032 0.066,0.078 0.066,0.138c0,0.027 -0.004,0.05 -0.012,0.071c-0.008,0.02 -0.018,0.038 -0.031,0.053c-0.013,0.016 -0.027,0.028 -0.043,0.039c-0.017,0.011 -0.033,0.019 -0.05,0.026l0.119,0.205c0.008,0.015 0.017,0.027 0.025,0.037c0.008,0.01 0.016,0.019 0.024,0.025c0.007,0.007 0.016,0.012 0.024,0.015c0.009,0.003 0.018,0.005 0.027,0.005l0.004,-0l-0,0.053l-0.033,0c-0.03,0 -0.056,-0.001 -0.078,-0.003c-0.022,-0.003 -0.042,-0.007 -0.059,-0.014c-0.017,-0.007 -0.031,-0.016 -0.043,-0.027c-0.012,-0.012 -0.024,-0.027 -0.034,-0.046l-0.119,-0.22l-0.066,-0l-0,0.197c-0,0.013 0.001,0.024 0.004,0.032c0.003,0.008 0.006,0.014 0.011,0.018c0.005,0.004 0.01,0.007 0.017,0.008c0.006,0.001 0.012,0.002 0.019,0.002l0.043,-0l0,0.053l-0.345,-0l-0,-0.053Zm0.251,-0.315l0.056,-0c0.023,-0 0.042,-0.003 0.058,-0.009c0.015,-0.007 0.028,-0.016 0.037,-0.028c0.009,-0.012 0.016,-0.028 0.02,-0.046c0.004,-0.018 0.006,-0.04 0.006,-0.064c0,-0.026 -0.002,-0.047 -0.007,-0.065c-0.004,-0.017 -0.012,-0.032 -0.021,-0.043c-0.01,-0.011 -0.023,-0.019 -0.038,-0.024c-0.016,-0.005 -0.035,-0.008 -0.057,-0.008l-0.054,0l-0,0.287Z" style="fill-rule:nonzero;stroke:#030000;stroke-width:0.03px;"/></g><g transform="matrix(26.0375,-18.6023,18.6023,26.0375,351.304,310.629)"><path d="M0.28,-0.061l0.2,-0c0.01,-0 0.019,-0.002 0.026,-0.006c0.007,-0.003 0.013,-0.009 0.018,-0.016c0.006,-0.006 0.01,-0.014 0.013,-0.024c0.003,-0.009 0.005,-0.019 0.007,-0.03l0.008,-0.047l0.069,-0l-0.007,0.184l-0.586,-0l-0,-0.053l0.042,-0c0.007,-0 0.014,-0.001 0.02,-0.002c0.006,-0.001 0.011,-0.004 0.016,-0.008c0.005,-0.004 0.009,-0.01 0.011,-0.018c0.003,-0.008 0.004,-0.019 0.004,-0.032l0,-0.483c0,-0.015 -0.001,-0.026 -0.004,-0.034c-0.002,-0.009 -0.006,-0.015 -0.011,-0.02c-0.004,-0.004 -0.009,-0.007 -0.016,-0.009c-0.006,-0.001 -0.013,-0.002 -0.02,-0.002l-0.042,-0l-0,-0.053l0.555,0l0.004,0.184l-0.07,0l-0.005,-0.047c-0.002,-0.025 -0.009,-0.043 -0.018,-0.056c-0.01,-0.013 -0.025,-0.02 -0.046,-0.02l-0.168,0l-0,0.25l0.237,0l0,0.06l-0.237,0l-0,0.282Z" style="fill-rule:nonzero;stroke:#030000;stroke-width:0.03px;"/></g></g></g><g id="star"><path d="M1121.21,421.025l-82.97,97.052l10.078,127.285l-117.941,-162.332l190.833,-62.005Z" style="fill:#d7b97e;"/><path d="M930.381,596.444l-117.941,48.918l117.941,-162.332l0,113.414Z" style="fill:#d7b97e;"/><path d="M739.549,421.025l124.169,-29.749l66.663,91.754l-190.832,-62.005Z" style="fill:#d7b97e;"/><path d="M930.381,282.377l66.663,108.899l-66.663,91.754l0,-200.653Z" style="fill:#d7b97e;"/><path d="M863.718,391.276l66.663,-108.899l0,200.653l-66.663,-91.754Z" style="fill:#e3d2b0;"/><path id="frame" d="M930.381,282.377l66.663,108.899l124.17,29.749l-82.97,97.052l10.078,127.285l-117.941,-48.918l-117.941,48.918l10.078,-127.285l-82.969,-97.052l124.169,-29.749l66.663,-108.899Zm0,-0l0,315.078m-190.832,-176.43l297.456,96.649m-224.565,127.688l185.542,-255.376m-135.201,0l185.541,255.376m-117.941,-162.332l190.833,-62.005" style="fill:none;stroke:#000;stroke-width:8.33px;stroke-linecap:round;stroke-miterlimit:1.5;"/></g></svg>