<svg xmlns="http://www.w3.org/2000/svg" xml:space="preserve" style="fill-rule:evenodd;clip-rule:evenodd;stroke-linejoin:round;stroke-miterlimit:2" viewBox="0 0 3300 600"><path d="M2268.78 277.836v-1.367h.467a3.7 3.7 0 0 0 1.15-.166q.516-.166.8-.684.283-.516.283-1.55v-16.4q0-1-.3-1.483t-.783-.633q-.484-.15-1.117-.15h-.5v-1.367h8.2q3.7 0 5.45 1.833 1.75 1.834 1.75 5.134 0 1.5-.416 2.85a6.9 6.9 0 0 1-1.334 2.433q-.916 1.083-2.416 1.683t-3.667.6h-1.7v5.667q0 .967.317 1.45.316.483.833.633t1.117.15h.866v1.367zm7.3-10.8q1.267 0 2.167-.317a3.17 3.17 0 0 0 1.467-1.033q.566-.717.85-1.833.283-1.117.283-2.717 0-2.8-1-4.167t-3.333-1.366h-1.867v11.433zm10.07 10.8v-1.367h.467q.6 0 1.116-.15t.817-.633.3-1.45v-16.567q0-1-.317-1.483-.316-.483-.816-.633t-1.1-.15h-.467v-1.367h7.9q2.6 0 4.267.667 1.666.666 2.45 2.066.783 1.401.783 3.567 0 1.867-.583 3.117-.584 1.25-1.55 2-.968.75-2.067 1.15l3.833 7.2q.734 1.3 1.4 1.983.667.683 1.534.683h.1v1.367h-.5q-1.6 0-2.6-.233t-1.684-.884q-.683-.65-1.283-1.883l-3.767-7.5h-2.366v6.9q0 .967.3 1.45t.783.633 1.117.15h.333v1.367zm7.533-12.033q2.434 0 3.484-1.367t1.05-3.967q0-1.666-.434-2.75-.434-1.083-1.383-1.6-.95-.516-2.517-.516h-1.866v10.2zm11.437 12.033v-1.367h.533q.633 0 1.117-.166.483-.167.766-.65.284-.484.284-1.417v-16.433q0-1.067-.284-1.567-.283-.5-.766-.667a3.4 3.4 0 0 0-1.117-.166h-.533v-1.367h14.6l.133 5.8h-1.567l-.166-1.4a4 4 0 0 0-.3-1.367 2.35 2.35 0 0 0-.8-1.016q-.534-.384-1.4-.384h-4.634v8.9h6.8v1.6h-6.8v10.034h5.334q.933 0 1.483-.384a2.53 2.53 0 0 0 .85-1.016q.3-.633.4-1.367l.167-1.4h1.6l-.2 5.8zm24.26.333q-1.566 0-2.716-.333t-1.9-.95a3.9 3.9 0 0 1-1.117-1.45 4.5 4.5 0 0 1-.367-1.833q0-.7.284-1.217.282-.516.766-.8.483-.283 1.184-.283.066 1.5.55 2.716.483 1.218 1.383 1.9.9.684 2.167.684 1.833 0 2.833-1.084 1-1.083 1-3.05 0-1.367-.483-2.283-.484-.917-1.484-1.667t-2.633-1.55q-1.7-.9-2.833-1.9a6.3 6.3 0 0 1-1.684-2.316q-.55-1.317-.55-3.15 0-1.8.834-3.117a5.7 5.7 0 0 1 2.25-2.05q1.416-.733 3.216-.733 1.766 0 2.984.55 1.216.55 1.85 1.4.633.85.633 1.816 0 1.068-.617 1.567-.616.5-1.783.5 0-1.1-.35-2.067a3.53 3.53 0 0 0-1.083-1.566q-.734-.6-1.9-.6-1.6 0-2.45 1.05t-.85 2.85q0 1.234.4 2.116.4.884 1.366 1.6t2.634 1.584q1.733.832 2.916 1.8 1.184.966 1.8 2.216t.617 3.05q0 2.134-.867 3.584a5.8 5.8 0 0 1-2.416 2.233q-1.55.783-3.584.783m9.2-.333v-1.367h.567q.6 0 1.083-.166t.767-.684q.283-.516.283-1.483v-16.333q0-1.033-.283-1.534-.284-.5-.767-.683a3 3 0 0 0-1.083-.183h-.567v-1.367h8.567v1.367h-.6q-.6 0-1.083.183-.484.183-.75.683-.267.5-.267 1.534v16.3q0 .999.267 1.5.266.5.766.683t1.067.183h.6v1.367zm10.6 0v-1.367h.567q.633 0 1.117-.183.483-.183.75-.7.266-.516.266-1.517v-16.4q0-.966-.283-1.45a1.4 1.4 0 0 0-.783-.65 3.6 3.6 0 0 0-1.134-.166h-.5v-1.367h8.834q2.966 0 5.066 1.4t3.217 4.05 1.117 6.45q0 3.633-1.05 6.317-1.05 2.683-3.134 4.133t-5.216 1.45zm8.167-1.667q2.234 0 3.683-1.183 1.45-1.183 2.2-3.467t.75-5.583-.733-5.6-2.2-3.483q-1.467-1.184-3.667-1.184h-2.333v20.5zm12.733 1.667v-1.367h.534q.633 0 1.116-.166a1.4 1.4 0 0 0 .767-.65q.283-.484.283-1.417v-16.433q0-1.067-.283-1.567-.284-.5-.767-.667a3.4 3.4 0 0 0-1.116-.166h-.534v-1.367h14.6l.134 5.8h-1.567l-.167-1.4a4 4 0 0 0-.3-1.367 2.34 2.34 0 0 0-.8-1.016q-.533-.384-1.4-.384h-4.633v8.9h6.8v1.6h-6.8v10.034h5.333q.933 0 1.484-.384.55-.383.85-1.016t.4-1.367l.166-1.4h1.6l-.2 5.8zm17.87 0v-1.367h.4q.7 0 1.217-.166.516-.166.8-.684.283-.516.283-1.55v-16.4q0-1-.283-1.483a1.33 1.33 0 0 0-.784-.633 4 4 0 0 0-1.166-.15h-.467v-1.367h5.5l10.067 18.7v-15.067q0-.966-.3-1.45a1.48 1.48 0 0 0-.8-.65 3.6 3.6 0 0 0-1.134-.166h-.466v-1.367h7.2v1.367h-.5q-.634 0-1.134.183t-.783.683-.283 1.534v20.033h-2.2l-10.667-19.633v15.866q0 1.034.267 1.55.266.517.783.684.517.166 1.15.166h.5v1.367zm24.96 0v-1.367h.6q.633 0 1.183-.15t.883-.633.334-1.45v-18.567h-2.667q-1.2 0-1.7.834-.5.833-.633 1.933l-.134 1.4h-1.533l.133-5.8h16.3l.134 5.8h-1.534l-.166-1.4q-.1-1.1-.6-1.933-.501-.834-1.767-.834h-2.667v18.4q0 1.034.317 1.55.316.517.867.684.55.166 1.216.166h.6v1.367zm31.5.333q-3.067 0-5.084-1.533t-3-4.3-.983-6.467.983-6.433 3.017-4.25 5.1-1.517q2.9 0 4.917 1.517t3.066 4.267q1.05 2.75 1.05 6.45 0 3.699-1.05 6.45-1.05 2.75-3.066 4.283t-4.95 1.533m0-1.766q2.066 0 3.316-1.25t1.784-3.6q.533-2.35.533-5.65 0-3.333-.55-5.667t-1.767-3.567-3.283-1.233q-3.033 0-4.35 2.75t-1.317 7.717q0 3.3.567 5.65.567 2.349 1.817 3.6t3.25 1.25m11.71 1.433v-1.367h.433q.7 0 1.2-.166t.783-.634q.284-.466.284-1.433v-16.567q0-.966-.284-1.45a1.4 1.4 0 0 0-.783-.65 3.5 3.5 0 0 0-1.1-.166h-.533v-1.367h14.566l.167 5.8h-1.567l-.166-1.433a4 4 0 0 0-.667-1.9q-.567-.834-1.867-.834h-4.6v9.667h6.834v1.633h-6.834v7.134q0 .999.284 1.5.282.5.833.683t1.217.183h.9v1.367zm27.5 0v-1.367h.6q.633 0 1.183-.15t.883-.633q.334-.483.334-1.45v-18.567h-2.667q-1.2 0-1.7.834-.5.833-.633 1.933l-.134 1.4h-1.533l.133-5.8h16.3l.134 5.8h-1.534l-.166-1.4q-.1-1.1-.6-1.933-.501-.834-1.767-.834h-2.667v18.4q0 1.034.317 1.55.316.517.867.684.55.166 1.216.166h.6v1.367zm14.5 0v-1.367h.566q.633 0 1.117-.183.483-.183.75-.683.267-.501.267-1.5v-16.434q0-.966-.284-1.45a1.4 1.4 0 0 0-.783-.65 3.7 3.7 0 0 0-1.167-.166h-.466v-1.367h8.4v1.367h-.434q-.6 0-1.083.166-.483.168-.75.667-.267.5-.267 1.5v6.833h8.9v-6.8q0-1.033-.25-1.533a1.26 1.26 0 0 0-.75-.667 3.6 3.6 0 0 0-1.133-.166h-.433v-1.367h8.433v1.367h-.567q-.6 0-1.1.166a1.33 1.33 0 0 0-.766.667q-.267.5-.267 1.533v16.467q0 .934.283 1.417.284.483.767.65a3.3 3.3 0 0 0 1.083.166h.567v1.367h-8.433v-1.367h.433q.633 0 1.133-.183.501-.183.75-.7.25-.516.25-1.517v-7.866h-8.9v7.9q0 .999.267 1.5.267.5.75.683t1.083.183h.434v1.367zm22.7 0v-1.367h.533q.633 0 1.117-.166.483-.167.766-.65.284-.484.284-1.417v-16.433q0-1.067-.284-1.567-.283-.5-.766-.667a3.4 3.4 0 0 0-1.117-.166h-.533v-1.367h14.6l.133 5.8h-1.567l-.166-1.4a4 4 0 0 0-.3-1.367 2.35 2.35 0 0 0-.8-1.016q-.534-.384-1.4-.384h-4.634v8.9h6.8v1.6h-6.8v10.034h5.334q.933 0 1.483-.384a2.53 2.53 0 0 0 .85-1.016q.3-.633.4-1.367l.167-1.4h1.6l-.2 5.8zm34.53.333q-2.2 0-3.833-.75t-2.5-2.416-.867-4.367v-12.967q0-1-.317-1.483a1.47 1.47 0 0 0-.833-.633q-.517-.15-1.15-.15h-.4v-1.367h8.533v1.367h-.366q-.667 0-1.184.166a1.46 1.46 0 0 0-.816.667q-.3.5-.3 1.567v13.033q0 2.934 1.283 4.15t3.35 1.217q1.6 0 2.617-.7a4.35 4.35 0 0 0 1.533-1.884q.517-1.183.517-2.683v-13.267q0-1-.317-1.483-.316-.483-.817-.633a4 4 0 0 0-1.166-.15h-.367v-1.367h7.167v1.367h-.367q-.668 0-1.2.166a1.46 1.46 0 0 0-.833.667q-.3.5-.3 1.567v13.2q0 2.2-.784 3.8a5.6 5.6 0 0 1-2.366 2.483q-1.584.883-3.917.883m11.23-.333v-1.367h.4q.7 0 1.217-.166.516-.166.8-.684.283-.516.283-1.55v-16.4q0-1-.283-1.483a1.33 1.33 0 0 0-.783-.633q-.501-.15-1.167-.15h-.467v-1.367h5.5l10.067 18.7v-15.067q0-.966-.3-1.45a1.48 1.48 0 0 0-.8-.65 3.6 3.6 0 0 0-1.133-.166h-.467v-1.367h7.2v1.367h-.5q-.633 0-1.133.183t-.784.683q-.283.5-.283 1.534v20.033h-2.2l-10.667-19.633v15.866q0 1.034.267 1.55.267.517.783.684a3.7 3.7 0 0 0 1.15.166h.5v1.367zm21.8 0v-1.367h.567q.6 0 1.083-.166t.767-.684q.283-.516.283-1.483v-16.333q0-1.033-.283-1.534-.284-.5-.767-.683a3 3 0 0 0-1.083-.183h-.567v-1.367h8.567v1.367h-.6q-.6 0-1.083.183-.485.183-.75.683-.267.5-.267 1.534v16.3q0 .999.267 1.5.266.5.766.683t1.067.183h.6v1.367zm11.97-20.667q-.2-.699-.45-1.083a1.35 1.35 0 0 0-.617-.533q-.366-.15-.9-.15h-.433v-1.367h8.033v1.367h-.666q-.867 0-1.267.333t-.4 1q0 .2.033.467t.117.533q.082.267.15.567l2.967 10.9q.3 1 .516 1.9t.4 1.7q.183.8.35 1.6a82 82 0 0 1 .35-1.6 51 51 0 0 1 .417-1.684q.233-.882.533-1.95l3.034-10.633q.1-.3.166-.617.067-.316.1-.6.034-.283.034-.516 0-.734-.434-1.067-.433-.333-1.366-.333h-.7v-1.367h6.933v1.367h-.467q-.6 0-.966.2-.368.2-.65.75-.284.549-.617 1.65l-5.767 19.833h-2.433zm17.93 20.667v-1.367h.534q.633 0 1.116-.166a1.4 1.4 0 0 0 .767-.65q.283-.484.283-1.417v-16.433q0-1.067-.283-1.567-.284-.5-.767-.667a3.4 3.4 0 0 0-1.116-.166h-.534v-1.367h14.6l.134 5.8h-1.567l-.167-1.4a4 4 0 0 0-.3-1.367 2.34 2.34 0 0 0-.8-1.016q-.533-.384-1.4-.384h-4.633v8.9h6.8v1.6h-6.8v10.034h5.333q.933 0 1.484-.384.55-.383.85-1.016t.4-1.367l.166-1.4h1.6l-.2 5.8zm17.87 0v-1.367h.467q.6 0 1.116-.15t.817-.633.3-1.45v-16.567q0-1-.317-1.483-.316-.483-.816-.633t-1.1-.15h-.467v-1.367h7.9q2.6 0 4.267.667 1.666.666 2.45 2.066.783 1.401.783 3.567 0 1.867-.583 3.117-.584 1.25-1.55 2-.968.75-2.067 1.15l3.833 7.2q.734 1.3 1.4 1.983.667.683 1.534.683h.1v1.367h-.5q-1.6 0-2.6-.233t-1.684-.884q-.683-.65-1.283-1.883l-3.767-7.5h-2.366v6.9q0 .967.3 1.45t.783.633 1.117.15h.333v1.367zm7.533-12.033q2.434 0 3.484-1.367t1.05-3.967q0-1.666-.434-2.75-.434-1.083-1.383-1.6-.95-.516-2.517-.516h-1.866v10.2zm17.827 12.366q-1.567 0-2.717-.333t-1.9-.95a3.9 3.9 0 0 1-1.117-1.45 4.5 4.5 0 0 1-.366-1.833q0-.7.283-1.217.283-.516.767-.8.483-.283 1.183-.283.066 1.5.55 2.716.483 1.218 1.383 1.9.9.684 2.167.684 1.833 0 2.833-1.084 1-1.083 1-3.05 0-1.367-.483-2.283-.483-.917-1.483-1.667t-2.634-1.55q-1.7-.9-2.833-1.9a6.3 6.3 0 0 1-1.683-2.316q-.55-1.317-.55-3.15 0-1.8.833-3.117a5.7 5.7 0 0 1 2.25-2.05q1.416-.733 3.217-.733 1.766 0 2.983.55t1.85 1.4.633 1.816q0 1.068-.616 1.567-.617.5-1.784.5 0-1.1-.35-2.067-.35-.966-1.083-1.566t-1.9-.6q-1.6 0-2.45 1.05t-.85 2.85q0 1.234.4 2.116.4.884 1.367 1.6.966.717 2.633 1.584 1.733.832 2.917 1.8 1.182.966 1.8 2.216.616 1.25.616 3.05 0 2.134-.866 3.584a5.8 5.8 0 0 1-2.417 2.233q-1.55.783-3.583.783m9.21-.333v-1.367h.566q.6 0 1.084-.166.483-.166.766-.684.284-.516.284-1.483v-16.333q0-1.033-.284-1.534-.283-.5-.766-.683a3 3 0 0 0-1.084-.183h-.566v-1.367h8.566v1.367h-.6q-.6 0-1.083.183t-.75.683-.267 1.534v16.3q0 .999.267 1.5.267.5.767.683t1.066.183h.6v1.367zm13.76 0v-1.367h.6q.633 0 1.184-.15t.883-.633q.333-.483.333-1.45v-18.567h-2.666q-1.2 0-1.7.834-.5.833-.634 1.933l-.133 1.4h-1.533l.133-5.8h16.3l.133 5.8h-1.533l-.167-1.4q-.099-1.1-.6-1.933-.5-.834-1.766-.834h-2.667v18.4q0 1.034.317 1.55.317.517.866.684a4.2 4.2 0 0 0 1.217.166h.6v1.367zm18.03 0v-1.367h.566q.667 0 1.2-.166.534-.167.85-.667.317-.5.317-1.467v-6.433l-5.233-10.567a7 7 0 0 0-.567-1.016 1.74 1.74 0 0 0-.617-.567q-.35-.183-.85-.183h-.366v-1.367h8v1.367h-.834q-.8 0-1.066.316-.267.317-.267.717t.167.9.333.867l2.1 4.4q.5 1 .867 1.916.366.918.6 1.684.266-.667.7-1.617l.9-1.983 1.8-3.734q.3-.633.45-1.183t.15-.95q0-.733-.484-1.033-.483-.3-1.316-.3h-.7v-1.367h6.933v1.367h-.3q-.434 0-.783.233-.35.234-.734.8-.383.567-.883 1.567l-4.8 9.733v6.267q0 1.034.317 1.566.316.534.85.717.533.183 1.166.183h.634v1.367zM545.564 453.028q-1.567 0-2.716-.333t-1.9-.95a3.9 3.9 0 0 1-1.117-1.45 4.5 4.5 0 0 1-.367-1.833q0-.7.284-1.217.282-.517.766-.8.483-.283 1.184-.283.066 1.5.55 2.716.483 1.217 1.383 1.9.9.684 2.167.684 1.833 0 2.833-1.084 1-1.083 1-3.05 0-1.366-.483-2.283-.484-.917-1.484-1.667t-2.633-1.55q-1.7-.9-2.833-1.9a6.3 6.3 0 0 1-1.684-2.316q-.55-1.317-.55-3.15 0-1.8.834-3.117a5.7 5.7 0 0 1 2.25-2.05q1.416-.733 3.216-.733 1.766 0 2.984.55 1.216.55 1.85 1.4.633.85.633 1.816 0 1.067-.617 1.567-.616.5-1.783.5 0-1.1-.35-2.067a3.53 3.53 0 0 0-1.083-1.566q-.734-.6-1.9-.6-1.6 0-2.45 1.05t-.85 2.85q0 1.233.4 2.116t1.366 1.6 2.634 1.584q1.732.832 2.916 1.8 1.183.966 1.8 2.216t.617 3.05q0 2.133-.867 3.584a5.8 5.8 0 0 1-2.416 2.233q-1.55.783-3.584.783m9.2-.333v-1.367h.534q.633 0 1.116-.166.483-.168.767-.65.283-.484.283-1.417v-16.433q0-1.068-.283-1.567-.284-.5-.767-.667a3.4 3.4 0 0 0-1.116-.166h-.534v-1.367h14.6l.134 5.8h-1.567l-.167-1.4a4 4 0 0 0-.3-1.367 2.34 2.34 0 0 0-.8-1.016q-.533-.384-1.4-.384h-4.633v8.9h6.8v1.6h-6.8v10.034h5.333q.933 0 1.484-.384.55-.383.85-1.016.3-.634.4-1.367l.166-1.4h1.6l-.2 5.8zm27.234.333q-2.868 0-4.834-1.533-1.967-1.533-2.966-4.283t-1-6.45q0-3.667 1.033-6.4 1.034-2.734 3.083-4.267t5.084-1.533q1.932 0 3.266.516 1.334.517 2 1.367.667.85.667 1.883 0 1.034-.717 1.634-.716.6-1.883.6 0-1.067-.333-2.034a3.53 3.53 0 0 0-1.1-1.6q-.768-.633-2.134-.633-1.967 0-3.2 1.25t-1.783 3.6-.55 5.617q0 3.166.617 5.483.616 2.316 1.9 3.567 1.283 1.25 3.35 1.25 1.433 0 2.416-.417a5 5 0 0 0 1.65-1.1q.668-.684 1.2-1.483.2.133.35.466t.15.734q0 .6-.366 1.25-.367.65-1.117 1.216-.75.567-1.933.934-1.183.366-2.85.366m8.4-.333v-1.367h.466q.6 0 1.117-.15a1.4 1.4 0 0 0 .817-.633q.3-.483.3-1.45v-16.567q0-1-.317-1.483-.316-.483-.817-.633t-1.1-.15h-.466v-1.367h7.9q2.6 0 4.266.667 1.667.666 2.45 2.066t.784 3.567q0 1.866-.584 3.117-.583 1.25-1.55 2-.966.75-2.066 1.15l3.833 7.2q.733 1.299 1.4 1.983.666.683 1.533.683h.1v1.367h-.5q-1.6 0-2.6-.233t-1.683-.884q-.683-.65-1.283-1.883l-3.767-7.5h-2.367v6.9q0 .966.3 1.45.3.483.784.633.483.15 1.116.15h.334v1.367zm7.533-12.033q2.433 0 3.483-1.367t1.05-3.967q0-1.667-.433-2.75t-1.383-1.6-2.517-.516h-1.867v10.2zm11.433 12.033v-1.367h.534q.633 0 1.116-.166.483-.168.767-.65.283-.484.283-1.417v-16.433q0-1.068-.283-1.567-.284-.5-.767-.667a3.4 3.4 0 0 0-1.116-.166h-.534v-1.367h14.6l.134 5.8h-1.567l-.167-1.4a4 4 0 0 0-.3-1.367 2.34 2.34 0 0 0-.8-1.016q-.533-.384-1.4-.384h-4.633v8.9h6.8v1.6h-6.8v10.034h5.333q.933 0 1.484-.384.55-.383.85-1.016.3-.634.4-1.367l.166-1.4h1.6l-.2 5.8zm21.034 0v-1.367h.6q.633 0 1.183-.15t.883-.633.334-1.45v-18.567h-2.667q-1.2 0-1.7.834-.5.833-.633 1.933l-.134 1.4h-1.533l.133-5.8h16.3l.134 5.8h-1.534l-.166-1.4q-.1-1.1-.6-1.933-.501-.834-1.767-.834h-2.667v18.4q0 1.034.317 1.55.317.517.867.684.55.166 1.216.166h.6v1.367zm11.733 0v-1.367h.5q.567 0 .917-.2t.65-.766.633-1.634l6.267-19.833h2.5l6.433 20.833q.2.634.45.967t.65.483.967.15h.3v1.367h-8.1v-1.367h.666q.867 0 1.284-.366.416-.367.416-1.034a2.7 2.7 0 0 0-.05-.5l-.116-.6a5 5 0 0 0-.167-.633l-1.033-3.5h-7.367l-.967 3.267a4 4 0 0 0-.166.6 31 31 0 0 1-.134.633q-.066.3-.066.6 0 .7.433 1.117.433.416 1.4.416h.733v1.367zm6.367-9.633h6.266l-1.766-6.2a60 60 0 0 0-.534-1.884 29 29 0 0 1-.45-1.65 64 64 0 0 0-.35-1.4q-.133.633-.316 1.384a57 57 0 0 1-.4 1.533 35 35 0 0 1-.517 1.683zm14.933 9.633v-1.367h.467q.6 0 1.116-.15t.817-.633q.3-.483.3-1.45v-16.567q0-1-.317-1.483t-.816-.633-1.1-.15h-.467v-1.367h7.9q2.6 0 4.267.667 1.666.666 2.45 2.066.783 1.4.783 3.567 0 1.866-.583 3.117-.584 1.25-1.55 2t-2.067 1.15l3.833 7.2q.734 1.299 1.4 1.983.667.683 1.534.683h.1v1.367h-.5q-1.6 0-2.6-.233t-1.684-.884q-.683-.65-1.283-1.883l-3.767-7.5h-2.366v6.9q0 .966.3 1.45.3.483.783.633t1.117.15h.333v1.367zm7.533-12.033q2.433 0 3.484-1.367 1.05-1.366 1.05-3.967 0-1.667-.434-2.75-.433-1.083-1.383-1.6-.95-.516-2.517-.516h-1.866v10.2zm14.2 12.033v-1.367h.567q.666 0 1.2-.166a1.53 1.53 0 0 0 .85-.667q.317-.5.317-1.467v-6.433l-5.234-10.567a7 7 0 0 0-.566-1.016 1.75 1.75 0 0 0-.617-.567q-.35-.183-.85-.183h-.367v-1.367h8v1.367h-.833q-.8 0-1.067.316a1.08 1.08 0 0 0-.266.717q0 .4.166.9t.334.867l2.1 4.4a25 25 0 0 1 .866 1.916q.368.916.6 1.684.267-.667.7-1.617t.9-1.983l1.8-3.734q.3-.633.45-1.183t.15-.95q0-.733-.483-1.033t-1.317-.3h-.7v-1.367h6.934v1.367h-.3q-.433 0-.784.233-.35.233-.733.8-.384.567-.883 1.567l-4.8 9.733v6.267q0 1.033.316 1.566.317.534.85.717.534.183 1.167.183h.633v1.367zm31.567.333q-3.067 0-5.083-1.533-2.018-1.534-3-4.3-.984-2.767-.984-6.467t.984-6.433q.983-2.733 3.016-4.25t5.1-1.517q2.9 0 4.917 1.517t3.067 4.267 1.05 6.45-1.05 6.45-3.067 4.283-4.95 1.533m0-1.766q2.067 0 3.317-1.25t1.783-3.6.533-5.65q0-3.335-.55-5.667-.55-2.334-1.766-3.567-1.217-1.233-3.284-1.233-3.033 0-4.35 2.75t-1.316 7.717q0 3.3.566 5.65.567 2.349 1.817 3.6t3.25 1.25m11.7 1.433v-1.367h.433q.7 0 1.2-.166.5-.168.784-.634.282-.467.283-1.433v-16.567q0-.967-.283-1.45a1.4 1.4 0 0 0-.784-.65 3.5 3.5 0 0 0-1.1-.166h-.533v-1.367h14.567l.166 5.8h-1.566l-.167-1.433a4 4 0 0 0-.667-1.9q-.567-.834-1.866-.834h-4.6v9.667h6.833v1.633h-6.833v7.134q0 .999.283 1.5.284.5.833.683.55.183 1.217.183h.9v1.367zm27.5 0v-1.367h.6q.634 0 1.183-.15.55-.15.884-.633t.333-1.45v-18.567h-2.667q-1.2 0-1.7.834-.5.833-.633 1.933l-.133 1.4h-1.534l.134-5.8h16.3l.133 5.8h-1.533l-.167-1.4q-.1-1.1-.6-1.933-.5-.834-1.767-.834h-2.666v18.4q0 1.034.316 1.55.316.517.867.684a4.2 4.2 0 0 0 1.217.166h.6v1.367zm14.5 0v-1.367h.567q.633 0 1.116-.183t.75-.683.267-1.5v-16.434q0-.967-.283-1.45a1.4 1.4 0 0 0-.784-.65 3.7 3.7 0 0 0-1.166-.166h-.467v-1.367h8.4v1.367h-.433q-.6 0-1.084.166-.483.167-.75.667-.266.5-.266 1.5v6.833h8.9v-6.8q0-1.033-.25-1.533a1.27 1.27 0 0 0-.75-.667 3.6 3.6 0 0 0-1.134-.166h-.433v-1.367h8.433v1.367h-.566q-.6 0-1.1.166a1.33 1.33 0 0 0-.767.667q-.267.5-.267 1.533v16.467q0 .933.284 1.417.283.483.766.65.483.166 1.084.166h.566v1.367h-8.433v-1.367h.433q.633 0 1.134-.183.5-.184.75-.7.25-.517.25-1.517v-7.866h-8.9v7.9q0 .999.266 1.5.267.5.75.683.484.183 1.084.183h.433v1.367zm22.7 0v-1.367h.533q.633 0 1.117-.166.483-.168.767-.65.283-.484.283-1.417v-16.433q0-1.068-.283-1.567-.284-.5-.767-.667a3.4 3.4 0 0 0-1.117-.166h-.533v-1.367h14.6l.133 5.8h-1.566l-.167-1.4a4 4 0 0 0-.3-1.367 2.35 2.35 0 0 0-.8-1.016q-.533-.384-1.4-.384h-4.633v8.9h6.8v1.6h-6.8v10.034h5.333q.933 0 1.483-.384a2.53 2.53 0 0 0 .85-1.016q.3-.634.4-1.367l.167-1.4h1.6l-.2 5.8zm25.233 0v-1.367h.534q.666 0 1.15-.183t.75-.7.266-1.517v-16.4q0-1-.3-1.483t-.783-.633-1.083-.15h-.534v-1.367h7.867q3.733 0 5.617 1.4t1.883 4.433q0 1.467-.5 2.5a4.9 4.9 0 0 1-1.35 1.717 6.4 6.4 0 0 1-1.883 1.05v.167q1.366.2 2.4.95t1.6 2.05.566 3.1q0 3.233-1.85 4.833t-5.616 1.6zm8.5-1.633q2.334 0 3.35-1.1t1.017-3.8q0-1.734-.417-2.867t-1.35-1.7-2.566-.567h-2.7v10.034zm-.766-11.667q1.632 0 2.566-.483a2.78 2.78 0 0 0 1.334-1.484q.4-1 .4-2.566 0-2.467-1.017-3.4-1.016-.934-3.317-.934h-1.866v8.867zm20.766 13.633q-3.067 0-5.083-1.533-2.018-1.534-3-4.3t-.983-6.467.983-6.433 3.017-4.25q2.032-1.517 5.1-1.517 2.9 0 4.916 1.517t3.067 4.267 1.05 6.45-1.05 6.45-3.067 4.283q-2.016 1.533-4.95 1.533m0-1.766q2.067 0 3.317-1.25t1.783-3.6.534-5.65q0-3.335-.55-5.667-.55-2.334-1.767-3.567t-3.283-1.233q-3.035 0-4.35 2.75-1.317 2.75-1.317 7.717 0 3.3.567 5.65.566 2.349 1.816 3.6t3.25 1.25m10.034 1.433v-1.367h.5q.566 0 .916-.2t.65-.766.634-1.634l6.266-19.833h2.5l6.434 20.833q.2.634.45.967t.65.483.966.15h.3v1.367h-8.1v-1.367h.667q.866 0 1.283-.366.417-.367.417-1.034 0-.233-.05-.5a37 37 0 0 0-.117-.6 5 5 0 0 0-.166-.633l-1.034-3.5h-7.366l-.967 3.267a4 4 0 0 0-.167.6 31 31 0 0 1-.133.633q-.067.3-.067.6 0 .7.434 1.117.432.416 1.4.416h.733v1.367zm6.366-9.633h6.267l-1.767-6.2a60 60 0 0 0-.533-1.884 29 29 0 0 1-.45-1.65 64 64 0 0 0-.35-1.4q-.134.633-.317 1.384t-.4 1.533a34 34 0 0 1-.516 1.683zm14.934 9.633v-1.367h.466q.6 0 1.117-.15a1.4 1.4 0 0 0 .817-.633q.3-.483.3-1.45v-16.567q0-1-.317-1.483-.316-.483-.817-.633t-1.1-.15h-.466v-1.367h7.9q2.6 0 4.266.667 1.667.666 2.45 2.066t.784 3.567q0 1.866-.584 3.117-.583 1.25-1.55 2-.966.75-2.066 1.15l3.833 7.2q.733 1.299 1.4 1.983.666.683 1.533.683h.1v1.367h-.5q-1.6 0-2.6-.233t-1.683-.884q-.683-.65-1.283-1.883l-3.767-7.5h-2.367v6.9q0 .966.3 1.45.3.483.784.633.483.15 1.116.15h.334v1.367zm7.533-12.033q2.433 0 3.483-1.367t1.05-3.967q0-1.667-.433-2.75-.434-1.083-1.383-1.6-.951-.516-2.517-.516h-1.867v10.2zm11.433 12.033v-1.367h.567q.633 0 1.117-.183.483-.183.75-.7.266-.517.266-1.517v-16.4q0-.966-.283-1.45a1.4 1.4 0 0 0-.783-.65 3.6 3.6 0 0 0-1.134-.166h-.5v-1.367h8.834q2.966 0 5.066 1.4t3.217 4.05 1.117 6.45q0 3.633-1.05 6.317-1.05 2.682-3.134 4.133-2.084 1.45-5.216 1.45zm8.167-1.667q2.234 0 3.683-1.183 1.45-1.184 2.2-3.467t.75-5.583-.733-5.6-2.2-3.483-3.667-1.184h-2.333v20.5zm29.733 2q-3.067 0-5.083-1.533-2.018-1.534-3-4.3t-.983-6.467.983-6.433 3.017-4.25 5.1-1.517q2.9 0 4.916 1.517t3.067 4.267 1.05 6.45-1.05 6.45-3.067 4.283q-2.016 1.533-4.95 1.533m0-1.766q2.067 0 3.317-1.25t1.783-3.6.534-5.65q0-3.335-.55-5.667-.55-2.334-1.767-3.567t-3.283-1.233q-3.034 0-4.35 2.75-1.317 2.75-1.317 7.717 0 3.3.567 5.65.566 2.349 1.816 3.6t3.25 1.25m11.7 1.433v-1.367h.434q.699 0 1.2-.166.5-.168.783-.634.283-.467.283-1.433v-16.567q0-.967-.283-1.45a1.4 1.4 0 0 0-.783-.65 3.5 3.5 0 0 0-1.1-.166h-.534v-1.367h14.567l.167 5.8h-1.567l-.167-1.433a4 4 0 0 0-.666-1.9q-.567-.834-1.867-.834h-4.6v9.667h6.833v1.633h-6.833v7.134q0 .999.283 1.5.284.5.834.683t1.216.183h.9v1.367zm27.5 0v-1.367h.6q.633 0 1.184-.15t.883-.633.333-1.45v-18.567h-2.666q-1.2 0-1.7.834-.5.833-.634 1.933l-.133 1.4h-1.533l.133-5.8h16.3l.133 5.8h-1.533l-.167-1.4q-.099-1.1-.6-1.933-.5-.834-1.766-.834h-2.667v18.4q0 1.034.317 1.55.317.517.866.684a4.2 4.2 0 0 0 1.217.166h.6v1.367zm14.5 0v-1.367h.467q.6 0 1.117-.15.516-.15.816-.633t.3-1.45v-16.567q0-1-.316-1.483-.318-.483-.817-.633-.5-.15-1.1-.15h-.467v-1.367h7.9q2.6 0 4.267.667 1.667.666 2.45 2.066t.783 3.567q0 1.866-.583 3.117-.584 1.25-1.55 2a7.6 7.6 0 0 1-2.067 1.15l3.834 7.2q.732 1.299 1.4 1.983.666.683 1.533.683h.1v1.367h-.5q-1.6 0-2.6-.233t-1.683-.884q-.684-.65-1.284-1.883l-3.766-7.5h-2.367v6.9q0 .966.3 1.45.3.483.783.633t1.117.15h.333v1.367zm7.534-12.033q2.433 0 3.483-1.367t1.05-3.967q0-1.667-.433-2.75t-1.384-1.6-2.516-.516h-1.867v10.2zm20.532 12.366q-2.2 0-3.833-.75t-2.5-2.416q-.867-1.668-.867-4.367v-12.967q0-1-.317-1.483a1.47 1.47 0 0 0-.833-.633q-.517-.15-1.15-.15h-.4v-1.367h8.533v1.367h-.366q-.667 0-1.184.166a1.46 1.46 0 0 0-.816.667q-.3.5-.3 1.567v13.033q0 2.933 1.283 4.15t3.35 1.217q1.6 0 2.617-.7a4.35 4.35 0 0 0 1.533-1.884q.517-1.183.517-2.683v-13.267q0-1-.317-1.483-.316-.483-.817-.633a4 4 0 0 0-1.166-.15h-.367v-1.367h7.167v1.367h-.367q-.667 0-1.2.166a1.45 1.45 0 0 0-.833.667q-.3.5-.3 1.567v13.2q0 2.2-.784 3.8a5.6 5.6 0 0 1-2.366 2.483q-1.584.883-3.917.883m17.63 0q-1.567 0-2.716-.333t-1.9-.95a3.9 3.9 0 0 1-1.117-1.45 4.5 4.5 0 0 1-.367-1.833q0-.7.284-1.217.283-.517.766-.8t1.184-.283q.066 1.5.55 2.716.483 1.217 1.383 1.9.9.684 2.167.684 1.833 0 2.833-1.084 1-1.083 1-3.05 0-1.366-.483-2.283-.484-.917-1.484-1.667t-2.633-1.55q-1.7-.9-2.833-1.9a6.3 6.3 0 0 1-1.684-2.316q-.55-1.317-.55-3.15 0-1.8.834-3.117a5.7 5.7 0 0 1 2.25-2.05q1.416-.733 3.216-.733 1.767 0 2.984.55 1.216.55 1.85 1.4.633.85.633 1.816 0 1.067-.617 1.567-.616.5-1.783.5 0-1.1-.35-2.067a3.53 3.53 0 0 0-1.083-1.566q-.734-.6-1.9-.6-1.6 0-2.45 1.05t-.85 2.85q0 1.233.4 2.116t1.366 1.6q.967.717 2.634 1.584 1.732.832 2.916 1.8 1.184.966 1.8 2.216t.617 3.05q0 2.133-.867 3.584a5.8 5.8 0 0 1-2.416 2.233q-1.55.783-3.584.783m11.94-.333v-1.367h.6q.633 0 1.183-.15t.883-.633.334-1.45v-18.567h-2.667q-1.2 0-1.7.834-.5.833-.633 1.933l-.134 1.4h-1.533l.133-5.8h16.3l.134 5.8h-1.534l-.166-1.4q-.1-1.1-.6-1.933-.501-.834-1.767-.834h-2.667v18.4q0 1.034.317 1.55.316.517.867.684.55.166 1.216.166h.6v1.367zm14.5 0v-1.367h.533q.633 0 1.117-.166.483-.168.766-.65.284-.484.284-1.417v-16.433q0-1.068-.284-1.567-.283-.5-.766-.667a3.4 3.4 0 0 0-1.117-.166h-.533v-1.367h14.6l.133 5.8h-1.567l-.166-1.4a4 4 0 0 0-.3-1.367 2.35 2.35 0 0 0-.8-1.016q-.534-.384-1.4-.384h-4.634v8.9h6.8v1.6h-6.8v10.034h5.334q.933 0 1.483-.384a2.53 2.53 0 0 0 .85-1.016q.3-.634.4-1.367l.167-1.4h1.6l-.2 5.8zm17.86 0v-1.367h.534q.633 0 1.116-.166.483-.168.767-.65.283-.484.283-1.417v-16.433q0-1.068-.283-1.567-.284-.5-.767-.667a3.4 3.4 0 0 0-1.116-.166h-.534v-1.367h14.6l.134 5.8h-1.567l-.167-1.4a4 4 0 0 0-.3-1.367 2.34 2.34 0 0 0-.8-1.016q-.533-.384-1.4-.384h-4.633v8.9h6.8v1.6h-6.8v10.034h5.333q.933 0 1.484-.384.55-.383.85-1.016.3-.634.4-1.367l.166-1.4h1.6l-.2 5.8zm24.27.333q-1.567 0-2.717-.333t-1.9-.95a3.9 3.9 0 0 1-1.116-1.45 4.5 4.5 0 0 1-.367-1.833q0-.7.283-1.217.284-.517.767-.8t1.183-.283q.067 1.5.55 2.716t1.384 1.9 2.166.684q1.833 0 2.834-1.084 1-1.083 1-3.05 0-1.366-.484-2.283-.483-.917-1.483-1.667t-2.633-1.55q-1.7-.9-2.834-1.9a6.3 6.3 0 0 1-1.683-2.316q-.55-1.317-.55-3.15 0-1.8.833-3.117a5.73 5.73 0 0 1 2.25-2.05q1.417-.733 3.217-.733 1.767 0 2.983.55t1.85 1.4.634 1.816q0 1.067-.617 1.567t-1.783.5q0-1.1-.35-2.067-.35-.966-1.084-1.566-.733-.6-1.9-.6-1.6 0-2.45 1.05t-.85 2.85q0 1.233.4 2.116t1.367 1.6 2.633 1.584q1.734.832 2.917 1.8 1.184.966 1.8 2.216t.617 3.05q0 2.133-.867 3.584a5.8 5.8 0 0 1-2.417 2.233q-1.55.783-3.583.783m-520.095-172.89q-2.866 0-4.833-1.533t-2.967-4.283-1-6.45q0-3.667 1.033-6.4t3.084-4.267q2.05-1.533 5.083-1.533 1.933 0 3.267.516 1.333.517 2 1.367.666.85.666 1.883 0 1.034-.716 1.634-.717.6-1.884.6 0-1.067-.333-2.034a3.5 3.5 0 0 0-1.1-1.6q-.766-.633-2.133-.633-1.967 0-3.2 1.25t-1.784 3.6-.55 5.617q0 3.166.617 5.483.616 2.316 1.9 3.567 1.284 1.25 3.35 1.25 1.433 0 2.417-.417a5 5 0 0 0 1.65-1.1q.666-.684 1.2-1.483.2.132.35.466.15.333.15.734 0 .6-.367 1.25-.366.65-1.117 1.216-.75.567-1.933.934-1.184.366-2.85.366m8.4-.333v-1.367h.567q.633 0 1.116-.183.485-.183.75-.683.267-.501.267-1.5v-16.434q0-.966-.283-1.45a1.4 1.4 0 0 0-.784-.65 3.7 3.7 0 0 0-1.166-.166h-.467v-1.367h8.4v1.367h-.433q-.6 0-1.084.166-.483.167-.75.667-.266.5-.266 1.5v6.833h8.9v-6.8q0-1.034-.25-1.533a1.27 1.27 0 0 0-.75-.667 3.6 3.6 0 0 0-1.134-.166h-.433v-1.367h8.433v1.367h-.566q-.6 0-1.1.166a1.33 1.33 0 0 0-.767.667q-.267.5-.267 1.533v16.467q0 .933.284 1.417.283.483.766.65a3.3 3.3 0 0 0 1.084.166h.566v1.367h-8.433v-1.367h.433q.634 0 1.134-.183.5-.184.75-.7.25-.517.25-1.517v-7.866h-8.9v7.9q0 .999.266 1.5.267.5.75.683.484.183 1.084.183h.433v1.367zm21.7 0v-1.367h.5q.567 0 .917-.2t.65-.766.633-1.634l6.267-19.833h2.5l6.433 20.833q.2.634.45.967t.65.483.967.15h.3v1.367h-8.1v-1.367h.666q.867 0 1.284-.366.416-.367.416-1.034a2.7 2.7 0 0 0-.05-.5l-.116-.6a5 5 0 0 0-.167-.633l-1.033-3.5h-7.367l-.967 3.267a4 4 0 0 0-.166.6 31 31 0 0 1-.134.633q-.066.3-.066.6 0 .7.433 1.117.434.416 1.4.416h.733v1.367zm6.367-9.633h6.266l-1.766-6.2a60 60 0 0 0-.534-1.884 31 31 0 0 1-.45-1.65 64 64 0 0 0-.35-1.4q-.133.634-.316 1.384a57 57 0 0 1-.4 1.533 35 35 0 0 1-.517 1.683zm14.933 9.633v-1.367h.567q.6 0 1.083-.166.483-.167.767-.684.283-.517.283-1.483v-16.333q0-1.033-.283-1.534-.284-.5-.767-.683a3 3 0 0 0-1.083-.183h-.567v-1.367h8.567v1.367h-.6q-.6 0-1.084.183-.483.183-.75.683-.266.5-.266 1.534v16.3q0 .999.266 1.5.267.5.767.683t1.067.183h.6v1.367zm10.6 0v-1.367h.467q.6 0 1.116-.15t.817-.633q.3-.483.3-1.45v-16.567q0-1-.317-1.483t-.816-.633-1.1-.15h-.467v-1.367h7.9q2.6 0 4.267.667 1.666.666 2.45 2.066.783 1.4.783 3.567 0 1.866-.583 3.117-.584 1.25-1.55 2t-2.067 1.15l3.833 7.2q.734 1.299 1.4 1.983.667.683 1.534.683h.1v1.367h-.5q-1.6 0-2.6-.233t-1.684-.884q-.683-.65-1.283-1.883l-3.767-7.5h-2.366v6.9q0 .967.3 1.45t.783.633 1.117.15h.333v1.367zm7.533-12.033q2.434 0 3.484-1.367t1.05-3.967q0-1.667-.434-2.75-.433-1.083-1.383-1.6-.95-.516-2.517-.516h-1.866v10.2zm28.434 12.366q-3.067 0-5.084-1.533t-3-4.3-.983-6.467.983-6.433 3.017-4.25 5.1-1.517q2.9 0 4.917 1.517t3.066 4.267 1.05 6.45-1.05 6.45-3.066 4.283q-2.017 1.533-4.95 1.533m0-1.766q2.066 0 3.316-1.25t1.784-3.6.533-5.65q0-3.335-.55-5.667-.55-2.334-1.767-3.567t-3.283-1.233q-3.033 0-4.35 2.75t-1.317 7.717q0 3.3.567 5.65.566 2.349 1.817 3.6t3.25 1.25m11.7 1.433v-1.367h.433q.7 0 1.2-.166.5-.168.783-.634.284-.467.284-1.433v-16.567q0-.966-.284-1.45a1.4 1.4 0 0 0-.783-.65 3.5 3.5 0 0 0-1.1-.166h-.533v-1.367h14.566l.167 5.8h-1.567l-.166-1.433a4 4 0 0 0-.667-1.9q-.567-.834-1.867-.834h-4.6v9.667h6.834v1.633h-6.834v7.134q0 .999.284 1.5.283.5.833.683t1.217.183h.9v1.367zm27.5 0v-1.367h.6q.633 0 1.183-.15t.883-.633.334-1.45v-18.567h-2.667q-1.2 0-1.7.834-.5.833-.633 1.933l-.134 1.4h-1.533l.133-5.8h16.3l.134 5.8h-1.534l-.166-1.4q-.1-1.1-.6-1.933-.501-.834-1.767-.834h-2.667v18.4q0 1.034.317 1.55.317.517.867.684.55.166 1.216.166h.6v1.367zm14.5 0v-1.367h.566a3.1 3.1 0 0 0 1.117-.183q.483-.183.75-.683.267-.501.267-1.5v-16.434q0-.966-.284-1.45a1.4 1.4 0 0 0-.783-.65 3.7 3.7 0 0 0-1.167-.166h-.466v-1.367h8.4v1.367h-.434q-.6 0-1.083.166-.483.167-.75.667t-.267 1.5v6.833h8.9v-6.8q0-1.034-.25-1.533a1.26 1.26 0 0 0-.75-.667 3.6 3.6 0 0 0-1.133-.166h-.433v-1.367h8.433v1.367h-.567q-.6 0-1.1.166a1.32 1.32 0 0 0-.766.667q-.267.5-.267 1.533v16.467q0 .933.283 1.417.284.483.767.65a3.3 3.3 0 0 0 1.083.166h.567v1.367h-8.433v-1.367h.433q.633 0 1.133-.183.501-.184.75-.7.25-.517.25-1.517v-7.866h-8.9v7.9q0 .999.267 1.5.267.5.75.683t1.083.183h.434v1.367zm22.7 0v-1.367h.533q.633 0 1.117-.166.483-.168.766-.65.284-.484.284-1.417v-16.433q0-1.068-.284-1.567-.283-.5-.766-.667a3.4 3.4 0 0 0-1.117-.166h-.533v-1.367h14.6l.133 5.8h-1.567l-.166-1.4a4 4 0 0 0-.3-1.367 2.35 2.35 0 0 0-.8-1.016q-.534-.384-1.4-.384h-4.634v8.9h6.8v1.6h-6.8v10.034h5.334q.933 0 1.483-.384a2.53 2.53 0 0 0 .85-1.016q.3-.634.4-1.367l.167-1.4h1.6l-.2 5.8zm25.233 0v-1.367h.533q.667 0 1.15-.183.484-.183.75-.7.267-.517.267-1.517v-16.4q0-1-.3-1.483t-.783-.633-1.084-.15h-.533v-1.367h7.867q3.734 0 5.616 1.4 1.884 1.4 1.884 4.433 0 1.467-.5 2.5a4.9 4.9 0 0 1-1.35 1.717 6.4 6.4 0 0 1-1.884 1.05v.167q1.366.2 2.4.95t1.6 2.05.567 3.1q0 3.232-1.85 4.833t-5.617 1.6zm8.5-1.633q2.334 0 3.35-1.1t1.017-3.8q0-1.734-.417-2.867t-1.35-1.7-2.567-.567h-2.7v10.034zm-.767-11.667q1.634 0 2.567-.483a2.77 2.77 0 0 0 1.333-1.484q.4-1 .4-2.566 0-2.467-1.016-3.4-1.017-.934-3.317-.934h-1.867v8.867zm20.767 13.633q-3.067 0-5.083-1.533-2.018-1.533-3-4.3-.984-2.767-.984-6.467t.984-6.433q.983-2.733 3.016-4.25t5.1-1.517q2.901 0 4.917 1.517t3.067 4.267 1.05 6.45-1.05 6.45-3.067 4.283q-2.016 1.533-4.95 1.533m0-1.766q2.067 0 3.317-1.25t1.783-3.6.533-5.65q0-3.335-.55-5.667-.55-2.334-1.766-3.567-1.217-1.233-3.284-1.233-3.033 0-4.35 2.75t-1.316 7.717q0 3.3.566 5.65.567 2.349 1.817 3.6t3.25 1.25m10.033 1.433v-1.367h.5q.567 0 .917-.2t.65-.766.633-1.634l6.267-19.833h2.5l6.433 20.833q.201.634.45.967.25.333.65.483t.967.15h.3v1.367h-8.1v-1.367h.667q.866 0 1.283-.366.417-.367.417-1.034 0-.233-.05-.5l-.117-.6a5 5 0 0 0-.167-.633l-1.033-3.5h-7.367l-.966 3.267a4 4 0 0 0-.167.6 31 31 0 0 1-.133.633q-.067.3-.067.6 0 .7.433 1.117.434.416 1.4.416h.734v1.367zm6.367-9.633h6.267l-1.767-6.2a63 63 0 0 0-.533-1.884 29 29 0 0 1-.45-1.65 70 70 0 0 0-.35-1.4q-.134.634-.317 1.384t-.4 1.533a34 34 0 0 1-.517 1.683zm14.933 9.633v-1.367h.467q.6 0 1.117-.15.516-.15.816-.633t.3-1.45v-16.567q0-1-.316-1.483a1.47 1.47 0 0 0-.817-.633q-.5-.15-1.1-.15h-.467v-1.367h7.9q2.6 0 4.267.667 1.667.666 2.45 2.066t.783 3.567q0 1.866-.583 3.117-.584 1.25-1.55 2t-2.067 1.15l3.834 7.2q.733 1.299 1.4 1.983.666.683 1.533.683h.1v1.367h-.5q-1.6 0-2.6-.233t-1.683-.884q-.684-.65-1.284-1.883l-3.766-7.5h-2.367v6.9q0 .967.3 1.45t.783.633 1.117.15h.333v1.367zm7.534-12.033q2.433 0 3.483-1.367t1.05-3.967q0-1.667-.433-2.75t-1.384-1.6-2.516-.516h-1.867v10.2zm11.433 12.033v-1.367h.567q.633 0 1.116-.183.485-.183.75-.7.267-.517.267-1.517v-16.4q0-.966-.283-1.45a1.4 1.4 0 0 0-.784-.65 3.6 3.6 0 0 0-1.133-.166h-.5v-1.367h8.833q2.967 0 5.067 1.4t3.217 4.05 1.116 6.45q0 3.633-1.05 6.317-1.05 2.682-3.133 4.133-2.084 1.45-5.217 1.45zm8.167-1.667q2.233 0 3.683-1.183t2.2-3.467.75-5.583-.733-5.6q-.734-2.3-2.2-3.483t-3.667-1.184h-2.333v20.5zm29.733 2q-3.067 0-5.083-1.533t-3-4.3-.984-6.467.984-6.433q.983-2.733 3.016-4.25t5.1-1.517q2.901 0 4.917 1.517t3.067 4.267 1.05 6.45-1.05 6.45-3.067 4.283q-2.016 1.533-4.95 1.533m0-1.766q2.066 0 3.317-1.25 1.25-1.251 1.783-3.6.534-2.35.533-5.65 0-3.335-.55-5.667-.55-2.334-1.766-3.567-1.217-1.233-3.284-1.233-3.033 0-4.35 2.75t-1.316 7.717q0 3.3.566 5.65.567 2.349 1.817 3.6t3.25 1.25m11.7 1.433v-1.367h.433q.7 0 1.2-.166.5-.168.784-.634.283-.467.283-1.433v-16.567q0-.966-.283-1.45a1.4 1.4 0 0 0-.784-.65 3.5 3.5 0 0 0-1.1-.166h-.533v-1.367h14.567l.166 5.8h-1.566l-.167-1.433a4 4 0 0 0-.667-1.9q-.566-.834-1.866-.834h-4.6v9.667h6.833v1.633h-6.833v7.134q0 .999.283 1.5.284.5.833.683.55.183 1.217.183h.9v1.367zm27.5 0v-1.367h.6q.634 0 1.183-.15.55-.15.884-.633t.333-1.45v-18.567h-2.667q-1.2 0-1.7.834-.5.833-.633 1.933l-.133 1.4h-1.534l.134-5.8h16.3l.133 5.8h-1.533l-.167-1.4q-.1-1.1-.6-1.933-.5-.834-1.767-.834h-2.666v18.4q0 1.034.316 1.55.316.517.867.684a4.2 4.2 0 0 0 1.217.166h.6v1.367zm14.5 0v-1.367h.467q.6 0 1.116-.15t.817-.633q.3-.483.3-1.45v-16.567q0-1-.317-1.483t-.816-.633-1.1-.15h-.467v-1.367h7.9q2.6 0 4.267.667 1.666.666 2.45 2.066.783 1.4.783 3.567 0 1.866-.583 3.117-.584 1.25-1.55 2t-2.067 1.15l3.833 7.2q.734 1.299 1.4 1.983.667.683 1.534.683h.1v1.367h-.5q-1.6 0-2.6-.233t-1.684-.884q-.683-.65-1.283-1.883l-3.767-7.5h-2.366v6.9q0 .967.3 1.45t.783.633 1.117.15h.333v1.367zm7.533-12.033q2.434 0 3.484-1.367t1.05-3.967q0-1.667-.434-2.75t-1.383-1.6-2.517-.516h-1.866v10.2zm20.534 12.366q-2.2 0-3.834-.75t-2.5-2.416q-.866-1.668-.866-4.367v-12.967q0-1-.317-1.483a1.47 1.47 0 0 0-.833-.633q-.517-.15-1.15-.15h-.4v-1.367h8.533v1.367h-.367q-.666 0-1.183.166a1.46 1.46 0 0 0-.817.667q-.3.5-.3 1.567v13.033q0 2.933 1.284 4.15 1.283 1.217 3.35 1.217 1.6 0 2.616-.7a4.35 4.35 0 0 0 1.534-1.884q.516-1.183.516-2.683v-13.267q0-1-.316-1.483a1.47 1.47 0 0 0-.817-.633q-.5-.15-1.167-.15h-.366v-1.367h7.166v1.367h-.366q-.668 0-1.2.166a1.45 1.45 0 0 0-.834.667q-.3.5-.3 1.567v13.2q0 2.2-.783 3.8a5.6 5.6 0 0 1-2.367 2.483q-1.583.883-3.916.883m17.633 0q-1.566 0-2.717-.333-1.15-.333-1.9-.95a3.9 3.9 0 0 1-1.116-1.45 4.5 4.5 0 0 1-.367-1.833q0-.7.283-1.217.284-.517.767-.8t1.183-.283q.067 1.5.55 2.716t1.384 1.9q.9.684 2.166.684 1.834 0 2.834-1.084 1-1.083 1-3.05 0-1.367-.484-2.283-.483-.917-1.483-1.667t-2.633-1.55q-1.7-.9-2.834-1.9a6.3 6.3 0 0 1-1.683-2.316q-.55-1.317-.55-3.15 0-1.8.833-3.117a5.73 5.73 0 0 1 2.25-2.05q1.417-.733 3.217-.733 1.767 0 2.983.55t1.85 1.4.634 1.816q0 1.067-.617 1.567t-1.783.5q0-1.1-.35-2.067-.35-.966-1.084-1.566-.733-.6-1.9-.6-1.6 0-2.45 1.05t-.85 2.85q0 1.233.4 2.116t1.367 1.6 2.633 1.584q1.734.832 2.917 1.8 1.183.966 1.8 2.216t.617 3.05q0 2.133-.867 3.584a5.8 5.8 0 0 1-2.417 2.233q-1.55.783-3.583.783m11.935-.333v-1.367h.6q.634 0 1.184-.15t.883-.633.333-1.45v-18.567h-2.666q-1.2 0-1.7.834-.5.833-.634 1.933l-.133 1.4h-1.533l.133-5.8h16.3l.133 5.8h-1.533l-.167-1.4q-.099-1.1-.6-1.933-.5-.834-1.766-.834h-2.667v18.4q0 1.034.317 1.55.317.517.866.684.55.166 1.217.166h.6v1.367zm14.5 0v-1.367h.534q.633 0 1.116-.166a1.4 1.4 0 0 0 .767-.65q.283-.484.283-1.417v-16.433q0-1.068-.283-1.567-.283-.5-.767-.667a3.4 3.4 0 0 0-1.116-.166h-.534v-1.367h14.6l.134 5.8h-1.567l-.167-1.4a4 4 0 0 0-.3-1.367 2.33 2.33 0 0 0-.8-1.016q-.533-.384-1.4-.384h-4.633v8.9h6.8v1.6h-6.8v10.034h5.333q.934 0 1.484-.384.55-.383.85-1.016.3-.634.4-1.367l.166-1.4h1.6l-.2 5.8zm17.86 0v-1.367h.533q.634 0 1.117-.166.483-.168.767-.65.283-.484.283-1.417v-16.433q0-1.068-.283-1.567-.284-.5-.767-.667a3.4 3.4 0 0 0-1.117-.166h-.533v-1.367h14.6l.133 5.8h-1.566l-.167-1.4a4 4 0 0 0-.3-1.367 2.34 2.34 0 0 0-.8-1.016q-.533-.384-1.4-.384h-4.633v8.9h6.8v1.6h-6.8v10.034h5.333q.933 0 1.483-.384a2.53 2.53 0 0 0 .85-1.016q.3-.634.4-1.367l.167-1.4h1.6l-.2 5.8zm24.27.333q-1.567 0-2.717-.333t-1.9-.95a3.9 3.9 0 0 1-1.117-1.45 4.5 4.5 0 0 1-.366-1.833q0-.7.283-1.217t.767-.8q.483-.283 1.183-.283.067 1.5.55 2.716t1.383 1.9 2.167.684q1.833 0 2.833-1.084 1-1.083 1-3.05 0-1.367-.483-2.283-.483-.917-1.483-1.667t-2.634-1.55q-1.7-.9-2.833-1.9a6.3 6.3 0 0 1-1.683-2.316q-.55-1.317-.55-3.15 0-1.8.833-3.117a5.73 5.73 0 0 1 2.25-2.05q1.417-.733 3.217-.733 1.766 0 2.983.55t1.85 1.4.633 1.816q0 1.067-.616 1.567-.617.5-1.784.5 0-1.1-.35-2.067-.35-.966-1.083-1.566t-1.9-.6q-1.6 0-2.45 1.05t-.85 2.85q0 1.233.4 2.116t1.367 1.6 2.633 1.584q1.734.832 2.917 1.8 1.183.966 1.8 2.216.616 1.25.616 3.05 0 2.133-.866 3.584a5.8 5.8 0 0 1-2.417 2.233q-1.55.783-3.583.783m1167.48 150.678q-.2-.699-.45-1.083a1.34 1.34 0 0 0-.616-.533q-.367-.15-.9-.15h-.434v-1.367h8.034v1.367h-.667q-.867 0-1.267.333t-.4 1a3.7 3.7 0 0 0 .15 1q.084.267.15.567l2.967 10.9q.3 1 .517 1.9.216.9.4 1.7.182.8.35 1.6.166-.8.35-1.6t.416-1.684q.234-.883.534-1.95l3.033-10.633q.1-.3.167-.617a7 7 0 0 0 .1-.6q.033-.284.033-.516 0-.734-.433-1.067-.434-.333-1.367-.333h-.7v-1.367h6.933v1.367h-.466q-.6 0-.967.2t-.65.75q-.284.549-.617 1.65l-5.766 19.833h-2.434zm17.94 20.667v-1.367h.566q.6 0 1.084-.166.483-.166.766-.684.284-.516.284-1.483V431.45q0-1.033-.284-1.534-.283-.5-.766-.683a3 3 0 0 0-1.084-.183h-.566v-1.367h8.566v1.367h-.6q-.6 0-1.083.183t-.75.683-.267 1.534v16.3q0 .999.267 1.5.266.5.767.683.5.183 1.066.183h.6v1.367zm19.97.333q-2.867 0-4.833-1.533T2264.79 446q-1-2.751-1-6.45 0-3.667 1.034-6.4 1.032-2.734 3.083-4.267 2.05-1.533 5.083-1.533 1.934 0 3.267.516 1.333.517 2 1.367.666.85.667 1.883 0 1.034-.717 1.634t-1.883.6q0-1.067-.334-2.034a3.53 3.53 0 0 0-1.1-1.6q-.767-.633-2.133-.633-1.967 0-3.2 1.25t-1.783 3.6-.55 5.617q0 3.167.616 5.483.617 2.316 1.9 3.567 1.284 1.25 3.35 1.25 1.434 0 2.417-.417a5 5 0 0 0 1.65-1.1q.666-.684 1.2-1.483.2.133.35.466.15.334.15.734 0 .6-.367 1.25-.366.65-1.116 1.216-.75.567-1.934.934-1.184.366-2.85.366m8.4-.333v-1.367h.534q.633 0 1.116-.166a1.4 1.4 0 0 0 .767-.65q.283-.484.283-1.417V431.45q0-1.067-.283-1.567-.284-.5-.767-.667a3.4 3.4 0 0 0-1.116-.166h-.534v-1.367h14.6l.134 5.8h-1.567l-.167-1.4a4 4 0 0 0-.3-1.367 2.34 2.34 0 0 0-.8-1.016q-.533-.384-1.4-.384h-4.633v8.9h6.8v1.6h-6.8v10.034h5.333q.933 0 1.484-.384.55-.383.85-1.016.3-.634.4-1.367l.166-1.4h1.6l-.2 5.8zm25.23 0v-1.367h.466q.633 0 1.15-.166t.8-.684q.284-.516.284-1.55v-16.4q0-1-.3-1.483t-.784-.633-1.116-.15h-.5v-1.367h8.2q3.7 0 5.45 1.833 1.75 1.834 1.75 5.134 0 1.5-.417 2.85a6.9 6.9 0 0 1-1.333 2.433q-.918 1.083-2.417 1.683-1.5.6-3.667.6h-1.7v5.667q0 .966.317 1.45.317.483.833.633.517.15 1.117.15h.867v1.367zm7.3-10.8q1.266 0 2.166-.317a3.17 3.17 0 0 0 1.467-1.033q.567-.717.85-1.833t.283-2.717q0-2.8-1-4.167t-3.333-1.366h-1.867v11.433zm10.07 10.8v-1.367h.467q.6 0 1.117-.15.516-.15.816-.633t.3-1.45v-16.567q0-1-.316-1.483-.318-.483-.817-.633-.5-.15-1.1-.15h-.467v-1.367h7.9q2.6 0 4.267.667 1.667.666 2.45 2.066.783 1.401.783 3.567 0 1.866-.583 3.117-.584 1.25-1.55 2a7.6 7.6 0 0 1-2.067 1.15l3.834 7.2q.732 1.299 1.4 1.983.666.683 1.533.683h.1v1.367h-.5q-1.6 0-2.6-.233t-1.683-.884q-.684-.65-1.284-1.883l-3.766-7.5h-2.367v6.9q0 .966.3 1.45.3.483.783.633t1.117.15h.333v1.367zm7.534-12.033q2.433 0 3.483-1.367t1.05-3.967q0-1.666-.433-2.75-.433-1.083-1.384-1.6-.95-.516-2.516-.516h-1.867v10.2zm11.426 12.033v-1.367h.533q.633 0 1.117-.166a1.4 1.4 0 0 0 .767-.65q.282-.484.283-1.417V431.45q0-1.067-.283-1.567-.284-.5-.767-.667a3.4 3.4 0 0 0-1.117-.166h-.533v-1.367h14.6l.133 5.8h-1.566l-.167-1.4a4 4 0 0 0-.3-1.367 2.35 2.35 0 0 0-.8-1.016q-.534-.384-1.4-.384h-4.633v8.9h6.8v1.6h-6.8v10.034h5.333q.934 0 1.483-.384a2.53 2.53 0 0 0 .85-1.016q.3-.634.4-1.367l.167-1.4h1.6l-.2 5.8zm24.27.333q-1.567 0-2.717-.333t-1.9-.95a3.9 3.9 0 0 1-1.117-1.45 4.5 4.5 0 0 1-.366-1.833q0-.7.283-1.217.283-.516.767-.8.483-.283 1.183-.283.066 1.5.55 2.716.483 1.217 1.383 1.9.9.684 2.167.684 1.834 0 2.833-1.084 1-1.083 1-3.05 0-1.367-.483-2.283-.484-.917-1.483-1.667t-2.634-1.55q-1.7-.9-2.833-1.9a6.3 6.3 0 0 1-1.683-2.316q-.55-1.317-.55-3.15 0-1.8.833-3.117a5.7 5.7 0 0 1 2.25-2.05q1.416-.733 3.217-.733 1.766 0 2.983.55t1.85 1.4.633 1.816q0 1.067-.616 1.567-.617.5-1.784.5 0-1.1-.35-2.067-.35-.966-1.083-1.566t-1.9-.6q-1.6 0-2.45 1.05t-.85 2.85q0 1.233.4 2.116.4.884 1.367 1.6.966.717 2.633 1.584 1.733.832 2.917 1.8 1.182.966 1.8 2.216.616 1.25.616 3.05 0 2.134-.866 3.584a5.8 5.8 0 0 1-2.417 2.233q-1.55.783-3.583.783m9.2-.333v-1.367h.566q.6 0 1.084-.166.483-.166.766-.684.284-.516.284-1.483V431.45q0-1.033-.284-1.534-.283-.5-.766-.683a3 3 0 0 0-1.084-.183h-.566v-1.367h8.566v1.367h-.6q-.6 0-1.083.183t-.75.683-.267 1.534v16.3q0 .999.267 1.5.266.5.767.683.5.183 1.066.183h.6v1.367zm10.6 0v-1.367h.566q.633 0 1.117-.183.483-.183.75-.7t.267-1.517v-16.4q0-.966-.284-1.45a1.4 1.4 0 0 0-.783-.65 3.6 3.6 0 0 0-1.133-.166h-.5v-1.367h8.833q2.967 0 5.067 1.4t3.216 4.05q1.117 2.65 1.117 6.45 0 3.633-1.05 6.317-1.05 2.683-3.133 4.133t-5.217 1.45zm8.166-1.667q2.234 0 3.684-1.183t2.2-3.467.75-5.583-.734-5.6q-.733-2.3-2.2-3.483t-3.666-1.184h-2.334v20.5zm12.734 1.667v-1.367h.533q.633 0 1.117-.166.483-.167.766-.65.284-.484.284-1.417V431.45q0-1.067-.284-1.567-.283-.5-.766-.667a3.4 3.4 0 0 0-1.117-.166h-.533v-1.367h14.6l.133 5.8h-1.567l-.166-1.4a4 4 0 0 0-.3-1.367 2.35 2.35 0 0 0-.8-1.016q-.534-.384-1.4-.384h-4.634v8.9h6.8v1.6h-6.8v10.034h5.334q.933 0 1.483-.384a2.53 2.53 0 0 0 .85-1.016q.3-.634.4-1.367l.167-1.4h1.6l-.2 5.8zm17.87 0v-1.367h.4q.7 0 1.217-.166.516-.166.8-.684.283-.516.283-1.55v-16.4q0-1-.283-1.483a1.33 1.33 0 0 0-.783-.633q-.501-.15-1.167-.15h-.467v-1.367h5.5l10.067 18.7v-15.067q0-.966-.3-1.45a1.48 1.48 0 0 0-.8-.65 3.6 3.6 0 0 0-1.133-.166h-.467v-1.367h7.2v1.367h-.5q-.633 0-1.133.183t-.784.683q-.283.5-.283 1.534v20.033h-2.2l-10.667-19.633v15.866q0 1.034.267 1.55.267.517.783.684a3.7 3.7 0 0 0 1.15.166h.5v1.367zm24.96 0v-1.367h.6q.633 0 1.183-.15t.884-.633.333-1.45v-18.567h-2.667q-1.2 0-1.7.834-.5.833-.633 1.933l-.133 1.4h-1.534l.134-5.8h16.3l.133 5.8h-1.533l-.167-1.4q-.1-1.1-.6-1.933-.5-.834-1.767-.834h-2.666v18.4q0 1.034.316 1.55.316.517.867.684a4.2 4.2 0 0 0 1.217.166h.6v1.367zm31.5.333q-3.067 0-5.083-1.533-2.017-1.534-3-4.3t-.984-6.467.984-6.433q.983-2.733 3.016-4.25t5.1-1.517q2.9 0 4.917 1.517t3.067 4.267 1.05 6.45-1.05 6.45-3.067 4.283-4.95 1.533m0-1.766q2.067 0 3.317-1.25t1.783-3.6.533-5.65q0-3.334-.55-5.667t-1.766-3.567q-1.217-1.233-3.284-1.233-3.033 0-4.35 2.75t-1.316 7.717q0 3.3.566 5.65.567 2.349 1.817 3.6t3.25 1.25m11.7 1.433v-1.367h.433q.7 0 1.2-.166a1.42 1.42 0 0 0 .784-.634q.282-.467.283-1.433v-16.567q0-.966-.283-1.45a1.4 1.4 0 0 0-.784-.65 3.5 3.5 0 0 0-1.1-.166h-.533v-1.367h14.567l.166 5.8h-1.566l-.167-1.433a4 4 0 0 0-.667-1.9q-.567-.834-1.866-.834h-4.6v9.667h6.833v1.633h-6.833v7.134q0 .999.283 1.5.284.5.833.683.55.183 1.217.183h.9v1.367zm27.5 0v-1.367h.6q.633 0 1.183-.15t.884-.633.333-1.45v-18.567h-2.667q-1.2 0-1.7.834-.5.833-.633 1.933l-.133 1.4h-1.534l.134-5.8h16.3l.133 5.8h-1.533l-.167-1.4q-.1-1.1-.6-1.933-.5-.834-1.767-.834h-2.666v18.4q0 1.034.316 1.55.316.517.867.684a4.2 4.2 0 0 0 1.217.166h.6v1.367zm14.5 0v-1.367h.567q.633 0 1.116-.183t.75-.683.267-1.5v-16.434q0-.966-.283-1.45a1.4 1.4 0 0 0-.784-.65 3.7 3.7 0 0 0-1.166-.166h-.467v-1.367h8.4v1.367h-.433q-.6 0-1.084.166-.483.167-.75.667-.266.5-.266 1.5v6.833h8.9v-6.8q0-1.033-.25-1.533a1.27 1.27 0 0 0-.75-.667 3.6 3.6 0 0 0-1.134-.166h-.433v-1.367h8.433v1.367h-.566q-.6 0-1.1.166a1.33 1.33 0 0 0-.767.667q-.267.5-.267 1.533v16.467q0 .933.284 1.417.282.483.766.65.484.166 1.084.166h.566v1.367h-8.433v-1.367h.433q.633 0 1.134-.183.5-.184.75-.7t.25-1.517v-7.866h-8.9v7.9q0 .999.266 1.5.267.5.75.683.484.183 1.084.183h.433v1.367zm22.7 0v-1.367h.533q.634 0 1.117-.166a1.4 1.4 0 0 0 .767-.65q.283-.484.283-1.417V431.45q0-1.067-.283-1.567-.284-.5-.767-.667a3.4 3.4 0 0 0-1.117-.166h-.533v-1.367h14.6l.133 5.8h-1.566l-.167-1.4a4 4 0 0 0-.3-1.367 2.35 2.35 0 0 0-.8-1.016q-.534-.384-1.4-.384h-4.633v8.9h6.8v1.6h-6.8v10.034h5.333q.934 0 1.483-.384a2.53 2.53 0 0 0 .85-1.016q.3-.634.4-1.367l.167-1.4h1.6l-.2 5.8zm34.53.333q-2.2 0-3.833-.75t-2.5-2.416-.867-4.367v-12.967q0-1-.316-1.483a1.47 1.47 0 0 0-.834-.633q-.516-.15-1.15-.15h-.4v-1.367h8.534v1.367h-.367a3.9 3.9 0 0 0-1.183.166 1.46 1.46 0 0 0-.817.667q-.3.5-.3 1.567v13.033q0 2.934 1.283 4.15 1.284 1.217 3.35 1.217 1.6 0 2.617-.7a4.34 4.34 0 0 0 1.533-1.884q.517-1.183.517-2.683v-13.267q0-1-.317-1.483-.316-.483-.816-.633-.501-.15-1.167-.15h-.367v-1.367h7.167v1.367h-.367q-.666 0-1.2.166a1.46 1.46 0 0 0-.833.667q-.3.5-.3 1.567v13.2q0 2.2-.783 3.8a5.63 5.63 0 0 1-2.367 2.483q-1.583.883-3.917.883m11.24-.333v-1.367h.4q.7 0 1.216-.166.517-.166.8-.684.284-.516.284-1.55v-16.4q0-1-.284-1.483a1.33 1.33 0 0 0-.783-.633q-.5-.15-1.167-.15h-.466v-1.367h5.5l10.066 18.7v-15.067q0-.966-.3-1.45a1.47 1.47 0 0 0-.8-.65 3.6 3.6 0 0 0-1.133-.166h-.467v-1.367h7.2v1.367h-.5q-.633 0-1.133.183t-.783.683q-.284.5-.284 1.534v20.033h-2.2l-10.666-19.633v15.866q0 1.034.266 1.55.267.517.784.684.516.166 1.15.166h.5v1.367zm21.8 0v-1.367h.566q.6 0 1.084-.166.483-.166.766-.684.284-.516.284-1.483V431.45q0-1.033-.284-1.534-.283-.5-.766-.683a3 3 0 0 0-1.084-.183h-.566v-1.367h8.566v1.367h-.6q-.6 0-1.083.183t-.75.683-.267 1.534v16.3q0 .999.267 1.5.267.5.767.683t1.066.183h.6v1.367zm11.96-20.667q-.2-.699-.45-1.083a1.34 1.34 0 0 0-.616-.533q-.367-.15-.9-.15h-.434v-1.367h8.034v1.367h-.667q-.867 0-1.267.333t-.4 1a3.7 3.7 0 0 0 .15 1q.084.267.15.567l2.967 10.9q.3 1 .517 1.9.216.9.4 1.7.182.8.35 1.6.166-.8.35-1.6t.416-1.684q.234-.883.534-1.95l3.033-10.633q.1-.3.167-.617a7 7 0 0 0 .1-.6q.033-.284.033-.516 0-.734-.433-1.067-.434-.333-1.367-.333h-.7v-1.367h6.933v1.367h-.466q-.6 0-.967.2t-.65.75q-.284.549-.617 1.65l-5.766 19.833h-2.434zm17.94 20.667v-1.367h.533q.633 0 1.117-.166.483-.167.766-.65.284-.484.284-1.417V431.45q0-1.067-.284-1.567-.283-.5-.766-.667a3.4 3.4 0 0 0-1.117-.166h-.533v-1.367h14.6l.133 5.8h-1.567l-.166-1.4a4 4 0 0 0-.3-1.367 2.35 2.35 0 0 0-.8-1.016q-.534-.384-1.4-.384h-4.634v8.9h6.8v1.6h-6.8v10.034h5.334q.933 0 1.483-.384a2.53 2.53 0 0 0 .85-1.016q.3-.634.4-1.367l.167-1.4h1.6l-.2 5.8zm17.87 0v-1.367h.467q.6 0 1.117-.15.516-.15.816-.633t.3-1.45v-16.567q0-1-.316-1.483-.318-.483-.817-.633-.5-.15-1.1-.15h-.467v-1.367h7.9q2.6 0 4.267.667 1.667.666 2.45 2.066.783 1.401.783 3.567 0 1.866-.583 3.117-.584 1.25-1.55 2a7.6 7.6 0 0 1-2.067 1.15l3.834 7.2q.732 1.299 1.4 1.983.666.683 1.533.683h.1v1.367h-.5q-1.6 0-2.6-.233t-1.683-.884q-.684-.65-1.284-1.883l-3.766-7.5h-2.367v6.9q0 .966.3 1.45.3.483.783.633t1.117.15h.333v1.367zm7.534-12.033q2.433 0 3.483-1.367t1.05-3.967q0-1.666-.433-2.75-.433-1.083-1.384-1.6-.95-.516-2.516-.516h-1.867v10.2zm17.826 12.366q-1.567 0-2.717-.333t-1.9-.95a3.9 3.9 0 0 1-1.116-1.45 4.5 4.5 0 0 1-.367-1.833q0-.7.283-1.217.284-.516.767-.8.483-.283 1.183-.283.067 1.5.55 2.716t1.384 1.9 2.166.684q1.833 0 2.834-1.084 1-1.083 1-3.05 0-1.367-.484-2.283-.483-.917-1.483-1.667t-2.633-1.55q-1.7-.9-2.834-1.9a6.3 6.3 0 0 1-1.683-2.316q-.55-1.317-.55-3.15 0-1.8.833-3.117a5.73 5.73 0 0 1 2.25-2.05q1.417-.733 3.217-.733 1.767 0 2.983.55t1.85 1.4.634 1.816q0 1.067-.617 1.567t-1.783.5q0-1.1-.35-2.067-.35-.966-1.084-1.566-.733-.6-1.9-.6-1.6 0-2.45 1.05t-.85 2.85q0 1.233.4 2.116.4.884 1.367 1.6.966.717 2.633 1.584 1.734.832 2.917 1.8 1.184.966 1.8 2.216t.617 3.05q0 2.134-.867 3.584a5.8 5.8 0 0 1-2.417 2.233q-1.55.783-3.583.783m9.2-.333v-1.367h.567q.6 0 1.083-.166t.767-.684q.282-.516.283-1.483V431.45q0-1.033-.283-1.534-.284-.5-.767-.683a3 3 0 0 0-1.083-.183h-.567v-1.367h8.567v1.367h-.6q-.6 0-1.084.183-.483.183-.75.683-.266.5-.266 1.534v16.3q0 .999.266 1.5.267.5.767.683t1.067.183h.6v1.367zm13.77 0v-1.367h.6q.633 0 1.183-.15t.883-.633.334-1.45v-18.567h-2.667q-1.2 0-1.7.834-.5.833-.633 1.933l-.134 1.4h-1.533l.133-5.8h16.3l.134 5.8h-1.534l-.166-1.4q-.1-1.1-.6-1.933-.501-.834-1.767-.834h-2.667v18.4q0 1.034.317 1.55.316.517.867.684.55.166 1.216.166h.6v1.367zm18.03 0v-1.367h.567q.666 0 1.2-.166.532-.167.85-.667.316-.5.316-1.467v-6.433l-5.233-10.567a7 7 0 0 0-.567-1.016 1.74 1.74 0 0 0-.616-.567q-.35-.183-.85-.183h-.367v-1.367h8v1.367h-.833q-.8 0-1.067.316-.267.317-.267.717t.167.9.333.867l2.1 4.4q.5 1 .867 1.916.366.917.6 1.684.267-.667.7-1.617.434-.95.9-1.983l1.8-3.734q.3-.633.45-1.183t.15-.95q0-.733-.483-1.033-.485-.3-1.317-.3h-.7v-1.367h6.933v1.367h-.3q-.434 0-.783.233-.35.234-.733.8t-.884 1.567l-4.8 9.733v6.267q0 1.034.317 1.566.316.534.85.717a3.6 3.6 0 0 0 1.167.183h.633v1.367z" style="fill-rule:nonzero"/><path d="M2284.08 178.266q0-.75-1.334-.833-4.166 8.416-12 18.625t-14.791 16.958q-6.958 6.75-9.334 6.75t-2.375-2q0-4.666 11.542-18.792 11.541-14.124 25.875-26.291 1.416-4.084 1.417-7.292 0-3.208-1.792-5.5-1.791-2.292-4.792-3.375-5.332-1.917-11.25-1.917-13.667 0-13.833 4.584 0 1.75 2.083 3.041t5.125 2.292q3.042 1 6.084 2.208t5.166 3.459q2.125 2.25 2.125 4.833t-.791 2.583-.792-1q0-3.083-3.5-5.333t-7.667-3.458q-4.166-1.209-7.666-3.209t-3.5-4.291q0-2.292 1.75-3.75 1.75-1.46 4.416-2.209 5.334-1.333 9.667-1.333t7.875.583a33 33 0 0 1 6.958 1.959q3.417 1.375 5.5 4.041t2.084 6.334q0 1.333-.417 3.25 19.834-15.75 31.75-15.75 4.416 0 4.417 3.333 0 3.917-5.292 10.542t-12.375 11.791q-7.083 5.167-11.667 5.167-2.833 0-5-1.167-.083-.083-.333-.083t-.25 2.542.125 5.083.708 6.833 1.667 7.334a15.4 15.4 0 0 0 3.25 5.375q2.166 2.333 4.958 2.333t8.709-2.667q.832-.416 1.458-.416.625 0 .625.333 0 .75-1.25 1.333-7.167 3.75-11.167 3.75t-6.625-2.875q-2.625-2.874-3.625-7.75t-1.333-9.416a133 133 0 0 1-.333-9.709q0-5.166-.25-6.833m.916-6a36 36 0 0 1-1.5 3.667h2.667q.416 0 .5.75t.167 1.833.583 1.792q.5.708 1.958 1.541 1.46.834 3.375.834 3.834 0 9.875-5.209t10.459-11.416q4.416-6.208 4.416-9.042 0-1.5-1.5-1.5-10.416 0-31 16.75m-37.166 45q1.916 0 8.166-6.417t13.5-16.416q7.25-10 10.834-18.25-13.167 11.333-23.042 23.416t-9.875 17.084q0 .583.417.583m80.25-28.583q.833 0 1.291.5.459.5.459 1.416t-1.25 2.334q-1.25 1.416-2.167 1.416t-1.333-.541a2 2 0 0 1-.417-1.25q0-.709 1.333-2.292 1.334-1.584 2.084-1.583m6.916 11.25q.667-.417 1.042-.417t.375.5v.25q.333 0-4.458 3.667a205 205 0 0 1-10.25 7.333q-5.459 3.666-6.875 3.667-2.417 0-2.417-2 0-2.417 4.167-9.125 4.166-6.71 6.083-6.709 1.416 0 1.417 1.084 0 1.083-3.834 5.916t-3.833 6.917q0 1.167.875 1.167t4.375-2.334q6.25-4.166 11.5-8.416z" style="fill:#0e0e0e;fill-rule:nonzero"/><path d="M2354.99 200.016q.668-.417 1.125-.417.459 0 .459.584v.166q-6.583 5.834-13.584 10.25t-11.666 4.417q-3.667 0-3.667-4.375t5.292-9.542q5.291-5.166 11.458-5.166 1.833.166 2.292.583t.458 1.167-1.542 2.708q-1.541 1.959-2.791 1.958-1.417-.25-1.417-1 0-.333.75-1.083 1.416-1.25 1.417-1.833 0-.584-.917-.584-2.916.084-7.333 4.792t-4.417 7.792q0 2.333 3.042 2.333t6.541-2.167q6.167-3.75 12.417-8.916z" style="fill:#0e0e0e;fill-rule:nonzero"/><path d="M2382.16 199.933q.583-.417 1.083-.417t.5.5v.25q-6.583 5.5-12.916 9.833-6.334 4.834-8.792 4.834t-2.458-2q0-2.167 3.166-7.334t3.167-5.541q0-.375-.333-.375-1.084 0-6.625 4.791t-9.709 8.875q-1.582 1.417-2.208 1.417-.625 0-.625-.917t1.083-2.333l29.084-44.333q.916-1.417 2.458-1.417t1.542 1q0 .584-.459 1.25-.457.666-5.625 7.958-5.166 7.291-5.958 8.625t-7.25 11a3012 3012 0 0 1-6.833 10.209q-.375.541-.375.875t.291.333q.293 0 .375-.083 2.667-2.667 7.292-6.209 4.624-3.541 6.375-3.541.666 0 1.167.458.5.459.5 1.5t-3.25 5.667q-3.25 4.625-3.25 6t.875 1.375q.874 0 4.375-2.334 6.25-4.166 11.5-8.416z" style="fill:#0e0e0e;fill-rule:nonzero"/><path d="M2390.66 203.849q-.5 0-.5-.375 0-.374.583-.875 2.75-2.25 2.75-4.083 0-1.167-2.083-1.333-3.75.083-8.958 5.416-5.21 5.334-5.209 8 0 .917 1.042.917 1.041 0 2.792-1.417 1.582-1 5.916-5 1-1 1.917-1 1.167 0 1.167 1.084 0 .416-.25.666t-.917 1.042a35 35 0 0 0-1.167 1.458q-1.5 2.167-1.5 2.834 0 1.666 1.334 1.666 1.75 0 6.583-3.208t8.833-6.458l4-3.167q.583-.417 1.084-.417.5 0 .5.584v.166q-6.417 5.416-13.542 10.167t-9.375 4.75q-2.667 0-2.667-2.833 0-.667.25-1.25.25-.584.25-.834 0-.249-.166-.333-.25 0-3.209 2.25t-5.166 2.25q-2.21 0-2.209-2.333t3.125-6.292q3.125-3.959 8.375-7.208t10.25-3.25q1.167 0 1.959.583.79.583.791 1.792 0 1.208-2.416 3.625t-4.167 2.416" style="fill:#0e0e0e;fill-rule:nonzero"/><path d="M2425.49 200.016q.583-.417 1.084-.417.5 0 .5.584v.166a301 301 0 0 1-12.334 9.375q-6.082 4.375-8.916 4.375-2.084 0-2.084-2.25t2-4.5 3.959-3.916q1.958-1.667 1.958-2.209 0-.541-.625-1.25-.625-.708-1.042-.958-1.417 1.416-6.166 5.167l-.334-1.25q5.25-4.167 6.084-5.584v-.75q0-2.083.416-2.833.417-.75 2-2.083 1.584-1.334 2.167-1.334t1.042.417.458.833q0 .417-.292.959a6.6 6.6 0 0 1-.583.916q-.291.375-.792.917-.5.542-.625.75-.124.209-.25.708a1.52 1.52 0 0 1-.541.834q-.417.333-.417.833t.667 2.208q.666 1.709.666 2.5 0 .792-3.083 3.75-3.084 2.96-3.083 4.792 0 1 .916 1 1.167 0 4.334-2.083l1-.667q5.417-3.75 10.166-7.583z" style="fill:#0e0e0e;fill-rule:nonzero"/><path d="m2431.49 201.933 2.667-4.084a1.6 1.6 0 0 0-.5-.083q-3.5 0-9.167 5.333t-5.666 7.5q0 .584.666.584 2.083 0 6.334-3.542t5.666-5.708m18.584-1.584q-17.334 14-21 14-1.417 0-1.417-1.666 0-1.667 1.25-5.584 0-.083-.167-.083-9.584 7.917-12.75 7.917-2.166 0-2.166-1.584 0-3.5 7.541-10.25t12.042-6.75q.584 0 1.25.834 1.916-2.834 21.5-30.75 2.084-2.584 3.375-2.584 1.292 0 1.292.834 0 2.083-14.334 19.666a141 141 0 0 0-9.791 13.875q-4.46 7.209-4.459 10.959 0 1.583.917 1.583 1.083 0 3.833-1.917 5.667-4.083 9.917-7.5l1.583-1.333q.583-.417 1.084-.417.5 0 .5.584zm26.916 14.834q-1.666 0-1.666-1.667 0-4.5 10.125-17.083t21.125-21.667q4-8.416 4-13.083 0-5.584-5.584-5.584-5.25 0-12.375 5.25t-12.041 11.709q-4.917 6.457-4.917 10.125 0 2.666 3.083 2.666 4.417 0 9.625-4.5 5.21-4.5 7.792-8.75.916-1.5 1.5-1.5.583 0 .583.584 0 .583-.333 1-2.834 4.25-9 9.75t-11.25 5.5-5.083-3.75q0-3.25 3.5-8.417t8.541-9.958q5.042-4.792 11.334-8.25t11.208-3.459q6.417 0 6.417 6.334 0 4.165-3 11.25 8.25-6.084 13.25-6.084 3 0 3 3.167t-5.584 12.292-11.166 16.458l-5.584 7.417q0 .166.084.166 3.166-2.166 11.125-9.5t14.666-12.666q6.709-5.334 9.959-5.334 1.916 0 1.916 1.917t-5 8.583q-5 6.667-10 13.667t-5 9.667q0 2.666 2.25 2.666 2.584 0 6.75-2.625t5.834-4.208q1.666-1.584 2.083-1.583.417 0 .417.333 0 1-2.792 3.417t-7 4.583-7.208 2.167q-4 0-4-3.292t2.791-8.042a70 70 0 0 1 6.125-8.833q9.5-11.334 10.584-15 0-.917-.834-.917-2 0-12.333 9t-15.167 13.667-6.5 6.333a90 90 0 0 0-2.583 2.667 28 28 0 0 1-1.833 1.833q-1.75 1.584-2.334 1.584-.083 0-.166-.084-.75-.333-.75-1.166 0-2.084 5.333-8.75 9.417-11.667 16.042-22.167 6.624-10.5 6.625-14 0-1.333-1.667-1.333-4.083 0-12.833 7.333-6.334 13-17.334 26.583-11 13.584-14.75 13.584m1.834-2.167q2.166 0 10.916-11.375t14.75-22.625q-9.5 8.75-18.041 19.375t-8.542 13.708q0 .917.917.917m89.336-13q.666-.417 1.125-.417t.458.584v.166q-6.583 5.834-13.583 10.25t-11.667 4.417q-3.666 0-3.666-4.375t5.291-9.542q5.292-5.166 11.459-5.166 1.833.166 2.291.583.459.417.459 1.167t-1.542 2.708q-1.541 1.959-2.792 1.958-1.416-.25-1.416-1 0-.333.75-1.083 1.416-1.25 1.416-1.833 0-.584-.916-.584-2.917.084-7.334 4.792t-4.416 7.792q0 2.333 3.041 2.333t6.542-2.167q6.167-3.75 12.417-8.916zm34 12.5q2.25 0 6.417-3.917t9.083-10.333q-2.5.417-4.667.417-5.416 0-8-2.542t-2.583-7.167 3.042-10.958a57.8 57.8 0 0 1 7.583-11.833 45 45 0 0 1 10.458-9.292q5.917-3.792 11.084-3.792 5.666 0 5.666 6t-4.75 15.834q-4.75 9.832-11.833 19.5 5.083-2 10.667-5.584t7.375-4.5 2.708-.916 1.458.458q.542.459.542 1.042 0 1.166-2.708 1.666t-10.209 4.834q-7.5 4.333-11.916 5.75-6 7.916-11.542 12.833t-9.042 4.917q-4.833 0-4.833-6.917 0-1.917.417-5.542.416-3.625.416-4.708 0-6.5-3.916-6.5-1.418 0-3 .5-4.834 7.167-7.75 11.167t-6.917 8.75q-7.667 9.083-13.917 9.083-2.5 0-2.5-1.833 0-3.834 9.167-12.875t17.917-14.042q5.25-8 8.25-12.458t7.666-10.625 8.417-10q5.583-5.584 9.5-5.584 1.583 0 1.583.917 0 .584-.5.833-1.166.667-1.833 1-6.666 4.417-14.333 14.5-4.917 6.584-13.25 18.917 1.583-.5 3.125-.5 1.54 0 2.75.667 1.208.666 1.708 1.916.833 2.084.833 4.917l-1.083 11.333q0 4.667 3.25 4.667m15-16.583q1.166 0 2.417-.25 7.25-9.834 12.458-20.084t5.208-15.458-4.333-5.208q-5.25 0-11.542 5.416t-10.541 12.959q-4.25 7.541-4.25 13.458 0 9.167 10.583 9.167m-53.083 22.5q3 0 7.75-5.959 4.749-5.958 12.75-18.125-7.334 4.334-14.667 12.042t-7.333 10.792q0 1.25 1.5 1.25" style="fill:#0e0e0e;fill-rule:nonzero"/><path d="M2646.08 206.683q4.666 0 11.166-5.25l1.417.416q-8.166 6.834-14.083 6.834-.667 0-1-.084-2.25 2.75-4.917 4.459t-4.667 1.708q-3.166 0-3.166-3.542t5.916-9.458q-1-2.417-1-5.083t1.917-4.334q1.917-1.666 4.458-1.666t4.292 1.666q1.75 1.667 1.75 4.75 0 4.75-3.083 9.5.333.084 1 .084m-2.667-.834q2.583-4.333 2.583-7.375 0-3.04-1.5-4.5-1.5-1.458-2.916-1.458-2.917 0-2.917 3t1.333 5.958q1.333 2.96 3.417 4.375m-9.167 4.917q0 1.667 2.167 1.667t5.5-4.417q-2.25-1.167-4-4.083-3.666 4-3.667 6.833" style="fill:#0e0e0e;fill-rule:nonzero"/><path d="M2692.74 200.266q-17.583 14.667-21.75 14.667-2.416 0-2.416-2t1.791-4.75q1.792-2.751 3.584-4.875 1.791-2.125 1.791-2.542t-.25-.417q-7.75 5.167-9.208 6.334t-4.75 3.833q-3.291 2.667-4.292 3.333a3.8 3.8 0 0 1-2.166.667q-1.167 0-1.167-1 0-1.167 4.667-7.333 4.5-6.167 4.5-6.917 0-.167-.292-.167-.291 0-7.208 5.084l-.334-1.25q5.917-4.75 8-6.084t3.375-1.333q1.292 0 1.292 1.25 0 .833-4.708 6.792t-4.709 6.416q0 .459.292.459.291 0 9.5-6.709t11.208-6.708q.584 0 1.125.458.542.46.542.875 0 1-4.417 6.625t-4.416 6.375 1.041.75q1.042 0 4.459-2.25 6.25-4.083 11.5-8.416l1.833-1.5q.584-.417 1.083-.417.5 0 .5.5z" style="fill:#0e0e0e;fill-rule:nonzero"/><path d="M2699.66 203.849q-.5 0-.5-.375 0-.374.583-.875 2.75-2.25 2.75-4.083 0-1.167-2.083-1.333-3.75.083-8.958 5.416-5.21 5.334-5.209 8 0 .917 1.042.917 1.041 0 2.792-1.417 1.582-1 5.916-5 1-1 1.917-1 1.167 0 1.167 1.084 0 .416-.25.666t-.917 1.042a35 35 0 0 0-1.167 1.458q-1.5 2.167-1.5 2.834 0 1.666 1.334 1.666 1.75 0 6.583-3.208t8.833-6.458l4-3.167q.583-.417 1.084-.417.5 0 .5.584v.166q-6.417 5.416-13.542 10.167t-9.375 4.75q-2.667 0-2.667-2.833 0-.667.25-1.25.25-.584.25-.834 0-.249-.166-.333-.25 0-3.209 2.25t-5.166 2.25q-2.21 0-2.209-2.333t3.125-6.292q3.125-3.959 8.375-7.208t10.25-3.25q1.167 0 1.959.583.79.583.791 1.792 0 1.208-2.416 3.625t-4.167 2.416" style="fill:#0e0e0e;fill-rule:nonzero"/><path d="M2736.16 200.016q.584-.417 1.083-.417.5 0 .5.584v.166q-8.666 7.167-13.166 10-5.834 4.417-9.834 4.417-3.5 0-3.5-4.167 0-5.583 7.209-16.541t16.208-19.709q9-8.75 13.583-8.75 2.084 0 2.084 1.834 0 4.583-10.959 15.125t-21.541 17.958q-3.084 5.916-3.084 9t2.167 3.083q2.166 0 5.667-2.5 5.916-3.5 11.5-8.333zm10-31.75q-3.5 0-12.417 10.083t-14.75 20.167q9.584-6.834 18.75-16.708 9.167-9.876 9.167-12.792 0-.75-.75-.75" style="fill:#0e0e0e;fill-rule:nonzero"/><path d="m2742.24 201.933 2.667-4.084a1.6 1.6 0 0 0-.5-.083q-3.5 0-9.167 5.333t-5.666 7.5q0 .584.666.584 2.083 0 6.334-3.542t5.666-5.708m18.584-1.584q-17.334 14-21 14-1.417 0-1.417-1.666 0-1.667 1.25-5.584 0-.083-.167-.083-9.583 7.917-12.75 7.917-2.166 0-2.166-1.584 0-3.5 7.541-10.25t12.042-6.75q.584 0 1.25.834 1.917-2.834 21.5-30.75 2.084-2.584 3.375-2.584 1.292 0 1.292.834 0 2.083-14.334 19.666a141 141 0 0 0-9.791 13.875q-4.46 7.209-4.459 10.959 0 1.583.917 1.583 1.083 0 3.833-1.917 5.667-4.083 9.917-7.5l1.583-1.333q.583-.417 1.084-.417.5 0 .5.584zM662.486 378.312q-1.275 3.975-1.275 6.413 0 2.437.375 4.087 8.55-5.175 12-7.05-4.725-2.625-11.1-3.45m12.525 4.35-12.75 8.175q3.075 6.6 14.025 6.6 2.175 0 4.95-.525.525-1.8.525-3.225 0-6.6-6.75-11.025m21.75-.075q0-2.475-1.725-3.975t-5.1-1.5q-5.55 0-13.575 4.725 8.025 5.1 8.025 12.525 0 .975-.225 1.8 5.7-1.875 9.15-5.85t3.45-7.725m-43.425-28.2q7.725 0 14.813-2.7 7.087-2.7 11.025-6.337 3.937-3.638 3.937-6.713 0-4.5-8.887-4.5t-15.863 6.075-8.7 14.025q2.25.15 3.675.15m1.425 23.4q-13.575 0-20.925 4.2t-7.35 9.375q0 3.075 2.813 5.1 2.812 2.025 7.837 2.025 8.025 0 21.6-8.025-1.125-2.475-1.125-5.812t.9-6.713q-2.4-.15-3.75-.15m12.75-5.4q8.25 0 16.95-3t14.963-7.237 10.275-8.813 4.012-7.8q0-4.275-7.275-4.275t-15.712 4.688a62.3 62.3 0 0 0-15.075 11.7q-6.638 7.012-10.613 14.662.825.075 2.475.075m-10.95-49.65.225 1.125q-8.4 1.425-14.175 7.35t-5.775 12.15q0 3.975 2.813 6.863 2.812 2.887 8.587 3.787 1.95-8.475 9.413-14.925 7.462-6.45 17.362-6.45 4.65 0 7.013 1.538 2.362 1.537 2.362 4.087 0 5.625-9.187 11.288-9.188 5.662-22.463 5.662-2.25 0-3.3-.075a22 22 0 0 0-.225 3.075q0 4.95 2.888 8.588t8.812 4.912q2.775-5.85 7.5-11.4t10.725-10.087 13.463-7.313 15.225-2.775 7.762 5.025q0 3.525-4.162 8.363-4.163 4.837-10.725 9.337-6.563 4.5-15.788 7.613-9.225 3.112-18.225 3.112-1.5 0-2.25-.075a48 48 0 0 0-1.575 3.825q7.125.975 12.075 3.75 9.675-5.025 16.275-5.025 3.675 0 5.588 1.688 1.912 1.687 1.912 4.462 0 4.2-4.012 8.663-4.013 4.462-10.763 6.412-1.725 5.625-8.55 9.863t-16.125 4.237q-3.825 0-8.1-.9l.75-.675q2.85.525 6 .525 8.175 0 14.475-3.562 6.3-3.563 8.475-8.813-3.15.525-5.625.525-11.325 0-15.45-6.225-12.6 7.2-23.1 7.2-5.7 0-9.075-2.437-3.375-2.438-3.375-5.963 0-5.55 7.988-9.9 7.987-4.35 23.137-4.35 1.2 0 3.45.15.825-2.4 1.5-3.975-6.375-1.35-9.487-5.25t-3.113-9.225q0-1.95.3-3.525-6.9-.825-10.312-3.937-3.413-3.113-3.413-7.463 0-6.45 6.338-12.712 6.337-6.263 15.937-8.138m45.675 73.725q5.4 0 10.5-5.4v-.075q0-3.6 3.45-6.75-.225-.825-1.275-.825-5.55 0-9.825 4.163-4.275 4.162-4.275 7.312 0 1.575 1.425 1.575m11.625-14.175q3.975 0 3.975 2.625 0 2.25-2.775 5.4v.6q0 2.475 2.175 2.475 1.35 0 3-1.125l3.675-2.4.15 1.125-3.45 2.175q-2.4 1.575-4.687 1.575t-3.038-2.325q-6 5.325-11.4 5.325-3.225 0-3.225-3.075 0-3.9 4.575-8.137 4.575-4.238 11.025-4.238" style="fill:#0e0e0e;fill-rule:nonzero"/><path d="M768.086 352.587q-3.75 0-17.55 12.075t-22.35 22.2q9.975-6.825 25.125-19.237 15.15-12.413 15.15-14.813 0-.225-.375-.225m-42.15 37.05q-3 3.975-3 5.363 0 1.387 1.275 1.387 3.525 0 12.9-6.525l.15 1.125q-9.975 6.525-14.1 6.525-2.025 0-2.025-1.875 0-4.125 9.638-14.887t21.3-19.95 16.537-9.188q.9 0 .9.675 0 1.8-3.637 5.663-3.638 3.862-9.788 8.812a533 533 0 0 1-11.475 9q-5.325 4.05-11.55 8.588t-7.125 5.287" style="fill:#0e0e0e;fill-rule:nonzero"/><path d="M738.911 396.462q5.4 0 10.5-5.4v-.075q0-3.6 3.45-6.75-.225-.825-1.275-.825-5.55 0-9.825 4.163-4.275 4.162-4.275 7.312 0 1.575 1.425 1.575m11.625-14.175q3.975 0 3.975 2.625 0 2.25-2.775 5.4v.6q0 2.475 2.175 2.475 1.35 0 3-1.125l3.675-2.4.15 1.125-3.45 2.175q-2.4 1.575-4.687 1.575t-3.038-2.325q-6 5.325-11.4 5.325-3.225 0-3.225-3.075 0-3.9 4.575-8.137 4.575-4.238 11.025-4.238" style="fill:#0e0e0e;fill-rule:nonzero"/><path d="M773.486 382.362q1.575 0 1.575 1.688t-2.4 4.912q8.55-5.925 13.725-5.925 2.025 0 2.025 1.725t-1.5 3.563a19 19 0 0 1-3.3 3.187q-4.8 3.45-4.8 4.35 0 .525.863.525.862 0 2.887-.9t3.6-1.837 3.788-2.325 2.362-1.463l.15 1.125q-10.125 6.75-14.175 6.75-1.95 0-1.95-1.875 0-1.275 1.613-3.037a31 31 0 0 1 3.487-3.263q5.175-3.9 5.175-5.175 0-.375-.825-.375-2.775 0-8.25 3t-12.15 9.75q-.45.45-1.687.45t-1.238-.675q0-.225 5.175-5.55t5.175-6.9q0-.375-.487-.375-.488 0-2.025.975-1.538.975-4.725 3.113a255 255 0 0 1-5.438 3.562l-.225-1.05q1.125-.75 3.075-2.1t3.225-2.212a182 182 0 0 1 2.775-1.838q2.925-1.8 4.5-1.8" style="fill:#0e0e0e;fill-rule:nonzero"/><path d="M807.686 383.262q0-.6-1.2-.6t-4.875 2.288q-3.675 2.287-6.225 4.912 5.025-.825 8.663-3.037 3.637-2.213 3.637-3.563m-14.7 10.575q0 2.175 3 2.175 5.7 0 14.175-6.15l.15 1.125q-8.85 6.225-15.15 6.225-4.5 0-4.5-3.75t5.588-7.8 11.512-4.05q1.875 0 1.875 1.125 0 1.8-4.162 4.313-4.163 2.512-10.913 3.712-1.575 1.8-1.575 3.075" style="fill:#0e0e0e;fill-rule:nonzero"/><path d="M854.336 352.587q-3.75 0-17.55 12.075t-22.35 22.2q9.975-6.825 25.125-19.237 15.15-12.413 15.15-14.813 0-.225-.375-.225m-42.15 37.05q-3 3.975-3 5.363 0 1.387 1.275 1.387 3.525 0 12.9-6.525l.15 1.125q-9.975 6.525-14.1 6.525-2.025 0-2.025-1.875 0-4.125 9.638-14.887t21.3-19.95 16.537-9.188q.9 0 .9.675 0 1.8-3.637 5.663-3.638 3.862-9.788 8.812a533 533 0 0 1-11.475 9q-5.325 4.05-11.55 8.588t-7.125 5.287m60.675-20.25q-5.175 0-9.412 2.775a21.3 21.3 0 0 0-6.788 7.125q5.175-.9 10.688-.9 5.512 0 10.162.975 1.575-3 1.575-5.25 0-4.725-6.225-4.725m-35.7 23.4q0 2.25 2.438 3.638t7.05 1.387 9.487-1.575q-3.225-2.775-3.225-7.35t1.95-8.475q-8.025 1.8-12.862 5.4-4.838 3.6-4.838 6.975m29.025 5.55q12.225 0 23.625-10.5-3.375-4.575-10.575-6.9-2.7 4.8-8.1 9.113t-12.375 6.562q2.925 1.725 7.425 1.725m-9.975-18.225q-2.1 4.05-2.1 8.55t3.375 7.2q6.3-2.325 11.55-6.675t7.95-8.925q-4.875-1.125-10.2-1.125t-10.575.975m75.75-36.15q-2.325 1.8-4.012 3.3-1.688 1.5-4.313 4.725a260 260 0 0 0-4.012 5.025q-1.388 1.8-4.425 5.963a1357 1357 0 0 1-4.313 5.887q8.4-1.95 16.538-6.937t12.825-10.125 4.687-8.363q0-2.775-4.35-2.775t-8.625 3.3m-30.15 26.025q2.25 0 3.45-.15 9.6-13.125 14.025-17.85 11.175-12.15 22.2-12.15 4.5 0 4.5 3.375 0 2.7-2.887 6.638t-7.575 7.912q-4.687 3.975-11.55 7.388t-13.913 4.837q-9.225 12.375-17.1 18.825 1.95 3 1.95 6.225 0 5.775-6.112 10.538-6.113 4.762-18.038 6.562v-.825q10.425-1.65 15.975-6.262 5.55-4.613 5.55-10.238 0-2.325-1.05-4.65-12.15 9.15-25.8 9.15-5.1 0-8.25-2.175-5.625 1.5-10.8 1.5t-8.025-1.687-2.85-4.313q0-3.75 5.288-7.575 5.287-3.825 14.512-5.55 2.625-4.875 7.463-8.025 4.837-3.15 10.987-3.15 3.825 0 5.7 1.613t1.875 4.312-1.575 5.7q7.125 2.025 11.475 6.6 5.475-5.4 13.275-15.825-2.1.15-3.3.15-8.625 0-13.087-3.937-4.463-3.938-4.463-9.863 0-7.725 7.013-14.062 7.012-6.338 18.487-6.338 2.55 0 4.725.3l-.375 1.05q-2.85-.375-4.875-.375-10.575 0-16.987 5.888-6.413 5.887-6.413 13.162 0 5.7 4.238 9.488 4.237 3.787 12.337 3.787" style="fill:#0e0e0e;fill-rule:nonzero"/><path d="M904.286 396.012q2.85 0 7.613-2.887 4.762-2.888 7.95-5.588 3.187-2.7 3.187-3.15t-1.087-.75-2.963-.3-4.95 1.463q-3.075 1.462-5.325 3.487t-3.75 3.975-1.5 2.85.825.9m20.1-12.6q1.5-1.2 1.65-1.2 2.025.225 2.1.338a.46.46 0 0 1 .075.262q0 .15-.6.938t-3.525 3.712q-7.275 7.125-7.275 8.625 0 .6.525.6 3.6 0 13.5-6.825l.15 1.125q-9.975 6.525-14.1 6.525-2.025 0-2.025-1.912 0-1.913 2.325-4.988-8.85 6.525-13.8 6.6-1.8 0-1.8-2.175 0-3.9 4.988-8.325 4.987-4.425 13.162-4.425 2.7 0 4.65 1.125" style="fill:#0e0e0e;fill-rule:nonzero"/><path d="M943.736 382.362q1.575 0 1.575 1.688t-2.4 4.912q8.55-5.925 13.725-5.925 2.025 0 2.025 1.725t-1.5 3.563a19 19 0 0 1-3.3 3.187q-4.8 3.45-4.8 4.35 0 .525.863.525.862 0 2.887-.9t3.6-1.837 3.788-2.325 2.362-1.463l.15 1.125q-10.125 6.75-14.175 6.75-1.95 0-1.95-1.875 0-1.275 1.613-3.037a31 31 0 0 1 3.487-3.263q5.175-3.9 5.175-5.175 0-.375-.825-.375-2.775 0-8.25 3t-12.15 9.75q-.45.45-1.687.45t-1.238-.675q0-.225 5.175-5.55t5.175-6.9q0-.375-.487-.375-.488 0-2.025.975-1.538.975-4.725 3.113a255 255 0 0 1-5.438 3.562l-.225-1.05q1.125-.75 3.075-2.1t3.225-2.212a182 182 0 0 1 2.775-1.838q2.925-1.8 4.5-1.8" style="fill:#0e0e0e;fill-rule:nonzero"/><path d="M962.936 396.012q2.625 0 7.275-2.737t8.063-5.55 3.412-3.3-1.087-.788q-1.088-.3-2.963-.3t-4.95 1.463q-3.075 1.462-5.325 3.487t-3.75 3.975-1.5 2.85.825.9m38.25-27.075q-3.075 3-7.275 7.163t-6.637 6.675a221 221 0 0 1-4.05 4.087 140 140 0 0 0-2.738 2.738 286 286 0 0 0-2.4 2.512q-1.275 1.35-1.95 2.363t-.675 1.612.525.6q3.6 0 13.5-6.825l.15 1.125q-9.975 6.525-14.1 6.525-2.025 0-2.025-1.875 0-2.025 2.4-5.025-8.85 6.525-13.875 6.6-1.8 0-1.8-2.175 0-3.9 4.988-8.325 4.987-4.425 13.162-4.425 2.775 0 4.725 1.125.375-.3.9-.825l31.35-30.375q.45-.45 1.8-.45t1.35.825q0 .3-.337.638-.338.337-2.213 1.987t-3.637 3.263a956 956 0 0 0-4.913 4.537q-3.15 2.925-6.225 5.925" style="fill:#0e0e0e;fill-rule:nonzero"/><path d="M1004.86 383.262q0-.6-1.2-.6t-4.875 2.288q-3.675 2.287-6.225 4.912 5.025-.825 8.663-3.037 3.637-2.213 3.637-3.563m-14.7 10.575q0 2.175 3 2.175 5.7 0 14.175-6.15l.15 1.125q-8.85 6.225-15.15 6.225-4.5 0-4.5-3.75t5.588-7.8 11.512-4.05q1.875 0 1.875 1.125 0 1.8-4.162 4.313-4.163 2.512-10.913 3.712-1.575 1.8-1.575 3.075" style="fill:#0e0e0e;fill-rule:nonzero"/><path d="m1017.46 385.212 3.525-.45q.9 0 1.425.6t.525 1.425q0 1.65-2.325 3.6t-4.612 3.675q-2.288 1.725-2.288 2.775 0 .6.975.6 3.225 0 9.825-3.75 2.85-1.575 6.075-3.825l.15 1.125a91 91 0 0 1-5.7 3.375q-1.8 1.125-5.25 2.588-3.45 1.462-5.7 1.462t-2.25-2.025q0-2.325 2.4-4.387t4.763-3.45q2.362-1.388 2.362-2.138 0-.225-.525-.225l-4.2.375a9.7 9.7 0 0 1-2.175-.225q-3.6 2.55-7.575 5.025l-.225-1.05 7.125-4.95q.075-1.425 1.8-2.85t2.925-1.425 1.2.638-1.425 1.612-1.425 1.425.6.45" style="fill:#0e0e0e;fill-rule:nonzero"/><path d="M1042.74 380.787q.3-.45.713-.45.412 0 .412.45t-.45.9-.637 2.738q-.188 2.288-1.163 5.55t-3.375 5.887q0 .15.3.15.525 0 3.825-1.8l1.05-.525q2.85-1.575 6.075-3.825l.15 1.125q-11.7 7.575-17.925 7.575-2.475 0-3.637-1.05-1.163-1.05-1.163-2.325t.6-2.062 1.5-.788q1.125 0 1.125 1.2 0 .75-1.2 1.35-.375.225-.375.75t.863 1.238q.862.712 1.837.712 3.3 0 5.663-4.162 2.362-4.163 3.037-8.288v-.225q-7.275 4.95-9.825 6.45l-.225-1.05q12.225-7.875 12.825-9.525m-382.762-183.15q6.833-1.25 13.041-1.25t11.375 1.084q1.75-3.333 1.75-5.834 0-5.25-6.916-5.25-5.917 0-11.042 3.209-5.126 3.208-8.208 8.041m4 18.917q3.083 1.167 7.791 1.167t12.375-3.917q8-4.083 12.5-8.583-3.75-3.916-10.333-6-2.917 5.25-8.833 10-5.918 4.75-13.5 7.333m-8.334-9.333q0-4.167 2.25-8.25-8.333 2.084-13.333 5.958t-5 7.458q0 2.5 2.708 4.042t7.875 1.542 10.334-1.667q-4.833-3-4.834-9.083m28.167-8.75q-5.416-1.25-11.625-1.25t-12.875 1.416q-2.417 4.167-2.417 8.334 0 6 5.25 8.75 7-2.5 12.834-7.334t8.833-9.916m14.167-27.5q0 5.166 8 5.166 5.333 0 11.791-4.5t10.959-11.083 4.5-12.167q0-1-.334-2.666-7.833.25-16.208 4.791t-13.542 10.375q-5.166 5.833-5.166 10.084m73-32.584q10-5 18.916-5 5.918 0 9.084 1.959 3.166 1.958 3.166 4.875 0 4.5-6.583 8.25t-17.75 3.75q-6.333 0-22.208-3.25t-21.459-3.334q.25 1.25.25 2.5 0 5.917-4.541 12.75t-11.459 11.542q-6.917 4.708-13.166 4.708-4.25 0-6.417-1.875t-2.167-5.208 2.542-7.458 7-7.917 11.458-6.583q7-2.792 14.917-3.292-2.834-7.583-17.667-7.583-4.166 0-8.791 1.416-4.625 1.418-8.292 3.417-7.416 4.167-11.583 7.583l-1.667 1.417-.5-1q1.417-1.416 5.583-4.333t7.709-4.75q3.541-1.834 8.625-3.334t9.833-1.5q15.333 0 18.083 8.584.75-.084 2.334-.084 7.5 0 22.666 2.792t20.334 2.792q9.75 0 15.708-3t5.958-6.584q0-2.416-3.041-3.958t-9.75-1.542-16.542 4.084zm-10.667 13.084-.25.833q-10.583 3.834-24.583 17.833-1.25 1.25-27.917 29.584-2.583 2.5-7.417 6.333 3.584 4.083 3.584 8.833 0 6.417-6.792 11.709t-20.042 7.291v-.916q11.584-1.833 17.75-6.959 6.168-5.124 6.167-11.375 0-3.833-2.417-7.25-15.916 11.418-27.583 11.417-5.333 0-8.833-1.667-6.084 1.75-12 1.75t-9.084-1.875q-3.166-1.875-3.166-4.791 0-4 5.5-8.125t15.25-6.209q3.25-5.417 9.041-9.041 5.793-3.625 12.709-3.625 4.25 0 6.333 1.791 2.083 1.792 2.083 4.75 0 2.96-1.75 6.375 6.75 1.917 11.167 5.75l27.917-27.833q7.25-8 16.333-14.958 9.084-6.958 18-9.625m-32.667 51.083 3.917-.5q1 0 1.583.667.584.666.584 1.583 0 1.834-2.584 4a125 125 0 0 1-5.125 4.083q-2.541 1.917-2.541 3.084 0 .666 1.083.666 3.583 0 10.917-4.166 3.166-1.75 6.75-4.25l.166 1.25q-2.833 1.833-6.333 3.75-2 1.25-5.833 2.875t-6.334 1.625-2.5-2.25q0-2.583 2.667-4.875t5.292-3.834q2.625-1.54 2.625-2.375 0-.25-.584-.25l-4.666.417a10.8 10.8 0 0 1-2.417-.25 170 170 0 0 1-8.417 5.583l-.25-1.166 7.917-5.5q.083-1.583 2-3.167t3.25-1.583q1.333 0 1.333.708t-1.583 1.792q-1.583 1.083-1.583 1.583t.666.5" style="fill:#0e0e0e;fill-rule:nonzero"/><path d="M750.561 199.637q.417-.333 2.25-.166.917.166.917.375t-.417.708q-.417.5-4 4-7.417 7.25-7.417 9.083 0 .417.5.417 2.833 0 20.584-12l2.25-1.833q.416-.334 1.583-.25 1.167.083 1.167.833a.8.8 0 0 1-.25.583q-11.667 10.5-11.667 12.667 0 .917 1.333.917 1.334 0 3.584-1a38 38 0 0 0 4-2.042 217 217 0 0 0 4.208-2.583q2.459-1.542 2.625-1.625l.167 1.25q-3.833 2.5-8.75 5t-7.459 2.5-2.541-2.084q0-2.916 4.5-7.583-13.083 8.5-16.167 8.5-1.833 0-1.833-2.167 0-4.583 10.833-13.5" style="fill:#0e0e0e;fill-rule:nonzero"/><path d="M788.894 200.387q0-.666-1.333-.666t-5.417 2.541q-4.083 2.542-6.916 5.459 5.583-.916 9.625-3.375t4.041-3.959m-16.333 11.75q0 2.418 3.333 2.417 6.334 0 15.75-6.833l.167 1.25q-9.833 6.916-16.833 6.916-5 0-5-4.166t6.208-8.667q6.209-4.5 12.792-4.5 2.083 0 2.083 1.25 0 2-4.625 4.792t-12.125 4.125q-1.75 2-1.75 3.416" style="fill:#0e0e0e;fill-rule:nonzero"/><path d="M829.561 173.887q0 .334-.917 1.209t-3.291 3.083a3285 3285 0 0 1-5.709 5.292l-5.583 5.166h13.917q.25 0 .25.334 0 1-.75 1h-14.834q-21.5 20.333-21.5 24.083 0 .917 1.167.917 2 0 11.667-6.084 1.667-1 2-1.166l.166 1.25q-11.332 7.5-16.083 7.5-2.5 0-2.5-1.834 0-2.583 3.917-7 5.166-6.166 17.25-17.583h-14.334q-1.166 0-1.166-.708 0-.709.666-.709h16.25l16.667-15.333q.417-.333 1.583-.25 1.167.084 1.167.833" style="fill:#0e0e0e;fill-rule:nonzero"/><path d="M843.894 173.887q0 .334-.916 1.209-.917.875-3.292 3.083a3244 3244 0 0 1-5.708 5.292l-5.584 5.166h13.917q.25 0 .25.334 0 1-.75 1h-14.833q-21.5 20.333-21.5 24.083 0 .917 1.166.917 2.001 0 11.667-6.084 1.667-1 2-1.166l.167 1.25q-11.334 7.5-16.084 7.5-2.5 0-2.5-1.834 0-2.583 3.917-7 5.168-6.166 17.25-17.583h-14.333q-1.167 0-1.167-.708 0-.709.667-.709h16.25l16.666-15.333q.417-.333 1.584-.25t1.166.833m44.917 21q-1.417 4.417-1.417 7.125t.417 4.542q9.5-5.75 13.333-7.833-5.25-2.917-12.333-3.834m13.917 4.834-14.167 9.083q3.417 7.333 15.583 7.333 2.418 0 5.5-.583.584-2 .584-3.583 0-7.333-7.5-12.25m24.166-.084q0-2.75-1.916-4.416-1.917-1.667-5.667-1.667-6.167 0-15.083 5.25 8.916 5.667 8.916 13.917a7.6 7.6 0 0 1-.25 2q6.334-2.084 10.167-6.5t3.833-8.584m-48.25-31.333q8.584 0 16.459-3t12.25-7.042q4.375-4.041 4.375-7.458 0-5-9.875-5t-17.625 6.75-9.667 15.583q2.5.168 4.083.167m1.584 26q-15.084 0-23.25 4.667t-8.167 10.416q0 3.417 3.125 5.667t8.708 2.25q8.918 0 24-8.917-1.25-2.75-1.25-6.458t1-7.458q-2.666-.167-4.166-.167m14.166-6q9.167 0 18.834-3.333t16.625-8.042q6.958-4.708 11.416-9.792 4.46-5.082 4.459-8.666 0-4.75-8.084-4.75t-17.458 5.208a69.2 69.2 0 0 0-16.75 13q-7.375 7.792-11.792 16.292.917.083 2.75.083m-12.166-55.167.25 1.25q-9.333 1.584-15.75 8.167t-6.417 13.5q0 4.417 3.125 7.625t9.542 4.208q2.166-9.416 10.458-16.583t19.292-7.167q5.166 0 7.791 1.709t2.625 4.541q0 6.25-10.208 12.542t-24.958 6.292q-2.5 0-3.667-.084a24 24 0 0 0-.25 3.417q0 5.5 3.208 9.542t9.792 5.458q3.083-6.5 8.333-12.667t11.917-11.208 14.958-8.125q8.292-3.083 16.917-3.083t8.625 5.583q0 3.916-4.625 9.292-4.624 5.374-11.917 10.375-7.292 5-17.541 8.458-10.251 3.459-20.25 3.458-1.667 0-2.5-.083a53 53 0 0 0-1.75 4.25q7.917 1.083 13.416 4.167 10.75-5.584 18.084-5.584 4.083 0 6.208 1.875t2.125 4.959q0 4.666-4.458 9.625-4.459 4.957-11.959 7.125-1.916 6.25-9.5 10.958-7.582 4.708-17.916 4.708-4.251 0-9-1l.833-.75q3.166.584 6.667.584 9.082 0 16.083-3.959 7-3.957 9.417-9.791-3.5.583-6.25.583-12.583 0-17.167-6.917-14 8-25.667 8-6.333 0-10.083-2.708t-3.75-6.625q0-6.167 8.875-11t25.708-4.833q1.333 0 3.834.166.916-2.666 1.666-4.416-7.083-1.5-10.541-5.834-3.459-4.332-3.459-10.25 0-2.166.334-3.916-7.667-.917-11.459-4.375-3.79-3.459-3.791-8.292 0-7.167 7.041-14.125 7.043-6.958 17.709-9.042m49.166 81.417q3.168 0 8.459-3.208 5.292-3.209 8.833-6.209t3.542-3.5q0-.5-1.209-.833-1.207-.333-3.291-.333t-5.5 1.625q-3.417 1.625-5.917 3.875t-4.167 4.416q-1.666 2.167-1.666 3.167t.916 1m22.334-14q1.666-1.333 1.833-1.333 2.25.249 2.333.375.084.125.084.291 0 .168-.667 1.042-.666.875-3.917 4.125-8.082 7.917-8.083 9.583 0 .667.583.667 4 0 15-7.583l.167 1.25q-11.083 7.25-15.667 7.25-2.25 0-2.25-2.125t2.584-5.542q-9.834 7.25-15.334 7.333-2 0-2-2.416 0-4.333 5.542-9.25 5.543-4.917 14.625-4.917 3 0 5.167 1.25" style="fill:#0e0e0e;fill-rule:nonzero"/><path d="M998.811 173.887q0 .334-.917 1.209t-3.291 3.083a3285 3285 0 0 1-5.709 5.292l-5.583 5.166h13.917q.25 0 .25.334 0 1-.75 1h-14.834q-21.5 20.333-21.5 24.083 0 .917 1.167.917 2 0 11.667-6.084 1.667-1 2-1.166l.166 1.25q-11.332 7.5-16.083 7.5-2.5 0-2.5-1.834 0-2.583 3.917-7 5.166-6.166 17.25-17.583h-14.334q-1.166 0-1.166-.708 0-.709.666-.709h16.25l16.667-15.333q.417-.333 1.583-.25 1.167.084 1.167.833" style="fill:#0e0e0e;fill-rule:nonzero"/><path d="M1023.23 168.637q0-.582-.834-.583-3.333 0-16.458 11.917t-23.542 23.083q12-7.75 26.417-19.75t14.417-14.667m-35.834 45.25q0 1.084 1.125 1.084t3.375-1 4-2.042a214 214 0 0 0 4.209-2.583q2.459-1.542 2.625-1.625l.166 1.25q-11.25 7.5-15.75 7.5-2.166 0-2.166-2.167t2.708-4.792a63 63 0 0 1 5.417-4.708q2.708-2.083 2.708-3 0-.333-.583-.333-1.917 0-10.417 4.791t-11.083 7.042l-3 2.5q-.333.333-1.667.333-1.333 0-1.333-.5 0-.249.333-.666 8.75-9.834 19.583-20.584 10.834-10.75 21.209-19.208t14.125-8.458q2 0 2 1.25 0 2.667-8.375 10.291-8.375 7.626-18.792 15.292-10.416 7.667-17.917 12.167-2.916 3.333-3.333 4.25.333 0 .5-.084a90 90 0 0 1 11.083-6.666q5.75-2.917 7.25-2.917t2.042.583q.542.584.542 1.25 0 2.001-2.625 4.5a59 59 0 0 1-5.292 4.5q-2.667 2-2.667 2.75" style="fill:#0e0e0e;fill-rule:nonzero"/><path d="M983.644 237.471q-2.25 1.749-3.25 3.375t-1 3.458q0 1.833 1.834 1.833 4.5 0 26.416-22.333-14.75 7.083-18.291 9.5t-5.709 4.167m-3 9.833q-2.416 0-2.416-2.75t2.5-5.625 7.416-5.875q7.75-4.667 20.75-11 .584-.25.917-.417 1.417-1.416 4.542-4.75a249 249 0 0 1 5.458-5.666q-7.5 4.916-10.417 4.916t-2.916-2.083q0-2.833 7.5-8.917 2.416-2 2.416-2.625 0-.624-.666-.625-1.417 0-4.709 2a999 999 0 0 1-4.125 2.5q-.833.501-2.458 1.542a229 229 0 0 1-2.292 1.458l-.25-1.166q11.417-7.5 14.667-7.5 2.167 0 2.167 2.416 0 2.584-7.5 8.584-2.5 2-2.5 2.666 0 .417 1.083.417 2.5 0 7.667-3.292t8.666-6.541q5.084-4.75 5.542-4.75t1.417.25.958.541q0 .292-1.167 1.334-1.166 1.041-15.833 15.708 8.167-4.167 12.792-7t5.375-3.333l.166 1.25q-3.75 2.166-5.333 3.25-5.833 3.584-15.333 8.166-12.333 12.334-21.042 19.625-8.708 7.293-13.042 7.292m1416.726 69.692q8.834 0 8.834 9.584 0 5.916-4.75 21.166 15.082-12.083 28.125-21.458 13.041-9.375 15.041-9.375.334 0 1 .583.667.584.667 1.125 0 .542-3.375 3.834t-4.208 3.291q-.166 0-.375-.291-.209-.292-.459-.292-2.25 0-13.25 7.875t-24.583 18.958q-4.667 14.667-4.667 19.917 0 6.834 5.917 6.833 3.5 0 6.792-1.833t7.708-6.25l.833-.833q.5 0 .5.958 0 .959-2.416 3.333-2.417 2.376-6.459 4.417t-7.625 2.042q-9.166 0-9.166-9.25 0-5.416 3-14.667-18.334 15.167-25.084 22.667-1.166 1.25-1.625 1.375a3.8 3.8 0 0 1-1 .125q-.541 0-.541-.417 0-3.916 29.666-28.167 2.334-6.082 4.417-13.041t2.458-9.167.375-4.125q0-7.167-6.666-7.167-6 0-12.292 3.209t-10.792 7.708-7.416 9.25-2.917 8q0 3.834 4.083 3.833 5.834 0 12.625-6.083t10.375-11.75q.25-.333.75-.333 1.084 0 1.084 1 0 .25-1.917 2.916-4.334 5.917-4.5 7.334-.084.417-.5.416-.75 0-.917-.75 0-.25-.166-.25-1.084 1.084-3.834 3.084t-4.916 3.333q-5.834 3.417-9.834 3.417-6.333 0-6.333-4.917 0-3.666 3.583-9t8.959-10.25 12.458-8.417q7.084-3.5 13.333-3.5m32.25 60.584q0-1.25 1.209-3.25 1.208-2 1.291-2.334.084-.333-.166-.333t-.709.458q-.458.46-5.083 3.5-4.625 3.042-6.375 3.042-1.167 0-1.167-1.5t4.667-7.75 6.583-6.25q.417 0 .792.375t.375.583-4.292 5.125-4.291 6.334q0 .333.333.333 1.584 0 6.833-4.25t7.459-6.583q2.208-2.334 3.458-2.334t1.25 1.084q0 .667-.5 1.333a102 102 0 0 1-1.875 2.375 247 247 0 0 0-2.542 3.208q-3.25 4.167-3.25 5.209t.875 1.041q.876 0 4.292-2.333 6.333-4.167 11.583-8.417l1.834-1.5q.583-.416 1-.416.416 0 .416.5v.25q.334 0-4.458 3.666a204 204 0 0 1-10.25 7.334q-5.459 3.666-6.875 3.666-2.417 0-2.417-2.166" style="fill:#0e0e0e;fill-rule:nonzero"/><path d="M2470.62 355.246q0-.75-1.041-.75-1.043 0-4.125 2.209a64 64 0 0 0-5.584 4.458l-2.416 2.167q0 .166.5.166.832 0 1.083 1.292.25 1.292.917 1.292 2.166 0 6.416-4.417t4.25-6.417m7.917 9.584q.584-.417 1.083-.417.5 0 .5.583v.167q-6.583 5.833-13.166 10-4.917 3.667-7.959 3.667-3.04 0-4.25-2.25-1.208-2.25-1.208-4.709 0-2.457.5-3.375.5-.916.5-1.125 0-.207-.5-.208-.75 0-5.167 5.75t-4.916 5.75-.959-.292q-.458-.291-.458-.791t1.208-2.417 7.875-11.25 6.917-9.792q.25-.457.25-.625 0-.166-.292-.166-.291 0-.458.125-.166.125-2.5 1.708-5.25 3.583-7.25 3.583t-2-1.583q0-1.334.875-2.333t1.958-1q.5 0 .834 1.125t1.083 1.125 1.833-.584a18 18 0 0 0 2.209-1.416 62 62 0 0 0 2.583-2.042 70 70 0 0 0 2.375-2.042q2.75-2.5 3.333-3.083 1.584-2.667 12-15.25 1.25-1.583 2.459-1.583 1.208 0 1.208.583 0 .584-.417 1.125-.416.542-6.25 8.083a1391 1391 0 0 0-11.75 15.417q-5.916 7.875-5.916 8.375t.416.5q1.25-1.333 3.209-3.292 1.957-1.957 6.708-5.25 4.75-3.291 7.542-3.291t2.791 1.5q0 2.75-6.416 8.166-6.417 5.418-8.917 5.417l-1.583-.333q-.75 0-1.25 1.291-.5 1.293-.5 2.959 0 5.083 3.833 5.083 2 0 4.5-1.583 5.334-3.25 11.417-8.334z" style="fill:#0e0e0e;fill-rule:nonzero"/><path d="M2480.2 377.58q0-1.25 1.208-3.25 1.209-2 1.292-2.334.083-.333-.167-.333t-.708.458q-.459.46-5.084 3.5-4.624 3.042-6.375 3.042-1.166 0-1.166-1.5t4.666-7.75 6.584-6.25q.416 0 .791.375t.375.583-4.291 5.125-4.292 6.334q0 .333.333.333 1.584 0 6.834-4.25t7.458-6.583 3.458-2.334 1.25 1.084q0 .667-.5 1.333a102 102 0 0 1-1.875 2.375 246 246 0 0 0-2.541 3.208q-3.25 4.167-3.25 5.209t.875 1.041q.875 0 4.291-2.333 6.334-4.167 11.584-8.417l1.833-1.5q.583-.416 1-.416t.417.5v.25q.333 0-4.459 3.666a204 204 0 0 1-10.25 7.334q-5.458 3.666-6.875 3.666-2.416 0-2.416-2.166" style="fill:#0e0e0e;fill-rule:nonzero"/><path d="M2536.45 365.08q-17.584 14.666-21.75 14.666-2.417 0-2.417-2t1.792-4.75 3.583-4.875 1.792-2.541-.25-.417q-7.75 5.167-9.209 6.333t-4.75 3.834-4.291 3.333a3.83 3.83 0 0 1-2.167.667q-1.167 0-1.167-1 0-1.167 4.667-7.334 4.5-6.166 4.5-6.916 0-.167-.292-.167-.291 0-7.208 5.083l-.333-1.25q5.916-4.75 8-6.083t3.375-1.333 1.291 1.25q0 .833-4.708 6.791-4.708 5.96-4.708 6.417 0 .458.291.458.292 0 9.5-6.708t11.209-6.708q.584 0 1.125.458t.541.875q0 1-4.416 6.625t-4.417 6.375 1.042.75q1.041 0 4.458-2.25 6.25-4.083 11.5-8.417l1.833-1.5q.583-.416 1.084-.416.5 0 .5.5zm28.08-16.75q4.416 0 9.667-1.417 9.832-11.25 20.958-19.042 11.125-7.791 18.792-7.791 3.833 0 3.833 1.916 0 2.584-5.833 7.417t-15.167 9.917-18.333 8.083q-6.75 7.833-10.917 15.167t-4.167 12.083q0 6.667 8.5 6.667 4.75 0 10.5-3t9.5-5.917q.834-.583 1.459-.583.624 0 .625.666 0 .417-.334.75-3.916 2.834-6.958 4.667-3.042 1.834-7.958 3.625-4.917 1.792-9.417 1.792-10.5 0-10.5-8.084 0-9.75 13.5-26.083-4 1-7.667 1.25-1-.166-1-1.083t.917-1m46.833-25.917q-4.916 0-13.625 6.542t-17.208 16.041q7.75-2.75 15.625-7.208t12.625-8.417q4.75-3.957 4.75-5.791 0-1.167-2.167-1.167m1.007 46.25q-.5 0-.5-.375t.584-.875q2.75-2.25 2.75-4.083 0-1.166-2.084-1.334-3.75.084-8.958 5.417t-5.208 8q0 .917 1.041.917 1.042 0 2.792-1.417 1.584-1 5.917-5 1-1 1.916-1 1.167 0 1.167 1.083 0 .417-.25.667t-.917 1.042a34 34 0 0 0-1.166 1.458q-1.5 2.167-1.5 2.833 0 1.668 1.333 1.667 1.75 0 6.583-3.208t8.834-6.459l4-3.166q.583-.417 1.083-.417t.5.583v.167q-6.417 5.416-13.542 10.167t-9.375 4.75q-2.666 0-2.666-2.834 0-.666.25-1.25.25-.582.25-.833 0-.25-.167-.333-.25 0-3.208 2.25-2.96 2.25-5.167 2.25-2.208 0-2.208-2.334 0-2.332 3.125-6.291t8.375-7.209 10.25-3.25q1.166 0 1.958.584t.792 1.791q0 1.209-2.417 3.625-2.416 2.418-4.167 2.417" style="fill:#0e0e0e;fill-rule:nonzero"/><path d="M2637.7 353.496q.833 0 1.291.5.459.5.459 1.417t-1.25 2.333-2.167 1.417-1.333-.542a2 2 0 0 1-.417-1.25q0-.708 1.333-2.291 1.334-1.584 2.084-1.584m6.916 11.25q.667-.416 1.042-.416t.375.5v.25q.333 0-4.458 3.666a205 205 0 0 1-10.25 7.334q-5.459 3.666-6.875 3.666-2.417 0-2.417-2 0-2.416 4.167-9.125t6.083-6.708q1.416 0 1.417 1.083 0 1.084-3.834 5.917t-3.833 6.917q0 1.167.875 1.166.875 0 4.375-2.333 6.25-4.167 11.5-8.417z" style="fill:#0e0e0e;fill-rule:nonzero"/></svg>