<svg xmlns="http://www.w3.org/2000/svg" width="100%" height="100%" viewBox="0 0 20834 20834" fill-rule="evenodd" stroke-linecap="round" stroke-linejoin="round" stroke-miterlimit="1.5" xmlns:v="https://vecta.io/nano"><style><![CDATA[.B{fill-rule:nonzero}.C{fill:#fff}.D{fill:#ffd200}.E{font-family:TimesNewRomanPS-BoldMT, Times New Roman, serif}]]></style><g stroke="#000" stroke-width="113.74"><path d="M16421.9 9366.38V2609.86H4352.3v6756.52c339.5 3234.53 2438.16 5435.55 6034.78 6756.52 3596.62-1320.97 5695.27-3521.99 6034.8-6756.52" class="C"/><path d="M4352.32 6281.38c22.75 22.61 0-3652.26 0-3652.26h12069.6v3652.26" fill="#a51c21" stroke-linecap="butt" stroke-miterlimit="2" class="B"/><path d="M4352.32 6281.49l12069.6-19.28" fill="none"/></g><path d="M14588.3 7394.5l22.72 22.72c0-22.72 11.37-56.82-11.37-79.56-22.72-11.35-45.44 0-56.82 11.37 11.37 11.37 34.09 22.72 45.47 45.47m409.14 841c0-68.19-11.37-136.38-45.47-193.19-34.09-56.84-79.56-102.28-136.38-136.38s-113.66-34.1-147.75-102.28c-11.35-11.37-22.72-11.37-11.35-34.1 0-11.37 22.72-11.37 34.09 0 0-22.75 11.35-79.56-11.37-90.94 11.37-22.72-11.37-90.91-11.37-125.01-11.35 11.37-22.72 11.37-45.44 22.72 11.35-22.72 22.72-34.1 34.09-56.82-22.75 0-34.09-22.72-34.09-45.47-68.19 0-136.38-113.63-170.47-159.1 0 34.09-45.47 0-56.84-11.37-11.35-22.72-22.72-45.44-34.09-56.82-22.72-22.72-45.44-45.47-79.54-56.81-45.47-34.1-102.28-68.19-159.13-90.94-45.44-22.72-90.91-56.82-125.01-79.54 11.37 22.72 22.72 34.09 22.72 56.81-11.35-11.37-79.54-79.56-102.28-68.19-34.09 11.37 11.37 45.47 22.75 56.81-11.37-11.35-136.38-56.81-68.19-11.35-22.75-11.37-56.84-34.09-68.19 0-34.09-11.37-90.94-11.37-113.66-34.09-22.72-11.37-56.82-45.47-79.56-45.47 0 11.37 11.37 22.72 22.75 34.1-68.19-22.72-136.38-11.37-204.57-11.37h-79.56c-22.72 0-34.09 22.75-45.47 22.75-159.1 0-295.48 34.09-443.23 68.19-295.48 56.82-545.52 227.29-738.71 454.58-102.28 125.03-193.19 250.04-284.13 386.42-79.54 102.28-136.38 215.94-238.66 306.85s-250.01 159.1-375.04 215.94c-56.82 22.72-125 56.82-193.19 68.19-68.19 11.35-136.38 0-204.57 11.35-68.19 11.37-159.1-34.09-227.29-56.82-79.56-22.72-159.13-45.47-227.32-56.82-147.73-34.09-295.48-68.19-443.23-90.94l-500.05-68.19c-159.1-22.72-318.23-34.09-465.95-79.54-295.51-79.56-420.51-375.04-647.8-545.52-125.03-90.94-261.41-147.75-420.51-170.47h-113.66c-34.1 0-56.82-45.47-79.54-68.19-56.84-56.84-113.66-102.28-181.85-136.38-22.72-11.37-45.47-34.1-79.56-45.47-45.44-11.37-68.19 0-90.91-22.72-56.82-56.84-113.66-113.66-170.47-159.13-113.66-102.28-227.29-193.19-375.04-227.29-34.1-11.37-79.56-11.37-113.66-11.37s-56.82-11.35-90.91-11.35-45.47 22.72-79.56 34.1c-45.44 11.35-90.91 11.35-136.38 22.72-147.73 34.1-215.92 170.47-215.92 318.23 0 113.63-22.75 227.29-22.75 340.95 0 125.01 22.75 250.01 56.84 375.04-125.03 11.35-147.75 215.92-90.94 306.85-68.19 22.72-102.28 90.91-113.63 147.73 0 22.75 0 56.84 11.35 79.56 11.37 22.72 34.1 45.47 34.1 68.19s-22.72 56.82-22.72 79.56v113.63c11.37 68.19 34.1 125.03 68.19 181.85-56.82 11.37-136.38 11.37-136.38 79.56-11.37 56.82 22.72 125 11.37 193.19-11.37 125 68.19 261.38 181.82 329.57 11.37 0 34.1 11.37 45.47 22.75v45.44c0 34.09 0 68.19 11.37 102.28 11.35 56.84 34.1 125.03 68.19 181.85 68.19 113.66 159.1 204.57 284.1 272.76 0 0 11.37 0 11.37 11.37-34.1 45.44-45.47 102.28-56.82 170.47-11.37 79.54-22.75 147.73-11.37 227.29 22.72 147.75 125.01 238.66 250.04 318.23l-45.47 45.44c-11.37 11.37-34.1 22.75-45.47 34.09 0 0 11.37 11.37 11.37 22.75-11.37 45.44 0 56.82 34.1 102.28-34.1 22.72-79.56 79.54-11.37 79.54-11.35 34.09-79.54 22.75-68.19 68.19 11.37 45.47 56.84 11.37 90.94 0-22.75 34.09-102.28 34.09-113.66 68.19-22.72 45.47 34.1 45.47 68.19 34.09 11.37 34.09-79.56 45.47-90.91 68.19-11.37 11.37 0 34.09 11.35 34.09 22.75 11.37 34.1 0 56.84-11.35-11.37 22.72-45.47 45.44-45.47 79.54v22.75c0 11.35 0 22.72-11.37 45.44 11.37-11.35 34.1-22.72 45.47 0-22.72 11.37-79.56 102.28-22.72 79.56-22.75-11.37-22.75 22.72 22.72 34.09 22.72 0 34.1-11.37 45.47 0 11.35 11.37 22.72 34.09 34.1 45.47 22.72 45.44 45.44 79.54 79.54 125 11.37 22.72 34.1 34.09 56.84 56.82 22.72 22.75 22.72 22.75 11.35 56.84-11.35 34.09-11.35 102.28 11.37 125 11.37 11.37 34.09 22.72 45.47 34.09 22.72 11.37 22.72 11.37 45.44 34.09 11.37 11.37 0 45.47 11.37 56.82 11.37 11.37 34.1 11.37 56.82 11.37 34.09 0 68.19 11.37 102.28 0-34.1 22.72-102.28 68.19-90.91 125 0 45.47 68.19 45.47 102.28 34.09 0 45.47 11.37 56.84 68.19 56.84 22.72 0 34.1-22.75 45.47-22.75 22.72-11.35 11.35 0 34.1 0 45.44 11.37 79.54 22.75 90.91 68.19 11.37 45.47 0 102.28 11.37 147.75 0 34.09-22.75 193.19 45.44 181.85 22.75-11.37 45.47-22.75 68.19-22.75 22.75 0 56.84-11.35 79.56-22.72-34.1 34.09-22.72 170.47 34.1 159.1 11.37 0 34.1-22.72 34.1-22.72 11.37 11.37 22.72 11.37 34.09 11.37 22.72 0 34.1-22.75 56.82-22.75 0 22.75 11.37 34.09 34.1 34.09 34.1 0 56.84 11.37 79.56 45.47 11.37 22.72 22.72 56.82 34.1 79.56 22.72 34.09 56.82 68.19 90.91 90.91s68.19 45.47 113.66 68.19c22.72 11.37 11.37 68.19 22.72 90.91 34.09 68.19 113.66 22.75 136.38-22.72 45.47 68.19 79.56 125 159.13 79.56 22.72 68.19 102.28 113.63 147.73 170.47 22.75 34.09 56.84 56.82 90.94 68.19 34.09 11.35 79.54-11.37 102.28 11.35 45.44 56.84 79.54 125.03 159.1 125.03 56.82 0 68.19-56.84 68.19-102.28 34.09 34.09 45.47 45.44 56.82 90.91 11.37 34.09 22.75 79.56 34.09 113.66 22.75 79.54 22.75 147.73 34.09 227.29 0 147.75 11.37 284.13-22.72 420.51-11.37 34.09 0 147.73-34.09 170.47-11.37 11.35-79.56 11.35-102.28 22.72-34.09 11.37-79.56 34.09-113.66 45.47-34.09 22.72-113.63 79.54-68.19 125 34.09 34.09 90.94-11.37 125.03-11.37 22.72-11.35 56.82 0 79.54 0 34.09 0 56.84-11.35 79.56 11.37 34.09 56.82 102.28 68.19 170.47 68.19 45.47 0 113.66 45.47 159.1 68.19 56.84 34.09 147.75 34.09 204.57 34.09 79.56 0 159.13 11.37 238.66 11.37h102.28c34.09 0 45.47 22.72 79.56 34.09 22.72 11.35 56.82 22.72 79.56 22.72 22.72 0 56.82 34.09 90.91 45.47 34.09 11.35 56.82 34.09 79.56 56.82 22.72 22.72 22.72 56.82 45.44 68.19 68.19 68.19 90.94-34.09 102.28-90.91 11.37-79.56-56.82-125.03-113.63-170.47 90.91 0 181.82-22.75 261.38-11.37 56.82 11.37 90.91 34.09 136.38 68.19 11.37 11.37 34.09 22.72 45.47 34.09 11.35 11.37 11.35 34.09 22.72 45.47 45.47 56.82 79.56-45.47 68.19-79.56-11.37-79.56-102.28-136.38-170.47-181.85 90.91 22.75 193.19 45.47 261.38 90.94 56.84 34.09 90.94 113.63 136.38 159.1 45.47 56.82 79.56 0 90.94-56.82 11.35-90.94-22.75-170.47-102.28-215.94 45.44-11.37 11.35-90.91 0-113.66-34.09-56.82-102.28-90.91-170.47-102.28 56.82-22.72 113.63-11.35 159.1 22.75 22.72 22.72 34.09 34.09 34.09 56.82s22.72 45.47 34.09 56.82c34.09 11.37 68.19-11.35 79.56-45.44 11.35-45.47-11.37-90.94-22.75-125.03-147.73-238.66-534.14-90.91-750.09-79.54-68.19 0-125 11.35-193.19 11.35s-90.91 0-90.91-68.19c0-56.82 11.35-102.28 0-159.1 0-56.82-22.75-125-45.47-181.85-34.09-125-56.82-250.01-79.56-375.04 0-22.72-11.35-56.82-11.35-79.54 0-11.37-11.37-45.47 0-45.47 11.35-11.37 22.72 0 34.09-11.37 11.35-22.72-11.37-45.44-22.75-56.82-11.35-34.09-11.35-56.82-11.35-90.91 22.72 22.72 45.44 34.09 68.19 56.82 11.35 22.72 22.72 56.82 45.44 45.47-34.09-56.84-45.44-102.28-68.19-159.13 11.37 11.37 11.37 22.75 34.09 34.09-22.72-34.09-22.72-68.19-45.44-90.91-11.37-22.72-34.09-68.19-22.75-90.91 34.09 68.19 79.56 136.38 113.66 204.57 11.37 22.72 22.72 45.44 56.82 56.82 11.37 11.37 34.09 22.72 45.47 34.09-11.37-22.72-22.72-34.09-11.37-56.82 11.37 0 34.09 11.35 34.09 11.35 11.37 11.37 22.75 34.09 34.09 34.09 22.75 0-11.35-34.09-11.35-45.44-34.09-45.47-56.84-125.03-90.94-181.85l34.09 34.09v-11.37c-56.82-56.82-79.54-159.1-102.28-227.29 56.84 79.56 125.03 170.47 193.22 238.66 22.72 22.72 90.91 45.47 56.82-11.37-34.09-56.82-68.19-113.63-90.91-170.47 45.44 56.84 90.91 170.47 170.47 159.13-11.37-11.37-22.75-34.09-11.37-45.47 11.37 11.37 90.91 56.82 79.56 34.09-11.37-11.37 0-11.37 0-34.09-11.37-22.72-22.75-45.47-45.47-68.19 34.09 34.09 79.56 56.82 113.66 90.91 11.35 11.37 22.72 34.09 34.09 11.37 11.35-11.37-22.75-34.09-34.09-45.47l11.35 11.37c-22.72-34.09-45.44-56.82-68.19-79.56-11.35-22.72-22.72-56.82-45.44-79.54-22.75-22.75 0-34.09 11.35-56.84 11.37-11.35 68.19 11.37 79.56 11.37 79.56 11.37 136.38-34.09 204.57-56.82l215.94-68.19 431.86-170.47c56.82-22.75 102.28-68.19 147.75-90.94 56.82-34.09 79.54-90.91 147.73-102.28 272.76-22.72 568.26-125.01 784.18-295.48 215.94-170.47 375.04-409.14 477.33-659.17 113.66-284.1 204.57-579.61 340.95-852.37 68.19-136.38 136.38-261.38 238.66-375.04 90.94-113.63 170.47-204.57 215.94-340.95 45.47-125.01 34.09-261.39 45.47-386.39 11.35-147.75 0-295.51 11.35-443.23 11.37-79.56 22.75-159.13 45.47-227.32 22.72-79.54 56.82-147.73 90.91-227.29 22.75-56.82 22.75-113.66 11.37-170.47 0-11.37 45.47-56.82 56.82-68.19 22.75-11.37 45.47 0 68.19-11.37 68.19-11.35 113.66-68.19 159.13-113.63 22.72-22.75 34.09-45.47 45.44-56.84 11.37-22.72 45.47-34.09 68.19-45.44 45.47-34.09 90.94-56.84 136.38-79.56 68.19-34.1 68.19-22.72 125.03 0 45.44 22.72 102.28 45.47 147.73 56.82 79.56 22.75 170.47-11.35 204.57 79.56 34.09-34.09 22.75-45.47 22.75-68.19m-5614.29 5171.03c0-22.72-11.35-45.44-11.35-68.19 11.35 11.37 22.72 56.84 11.35 68.19m284.13-34.09c11.37 34.09 56.82 79.56 45.47 113.66-11.37-34.09-45.47-45.47-45.47-68.19-11.37-56.82-34.09-102.28-34.09-159.1 11.37 34.09 22.72 79.54 34.09 113.63m0 68.19c-22.72 0-22.72-11.35-22.72-34.09 0 11.37 11.35 22.75 22.72 34.09m68.19 852.37c0 68.19-22.72 136.38-34.09 204.57-147.75-238.66-238.66-511.42-227.29-795.53 34.09 11.35 34.09 45.44 45.44 68.19 11.37-11.37 11.37 0 0-11.37-11.35-34.09-11.35-34.09-11.35-56.82 0-45.47-22.75-90.94-34.09-136.38 34.09 34.09 45.44 79.54 56.82 113.63 22.72 56.84 34.09 45.47 22.72-11.35 11.37 11.35 22.75 34.09 34.09 45.44 0-11.35-22.72-45.44-22.72-56.82 11.37-11.37 0-22.72 0-34.09-11.37-45.47-56.82-113.66-56.82-159.1 34.09 79.54 45.44 170.47 102.28 227.29-34.09-136.38-56.84-284.13-79.56-420.51 11.37 45.47 34.09 79.56 45.47 113.66 11.35 34.09 22.72 56.82 22.72 79.56 11.37 90.91 45.47 181.82 56.82 272.76 56.84 181.82 79.56 375.04 79.56 556.86m11.37-886.46c0-11.35 0 0 0 0m1204.66 1318.35l-11.35-11.37c0 11.37 11.35 11.37 11.35 11.37m2579.86-7580.42c11.35 0 11.35 0 22.72 11.37-11.37 0-22.72-11.37-22.72-11.37m1000.1 715.99s-11.35 11.37 0 0h0"/><path d="M14599.7 7337.66c11.38-34.09-22.72-90.91-45.44-45.44-11.37-11.37 0-34.1-22.75-45.47-22.72-22.72-45.44 11.37-45.44 45.47-68.19-56.84-79.56-56.84-102.28 22.72 0 22.72 11.35 34.09 11.35 56.81 0 45.47 22.75 79.56 45.47 113.66 34.09 56.81 79.56 136.38 45.47 204.57-11.37 22.72-34.09 45.47-56.84 56.82-22.72 11.37-56.82 34.1-34.09 56.84-102.28 11.35-159.1-159.13-215.92-215.94-45.47-45.47-102.28-56.82-159.13-68.19 0 0 0-11.37-11.35-11.37-11.37 0-22.75 0-45.47 11.37s-34.09 11.37-68.19 11.37c-68.19 0-125 22.72-193.19 34.1-45.47 11.35-56.84 22.72-34.09 45.44 22.72 22.75 45.44 34.1 56.82 68.19s11.37 68.19 22.72 102.28c11.37 11.37 11.37 22.75 22.75 22.75 22.72 0 22.72 56.81 11.35 56.81 0-11.37-34.09-22.72-45.44-11.37-11.37 11.37 11.35 11.37 11.35 22.75v56.82c-34.09-11.37-79.54-11.37-113.63-22.72-34.09 0-45.47-11.37-79.56-22.75h-34.09c-11.37-11.35-22.72-34.1-34.09-56.82s-34.09-34.09-34.09-68.19c22.72 11.37 34.09 22.72 56.82 22.72-11.35-11.35-34.09-22.72-45.44-45.44-11.37-11.37 0-34.1-22.75-45.47-56.82-22.72-34.09 136.38-45.44 159.1-11.37 11.37-34.09 22.75-45.47 45.47 0 11.37 0 22.72-11.37 34.1 0 11.37-11.35 45.47 0 45.47 0 0 11.38-22.75 22.75-22.75-22.75 22.75-11.37 125.03 0 170.47 11.35 56.84 45.44 90.94 68.19 147.75 11.35 22.72 34.09 34.09 56.82 56.82 22.72 22.75 22.72 56.84 34.09 90.94 11.37 56.82 22.72 125 56.82 181.82 22.75 22.75 56.84 0 68.19-11.35 34.09-34.09 22.75-79.56 45.47-113.66 79.56-125 238.66-204.57 363.67-261.38 34.09-11.37 68.19-34.1 102.28-34.1-147.73 79.54-306.85 136.38-420.48 261.38-56.84 56.82 22.72 56.82 68.19 79.56 22.72 11.35 34.09 0 45.44 22.72 11.37 22.72 68.19-11.37 79.56-22.72 0 11.35-34.09 68.19-34.09 79.54 22.72 22.75 90.91-90.91 102.28-102.28 45.47-34.09 113.66-34.09 159.1-56.82 34.09-22.72 68.19-56.82 90.94-102.28 11.35-22.72 11.35-45.47 22.72-68.19 0-11.37 56.82-22.72 68.19-34.09 45.47-22.72-11.37-45.47-22.72-56.82-34.09-34.09 102.28-90.94 125.01-90.94 56.82-11.35 125 11.37 193.19 0 11.37 0 11.37 11.37 22.75 0 11.35-11.35 0-11.35 0-22.72 0 0-11.37 0-11.37-11.37h22.72c11.37-11.35 22.75-11.35 0-22.72-34.09-11.37-90.91 0-125 0-68.19 0-125-22.72-193.19-11.37-79.56 0-147.75 0-227.32 11.37v-22.72c45.47-22.75 90.94-45.47 136.38-45.47 22.75 0 22.75-11.37 45.47-11.37s45.47-11.35 68.19 0c34.09 0 113.66 79.56 147.75 34.09 22.72-22.72 22.72-34.09 11.35-68.19 34.09 22.75 11.37-11.35 22.75-22.72 11.35-22.72 0-22.72 11.35-34.1 11.37-11.37 45.47-11.37 56.84 0 22.72 0 68.19 45.47 79.54 11.37 0-11.37-11.35-22.75-11.35-34.1 56.82 0 68.19-11.37 22.72-56.84 0 0-34.09 0-22.72-11.35 11.35-11.37 11.35-11.37 11.35-22.75 0-34.1-45.44-22.72-11.35-68.19 34.09-45.44 45.44-56.81 22.72-113.63-11.37-22.75 22.72-90.94-22.72-79.56 11.35-22.72 34.09-68.19 22.72-90.91-11.37-34.1-34.09-11.37-56.82 11.35-34.09 45.47-34.09 22.75-22.75-22.72 0-22.72 0-45.47-34.09-45.47m-613.71 204.57c79.56 11.37 147.75 45.47 204.57 113.66 0 11.37-11.35 0-22.72 11.37-11.37 11.35-22.72 0-22.72 11.35 0 11.37 0 34.1-11.37 45.47-34.09 34.1-68.19 56.82-125.01 56.82-45.47 0-90.94-34.1-113.66-68.19s-22.72-79.54-56.82-102.28c22.72-11.35 34.09-22.72 45.44-34.1 34.09-22.72 68.19-22.72 113.66-11.35 34.09 11.35 56.82 22.72 79.56 45.44 22.72 11.37 22.72 34.1 56.82 34.1 11.37-45.44-102.28-90.91-147.75-102.28m-147.73 125.03c22.72 90.91 113.63 170.47 215.92 159.1 45.47-11.37 102.28-22.72 136.38-56.81-45.44 56.81-113.63 79.54-181.82 79.54-56.84 0-90.94-22.72-125.03-56.81-22.72-22.72-68.19-102.28-45.44-125.01zm534.14 397.76c-68.19 0-147.75 22.72-215.94 34.1-34.09 11.37-102.28 34.09-125 11.37 34.09-11.37 56.82-34.1 90.91-45.47 0 34.1 79.56 0 90.94 0 56.82-11.37 113.63-11.37 159.1 0m-738.71 295.48c0-11.35 0-11.35 0 0m22.72 136.38c0 11.37 0 11.37 0 0" fill="#a51c21"/><path d="M13974.6 7587.7c-102.28 34.1-56.84 204.57 56.82 204.57 125-11.37 68.19-227.29-56.82-204.57m22.72 159.1c-79.56-34.1-34.09-147.73 34.09-113.63 45.47 34.1 22.72 125.01-34.09 113.63" fill="#fc3"/><g class="B C"><path d="M10289.8 3638.92c40.5 1.01-14.46 46.37-50.11 56.98-68.71 39.69-163.79 65.82-223.58 111.8 232.5 13.83 471.71 58.34 701.1 132.42 421.44 136.08 821.6 340.67 1169.4 417.48 98.41.14 177.81 19.61 266.78 8.76 71.95-8.78 149.2 3.03 221.62 4.56 76.18 1.31 131.09 74.85 147.18 143.39 9.93 67.92-4.83 185.8-45.91 228.14-88.37 75.17-245.32 53.68-350.3 101.09-119.71 54.09-242.43 98.36-367.81 134.14-210.11 53.84-423.7 94.86-629.47 164.83-191.8 56.73-380.33 126.81-576.36 167.91-130.84 19.94-264.36 14.05-396.21 9.66-217.91-18.85-432.62-68.49-641.8-131.5-35.3-19.26-73.24-34.4-112.76-41.13-20.57-1.5-13.36-39.69-25.99-32.81-91.92 44.32-195.73 12.3-291.2-.16-109.13-22.31-221.7-40.5-323.16-88.18-41.21-45.47-120.15-109.05-193-130.11-45.66-22.2-103.87 17.05-141.75-22.09-48.28-9.49-97.92-21.33-142.98-42.82-22.07-7.01-42.77-25.69-62.98-31.2-88.92 10.09-175.16 12.03-256.72 2.37-32.92 44.08-95 30.22-134.33 3.33-38.84-21.09-93.91-63.99-68.27-113.63 31.48-38.02 88.86-30.55 132.64-42.88 59.02-14.48 119.22-9.14 178.08 2.62 50.79 7.2 102.64 6.77 154.16 14.13-165.54-134.85-285.93-319.35-463.23-440.56-39.58-30.25-112.68-44.1-143.03 4.53.41 26.32 39.66 117.67 1.15 119.39-41.38-3.11-80.85-105.04-92.47-137.33-16.34-73.94 54.06-127.65 115.54-150.1 52.56-16.36 112.68-17.57 164.91.46 35.02 15.71 72.36 33.41 102.15 55.29 5.86-47.73 64.15-57.44 97.54-80.84 162.62-80.68 335.33-138.94 505.94-200.1 163.46-54.14 338.38-45.52 507.58-64.45 181.93-10.99 368.03-43.53 548.3-1.42 99.34 11.16 199.6 8.48 299.38 12.6 109.05-66.93 280.64-118.46 406.52-143.93 4.42-.55 8.86-1.04 13.34-.79l.14.19zm-1594.68 309.39c-110.33-5.54-202.88 98.96-210.84 204.38-9.19 85.48 46.53 174.51 132.12 193.88 79.24 23.7 174.48 7.83 226.12-61.73 80-90.58 56.57-246.87-46.89-309.88-30.14-19.78-64.34-30.17-100.67-26.84l.16.19z"/><path d="M13167.6 3806.18c-60.5 83.16-85.07 203.51-167.5 265.91-14.67 2.7 0 17.76-4.36 27.79-4.96 57.74-30.9 99.31-74.41 137.55-12.98 4.56-14.81 7.45-4.8 17.65 26.87 52.45 34.97 117.18 8.26 171.46-5.75 14.07-13.07 27.98-24.3 38.46 25.45 12.27-.57 34.04 3.68 57.85 2.81 47.57-1.64 100.65-34.01 138.26 26.1 13.77 29.18 48.03 35.7 74.14 10.34 54.88-1.25 112.05-21.33 163.38-5.95 12.36-12.22 25.56-23.98 33.49 28.58 18.82 45.93 51.8 57.42 83.6 10.69 32.59 14.16 71.05-4.12 101.63 25.12 5.48 33.11 34.48 45.66 54.03 15.17 32.05 26.68 72.28 9.98 105.8-19.99 27.52-56.68 12.3-83.55 6.63-108.01-26.05-185.94-117.01-278.16-174.65l-240.6-148.49c-58.92-37.78-130.32-63.47-198.84-78.55-23.29-1.31-60.99 13.69-48.39-9.87 12.36-24.39-15.93-24.77 5.51-37.12 110.36-12.87 246.52-43.7 287.38-63.53 67.94-33 61.83-28.61 79.89-101.98 35.3-71.55-12.33-274.2-85.29-264.82-40.72-15.06-135.26-30.9-336.53-49.29 165.45-110.41 331.57-192.62 498.88-305.98 132.72-83.87 246.06-187.68 385-262.2 113.09-80 183.7-32.87 212.78 18.9l.03-.05zm-2170.69-126.48c-68.35 115.24-36.58 184.33 91.89 196.25-68.08 60.82-67.18 92.63-17.16 196.25-343.46-131.72-691.52-235.74-1052.93-259.8 9.85-30.28 41.24-25.91 64.37-46.15 134.61-92.9 290.9-157.68 454.99-170.26 102.12-10.8 203.53-31.37 305.74-42.28-44.57 79.59 43.75 160.63 153.07 125.96l.03.03zm-2478.5 1246.02c27.74 4.94 45.33 30.52 66.28 47.32 34.29 33.14 50.24 79.78 74.98 119.69 17.95-17.05 43.5-4.09 55.92 13.01 94.05 99.04 186.76 198.73 286.01 292.21-70.21-101.14-129.07-209.91-204.79-307.1-17.57-16.66-17.46-49.51 7.2-59.27 5.32-1.96 11.76-3 17.51-1.99l130 37.89c17.7 9.44 29.16 27.17 44.19 40.1 7.06-21.79 33.74-25.64 52.53-17.32 77.71 18.3 160.27 25.28 239.02 44.16a1016.9 1016.9 0 0 1 36.74 10.15c11.92-26.19 44.84-17.18 67.15-13.72 39.96 7.77 82.32 18.66 113.68 45.88 13.5 18.66 31.61 39.85 29.73 63.72-5.29 31.26-43.72 27.03-64.32 43.31-26.54 14.81-46.32 44.21-39.5 75.42 1.69 32.02 29.4 53.46 42.63 80.27 5.16 26.35-21.06 37.34-37.78 51.09-36.25 27.36-49.01 81.01-23.7 119.96 13.91 18.55 13.97 49.89-10.23 59.71-26.49 7.99-52.59-9.41-77.95-15.44-48.22-15.11-93.61-37.53-135.67-65.11.66 15.08-8.48 31.09-20.02 41.02-27.68 23.4-38.68 63.17-24.17 96.8 9.85 19.2 10.67 47.87-12.57 57.58-28.18 9.33-52.53-15-77.38-24.52-105.34-52.89-191.15-140.36-246.57-243.98-98.87-174.13-214.14-338.71-307.45-516.03-10.36-19.58-26.24-48.2-4.31-66.09 4.99-7.58 14.59-6.79 22.37-8.73l.46.03zm2824.52 142.05l10.26.35c34.12 20.78 62.24 57.31 67.62 97.51.08 30.6-33.55 36.25-56.49 36.63-46.97 3.38-93.56 20.68-124.46 57.47-25.75 27.49-66.55 20.51-97.95 37.53-38 15.79-61.92 52.7-77.95 88.62-20.62 28.01-62.79 8.32-88.35 30.82-43.23 27.93-46.23 83-55.67 128.47-10.2 27.41-42.71 36.09-55.94 62.24-26.27 33.69-36.25 79.84-22.91 120.59.11 33.41-41.76 41.46-64.18 23.35-136.79-71.44-251.62-178.71-350.39-295.97-22.69-32.49-50.27-62.82-66.36-99.2-5.95-30.19 25.17-43.97 50.22-41.84 67.15-2.15 133.41-15.27 199.5-24.44 27.58 16.69 27.33-8.13 53.24-15.44 76.7-20.95 152.39-46.45 228.44-68.6 21.41 8.07 26.29-10.56 45.8-16.53l185.8-60.96c21.19 9.14 27.9-16.39 49.83-16.53 56.16-16.12 112.62-34.48 169.95-44.08zm-3647.24-888.21c46.78.93 85.35 31.67 118.6 61.4l100.07 89.36c102.53 96.56 196.33 201.38 295.62 301.59 14.27 14.7 10.58 42.31-8.73 51.03-15.27 7.42-32.95 1.99-49.29 2.07-52.7-4.53-104.93-14.07-156.43-25.86-28.86-10.09-54.47-27.52-80.63-43.04-178.85-100.24-322.76-328.27-314.93-353.55-4.83-27.14 10.56-54.85 34.72-67.32 18.38-10.72 39.55-16.8 60.69-15.87l.3.19z"/></g><path d="M10483.7 3629.13c-184.71 21.49-280.75 78.28-421.74 163.33 545.11 30.17 924.38 224.04 1330.38 388.03 180.08 72.77 360.2 134.69 508.48 149.5 196.5 23.32 298.4 3.49 496.17 70.32l-505.97-28.56c-180.24-27.55-355.81-87.99-515.9-152.64-502.94-203.26-871.98-356.71-1384.85-397.16-15 14.76-49.75 14.4-64.75 5.65 27.77 2.48 54.61-17.1 73.18-30.36 94.02-73.1 194.64-100.81 288.96-144.02-149.31 21.93-305.71 89.08-410.26 160.08l-303.5-9.14-3.76-1.09c-111.83-32.68-214.5-28.78-330.64-18.49l-554.9 43.78c-106.29 8.37-208.69 51.91-313.1 90.77-167.2 62.22-337.68 119.52-464.32 214.41l-15.27 2.89-11.05-6.38c-55.7-32.16-98.03-48.96-134.41-53.87-36.39-4.94-67.64 1.09-105.59 18.22l-.19.08h-.11c-34.61 15.25-56.71 32.27-69.5 49.04-12.77 16.75-17.24 33.17-15.98 52.61 2.54 38.9 33.39 90.26 82.89 143.93 98.98 107.3 247.2 237.95 389.96 301.34l-29.35 16.06c-12.19-8.05-21.25 5.92-34.31-2.78-117.15-78.06-265.09-180.73-360.42-283.2-52.97-56.95-91.32-113.99-95.08-172.3a123.4 123.4 0 0 1 25.31-83.52c19.04-24.96 48.01-45.69 87.36-63.03h.11c43.23-19.5 85.35-28.04 130.62-21.9 41.62 5.65 86.82 25.94 138.83 54.77 143.82-75.58 297.96-147.64 463.88-209.4 102.97-38.16 209.18-84.2 325.48-93.39l553.4-43.61c123.61-9.74 245.89-14.26 341.79 19.12l282.77 9.71c252.85-114.89 443.04-161.61 667.71-177.62l-42.36 38.81z"/><path d="M7892.45 4089c193.96 146.83 261.77 315.91 432.89 414.76-201.43-84.23-329-296.73-464.15-386.5l31.26-28.26zm14.73 215.15c121.19 113.09 218.29 243.49 336.39 340.51 42.31 34.09 85.05 60.41 145.27 58.42-41 31.61-134.61 7.64-173.2-21-110.9-107.88-226.72-242.4-339.15-343.57-79.54-60.69-147.59-167.34-231.24-112.62-77.95 51.28 183.59 271.37 297.47 351.48-104.06-41.46-290.43-223.09-317.6-261.9-44.24-63.28-55.45-95.68-2.78-129.42 100.89-64.64 210.9 52.91 284.57 117.94l.27.16z"/><g class="B"><path d="M10279.3 5314.64c20.08 1.25 40.86-1.88 60.36 3.22 17.07 8.1 23.73 27.52 35.16 41.49 42.52 61.45 88.35 120.91 141.34 173.77 12.41 11.05 21.14 28.07 13.77 44.16-7.67 19.64-28.07 16.23-44.1 3.46-74.84-48.82-144.48-104.66-204.49-170.28-13.56-16.72-29.21-32.1-40.23-50.6-8.07-18.11 3.93-40.7 23.35-44.35 4.91-1.06 9.98-.63 14.98-.68l-.14-.19z" fill="#ac93a7"/><path d="M8723.06 4974.92c84.91 95.47 157.33 197.56 223.58 306.44 9.66 16.48 20.76 32.27 29.29 49.29 7.75 16.77-2.7 38.57-20.57 43.18-14.46 5.02-29.38-2.95-38.98-13.64-68.24-67.45-129.1-141.81-192.95-213.35-50.22-56.65-102.37-111.99-160.27-160.9-19.37-16.39-40.72-32.08-62.41-46.34 19.97 40.15 42.06 79.18 64.92 117.72l189.38 312.47c8.97 15.63 2.18 37.86-14.57 45.01-14.26 7.42-21.36-4.26-30.88-16.53-77.87-85.37-146.85-180.95-202.93-282-31.8-58.73-56.33-120.81-70.62-186.43-3.55-13.17-16.42-21.57-5.4-30.69 8.81-7.77 21.41-9.77 32.43-5.95 5.81 2.78 10.53 6.87 14.81 11.4.46-3.82.93-7.58 2.75-11.13 68.9-32.51 190.19 44.38 242.62 81.44h-.22z" class="C"/></g><path d="M9348.3 4090.83c146.61 37.53 239.89 201.98 256.26 264.36 131.63 156.59 125.5 453.6-56.65 558.06-21.9 72.06-66.2 158.85-148.33 203.91 45.09 7.17 97.7 23.78 126.04 47.46 432.65 119.58 627.37 116.14 879.75 110.22 207.3-4.88 401.23-68.33 766.07-175.41 312.64-94.7 610.57-192.76 901.14-258.3 174.32-37.4 216.13-27.28 370-85.81-150.18 101.96-184.66 83.71-358.38 121.51l-902.83 263.89c-314.22 98.14-537.72 174.35-773.51 183.84-323.57 13.04-612.92-41.24-920.86-125.93-46.04-28.18-90.39-41.68-147.97-40.67-154.9 2.76-374.03-49.01-563.35-111.78l-73.37-78.77c149.28 85.78 402.26 125.5 543.96 140.91 148.24 16.09 265.61-117.1 265.78-226.12 184.22-89.79 169.22-371.22 55.94-509.48-21.47-111.48-124.81-239.43-219.76-281.76l.08-.14zm-1368.48 533.22c86.41 19.31 173.31 35.4 240.44 30.79l23.89 34.94c-76.84.08-160.06 1.09-218.45-16.42-88.27-12.44-147.59 11.02-224.37 22.97-12.52 5.73-18.27 12.96-19.01 20.92-3.25 33.71 82.67 81.04 119.14 87.56 43.45-9.63 46.04-20.4 44.54-46.42 10.75 2.15 18.11 7.61 22.09 16.53 94.57 14.92 240.85 22.2 256.72-13.56 41.1 40.59 162.24 85.78 212.97 80.44.38 8.37 17.24 20.87 44.46 35.57h-2.75l81.25 86.74c-61.1-27.11-111.34-53.27-140.17-74.9-78.61-8.59-152.17-51.31-205.96-80.98-76.32 7.31-155.85 13.64-244.58-.05-69.99 69.25-152.34 15.6-215.78-51.99-15.14-15.52-19.69-39.33-13.01-56.76 6.9-17.46 19.31-29.78 33.11-41.6l5.21-4.58 6.9-.98c61.15-8.24 118.43-29.13 194.04-28.28l-.68.08zm1313.33-266.11c3.16 77.35-19.99 155.88-41.87 262.09-50.27 256.26-249.44 348.48-443.83 298.75-120.59-36.74-204.73-79.32-260.81-143.17 101 78.72 202.63 101.85 269.92 115.35 193.11 38.98 376.71-80.33 401.64-277.45 5.13-87.77 45.09-181.9 44.21-258.66-2.02-67.1-16.39-142.32-119.39-203.67 99.88 18.55 147.04 141.23 150.13 206.78v-.03z"/><path d="M8736.86 4975.82c146.33 150.43 215.97 305.54 308.16 432.51 80.82 111.37 178.68 195.16 352.16 235.72-66.77-90.47-10.94-164.39 47.27-197.37-81.99-85.37-51.69-184.63 63.58-210.79-14.21-14.54-19.23-33-27.3-50.19l40.31-21.98c6.66 39.14 34.12 69.66 55.94 102.59-146.66 13.58-167.56 104.49-57.28 190.71-77.22 39.8-134.66 70.92-91.24 153.26 16.04 17.43 39.55 34.12 57.8 60.74l29.35 42.9-51.44-7.09c-214.06-29.46-335.79-120.07-428.31-235.34-228.46-199.52-403.66-436.39-556.65-547.1-26.59-21.19-22.83-25.12-23.84-49.94 80.93-27.82 231.71 49.97 281.68 101.52l-.19-.16zm-228.35-69.5c166.36 103.4 311.57 320.52 442.85 442.99-69.61-114.01-139.95-234.46-244.31-354.91-42.25-48.88-164.99-120.97-198.54-88.32v.25z"/><g stroke="#000"><ellipse cx="8695.15" cy="4151.05" rx="209.53" ry="219.71" stroke-width="32.73" class="C"/><ellipse cx="8713.4" cy="4154.73" rx="117.56" ry="123.26" stroke-width="13.09"/></g><path d="M8433.11 4286.23c101.85 179.72 260.13 187.14 420.05 126.51-177.32 160.9-353.41 40.45-420.08-126.42l.03-.08zm101.61-300.69c-39.3 49.89-72.2 145.71-45.91 227.89 14.51 45.28 37.15 137.14 178.25 170.53-231.49-4.42-274.61-279.52-132.34-398.42zm282.14 1483.59c60.93 123.34 143.33 222.41 307.51 291.55-50.6-100.46 16.86-163.93 79.75-186.59l59.22 30.33c-82.84 26.27-131.47 39.66-102.5 128.14 12.82 19.86 33.19 40.26 46.7 69.53l21.74 47.27-49.53-15.66c-206.04-65.05-313.7-194.94-385.52-324.12-197.31-197.94-301.26-333.45-370.02-580.89-22.64-25.37-32.73-54.85-29.54-79.48 44.51.19 83.14 37.59 112.13 94.73 10.8 21.33 19.5 43.56 32.87 67.73 78.23 141.37 197.56 324.53 277.18 457.44l.03.03zm-366.29-548.52c19.39 121.43 153.78 338.93 283.78 474.49-42.85-65.38-158.72-257.13-230.43-381.21-31.75-55.04-28.89-65.54-53.32-93.31l-.03.03z"/><path d="M10807.1 3619.88c-14.89-.27-32.92.87-49.75 1.42 17.62-1.15 34.45-1.69 49.75-1.42zm-49.75 1.42c-98.6 6.49-233.21 37.29-406.3 116.22-58.26 26.57-112.32 55.26-163.82 84.04l-56.16-8.37c65.14-33.49 135.23-67.21 211.09-96.77 183.18-71.49 315.58-91.62 415.19-95.11zm160.45 110.74c-43.5 4.55-177.05 23.92-308.43 62.22-73.83 21.52-133.11 44.92-183.27 68.68l-47.49-10.75-25.15-4.15c64.4-29.3 144.04-56.22 244.12-76.24 135.18-27.03 280.4-35.57 320.22-39.77zm-369.8 158.58c52.42 5.84 108.04 10.56 198.02 11.67l266.51 1.06c-73.43 0-142.76 9.96-265.56 21.93-28.23 2.76-54.44 4.86-79.15 6.44l-108.89-38.57-10.94-2.54z" class="B"/><path d="M13212.2 3795.87c-106.78 104.44-87.28 218.83-183.95 289.01.9 37.07-13.56 106.89-87.34 160.27 32.87 70.43 35.73 144.04-4.72 212.64 19.58 83.9 16.86 159.29-23.59 216.02 54.74 81.56 24.14 213.68-18.33 272.76 48.58 55.72 62.57 123.4 47.32 174.18 42.88 60.36 53.46 115.81 48.41 199.71-131.85 18.03-325.05-150.43-457.82-231.22-92.25-56.13-182.56-121.05-269.62-158.2s-193.28-50.54-247.72-40.31l40.94-32.27c71.22-13.36 136.57-5.43 227.34 33.3s167.36 109.32 262.58 162.1c132.61 73.45 260.35 214.55 403.41 226.42 14.92-41.65-6.27-86.98-48.99-141.86l-3.9-5.4-.35-6.82c28.53-54.31 3.93-117.1-42-161.23l-11.18-11.13 6.38-14.4c42.31-43.42 82.24-176.61 18.14-259.77l-3.41-11.92 8.13-9.27c36.55-42.25 39.58-108.89 18.55-195.08l-2.43-9.87 5.65-8.46c42.17-63.85 38.57-123.67 2.13-192.48l-7.56-16.42c74.82-26.1 115.68-141.59 96.2-178.14l4.75-3.33c108.42-74.98 85.97-154.71 158.88-251.54-38.21-30.74-80.35-54.41-122-37.89-118.73 47.27-266.7 211.11-417.84 289.64-120.91 75.91-356.28 214.77-512.87 308.44l-1.44.68c-44.46 20.81-98.6 6-192.51 5.86l.14-34.4c88.76-.22 134.12 4.47 172.17-13.15l512.9-308.35c99.61-45.55 283.5-223.09 416.77-281.98 82.32-36.39 154.25 13.58 208.6 63.74l.19.08z"/><path d="M12906.7 4268.66c-15.22-4.56-40.4-8.89-90.53 1.2-37.69 7.56-80.57 21.25-132.37 39.31-116.5 40.64-249.6 81.34-312.44 91.56 85.48-13.91 167.67-50.68 303.88-112.9 49.56-22.5 92.63-41.32 131.77-53.49 52.34-16.36 87.34-17.18 113-9.52l-13.31 43.83zm18.9 211.56c-14.18 10.31-39.85 21.03-82.75 30.22-31.89 6.79-70.56 12.16-111.23 14.89-40.91 2.73-79.51 2.54-112.1-.3-44.38-3.85-68.24-11.62-82.45-17.57 13.86 5.81 39.55 10.23 82.7 8.51 31.94-1.31 69.77-5.86 108.91-13.45 39.25-7.58 75.2-17.32 104.22-27.63 39.74-14.05 57.2-25.69 65.68-31.86l27.03 37.18zm65.7-397.71c.55.65-1.83-3.27-13.88-7.45-9.33-3.22-23.43-6.36-43.29-7.83-34.72-2.59-84.58.08-146.06 13.86-162.4 36.41-309.47 126.94-412.79 223.06 105.04-97.7 240.87-194.12 406.9-245.26 61.78-19.04 114.04-27.14 152.55-28.56 22.04-.79 39.77.55 53.49 3.36 17.78 3.57 30.58 10.01 38.38 19.31l-35.29 29.51zm-90.1 613.38c-44.41 22.53-91.46 20.87-152.2-3.9-53.41-21.85-108.67-45.55-140.66-47.08 31.97 1.5 92.93 14.92 147.18 24.98 61.78 11.51 92.03 1.64 124.87-15.03l20.81 41.02zm-15 266.45c-9.9 6.35-23.16 8.51-39.63 7.23-12.66-.95-27.96-4.04-45.93-9.27-31.5-9.19-70.92-25.09-112.62-46.31-111.67-56.76-171.65-113.71-199.82-151.73 26.57 35.9 97.86 88.59 209.12 130.7 42.96 16.28 81.75 26.73 111.45 31.34 16.94 2.65 29.59 3.16 38.57 2.54 11.48-.79 14.67-3.55 14.08-3.19l24.79 38.7zm56.5 185.81c-5.84 7.61-14.24 11.92-23.4 13.86-8.67 1.85-18.66 1.72-29.95.16-17.35-2.4-39.82-8.56-67.37-18.63-48.36-17.7-112.18-47.68-179.04-86.33-67.51-39.03-130.3-82.35-178.98-124.7-66.5-57.85-91.46-100.21-100.67-129.2 9.17 28.83 37.64 69.69 106.4 122.17 50.57 38.6 115.38 77.55 184.08 111.48 68.55 33.85 132.26 58.4 179.5 71.49 27.06 7.47 46.83 10.72 60.12 11.18 8.62.3 13.61-.63 15.47-1.44 1.64-.71-.87-.3-2.65 2.02l36.5 27.96zm-3985.64-69.34l16.56-16.09c38.87 40.51 109.62 130.9 185.94 211.01 84.23 88.4 153.92 135.56 213.98 158.42-62.71-23.87-132.29-58.53-229.8-141.78-71.71-61.15-178.36-170.12-203.18-195.4l16.53-16.09-.03-.05zm261.6 25.29c33.99 6.38 76.43 25.37 130.27 55.97 55.26 31.39 89.33 53.38 120.45 65.16-1.53-.6-99.48-34.39-129.72-44.13-66.74-21.41-91.48-24.63-129.5-31.8l8.51-45.2zm-632.01-126.89c2.15 4.47 26.98 9.66 29.35 14.48 22.01 44.7 84.47 179.88 167.72 323.52 100.59 173.56 182.89 275.95 242.73 326.19-63.23-53.08-146.74-142.35-260.73-315.01-91.67-139-163.84-272.27-185.91-317-2.4-4.88 8.73-27.71 6.57-32.19h.27z" class="B"/><path d="M10368 5311.42c79.29 159.65 285.63 356.17 462.82 432.76 19.97 8.65 35.08 27.06 52.59 35.76-132.83-18.52-217.12-79.05-322.56-154.22-167.39-65.93-282.06-188.89-355.24-287.6-1.83-2.62-3.55-5.07-5.21-9.79-.82-2.35-1.83-5.4-1.53-10.34a26.3 26.3 0 0 1 8.26-16.86l16.15 5.73c4.77-4.12 10.8 11.18 11.05 7.01.27-4.17 9.9.57 9.44-.71-.9-2.56-1.09-2.24-.55-1.45 64.81 92.55 192.13 219.38 269.16 260.48-86.06-77.19-160.35-190.74-207.35-257.89l62.98-2.89z"/><path d="M11349.1 5047.99c69.99 36.49 85.51 96.97 109.1 162.18-88.32-1.23-183.73-6.68-221.7 79.73-95.79 1.26-144.94 46.53-162.62 128.41-105.17-14.21-147.42 57.39-130.46 143.58-95.9 51.39-111.28 177.76-62.76 217.31l-50.21-21.28c-62.98-67.56-3.68-184.79 64.37-218.83-4.47-99.17 50.84-172.47 145.35-168.54 29.38-87.42 91.51-111.04 169.98-122.39 49.21-64.81 111.72-74 182.53-78.61-6.08-15.74-12.66-34.83-18.33-43.37-9.19-13.83-20.24-23.13-46.7-36.99l21.44-41.21zm-2436.61-763.61c53.6-154.98 21.9-274.72-84.06-347.19-27.52-18.82-60.53-30.74-100.1-40.12 227.59-19.99 265.28 226.94 184.17 387.32z"/><path d="M10642 5280.16c14.51 18.17 46.15 66.99 86.47 115.05 44.54 53.11 81.04 82.95 106.78 93.26-28.86-11.54-64.89-28.8-122.91-76.84-49.4-40.86-109.38-101.14-121.84-116.71l51.5-14.76zm270.8-93.77c11.46 13.42 23.89 38.9 41 68.9 17.05 29.9 31.23 49.29 43.5 56.68-17.57-10.56-28.31-14.46-61.04-41.84-22.53-18.85-52.42-46.42-58.4-53.79l34.94-29.95zm221.1-59.76l20.84-9.71c7.77 16.69 14.97 71.38 26.57 82.97-11.59-11.59-59.82-45.47-68.24-63.55l21.14-9.66-.3-.06z" class="B"/><path d="M9903.34 4204.24c121.84-50.57 50.57-279.06-34.94-270.77 159.54-22.53 175.63 251.92 34.94 270.77zm13.8 375.62c128.47-29.62 96.07-266.84 10.31-272.95 161.23 4.23 131.52 277.86-10.31 272.95zm-96.1 304.34c131.14 13.69 177.48-221.21 98.36-254.84 151.27 56.11 34.01 305.27-98.38 254.7l.03.14zm302.06-85.51c131.55-8.97 136.98-248.32 53.27-267.9 158.53 29.62 86 295.15-53.27 267.9zm2.8-397.68c130.22-20.65 114.31-259.53 29.18-271.59 160.55 15.38 111.97 286.31-29.18 271.59zm-183.94 744.33c127.35 34.48 210.57-189.87 137.93-235.85 140.2 80-15.19 307.1-137.93 235.85zm-320.9-17.02c124.05 44.71 225.3-172.25 156.54-223.85 133.24 90.91-39.99 304.81-156.54 223.85zm765.04-547.54c121.79-50.57 50.41-279.09-35.16-270.88 159.54-22.53 175.63 251.92 34.94 270.77l.22.11zm-102.1 416.07c131.55-9 136.98-248.35 53.27-267.93 158.53 29.62 86 295.15-53.27 267.93zm-175.3 270.44c90.69 32.68 164.72-125.9 114.45-163.65 97.4 66.47-29.24 222.87-114.45 163.65zm251.5-39.99c131.85 2.1 157.33-235.94 75.58-262.5 155.47 42.85 60.91 301.34-75.58 262.5zm182-413.77c127.98-31.72 91.67-268.34 5.84-273.09 161.28 1.58 136.02 275.7-5.84 273.09zm62.1-391.22c86.19-49.97 10.04-214.03-53.24-199.39 117.34-32.79 156.73 171.43 53.24 199.39zm194.5 523.18c113.9-19.88 96.72-229.17 21.9-238.58 140.99 11.32 102.07 249.6-21.87 238.55l-.03.03zm27.1-276.77c115.68-63.25 20.38-282.88-63.85-265.59 156.4-39.49 201.73 231.98 63.85 265.59zm174.7 456.98c109.1-27.03 78.17-228.82 4.96-232.8 137.5 1.34 116 235.01-4.96 232.8zm117.7-363.21c99.94-30.39 61.45-216.08-6.66-216.27 127.65-5.4 119 212.48 6.66 216.27zm223.9 251.49c102.8-22.64 73.65-191.53 4.69-194.91 129.53 1.15 109.27 196.77-4.69 194.91zm108-298.37c104.98-44.27 40.8-218.34-33.25-208.39 138.13-24.22 154.93 188.01 33.25 208.39zm178.4 227.12c107.63-41.21 41.84-203.12-34.07-193.88 141.59-22.53 158.83 174.89 34.07 193.88zm138.8-268.5c94.46-36.17 36.71-178.36-29.95-170.23 124.32-19.77 139.49 153.59 29.95 170.23zm195 160.93c91.95-34.94 35.87-173.34-28.97-165.51 120.89-19.23 135.59 149.31 29.1 165.51h-.14zm161.3-188.51c88.32-50.62 8.84-182.97-56.16-164.56 120.5-38.95 162.45 131.01 56.16 164.56zm-1511.1 536.52c115.19 10.01 152.31-196.69 82.37-224.94 133.38 47.11 34.61 267.41-82.4 224.94h.03zm-295.6-967.75c86.14-49.94 10.01-214.01-53.24-199.39 117.31-32.79 156.73 171.43 53.24 199.39z"/><path d="M7617.08 4261.82l.46-23.68 42.39-39.52 59.63-3.6 112.76 62.52 166.44 168.76c-66.8-50-363.51-204.81-191.07 56.02l-41.68-35.19-50.3-52.42-56.02-54.61-28.72-42.39-13.88-35.9zm148 468l8.62-45.96 53.13-12.93 106.32-14.37h106.32l117.81 17.24 71.84-10.06 53.13 34.48 100.57 10.06c-65.95 43.45-99.64 34.83-172.38 17.95 19.26 69.5 169.47 84.69 252.14 81.91l32.35 34.48c33.06 5.07 66.09-1.17 99.15-25.86l87.66 49.64 110.63 28.72 99.12 14.38 110.63-4.31c119.74 160.65 418.33 114.12 518.24 13.99 141.94 87.45 225.87 148.33 1010.84 106.08 334.76-17.98 703.28-89.33 1035.12-145 405.24-68 860.69-112.4 923.12-195.16-1.04 34.45-20.78 68.35-90.64 96.8l-280.48 52.83-110 41.27-316.07 94.81-335.36 98.11 64.56 110.17c-111.48-48.17-181.82-24.52-235.72 44.62-136.52-.52-149.55 60.69-195.02 105.69-127.22-11.35-197.09 47.68-233.65 107.66-124.6-60.2-248.84-75.66-340.92-5.84-37.94-33.09-77.57-23.89-88.1 3.22L10219 5311.69l-196.82-10.06-396.51-83.33-126.45-25.86 33.06 51.72-94.81 53.16 10.04 114.94 28.75 44.54c-173.39-9.95-301.15-164.45-443.94-285.9-75.72-31.72-144.97-53.68-140.8 34.48l-80.44-97.7c-61.86-45.36-92.57-44.02-94.84 0l81.88 117.8c-56.65-38.54-80.33-34.1-74.68 8.62-58.59-89.96-88.46-88.54-109.16-60.25l-43.1-64.67c-34.53-36.03-68.41-70.18-63.23 12.93l-58.89-137.91-20.1-90.5-20.13-33.06-156.59-45.96-35.4-42.09c-12.36 12.87-31.12 17.48-46.4 26.21l-117.81-2.86-94.81-5.76-35.92 30.17-48.85 4.31-107.98-94.84zm25.72-8.51c.46 12.66 28.97 30.11 37.72 43.37 25.91 48.96 126.01 26.62 112.87-7.36 24.39-4.36 28.28 5.05 35.27 10.5 59.76 10.42 162.97 20.7 219.92-13.28 11.13-6.66 11.84-16.75 13.09-27.93-6.82-.76-4.77-26.92-20.29-28.99-43.64-5.89-113.17-5.1-141.32-7.01-20.46-1.39-70.26-14.89-91.07-14.1-56.71 2.18-145.3 14.32-164.47 39.69a7.6 7.6 0 0 0-1.53 5.13h-.19z" fill-opacity=".29"/><path d="M10924.6 3541.3c-154.71 53.22-52.78 177.65 107.36 121.05-99.75 92.44-35.79 206.07 78.91 200.34-78.45 75.91-77.9 156.56 4.85 200.59l-22.2 30.63c-86.71-53.43-107.58-138.12-51.06-205.74-94.81-17.35-116.03-91.65-85.48-179.04-102.69-3.38-179.15-37.5-137.93-125.63-120.01-4.06-272.27 41.13-339.39 46.26l1.66-35.65c146.12-18.98 281.87-58.75 443.29-52.81z"/><g stroke="#000" stroke-width="55.64" stroke-miterlimit="4" class="B"><path d="M6019.75 4560c-17.78 289.4-148.35 624.67 252.44 1014.28l13.28 344.74c-398.83-200.07-414.07-669.59-471.68-1073.93L6019.75 4560z" class="D"/><path d="M6418.19 3870.41c285.03-271.67 374.55-499.01 325.56-802.13-230.86 98.11-356.74 390.81-465.08 715.96 178.22-386.96 99.2-622.9-19.91-835.29-74.38 236.86-189.05 432.81-132.89 802.13.19-405.62-204.87-594.39-504.93-682.82 41.19 258.55 167.39 556.86 358.79 815.41-241.88-438.32-551.98-375.23-810.53-397.76 143.06 317.19 444.38 428.23 724.17 523.72-323.27-112.51-638.74-209.45-857.03 79.54 362.09 193.55 636.32 125.33 896.88 92.82-358.27 31.01-680.1 113.03-803.87 450.79 352.27 8.18 608.52-143.58 870.34-371.22-310.89 219.3-419.45 495.52-405.29 822.04 264.9-225.95 479.37-466.31 498.3-762.36-136.6 484.75-42.93 726.19 119.58 894.95 143.66-310.64 51.47-567.2 66.44-901.57 2.97 480.71 245.4 583.1 451.77 742.48-82.59-277.8-22.86-472.23-338.82-795.53 463.72 552.91 588.28 386.72 783.96 371.25-198.19-275.65-436.88-392.64-704.23-464.04 225.14 45.96 488.84 171.73 783.96-106.08-229.14-118.35-476.24-179.83-777.33-66.31 373.54-84.75 575.98-229.25 684.32-437.51-284.32-77.16-467.81 36.96-744.11 311.57l-.06-.03z" fill="#f1ede5"/><path d="M5900.09 4046.12c0 159.26 129.4 288.39 289.01 288.39 159.59 0 288.99-129.12 288.99-288.39s-129.4-288.36-288.99-288.36c-159.62 0-289.01 129.1-289.01 288.36zM14583.9 4560c17.78 289.4 148.35 624.67-252.47 1014.28l-13.28 344.74c398.83-200.07 414.07-669.59 471.71-1073.93L14583.9 4560z" class="D"/><path d="M14185.5 3870.41c-285.03-271.67-374.55-499.01-325.54-802.13 230.86 98.11 356.71 390.81 465.05 715.96-178.22-386.96-99.17-622.9 19.91-835.29 74.38 236.86 189.05 432.81 132.89 802.13-.19-405.62 204.87-594.39 504.93-682.82-41.16 258.55-167.36 556.86-358.76 815.41 241.88-438.32 551.95-375.23 810.53-397.76-143.06 317.19-444.41 428.23-724.17 523.72 323.27-112.51 638.72-209.45 857.01 79.54-362.06 193.55-636.29 125.33-896.88 92.82 358.27 31.01 680.09 113.03 803.87 450.79-352.27 8.18-608.52-143.58-870.32-371.22 310.89 219.3 419.45 495.52 405.26 822.04-264.9-225.95-479.37-466.31-498.27-762.36 136.6 484.75 42.91 726.19-119.58 894.95-143.66-310.64-51.5-567.2-66.44-901.57-2.97 480.71-245.4 583.1-451.8 742.48 82.62-277.8 22.86-472.23 338.85-795.53-463.74 552.91-588.31 386.72-783.96 371.25 198.19-275.65 436.85-392.64 704.21-464.04-225.11 45.96-488.81 171.73-783.96-106.08 229.14-118.35 476.24-179.83 777.33-66.31-373.54-84.75-575.98-229.25-684.3-437.51 284.3-77.16 467.78 36.96 744.08 311.57l.06-.03z" fill="#f1ede5"/><path d="M14703.6 4046.12c0 159.26-129.4 288.39-288.99 288.39-159.62 0-289.01-129.12-289.01-288.39s129.4-288.36 289.01-288.36c159.59 0 288.99 129.1 288.99 288.36z" class="D"/></g><g transform="matrix(4.1667 0 0 4.1667 -2070.47 2387.12)" class="C E"><text x="960.74" y="3886.24" font-weight="700" font-size="650">WCU <tspan x="2676.2px" y="3886.24px">A</tspan></text><text x="3145.61" y="3886.24" font-weight="700" font-size="550">LUMNI</text></g></svg>