<svg xmlns="http://www.w3.org/2000/svg" xml:space="preserve" style="fill-rule:evenodd;clip-rule:evenodd;stroke-linecap:round;stroke-linejoin:round;stroke-miterlimit:1.5" viewBox="0 0 8334 8334"><path d="M6799.5 3600.94V522.7H1300.65v3078.24c154.675 1473.64 1110.82 2476.41 2749.42 3078.24 1638.6-601.827 2594.74-1604.6 2749.43-3078.24" style="fill:#fff;stroke:#000;stroke-width:51.82px"/><path d="M1300.65 2195.43c10.365 10.301 0-1663.95 0-1663.95H6799.5v1663.95" style="fill:#a51c21;fill-rule:nonzero;stroke:#000;stroke-width:51.82px;stroke-linecap:butt;stroke-miterlimit:2"/><path d="m1300.65 2195.48 5498.85-8.784" style="fill:none;stroke:#000;stroke-width:51.82px"/><path d="m5964.12 2702.56 10.351 10.351c0-10.351 5.18-25.887-5.18-36.247-10.352-5.171-20.703 0-25.887 5.18 5.18 5.18 15.531 10.351 20.716 20.716m186.402 383.155c0-31.067-5.18-62.134-20.716-88.016-15.531-25.896-36.247-46.598-62.134-62.134s-51.783-15.536-67.314-46.599c-5.171-5.18-10.351-5.18-5.171-15.535 0-5.18 10.351-5.18 15.531 0 0-10.365 5.171-36.248-5.18-41.432 5.18-10.351-5.18-41.418-5.18-56.954-5.171 5.18-10.351 5.18-20.703 10.351 5.171-10.351 10.352-15.536 15.532-25.887-10.365 0-15.532-10.351-15.532-20.716-31.067 0-62.134-51.769-77.665-72.485 0 15.531-20.716 0-25.896-5.18-5.171-10.351-10.351-20.702-15.531-25.887-10.351-10.351-20.702-20.716-36.238-25.883-20.716-15.535-46.599-31.067-72.499-41.431-20.702-10.352-41.418-25.887-56.954-36.238 5.18 10.351 10.351 15.531 10.351 25.882-5.171-5.18-36.238-36.247-46.598-31.067-15.532 5.18 5.18 20.716 10.364 25.882-5.18-5.171-62.134-25.882-31.067-5.171-10.364-5.18-25.896-15.531-31.067 0-15.531-5.18-41.431-5.18-51.783-15.531-10.351-5.18-25.887-20.716-36.247-20.716 0 5.18 5.18 10.351 10.365 15.536-31.067-10.351-62.134-5.18-93.201-5.18h-36.247c-10.351 0-15.532 10.365-20.716 10.365-72.485 0-134.62 15.531-201.934 31.067-134.619 25.887-248.536 103.552-336.553 207.104-46.598 56.963-88.016 113.917-129.448 176.051-36.238 46.599-62.134 98.382-108.732 139.8s-113.904 72.485-170.867 98.381c-25.887 10.351-56.949 25.887-88.016 31.067-31.067 5.171-62.134 0-93.202 5.171-31.067 5.18-72.485-15.531-103.552-25.887-36.247-10.351-72.499-20.716-103.566-25.887-67.305-15.531-134.619-31.067-201.933-41.432l-227.821-31.067c-72.485-10.351-144.984-15.531-212.284-36.238-134.633-36.247-191.583-170.866-295.135-248.536-56.963-41.432-119.097-67.314-191.583-77.665h-51.783c-15.535 0-25.886-20.716-36.238-31.068-25.896-25.896-51.783-46.598-82.85-62.134-10.351-5.18-20.716-15.535-36.247-20.716-20.702-5.18-31.067 0-41.418-10.351-25.887-25.896-51.783-51.783-77.665-72.499-51.783-46.598-103.553-88.016-170.867-103.552-15.536-5.18-36.247-5.18-51.783-5.18s-25.887-5.171-41.418-5.171-20.716 10.351-36.247 15.536c-20.702 5.171-41.418 5.171-62.134 10.351-67.305 15.536-98.372 77.665-98.372 144.984 0 51.769-10.365 103.552-10.365 155.335 0 56.954 10.365 113.904 25.896 170.867-56.963 5.171-67.314 98.372-41.432 139.799-31.067 10.351-46.598 41.418-51.769 67.305 0 10.365 0 25.896 5.171 36.248 5.18 10.351 15.536 20.715 15.536 31.067s-10.352 25.887-10.352 36.247v51.769c5.181 31.067 15.536 56.963 31.067 82.85-25.886 5.18-62.134 5.18-62.134 36.247-5.18 25.887 10.351 56.95 5.18 88.017-5.18 56.949 31.068 119.083 82.837 150.15 5.18 0 15.536 5.18 20.716 10.365v20.702c0 15.532 0 31.067 5.18 46.599 5.171 25.896 15.536 56.963 31.067 82.85 31.067 51.783 72.485 93.201 129.435 124.268 0 0 5.18 0 5.18 5.18-15.536 20.702-20.716 46.598-25.887 77.665-5.18 36.238-10.365 67.305-5.18 103.553 10.351 67.314 56.954 108.732 113.917 144.984l-20.716 20.702c-5.18 5.18-15.536 10.365-20.716 15.531 0 0 5.18 5.18 5.18 10.365-5.18 20.702 0 25.887 15.536 46.598-15.536 10.351-36.247 36.238-5.18 36.238-5.171 15.532-36.238 10.365-31.067 31.067 5.18 20.716 25.896 5.181 41.431 0-10.364 15.532-46.598 15.532-51.782 31.068-10.352 20.715 15.535 20.715 31.067 15.531 5.18 15.531-36.248 20.716-41.419 31.067-5.18 5.18 0 15.531 5.171 15.531 10.365 5.18 15.536 0 25.896-5.171-5.18 10.351-20.715 20.702-20.715 36.238v10.365c0 5.171 0 10.351-5.181 20.702 5.181-5.171 15.536-10.351 20.716 0-10.351 5.18-36.247 46.598-10.351 36.247-10.365-5.18-10.365 10.351 10.351 15.532 10.351 0 15.536-5.181 20.716 0 5.171 5.18 10.351 15.531 15.536 20.716 10.351 20.702 20.702 36.238 36.238 56.949 5.18 10.351 15.536 15.531 25.896 25.887 10.351 10.365 10.351 10.365 5.171 25.896-5.171 15.531-5.171 46.598 5.18 56.949 5.18 5.18 15.532 10.351 20.716 15.532 10.351 5.18 10.351 5.18 20.702 15.531 5.181 5.18 0 20.716 5.181 25.887 5.18 5.18 15.535 5.18 25.886 5.18 15.532 0 31.068 5.18 46.599 0-15.536 10.351-46.599 31.067-41.418 56.949 0 20.716 31.067 20.716 46.598 15.532 0 20.715 5.18 25.896 31.067 25.896 10.351 0 15.536-10.365 20.716-10.365 10.351-5.171 5.171 0 15.536 0 20.702 5.18 36.238 10.365 41.418 31.067 5.18 20.716 0 46.598 5.18 67.314 0 15.531-10.365 88.017 20.702 82.85 10.365-5.18 20.716-10.365 31.067-10.365 10.365 0 25.896-5.171 36.247-10.351-15.535 15.531-10.351 77.666 15.536 72.485 5.18 0 15.536-10.351 15.536-10.351 5.18 5.18 10.351 5.18 15.531 5.18 10.351 0 15.536-10.364 25.887-10.364 0 10.364 5.18 15.531 15.536 15.531 15.536 0 25.896 5.18 36.247 20.716 5.18 10.351 10.351 25.887 15.536 36.247 10.351 15.531 25.887 31.067 41.418 41.418s31.067 20.716 51.783 31.067c10.351 5.18 5.18 31.067 10.351 41.418 15.532 31.067 51.783 10.365 62.134-10.351 20.716 31.067 36.248 56.95 72.499 36.247 10.351 31.067 46.599 51.77 67.305 77.666 10.365 15.531 25.896 25.887 41.432 31.067 15.531 5.171 36.238-5.18 46.599 5.171 20.702 25.896 36.238 56.963 72.485 56.963 25.887 0 31.067-25.896 31.067-46.598 15.531 15.531 20.716 20.702 25.887 41.418 5.18 15.531 10.365 36.247 15.531 51.783 10.365 36.238 10.365 67.305 15.531 103.552 0 67.314 5.18 129.448-10.351 191.582-5.18 15.532 0 67.306-15.531 77.666-5.18 5.171-36.247 5.171-46.598 10.351-15.532 5.18-36.248 15.531-51.783 20.716-15.532 10.351-51.77 36.238-31.067 56.949 15.531 15.531 41.431-5.18 56.963-5.18 10.351-5.171 25.887 0 36.238 0 15.531 0 25.896-5.171 36.247 5.18 15.531 25.887 46.598 31.067 77.665 31.067 20.716 0 51.783 20.716 72.485 31.067 25.896 15.532 67.315 15.532 93.202 15.532 36.247 0 72.498 5.18 108.732 5.18h46.598c15.532 0 20.716 10.351 36.247 15.531 10.352 5.171 25.887 10.351 36.248 10.351 10.351 0 25.887 15.531 41.418 20.716 15.531 5.171 25.887 15.531 36.247 25.887 10.351 10.351 10.351 25.887 20.702 31.067 31.067 31.067 41.432-15.531 46.599-41.418 5.18-36.247-25.887-56.963-51.77-77.666 41.418 0 82.837-10.364 119.084-5.18 25.887 5.18 41.418 15.532 62.134 31.067 5.18 5.181 15.531 10.352 20.716 15.532 5.171 5.18 5.171 15.531 10.351 20.716 20.716 25.886 36.247-20.716 31.067-36.248-5.18-36.247-46.598-62.134-77.665-82.85 41.418 10.365 88.016 20.716 119.083 41.432 25.896 15.531 41.432 51.77 62.134 72.485 20.716 25.887 36.247 0 41.432-25.886 5.171-41.432-10.365-77.666-46.598-98.382 20.702-5.18 5.171-41.418 0-51.783-15.531-25.887-46.599-41.418-77.666-46.598 25.887-10.351 51.77-5.171 72.486 10.365 10.351 10.351 15.531 15.531 15.531 25.887s10.351 20.716 15.531 25.887c15.531 5.18 31.067-5.171 36.247-20.703 5.171-20.716-5.18-41.431-10.364-56.963-67.306-108.732-243.352-41.418-341.738-36.238-31.067 0-56.949 5.171-88.017 5.171s-41.418 0-41.418-31.067c0-25.887 5.171-46.598 0-72.485 0-25.887-10.364-56.949-20.716-82.85-15.531-56.949-25.887-113.903-36.247-170.867 0-10.351-5.171-25.886-5.171-36.238 0-5.18-5.18-20.716 0-20.716 5.171-5.18 10.351 0 15.531-5.18 5.171-10.351-5.18-20.702-10.364-25.887-5.171-15.531-5.171-25.887-5.171-41.418 10.351 10.351 20.702 15.531 31.067 25.887 5.171 10.351 10.351 25.887 20.702 20.716-15.531-25.896-20.702-46.598-31.067-72.499 5.18 5.18 5.18 10.365 15.531 15.531-10.351-15.531-10.351-31.067-20.702-41.418-5.18-10.351-15.531-31.067-10.365-41.418 15.531 31.067 36.247 62.134 51.783 93.201 5.18 10.351 10.351 20.702 25.887 25.887 5.18 5.18 15.531 10.351 20.716 15.531-5.18-10.351-10.351-15.531-5.18-25.887 5.18 0 15.531 5.171 15.531 5.171 5.18 5.181 10.365 15.532 15.531 15.532 10.365 0-5.171-15.532-5.171-20.703-15.531-20.715-25.896-56.963-41.432-82.85l15.532 15.532v-5.18c-25.887-25.887-36.238-72.486-46.599-103.553 25.896 36.247 56.964 77.666 88.031 108.733 10.351 10.351 41.418 20.716 25.886-5.18-15.531-25.887-31.067-51.77-41.418-77.666 20.703 25.896 41.418 77.666 77.666 72.499-5.18-5.18-10.365-15.531-5.18-20.716 5.18 5.18 41.418 25.887 36.247 15.531-5.18-5.18 0-5.18 0-15.531-5.18-10.351-10.365-20.716-20.716-31.067 15.531 15.531 36.247 25.887 51.783 41.418 5.171 5.18 10.351 15.532 15.531 5.18 5.171-5.18-10.365-15.531-15.531-20.715l5.171 5.18c-10.351-15.532-20.702-25.887-31.067-36.248-5.171-10.351-10.351-25.886-20.703-36.238-10.364-10.364 0-15.531 5.171-25.896 5.181-5.171 31.068 5.181 36.248 5.181 36.247 5.18 62.134-15.532 93.201-25.887l98.381-31.067 196.753-77.666c25.887-10.365 46.599-31.067 67.315-41.432 25.887-15.531 36.238-41.418 67.305-46.598 124.268-10.351 258.896-56.954 357.269-134.619 98.381-77.666 170.866-186.403 217.469-300.315 51.783-129.435 93.201-264.068 155.335-388.336 31.067-62.134 62.134-119.083 108.733-170.866 41.431-51.77 77.665-93.202 98.381-155.336 20.716-56.954 15.531-119.088 20.716-176.037 5.171-67.314 0-134.633 5.171-201.934 5.18-36.247 10.365-72.499 20.716-103.566 10.351-36.238 25.887-67.305 41.418-103.552 10.365-25.887 10.365-51.783 5.18-77.665 0-5.18 20.716-25.887 25.887-31.067 10.365-5.181 20.716 0 31.067-5.181 31.067-5.171 51.783-31.067 72.499-51.769 10.351-10.365 15.531-20.716 20.702-25.896 5.18-10.351 20.716-15.531 31.067-20.702 20.716-15.531 41.432-25.896 62.134-36.247 31.067-15.536 31.067-10.351 56.963 0 20.703 10.351 46.599 20.716 67.306 25.887 36.247 10.364 77.665-5.171 93.201 36.247 15.531-15.531 10.364-20.716 10.364-31.067m-2557.84 2355.9c0-10.351-5.171-20.702-5.171-31.067 5.171 5.18 10.351 25.896 5.171 31.067m129.448-15.531c5.18 15.531 25.887 36.247 20.716 51.783-5.18-15.531-20.716-20.716-20.716-31.067-5.18-25.887-15.531-46.598-15.531-72.485 5.18 15.531 10.351 36.238 15.531 51.769m0 31.067c-10.351 0-10.351-5.171-10.351-15.531 0 5.18 5.171 10.365 10.351 15.531m31.067 388.336c0 31.067-10.351 62.134-15.531 93.201-67.314-108.732-108.733-233.001-103.552-362.44 15.531 5.171 15.531 20.702 20.702 31.067 5.18-5.18 5.18 0 0-5.18-5.171-15.531-5.171-15.531-5.171-25.887 0-20.716-10.365-41.432-15.531-62.134 15.531 15.531 20.702 36.238 25.887 51.769 10.351 25.896 15.531 20.716 10.351-5.171 5.18 5.171 10.364 15.532 15.531 20.703 0-5.171-10.351-20.703-10.351-25.887 5.18-5.18 0-10.351 0-15.531-5.18-20.716-25.887-51.783-25.887-72.486 15.531 36.238 20.702 77.666 46.598 103.553-15.531-62.135-25.896-129.449-36.247-191.583 5.18 20.716 15.531 36.247 20.716 51.783 5.171 15.531 10.351 25.887 10.351 36.247 5.18 41.418 20.716 82.837 25.887 124.268 25.896 82.837 36.247 170.867 36.247 253.703m5.18-403.867c0-5.171 0 0 0 0m548.838 600.634-5.171-5.18c0 5.18 5.171 5.18 5.171 5.18m1175.37-3453.6c5.171 0 5.171 0 10.351 5.18-5.18 0-10.351-5.18-10.351-5.18m455.641 326.202s-5.171 5.18 0 0"/><path d="M5969.31 2676.66c5.185-15.532-10.351-41.419-20.702-20.703-5.18-5.18 0-15.535-10.365-20.716-10.351-10.351-20.702 5.181-20.702 20.716-31.067-25.896-36.247-25.896-46.598 10.351 0 10.352 5.171 15.532 5.171 25.883 0 20.716 10.365 36.247 20.716 51.783 15.531 25.882 36.247 62.134 20.716 93.201-5.18 10.351-15.532 20.716-25.896 25.887-10.352 5.18-25.887 15.536-15.532 25.896-46.598 5.171-72.485-72.499-98.372-98.381-20.716-20.716-46.598-25.887-72.499-31.067 0 0 0-5.181-5.171-5.181-5.18 0-10.365 0-20.716 5.181-10.351 5.18-15.531 5.18-31.067 5.18-31.067 0-56.949 10.351-88.016 15.536-20.716 5.171-25.896 10.351-15.531 20.702 10.351 10.365 20.702 15.536 25.887 31.067s5.18 31.067 10.351 46.598c5.18 5.18 5.18 10.365 10.364 10.365 10.352 0 10.352 25.882 5.171 25.882 0-5.18-15.531-10.351-20.702-5.18-5.18 5.18 5.171 5.18 5.171 10.365v25.887c-15.531-5.18-36.238-5.18-51.769-10.351-15.531 0-20.716-5.18-36.247-10.365h-15.532c-5.18-5.171-10.351-15.536-15.531-25.887s-15.531-15.531-15.531-31.067c10.351 5.18 15.531 10.351 25.887 10.351-5.171-5.171-15.531-10.351-20.702-20.702-5.18-5.18 0-15.536-10.365-20.716-25.887-10.351-15.531 62.134-20.702 72.485-5.181 5.18-15.532 10.365-20.716 20.716 0 5.18 0 10.351-5.18 15.536 0 5.18-5.171 20.716 0 20.716 0 0 5.184-10.365 10.364-10.365-10.364 10.365-5.18 56.963 0 77.665 5.171 25.896 20.703 41.432 31.067 67.315 5.171 10.351 15.532 15.531 25.887 25.887 10.351 10.364 10.351 25.896 15.532 41.431 5.18 25.887 10.351 56.95 25.887 82.837 10.364 10.365 25.896 0 31.067-5.171 15.531-15.532 10.364-36.247 20.715-51.783 36.248-56.95 108.733-93.201 165.687-119.084 15.531-5.18 31.067-15.536 46.598-15.536-67.305 36.238-139.799 62.135-191.569 119.084-25.896 25.887 10.352 25.887 31.067 36.247 10.352 5.171 15.532 0 20.703 10.351 5.18 10.351 31.067-5.18 36.247-10.351 0 5.171-15.531 31.067-15.531 36.238 10.351 10.365 41.418-41.418 46.598-46.598 20.716-15.531 51.783-15.531 72.485-25.887 15.531-10.351 31.067-25.887 41.432-46.598 5.171-10.351 5.171-20.716 10.351-31.067 0-5.181 25.887-10.352 31.067-15.532 20.716-10.351-5.18-20.716-10.351-25.887-15.531-15.531 46.598-41.431 56.954-41.431 25.887-5.171 56.949 5.18 88.017 0 5.18 0 5.18 5.18 10.364 0 5.171-5.171 0-5.171 0-10.352 0 0-5.18 0-5.18-5.18h10.351c5.18-5.171 10.365-5.171 0-10.351-15.531-5.18-41.418 0-56.949 0-31.067 0-56.95-10.351-88.017-5.18-36.247 0-67.314 0-103.566 5.18v-10.351c20.716-10.365 41.432-20.716 62.135-20.716 10.364 0 10.364-5.18 20.716-5.18s20.715-5.171 31.067 0c15.531 0 51.783 36.247 67.314 15.531 10.351-10.351 10.351-15.531 5.171-31.067 15.531 10.365 5.18-5.171 10.365-10.351 5.171-10.351 0-10.351 5.171-15.536 5.18-5.18 20.716-5.18 25.896 0 10.351 0 31.067 20.716 36.238 5.18 0-5.18-5.171-10.364-5.171-15.535 25.887 0 31.067-5.181 10.351-25.896 0 0-15.531 0-10.351-5.171 5.171-5.181 5.171-5.181 5.171-10.365 0-15.536-20.703-10.351-5.171-31.067 15.531-20.703 20.702-25.883 10.351-51.77-5.18-10.364 10.351-41.431-10.351-36.247 5.171-10.351 15.531-31.067 10.351-41.418-5.18-15.536-15.531-5.18-25.887 5.171-15.531 20.716-15.531 10.365-10.365-10.351 0-10.351 0-20.716-15.531-20.716m-279.604 93.201c36.248 5.18 67.315 20.716 93.202 51.783 0 5.18-5.171 0-10.352 5.18-5.18 5.171-10.351 0-10.351 5.171 0 5.18 0 15.536-5.18 20.716-15.531 15.536-31.067 25.887-56.954 25.887-20.716 0-41.432-15.536-51.783-31.067s-10.351-36.238-25.887-46.598c10.351-5.171 15.532-10.351 20.703-15.536 15.531-10.351 31.067-10.351 51.782-5.171 15.532 5.171 25.887 10.351 36.248 20.702 10.351 5.18 10.351 15.536 25.887 15.536 5.18-20.702-46.599-41.418-67.315-46.598m-67.305 56.963c10.351 41.418 51.77 77.665 98.372 72.485 20.716-5.18 46.599-10.351 62.135-25.882-20.703 25.882-51.77 36.238-82.837 36.238-25.896 0-41.432-10.351-56.963-25.883-10.351-10.351-31.067-46.598-20.702-56.954zm243.352 181.217c-31.067 0-67.314 10.352-98.381 15.536-15.532 5.18-46.599 15.531-56.95 5.18 15.532-5.18 25.887-15.535 41.418-20.716 0 15.536 36.248 0 41.432 0 25.887-5.18 51.77-5.18 72.486 0m-336.553 134.62q0-7.756 0 0m10.351 62.134q0 7.77 0 0" style="fill:#a51c21"/><path d="M5684.52 2790.58c-46.599 15.535-25.896 93.201 25.887 93.201 56.949-5.18 31.067-103.552-25.887-93.201m10.351 72.485c-36.247-15.536-15.531-67.305 15.531-51.769 20.716 15.535 10.351 56.954-15.531 51.769" style="fill:#fc3"/><path d="M4005.74 991.535c18.451.46-6.588 21.126-22.83 25.959-31.304 18.083-74.622 29.988-101.862 50.936 105.926 6.301 214.909 26.579 319.418 60.33 192.006 61.997 374.317 155.208 532.773 190.202 44.835.064 81.009 8.934 121.544 3.991 32.78-4 67.975 1.38 100.969 2.077 34.707.597 59.724 34.102 67.054 65.328 4.524 30.944-2.2 84.65-20.916 103.94-40.261 34.247-111.767 24.456-159.595 46.056-54.539 24.643-110.45 44.812-167.573 61.114-95.725 24.529-193.035 43.217-286.783 75.095-87.383 25.846-173.277 57.774-262.587 76.499-59.61 9.085-120.441 6.401-180.512 4.401-99.278-8.588-197.099-31.203-292.401-59.91-16.082-8.775-33.368-15.673-51.373-18.739-9.371-.683-6.086-18.083-11.841-14.948-41.878 20.192-89.173 5.604-132.669-.073-49.719-10.164-101.006-18.452-147.23-40.174-18.775-20.716-54.74-49.683-87.93-59.278-20.803-10.114-47.323 7.768-64.581-10.064-21.996-4.324-44.612-9.718-65.141-19.509-10.055-3.193-19.486-11.704-28.693-14.214-40.512 4.597-79.802 5.481-116.961 1.08-14.998 20.082-43.281 13.768-61.2 1.517-17.695-9.609-42.785-29.154-31.103-51.77 14.342-17.321 40.484-13.918 60.43-19.536 26.889-6.597 54.316-4.164 81.132 1.194 23.14 3.28 46.763 3.084 70.235 6.438-75.419-61.437-130.268-145.495-211.046-200.717-18.032-13.782-51.336-20.092-65.163 2.063.186 11.992 18.069 53.61.524 54.394-18.853-1.417-36.835-47.856-42.129-62.567-7.445-33.687 24.629-58.157 52.639-68.385 23.946-7.453 51.337-8.005 75.132.21 15.955 7.157 32.967 15.221 46.539 25.19 2.67-21.746 29.227-26.17 44.439-36.831 74.089-36.757 152.775-63.3 230.504-91.164 74.472-24.666 154.165-20.739 231.251-29.363 82.887-5.007 167.673-19.833 249.803-.647 45.259 5.084 90.937 3.863 136.396 5.74 49.683-30.493 127.859-53.97 185.209-65.574 2.014-.25 4.037-.474 6.078-.36l.063.087zm-726.529 140.956c-50.266-2.524-92.431 45.086-96.058 93.115-4.187 38.944 21.199 79.506 60.193 88.331 36.102 10.797 79.493 3.567 103.02-28.124 36.447-41.268 25.773-112.473-21.363-141.18-13.732-9.012-29.313-13.745-45.865-12.228z" style="fill:#fff;fill-rule:nonzero"/><path d="M5316.85 1067.74c-27.563 37.887-38.757 92.718-76.312 121.147-6.684 1.23 0 8.091-1.986 12.661-2.26 26.306-14.078 45.245-33.901 62.667-5.914 2.078-6.748 3.394-2.187 8.041 12.242 23.896 15.932 53.387 3.763 78.117-2.62 6.41-5.955 12.747-11.071 17.522 11.595 5.59-.26 15.508 1.677 26.356 1.28 21.673-.747 45.856-15.495 62.991 11.891 6.273 13.294 21.882 16.265 33.778 4.711 25.003-.57 51.049-9.718 74.435-2.711 5.631-5.568 11.645-10.925 15.258 13.021 8.574 20.925 23.599 26.16 38.087 4.87 14.848 6.451 32.37-1.877 46.303 11.444 2.496 15.085 15.708 20.802 24.615 6.912 14.602 12.156 32.931 4.547 48.202-9.107 12.538-25.823 5.604-38.065 3.021-49.209-11.868-84.713-53.309-126.728-79.57l-109.616-67.651c-26.844-17.213-59.374-28.917-90.591-35.787-10.611-.597-27.787 6.237-22.046-4.497 5.631-11.112-7.258-11.285 2.51-16.912 50.28-5.863 112.313-19.909 130.929-28.944 30.953-15.034 28.169-13.034 36.398-46.461 16.082-32.598-5.618-124.924-38.858-120.651-18.552-6.861-61.624-14.078-153.322-22.456 75.379-50.303 151.062-87.757 227.288-139.403 60.466-38.211 112.104-85.506 175.404-119.457 51.523-36.448 83.693-14.976 96.942 8.61zm-988.956-57.624c-31.14 52.503-16.666 83.98 41.865 89.41-31.017 27.71-30.607 42.202-7.819 89.411-156.478-60.011-315.053-107.402-479.71-118.364 4.488-13.795 18.789-11.804 29.327-21.025 61.328-42.325 132.533-71.839 207.291-77.57 46.526-4.92 92.728-14.292 139.294-19.263-20.306 36.261 19.932 73.183 69.738 57.387zm-1129.19 567.681c12.638 2.25 20.652 13.905 30.197 21.559 15.622 15.098 22.889 36.347 34.16 54.53 8.178-7.768 19.818-1.864 25.477 5.927 42.849 45.122 85.087 90.541 130.305 133.13-31.988-46.079-58.804-95.634-93.302-139.914-8.004-7.59-7.954-22.556 3.281-27.003 2.423-.893 5.358-1.367 7.977-.907l59.228 17.263c8.064 4.301 13.285 12.379 20.132 18.269 3.217-9.927 15.372-11.681 23.933-7.891 35.404 8.338 73.018 11.518 108.896 20.12a462 462 0 0 1 16.739 4.624c5.43-11.932 20.429-7.827 30.593-6.251 18.206 3.54 37.505 8.501 51.792 20.903 6.151 8.501 14.401 18.155 13.545 29.03-2.41 14.242-19.919 12.315-29.304 19.732-12.091 6.748-21.103 20.142-17.996 34.361.77 14.588 13.395 24.356 19.422 36.571 2.351 12.005-9.595 17.012-17.212 23.276-16.516 12.465-22.329 36.908-10.798 54.653 6.337 8.452 6.365 22.73-4.661 27.204-12.068 3.64-23.959-4.287-35.513-7.034-21.969-6.884-42.649-17.099-61.811-29.664.301 6.87-3.863 14.164-9.121 18.688-12.611 10.661-17.622 28.78-11.012 44.102 4.488 8.747 4.861 21.809-5.727 26.233-12.838 4.251-23.932-6.834-35.254-11.171-47.992-24.096-87.087-63.947-112.336-111.156-45.044-79.333-97.561-154.315-140.073-235.101-4.719-8.921-11.954-21.96-1.963-30.11 2.273-3.454 6.647-3.094 10.192-3.978l.209.014zm1286.84 64.717 4.674.16c15.545 9.467 28.357 26.11 30.808 44.425.036 13.941-15.285 16.515-25.737 16.688-21.399 1.54-42.625 9.422-56.703 26.183-11.732 12.525-30.32 9.344-44.626 17.099-17.312 7.194-28.21 24.01-35.513 40.375-9.395 12.761-28.607 3.79-40.252 14.041-19.696 12.725-21.063 37.814-25.363 58.53-4.647 12.488-19.459 16.443-25.486 28.357-11.969 15.349-16.516 36.374-10.438 54.94.05 15.221-19.026 18.889-29.24 10.638-62.321-32.548-114.637-81.419-159.636-134.843-10.338-14.802-22.903-28.62-30.234-45.195-2.71-13.754 11.468-20.032 22.88-19.062 30.594-.979 60.781-6.957 90.892-11.134 12.565 7.603 12.451-3.704 24.256-7.035 34.944-9.545 69.428-21.162 104.076-31.254 9.754 3.677 11.977-4.811 20.866-7.531l84.65-27.773c9.654 4.164 12.711-7.467 22.702-7.531 25.586-7.344 51.309-15.709 77.429-20.082zm-1661.67-404.664c21.313.423 38.885 14.428 54.034 27.973l45.591 40.712c46.712 43.993 89.447 91.748 134.683 137.403 6.502 6.698 4.821 19.277-3.977 23.249-6.957 3.381-15.012.907-22.456.943-24.01-2.063-47.806-6.41-71.269-11.781-13.149-4.597-24.816-12.538-36.735-19.609-81.483-45.669-147.048-149.558-143.48-161.076-2.201-12.365 4.811-24.989 15.818-30.671 8.374-4.884 18.019-7.654 27.65-7.23l.137.087z" style="fill:#fff;fill-rule:nonzero"/><path d="M4094.08 987.074c-84.153 9.791-127.909 35.664-192.143 74.413 248.35 13.745 421.143 102.071 606.115 176.784 82.044 33.154 164.105 61.365 231.661 68.112 89.525 10.624 135.95 1.59 226.053 32.037l-230.518-13.011c-82.116-12.552-162.105-40.088-235.041-69.542-229.138-92.605-397.27-162.516-630.932-180.945-6.834 6.725-22.666 6.561-29.5 2.574 12.652 1.13 24.881-7.79 33.341-13.831 42.835-33.305 88.677-45.929 131.649-65.615-68.025 9.991-139.28 40.584-186.913 72.931l-138.273-4.164-1.713-.496c-50.949-14.889-97.725-13.112-150.638-8.424l-252.81 19.946c-48.425 3.813-95.078 23.65-142.647 41.354-76.175 28.347-153.845 54.453-211.542 97.684l-6.957 1.317-5.034-2.907c-25.377-14.652-44.662-22.306-61.237-24.543-16.579-2.25-30.816.497-48.106 8.301l-.087.037h-.05c-15.768 6.948-25.837 14.702-31.664 22.342-5.818 7.631-7.854 15.112-7.28 23.969 1.157 17.723 15.212 41.122 37.764 65.574 45.095 48.885 112.623 108.409 177.664 137.289l-13.372 7.317c-5.553-3.668-9.681 2.697-15.631-1.267-53.373-35.564-120.774-82.34-164.206-129.024-24.133-25.947-41.605-51.934-43.318-78.499a56.24 56.24 0 0 1 11.531-38.052c8.675-11.371 21.874-20.816 39.801-28.716h.05c19.696-8.884 38.885-12.775 59.51-9.978 18.962 2.575 39.555 11.819 63.251 24.953 65.523-34.433 135.749-67.264 211.341-95.401 46.913-17.386 95.302-38.361 148.287-42.548l252.127-19.869c56.316-4.437 112.026-6.497 155.718 8.711l128.828 4.424c115.198-52.343 201.847-73.629 304.206-80.923l-19.299 17.682z"/><path d="M2913.52 1196.59c88.367 66.895 119.261 143.927 197.223 188.963-91.771-38.375-149.891-135.189-211.465-176.088zm6.711 98.021c55.214 51.524 99.452 110.933 153.258 155.135 19.276 15.531 38.748 27.523 66.184 26.616-18.679 14.401-61.328 3.481-78.909-9.567-50.525-49.15-103.293-110.437-154.515-156.529-36.238-27.65-67.241-76.24-105.352-51.31-35.514 23.363 83.643 123.635 135.526 160.133-47.409-18.889-132.319-101.639-144.697-119.32-20.156-28.83-25.263-43.592-1.267-58.963 45.965-29.45 96.085 24.105 129.649 53.732z"/><path d="M4000.96 1754.99c9.148.569 18.616-.857 27.5 1.467 7.777 3.69 10.811 12.538 16.019 18.903 19.371 27.996 40.251 55.086 64.393 79.168 5.654 5.035 9.632 12.789 6.274 20.12-3.495 8.947-12.789 7.394-20.092 1.576-34.097-22.242-65.824-47.683-93.165-77.579-6.177-7.617-13.307-14.624-18.328-23.053-3.677-8.251 1.79-18.543 10.638-20.206 2.237-.483 4.547-.287 6.825-.309z" style="fill:#ac93a7;fill-rule:nonzero"/><path d="M3291.94 1600.21c38.685 43.496 71.679 90.008 101.862 139.613 4.401 7.508 9.458 14.702 13.345 22.456 3.531 7.64-1.23 17.572-9.372 19.673-6.588 2.287-13.385-1.344-17.759-6.215-31.09-30.73-58.817-64.608-87.907-97.201-22.88-25.809-46.639-51.022-73.018-73.305-8.825-7.467-18.552-14.616-28.434-21.113 9.098 18.293 19.162 36.075 29.577 53.633l86.281 142.36c4.086 7.121.993 17.249-6.638 20.506-6.497 3.381-9.732-1.94-14.069-7.531-35.477-38.894-66.904-82.44-92.454-128.477-14.488-26.758-25.664-55.041-32.174-84.937-1.618-6-7.481-9.827-2.46-13.982 4.013-3.54 9.754-4.452 14.775-2.711 2.647 1.266 4.797 3.13 6.747 5.194.21-1.741.424-3.454 1.253-5.071 31.39-14.812 86.65 20.219 110.536 37.104h-.1z" style="fill:#fff;fill-rule:nonzero"/><path d="M3576.8 1197.42c66.795 17.098 109.292 92.021 116.751 120.441 59.97 71.342 57.177 206.658-25.81 254.25-9.977 32.83-30.16 72.371-67.578 92.9 20.542 3.267 44.511 10.834 57.423 21.623 197.113 54.48 285.827 52.912 400.81 50.215 94.445-2.223 182.798-31.131 349.018-79.916 142.437-43.145 278.173-87.82 410.555-117.68 79.42-17.039 98.468-12.429 168.57-39.095-68.421 46.453-84.13 38.138-163.276 55.36l-411.325 120.227c-143.157 44.712-244.983 79.433-352.408 83.756-147.417 5.941-279.243-18.788-419.539-57.373-20.976-12.838-41.181-18.989-67.415-18.529-70.571 1.258-170.406-22.328-256.659-50.926l-33.427-35.887c68.011 39.081 183.267 57.177 247.825 64.198 67.538 7.33 121.011-53.351 121.088-103.02 83.93-40.908 77.096-169.126 25.486-232.116-9.781-50.79-56.862-109.084-100.121-128.369l.036-.064zm-623.473 242.932c39.368 8.798 78.959 16.128 109.543 14.028l10.884 15.919c-35.008.036-72.923.496-99.525-7.481-40.215-5.668-67.241 5.02-102.222 10.465-5.704 2.61-8.323 5.904-8.661 9.531-1.48 15.358 37.665 36.921 54.28 39.892 19.796-4.388 20.976-9.294 20.292-21.149 4.898.98 8.251 3.467 10.064 7.531 43.086 6.798 109.731 10.114 116.961-6.178 18.725 18.493 73.916 39.081 97.028 36.648.173 3.814 7.854 9.509 20.256 16.206h-1.253l37.017 39.518c-27.837-12.351-50.726-24.269-63.861-34.124-35.814-3.914-69.328-23.377-93.834-36.894-34.771 3.33-71.005 6.214-111.43-.023-31.887 31.55-69.405 7.107-98.308-23.686-6.898-7.071-8.971-17.919-5.927-25.86 3.143-7.955 8.797-13.568 15.084-18.953l2.374-2.086 3.144-.447c27.859-3.754 53.956-13.271 88.403-12.884l-.309.036zm598.347-121.238c1.439 35.24-9.108 71.018-19.076 119.407-22.903 116.751-113.644 158.766-202.207 136.109-54.94-16.739-93.274-36.138-118.824-65.228 46.015 35.865 92.317 46.403 122.974 52.553 87.98 17.759 171.628-36.598 182.986-126.405 2.337-39.987 20.543-82.872 20.142-117.844-.921-30.57-7.468-64.84-54.394-92.791 45.505 8.451 66.991 64.344 68.399 94.208v-.014z"/><path d="M3298.23 1600.62c66.668 68.535 98.395 139.203 140.397 197.05 36.821 50.739 81.406 88.914 160.442 107.393-30.42-41.218-4.984-74.896 21.536-89.921-37.354-38.894-23.55-84.117 28.967-96.035-6.474-6.625-8.761-15.035-12.438-22.867l18.365-10.013c3.035 17.832 15.545 31.736 25.486 46.739-66.817 6.187-76.339 47.605-26.096 86.887-35.181 18.132-61.351 32.31-41.569 69.824 7.308 7.941 18.019 15.545 26.334 27.673l13.371 19.545-23.435-3.23c-97.525-13.422-152.985-54.703-195.137-107.22-104.085-90.9-183.905-198.817-253.607-249.256-12.114-9.654-10.401-11.445-10.861-22.753 36.871-12.674 105.566 22.767 128.332 46.252l-.087-.072zm-104.035-31.664c75.793 47.109 141.95 146.028 201.761 201.824-31.714-51.942-63.761-106.818-111.307-161.695-19.249-22.269-75.169-55.113-90.454-40.238v.114z"/><ellipse cx="3279.23" cy="1224.86" rx="95.461" ry="100.099" style="fill:#fff;stroke:#000;stroke-width:14.91px"/><ellipse cx="3287.54" cy="1226.54" rx="53.56" ry="56.157" style="stroke:#000;stroke-width:5.96px"/><path d="M3159.84 1286.45c46.403 81.88 118.514 85.26 191.373 57.637-80.786 73.306-161.012 18.429-191.386-57.596l.013-.036zm46.293-136.993c-17.904 22.73-32.894 66.385-20.916 103.826 6.611 20.629 16.925 62.48 81.21 77.692-105.466-2.013-125.111-127.348-60.294-181.518m128.542 675.917c27.76 56.193 65.301 101.329 140.1 132.829-23.053-45.769 7.682-74.686 36.334-85.01l26.98 13.818c-37.741 11.969-59.897 18.069-46.698 58.38 5.841 9.049 15.121 18.343 21.276 31.678l9.905 21.536-22.566-7.135c-93.871-29.636-142.92-88.813-175.641-147.667-89.894-90.181-137.253-151.919-168.579-264.651-10.315-11.559-14.912-24.989-13.459-36.211 20.279.087 37.878 17.126 51.086 43.159 4.921 9.718 8.884 19.845 14.976 30.857 35.641 64.408 90.007 147.855 126.282 208.408l.013.013zm-166.88-249.903c8.834 55.323 70.062 154.415 129.289 216.175-19.522-29.787-72.312-117.147-104.983-173.677-14.465-25.076-13.162-29.86-24.292-42.512z"/><path d="M4241.42 982.86c-6.784-.123-14.998.396-22.666.647 8.028-.524 15.696-.77 22.666-.647m-22.666.647c-44.921 2.957-106.249 16.989-185.108 52.949-26.543 12.106-51.172 25.177-74.636 38.289l-25.586-3.814c29.678-15.258 61.61-30.62 96.172-44.088 83.456-32.57 143.777-41.741 189.158-43.331zm73.101 50.453c-19.819 2.073-80.663 10.898-140.52 28.347-33.636 9.804-60.644 20.465-83.497 31.29l-21.636-4.898-11.458-1.89c29.34-13.349 65.624-25.614 111.22-34.735 61.587-12.315 127.749-16.205 145.891-18.119zm-168.479 72.248c23.882 2.661 49.222 4.811 90.217 5.317l121.42.483c-33.454 0-65.041 4.537-120.988 9.991a1076 1076 0 0 1-36.06 2.934l-49.61-17.572-4.984-1.158z" style="fill-rule:nonzero"/><path d="M5337.17 1063.04c-48.649 47.583-39.765 99.698-83.807 131.672.41 16.889-6.178 48.699-39.792 73.018 14.976 32.088 16.279 65.624-2.15 96.878 8.92 38.225 7.681 72.572-10.748 98.418 24.94 37.158 10.998 97.351-8.351 124.268 22.133 25.386 28.507 56.22 21.559 79.356 19.536 27.499 24.356 52.762 22.055 90.987-60.07 8.214-148.091-68.536-208.58-105.343-42.029-25.573-83.174-55.15-122.838-72.075s-88.057-23.026-112.86-18.365l18.652-14.703c32.448-6.086 62.221-2.473 103.575 15.172s76.249 49.805 119.63 73.852c60.417 33.463 118.615 97.748 183.792 103.156 6.798-18.976-2.856-39.628-22.319-64.631l-1.777-2.46-.16-3.107c12.998-24.744 1.791-53.351-19.135-73.456l-5.093-5.071 2.906-6.56c19.277-19.782 37.469-80.463 8.265-118.35l-1.554-5.431 3.704-4.224c16.652-19.248 18.033-49.609 8.452-88.877l-1.107-4.497 2.574-3.854c19.212-29.09 17.572-56.344.97-87.693l-3.444-7.481c34.087-11.891 52.703-64.508 43.828-81.16l2.164-1.517c49.396-34.16 39.168-70.485 72.385-114.6-17.408-14.005-36.607-24.789-55.583-17.263-54.092 21.536-121.507 96.181-190.366 131.959-55.086 34.584-162.319 97.848-233.661 140.524l-.656.309c-20.256 9.481-44.921 2.734-87.706 2.67l.063-15.672c40.439-.1 61.105 2.036 78.44-5.991l233.675-140.483c45.382-20.753 129.161-101.639 189.879-128.469 37.504-16.579 70.275 6.187 95.037 29.04l.086.036z"/><path d="M5197.99 1278.44c-6.934-2.077-18.406-4.05-41.245.547-17.171 3.444-36.707 9.681-60.307 17.909-53.077 18.516-113.716 37.059-142.346 41.715 38.944-6.338 76.39-23.09 138.446-51.437 22.58-10.251 42.202-18.825 60.034-24.37 23.846-7.453 39.792-7.827 51.482-4.337l-6.064 19.969zm8.611 96.386c-6.46 4.697-18.155 9.581-37.7 13.768-14.529 3.094-32.147 5.54-50.676 6.784-18.639 1.244-36.225 1.157-51.073-.137-20.219-1.754-31.089-5.294-37.563-8.005 6.314 2.647 18.018 4.661 37.677 3.878 14.552-.597 31.787-2.67 49.619-6.128 17.882-3.454 34.261-7.891 47.482-12.588 18.106-6.401 26.06-11.705 29.924-14.516l12.315 16.94zm29.933-181.195c.25.296-.834-1.49-6.324-3.394-4.251-1.467-10.675-2.898-19.723-3.567-15.818-1.18-38.534.036-66.544 6.314-73.989 16.588-140.993 57.834-188.065 101.625 47.856-44.511 109.739-88.44 185.382-111.739 28.146-8.674 51.956-12.365 69.501-13.012 10.041-.36 18.119.251 24.37 1.531 8.1 1.627 13.932 4.561 17.485 8.798l-16.078 13.444zm-41.049 279.453c-20.233 10.265-41.669 9.509-69.342-1.777-24.333-9.954-49.51-20.752-64.084-21.449 14.565.683 42.338 6.798 67.054 11.381 28.147 5.244 41.929.747 56.891-6.848l9.481 18.689zm-6.834 121.394c-4.511 2.893-10.552 3.877-18.056 3.294-5.767-.433-12.738-1.841-20.925-4.224-14.351-4.187-32.311-11.431-51.309-21.098-50.877-25.86-78.203-51.806-91.037-69.128 12.105 16.356 44.584 40.361 95.274 59.547 19.572 7.417 37.245 12.178 50.776 14.278 7.718 1.207 13.481 1.44 17.572 1.157 5.23-.36 6.684-1.617 6.415-1.453l11.294 17.631zm25.741 84.654c-2.661 3.467-6.488 5.431-10.661 6.314-3.95.843-8.502.784-13.645.073-7.905-1.093-18.142-3.9-30.694-8.487-22.032-8.064-51.108-21.723-81.569-39.332-30.758-17.782-59.365-37.518-81.543-56.813-30.297-26.356-41.669-45.655-45.865-58.863 4.178 13.135 17.149 31.751 48.476 55.66 23.039 17.586 52.566 35.332 83.866 50.79 31.231 15.422 60.257 26.607 81.779 32.571 12.328 3.403 21.336 4.884 27.39 5.093 3.928.137 6.201-.287 7.048-.656.748-.323-.396-.136-1.207.921l16.629 12.738zm-1815.84-31.591 7.544-7.331c17.709 18.457 49.943 59.638 84.714 96.136 38.374 40.274 70.125 61.76 97.488 72.175-28.57-10.875-60.271-26.666-104.696-64.594-32.671-27.86-81.26-77.506-92.568-89.024l7.531-7.33-.013-.023zm119.183 11.522c15.486 2.907 34.821 11.558 59.351 25.5 25.176 14.301 40.698 24.319 54.876 29.686-.697-.273-45.322-15.668-59.1-20.105-30.406-9.755-41.677-11.222-58.999-14.488l3.877-20.593zm-287.941-57.811c.98 2.037 12.292 4.401 13.372 6.597 10.028 20.366 38.484 81.953 76.413 147.395 45.828 79.073 83.324 125.721 110.586 148.61-28.807-24.183-66.854-64.854-118.787-143.517-41.764-63.328-74.645-124.045-84.7-144.424-1.093-2.223 3.978-12.624 2.993-14.665h.123z" style="fill-rule:nonzero"/><path d="M4041.37 1753.52c36.125 72.736 130.132 162.269 210.859 197.163 9.098 3.941 15.982 12.329 23.96 16.293-60.517-8.438-98.919-36.015-146.957-70.262-76.262-30.038-128.505-86.058-161.846-131.03-.834-1.193-1.617-2.31-2.373-4.46-.374-1.071-.834-2.46-.698-4.711a12 12 0 0 1 3.764-7.681l7.358 2.61c2.173-1.877 4.92 5.094 5.034 3.194.123-1.9 4.51.26 4.301-.323-.41-1.167-.497-1.021-.251-.661 29.527 42.165 87.534 99.949 122.628 118.674-39.208-35.168-73.055-86.901-94.467-117.494l28.693-1.317z"/><path d="M4488.35 1633.5c31.887 16.625 38.958 44.18 49.705 73.889-40.238-.56-83.706-3.043-101.005 36.325-43.642.574-66.034 21.198-74.089 58.503-47.915-6.474-67.164 26.146-59.437 65.414-43.692 23.413-50.699 80.987-28.593 99.005l-22.876-9.695c-28.693-30.78-1.676-84.189 29.327-99.698-2.036-45.181 23.163-78.576 66.221-76.786 13.385-39.828 41.691-50.589 77.442-55.76 22.42-29.527 50.899-33.714 83.16-35.814-2.77-7.171-5.768-15.869-8.351-19.76-4.187-6.3-9.221-10.537-21.277-16.852l9.768-18.775zm-1110.11-347.897c24.42-70.608 9.977-125.161-38.298-158.178-12.538-8.574-27.577-14.005-45.605-18.278 103.689-9.108 120.861 103.392 83.907 176.461z"/><path d="M4166.2 1739.28c6.611 8.278 21.026 30.52 39.396 52.416 20.292 24.197 36.921 37.792 48.648 42.489-13.148-5.257-29.563-13.121-55.997-35.008-22.506-18.615-49.833-46.079-55.51-53.172zm123.376-42.721c5.221 6.114 10.884 17.723 18.679 31.39 7.768 13.623 14.228 22.457 19.819 25.824-8.005-4.812-12.898-6.588-27.81-19.063-10.265-8.588-23.882-21.148-26.607-24.506zm100.732-27.227 9.494-4.423c3.54 7.604 6.821 32.52 12.106 37.8-5.281-5.28-27.254-20.716-31.09-28.953l9.631-4.401-.137-.027z" style="fill-rule:nonzero"/><path d="M3829.67 1249.09c55.51-23.04 23.04-127.139-15.918-123.362 72.686-10.264 80.016 114.774 15.918 123.362m6.288 171.131c58.53-13.495 43.769-121.571 4.697-124.355 73.455 1.927 59.92 126.592-4.697 124.355m-43.783 138.655c59.747 6.238 80.859-100.782 44.812-116.103 68.918 25.563 15.495 139.079-44.821 116.04l.013.063zm137.617-38.957c59.934-4.087 62.407-113.134 24.27-122.054 72.225 13.494 39.181 134.468-24.27 122.054m1.276-181.182c59.327-9.408 52.079-118.24 13.294-123.735 73.146 7.007 51.013 130.442-13.294 123.735m-83.803 339.114c58.021 15.709 95.935-86.504 62.841-107.453 63.874 36.448-6.921 139.914-62.841 107.453m-146.2-7.755c56.517 20.37 102.646-78.476 71.319-101.985 60.703 41.419-18.219 138.87-71.319 101.985m348.549-249.456c55.487-23.04 22.966-127.152-16.019-123.412 72.686-10.265 80.016 114.774 15.918 123.362zm-46.517 189.559c59.934-4.1 62.408-113.147 24.27-122.067 72.225 13.494 39.181 134.469-24.27 122.067m-79.866 123.212c41.318 14.888 75.046-57.36 52.143-74.559 44.375 30.284-13.321 101.539-52.143 74.559m114.583-18.22c60.07.957 71.679-107.493 34.434-119.594 70.831 19.523 27.75 137.29-34.434 119.594m82.918-188.511c58.307-14.452 41.764-122.255 2.661-124.419 73.478.72 61.97 125.608-2.661 124.419m28.293-178.238c39.267-22.767 4.574-97.512-24.256-90.842 53.459-14.939 71.405 78.103 24.256 90.842m88.613 238.358c51.892-9.057 44.065-104.409 9.977-108.696 64.235 5.157 46.503 113.717-9.963 108.682zm12.346-126.095c52.704-28.817 9.286-128.879-29.089-121.002 71.255-17.991 91.907 105.689 29.089 121.002m79.593 208.198c49.705-12.315 35.614-104.25 2.26-106.063 62.644.611 52.849 107.07-2.26 106.063m53.624-165.477c45.532-13.846 27.996-98.445-3.035-98.532 58.157-2.46 54.216 96.805 3.035 98.532m102.007 114.578c46.836-10.315 33.555-87.261 2.137-88.8 59.013.523 49.783 89.647-2.137 88.8m49.205-135.936c47.828-20.17 18.588-99.475-15.149-94.942 62.932-11.034 70.586 85.657 15.149 94.942m81.278 103.474c49.036-18.775 19.062-92.54-15.522-88.33 64.508-10.265 72.362 79.679 15.522 88.33m63.237-122.327c43.035-16.479 16.724-81.26-13.646-77.556 56.64-9.007 63.551 69.975 13.646 77.556m88.841 73.319c41.892-15.918 16.342-78.973-13.199-75.406 55.077-8.761 61.774 68.025 13.258 75.406h-.064zm73.487-85.884c40.238-23.062 4.028-83.36-25.586-74.973 54.899-17.745 74.011 59.688 25.586 74.973m-688.45 244.436c52.48 4.56 69.392-89.611 37.527-102.482 60.768 21.463 15.769 121.831-37.541 102.482zm-134.674-440.903c39.245-22.752 4.56-97.502-24.256-90.841 53.446-14.939 71.406 78.103 24.256 90.841"/><path d="m2788.06 1275.33.209-10.788 19.313-18.006 27.167-1.64 51.373 28.484 75.83 76.886c-30.434-22.779-165.614-93.31-87.051 25.523l-18.989-16.033-22.917-23.882-25.522-24.88-13.085-19.313-6.324-16.356zm67.428 213.219 3.927-20.939 24.206-5.891 48.439-6.547h48.439l53.673 7.854 32.73-4.583 24.206 15.709 45.819 4.583c-30.046 19.796-45.395 15.869-78.535 8.178 8.775 31.664 77.21 38.584 114.874 37.318l14.738 15.709c15.062 2.31 30.111-.533 45.173-11.782l39.937 22.616 50.403 13.085 45.158 6.551 50.403-1.964c54.553 73.192 190.589 51.993 236.107 6.374 64.668 39.842 102.906 67.579 460.535 48.33 152.515-8.192 320.411-40.699 471.595-66.062 184.626-30.98 392.127-51.208 420.57-88.914-.474 15.696-9.468 31.14-41.296 44.102l-127.785 24.069-50.115 18.803-144 43.195-152.789 44.698 29.413 50.193c-50.789-21.946-82.836-11.171-107.393 20.329-62.198-.237-68.134 27.65-88.85 48.152-57.961-5.171-89.793 21.722-106.45 49.049-56.767-27.427-113.37-34.47-155.321-2.661-17.286-15.075-35.341-10.884-40.138 1.467l-49.678-55.924-89.671-4.583-180.648-37.965-57.61-11.782 15.062 23.564-43.195 24.219 4.574 52.366 13.099 20.292c-78.996-4.533-137.203-74.922-202.257-130.254-34.498-14.452-66.048-24.457-64.148 15.709l-36.648-44.512c-28.183-20.666-42.175-20.055-43.209 0l37.304 53.669c-25.809-17.559-36.598-15.536-34.024 3.927-26.693-40.985-40.302-40.338-49.732-27.449l-19.637-29.464c-15.731-16.415-31.167-31.973-28.807 5.891l-26.83-62.831-9.157-41.231-9.171-15.062-71.342-20.94-16.128-19.176c-5.631 5.864-14.178 7.964-21.14 11.942l-53.674-1.303-43.195-2.625-16.365 13.746-22.255 1.963-49.196-43.208zm11.718-3.877c.209 5.767 13.198 13.718 17.185 19.759 11.804 22.306 57.41 12.128 51.423-3.353 11.112-1.987 12.884 2.3 16.069 4.783 27.226 4.748 74.248 9.431 100.194-6.05 5.071-3.034 5.395-7.631 5.964-12.725-3.107-.346-2.173-12.264-9.244-13.208-19.882-2.683-51.56-2.323-64.385-3.193-9.321-.634-32.01-6.784-41.491-6.424-25.837.993-66.198 6.524-74.931 18.082a3.47 3.47 0 0 0-.698 2.338h-.086z" style="fill-opacity:.29"/><path d="M4294.95 947.059c-70.485 24.247-24.047 80.937 48.912 55.15-45.445 42.115-16.305 93.885 35.951 91.274-35.741 34.584-35.49 71.328 2.21 91.388l-10.114 13.955c-39.505-24.342-49.013-62.927-23.263-93.734-43.195-7.905-52.863-41.756-38.944-81.57-46.785-1.54-81.62-17.085-62.84-57.236-54.676-1.85-124.045 18.738-154.625 21.075l.756-16.242c66.572-8.647 128.419-26.766 201.961-24.06z"/><path d="M2060.33 1411.17c-8.101 131.85-67.588 284.597 115.01 462.102l6.05 157.062c-181.705-91.151-188.648-305.062-214.895-489.278z" style="fill:#ffd200;fill-rule:nonzero;stroke:#000;stroke-width:25.35px;stroke-miterlimit:4"/><path d="M2241.85 1097c129.858-123.771 170.643-227.346 148.324-365.446-105.179 44.698-162.529 178.051-211.889 326.188 81.197-176.297 45.195-283.791-9.07-380.555-33.888 107.913-86.131 197.187-60.545 365.447.087-184.798-93.337-270.801-230.043-311.089 18.766 117.794 76.262 253.702 163.463 371.497-110.2-199.697-251.48-170.953-369.274-181.218 65.177 144.51 202.457 195.1 329.929 238.604-147.281-51.259-291.007-95.424-390.459 36.238 164.966 88.181 289.904 57.1 408.614 42.289-163.226 14.128-309.85 51.496-366.239 205.378 160.492 3.726 277.238-65.415 396.522-169.126-141.64 99.912-191.099 225.756-184.648 374.517 120.687-102.942 218.399-212.448 227.023-347.327-62.234 220.849-19.558 330.848 54.48 407.735 65.451-141.527 23.45-258.414 30.27-410.752 1.353 219.01 111.803 265.658 205.825 338.271-37.628-126.564-10.415-215.146-154.365-362.44 211.268 251.903 268.017 176.188 357.168 169.14-90.294-125.585-199.04-178.885-320.844-211.415 102.573 20.94 222.714 78.24 357.169-48.329-104.395-53.92-216.973-81.93-354.148-30.211 170.183-38.611 262.414-104.445 311.773-199.327-129.535-35.154-213.132 16.839-339.013 141.95l-.027-.014z" style="fill:#f1ede5;fill-rule:nonzero;stroke:#000;stroke-width:25.35px;stroke-miterlimit:4"/><path d="M2005.81 1177.05c0 72.558 58.954 131.389 131.672 131.389 72.708 0 131.662-58.826 131.662-131.389s-58.954-131.375-131.662-131.375c-72.722 0-131.672 58.817-131.672 131.375m3956.3 234.121c8.1 131.85 67.588 284.597-115.024 462.102l-6.051 157.062c181.706-91.151 188.649-305.062 214.909-489.278z" style="fill:#ffd200;fill-rule:nonzero;stroke:#000;stroke-width:25.35px;stroke-miterlimit:4"/><path d="M5780.61 1097c-129.859-123.771-170.643-227.346-148.315-365.446 105.179 44.698 162.516 178.051 211.875 326.188-81.196-176.297-45.182-283.791 9.071-380.555 33.887 107.913 86.13 197.187 60.544 365.447-.087-184.798 93.338-270.801 230.044-311.089-18.753 117.794-76.249 253.702-163.45 371.497 110.2-199.697 251.466-170.953 369.274-181.218-65.178 144.51-202.471 195.1-329.929 238.604 147.281-51.259 290.998-95.424 390.45 36.238-164.953 88.181-289.891 57.1-408.614 42.289 163.226 14.128 309.846 51.496 366.239 205.378-160.492 3.726-277.239-65.415-396.513-169.126 141.64 99.912 191.099 225.756 184.634 374.517-120.687-102.942-218.399-212.448-227.009-347.327 62.234 220.849 19.549 330.848-54.48 407.735-65.451-141.527-23.464-258.414-30.27-410.752-1.353 219.01-111.803 265.658-205.838 338.271 37.641-126.564 10.415-215.146 154.378-362.44-211.278 251.903-268.031 176.188-357.168 169.14 90.294-125.585 199.027-178.885 320.835-211.415-102.56 20.94-222.7 78.24-357.169-48.329 104.395-53.92 216.973-81.93 354.148-30.211-170.183-38.611-262.414-104.445-311.764-199.327 129.526-35.154 213.118 16.839 338.999 141.95l.028-.014z" style="fill:#f1ede5;fill-rule:nonzero;stroke:#000;stroke-width:25.35px;stroke-miterlimit:4"/><path d="M6016.65 1177.05c0 72.558-58.954 131.389-131.663 131.389-72.722 0-131.671-58.826-131.671-131.389s58.954-131.375 131.671-131.375c72.709 0 131.663 58.817 131.663 131.375" style="fill:#ffd200;fill-rule:nonzero;stroke:#000;stroke-width:25.35px;stroke-miterlimit:4"/><path d="m943.55 6926.17 170.506 471.153a1123 1123 0 0 1 20.184 58.743q9.339 29.824 17.171 56.936 7.833 27.112 13.857 50.007 6.026 22.896 9.038 39.163c3.213-14.862 17.774-86.459 21.991-106.341a7290 7290 0 0 1 13.255-61.154 2776 2776 0 0 1 14.159-60.852l65.069-266.303q1.808-7.23 3.917-16.87a806 806 0 0 0 3.916-18.979q1.808-9.339 2.711-17.472.904-8.135.904-12.954 0-31.932-18.979-45.187t-59.948-13.255h-28.318v-65.07h321.734v65.07h-23.498q-18.075 0-31.932 3.615t-24.702 14.158-19.581 29.221q-8.737 18.678-17.172 49.405l-191.594 719.382h-140.382l-207.259-579-177.736 579H527.827L301.89 7048.477q-5.422-19.28-13.255-31.933-7.832-12.651-18.376-20.183-10.543-7.532-24.1-10.544-13.556-3.012-31.631-3.012h-16.267v-65.07h412.108v65.07h-28.318q-37.355 0-55.731 14.46t-18.376 45.187q0 10.242 3.916 29.823 3.916 19.582 8.737 36.452l82.542 284.981a7774 7774 0 0 1 14.158 50.911 1596 1596 0 0 1 14.159 55.429q6.627 28.017 12.05 53.924t7.832 45.79q8.436-39.765 18.377-74.409a6141 6141 0 0 1 20.786-70.793l162.674-528.39zm1070.64 786.26q45.188 0 80.433-10.544 35.247-10.544 62.961-27.414 27.715-16.87 48.501-37.957 20.787-21.088 36.451-41.572 9.64 7.23 15.364 22.292t5.724 30.727q0 25.908-13.858 54.526-13.857 28.62-46.392 52.719-32.535 24.1-86.157 39.765t-132.549 15.665q-107.245 0-187.377-32.535-80.131-32.535-133.152-92.182-53.019-59.647-79.53-143.395-26.51-83.746-26.509-185.569 0-100.014 27.112-183.159t80.433-142.792 133.152-92.784 184.666-33.137q71.094 0 123.813 11.146 52.718 11.146 87.663 30.426t52.417 45.488q17.473 26.21 17.473 56.334 0 22.895-9.942 42.476-9.94 19.581-29.522 34.041-19.581 14.46-48.501 22.594-28.92 8.133-66.275 8.133 0-30.727-6.627-61.153-6.628-30.426-22.594-55.129t-41.873-40.066-64.467-15.363q-58.443 0-98.81 24.702t-64.768 72.3q-24.402 47.597-35.246 117.185-10.845 69.59-10.845 158.758 0 89.17 13.255 156.047 13.254 66.877 42.777 111.161 29.522 44.283 76.818 66.275 47.296 21.99 115.981 21.991m1201.98-729.63h-53.02q-12.652 0-24.1 2.711t-20.184 11.146-13.556 24.1-4.82 42.175v481.395q0 62.057-17.774 111.462-17.773 49.404-55.429 83.747t-96.099 52.719q-58.441 18.376-139.176 18.376t-144.298-15.364q-63.564-15.363-107.546-49.104t-67.179-87.06q-23.196-53.322-23.196-129.236v-471.755q0-24.702-5.121-39.464t-13.857-22.593q-8.737-7.833-19.883-10.544t-23.798-2.711h-53.02v-65.07h425.363v65.07h-51.815q-12.652 0-24.1 2.711-11.447 2.711-20.183 11.146t-13.557 24.1-4.82 42.175v476.575q0 51.814 12.954 87.061 12.954 35.245 37.054 56.635 24.1 21.388 57.839 30.727 33.74 9.339 75.915 9.339 40.97 0 74.107-10.544t56.334-32.836 35.848-56.635q12.653-34.342 12.653-81.337v-483.805q0-24.702-4.82-39.464t-13.557-22.593q-8.736-7.833-20.183-10.544-11.448-2.712-24.1-2.711h-51.815v-65.07h322.939zm507.31 525.98-35.547 106.039q-4.82 15.063-9.941 35.246-5.121 20.184-5.121 35.246 0 12.05 4.82 21.088t12.652 14.761 17.774 8.736q9.94 3.012 20.786 3.013h51.815v65.672h-321.131v-65.672h15.062q16.267 0 29.824-3.615 13.556-3.615 25.305-13.557 11.748-9.94 22.292-27.413t21.389-45.188l267.508-725.406h169.302l257.869 726.611q9.037 25.908 18.978 43.079t21.69 27.112 25.004 14.159 27.715 4.218h22.292v65.672h-407.288v-65.672h48.2q9.038 0 18.677-2.712 9.64-2.71 17.171-8.435 7.531-5.723 12.352-14.761 4.82-9.038 4.82-21.69 0-15.061-3.615-28.92-3.615-13.857-7.23-24.099l-43.38-123.512zm210.272-277.752a3258 3258 0 0 1-13.556-44.283 4783 4783 0 0 1-13.858-47.296 2474 2474 0 0 1-13.255-47.899q-6.326-23.798-11.146-45.488-5.422 18.677-12.652 40.97a2466 2466 0 0 1-15.364 45.789l-16.267 46.995a4155 4155 0 0 0-15.364 45.187l-72.902 208.464h249.434zm561.308 569.412v-55.569h43.844q11.725 0 21.411-2.294t16.824-9.432q7.137-7.137 11.216-20.392t4.078-35.686v-499.1q0-22.43-4.078-35.686t-11.216-20.392q-7.137-7.137-16.824-9.432-9.686-2.294-21.411-2.294h-43.844v-55.059h360.433v55.059h-43.844q-10.705 0-20.647 2.294-9.94 2.295-17.078 8.922-7.137 6.627-11.471 19.118-4.333 12.49-4.333 33.392v562.825h194.236q36.705 0 57.098-23.196t29.568-67.549l16.824-78.51h58.628l-7.647 232.981zm1416.75-690.28h-44.863q-10.705 0-20.392 2.294t-17.078 9.432q-7.393 7.137-11.471 20.392t-4.079 35.686v407.335q0 52.509-15.039 94.314-15.039 41.803-46.902 70.863-31.862 29.059-81.314 44.608-49.45 15.549-117.765 15.549-68.314 0-122.098-13t-91-41.549q-37.216-28.55-56.844-73.667-19.627-45.118-19.627-109.354v-399.177q0-20.902-4.334-33.392-4.332-12.49-11.725-19.118t-16.824-8.922-20.137-2.294h-44.863v-55.059h359.923v55.059h-43.844q-10.705 0-20.392 2.294t-17.078 9.432q-7.392 7.137-11.471 20.392t-4.078 35.686v403.256q0 43.844 10.961 73.667 10.96 29.824 31.353 47.922 20.391 18.098 48.941 26 28.549 7.902 64.235 7.902 34.666 0 62.706-8.922 28.04-8.921 47.667-27.784t30.334-47.922q10.705-29.059 10.705-68.823v-409.374q0-20.902-4.078-33.392t-11.471-19.118q-7.392-6.627-17.078-8.922-9.687-2.294-20.392-2.294h-43.844v-55.059h273.256zm647.46 690.28v-55.569h10.196q16.314 0 28.804-2.039t20.647-8.157 12.235-17.589q4.079-11.47 4.079-30.333v-528.668l-210.55 642.355h-70.863l-220.745-642.355v518.982q0 22.43 5.353 35.686t15.294 20.392q9.94 7.137 24.215 9.432 14.275 2.294 32.628 2.294h6.118v55.569H5957.7v-55.569h43.843q11.215 0 20.902-2.039 9.686-2.04 17.078-8.412t11.471-18.863q4.078-12.49 4.078-32.882v-508.786q0-20.902-4.078-33.392t-11.471-19.118q-7.392-6.627-17.078-8.922-9.687-2.294-20.902-2.294H5957.7v-55.059h300.785l173.333 504.198 166.197-504.198h295.177v55.059h-43.843q-11.216 0-20.902 2.294t-16.824 9.432q-7.137 7.137-11.215 20.392t-4.079 35.686v499.1q0 22.43 4.079 35.686t11.215 20.392q7.138 7.137 16.824 9.432 9.686 2.294 20.902 2.294h43.843v55.569zm975.25 0-407.334-575.061v451.688q0 22.43 4.333 35.686t11.471 20.392q7.137 7.137 17.078 9.432 9.942 2.294 20.647 2.294h43.844v55.569h-272.746v-55.569h43.843q11.215 0 20.902-2.294 9.686-2.295 17.079-9.432 7.392-7.137 11.47-20.392t4.079-35.686v-503.178q0-20.902-4.334-33.392t-11.725-19.118q-7.392-6.627-17.079-8.922-9.686-2.294-20.392-2.294h-43.843v-55.059h231.961l368.589 521.021v-402.236q0-20.902-4.333-33.392t-11.726-19.118q-7.391-6.627-17.078-8.922-9.687-2.294-20.392-2.294h-43.843v-55.059h272.745v55.059h-43.843q-10.706 0-20.392 2.294t-17.079 9.432q-7.392 7.137-11.47 20.392t-4.079 35.686v622.473zm240.12 0v-55.569h43.844q11.725 0 21.411-2.294t16.824-9.432q7.137-7.137 11.216-20.392t4.078-35.686v-498.59q0-22.432-4.078-35.686t-11.216-20.392q-7.137-7.138-16.824-9.432-9.686-2.294-21.411-2.294h-43.844v-55.569h360.433v55.569h-43.844q-11.216 0-21.156 2.294-9.942 2.294-17.079 9.432-7.137 7.137-11.216 20.392t-4.078 35.686v498.59q0 22.43 4.078 35.686t11.216 20.392q7.137 7.137 17.079 9.432 9.94 2.294 21.156 2.294h43.844v55.569z" style="fill-rule:nonzero"/></svg>