<?xml version="1.0" encoding="UTF-8" standalone="no"?><!DOCTYPE svg PUBLIC "-//W3C//DTD SVG 1.1//EN" "http://www.w3.org/Graphics/SVG/1.1/DTD/svg11.dtd"><svg width="100%" height="100%" viewBox="0 0 1905 525" version="1.1" xmlns="http://www.w3.org/2000/svg" xmlns:xlink="http://www.w3.org/1999/xlink" xml:space="preserve" xmlns:serif="http://www.serif.com/" style="fill-rule:evenodd;clip-rule:evenodd;stroke-linecap:round;stroke-linejoin:round;stroke-miterlimit:1.5;"><g id="Text"><text x="705.871px" y="400.858px" style="font-family:'TimesNewRomanPSMT', 'Times New Roman', serif;font-size:166.667px;fill:#fff;">UNIVERSITY</text><text x="716.615px" y="485.023px" style="font-family:'TimesNewRomanPSMT', 'Times New Roman', serif;font-size:66.667px;fill:#fff;">A<tspan x="761.081px 777.748px " y="485.023px 485.023px "> D</tspan>AISY<tspan x="978.985px 995.651px " y="485.023px 485.023px "> L</tspan>EAGUE UNIVERSITY</text><text x="1190.18px" y="218.212px" style="font-family:'TimesNewRomanPS-BoldMT', 'Times New Roman', serif;font-weight:700;font-size:166.667px;fill:#fff;">HICKEN</text><text x="502.183px" y="218.212px" style="font-family:'TimesNewRomanPS-BoldMT', 'Times New Roman', serif;font-weight:700;font-size:200px;fill:#fff;">W</text><g transform="matrix(166.667,0,0,166.667,998.57,218.212)"></g><text x="702.183px" y="218.212px" style="font-family:'TimesNewRomanPS-BoldMT', 'Times New Roman', serif;font-weight:700;font-size:166.667px;fill:#fff;">ILD</text><g transform="matrix(200,0,0,200,1190.03,218.212)"></g><text x="1045.6px" y="218.212px" style="font-family:'TimesNewRomanPS-BoldMT', 'Times New Roman', serif;font-weight:700;font-size:200px;fill:#fff;">C</text></g><path d="M454.263,252.906l-0,-249.134l-445.044,-0l-0,249.134c12.518,119.268 89.902,200.426 222.521,249.135c132.619,-48.709 210.003,-129.867 222.523,-249.135" style="fill:#fff;stroke:#000;stroke-width:4.19px;"/><path d="M9.219,139.152c0.838,0.834 -0,-134.67 -0,-134.67l445.044,-0l-0,134.67" style="fill:#a51c21;fill-rule:nonzero;stroke:#000;stroke-width:4.19px;stroke-linecap:butt;stroke-miterlimit:2;"/><path d="M9.219,139.156l445.044,-0.711" style="fill:none;stroke:#000;stroke-width:4.19px;"/><path d="M386.653,180.197c0.419,0.418 0.838,0.837 0.838,0.837c0,-0.837 0.42,-2.094 -0.419,-2.933c-0.838,-0.419 -1.676,-0 -2.095,0.419c0.419,0.42 1.257,0.838 1.676,1.677m15.087,31.01c-0,-2.514 -0.42,-5.029 -1.677,-7.124c-1.257,-2.096 -2.934,-3.771 -5.029,-5.029c-2.095,-1.257 -4.191,-1.257 -5.448,-3.771c-0.418,-0.419 -0.838,-0.419 -0.418,-1.257c-0,-0.42 0.838,-0.42 1.257,-0c0,-0.839 0.418,-2.934 -0.419,-3.353c0.419,-0.838 -0.42,-3.353 -0.42,-4.61c-0.418,0.42 -0.838,0.42 -1.675,0.838c0.418,-0.838 0.837,-1.257 1.257,-2.095c-0.839,0 -1.257,-0.838 -1.257,-1.677c-2.515,0 -5.029,-4.189 -6.286,-5.866c-0,1.257 -1.677,-0 -2.096,-0.419c-0.419,-0.838 -0.838,-1.676 -1.257,-2.095c-0.838,-0.838 -1.676,-1.677 -2.933,-2.095c-1.677,-1.258 -3.772,-2.515 -5.868,-3.354c-1.675,-0.837 -3.352,-2.095 -4.609,-2.932c0.419,0.837 0.838,1.257 0.838,2.095c-0.419,-0.42 -2.933,-2.934 -3.772,-2.515c-1.257,0.42 0.42,1.677 0.839,2.095c-0.419,-0.418 -5.029,-2.095 -2.514,-0.418c-0.839,-0.42 -2.096,-1.257 -2.515,-0c-1.257,-0.42 -3.353,-0.42 -4.191,-1.257c-0.838,-0.42 -2.095,-1.677 -2.933,-1.677c-0,0.419 0.419,0.838 0.838,1.257c-2.514,-0.838 -5.028,-0.419 -7.543,-0.419l-2.934,-0c-0.837,-0 -1.257,0.839 -1.676,0.839c-5.867,-0 -10.895,1.257 -16.344,2.514c-10.895,2.095 -20.114,8.381 -27.238,16.762c-3.772,4.61 -7.124,9.22 -10.477,14.248c-2.933,3.772 -5.029,7.963 -8.8,11.315c-3.772,3.352 -9.219,5.866 -13.829,7.962c-2.095,0.838 -4.61,2.095 -7.124,2.515c-2.514,0.418 -5.029,-0 -7.543,0.418c-2.515,0.42 -5.867,-1.257 -8.381,-2.095c-2.934,-0.838 -5.868,-1.676 -8.382,-2.095c-5.447,-1.257 -10.895,-2.514 -16.343,-3.353c-6.286,-0.838 -12.153,-1.676 -18.439,-2.514c-5.866,-0.838 -11.734,-1.257 -17.181,-2.933c-10.896,-2.934 -15.505,-13.829 -23.886,-20.115c-4.611,-3.353 -9.639,-5.448 -15.506,-6.286l-4.191,0c-1.257,0 -2.095,-1.677 -2.933,-2.514c-2.096,-2.096 -4.191,-3.772 -6.705,-5.029c-0.838,-0.419 -1.677,-1.257 -2.934,-1.677c-1.675,-0.419 -2.514,0 -3.352,-0.837c-2.095,-2.096 -4.191,-4.191 -6.286,-5.868c-4.191,-3.771 -8.381,-7.124 -13.829,-8.381c-1.257,-0.419 -2.934,-0.419 -4.191,-0.419c-1.257,-0 -2.095,-0.419 -3.352,-0.419c-1.257,0 -1.677,0.838 -2.934,1.258c-1.675,0.418 -3.352,0.418 -5.028,0.837c-5.448,1.258 -7.962,6.286 -7.962,11.734c0,4.19 -0.839,8.381 -0.839,12.572c0,4.61 0.839,9.219 2.096,13.829c-4.61,0.419 -5.448,7.962 -3.353,11.315c-2.514,0.838 -3.772,3.352 -4.19,5.447c0,0.839 0,2.096 0.418,2.934c0.42,0.838 1.258,1.676 1.258,2.514c-0,0.838 -0.838,2.095 -0.838,2.934l-0,4.19c0.419,2.514 1.257,4.61 2.514,6.705c-2.095,0.42 -5.028,0.42 -5.028,2.934c-0.42,2.095 0.837,4.609 0.419,7.124c-0.419,4.609 2.514,9.638 6.704,12.152c0.42,0 1.257,0.42 1.677,0.839l-0,1.675c-0,1.258 -0,2.515 0.419,3.772c0.419,2.096 1.257,4.61 2.515,6.705c2.514,4.191 5.866,7.543 10.475,10.058c0,-0 0.42,-0 0.42,0.419c-1.257,1.676 -1.677,3.772 -2.095,6.286c-0.42,2.933 -0.839,5.447 -0.42,8.381c0.838,5.448 4.61,8.8 9.22,11.734c-0.419,0.418 -0.839,0.838 -1.676,1.676c-0.42,0.419 -1.258,0.838 -1.677,1.257c-0,-0 0.419,0.419 0.419,0.839c-0.419,1.675 0,2.095 1.258,3.771c-1.258,0.838 -2.934,2.933 -0.42,2.933c-0.418,1.257 -2.933,0.839 -2.514,2.514c0.419,1.677 2.096,0.42 3.353,0c-0.839,1.258 -3.772,1.258 -4.191,2.515c-0.838,1.676 1.257,1.676 2.514,1.257c0.42,1.257 -2.933,1.676 -3.352,2.514c-0.419,0.42 0,1.257 0.419,1.257c0.838,0.42 1.257,0 2.096,-0.418c-0.42,0.838 -1.677,1.676 -1.677,2.933l0,0.839c0,0.418 0,0.837 -0.419,1.675c0.419,-0.418 1.257,-0.838 1.676,0c-0.838,0.42 -2.934,3.772 -0.838,2.934c-0.838,-0.419 -0.838,0.838 0.838,1.257c0.838,0 1.257,-0.419 1.677,0c0.418,0.419 0.838,1.257 1.257,1.677c0.838,1.675 1.676,2.932 2.933,4.609c0.419,0.838 1.257,1.257 2.096,2.095c0.837,0.839 0.837,0.839 0.418,2.096c-0.418,1.257 -0.418,3.772 0.419,4.609c0.42,0.42 1.258,0.838 1.677,1.257c0.838,0.42 0.838,0.42 1.676,1.258c0.419,0.419 -0,1.676 0.419,2.095c0.419,0.419 1.257,0.419 2.095,0.419c1.257,0 2.514,0.419 3.772,0c-1.258,0.838 -3.772,2.514 -3.353,4.609c0,1.677 2.515,1.677 3.772,1.258c-0,1.676 0.419,2.096 2.514,2.096c0.838,-0 1.258,-0.839 1.677,-0.839c0.838,-0.419 0.418,-0 1.257,-0c1.676,0.419 2.933,0.839 3.352,2.514c0.42,1.677 0,3.772 0.42,5.448c-0,1.257 -0.839,7.124 1.675,6.706c0.839,-0.42 1.677,-0.839 2.515,-0.839c0.838,-0 2.096,-0.419 2.933,-0.838c-1.257,1.257 -0.837,6.286 1.258,5.867c0.419,-0 1.257,-0.838 1.257,-0.838c0.419,0.419 0.838,0.419 1.257,0.419c0.838,0 1.257,-0.839 2.095,-0.839c-0,0.839 0.419,1.258 1.257,1.258c1.257,-0 2.096,0.419 2.934,1.676c0.419,0.838 0.838,2.095 1.257,2.934c0.838,1.257 2.095,2.514 3.352,3.352c1.257,0.838 2.515,1.677 4.191,2.514c0.838,0.42 0.42,2.515 0.838,3.353c1.257,2.514 4.191,0.838 5.029,-0.838c1.676,2.514 2.933,4.609 5.867,2.934c0.838,2.514 3.772,4.189 5.447,6.285c0.839,1.258 2.096,2.095 3.353,2.515c1.258,0.418 2.933,-0.42 3.772,0.418c1.676,2.096 2.933,4.611 5.867,4.611c2.094,-0 2.514,-2.096 2.514,-3.772c1.257,1.257 1.676,1.676 2.095,3.352c0.419,1.257 0.839,2.934 1.257,4.191c0.839,2.933 0.839,5.447 1.257,8.381c0,5.448 0.42,10.477 -0.838,15.506c-0.419,1.257 0,5.447 -1.257,6.286c-0.419,0.418 -2.934,0.418 -3.771,0.837c-1.257,0.42 -2.934,1.257 -4.191,1.677c-1.257,0.838 -4.19,2.933 -2.515,4.609c1.258,1.257 3.354,-0.419 4.611,-0.419c0.838,-0.419 2.095,-0 2.932,-0c1.258,-0 2.096,-0.419 2.934,0.419c1.257,2.095 3.772,2.515 6.286,2.515c1.677,-0 4.191,1.676 5.867,2.514c2.096,1.257 5.448,1.257 7.543,1.257c2.934,0 5.867,0.42 8.8,0.42l3.772,-0c1.257,-0 1.676,0.837 2.933,1.257c0.838,0.418 2.095,0.837 2.934,0.837c0.838,0 2.095,1.258 3.352,1.677c1.258,0.418 2.095,1.257 2.934,2.095c0.838,0.838 0.838,2.095 1.676,2.514c2.514,2.515 3.353,-1.257 3.771,-3.352c0.42,-2.934 -2.095,-4.61 -4.19,-6.286c3.352,0 6.705,-0.838 9.638,-0.419c2.095,0.419 3.353,1.257 5.029,2.514c0.419,0.42 1.257,0.838 1.677,1.257c0.418,0.42 0.418,1.258 0.837,1.677c1.677,2.095 2.934,-1.677 2.515,-2.934c-0.42,-2.933 -3.772,-5.028 -6.286,-6.705c3.352,0.839 7.124,1.677 9.638,3.353c2.096,1.257 3.353,4.19 5.029,5.867c1.676,2.095 2.933,-0 3.353,-2.095c0.418,-3.353 -0.839,-6.286 -3.772,-7.963c1.676,-0.419 0.419,-3.352 0,-4.191c-1.257,-2.095 -3.771,-3.352 -6.286,-3.771c2.095,-0.838 4.19,-0.419 5.867,0.839c0.838,0.837 1.257,1.257 1.257,2.094c0,0.838 0.838,1.677 1.257,2.095c1.257,0.42 2.515,-0.418 2.934,-1.675c0.418,-1.677 -0.419,-3.353 -0.839,-4.61c-5.447,-8.801 -19.695,-3.353 -27.658,-2.933c-2.514,-0 -4.609,0.418 -7.123,0.418c-2.515,0 -3.353,0 -3.353,-2.514c0,-2.095 0.419,-3.772 0,-5.867c0,-2.095 -0.838,-4.609 -1.676,-6.705c-1.257,-4.609 -2.095,-9.219 -2.934,-13.829c0,-0.838 -0.418,-2.095 -0.418,-2.933c-0,-0.419 -0.42,-1.676 -0,-1.676c0.418,-0.42 0.837,-0 1.257,-0.42c0.418,-0.838 -0.42,-1.675 -0.839,-2.095c-0.418,-1.257 -0.418,-2.095 -0.418,-3.352c0.837,0.838 1.675,1.257 2.514,2.095c0.418,0.838 0.838,2.095 1.676,1.677c-1.258,-2.096 -1.676,-3.772 -2.515,-5.868c0.42,0.419 0.42,0.839 1.257,1.257c-0.837,-1.257 -0.837,-2.514 -1.675,-3.352c-0.42,-0.838 -1.257,-2.514 -0.839,-3.352c1.257,2.514 2.934,5.029 4.191,7.543c0.419,0.838 0.838,1.676 2.095,2.095c0.419,0.419 1.257,0.838 1.677,1.257c-0.42,-0.838 -0.838,-1.257 -0.42,-2.095c0.42,0 1.257,0.419 1.257,0.419c0.42,0.419 0.839,1.257 1.257,1.257c0.839,-0 -0.418,-1.257 -0.418,-1.676c-1.257,-1.676 -2.096,-4.61 -3.353,-6.705l1.257,1.257l0,-0.419c-2.095,-2.095 -2.933,-5.867 -3.771,-8.381c2.096,2.934 4.61,6.286 7.124,8.8c0.838,0.838 3.352,1.677 2.095,-0.419c-1.257,-2.095 -2.514,-4.19 -3.352,-6.286c1.676,2.096 3.352,6.286 6.286,5.867c-0.419,-0.419 -0.839,-1.257 -0.419,-1.676c0.419,0.419 3.352,2.095 2.933,1.257c-0.419,-0.419 0,-0.419 0,-1.257c-0.419,-0.838 -0.838,-1.677 -1.676,-2.515c1.257,1.258 2.934,2.095 4.191,3.353c0.418,0.419 0.838,1.257 1.257,0.419c0.418,-0.419 -0.839,-1.257 -1.257,-1.677l0.418,0.42c-0.838,-1.257 -1.675,-2.095 -2.514,-2.934c-0.419,-0.838 -0.838,-2.095 -1.676,-2.933c-0.839,-0.839 0,-1.257 0.419,-2.096c0.419,-0.418 2.514,0.42 2.933,0.42c2.934,0.419 5.029,-1.258 7.543,-2.095c2.515,-0.839 5.449,-1.677 7.963,-2.515c5.447,-2.096 10.895,-4.191 15.924,-6.286c2.095,-0.838 3.772,-2.514 5.448,-3.353c2.095,-1.257 2.933,-3.352 5.447,-3.771c10.058,-0.838 20.954,-4.61 28.915,-10.896c7.963,-6.286 13.829,-15.086 17.601,-24.305c4.191,-10.476 7.543,-21.373 12.572,-31.43c2.514,-5.029 5.029,-9.638 8.8,-13.829c3.353,-4.19 6.286,-7.543 7.963,-12.572c1.676,-4.609 1.257,-9.638 1.676,-14.247c0.419,-5.448 0,-10.897 0.419,-16.344c0.419,-2.934 0.838,-5.867 1.676,-8.382c0.838,-2.932 2.095,-5.447 3.352,-8.381c0.839,-2.095 0.839,-4.19 0.42,-6.285c-0,-0.42 1.676,-2.095 2.095,-2.515c0.839,-0.419 1.676,0 2.514,-0.419c2.514,-0.419 4.191,-2.515 5.868,-4.19c0.837,-0.839 1.257,-1.677 1.675,-2.096c0.42,-0.838 1.677,-1.257 2.515,-1.676c1.676,-1.257 3.353,-2.096 5.028,-2.933c2.515,-1.258 2.515,-0.838 4.611,-0c1.675,0.837 3.771,1.676 5.447,2.094c2.934,0.839 6.286,-0.418 7.543,2.934c1.257,-1.257 0.839,-1.676 0.839,-2.514m-207.017,190.672c-0,-0.837 -0.419,-1.675 -0.419,-2.514c0.419,0.419 0.838,2.096 0.419,2.514m10.477,-1.257c0.419,1.257 2.095,2.934 1.676,4.191c-0.419,-1.257 -1.676,-1.676 -1.676,-2.514c-0.42,-2.095 -1.258,-3.772 -1.258,-5.867c0.42,1.258 0.838,2.933 1.258,4.19m-0,2.515c-0.838,-0 -0.838,-0.419 -0.838,-1.258c-0,0.42 0.418,0.839 0.838,1.258m2.514,31.429c-0,2.515 -0.838,5.029 -1.257,7.543c-5.448,-8.8 -8.801,-18.857 -8.381,-29.333c1.257,0.418 1.257,1.675 1.675,2.514c0.42,-0.419 0.42,0 0,-0.419c-0.418,-1.257 -0.418,-1.257 -0.418,-2.095c0,-1.677 -0.839,-3.353 -1.257,-5.029c1.257,1.257 1.675,2.933 2.095,4.19c0.838,2.096 1.257,1.677 0.838,-0.418c0.419,0.418 0.838,1.257 1.257,1.675c-0,-0.418 -0.838,-1.675 -0.838,-2.095c0.419,-0.419 0,-0.838 0,-1.257c-0.419,-1.677 -2.095,-4.191 -2.095,-5.867c1.257,2.933 1.676,6.286 3.772,8.381c-1.258,-5.028 -2.096,-10.477 -2.934,-15.505c0.419,1.676 1.257,2.933 1.676,4.191c0.419,1.257 0.838,2.095 0.838,2.933c0.42,3.353 1.677,6.705 2.095,10.058c2.096,6.704 2.934,13.829 2.934,20.533m0.419,-32.687c0,-0.418 0,0 0,0m44.42,48.612l-0.418,-0.419c-0,0.419 0.418,0.419 0.418,0.419m95.128,-279.514c0.418,0 0.418,0 0.838,0.419c-0.42,0 -0.838,-0.419 -0.838,-0.419m36.876,26.401c0,-0 -0.418,0.419 0,-0c0,-0 0.42,-0 0,-0c0.42,-0 0.42,-0 0,-0"/><path d="M387.072,178.101c0.419,-1.257 -0.838,-3.352 -1.676,-1.676c-0.419,-0.419 0,-1.257 -0.839,-1.676c-0.837,-0.838 -1.675,0.419 -1.675,1.676c-2.514,-2.096 -2.934,-2.096 -3.772,0.838c0,0.838 0.419,1.257 0.419,2.095c-0,1.676 0.839,2.934 1.676,4.191c1.257,2.095 2.934,5.029 1.677,7.543c-0.42,0.838 -1.257,1.677 -2.096,2.095c-0.838,0.419 -2.095,1.257 -1.257,2.096c-3.772,0.418 -5.867,-5.868 -7.962,-7.963c-1.676,-1.676 -3.771,-2.095 -5.867,-2.514c-0,0 -0,-0.419 -0.419,-0.419c-0.419,-0 -0.838,-0 -1.676,0.419c-0.838,0.419 -1.257,0.419 -2.515,0.419c-2.514,0 -4.609,0.838 -7.123,1.258c-1.677,0.418 -2.096,0.837 -1.258,1.675c0.838,0.839 1.676,1.257 2.095,2.515c0.42,1.257 0.42,2.514 0.838,3.771c0.42,0.42 0.42,0.839 0.839,0.839c0.838,-0 0.838,2.095 0.418,2.095c0,-0.42 -1.257,-0.838 -1.675,-0.42c-0.42,0.42 0.418,0.42 0.418,0.839l0,2.095c-1.257,-0.419 -2.933,-0.419 -4.19,-0.838c-1.257,0 -1.676,-0.419 -2.933,-0.838l-1.258,-0c-0.419,-0.419 -0.837,-1.258 -1.257,-2.095c-0.419,-0.838 -1.257,-1.257 -1.257,-2.515c0.838,0.42 1.257,0.838 2.095,0.838c-0.418,-0.418 -1.257,-0.838 -1.676,-1.675c-0.419,-0.42 0,-1.258 -0.838,-1.677c-2.095,-0.838 -1.258,5.029 -1.676,5.866c-0.419,0.42 -1.257,0.839 -1.677,1.677c0,0.419 0,0.838 -0.419,1.257c0,0.42 -0.418,1.677 0,1.677c0,-0 0.419,-0.839 0.839,-0.839c-0.839,0.839 -0.42,4.61 -0,6.286c0.418,2.096 1.675,3.353 2.514,5.448c0.419,0.838 1.257,1.257 2.095,2.095c0.838,0.839 0.838,2.096 1.257,3.353c0.42,2.095 0.838,4.61 2.095,6.705c0.839,0.838 2.096,-0 2.515,-0.419c1.257,-1.257 0.838,-2.934 1.676,-4.191c2.934,-4.609 8.801,-7.543 13.41,-9.638c1.257,-0.419 2.514,-1.257 3.771,-1.257c-5.447,2.933 -11.314,5.029 -15.504,9.638c-2.096,2.095 0.838,2.095 2.514,2.934c0.838,0.418 1.257,-0 1.676,0.838c0.419,0.837 2.514,-0.42 2.934,-0.838c-0,0.418 -1.258,2.514 -1.258,2.933c0.838,0.838 3.353,-3.353 3.772,-3.772c1.677,-1.257 4.191,-1.257 5.866,-2.095c1.258,-0.838 2.515,-2.095 3.354,-3.772c0.418,-0.837 0.418,-1.676 0.837,-2.514c0,-0.419 2.095,-0.838 2.515,-1.257c1.676,-0.838 -0.42,-1.677 -0.838,-2.095c-1.257,-1.257 3.772,-3.353 4.609,-3.353c2.095,-0.419 4.61,0.419 7.124,-0c0.419,-0 0.419,0.419 0.839,-0c0.418,-0.419 -0,-0.419 -0,-0.838c-0,-0 -0.42,-0 -0.42,-0.419l0.838,-0c0.42,-0.419 0.839,-0.419 0,-0.838c-1.257,-0.42 -3.352,-0 -4.609,-0c-2.514,-0 -4.609,-0.838 -7.124,-0.42c-2.934,0 -5.448,0 -8.382,0.42l0,-0.838c1.677,-0.839 3.353,-1.677 5.029,-1.677c0.839,0 0.839,-0.419 1.677,-0.419c0.837,0 1.676,-0.418 2.514,0c1.257,0 4.191,2.934 5.448,1.257c0.838,-0.838 0.838,-1.257 0.418,-2.514c1.258,0.839 0.42,-0.419 0.839,-0.838c0.419,-0.838 0,-0.838 0.419,-1.257c0.419,-0.42 1.676,-0.42 2.096,-0c0.837,-0 2.514,1.676 2.932,0.419c0,-0.419 -0.418,-0.839 -0.418,-1.257c2.095,0 2.514,-0.419 0.838,-2.096c-0,0 -1.257,0 -0.838,-0.418c0.418,-0.42 0.418,-0.42 0.418,-0.839c0,-1.257 -1.675,-0.838 -0.418,-2.514c1.257,-1.676 1.676,-2.095 0.838,-4.19c-0.42,-0.839 0.838,-3.354 -0.838,-2.934c0.418,-0.838 1.257,-2.515 0.838,-3.352c-0.42,-1.257 -1.257,-0.42 -2.095,0.418c-1.257,1.677 -1.257,0.839 -0.839,-0.838c0,-0.837 0,-1.676 -1.257,-1.676m-22.629,7.543c2.933,0.419 5.448,1.676 7.543,4.191c-0,0.419 -0.419,-0 -0.838,0.419c-0.42,0.419 -0.838,0 -0.838,0.419c0,0.419 0,1.257 -0.419,1.676c-1.258,1.257 -2.515,2.095 -4.61,2.095c-1.676,0 -3.353,-1.257 -4.191,-2.514c-0.837,-1.257 -0.837,-2.933 -2.095,-3.772c0.838,-0.418 1.258,-0.838 1.676,-1.257c1.257,-0.838 2.514,-0.838 4.191,-0.418c1.257,0.418 2.095,0.837 2.934,1.675c0.837,0.42 0.837,1.257 2.095,1.257c0.419,-1.675 -3.772,-3.352 -5.448,-3.771m-5.448,4.61c0.838,3.352 4.19,6.286 7.962,5.867c1.676,-0.42 3.771,-0.838 5.029,-2.095c-1.676,2.095 -4.19,2.932 -6.705,2.932c-2.096,0 -3.353,-0.837 -4.61,-2.094c-0.838,-0.838 -2.514,-3.772 -1.676,-4.61Zm19.696,14.667c-2.514,-0 -5.448,0.838 -7.963,1.257c-1.257,0.42 -3.771,1.257 -4.609,0.42c1.257,-0.42 2.095,-1.258 3.352,-1.677c0,1.257 2.934,-0 3.353,-0c2.095,-0.419 4.19,-0.419 5.867,-0m-27.239,10.895c0,-0.418 0,-0.418 0,0m0.838,5.029c0,0.419 0,0.419 0,-0" style="fill:#a51c21;"/><path d="M364.024,187.32c-3.771,1.258 -2.096,7.544 2.095,7.544c4.609,-0.42 2.514,-8.381 -2.095,-7.544m0.838,5.867c-2.934,-1.257 -1.257,-5.447 1.257,-4.19c1.677,1.257 0.838,4.609 -1.257,4.19" style="fill:#fc3;"/><path d="M228.154,41.716c1.493,0.038 -0.533,1.71 -1.848,2.101c-2.533,1.464 -6.039,2.427 -8.244,4.123c8.573,0.51 17.393,2.151 25.852,4.883c15.54,5.018 30.295,12.562 43.119,15.394c3.629,0.005 6.557,0.723 9.837,0.323c2.654,-0.324 5.502,0.111 8.172,0.168c2.809,0.048 4.834,2.759 5.427,5.287c0.366,2.504 -0.178,6.851 -1.693,8.412c-3.258,2.772 -9.045,1.979 -12.916,3.727c-4.415,1.995 -8.939,3.627 -13.563,4.946c-7.747,1.986 -15.623,3.498 -23.211,6.078c-7.072,2.092 -14.024,4.676 -21.252,6.192c-4.825,0.735 -9.748,0.518 -14.609,0.356c-8.035,-0.695 -15.953,-2.526 -23.666,-4.849c-1.301,-0.71 -2.7,-1.268 -4.157,-1.517c-0.759,-0.055 -0.493,-1.463 -0.959,-1.21c-3.389,1.635 -7.217,0.454 -10.737,-0.006c-4.024,-0.822 -8.175,-1.493 -11.916,-3.251c-1.52,-1.677 -4.431,-4.021 -7.117,-4.798c-1.684,-0.818 -3.83,0.629 -5.227,-0.814c-1.78,-0.35 -3.611,-0.787 -5.272,-1.579c-0.814,-0.259 -1.577,-0.948 -2.322,-1.151c-3.279,0.372 -6.459,0.444 -9.466,0.088c-1.214,1.625 -3.503,1.114 -4.954,0.122c-1.432,-0.777 -3.462,-2.359 -2.517,-4.19c1.161,-1.402 3.277,-1.126 4.891,-1.581c2.176,-0.534 4.396,-0.337 6.566,0.097c1.873,0.265 3.785,0.249 5.685,0.521c-6.104,-4.973 -10.543,-11.775 -17.081,-16.245c-1.459,-1.115 -4.154,-1.626 -5.274,0.167c0.015,0.97 1.463,4.339 0.042,4.402c-1.525,-0.115 -2.981,-3.873 -3.409,-5.064c-0.603,-2.726 1.993,-4.707 4.26,-5.534c1.938,-0.604 4.155,-0.648 6.081,0.017c1.291,0.579 2.668,1.232 3.767,2.038c0.216,-1.76 2.365,-2.118 3.596,-2.981c5.996,-2.975 12.365,-5.123 18.656,-7.378c6.027,-1.996 12.477,-1.679 18.716,-2.377c6.708,-0.405 13.57,-1.605 20.217,-0.052c3.663,0.412 7.36,0.313 11.039,0.465c4.021,-2.468 10.348,-4.368 14.99,-5.307c0.163,-0.021 0.327,-0.039 0.492,-0.03l0.005,0.007Zm-58.801,11.409c-4.069,-0.205 -7.481,3.648 -7.775,7.536c-0.339,3.152 1.716,6.434 4.872,7.148c2.922,0.874 6.434,0.289 8.338,-2.276c2.95,-3.34 2.086,-9.103 -1.729,-11.426c-1.111,-0.729 -2.373,-1.112 -3.712,-0.989l0.006,0.007Z" style="fill:#fff;fill-rule:nonzero;"/><path d="M334.265,47.884c-2.231,3.066 -3.137,7.504 -6.176,9.805c-0.541,0.099 -0,0.654 -0.161,1.025c-0.183,2.129 -1.14,3.661 -2.744,5.071c-0.479,0.168 -0.546,0.275 -0.177,0.651c0.991,1.934 1.29,4.321 0.305,6.322c-0.212,0.519 -0.482,1.032 -0.896,1.418c0.938,0.453 -0.021,1.256 0.136,2.134c0.103,1.754 -0.061,3.711 -1.255,5.098c0.963,0.508 1.077,1.771 1.317,2.733c0.381,2.024 -0.046,4.132 -0.787,6.025c-0.219,0.455 -0.45,0.942 -0.884,1.235c1.054,0.694 1.694,1.91 2.117,3.082c0.395,1.202 0.522,2.62 -0.151,3.748c0.926,0.202 1.221,1.271 1.683,1.992c0.559,1.182 0.984,2.666 0.368,3.902c-0.737,1.014 -2.09,0.453 -3.08,0.244c-3.983,-0.961 -6.856,-4.315 -10.257,-6.44c-2.953,-1.867 -5.946,-3.565 -8.872,-5.475c-2.172,-1.393 -4.805,-2.34 -7.331,-2.897c-0.859,-0.048 -2.249,0.505 -1.785,-0.364c0.456,-0.899 -0.587,-0.913 0.204,-1.369c4.069,-0.474 9.089,-1.611 10.596,-2.342c2.505,-1.217 2.28,-1.055 2.946,-3.76c1.301,-2.639 -0.455,-10.111 -3.145,-9.765c-1.502,-0.555 -4.988,-1.14 -12.409,-1.818c6.101,-4.071 12.226,-7.102 18.395,-11.282c4.894,-3.093 9.073,-6.921 14.196,-9.668c4.17,-2.95 6.774,-1.212 7.846,0.697l0.001,-0.002Zm-80.04,-4.664c-2.521,4.249 -1.349,6.797 3.388,7.236c-2.51,2.243 -2.477,3.416 -0.633,7.237c-12.664,-4.857 -25.498,-8.693 -38.824,-9.58c0.363,-1.116 1.52,-0.956 2.373,-1.702c4.964,-3.425 10.726,-5.814 16.777,-6.278c3.766,-0.398 7.505,-1.156 11.273,-1.559c-1.643,2.935 1.614,5.923 5.645,4.645l0.001,0.001Zm-91.391,45.945c1.023,0.182 1.672,1.125 2.444,1.744c1.265,1.222 1.853,2.942 2.765,4.414c0.662,-0.629 1.604,-0.151 2.062,0.479c3.468,3.652 6.886,7.328 10.546,10.775c-2.588,-3.729 -4.759,-7.74 -7.551,-11.324c-0.648,-0.614 -0.644,-1.825 0.266,-2.185c0.196,-0.073 0.433,-0.111 0.645,-0.074c1.596,0.438 3.218,0.887 4.794,1.397c0.652,0.348 1.075,1.002 1.629,1.479c0.261,-0.804 1.244,-0.946 1.937,-0.639c2.865,0.675 5.91,0.933 8.813,1.628c0.455,0.116 0.905,0.242 1.355,0.375c0.44,-0.966 1.654,-0.634 2.476,-0.506c1.474,0.286 3.036,0.688 4.192,1.691c0.498,0.688 1.166,1.47 1.097,2.35c-0.196,1.152 -1.613,0.997 -2.372,1.597c-0.979,0.546 -1.708,1.63 -1.456,2.781c0.062,1.181 1.084,1.971 1.572,2.96c0.19,0.971 -0.777,1.377 -1.393,1.884c-1.337,1.008 -1.808,2.987 -0.874,4.423c0.513,0.684 0.515,1.839 -0.377,2.201c-0.977,0.295 -1.939,-0.347 -2.875,-0.569c-1.778,-0.557 -3.452,-1.384 -5.002,-2.401c0.024,0.557 -0.313,1.147 -0.739,1.513c-1.02,0.863 -1.426,2.329 -0.891,3.569c0.363,0.708 0.394,1.766 -0.463,2.124c-1.039,0.344 -1.937,-0.554 -2.854,-0.905c-3.884,-1.95 -7.048,-5.175 -9.092,-8.996c-3.645,-6.421 -7.896,-12.489 -11.336,-19.028c-0.383,-0.722 -0.968,-1.777 -0.159,-2.437c0.184,-0.279 0.538,-0.25 0.824,-0.321l0.017,0.001Zm104.15,5.237l0.378,0.014c1.258,0.766 2.295,2.113 2.493,3.595c0.003,1.129 -1.237,1.337 -2.083,1.351c-1.732,0.124 -3.45,0.762 -4.589,2.119c-0.95,1.014 -2.454,0.756 -3.612,1.384c-1.401,0.582 -2.283,1.943 -2.874,3.267c-0.761,1.033 -2.315,0.307 -3.258,1.137c-1.594,1.03 -1.705,3.06 -2.053,4.737c-0.376,1.011 -1.575,1.331 -2.062,2.295c-0.969,1.242 -1.337,2.944 -0.845,4.447c0.004,1.232 -1.54,1.528 -2.367,0.86c-5.043,-2.634 -9.278,-6.589 -12.919,-10.913c-0.837,-1.198 -1.854,-2.316 -2.447,-3.658c-0.22,-1.113 0.928,-1.621 1.851,-1.543c2.476,-0.079 4.919,-0.563 7.356,-0.901c1.017,0.616 1.008,-0.299 1.963,-0.569c2.829,-0.772 5.619,-1.713 8.424,-2.529c0.789,0.297 0.969,-0.39 1.688,-0.61c2.282,-0.758 4.553,-1.576 6.851,-2.248c0.782,0.337 1.029,-0.604 1.838,-0.609c2.071,-0.595 4.153,-1.272 6.267,-1.626Z" style="fill:#fff;fill-rule:nonzero;"/><path d="M132.499,61.651c1.725,0.034 3.147,1.168 4.373,2.264c1.217,1.114 2.447,2.211 3.69,3.295c3.781,3.56 7.24,7.425 10.9,11.121c0.527,0.542 0.391,1.56 -0.321,1.881c-0.564,0.274 -1.215,0.074 -1.818,0.077c-1.943,-0.167 -3.869,-0.519 -5.768,-0.954c-1.064,-0.372 -2.008,-1.014 -2.973,-1.587c-6.594,-3.696 -11.901,-12.104 -11.612,-13.036c-0.178,-1.001 0.389,-2.023 1.28,-2.482c0.678,-0.396 1.459,-0.62 2.238,-0.586l0.011,0.007Z" style="fill:#fff;fill-rule:nonzero;"/><path d="M235.301,41.355c-6.811,0.793 -10.353,2.887 -15.551,6.023c20.1,1.112 34.084,8.261 49.055,14.307c6.64,2.684 13.282,4.967 18.749,5.513c7.246,0.86 11.003,0.129 18.296,2.593c-6.619,-0.423 -12.438,-0.685 -18.657,-1.053c-6.646,-1.016 -13.12,-3.245 -19.023,-5.628c-18.545,-7.495 -32.152,-13.154 -51.063,-14.645c-0.554,0.544 -1.835,0.531 -2.388,0.208c1.024,0.092 2.013,-0.63 2.698,-1.119c3.467,-2.696 7.177,-3.718 10.655,-5.311c-5.505,0.809 -11.272,3.285 -15.127,5.903l-11.191,-0.337l-0.139,-0.04c-4.123,-1.205 -7.909,-1.061 -12.192,-0.682c-6.818,0.606 -13.644,1.076 -20.461,1.614c-3.919,0.309 -7.694,1.914 -11.544,3.347c-6.166,2.295 -12.452,4.408 -17.121,7.907l-0.564,0.106l-0.407,-0.235c-2.054,-1.186 -3.615,-1.805 -4.956,-1.986c-1.342,-0.183 -2.494,0.04 -3.893,0.671l-0.007,0.003l-0.004,0c-1.277,0.563 -2.091,1.19 -2.563,1.809c-0.471,0.617 -0.636,1.223 -0.589,1.94c0.093,1.434 1.231,3.328 3.056,5.307c3.65,3.957 9.115,8.774 14.379,11.112l-1.082,0.592c-0.45,-0.297 -0.784,0.218 -1.265,-0.103c-4.32,-2.878 -9.775,-6.664 -13.29,-10.442c-1.953,-2.1 -3.367,-4.203 -3.506,-6.354c-0.07,-1.075 0.23,-2.157 0.933,-3.079c0.702,-0.92 1.77,-1.685 3.221,-2.324l0.005,-0c1.594,-0.72 3.146,-1.034 4.816,-0.808c1.535,0.208 3.201,0.956 5.119,2.019c5.304,-2.786 10.987,-5.444 17.105,-7.721c3.797,-1.407 7.713,-3.104 12.002,-3.443l20.405,-1.609c4.558,-0.359 9.067,-0.526 12.603,0.706l10.427,0.358c9.323,-4.237 16.336,-5.959 24.62,-6.55l-1.561,1.431Z"/><path d="M139.755,58.312c7.151,5.414 9.652,11.649 15.962,15.294c-7.428,-3.106 -12.132,-10.942 -17.115,-14.252l1.153,-1.042Z"/><path d="M140.298,66.246c4.468,4.169 8.049,8.978 12.404,12.555c1.559,1.257 3.135,2.228 5.356,2.155c-1.511,1.165 -4.963,0.281 -6.386,-0.775c-4.09,-3.978 -8.36,-8.938 -12.506,-12.668c-2.933,-2.238 -5.442,-6.17 -8.526,-4.153c-2.875,1.891 6.769,10.006 10.968,12.96c-3.837,-1.529 -10.709,-8.226 -11.711,-9.657c-1.631,-2.333 -2.044,-3.528 -0.102,-4.772c3.72,-2.384 7.776,1.951 10.493,4.349l0.01,0.006Z"/><path d="M227.765,103.505c0.74,0.047 1.506,-0.069 2.225,0.119c0.63,0.299 0.875,1.015 1.297,1.53c1.568,2.266 3.257,4.458 5.211,6.407c0.458,0.408 0.78,1.035 0.508,1.629c-0.282,0.724 -1.035,0.598 -1.626,0.128c-2.76,-1.801 -5.327,-3.86 -7.54,-6.279c-0.5,-0.617 -1.077,-1.184 -1.484,-1.866c-0.297,-0.668 0.145,-1.501 0.861,-1.635c0.181,-0.04 0.368,-0.023 0.553,-0.026l-0.005,-0.007Z" style="fill:#ac93a7;fill-rule:nonzero;"/><path d="M170.382,90.979c3.13,3.52 5.801,7.285 8.244,11.299c0.356,0.608 0.765,1.19 1.08,1.818c0.286,0.618 -0.1,1.422 -0.758,1.592c-0.533,0.185 -1.084,-0.109 -1.438,-0.503c-2.516,-2.487 -4.76,-5.229 -7.114,-7.867c-1.852,-2.089 -3.775,-4.129 -5.91,-5.933c-0.714,-0.604 -1.502,-1.183 -2.301,-1.709c0.736,1.481 1.551,2.92 2.393,4.341c2.28,3.869 4.602,7.714 6.983,11.522c0.331,0.576 0.081,1.396 -0.537,1.66c-0.526,0.273 -0.787,-0.157 -1.138,-0.61c-2.872,-3.148 -5.415,-6.672 -7.483,-10.398c-1.173,-2.166 -2.077,-4.455 -2.604,-6.875c-0.131,-0.485 -0.605,-0.795 -0.199,-1.131c0.325,-0.287 0.79,-0.36 1.196,-0.219c0.214,0.102 0.388,0.253 0.546,0.42c0.017,-0.141 0.034,-0.28 0.102,-0.41c2.54,-1.199 7.013,1.636 8.946,3.003l-0.008,-0Z" style="fill:#fff;fill-rule:nonzero;"/><path d="M193.436,58.38c5.406,1.384 8.846,7.447 9.449,9.747c4.854,5.774 4.628,16.726 -2.089,20.578c-0.807,2.657 -2.441,5.857 -5.469,7.519c1.663,0.264 3.603,0.877 4.648,1.75c15.953,4.409 23.133,4.282 32.439,4.064c7.644,-0.18 14.795,-2.519 28.247,-6.468c11.528,-3.492 22.514,-7.108 33.228,-9.524c6.428,-1.379 7.97,-1.006 13.643,-3.164c-5.537,3.759 -6.809,3.086 -13.214,4.48c-11.692,3.234 -23.043,6.522 -33.29,9.731c-11.587,3.618 -19.828,6.429 -28.522,6.779c-11.932,0.48 -22.601,-1.521 -33.955,-4.644c-1.698,-1.039 -3.333,-1.537 -5.457,-1.5c-5.711,0.102 -13.791,-1.807 -20.772,-4.121c-0.404,-0.442 -2.201,-2.381 -2.706,-2.905c5.505,3.163 14.833,4.628 20.058,5.196c5.466,0.593 9.794,-4.318 9.8,-8.338c6.793,-3.311 6.24,-13.688 2.063,-18.786c-0.792,-4.11 -4.603,-8.828 -8.104,-10.389l0.003,-0.005Zm-50.46,19.661c3.186,0.712 6.391,1.305 8.866,1.135l0.881,1.289c-2.833,0.003 -5.902,0.04 -8.055,-0.606c-3.255,-0.458 -5.442,0.407 -8.274,0.847c-0.461,0.211 -0.673,0.478 -0.701,0.772c-0.119,1.243 3.049,2.988 4.393,3.228c1.603,-0.355 1.698,-0.752 1.643,-1.712c0.396,0.08 0.668,0.281 0.815,0.61c3.486,0.55 8.88,0.818 9.466,-0.5c1.515,1.496 5.982,3.163 7.852,2.966c0.015,0.309 0.636,0.769 1.64,1.311l-0.102,0c0,0 1.546,1.656 2.996,3.199c-2.252,-1 -4.105,-1.965 -5.168,-2.762c-2.899,-0.317 -5.611,-1.892 -7.595,-2.986c-2.814,0.269 -5.746,0.503 -9.018,-0.002c-2.581,2.553 -5.617,0.575 -7.957,-1.917c-0.558,-0.572 -0.726,-1.45 -0.479,-2.093c0.254,-0.644 0.712,-1.098 1.221,-1.534l0.192,-0.169l0.254,-0.036c2.255,-0.304 4.367,-1.074 7.155,-1.043l-0.025,0.003Z"/><path d="M191.403,68.229c0.116,2.852 -0.737,5.748 -1.544,9.664c-1.854,9.449 -9.198,12.85 -16.366,11.016c-4.446,-1.355 -7.549,-2.925 -9.617,-5.279c3.725,2.902 7.472,3.755 9.953,4.253c7.121,1.437 13.891,-2.962 14.81,-10.23c0.189,-3.237 1.662,-6.708 1.63,-9.538c-0.074,-2.474 -0.604,-5.248 -4.402,-7.51c3.683,0.684 5.422,5.208 5.536,7.625l-0,-0.001Z"/><path d="M170.891,91.012c5.395,5.547 7.963,11.266 11.362,15.948c2.98,4.107 6.589,7.196 12.986,8.692c-2.462,-3.336 -0.404,-6.062 1.743,-7.278c-3.024,-3.148 -1.906,-6.808 2.344,-7.772c-0.524,-0.536 -0.709,-1.217 -1.007,-1.851l1.487,-0.81c0.245,1.443 1.258,2.568 2.063,3.782c-5.408,0.501 -6.179,3.853 -2.113,7.032c-2.847,1.468 -4.965,2.615 -3.364,5.652c0.592,0.642 1.459,1.258 2.131,2.24l1.083,1.582l-1.897,-0.262c-7.893,-1.086 -12.382,-4.427 -15.793,-8.677c-8.425,-7.358 -14.885,-16.091 -20.526,-20.174c-0.98,-0.781 -0.842,-0.926 -0.879,-1.841c2.984,-1.026 8.544,1.842 10.387,3.743l-0.007,-0.006Zm-8.421,-2.563c6.134,3.813 11.489,11.819 16.33,16.335c-2.567,-4.204 -5.161,-8.646 -9.009,-13.087c-1.558,-1.802 -6.084,-4.461 -7.321,-3.257l0,0.009Z"/><ellipse cx="169.353" cy="60.6" rx="7.726" ry="8.101" style="fill:#fff;stroke:#000;stroke-width:1.21px;stroke-linecap:butt;stroke-miterlimit:4;"/><ellipse cx="170.026" cy="60.736" rx="4.335" ry="4.545" style="stroke:#000;stroke-width:0.48px;stroke-linecap:butt;stroke-miterlimit:4;"/><path d="M159.691,65.585c3.755,6.627 9.591,6.9 15.488,4.664c-6.538,5.933 -13.031,1.492 -15.489,-4.661l0.001,-0.003Z"/><path d="M163.437,54.497c-1.449,1.84 -2.662,5.373 -1.693,8.403c0.535,1.67 1.37,5.057 6.573,6.288c-8.536,-0.163 -10.126,-10.307 -4.88,-14.691Z"/><path d="M173.84,109.202c2.247,4.548 5.286,8.201 11.339,10.75c-1.865,-3.704 0.622,-6.044 2.941,-6.88l2.183,1.119c-3.054,0.968 -4.847,1.462 -3.779,4.725c0.473,0.732 1.224,1.484 1.722,2.563l0.801,1.743l-1.826,-0.577c-7.598,-2.399 -11.567,-7.188 -14.215,-11.951c-7.276,-7.299 -11.109,-12.296 -13.644,-21.42c-0.835,-0.935 -1.207,-2.022 -1.09,-2.931c1.642,0.007 3.066,1.386 4.135,3.493c0.398,0.787 0.719,1.607 1.212,2.498c2.884,5.212 7.285,11.966 10.22,16.867l0.001,0.001Zm-13.506,-20.226c0.715,4.478 5.671,12.498 10.464,17.496c-1.58,-2.41 -5.852,-9.481 -8.497,-14.056c-1.17,-2.03 -1.065,-2.417 -1.966,-3.441l-0.001,0.001Z"/><path d="M247.227,41.014c-0.549,-0.01 -1.214,0.033 -1.835,0.053c0.65,-0.043 1.27,-0.063 1.835,-0.053Zm-1.835,0.053c-3.636,0.239 -8.599,1.375 -14.981,4.285c-2.149,0.98 -4.142,2.038 -6.041,3.099l-2.071,-0.309c2.402,-1.235 4.987,-2.478 7.784,-3.568c6.754,-2.636 11.636,-3.379 15.309,-3.507Z" style="fill-rule:nonzero;"/><path d="M251.309,45.15c-1.604,0.168 -6.528,0.882 -11.373,2.294c-2.722,0.794 -4.908,1.657 -6.758,2.533l-1.751,-0.397l-0.927,-0.153c2.375,-1.08 5.311,-2.072 9.002,-2.811c4.984,-0.996 10.339,-1.311 11.807,-1.466Z" style="fill-rule:nonzero;"/><path d="M237.674,50.997c1.933,0.216 3.984,0.39 7.302,0.431c3.868,0.047 7.813,0.039 9.827,0.039c-2.707,0 -5.264,0.367 -9.792,0.809c-1.041,0.101 -2.007,0.179 -2.919,0.237l-4.015,-1.422l-0.403,-0.094Z" style="fill-rule:nonzero;"/><path d="M335.909,47.503c-3.937,3.851 -3.218,8.07 -6.782,10.657c0.033,1.367 -0.5,3.942 -3.221,5.91c1.212,2.597 1.318,5.311 -0.174,7.841c0.722,3.094 0.622,5.873 -0.87,7.965c2.019,3.008 0.89,7.879 -0.676,10.058c1.792,2.055 2.308,4.55 1.745,6.423c1.581,2.225 1.972,4.27 1.786,7.364c-4.862,0.664 -11.986,-5.547 -16.882,-8.526c-3.401,-2.07 -6.731,-4.464 -9.942,-5.833c-3.21,-1.37 -7.126,-1.864 -9.134,-1.487l1.51,-1.19c2.626,-0.492 5.036,-0.2 8.383,1.228c3.347,1.429 6.171,4.031 9.682,5.978c4.89,2.708 9.6,7.911 14.875,8.348c0.55,-1.536 -0.231,-3.207 -1.806,-5.231l-0.144,-0.199l-0.013,-0.251c1.052,-2.003 0.145,-4.318 -1.549,-5.945l-0.412,-0.411l0.235,-0.531c1.56,-1.601 3.032,-6.512 0.669,-9.578l-0.126,-0.44l0.3,-0.342c1.347,-1.558 1.459,-4.015 0.684,-7.193l-0.09,-0.364l0.208,-0.312c1.555,-2.354 1.422,-4.56 0.079,-7.097l-0.279,-0.606c2.759,-0.962 4.266,-5.221 3.547,-6.568l0.175,-0.123c3.998,-2.765 3.171,-5.705 5.859,-9.275c-1.409,-1.133 -2.963,-2.006 -4.499,-1.397c-4.378,1.743 -9.834,7.784 -15.407,10.68c-4.458,2.799 -13.137,7.919 -18.911,11.373l-0.053,0.025c-1.64,0.768 -3.636,0.221 -7.099,0.216l0.005,-1.268c3.273,-0.008 4.946,0.165 6.349,-0.485l18.912,-11.37c3.673,-1.679 10.453,-8.226 15.367,-10.397c3.036,-1.342 5.688,0.501 7.692,2.35l0.007,0.003Z"/><g><path d="M324.645,64.937c-0.561,-0.168 -1.489,-0.328 -3.338,0.044c-1.39,0.279 -2.971,0.784 -4.881,1.45c-4.295,1.498 -9.203,2.999 -11.521,3.376c3.152,-0.513 6.183,-1.869 11.205,-4.163c1.828,-0.83 3.416,-1.524 4.859,-1.972c1.93,-0.604 3.221,-0.634 4.167,-0.351l-0.491,1.616Z" style="fill-rule:nonzero;"/><path d="M325.344,72.738c-0.523,0.38 -1.469,0.775 -3.051,1.114c-1.176,0.25 -2.602,0.449 -4.102,0.549c-1.508,0.101 -2.932,0.094 -4.133,-0.011c-1.637,-0.142 -2.517,-0.428 -3.041,-0.648c0.511,0.215 1.459,0.378 3.05,0.314c1.177,-0.048 2.572,-0.216 4.016,-0.496c1.447,-0.279 2.772,-0.638 3.843,-1.018c1.465,-0.518 2.109,-0.948 2.421,-1.175l0.997,1.371Z" style="fill-rule:nonzero;"/><path d="M327.765,58.073c0.02,0.024 -0.067,-0.121 -0.512,-0.275c-0.344,-0.118 -0.864,-0.234 -1.596,-0.288c-1.28,-0.096 -3.119,0.003 -5.386,0.511c-5.988,1.342 -11.411,4.68 -15.221,8.225c3.873,-3.603 8.882,-7.158 15.004,-9.044c2.278,-0.702 4.205,-1.001 5.625,-1.053c0.813,-0.029 1.466,0.02 1.972,0.124c0.656,0.131 1.128,0.369 1.415,0.712l-1.301,1.088Z" style="fill-rule:nonzero;"/><path d="M324.442,80.69c-1.637,0.831 -3.372,0.769 -5.612,-0.144c-1.969,-0.805 -4.007,-1.679 -5.187,-1.736c1.179,0.056 3.427,0.55 5.427,0.922c2.278,0.424 3.394,0.06 4.605,-0.555l0.767,1.513Z" style="fill-rule:nonzero;"/><path d="M323.889,90.515c-0.365,0.235 -0.854,0.314 -1.462,0.267c-0.466,-0.035 -1.03,-0.149 -1.693,-0.342c-1.162,-0.339 -2.615,-0.925 -4.153,-1.708c-4.117,-2.093 -6.329,-4.193 -7.368,-5.595c0.98,1.324 3.609,3.267 7.711,4.82c1.584,0.6 3.014,0.985 4.109,1.155c0.625,0.098 1.092,0.117 1.423,0.094c0.423,-0.029 0.541,-0.131 0.519,-0.118l0.914,1.427Z" style="fill-rule:nonzero;"/><path d="M325.974,97.366c-0.216,0.281 -0.525,0.44 -0.863,0.511c-0.32,0.069 -0.688,0.064 -1.105,0.006c-0.639,-0.088 -1.468,-0.315 -2.484,-0.687c-1.783,-0.652 -4.136,-1.758 -6.601,-3.183c-2.49,-1.439 -4.805,-3.036 -6.6,-4.598c-2.452,-2.133 -3.372,-3.695 -3.712,-4.764c0.338,1.063 1.388,2.569 3.923,4.504c1.865,1.424 4.254,2.86 6.788,4.111c2.527,1.248 4.877,2.153 6.619,2.636c0.997,0.276 1.727,0.395 2.216,0.412c0.318,0.011 0.502,-0.023 0.571,-0.053c0.06,-0.026 -0.033,-0.011 -0.098,0.074l1.346,1.031Z" style="fill-rule:nonzero;"/><path d="M179.01,94.81l0.61,-0.594c1.434,1.494 4.042,4.827 6.857,7.781c3.105,3.259 5.675,4.998 7.89,5.841c-2.313,-0.88 -4.878,-2.158 -8.474,-5.228c-2.644,-2.255 -6.576,-6.273 -7.492,-7.205l0.61,-0.593l-0.001,-0.002Z" style="fill-rule:nonzero;"/><path d="M188.656,95.742c1.253,0.235 2.818,0.935 4.803,2.064c2.038,1.158 3.294,1.968 4.442,2.403c-0.056,-0.023 -3.668,-1.269 -4.783,-1.628c-2.462,-0.789 -3.374,-0.908 -4.776,-1.172l0.314,-1.667Z" style="fill-rule:nonzero;"/><path d="M165.352,91.063c0.079,0.165 0.995,0.356 1.082,0.534c0.812,1.649 3.115,6.633 6.184,11.93c3.71,6.399 6.744,10.175 8.951,12.027c-2.332,-1.957 -5.411,-5.249 -9.614,-11.615c-3.381,-5.125 -6.042,-10.039 -6.856,-11.689c-0.088,-0.18 0.322,-1.022 0.243,-1.187l0.01,0Z" style="fill-rule:nonzero;"/></g><path d="M231.036,103.387c2.924,5.886 10.532,13.133 17.066,15.957c0.736,0.319 1.293,0.998 1.939,1.319c-4.898,-0.683 -8.006,-2.915 -11.894,-5.687c-6.172,-2.431 -10.401,-6.965 -13.099,-10.605c-0.067,-0.096 -0.131,-0.187 -0.192,-0.361c-0.03,-0.086 -0.067,-0.199 -0.056,-0.381c0.011,-0.181 0.111,-0.454 0.304,-0.621l0.596,0.211c0.176,-0.152 0.398,0.412 0.407,0.258c0.01,-0.154 0.365,0.021 0.348,-0.026c-0.033,-0.094 -0.04,-0.082 -0.02,-0.053c2.39,3.412 7.084,8.089 9.925,9.605c-3.174,-2.847 -5.913,-7.033 -7.646,-9.51l2.322,-0.106Z"/><path d="M267.211,93.673c2.581,1.346 3.153,3.576 4.023,5.98c-3.257,-0.045 -6.775,-0.246 -8.175,2.94c-3.532,0.047 -5.344,1.716 -5.996,4.735c-3.878,-0.524 -5.436,2.116 -4.811,5.295c-3.536,1.894 -4.103,6.554 -2.314,8.012l-1.851,-0.784c-2.323,-2.491 -0.136,-6.814 2.373,-8.069c-0.165,-3.657 1.875,-6.36 5.36,-6.215c1.083,-3.223 3.374,-4.094 6.268,-4.513c1.814,-2.389 4.119,-2.728 6.73,-2.898c-0.224,-0.58 -0.467,-1.284 -0.676,-1.599c-0.339,-0.51 -0.746,-0.853 -1.722,-1.364l0.791,-1.52Z"/><path d="M177.367,65.516c1.976,-5.714 0.807,-10.13 -3.1,-12.802c-1.015,-0.694 -2.232,-1.133 -3.691,-1.479c8.392,-0.737 9.782,8.368 6.791,14.281Z"/><path d="M241.139,102.234c0.535,0.67 1.702,2.47 3.188,4.242c1.643,1.959 2.988,3.059 3.938,3.439c-1.064,-0.425 -2.393,-1.062 -4.532,-2.833c-1.822,-1.507 -4.033,-3.729 -4.493,-4.304l1.899,-0.544Z" style="fill-rule:nonzero;"/><path d="M251.124,98.776c0.422,0.495 0.881,1.435 1.512,2.541c0.628,1.102 1.151,1.817 1.604,2.09c-0.648,-0.389 -1.044,-0.533 -2.251,-1.543c-0.831,-0.695 -1.933,-1.712 -2.153,-1.983l1.288,-1.105Z" style="fill-rule:nonzero;"/><path d="M259.278,96.573l0.768,-0.358c0.287,0.615 0.552,2.632 0.98,3.059c-0.428,-0.427 -2.206,-1.676 -2.517,-2.343l0.78,-0.356l-0.011,-0.002Z" style="fill-rule:nonzero;"/><path d="M213.902,62.561c4.493,-1.864 1.865,-10.289 -1.288,-9.984c5.883,-0.83 6.476,9.29 1.288,9.984Z"/><path d="M214.411,76.412c4.737,-1.093 3.542,-9.84 0.38,-10.065c5.945,0.156 4.85,10.246 -0.38,10.065Z"/><path d="M210.868,87.634c4.836,0.505 6.544,-8.157 3.627,-9.397c5.578,2.069 1.254,11.256 -3.628,9.392l0.001,0.005Z"/><path d="M222.006,84.481c4.85,-0.331 5.05,-9.157 1.964,-9.879c5.845,1.093 3.171,10.883 -1.964,9.879Z"/><path d="M222.107,69.817c4.802,-0.761 4.215,-9.57 1.076,-10.014c5.92,0.567 4.129,10.557 -1.076,10.014Z"/><path d="M215.326,97.263c4.696,1.271 7.765,-7.001 5.086,-8.697c5.17,2.95 -0.56,11.324 -5.086,8.697Z"/><path d="M203.494,96.635c4.574,1.649 8.307,-6.351 5.772,-8.254c4.913,3.352 -1.475,11.239 -5.772,8.254Z"/><path d="M231.702,76.446c4.491,-1.865 1.859,-10.291 -1.296,-9.988c5.882,-0.831 6.476,9.289 1.288,9.984l0.008,0.004Z"/><path d="M227.939,91.788c4.85,-0.332 5.05,-9.158 1.964,-9.88c5.845,1.092 3.171,10.883 -1.964,9.88Z"/><path d="M221.475,101.759c3.344,1.205 6.073,-4.642 4.22,-6.034c3.591,2.451 -1.078,8.218 -4.22,6.034Z"/><path d="M230.748,100.285c4.861,0.078 5.801,-8.7 2.786,-9.679c5.733,1.58 2.246,11.111 -2.786,9.679Z"/><path d="M237.461,85.028c4.719,-1.17 3.38,-9.895 0.215,-10.07c5.947,0.059 5.016,10.166 -0.215,10.07Z"/><path d="M239.749,70.602c3.178,-1.842 0.37,-7.892 -1.963,-7.352c4.326,-1.208 5.779,6.322 1.963,7.352Z"/><path d="M246.92,89.894c4.2,-0.734 3.566,-8.451 0.808,-8.798c5.198,0.418 3.763,9.204 -0.807,8.797l-0.001,0.001Z"/><path d="M247.92,79.688c4.265,-2.332 0.751,-10.43 -2.355,-9.793c5.767,-1.456 7.439,8.554 2.355,9.793Z"/><path d="M254.361,96.539c4.023,-0.997 2.883,-8.438 0.184,-8.584c5.07,0.049 4.277,8.665 -0.184,8.584Z"/><path d="M258.701,83.146c3.685,-1.12 2.266,-7.967 -0.245,-7.974c4.707,-0.2 4.388,7.834 0.245,7.974Z"/><path d="M266.957,92.419c3.791,-0.835 2.716,-7.062 0.173,-7.187c4.777,0.042 4.029,7.256 -0.173,7.187Z"/><path d="M270.941,81.417c3.871,-1.632 1.505,-8.051 -1.226,-7.684c5.093,-0.893 5.713,6.933 1.226,7.684Z"/><path d="M277.518,89.792c3.968,-1.52 1.543,-7.49 -1.256,-7.149c5.22,-0.831 5.856,6.449 1.256,7.149Z"/><path d="M282.638,79.892c3.483,-1.334 1.354,-6.577 -1.104,-6.277c4.584,-0.73 5.143,5.663 1.104,6.277Z"/><path d="M289.825,85.825c3.391,-1.288 1.323,-6.391 -1.068,-6.102c4.458,-0.709 5,5.505 1.073,6.102l-0.005,0Z"/><path d="M295.775,78.875c3.257,-1.867 0.326,-6.747 -2.071,-6.068c4.444,-1.436 5.991,4.831 2.071,6.068Z"/><path d="M240.055,98.658c4.247,0.369 5.616,-7.253 3.037,-8.295c4.918,1.737 1.276,9.861 -3.038,8.295l0.001,-0Z"/><path d="M229.154,62.974c3.177,-1.842 0.37,-7.891 -1.963,-7.352c4.326,-1.209 5.779,6.321 1.963,7.352Z"/><path d="M129.601,64.685l0.017,-0.873l1.563,-1.458l2.198,-0.132l4.158,2.305l6.137,6.222c-2.463,-1.843 -13.404,-7.552 -7.045,2.066l-1.537,-1.297l-1.855,-1.933l-2.065,-2.014l-1.059,-1.563l-0.512,-1.323Zm5.457,17.256l0.318,-1.694l1.959,-0.477l3.92,-0.53l3.921,-0l4.343,0.635l2.65,-0.371l1.959,1.272l3.708,0.371c-2.432,1.602 -3.674,1.284 -6.356,0.661c0.71,2.563 6.248,3.123 9.297,3.021l1.193,1.271c1.219,0.187 2.436,-0.043 3.655,-0.953l3.233,1.83l4.079,1.059l3.655,0.53l4.079,-0.159c4.416,5.924 15.426,4.208 19.11,0.516c5.234,3.225 8.328,5.469 37.273,3.911c12.343,-0.662 25.932,-3.293 38.168,-5.346c14.942,-2.507 31.736,-4.145 34.038,-7.196c-0.038,1.27 -0.766,2.52 -3.342,3.569l-10.342,1.948l-4.056,1.522l-11.655,3.496l-12.365,3.618l2.38,4.062c-4.11,-1.776 -6.704,-0.904 -8.691,1.645c-5.034,-0.019 -5.515,2.238 -7.192,3.898c-4.69,-0.419 -7.267,1.758 -8.615,3.969c-4.594,-2.219 -9.175,-2.79 -12.571,-0.215c-1.399,-1.22 -2.86,-0.881 -3.248,0.119l-4.021,-4.526l-7.258,-0.371l-14.62,-3.073l-4.663,-0.953l1.219,1.907l-3.496,1.96l0.37,4.238l1.06,1.642c-6.393,-0.367 -11.104,-6.063 -16.369,-10.542c-2.792,-1.17 -5.346,-1.979 -5.192,1.271l-2.966,-3.602c-2.281,-1.673 -3.413,-1.623 -3.497,-0l3.019,4.344c-2.089,-1.421 -2.962,-1.258 -2.753,0.317c-2.161,-3.316 -3.262,-3.264 -4.025,-2.221l-1.589,-2.385c-1.274,-1.328 -2.523,-2.588 -2.332,0.477l-2.171,-5.085l-0.741,-3.337l-0.743,-1.219l-5.774,-1.695l-1.305,-1.552c-0.456,0.475 -1.148,0.645 -1.711,0.967l-4.344,-0.106l-3.496,-0.212l-1.324,1.112l-1.801,0.159l-3.982,-3.497Zm0.948,-0.314c0.017,0.467 1.068,1.111 1.391,1.6c0.956,1.805 4.647,0.981 4.162,-0.272c0.899,-0.161 1.043,0.186 1.3,0.387c2.204,0.384 6.01,0.764 8.11,-0.49c0.41,-0.245 0.436,-0.617 0.482,-1.029c-0.251,-0.029 -0.176,-0.993 -0.748,-1.07c-1.609,-0.217 -4.173,-0.188 -5.211,-0.258c-0.754,-0.051 -2.59,-0.549 -3.358,-0.52c-2.091,0.08 -5.357,0.528 -6.064,1.463c-0.045,0.059 -0.06,0.122 -0.057,0.189l-0.007,0Z" style="fill-opacity:0.29;"/><path d="M251.559,38.117c-5.704,1.962 -1.946,6.55 3.959,4.463c-3.678,3.409 -1.319,7.599 2.91,7.388c-2.893,2.799 -2.873,5.773 0.179,7.396l-0.819,1.129c-3.197,-1.97 -3.967,-5.093 -1.883,-7.586c-3.496,-0.64 -4.278,-3.379 -3.152,-6.602c-3.786,-0.125 -6.605,-1.383 -5.086,-4.632c-4.425,-0.15 -10.039,1.516 -12.514,1.705l0.061,-1.314c5.388,-0.7 10.393,-2.166 16.345,-1.947Z"/><path d="M70.702,75.679c-0.656,10.671 -5.47,23.034 9.308,37.4l0.49,12.712c-14.706,-7.377 -15.268,-24.69 -17.392,-39.599l7.594,-10.513Z" style="fill:#ffd200;fill-rule:nonzero;stroke:#000;stroke-width:2.05px;stroke-miterlimit:4;"/><path d="M85.394,50.252c10.51,-10.017 13.811,-18.4 12.005,-29.577c-8.513,3.618 -13.155,14.41 -17.149,26.4c6.571,-14.269 3.657,-22.968 -0.735,-30.8c-2.742,8.734 -6.97,15.959 -4.9,29.577c0.007,-14.956 -7.554,-21.917 -18.618,-25.178c1.519,9.534 6.172,20.533 13.23,30.067c-8.919,-16.162 -20.354,-13.836 -29.887,-14.667c5.275,11.696 16.385,15.79 26.702,19.311c-11.92,-4.148 -23.552,-7.723 -31.601,2.933c13.351,7.137 23.463,4.622 33.071,3.423c-13.211,1.143 -25.078,4.168 -29.642,16.622c12.99,0.302 22.439,-5.294 32.093,-13.688c-11.464,8.086 -15.467,18.271 -14.945,30.311c9.768,-8.332 17.676,-17.194 18.374,-28.111c-5.036,17.874 -1.583,26.777 4.41,33c5.297,-11.455 1.897,-20.915 2.45,-33.244c0.109,17.725 9.048,21.501 16.658,27.377c-3.046,-10.243 -0.843,-17.412 -12.494,-29.333c17.099,20.387 21.692,14.259 28.908,13.689c-7.308,-10.164 -16.109,-14.478 -25.968,-17.111c8.302,1.695 18.025,6.332 28.907,-3.911c-8.449,-4.364 -17.56,-6.631 -28.662,-2.445c13.773,-3.125 21.238,-8.454 25.233,-16.132c-10.484,-2.846 -17.25,1.362 -27.438,11.488l-0.002,-0.001Z" style="fill:#f1ede5;fill-rule:nonzero;stroke:#000;stroke-width:2.05px;stroke-miterlimit:4;"/><path d="M66.29,56.731c-0,5.873 4.771,10.634 10.657,10.634c5.884,-0 10.656,-4.761 10.656,-10.634c-0,-5.872 -4.772,-10.633 -10.656,-10.633c-5.886,0 -10.657,4.761 -10.657,10.633Z" style="fill:#ffd200;fill-rule:nonzero;stroke:#000;stroke-width:2.05px;stroke-miterlimit:4;"/><path d="M386.492,75.679c0.655,10.671 5.47,23.034 -9.31,37.4l-0.489,12.712c14.706,-7.377 15.268,-24.69 17.393,-39.599l-7.594,-10.513Z" style="fill:#ffd200;fill-rule:nonzero;stroke:#000;stroke-width:2.05px;stroke-miterlimit:4;"/><path d="M371.799,50.252c-10.51,-10.017 -13.811,-18.4 -12.004,-29.577c8.513,3.618 13.153,14.41 17.148,26.4c-6.572,-14.269 -3.657,-22.968 0.734,-30.8c2.743,8.734 6.971,15.959 4.9,29.577c-0.007,-14.956 7.554,-21.917 18.619,-25.178c-1.518,9.534 -6.172,20.533 -13.229,30.067c8.919,-16.162 20.352,-13.836 29.887,-14.667c-5.275,11.696 -16.387,15.79 -26.703,19.311c11.92,-4.148 23.552,-7.723 31.601,2.933c-13.351,7.137 -23.462,4.622 -33.071,3.423c13.21,1.143 25.077,4.168 29.641,16.622c-12.989,0.302 -22.438,-5.294 -32.091,-13.688c11.463,8.086 15.466,18.271 14.943,30.311c-9.768,-8.332 -17.676,-17.194 -18.373,-28.111c5.037,17.874 1.582,26.777 -4.409,33c-5.297,-11.455 -1.899,-20.915 -2.45,-33.244c-0.11,17.725 -9.049,21.501 -16.659,27.377c3.046,-10.243 0.843,-17.412 12.494,-29.333c-17.1,20.387 -21.693,14.259 -28.907,13.689c7.308,-10.164 16.108,-14.478 25.966,-17.111c-8.3,1.695 -18.024,6.332 -28.907,-3.911c8.449,-4.364 17.561,-6.631 28.663,-2.445c-13.774,-3.125 -21.238,-8.454 -25.232,-16.132c10.483,-2.846 17.248,1.362 27.437,11.488l0.002,-0.001Z" style="fill:#f1ede5;fill-rule:nonzero;stroke:#000;stroke-width:2.05px;stroke-miterlimit:4;"/><path d="M390.903,56.731c-0,5.873 -4.772,10.634 -10.656,10.634c-5.886,-0 -10.657,-4.761 -10.657,-10.634c-0,-5.872 4.771,-10.633 10.657,-10.633c5.884,0 10.656,4.761 10.656,10.633Z" style="fill:#ffd200;fill-rule:nonzero;stroke:#000;stroke-width:2.05px;stroke-miterlimit:4;"/></svg>