<svg xmlns="http://www.w3.org/2000/svg" xml:space="preserve" style="fill-rule:evenodd;clip-rule:evenodd;stroke-linecap:round;stroke-linejoin:round;stroke-miterlimit:1.5" viewBox="0 0 7938 2188"><path d="M3124.03 1595.64q-54.861 0-95.139-15.625t-61.806-50.348-21.527-90.972v-268.751q0-20.138-7.639-29.861t-20.139-12.847q-12.5-3.125-27.084-3.125h-11.111v-31.25h212.501v31.25h-10.417q-14.583 0-27.431 3.472-12.847 3.472-20.139 13.542t-7.291 31.597v270.14q0 59.722 31.25 84.375t81.25 24.653q37.5 0 62.5-13.195t37.153-37.5 12.153-56.945v-274.306q0-20.138-7.292-29.861t-19.792-12.847q-12.5-3.125-27.083-3.125h-11.111v-31.25h176.389v31.25h-11.111q-14.583 0-27.083 3.472-12.501 3.472-20.139 13.542-7.64 10.07-7.639 31.597v272.917q0 45.834-19.098 79.514-19.096 33.68-57.291 52.084-38.195 18.402-95.834 18.403M3396.95 1588.7v-31.25h11.111q15.973 0 28.126-3.472 12.152-3.473 19.444-13.889t7.292-31.25v-338.89q0-20.139-7.639-29.861t-19.792-12.847-26.042-3.125h-12.5v-31.25h134.723l247.917 373.612v-296.529q0-19.445-7.639-29.514-7.64-10.07-19.444-13.194-11.806-3.125-26.389-3.125h-12.5v-31.25h176.389v31.25h-12.5q-14.583 0-26.736 3.472t-19.098 13.889q-6.944 10.417-6.944 31.25V1588.7h-53.472l-263.195-395.139v315.278q0 20.834 6.944 31.25 6.945 10.416 19.097 13.889t26.737 3.472h12.5v31.25zM3931.67 1588.7v-31.25h13.889q13.889 0 25.694-3.472t19.097-13.889 7.292-29.861v-338.195q0-20.833-7.292-30.903t-19.097-13.542-25.694-3.472h-13.889v-31.25h212.5v31.25h-13.194q-14.584 0-26.389 3.472-11.807 3.472-18.75 13.542-6.945 10.07-6.945 30.903v338.195q0 19.445 6.945 29.861 6.944 10.416 19.097 13.889t26.042 3.472h13.194v31.25zM4226.81 1160.23q-4.861-14.584-11.111-22.222-6.25-7.64-14.931-10.764-8.68-3.125-21.18-3.125h-11.111v-31.25h200.694v31.25h-18.75q-19.444 0-28.819 7.292t-9.375 23.264q0 3.471.694 7.986a63.5 63.5 0 0 0 2.084 9.027 196 196 0 0 1 2.777 10.07l75.001 222.223q6.25 17.36 11.111 36.458a7411 7411 0 0 0 9.375 36.458q4.514 17.362 7.291 33.334a2004 2004 0 0 1 7.639-32.292q4.167-17.014 9.723-35.764 5.555-18.75 11.805-37.5l75-217.362a358 358 0 0 0 3.82-12.152q1.735-5.903 2.43-11.111.695-5.21.695-9.375 0-15.973-10.07-23.264-10.07-7.293-30.902-7.292h-20.139v-31.25h170.833v31.25h-14.583q-13.194 0-21.875 4.167t-15.278 15.277-14.236 34.028l-143.056 411.112h-55.556zM4665.7 1588.7v-31.25h13.194q14.584 0 26.389-3.472t19.098-13.195q7.291-9.721 7.291-27.777v-340.973q0-21.528-7.291-31.25t-19.098-13.195q-11.805-3.472-26.389-3.472H4665.7v-31.25h360.417l2.778 123.611h-39.583l-3.473-31.25q-1.389-15.277-7.639-27.778-6.249-12.5-18.402-20.139t-32.292-7.639h-115.278v181.945h167.361v36.111h-167.361v204.168h132.639q21.528 0 34.375-7.639t19.792-20.139q6.944-12.5 9.028-27.778l4.861-31.25h39.583l-4.861 123.611zM5103.89 1588.7v-31.25h11.806q14.583 0 26.736-3.125t19.792-12.847q7.638-9.723 7.639-29.167v-342.362q0-20.139-7.987-29.861-7.986-9.722-20.139-12.847t-26.041-3.125h-11.806v-31.25h197.223q63.195 0 103.819 15.278 40.626 15.277 60.07 44.791t19.444 73.264q0 37.501-14.93 62.848t-38.195 40.625-48.264 23.611l92.362 147.917q18.055 28.473 34.375 42.361 16.319 13.889 37.153 13.889h2.777v31.25h-13.889q-42.36 0-67.708-4.514t-41.32-18.055-31.25-39.931l-90.278-155.556h-54.166v141.667q0 19.444 7.291 29.167 7.292 9.722 19.445 12.847 12.152 3.125 26.042 3.125h10.416v31.25zm193.056-252.778q57.64 0 79.514-26.389 21.876-26.39 21.875-79.861 0-36.805-10.069-59.028t-32.986-32.292-59.723-10.069h-44.444v207.639zM5721.95 1595.64q-37.5 0-65.278-7.292-27.777-7.292-45.139-20.833-17.361-13.542-26.042-31.598-8.68-18.055-8.68-38.194 0-16.667 7.291-28.125 7.293-11.458 19.792-17.361t29.861-5.903q1.389 31.25 11.806 57.292 10.416 26.041 31.25 40.972 20.834 14.93 52.083 14.93 45.139 0 70.487-22.222t25.347-61.805q0-25-10.764-42.362-10.764-17.36-34.722-32.639-23.96-15.278-64.236-31.944-45.14-18.056-73.612-39.584-28.472-21.527-42.014-49.652t-13.541-64.931q0-40.278 20.486-69.097 20.486-28.82 56.25-44.098t80.903-15.278q43.75 0 73.611 11.459t45.486 29.514 15.625 38.194q0 22.917-15.972 35.417t-45.833 12.5q0-21.528-7.639-42.361t-24.653-34.375q-17.015-13.542-45.486-13.542-38.195 0-59.723 20.139t-21.527 54.861q0 25.695 10.069 44.097 10.07 18.404 34.028 33.681 23.958 15.278 66.319 32.639t71.528 37.5 43.75 46.181 14.584 62.153q0 44.444-21.528 76.042-21.528 31.596-61.111 48.611-39.584 17.014-93.056 17.014M5955.28 1588.7v-31.25h13.889q13.889 0 25.694-3.472t19.097-13.889q7.293-10.416 7.292-29.861v-338.195q0-20.833-7.292-30.903t-19.097-13.542-25.694-3.472h-13.889v-31.25h212.5v31.25h-13.194q-14.584 0-26.389 3.472-11.807 3.472-18.75 13.542-6.945 10.07-6.945 30.903v338.195q0 19.445 6.945 29.861 6.944 10.416 19.097 13.889 12.152 3.472 26.042 3.472h13.194v31.25zM6296.26 1588.7v-31.25h16.666q14.584 0 27.084-3.125t20.139-13.194q7.638-10.07 7.639-30.209v-381.251h-63.889q-30.556 0-42.362 15.973-11.805 15.972-14.583 38.889l-4.167 33.333h-38.889l3.473-125h402.778l3.472 125h-38.889l-4.166-33.333q-2.778-22.917-14.584-38.889t-43.055-15.973h-63.889v379.168q0 20.834 7.291 31.25 7.293 10.416 19.792 13.889t27.778 3.472h16.667v31.25zM6736.53 1588.7v-31.25h17.361q15.279 0 27.778-3.125 12.501-3.125 20.139-13.194 7.64-10.07 7.639-30.209v-121.528l-128.472-228.472q-6.945-13.195-13.542-21.181t-14.931-11.806-20.833-3.819h-9.028v-31.25h202.778v31.25h-22.222q-18.75 0-26.042 7.292-7.291 7.292-7.291 17.708 0 9.028 3.819 19.097t7.986 17.709l51.389 94.444q11.806 21.528 19.792 40.973 7.986 19.444 13.542 35.416 6.25-15.277 17.708-36.805a3928 3928 0 0 1 23.264-43.056l43.056-79.861q7.638-12.5 10.069-23.264 2.43-10.764 2.431-18.403 0-15.973-10.764-23.611-10.764-7.64-31.598-7.639h-19.444v-31.25h172.917v31.25h-8.333q-10.417 0-19.098 4.861t-17.708 16.667q-9.028 11.805-20.833 32.639l-116.667 211.111v118.75q0 20.834 7.291 31.598 7.293 10.764 19.792 14.236t27.084 3.472h18.75v31.25zM2976.29 1968.71v-9.522h4.854q5.5 0 8.897-1.393t6.31-5.342q2.911-3.948 6.147-11.38l60.828-138.183h24.266l62.446 145.15q1.941 4.413 4.368 6.735 2.425 2.323 6.309 3.368 3.882 1.045 9.383 1.045h2.912v9.522h-78.623v-9.522h6.471q8.412 0 12.456-2.555 4.045-2.555 4.045-7.199 0-1.626-.485-3.484a281 281 0 0 0-1.133-4.18 29 29 0 0 0-1.618-4.413l-10.03-24.385h-71.505l-9.383 22.76q-.97 1.858-1.617 4.18a163 163 0 0 1-1.295 4.413 14 14 0 0 0-.647 4.18q0 4.877 4.206 7.78t13.59 2.903h7.118v9.522zm61.799-67.118h60.827l-17.148-43.197a332 332 0 0 0-5.177-13.121q-2.588-6.155-4.368-11.496a345 345 0 0 0-3.397-9.754 237 237 0 0 1-3.074 9.638 288 288 0 0 1-3.882 10.683q-2.103 5.457-5.015 11.728zM3254.54 1968.71v-9.522h5.5q6.147 0 10.839-1.277 4.691-1.278 7.28-4.877 2.589-3.6 2.588-10.567v-114.263q0-6.735-2.75-10.103t-7.603-4.528q-4.854-1.161-11.001-1.162h-4.853v-9.521h85.741q28.796 0 49.18 9.754t31.223 28.217 10.839 44.939q0 25.314-10.192 44.01-10.193 18.694-30.414 28.797t-50.636 10.103zm79.27-11.612q21.678 0 35.752-8.245t21.355-24.153 7.28-38.9-7.118-39.017q-7.119-16.025-21.355-24.269t-35.59-8.245h-22.649v142.829zM3441.23 1968.71v-9.522h4.853q5.5 0 8.898-1.393t6.309-5.342q2.913-3.948 6.148-11.38l60.828-138.183h24.266l62.445 145.15q1.943 4.413 4.368 6.735 2.427 2.323 6.31 3.368t9.383 1.045h2.912v9.522h-78.623v-9.522h6.471q8.412 0 12.456-2.555 4.045-2.555 4.045-7.199 0-1.626-.486-3.484a269 269 0 0 0-1.132-4.18 29 29 0 0 0-1.618-4.413l-10.03-24.385h-71.505l-9.383 22.76q-.97 1.858-1.618 4.18a159 159 0 0 1-1.294 4.413 14 14 0 0 0-.647 4.18q0 4.877 4.206 7.78t13.589 2.903h7.119v9.522zm61.799-67.118h60.827l-17.148-43.197a333 333 0 0 0-5.177-13.121q-2.588-6.155-4.368-11.496a348 348 0 0 0-3.397-9.754 237 237 0 0 1-3.074 9.638 288 288 0 0 1-3.882 10.683q-2.104 5.457-5.015 11.728zM3647.98 1968.71v-9.522h5.5q5.825 0 10.515-1.161 4.692-1.161 7.442-4.761t2.75-10.335v-113.798q0-7.2-2.75-10.683-2.75-3.485-7.442-4.761-4.69-1.278-10.515-1.278h-5.5v-9.521h83.152v9.521h-5.823q-5.824 0-10.516 1.278-4.692 1.277-7.28 4.761t-2.588 10.683v113.566q0 6.967 2.588 10.451 2.588 3.483 7.442 4.761 4.853 1.277 10.354 1.277h5.823v9.522zM3812.99 1971.03q-15.207 0-26.369-2.322-11.163-2.322-18.443-6.619t-10.839-10.102q-3.56-5.807-3.559-12.774 0-4.877 2.75-8.477 2.75-3.599 7.442-5.573t11.486-1.974q.647 10.45 5.339 18.927 4.69 8.477 13.427 13.238t21.031 4.761q17.795 0 27.502-7.548t9.706-21.25q0-9.522-4.691-15.908-4.692-6.387-14.398-11.613-9.706-5.225-25.561-10.799-16.501-6.27-27.502-13.238-11-6.967-16.339-16.14t-5.339-21.947q0-12.541 8.089-21.715t21.84-14.283q13.75-5.109 31.223-5.109 17.147 0 28.958 3.832 11.809 3.832 17.957 9.754 6.147 5.922 6.147 12.657 0 7.432-5.986 10.916t-17.31 3.483q0-7.664-3.397-14.399-3.398-6.735-10.515-10.915-7.119-4.18-18.443-4.18-15.53 0-23.781 7.315t-8.25 19.857q0 8.593 3.882 14.747t13.266 11.148q9.383 4.994 25.56 11.031 16.825 5.806 28.311 12.541t17.472 15.444 5.986 21.251q0 14.863-8.413 24.966-8.412 10.102-23.457 15.56-15.045 5.457-34.782 5.457M3932.39 1968.71v-9.522h5.5q6.471 0 11.648-1.161t8.25-4.645q3.075-3.484 3.074-10.219v-44.822l-50.797-73.621q-2.913-4.412-5.501-7.083t-5.986-3.948-8.25-1.278h-3.559v-9.521h77.652v9.521h-8.089q-7.765 0-10.353 2.207t-2.589 4.993q0 2.787 1.618 6.27 1.618 3.485 3.236 6.039l20.383 30.656q4.854 6.966 8.413 13.354 3.558 6.386 5.824 11.728 2.588-4.645 6.794-11.264 4.206-6.62 8.736-13.818l17.472-26.011q2.911-4.413 4.368-8.245 1.456-3.832 1.456-6.619 0-5.11-4.692-7.199-4.69-2.091-12.78-2.091h-6.794v-9.521h67.298v9.521h-2.912q-4.206 0-7.603 1.626-3.398 1.626-7.118 5.574-3.722 3.948-8.574 10.915l-46.592 67.815v43.661q0 7.2 3.074 10.916 3.073 3.715 8.25 4.993 5.177 1.277 11.325 1.277h6.147v9.522zM4145.28 1968.71v-9.522h5.5q5.824 0 10.515-1.161t7.442-4.761 2.75-10.335v-114.03q0-7.2-2.75-10.683-2.75-3.484-7.603-4.645-4.854-1.161-11.001-1.162h-4.853v-9.521h83.152v9.521h-5.176q-6.471 0-11.163 1.162-4.691 1.16-7.28 4.528-2.588 3.368-2.588 10.103v129.126h54.033q8.088 0 13.104-2.787 5.015-2.787 7.765-7.548 2.75-4.76 3.721-10.567l2.912-17.418h13.913l-1.942 49.7zM4318.38 1968.71v-9.522h5.177q6.147 0 10.839-1.161 4.691-1.161 7.441-4.529t2.751-9.87v-114.495q0-7.432-2.751-10.915-2.75-3.484-7.441-4.645-4.692-1.161-10.839-1.162h-5.177v-9.521h141.715l1.295 40.41h-15.207l-1.618-9.755a21.2 21.2 0 0 0-2.912-9.521q-2.589-4.413-7.765-7.084t-13.589-2.671h-44.974v62.009h66.004v11.147h-66.004v69.905h51.768q9.06 0 14.398-2.671 5.339-2.67 8.251-7.083t3.882-9.522l1.618-9.754h15.531l-1.942 40.41zM4482.1 1968.71v-9.522h4.853q5.5 0 8.898-1.393t6.309-5.342q2.913-3.948 6.148-11.38l60.827-138.183h24.267l62.445 145.15q1.941 4.413 4.368 6.735t6.309 3.368q3.884 1.045 9.383 1.045h2.912v9.522h-78.623v-9.522h6.471q8.413 0 12.457-2.555t4.045-7.199q0-1.626-.486-3.484a269 269 0 0 0-1.132-4.18 29 29 0 0 0-1.618-4.413l-10.03-24.385h-71.505l-9.383 22.76q-.97 1.858-1.618 4.18a163 163 0 0 1-1.294 4.413 14 14 0 0 0-.647 4.18q0 4.877 4.206 7.78t13.589 2.903h7.118v9.522zm61.798-67.118h60.828l-17.148-43.197a333 333 0 0 0-5.177-13.121q-2.589-6.155-4.368-11.496a348 348 0 0 0-3.397-9.754 239 239 0 0 1-3.074 9.638 288 288 0 0 1-3.883 10.683q-2.102 5.457-5.015 11.728zM4784.3 1971.03q-32.355 0-53.871-10.683t-32.032-29.843-10.515-44.938q0-25.083 11.001-44.242 11-19.16 32.84-29.96 21.84-10.799 53.872-10.799 20.383 0 34.134 3.368t21.031 9.173 7.28 13.238-7.118 11.844q-7.119 4.413-18.766 4.413 0-7.2-3.721-14.051-3.721-6.85-11.971-11.38-8.251-4.528-21.84-4.528-22.002 0-35.914 8.128t-20.546 24.386q-6.633 16.255-6.633 40.41 0 23.456 6.471 39.713 6.471 16.256 21.193 24.734 14.721 8.476 39.311 8.476 7.443 0 14.56-.696 7.119-.697 12.619-2.323v-38.087q0-6.967-2.589-10.335-2.588-3.367-7.441-4.297-4.854-.929-11.001-.929h-2.265v-9.521h73.446v9.521h-1.941q-5.5 0-9.383 1.046-3.882 1.044-5.986 4.528t-2.103 10.916v42.268a180.4 180.4 0 0 1-29.119 7.78q-14.884 2.67-33.003 2.67M4972.28 1971.03q-21.354 0-37.209-5.225-15.854-5.225-24.266-16.838-8.412-11.611-8.412-30.423v-90.342q0-6.967-3.074-10.335t-8.089-4.412q-5.015-1.046-11.162-1.046h-3.883v-9.521h82.829v9.521h-3.559q-6.471 0-11.486 1.162-5.015 1.16-7.927 4.645-2.912 3.483-2.912 10.915v90.806q0 20.438 12.457 28.914 12.456 8.478 32.517 8.477 15.53 0 25.399-4.877 9.868-4.876 14.883-13.122 5.015-8.244 5.015-18.695v-92.432q0-6.967-3.074-10.335t-7.927-4.412q-4.853-1.046-11.324-1.046h-3.559v-9.521h69.564v9.521h-3.56q-6.47 0-11.647 1.162-5.178 1.16-8.089 4.645-2.913 3.483-2.912 10.915v91.967q0 15.328-7.604 26.476-7.603 11.148-22.972 17.302t-38.017 6.154M5081.32 1968.71v-9.522h5.177q6.147 0 10.839-1.161 4.691-1.161 7.441-4.529t2.75-9.87v-114.495q0-7.432-2.75-10.915-2.75-3.484-7.441-4.645-4.692-1.161-10.839-1.162h-5.177v-9.521h141.715l1.295 40.41h-15.207l-1.618-9.755a21.2 21.2 0 0 0-2.912-9.521q-2.589-4.413-7.765-7.084t-13.589-2.671h-44.974v62.009h66.004v11.147h-66.004v69.905h51.768q9.06 0 14.398-2.671t8.251-7.083q2.912-4.413 3.882-9.522l1.618-9.754h15.531l-1.942 40.41zM5416.52 1971.03q-21.354 0-37.208-5.225t-24.266-16.838q-8.413-11.611-8.413-30.423v-90.342q0-6.967-3.074-10.335t-8.088-4.412q-5.016-1.046-11.163-1.046h-3.882v-9.521h82.829v9.521h-3.559q-6.471 0-11.486 1.162-5.016 1.16-7.927 4.645-2.913 3.483-2.912 10.915v90.806q0 20.438 12.456 28.914 12.458 8.478 32.517 8.477 15.53 0 25.399-4.877 9.868-4.876 14.883-13.122 5.016-8.244 5.016-18.695v-92.432q0-6.967-3.074-10.335t-7.927-4.412q-4.853-1.046-11.325-1.046h-3.559v-9.521h69.564v9.521h-3.559q-6.471 0-11.648 1.162-5.176 1.16-8.089 4.645-2.912 3.483-2.912 10.915v91.967q0 15.328-7.603 26.476t-22.972 17.302q-15.37 6.154-38.018 6.154M5525.55 1968.71v-9.522h3.883q6.794 0 11.81-1.161 5.014-1.161 7.765-4.761t2.75-10.799v-114.263q0-6.967-2.75-10.335t-7.604-4.412q-4.853-1.046-11.324-1.046h-4.53v-9.521h53.386l97.713 130.287v-104.973q0-6.735-2.912-10.103t-7.765-4.528q-4.854-1.161-11.001-1.162h-4.53v-9.521h69.887v9.521h-4.853q-6.147 0-11.001 1.278-4.853 1.277-7.603 4.761t-2.75 10.683v139.577h-21.355l-103.536-136.79v110.547q0 7.199 2.588 10.799t7.604 4.761q5.015 1.161 11.162 1.161h4.853v9.522zM5737.16 1968.71v-9.522h5.501q5.823 0 10.515-1.161 4.691-1.161 7.442-4.761 2.75-3.6 2.75-10.335v-113.798q0-7.2-2.75-10.683-2.75-3.485-7.442-4.761-4.692-1.278-10.515-1.278h-5.501v-9.521h83.153v9.521h-5.824q-5.824 0-10.515 1.278-4.692 1.277-7.28 4.761t-2.589 10.683v113.566q0 6.967 2.589 10.451 2.588 3.483 7.441 4.761 4.854 1.277 10.354 1.277h5.824v9.522zM5853.31 1824.72q-1.941-4.877-4.368-7.548-2.427-2.67-5.985-3.715-3.56-1.046-8.736-1.046h-4.207v-9.521h77.976v9.521h-6.471q-8.412 0-12.295 2.323t-3.882 6.967q0 1.394.323 3.252a16.3 16.3 0 0 0 1.133 3.715 38 38 0 0 1 1.456 3.948l28.796 75.943q2.912 6.968 5.015 13.238a875 875 0 0 1 3.883 11.844 442 442 0 0 1 3.397 11.148 438 438 0 0 1 3.397-11.148 287 287 0 0 1 4.045-11.728 700 700 0 0 1 5.176-13.586l29.444-74.085a30.6 30.6 0 0 0 1.617-4.296q.648-2.207.971-4.181.324-1.974.324-3.599 0-5.11-4.207-7.432t-13.265-2.323h-6.795v-9.521h67.299v9.521h-4.53q-5.823 0-9.383 1.394t-6.309 5.225q-2.75 3.833-5.986 11.496l-55.974 138.184h-23.619zM6027.38 1968.71v-9.522h5.177q6.147 0 10.839-1.161 4.691-1.161 7.442-4.529 2.75-3.368 2.75-9.87v-114.495q0-7.432-2.75-10.915-2.75-3.484-7.442-4.645t-10.839-1.162h-5.177v-9.521h141.716l1.294 40.41h-15.207l-1.618-9.755a21.2 21.2 0 0 0-2.912-9.521q-2.588-4.413-7.765-7.084t-13.589-2.671h-44.974v62.009h66.005v11.147h-66.005v69.905h51.768q9.06 0 14.398-2.671 5.34-2.67 8.251-7.083 2.912-4.413 3.883-9.522l1.617-9.754h15.531l-1.941 40.41zM6200.81 1968.71v-9.522h4.529q5.825 0 10.839-1.045 5.016-1.045 7.927-4.413 2.913-3.367 2.912-10.102v-115.424q0-6.967-3.073-10.335t-7.927-4.412q-4.854-1.046-10.678-1.046h-4.529v-9.521h76.682q25.236 0 41.414 4.644 16.178 4.646 23.781 14.399 7.604 9.754 7.604 24.85 0 13.006-5.663 21.715-5.661 8.71-15.045 13.934-9.383 5.226-20.06 8.013l37.209 50.164q7.118 9.057 13.589 13.818t14.883 4.761h.971v9.522h-4.853q-15.53 0-25.238-1.626-9.706-1.626-16.339-6.154t-12.457-13.122l-36.561-52.254h-22.972v48.074q0 6.735 2.912 10.102t7.603 4.413q4.692 1.045 10.839 1.045h3.236v9.522zm73.122-83.839q23.62 0 33.812-9.522t10.191-27.637q0-11.612-4.206-19.16t-13.427-11.147q-9.222-3.6-24.428-3.6h-18.119v71.066zM6447.03 1971.03q-15.207 0-26.37-2.322t-18.442-6.619q-7.281-4.296-10.839-10.102-3.56-5.807-3.559-12.774 0-4.877 2.75-8.477 2.75-3.599 7.442-5.573 4.69-1.974 11.486-1.974.647 10.45 5.338 18.927 4.692 8.477 13.428 13.238t21.03 4.761q17.796 0 27.502-7.548 9.707-7.548 9.707-21.25 0-9.522-4.692-15.908-4.691-6.387-14.398-11.613-9.706-5.225-25.56-10.799-16.501-6.27-27.502-13.238-11-6.967-16.339-16.14-5.34-9.174-5.339-21.947 0-12.541 8.089-21.715 8.088-9.173 21.839-14.283t31.223-5.109q17.148 0 28.958 3.832t17.957 9.754 6.148 12.657q0 7.432-5.986 10.916t-17.31 3.483q0-7.664-3.397-14.399t-10.516-10.915-18.442-4.18q-15.531 0-23.781 7.315-8.251 7.315-8.251 19.857 0 8.593 3.883 14.747t13.265 11.148q9.384 4.994 25.561 11.031 16.824 5.806 28.311 12.541t17.472 15.444 5.985 21.251q0 14.863-8.412 24.966-8.412 10.102-23.458 15.56-15.045 5.457-34.781 5.457M6536.33 1968.71v-9.522h5.5q5.824 0 10.516-1.161 4.691-1.161 7.441-4.761t2.751-10.335v-113.798q0-7.2-2.751-10.683-2.75-3.485-7.441-4.761-4.692-1.278-10.516-1.278h-5.5v-9.521h83.153v9.521h-5.824q-5.824 0-10.516 1.278-4.69 1.277-7.28 4.761-2.588 3.483-2.588 10.683v113.566q0 6.967 2.588 10.451 2.59 3.483 7.442 4.761 4.854 1.277 10.354 1.277h5.824v9.522zM6669.96 1968.71v-9.522h5.824q6.147 0 11.486-1.045t8.574-4.413 3.235-10.102v-129.359h-25.884q-11.647 0-16.501 5.806-4.853 5.807-6.147 13.47l-1.295 9.755h-14.883l1.294-40.41h158.217l1.294 40.41h-14.883l-1.618-9.755q-.97-7.663-5.824-13.47-4.852-5.805-17.148-5.806h-25.884v128.198q0 7.199 3.074 10.799t8.412 4.761 11.81 1.161h5.823v9.522zM6845 1968.71v-9.522h5.501q6.47 0 11.647-1.161t8.251-4.645 3.074-10.219v-44.822l-50.798-73.621q-2.912-4.412-5.5-7.083t-5.986-3.948-8.25-1.278h-3.56v-9.521h77.653v9.521h-8.089q-7.765 0-10.354 2.207t-2.588 4.993q0 2.787 1.618 6.27 1.618 3.485 3.235 6.039l20.384 30.656q4.854 6.966 8.412 13.354 3.56 6.386 5.824 11.728 2.589-4.645 6.795-11.264 4.206-6.62 8.736-13.818l17.472-26.011q2.912-4.413 4.368-8.245 1.455-3.832 1.455-6.619 0-5.11-4.691-7.199-4.692-2.091-12.78-2.091h-6.795v-9.521h67.299v9.521h-2.912q-4.206 0-7.604 1.626-3.396 1.626-7.118 5.574-3.72 3.948-8.574 10.915l-46.591 67.815v43.661q0 7.2 3.073 10.916 3.075 3.715 8.251 4.993 5.177 1.277 11.324 1.277h6.148v9.522zM5267.07 819.903v-36.96h29.84q7.46 0 13.902-1.526 6.443-1.527 11.36-6.273 4.916-4.747 7.629-13.564 2.712-8.815 2.713-23.736V582.543h-181.411v155.301q0 14.92 2.882 23.736t7.63 13.564q4.748 4.746 11.19 6.273 6.443 1.526 13.902 1.526h29.84v36.96h-239.733v-36.96h29.161q7.46 0 13.902-1.526 6.443-1.527 11.36-6.273 4.917-4.747 7.629-13.564 2.713-8.815 2.713-23.736V403.507q0-13.903-2.882-22.21t-7.799-12.716-11.36-5.934q-6.442-1.526-13.563-1.526h-29.161v-36.96h239.733v36.96h-29.84q-7.46 0-13.902 1.526-6.442 1.525-11.19 6.273t-7.63 13.563q-2.882 8.817-2.882 23.736v133.939h181.411V406.219q0-14.919-2.713-23.736t-7.629-13.563q-4.917-4.748-11.36-6.273-6.443-1.526-13.902-1.526h-29.84v-36.96h239.733v36.96h-29.161q-7.12 0-13.563 1.526-6.444 1.525-11.36 6.273-4.917 4.748-7.629 13.563-2.713 8.817-2.713 23.736v335.355q0 13.564 2.882 21.871 2.882 8.308 7.799 12.546 4.917 4.239 11.19 5.595 6.273 1.357 13.394 1.357h29.161v36.96zM5545.45 819.903v-36.96h29.161q7.8 0 14.242-1.526t11.19-6.273q4.746-4.747 7.459-13.564 2.713-8.815 2.713-23.736V406.219q0-14.919-2.713-23.736t-7.459-13.563q-4.748-4.748-11.19-6.273-6.442-1.526-14.242-1.526h-29.161v-36.96h239.733v36.96h-29.161q-7.46 0-14.072 1.526-6.612 1.525-11.36 6.273t-7.46 13.563q-2.712 8.817-2.712 23.736v331.625q0 14.92 2.712 23.736t7.46 13.564q4.748 4.746 11.36 6.273t14.072 1.526h29.161v36.96zM6099.52 771.414q25.431 0 45.267-5.934t35.435-15.429q15.597-9.494 27.296-21.362t20.515-23.397q5.426 4.07 8.646 12.546 3.222 8.478 3.222 17.294 0 14.58-7.799 30.687t-26.11 29.67-48.489 22.379-74.599 8.817q-60.356 0-105.455-18.311-45.098-18.31-74.938-51.88-29.839-33.57-44.759-80.702-14.92-47.133-14.92-104.438 0-56.288 15.259-103.082t45.268-80.363 74.938-52.219q44.928-18.65 103.929-18.65 40.012 0 69.682 6.273t49.337 17.124 29.5 25.601q9.834 14.75 9.834 31.704 0 12.885-5.595 23.906t-16.615 19.158-27.296 12.716q-16.276 4.577-37.3 4.577 0-17.293-3.73-34.417t-12.715-31.026q-8.986-13.903-23.567-22.549-14.58-8.647-36.282-8.647-32.89 0-55.61 13.903-22.719 13.902-36.451 40.69-13.734 26.787-19.837 65.952t-6.103 89.349 7.459 87.823q7.461 37.638 24.075 62.561 16.615 24.923 43.234 37.299 26.618 12.377 65.274 12.377M6569.83 450.3q11.19-11.868 18.82-21.532 7.629-9.663 12.207-17.971 4.577-8.307 6.612-15.767 2.034-7.46 2.034-14.581 0-11.529-8.816-15.937t-30.178-4.408v-35.943h188.192v35.943q-14.242 0-26.958 4.408t-24.922 12.546q-12.207 8.138-24.075 19.328t-24.075 24.753l-91.553 100.708 129.191 205.147q10.173 16.275 19.497 26.957 9.325 10.681 18.82 17.124 9.494 6.442 19.327 9.155t21.363 2.713h2.712v36.96h-37.299q-26.448 0-46.454-1.696t-35.096-5.086q-15.089-3.39-25.94-8.646-10.85-5.256-18.989-12.377-8.138-7.12-14.75-16.107-6.612-8.985-13.054-19.836l-93.588-159.709-30.857 24.075v117.323q0 14.92 2.883 23.736 2.881 8.817 7.629 13.564t11.529 6.273 14.241 1.526h29.162v36.96h-239.733v-36.96h29.161q7.46 0 13.903-1.357 6.442-1.356 11.359-5.595 4.917-4.237 7.629-12.546 2.713-8.307 2.713-21.871V403.168q0-13.903-2.713-22.21t-7.629-12.716q-4.917-4.409-11.359-5.934-6.444-1.526-13.903-1.526h-29.161v-36.621h239.733v36.621h-29.162q-7.46 0-14.241 1.526t-11.529 6.273-7.629 13.563q-2.883 8.817-2.883 23.736v162.083zM6972.32 777.517h139.025q10.512 0 17.971-3.899 7.46-3.9 12.886-11.02 5.425-7.122 8.646-16.785t4.917-21.193l5.425-32.552h48.15l-5.086 127.835h-406.902v-36.96h29.162q7.46 0 13.902-1.357 6.443-1.356 11.359-5.595t7.63-12.546q2.713-8.307 2.713-21.871V405.88q0-14.919-2.713-23.736t-7.46-13.563q-4.748-4.748-11.19-6.273-6.443-1.526-14.241-1.526h-29.162v-36.621h385.54l2.712 127.835h-48.489l-3.39-32.891q-2.713-25.432-12.886-38.995t-31.535-13.564H6972.32v173.612h164.795v41.707H6972.32zM7638.29 819.903l-270.929-382.488v300.429q0 14.92 2.882 23.736t7.63 13.564q4.746 4.746 11.359 6.273t13.733 1.526h29.161v36.96h-181.41v-36.96h29.161q7.46 0 13.903-1.526 6.442-1.527 11.359-6.273 4.917-4.747 7.629-13.564 2.713-8.815 2.713-23.736V403.168q0-13.903-2.882-22.21t-7.799-12.716-11.36-5.934q-6.443-1.526-13.563-1.526h-29.161v-36.621h154.283l245.159 346.545V403.168q0-13.903-2.882-22.21t-7.799-12.716-11.36-5.934q-6.442-1.526-13.563-1.526h-29.161v-36.621h181.41v36.621h-29.161q-7.122 0-13.564 1.526-6.442 1.525-11.359 6.273t-7.629 13.563q-2.713 8.817-2.713 23.736v414.023zM2594.16 230.71l115.153 318.197a758 758 0 0 1 13.631 39.673 1804 1804 0 0 1 11.597 38.452q5.29 18.31 9.359 33.773 4.069 15.462 6.103 26.448c2.17-10.037 12.004-58.39 14.852-71.818a4871 4871 0 0 1 8.952-41.3 1878 1878 0 0 1 9.562-41.097l43.945-179.851a399 399 0 0 0 2.645-11.393q1.425-6.51 2.645-12.817t1.831-11.8q.61-5.493.611-8.749 0-21.565-12.818-30.517t-40.486-8.952h-19.125v-43.945h217.285v43.945h-15.869q-12.207 0-21.566 2.441-9.359 2.442-16.682 9.562-7.324 7.122-13.225 19.735t-11.596 33.366l-129.395 485.84h-94.808l-139.974-391.032-120.036 391.032h-103.353l-152.587-506.592q-3.663-13.02-8.952-21.566-5.29-8.544-12.411-13.631t-16.276-7.121-21.362-2.034h-10.986v-43.945h278.32v43.945h-19.124q-25.228 0-37.639 9.765-12.41 9.766-12.41 30.518 0 6.917 2.645 20.142t5.9 24.617l55.745 192.464a5284 5284 0 0 1 9.562 34.384 1078 1078 0 0 1 9.562 37.434 1438 1438 0 0 1 8.138 36.418q3.663 17.497 5.29 30.925 5.697-26.856 12.411-50.253a4148 4148 0 0 1 14.038-47.811l109.863-356.852z" style="fill:#fff;fill-rule:nonzero"/><path d="M2943.49 819.903v-36.96h29.161q7.799 0 14.242-1.526t11.189-6.273q4.748-4.747 7.46-13.564 2.713-8.815 2.713-23.736V406.219q0-14.919-2.713-23.736t-7.46-13.563q-4.746-4.748-11.189-6.273-6.443-1.526-14.242-1.526h-29.161v-36.96h239.733v36.96h-29.162q-7.459 0-14.072 1.526-6.612 1.525-11.359 6.273t-7.46 13.563q-2.712 8.817-2.712 23.736v331.625q0 14.92 2.712 23.736t7.46 13.564q4.747 4.746 11.359 6.273 6.613 1.526 14.072 1.526h29.162v36.96zM3221.88 819.903v-36.96h29.162q7.799 0 14.241-1.526 6.443-1.527 11.19-6.273 4.748-4.747 7.46-13.564 2.712-8.815 2.713-23.736V405.88q0-14.919-2.713-23.736t-7.46-13.563q-4.747-4.748-11.19-6.273-6.442-1.526-14.241-1.526h-29.162v-36.621h239.733v36.621h-29.161q-7.12 0-13.733 1.526-6.612 1.526-11.359 5.934t-7.63 12.716q-2.882 8.307-2.882 22.21v374.349h129.192q24.414 0 37.977-15.428t19.667-44.929l11.19-52.219h38.995l-5.087 154.962zM4150.97 562.877q0 56.966-15.598 104.268-15.597 47.302-46.624 81.211-31.026 33.909-76.972 52.728t-106.643 18.819h-229.221v-36.96h29.161q7.8 0 14.242-1.526t11.19-6.273q4.747-4.747 7.46-13.564t2.712-23.736V403.168q0-13.903-2.712-22.21t-7.63-12.716q-4.917-4.409-11.359-5.934t-13.903-1.526h-29.161v-36.621h229.221q57.645 0 103.252 15.089t77.311 45.098 48.489 74.769 16.785 103.76m-117.323 0q0-99.352-36.452-147.841t-107.32-48.49h-39.673v410.293h38.994q35.604 0 62.731-14.75t45.268-42.555 27.296-67.309 9.156-89.348M4709.07 761.716q30.517 0 54.321-7.121 23.804-7.12 42.521-18.514 18.718-11.392 32.756-25.635 14.039-14.241 24.617-28.076 6.511 4.883 10.376 15.056 3.867 10.172 3.866 20.752 0 17.496-9.359 36.824t-31.331 35.604q-21.973 16.277-58.187 26.855-36.214 10.58-89.518 10.58-72.429 0-126.546-21.973t-89.926-62.256q-35.807-40.283-53.71-96.842-17.904-56.559-17.904-125.326 0-67.545 18.31-123.698 18.311-56.152 54.322-96.435 36.01-40.283 89.925-62.663t124.715-22.379q48.014 0 83.618 7.527t59.204 20.549q23.6 13.02 35.401 30.721 11.8 17.7 11.8 38.045 0 15.462-6.714 28.687-6.714 13.224-19.938 22.99t-32.756 15.258q-19.531 5.493-44.759 5.493 0-20.751-4.476-41.3t-15.259-37.231q-10.783-16.683-28.279-27.059t-43.539-10.376q-39.469 0-66.731 16.683-27.263 16.683-43.742 48.828-16.48 32.145-23.804 79.142t-7.324 107.218 8.952 105.388q8.952 45.165 28.89 75.073t51.88 44.759 78.328 14.852" style="fill:#fff;fill-rule:nonzero"/><path d="m1892.76 1053.78-.001-1038.06H38.409v1038.06c52.159 496.95 374.592 835.108 927.171 1038.06 552.58-202.955 875.013-541.113 927.18-1038.06" style="fill:#fff;stroke:#000;stroke-width:17.46px"/><path d="M38.413 579.8c3.491 3.475-.001-561.125-.001-561.125h1854.35l-.001 561.125" style="fill:#a51c21;fill-rule:nonzero;stroke:#000;stroke-width:17.46px;stroke-linecap:butt;stroke-miterlimit:2"/><path d="m38.413 579.817 1854.35-2.963" style="fill:none;stroke:#000;stroke-width:17.46px"/><path d="m1611.05 750.821 3.492 3.487c0-3.487 1.75-8.725-1.746-12.22-3.492-1.746-6.983 0-8.729 1.745 1.746 1.75 5.237 3.492 6.983 6.988m62.863 129.208c0-10.475-1.75-20.954-6.988-29.683a60.2 60.2 0 0 0-20.954-20.954c-8.729-5.238-17.462-5.238-22.7-15.713-1.742-1.746-3.492-1.746-1.742-5.237 0-1.75 3.492-1.75 5.238 0 0-3.496 1.742-12.225-1.746-13.971 1.746-3.492-1.75-13.971-1.75-19.209-1.742 1.75-3.492 1.75-6.979 3.492 1.742-3.492 3.487-5.237 5.237-8.729-3.495 0-5.237-3.492-5.237-6.988-10.479 0-20.954-17.454-26.192-24.441 0 5.237-6.987 0-8.733-1.746-1.746-3.492-3.492-6.983-5.238-8.729-3.491-3.492-6.983-6.988-12.22-8.729-6.988-5.242-15.717-10.479-24.45-13.975-6.98-3.488-13.967-8.73-19.205-12.217 1.746 3.487 3.492 5.237 3.492 8.729-1.746-1.75-12.221-12.225-15.717-10.479-5.237 1.75 1.75 6.987 3.496 8.729-1.746-1.742-20.954-8.729-10.475-1.742-3.496-1.75-8.733-5.237-10.479 0-5.237-1.75-13.971-1.75-17.462-5.237-3.492-1.75-8.73-6.988-12.221-6.988 0 1.746 1.746 3.492 3.491 5.238-10.475-3.492-20.95-1.746-31.429-1.746h-12.225c-3.487 0-5.237 3.496-6.983 3.496-24.446 0-45.396 5.237-68.1 10.475-45.396 8.729-83.808 34.921-113.492 69.842-15.716 19.208-29.683 38.416-43.654 59.366-12.221 15.717-20.954 33.179-36.667 47.146-15.712 13.967-38.412 24.442-57.62 33.175-8.73 3.492-19.209 8.729-29.684 10.479s-20.954 0-31.429 1.742-24.446-5.238-34.921-8.729c-12.225-3.492-24.45-6.984-34.925-8.729-22.696-5.238-45.396-10.475-68.096-13.971l-76.829-10.475c-24.441-3.492-48.891-5.238-71.587-12.221-45.4-12.225-64.604-57.621-99.525-83.813-19.213-13.97-40.163-22.7-64.609-26.191h-17.462c-5.238 0-8.729-6.988-12.221-10.475-8.733-8.734-17.462-15.717-27.937-20.954-3.492-1.746-6.988-5.238-12.225-6.988-6.98-1.746-10.475 0-13.967-3.487-8.729-8.734-17.463-17.463-26.192-24.45-17.462-15.713-34.921-29.684-57.621-34.921-5.237-1.746-12.225-1.746-17.462-1.746-5.238 0-8.729-1.746-13.967-1.746-5.237 0-6.987 3.492-12.225 5.242-6.979 1.742-13.966 1.742-20.95 3.487-22.7 5.242-33.175 26.192-33.175 48.892 0 17.458-3.496 34.921-3.496 52.383 0 19.209 3.496 38.413 8.734 57.621-19.209 1.746-22.7 33.175-13.971 47.146-10.475 3.492-15.717 13.967-17.458 22.696 0 3.496 0 8.733 1.741 12.225s5.242 6.983 5.242 10.475-3.492 8.729-3.492 12.225v17.458c1.746 10.475 5.238 19.209 10.475 27.938-8.729 1.75-20.95 1.75-20.95 12.225-1.75 8.729 3.488 19.204 1.746 29.683-1.746 19.204 10.475 40.158 27.933 50.633 1.75 0 5.238 1.75 6.988 3.496v6.979c0 5.242 0 10.479 1.746 15.717 1.746 8.733 5.237 19.208 10.479 27.937 10.475 17.463 24.442 31.43 43.646 41.909 0 0 1.75 0 1.75 1.746-5.238 6.983-6.988 15.716-8.729 26.191-1.75 12.221-3.496 22.696-1.75 34.921 3.491 22.7 19.208 36.667 38.416 48.892l-6.983 6.983c-1.75 1.746-5.242 3.492-6.988 5.238 0 0 1.746 1.745 1.746 3.495-1.746 6.98 0 8.73 5.242 15.713-5.242 3.492-12.225 12.221-1.75 12.221-1.742 5.237-12.221 3.496-10.475 10.475s8.733 1.75 13.971 0c-3.496 5.241-15.717 5.241-17.463 10.479-3.491 6.983 5.238 6.983 10.475 5.237 1.75 5.238-12.221 6.984-13.966 10.475-1.746 1.75 0 5.238 1.745 5.238 3.492 1.75 5.238 0 8.734-1.742-1.75 3.492-6.988 6.984-6.988 12.221v3.496c0 1.742 0 3.487-1.746 6.979 1.746-1.742 5.238-3.492 6.984 0-3.492 1.75-12.225 15.717-3.492 12.225-3.492-1.746-3.492 3.492 3.492 5.238 3.491 0 5.237-1.746 6.987 0s3.492 5.237 5.238 6.987c3.491 6.979 6.983 12.217 12.221 19.204 1.745 3.492 5.237 5.238 8.733 8.729 3.496 3.492 3.487 3.496 1.742 8.734s-1.742 15.716 1.745 19.204c1.75 1.75 5.242 3.492 6.988 5.237 3.492 1.75 3.492 1.75 6.983 5.242 1.746 1.746 0 6.983 1.746 8.729s5.238 1.746 8.729 1.746c5.238 0 10.475 1.746 15.717 0-5.242 3.492-15.717 10.475-13.971 19.204 0 6.988 10.479 6.988 15.717 5.242 0 6.983 1.746 8.733 10.475 8.733 3.491 0 5.241-3.496 6.987-3.496 3.492-1.745 1.742 0 5.238 0 6.983 1.746 12.221 3.496 13.966 10.475 1.746 6.98 0 15.717 1.75 22.7 0 5.238-3.495 29.684 6.98 27.942 3.495-1.75 6.987-3.496 10.479-3.496s8.733-1.745 12.221-3.491c-5.238 5.237-3.488 26.191 5.241 24.445 1.746 0 5.238-3.491 5.238-3.491 1.746 1.746 3.491 1.746 5.237 1.746 3.492 0 5.238-3.496 8.729-3.496q0 5.243 5.238 5.241c5.237 0 8.733 1.746 12.225 6.984 1.746 3.491 3.492 8.729 5.237 12.225 3.492 5.237 8.73 10.475 13.967 13.966 5.238 3.492 10.479 6.988 17.463 10.476 3.491 1.749 1.75 10.479 3.491 13.97 5.238 10.475 17.463 3.492 20.954-3.491 6.984 10.475 12.221 19.204 24.446 12.225 3.492 10.475 15.717 17.454 22.696 26.187 3.496 5.242 8.733 8.729 13.971 10.479s12.221-1.75 15.717 1.742c6.983 8.733 12.22 19.213 24.445 19.213 8.725 0 10.475-8.734 10.475-15.717 5.238 5.237 6.984 6.983 8.73 13.967 1.745 5.237 3.495 12.225 5.237 17.462 3.496 12.221 3.496 22.696 5.238 34.921 0 22.7 1.75 43.654-3.492 64.608-1.746 5.238 0 22.696-5.238 26.192-1.745 1.741-12.225 1.741-15.712 3.487-5.238 1.75-12.225 5.238-17.463 6.988-5.237 3.491-17.458 12.221-10.479 19.204 5.242 5.237 13.975-1.746 19.213-1.746 3.491-1.746 8.729 0 12.216 0 5.242 0 8.734-1.746 12.225 1.746 5.238 8.729 15.717 10.479 26.192 10.479 6.988 0 17.463 6.983 24.446 10.475 8.733 5.238 22.7 5.238 31.429 5.238 12.225 0 24.446 1.75 36.667 1.75h15.716c5.238 0 6.984 3.487 12.221 5.237 3.492 1.742 8.729 3.488 12.225 3.488s8.729 5.241 13.967 6.987c5.237 1.746 8.729 5.238 12.225 8.729 3.496 3.492 3.492 8.729 6.983 10.475 10.475 10.479 13.971-5.237 15.713-13.966 1.75-12.225-8.729-19.209-17.459-26.192 13.967 0 27.938-3.492 40.159-1.746 8.729 1.746 13.971 5.238 20.954 10.475 1.746 1.75 5.237 3.492 6.987 5.238 1.75 1.745 1.742 5.241 3.488 6.987 6.987 8.729 12.225-6.987 10.479-12.225-1.75-12.221-15.717-20.95-26.192-27.937 13.967 3.495 29.684 6.987 40.159 13.97 8.733 5.238 13.97 17.459 20.954 24.446 6.983 8.73 12.221 0 13.971-8.729 1.741-13.971-3.496-26.192-15.717-33.179 6.983-1.746 1.746-13.967 0-17.463-5.237-8.729-15.712-13.966-26.192-15.712 8.73-3.492 17.459-1.746 24.446 3.496 3.492 3.487 5.238 5.237 5.238 8.725s3.491 6.987 5.237 8.729c5.238 1.75 10.479-1.742 12.225-6.979 1.742-6.988-1.746-13.971-3.496-19.209-22.695-36.67-82.062-13.97-115.241-12.22-10.475 0-19.204 1.741-29.679 1.741s-13.971 0-13.971-10.475c0-8.729 1.746-15.716 0-24.446 0-8.729-3.492-19.204-6.984-27.937-5.237-19.204-8.729-38.413-12.225-57.621 0-3.492-1.741-8.729-1.741-12.221 0-1.746-1.75-6.983 0-6.983 1.741-1.75 3.487 0 5.237-1.75 1.742-3.492-1.75-6.979-3.496-8.729-1.741-5.238-1.741-8.729-1.741-13.967 3.487 3.492 6.979 5.238 10.475 8.729 1.741 3.492 3.491 8.729 6.983 6.988-5.242-8.734-6.983-15.717-10.479-24.45 1.75 1.746 1.75 3.496 5.237 5.237-3.487-5.237-3.487-10.475-6.979-13.966-1.75-3.492-5.237-10.475-3.496-13.967 5.238 10.475 12.225 20.954 17.463 31.429 1.746 3.492 3.492 6.984 8.729 8.729 1.746 1.746 5.238 3.492 6.988 5.238-1.75-3.492-3.492-5.238-1.75-8.729 1.75 0 5.237 1.745 5.237 1.745 1.75 1.746 3.496 5.238 5.238 5.238 3.495 0-1.742-5.237-1.742-6.983-5.238-6.984-8.733-19.209-13.971-27.938l5.238 5.238v-1.746c-8.73-8.729-12.221-24.446-15.713-34.921 8.733 12.225 19.208 26.192 29.683 36.667 3.492 3.491 13.967 6.987 8.73-1.746-5.238-8.733-10.475-17.458-13.967-26.192 6.983 8.734 13.967 26.192 26.192 24.446-1.746-1.746-3.496-5.237-1.746-6.983 1.746 1.746 13.966 8.729 12.221 5.237-1.746-1.746 0-1.746 0-5.237-1.746-3.492-3.492-6.988-6.984-10.479 5.238 5.241 12.225 8.729 17.463 13.97 1.741 1.746 3.491 5.238 5.237 1.746 1.742-1.746-3.496-5.237-5.237-6.987l1.741 1.75c-3.491-5.238-6.979-8.729-10.475-12.225-1.745-3.492-3.491-8.729-6.983-12.221s0-5.238 1.746-8.733c1.746-1.742 10.475 1.75 12.221 1.75 12.225 1.745 20.954-5.242 31.429-8.73 10.475-3.487 22.704-6.987 33.179-10.479l66.35-26.191c8.729-3.492 15.717-10.475 22.7-13.971 8.729-5.238 12.221-13.967 22.696-15.713 41.908-3.491 87.308-19.208 120.479-45.4 33.171-26.191 57.621-62.858 73.338-101.271 17.462-43.65 31.429-89.054 52.383-130.958 10.475-20.954 20.954-40.158 36.667-57.621 13.97-17.458 26.191-31.429 33.179-52.383 6.983-19.204 5.237-40.158 6.983-59.363 1.746-22.7 0-45.404 1.746-68.1 1.746-12.225 3.492-24.445 6.983-34.925 3.492-12.216 8.729-22.695 13.967-34.92 3.496-8.73 3.496-17.459 1.75-26.188 0-1.75 6.983-8.729 8.729-10.479 3.496-1.746 6.983 0 10.475-1.746 10.475-1.746 17.463-10.479 24.45-17.458 3.488-3.496 5.238-6.988 6.979-8.734 1.75-3.491 6.988-5.237 10.479-6.983 6.984-5.237 13.971-8.733 20.95-12.221 10.48-5.241 10.48-3.491 19.213 0 6.979 3.488 15.712 6.984 22.696 8.725 12.225 3.496 26.191-1.741 31.429 12.225 5.237-5.237 3.496-6.983 3.496-10.475m-862.571 794.467c0-3.488-1.746-6.979-1.746-10.475 1.746 1.746 3.492 8.733 1.746 10.475m43.654-5.238c1.746 5.238 8.729 12.225 6.983 17.463-1.746-5.238-6.983-6.983-6.983-10.475-1.75-8.729-5.242-15.717-5.242-24.446 1.75 5.242 3.492 12.221 5.242 17.458m0 10.48c-3.492 0-3.492-1.746-3.492-5.242 0 1.75 1.742 3.496 3.492 5.242m10.475 130.954c0 10.479-3.492 20.954-5.238 31.429-22.7-36.667-36.67-78.571-34.92-122.221 5.237 1.742 5.237 6.979 6.979 10.475 1.75-1.746 1.75 0 0-1.746-1.742-5.237-1.742-5.237-1.742-8.729 0-6.987-3.496-13.971-5.237-20.954 5.237 5.237 6.979 12.221 8.729 17.458 3.491 8.734 5.237 6.988 3.491-1.741 1.746 1.741 3.492 5.237 5.238 6.979 0-1.742-3.492-6.979-3.492-8.729 1.746-1.746 0-3.492 0-5.238-1.746-6.987-8.729-17.462-8.729-24.446 5.238 12.221 6.983 26.192 15.717 34.921-5.242-20.95-8.734-43.654-12.225-64.604 1.746 6.983 5.237 12.221 6.983 17.462 1.746 5.242 3.492 8.729 3.492 12.221 1.75 13.971 6.987 27.938 8.729 41.908 8.733 27.934 12.225 57.621 12.225 85.555m1.746-136.196c0-1.742 0 0 0 0m185.083 202.55-1.742-1.746c0 1.746 1.742 1.746 1.742 1.746m396.367-1164.64c1.741 0 1.741 0 3.491 1.746-1.75 0-3.491-1.746-3.491-1.746m153.65 110.004s-1.742 1.746 0 0"/><path d="M1612.8 742.088c1.746-5.238-3.492-13.967-6.983-6.984-1.746-1.746 0-5.237-3.496-6.983-3.488-3.492-6.979 1.746-6.979 6.983-10.475-8.733-12.225-8.733-15.717 3.492 0 3.492 1.746 5.237 1.746 8.729 0 6.983 3.496 12.225 6.983 17.463 5.238 8.729 12.225 20.954 6.988 31.429a21.05 21.05 0 0 1-8.734 8.729c-3.491 1.746-8.729 5.237-5.237 8.733-15.717 1.742-24.446-24.45-33.175-33.179-6.983-6.983-15.713-8.729-24.446-10.475 0 0 0-1.746-1.746-1.746s-3.491 0-6.983 1.746-5.238 1.746-10.479 1.746c-10.475 0-19.204 3.492-29.679 5.242-6.988 1.741-8.734 3.487-5.242 6.979s6.983 5.237 8.729 10.479 1.75 10.475 3.492 15.712c1.75 1.75 1.75 3.496 3.496 3.496 3.491 0 3.491 8.729 1.741 8.729 0-1.75-5.237-3.491-6.979-1.75s1.742 1.75 1.742 3.496v8.729c-5.238-1.745-12.221-1.745-17.459-3.491-5.237 0-6.983-1.746-12.22-3.492h-5.242c-1.746-1.746-3.488-5.242-5.238-8.729-1.75-3.488-5.237-5.238-5.237-10.479 3.492 1.75 5.237 3.491 8.729 3.491-1.742-1.741-5.237-3.491-6.983-6.979-1.746-1.75 0-5.241-3.492-6.987-8.729-3.492-5.242 20.954-6.983 24.441-1.746 1.75-5.238 3.496-6.988 6.988 0 1.746 0 3.492-1.746 5.237 0 1.75-1.741 6.988 0 6.988 0 0 1.746-3.496 3.496-3.496-3.496 3.496-1.75 19.208 0 26.192 1.742 8.733 6.979 13.971 10.475 22.7 1.746 3.491 5.238 5.237 8.729 8.729 3.492 3.492 3.492 8.733 5.238 13.971 1.75 8.729 3.492 19.208 8.729 27.937 3.496 3.492 8.733 0 10.479-1.746 5.238-5.237 3.492-12.225 6.984-17.462 12.225-19.204 36.67-31.429 55.875-40.159 5.237-1.745 10.475-5.237 15.712-5.237-22.696 12.221-47.142 20.954-64.6 40.158-8.733 8.73 3.492 8.73 10.475 12.225 3.492 1.742 5.238 0 6.983 3.492 1.746 3.492 10.475-1.75 12.225-3.492 0 1.742-5.241 10.475-5.241 12.221 3.491 3.492 13.971-13.971 15.716-15.716 6.988-5.238 17.463-5.238 24.442-8.73 5.242-3.491 10.479-8.729 13.975-15.716 1.742-3.488 1.742-6.984 3.488-10.475 0-1.746 8.729-3.492 10.479-5.238 6.983-3.491-1.75-6.987-3.492-8.729-5.237-5.237 15.717-13.971 19.204-13.971 8.729-1.746 19.209 1.746 29.684 0 1.745 0 1.745 1.746 3.495 0s0-1.746 0-3.491c0 0-1.75 0-1.75-1.746h3.492c1.75-1.746 3.496-1.746 0-3.492-5.237-1.75-13.967 0-19.204 0-10.475 0-19.204-3.492-29.683-1.75-12.225 0-22.7 0-34.925 1.75v-3.492c6.987-3.495 13.97-6.987 20.954-6.987 3.496 0 3.496-1.746 6.987-1.746s6.984-1.742 10.475 0c5.238 0 17.463 12.225 22.7 5.237 3.492-3.491 3.492-5.237 1.742-10.475 5.242 3.496 1.75-1.745 3.496-3.491 1.746-3.492 0-3.492 1.746-5.238s6.983-1.75 8.733 0c3.487 0 10.475 6.984 12.217 1.746 0-1.746-1.742-3.496-1.742-5.237 8.729 0 10.475-1.746 3.492-8.734 0 0-5.238 0-3.492-1.741s1.742-1.75 1.742-3.496c0-5.238-6.98-3.492-1.742-10.475 5.237-6.984 6.983-8.729 3.492-17.459-1.75-3.495 3.491-13.975-3.492-12.225 1.742-3.491 5.237-10.479 3.492-13.966-1.75-5.238-5.238-1.75-8.73 1.741-5.237 6.988-5.237 3.496-3.495-3.491 0-3.488 0-6.983-5.238-6.983m-94.287 31.429c12.22 1.746 22.7 6.983 31.429 17.462 0 1.746-1.746 0-3.492 1.746s-3.492 0-3.492 1.746 0 5.237-1.745 6.983c-5.242 5.238-10.48 8.729-19.209 8.729-6.983 0-13.971-5.237-17.462-10.475-3.492-5.237-3.488-12.22-8.729-15.716 3.491-1.742 5.241-3.492 6.983-5.238 5.237-3.491 10.475-3.491 17.462-1.741 5.238 1.741 8.73 3.487 12.225 6.979 3.488 1.75 3.488 5.237 8.73 5.237 1.745-6.979-15.717-13.966-22.7-15.712m-22.7 19.208c3.491 13.967 17.458 26.192 33.175 24.446 6.983-1.75 15.712-3.492 20.954-8.729-6.984 8.729-17.459 12.216-27.938 12.216-8.733 0-13.971-3.487-19.208-8.725-3.492-3.491-10.475-15.716-6.983-19.208m82.066 61.113c-10.475 0-22.7 3.491-33.179 5.237-5.237 1.75-15.712 5.238-19.204 1.75 5.237-1.75 8.729-5.242 13.967-6.987 0 5.237 12.225 0 13.97 0 8.73-1.746 17.459-1.746 24.446 0m-113.496 45.395q0-2.612 0 0m3.492 20.955q0 2.617 0 0" style="fill:#a51c21"/><path d="M1516.77 780.5c-15.713 5.242-8.734 31.433 8.729 31.433 19.204-1.75 10.475-34.92-8.729-31.433m3.491 24.446c-12.225-5.238-5.237-22.696 5.238-17.459 6.987 5.238 3.492 19.205-5.238 17.459" style="fill:#fc3"/><path d="M950.642 173.817c6.221.158-2.221 7.125-7.7 8.754-10.554 6.1-25.163 10.112-34.35 17.179 35.721 2.125 72.471 8.962 107.716 20.346 64.75 20.908 126.23 52.342 179.663 64.142 15.121.02 27.321 3.012 40.987 1.345 11.059-1.35 22.925.463 34.05.7 11.705.2 20.142 11.496 22.613 22.03 1.525 10.433-.742 28.545-7.054 35.05-13.575 11.55-37.688 8.245-53.817 15.529-18.396 8.312-37.246 15.112-56.512 20.608-32.28 8.275-65.096 14.575-96.713 25.325-29.467 8.717-58.433 19.483-88.55 25.8-20.104 3.063-40.617 2.158-60.871 1.483-33.479-2.895-66.471-10.525-98.608-20.204-5.421-2.958-11.25-5.283-17.321-6.321-3.162-.229-2.054-6.095-3.996-5.041-14.121 6.812-30.071 1.891-44.737-.025-16.767-3.425-34.063-6.221-49.65-13.546-6.334-6.988-18.463-16.754-29.654-19.992-7.017-3.408-15.959 2.621-21.78-3.391-7.416-1.459-15.045-3.28-21.966-6.58-3.392-1.079-6.571-3.95-9.675-4.795-13.663 1.55-26.913 1.85-39.442.366-5.058 6.771-14.596 4.642-20.642.509-5.966-3.238-14.425-9.83-10.487-17.459 4.837-5.841 13.654-4.691 20.379-6.587 9.067-2.225 18.317-1.404 27.358.404 7.805 1.104 15.771 1.037 23.688 2.171-25.433-20.721-43.929-49.063-71.171-67.688-6.079-4.646-17.308-6.775-21.975.696.063 4.042 6.096 18.079.175 18.342-6.354-.479-12.421-16.138-14.204-21.1-2.513-11.359 8.304-19.613 17.75-23.059 8.075-2.516 17.312-2.7 25.337.071 5.38 2.413 11.117 5.134 15.696 8.492.9-7.333 9.854-8.825 14.984-12.421 24.983-12.396 51.52-21.346 77.733-30.742 25.112-8.316 51.987-6.995 77.983-9.904 27.95-1.687 56.542-6.687 84.238-.216 15.262 1.716 30.666 1.304 45.995 1.937 16.755-10.283 43.117-18.2 62.459-22.112a11 11 0 0 1 2.05-.125zm-245.005 47.537c-16.954-.854-31.17 15.2-32.395 31.4-1.413 13.134 7.15 26.809 20.3 29.784 12.175 3.641 26.808 1.204 34.741-9.484 12.292-13.917 8.692-37.929-7.204-47.608-4.629-3.038-9.887-4.634-15.467-4.121z" style="fill:#fff;fill-rule:nonzero"/><path d="M1392.77 199.517c-9.296 12.775-13.071 31.266-25.733 40.854-2.255.412 0 2.725-.671 4.271-.763 8.871-4.75 15.254-11.434 21.129-1.995.7-2.275 1.146-.737 2.712 4.129 8.059 5.375 18.005 1.271 26.342-.884 2.163-2.009 4.3-3.734 5.908 3.909 1.888-.087 5.234.567 8.892.429 7.308-.254 15.463-5.229 21.242 4.012 2.116 4.487 7.379 5.487 11.387 1.588 8.434-.191 17.217-3.279 25.104-.912 1.896-1.875 3.925-3.683 5.146 4.391 2.892 7.058 7.959 8.821 12.842 1.646 5.008 2.175 10.917-.629 15.617 3.858.841 5.087 5.295 7.012 8.3 2.329 4.925 4.1 11.108 1.533 16.258-3.071 4.225-8.708 1.887-12.833 1.017-16.596-4.005-28.567-17.98-42.737-26.834l-36.967-22.812c-9.05-5.804-20.021-9.75-30.546-12.071-3.579-.2-9.371 2.104-7.437-1.517 1.9-3.746-2.446-3.804.85-5.704 16.954-1.975 37.87-6.712 44.15-9.758 10.437-5.071 9.5-4.396 12.275-15.667 5.42-10.996-1.896-42.129-13.105-40.687-6.258-2.313-20.783-4.75-51.704-7.575 25.421-16.963 50.942-29.592 76.646-47.009 20.392-12.887 37.804-28.837 59.15-40.283 17.375-12.292 28.225-5.05 32.692 2.904zm-333.5-19.434c-10.504 17.705-5.621 28.321 14.117 30.15-10.459 9.346-10.321 14.234-2.638 30.155-52.767-20.238-106.242-36.221-161.767-39.917 1.513-4.65 6.334-3.983 9.888-7.092 20.683-14.271 44.692-24.225 69.904-26.158 15.692-1.658 31.271-4.817 46.971-6.496-6.846 12.229 6.725 24.679 23.521 19.354zM678.474 371.521c4.263.758 6.967 4.687 10.183 7.267 5.271 5.091 7.721 12.258 11.521 18.391 2.759-2.621 6.684-.629 8.592 1.996 14.45 15.217 28.692 30.533 43.942 44.896-10.784-15.538-19.83-32.25-31.463-47.183-2.7-2.559-2.683-7.605 1.108-9.105.817-.304 1.805-.462 2.688-.308 6.65 1.825 13.408 3.696 19.975 5.821 2.717 1.45 4.479 4.175 6.787 6.162 1.088-3.35 5.184-3.941 8.071-2.662 11.938 2.812 24.625 3.887 36.721 6.783q2.838.727 5.646 1.563c1.833-4.025 6.892-2.642 10.317-2.109 6.141 1.192 12.65 2.867 17.466 7.046 2.075 2.867 4.859 6.125 4.571 9.792-.817 4.8-6.721 4.154-9.883 6.654-4.079 2.275-7.117 6.792-6.067 11.588.258 4.92 4.517 8.212 6.55 12.333.792 4.046-3.237 5.737-5.804 7.85-5.571 4.2-7.533 12.446-3.642 18.429 2.138 2.85 2.146 7.663-1.571 9.171-4.07 1.229-8.079-1.446-11.979-2.371-7.408-2.321-14.383-5.767-20.841-10.004.1 2.321-1.305 4.779-3.08 6.304-4.25 3.596-5.941 9.704-3.712 14.871 1.512 2.95 1.642 7.358-1.929 8.85-4.329 1.433-8.071-2.308-11.892-3.771-16.183-8.125-29.367-21.562-37.883-37.483-15.188-26.754-32.9-52.038-47.234-79.284-1.595-3.008-4.033-7.404-.662-10.154.767-1.162 2.242-1.041 3.433-1.337zm433.958 21.821 1.575.058c5.242 3.192 9.563 8.804 10.388 14.979.012 4.704-5.154 5.571-8.679 5.629-7.217.517-14.375 3.175-19.121 8.829-3.958 4.225-10.225 3.15-15.05 5.767-5.838 2.425-9.513 8.096-11.975 13.613-3.171 4.304-9.646 1.279-13.575 4.737-6.642 4.292-7.104 12.75-8.554 19.738-1.567 4.212-6.563 5.545-8.592 9.562-4.037 5.175-5.571 12.267-3.521 18.529.017 5.134-6.416 6.367-9.862 3.584-21.013-10.975-38.659-27.455-53.829-45.471-3.488-4.992-7.725-9.65-10.196-15.242-.917-4.637 3.866-6.754 7.712-6.429 10.317-.329 20.496-2.346 30.65-3.754 4.238 2.566 4.2-1.246 8.179-2.371 11.788-3.217 23.413-7.138 35.1-10.538 3.288 1.238 4.038-1.625 7.034-2.541 9.508-3.159 18.971-6.567 28.546-9.367 3.258 1.404 4.287-2.517 7.658-2.537 8.629-2.48 17.304-5.3 26.112-6.775M552.078 256.879c7.188.142 13.113 4.867 18.221 9.433l15.375 13.73c15.754 14.833 30.167 30.937 45.417 46.337 2.196 2.258 1.629 6.5-1.338 7.838-2.35 1.141-5.062.308-7.575.32-8.096-.695-16.121-2.162-24.033-3.975-4.433-1.55-8.367-4.225-12.388-6.612-27.475-15.4-49.587-50.433-48.383-54.317-.742-4.171 1.621-8.429 5.333-10.341 2.825-1.65 6.08-2.584 9.325-2.442z" style="fill:#fff;fill-rule:nonzero"/><path d="M980.421 172.313c-28.379 3.304-43.138 12.029-64.796 25.095 83.75 4.634 142.017 34.421 204.396 59.613 27.667 11.183 55.341 20.696 78.121 22.971 30.191 3.583 45.846.537 76.233 10.804l-77.737-4.388c-27.692-4.233-54.667-13.52-79.263-23.45-77.271-31.229-133.967-54.808-212.762-61.02-2.309 2.266-7.646 2.212-9.95.866 4.266.384 8.387-2.625 11.241-4.662 14.446-11.234 29.904-15.492 44.396-22.129-22.937 3.37-46.967 13.687-63.029 24.595l-46.629-1.404-.579-.166c-17.18-5.021-32.955-4.421-50.8-2.842l-85.255 6.725c-16.329 1.287-32.058 7.975-48.1 13.946-25.691 9.562-51.883 18.366-71.337 32.946l-2.35.441-1.696-.979c-8.558-4.942-15.063-7.521-20.65-8.275s-10.392.167-16.221 2.796l-.029.012h-.017c-5.32 2.346-8.712 4.959-10.679 7.538-1.966 2.579-2.65 5.096-2.454 8.083.387 5.975 5.129 13.867 12.733 22.113 15.209 16.487 37.98 36.558 59.913 46.3l-4.509 2.466c-1.875-1.237-3.266.909-5.27-.429-18-11.992-40.73-27.767-55.375-43.508-8.138-8.75-14.029-17.513-14.609-26.475-.291-4.479.959-8.988 3.888-12.829s7.375-7.021 13.421-9.684h.02c6.642-3 13.109-4.308 20.067-3.366 6.396.866 13.338 3.983 21.329 8.412 22.1-11.608 45.779-22.683 71.271-32.171 15.821-5.862 32.138-12.933 50.009-14.345l85.02-6.705c18.992-1.495 37.78-2.191 52.513 2.942l43.446 1.492c38.846-17.654 68.066-24.829 102.583-27.292z"/><path d="M582.313 242.967c29.795 22.558 40.216 48.537 66.508 63.725-30.95-12.942-50.55-45.592-71.313-59.384zm2.263 33.058c18.617 17.371 33.538 37.408 51.683 52.313 6.496 5.237 13.063 9.283 22.317 8.979-6.296 4.854-20.679 1.171-26.608-3.229-17.042-16.575-34.834-37.242-52.109-52.784-12.221-9.325-22.675-25.708-35.525-17.304-11.979 7.879 28.204 41.692 45.7 54-15.987-6.371-44.621-34.275-48.796-40.238-6.795-9.72-8.516-14.7-.425-19.883 15.5-9.933 32.4 8.129 43.721 18.121z"/><path d="M949.021 431.271c3.083.196 6.275-.288 9.271.496 2.625 1.246 3.645 4.229 5.404 6.375 6.533 9.441 13.571 18.575 21.712 26.695 1.909 1.701 3.25 4.313 2.117 6.788-1.175 3.017-4.312 2.492-6.775.533-11.5-7.504-22.196-16.083-31.417-26.162-2.083-2.571-4.487-4.933-6.183-7.775-1.237-2.784.604-6.254 3.587-6.813.755-.166 1.534-.096 2.305-.108z" style="fill:#ac93a7;fill-rule:nonzero"/><path d="M709.925 379.079c13.042 14.667 24.171 30.354 34.35 47.079 1.483 2.534 3.187 4.959 4.5 7.575 1.192 2.575-.417 5.925-3.158 6.634-2.221.77-4.517-.454-5.992-2.096-10.483-10.363-19.833-21.788-29.642-32.779-7.716-8.705-15.729-17.205-24.625-24.721a101 101 0 0 0-9.587-7.121c3.067 6.171 6.462 12.167 9.971 18.087l29.096 48.009c1.379 2.4.337 5.816-2.238 6.916-2.192 1.138-3.279-.654-4.742-2.541-11.966-13.117-22.562-27.8-31.179-43.325-4.887-9.025-8.654-18.563-10.85-28.646-.546-2.021-2.521-3.313-.829-4.713 1.354-1.195 3.292-1.5 4.983-.912.892.425 1.617 1.054 2.275 1.75.071-.588.142-1.167.425-1.708 10.584-4.996 29.221 6.816 37.275 12.512z" style="fill:#fff;fill-rule:nonzero"/><path d="M805.983 243.25c22.525 5.767 36.859 31.029 39.371 40.613 20.225 24.058 19.284 69.691-8.704 85.741-3.362 11.071-10.171 24.404-22.787 31.329 6.929 1.1 15.012 3.655 19.366 7.292 66.471 18.371 96.388 17.842 135.163 16.933 31.85-.75 61.646-10.495 117.696-26.95 48.033-14.55 93.808-29.616 138.45-39.683 26.783-5.746 33.208-4.192 56.845-13.183-23.07 15.662-28.37 12.858-55.058 18.666l-138.708 40.546c-48.279 15.075-82.617 26.788-118.842 28.246-49.717 2-94.171-6.337-141.479-19.35-7.075-4.329-13.888-6.404-22.738-6.25-23.795.425-57.462-7.529-86.55-17.171l-11.275-12.104c22.938 13.179 61.805 19.283 83.575 21.65 22.775 2.471 40.809-17.992 40.834-34.742 28.304-13.795 26-57.033 8.596-78.275-3.3-17.125-19.18-36.783-33.767-43.287zm-210.25 81.921c13.275 2.967 26.63 5.437 36.942 4.729l3.671 5.371c-11.804.012-24.592.167-33.563-2.525-13.562-1.908-22.675 1.696-34.475 3.529-1.921.879-2.804 1.992-2.921 3.217-.495 5.179 12.705 12.45 18.305 13.45 6.679-1.479 7.075-3.134 6.846-7.134 1.649.334 2.783 1.171 3.395 2.542 14.525 2.292 37 3.408 39.442-2.083 6.313 6.233 24.925 13.179 32.717 12.358.062 1.288 2.65 3.204 6.833 5.463h-.425l12.483 13.329c-9.383-4.167-17.104-8.188-21.533-11.509-12.079-1.32-23.379-7.883-31.646-12.441-11.725 1.121-23.941 2.096-37.575-.009-10.754 10.638-23.404 2.396-33.154-7.987-2.325-2.383-3.025-6.042-1.996-8.721 1.059-2.683 2.967-4.575 5.088-6.392l.8-.704 1.058-.15c9.396-1.266 18.196-4.475 29.813-4.346zm201.78-40.883c.483 11.883-3.071 23.95-6.434 40.266-7.725 39.371-38.325 53.542-68.191 45.9-18.525-5.646-31.455-12.187-40.071-21.996 15.521 12.092 31.133 15.646 41.471 17.721 29.67 5.988 57.879-12.341 61.708-42.625.787-13.487 6.925-27.95 6.792-39.741-.309-10.309-2.517-21.867-18.342-31.292 15.346 2.85 22.592 21.7 23.067 31.771z"/><path d="M712.046 379.217c22.479 23.112 33.179 46.941 47.341 66.45 12.417 17.112 27.455 29.983 54.109 36.216-10.259-13.9-1.684-25.258 7.262-30.325-12.6-13.116-7.941-28.366 9.767-32.383-2.183-2.233-2.954-5.071-4.196-7.712l6.196-3.375c1.021 6.012 5.242 10.7 8.596 15.758-22.534 2.087-25.746 16.054-8.804 29.3-11.863 6.117-20.688 10.896-14.017 23.55 2.467 2.675 6.079 5.241 8.879 9.333l4.513 6.592-7.905-1.092c-32.887-4.525-51.591-18.446-65.804-36.154-35.104-30.658-62.021-67.046-85.525-84.058-4.083-3.255-3.508-3.859-3.662-7.671 12.433-4.275 35.6 7.675 43.279 15.596zm-35.088-10.68c25.559 15.888 47.871 49.246 68.042 68.063-10.696-17.517-21.504-36.025-37.538-54.529-6.491-7.509-25.35-18.588-30.504-13.571z"/><ellipse cx="705.638" cy="252.5" rx="32.192" ry="33.754" style="fill:#fff;stroke:#000;stroke-width:5.04px"/><ellipse cx="708.442" cy="253.067" rx="18.063" ry="18.938" style="stroke:#000;stroke-width:2px"/><path d="M665.379 273.271c15.646 27.612 39.963 28.75 64.534 19.433-27.242 24.721-54.296 6.217-64.538-19.421zm15.609-46.2c-6.038 7.666-11.092 22.387-7.055 35.012 2.229 6.959 5.709 21.071 27.388 26.2-35.567-.679-42.192-42.946-20.334-61.212Zm43.346 227.937c9.363 18.95 22.025 34.171 47.246 44.792-7.771-15.433 2.592-25.183 12.254-28.667l9.096 4.663c-12.725 4.033-20.196 6.091-15.746 19.687 1.971 3.05 5.1 6.184 7.175 10.679l3.338 7.263-7.609-2.404c-31.658-9.996-48.195-29.95-59.229-49.796-30.316-30.413-46.287-51.233-56.85-89.25-3.479-3.896-5.029-8.425-4.541-12.213 6.841.03 12.775 5.775 17.229 14.555 1.658 3.279 2.996 6.695 5.05 10.408 12.016 21.717 30.354 49.858 42.583 70.279zm-56.275-84.275c2.98 18.659 23.63 52.075 43.6 72.9-6.583-10.041-24.383-39.504-35.404-58.566-4.875-8.459-4.437-10.071-8.192-14.338z"/><path d="M1030.11 170.892c-2.288-.042-5.059.137-7.646.221zm-7.646.221c-15.15.995-35.83 5.729-62.421 17.854-8.954 4.083-17.258 8.491-25.171 12.912l-8.629-1.287c10.008-5.146 20.779-10.325 32.433-14.867 28.142-10.983 48.484-14.079 63.788-14.612m24.654 17.012c-6.684.7-27.2 3.675-47.388 9.558-11.341 3.309-20.45 6.905-28.158 10.555l-7.296-1.655-3.862-.637c9.896-4.5 22.129-8.633 37.508-11.713 20.767-4.15 43.079-5.462 49.196-6.108m-56.813 24.363c8.054.9 16.6 1.625 30.425 1.795l40.946.163c-11.279 0-21.933 1.529-40.8 3.371l-12.162.987-16.73-5.925z" style="fill-rule:nonzero"/><path d="M1399.62 197.929c-16.404 16.046-13.409 33.625-28.258 44.404.137 5.696-2.084 16.425-13.421 24.625 5.05 10.821 5.491 22.13-.725 32.671 3.008 12.892 2.591 24.471-3.625 33.188 8.412 12.533 3.708 32.829-2.817 41.908 7.467 8.563 9.617 18.958 7.271 26.763 6.587 9.27 8.217 17.791 7.442 30.683-20.259 2.767-49.942-23.113-70.342-35.525-14.171-8.625-28.046-18.6-41.425-24.304s-29.692-7.767-38.058-6.196l6.291-4.958c10.942-2.05 20.984-.834 34.929 5.116s25.713 16.796 40.342 24.909c20.375 11.283 40 32.962 61.979 34.783 2.292-6.4-.962-13.363-7.525-21.796l-.6-.829-.054-1.046c4.383-8.346.604-17.992-6.454-24.771l-1.717-1.712.979-2.213c6.5-6.671 12.634-27.133 2.788-39.908l-.525-1.833 1.25-1.425c5.612-6.492 6.079-16.73 2.85-29.971l-.375-1.517.867-1.3c6.479-9.808 5.925-19 .329-29.571l-1.163-2.525c11.496-4.008 17.775-21.754 14.779-27.366l.73-.513c16.658-11.521 13.212-23.771 24.412-38.646-5.871-4.721-12.346-8.358-18.746-5.821-18.241 7.263-40.975 32.434-64.196 44.5-18.575 11.663-54.737 32.996-78.795 47.388l-.221.104c-6.834 3.2-15.15.921-29.579.9l.02-5.283c13.638-.034 20.609.687 26.455-2.021l78.8-47.375c15.304-6.996 43.554-34.275 64.029-43.321 12.65-5.592 23.7 2.088 32.05 9.792z"/><path d="M1352.69 270.571c-2.338-.7-6.205-1.367-13.909.183-5.792 1.163-12.379 3.267-20.337 6.042-17.896 6.242-38.346 12.496-48.005 14.067 13.134-2.138 25.763-7.788 46.688-17.346 7.617-3.459 14.233-6.35 20.246-8.217 8.041-2.517 13.421-2.642 17.362-1.462zm2.913 32.504c-2.179 1.583-6.121 3.229-12.713 4.642-4.899 1.041-10.841 1.87-17.091 2.287-6.284.421-12.217.392-17.221-.046-6.821-.591-10.487-1.783-12.671-2.7 2.129.896 6.079 1.575 12.709 1.309 4.904-.2 10.716-.9 16.733-2.067s11.55-2.658 16.012-4.242c6.105-2.158 8.788-3.95 10.088-4.895zm10.087-61.104c.084.1-.279-.504-2.133-1.146-1.433-.492-3.6-.975-6.65-1.2-5.333-.4-12.996.012-22.442 2.129-24.95 5.592-47.545 19.5-63.42 34.271 16.137-15.013 37.008-29.825 62.516-37.683 9.492-2.925 17.521-4.171 23.438-4.388 3.387-.121 6.108.083 8.216.517q4.101.82 5.896 2.967zm-13.846 94.237c-6.821 3.463-14.05 3.204-23.384-.6-8.204-3.354-16.695-6.996-21.612-7.233 4.912.233 14.279 2.292 22.612 3.842 9.492 1.766 14.142.25 19.188-2.313zm-2.304 40.938c-1.521.979-3.559 1.308-6.092 1.112q-2.912-.219-7.054-1.425c-4.842-1.412-10.896-3.854-17.304-7.116-17.155-8.721-26.371-17.471-30.7-23.313 4.083 5.517 15.037 13.613 32.129 20.083 6.6 2.5 12.558 4.105 17.121 4.813 2.604.408 4.55.487 5.929.392 1.762-.121 2.254-.546 2.162-.492zm8.687 28.546c-.9 1.171-2.187 1.833-3.596 2.129-1.333.287-2.866.266-4.604.025-2.662-.367-6.117-1.313-10.35-2.863-7.429-2.716-17.233-7.325-27.504-13.262-10.375-5.996-20.021-12.65-27.5-19.159-10.217-8.887-14.05-15.395-15.467-19.849 1.409 4.429 5.784 10.704 16.346 18.766 7.771 5.934 17.725 11.917 28.283 17.129 10.53 5.2 20.321 8.971 27.58 10.984 4.154 1.15 7.195 1.645 9.233 1.716 1.325.046 2.092-.095 2.379-.22.25-.109-.137-.046-.408.308zm-612.35-10.65 2.542-2.475c5.975 6.225 16.841 20.112 28.571 32.421 12.937 13.579 23.645 20.825 32.875 24.337-9.638-3.667-20.325-8.992-35.309-21.783-11.016-9.396-27.4-26.138-31.216-30.021l2.541-2.471zm40.192 3.883c5.221.979 11.741 3.896 20.012 8.6l18.509 10.013a1474 1474 0 0 0-19.93-6.784c-10.258-3.287-14.058-3.783-19.9-4.883zm-97.1-19.496c.329.688 4.146 1.483 4.508 2.225 3.383 6.871 12.979 27.638 25.767 49.709 15.458 26.662 28.1 42.395 37.296 50.112-9.717-8.154-22.546-21.871-40.059-48.396-14.087-21.354-25.175-41.829-28.566-48.704-.367-.75 1.341-4.258 1.012-4.946z" style="fill-rule:nonzero"/><path d="M962.65 430.779c12.183 24.525 43.883 54.721 71.108 66.488 3.067 1.329 5.388 4.158 8.08 5.496-20.409-2.846-33.359-12.146-49.559-23.696-25.716-10.129-43.337-29.021-54.579-44.188-.279-.4-.546-.779-.8-1.504a3.7 3.7 0 0 1-.233-1.587c.045-.755.462-1.892 1.266-2.588l2.484.879c.733-.633 1.658 1.717 1.695 1.075s1.521.088 1.45-.108c-.137-.392-.166-.342-.083-.221 9.958 14.217 29.517 33.704 41.354 40.021-13.225-11.863-24.637-29.304-31.858-39.625z"/><path d="M1113.38 390.304c10.754 5.608 13.138 14.9 16.763 24.917-13.571-.188-28.229-1.025-34.063 12.25-14.716.196-22.266 7.15-24.983 19.729-16.158-2.183-22.65 8.817-20.046 22.063-14.733 7.891-17.096 27.308-9.642 33.383l-7.712-3.267c-9.679-10.379-.567-28.391 9.887-33.621-.687-15.237 7.813-26.5 22.334-25.895 4.512-13.43 14.058-17.059 26.116-18.805 7.559-9.954 17.163-11.366 28.042-12.075-.933-2.416-1.946-5.35-2.817-6.662-1.412-2.125-3.108-3.554-7.175-5.684zM739.03 272.983c8.234-23.808 3.363-42.208-12.916-53.341-4.23-2.892-9.3-4.721-15.38-6.163 34.967-3.071 40.759 34.867 28.296 59.504"/><path d="m1004.75 425.975 13.283 17.675c6.846 8.163 12.45 12.746 16.409 14.329-4.434-1.771-9.971-4.425-18.884-11.804-7.592-6.279-16.804-15.538-18.721-17.933zm41.604-14.408c1.758 2.062 3.671 5.979 6.3 10.587s4.796 7.571 6.683 8.708c-2.7-1.62-4.35-2.22-9.379-6.429l-8.971-8.262zm33.975-9.18 3.2-1.491c1.196 2.562 2.3 10.966 4.083 12.746-1.783-1.78-9.191-6.984-10.487-9.763l3.25-1.483z" style="fill-rule:nonzero"/><path d="M891.258 260.671c18.721-7.767 7.771-42.871-5.366-41.6 24.512-3.458 26.983 38.708 5.366 41.6m2.121 57.712c19.738-4.554 14.758-41 1.583-41.937 24.771.65 20.209 42.692-1.583 41.937m-14.762 46.759c20.15 2.104 27.266-33.988 15.112-39.154 23.242 8.62 5.225 46.899-15.116 39.133zm46.408-13.138c20.208-1.379 21.042-38.154 8.183-41.162 24.354 4.554 13.213 45.345-8.183 41.162m.421-61.1c20.008-3.171 17.562-39.875 4.483-41.725 24.667 2.363 17.204 43.988-4.483 41.725m-28.254 114.358c19.566 5.296 32.354-29.17 21.191-36.237 21.542 12.292-2.333 47.183-21.191 36.238Zm-49.3-2.617c19.058 6.871 34.612-26.463 24.05-34.392 20.47 13.967-6.146 46.829-24.05 34.392m117.533-84.121c18.712-7.771 7.746-42.879-5.4-41.617 24.508-3.462 26.983 38.705 5.367 41.6zm-15.679 63.925c20.208-1.383 21.041-38.158 8.183-41.167 24.354 4.55 13.213 45.346-8.183 41.167m-26.934 41.546c13.934 5.021 25.305-19.342 17.584-25.142 14.962 10.213-4.492 34.242-17.584 25.142m38.638-6.142c20.254.325 24.171-36.25 11.608-40.329 23.888 6.583 9.359 46.296-11.608 40.329m27.971-63.571c19.662-4.875 14.083-41.229.896-41.958 24.779.246 20.9 42.358-.896 41.958m9.533-60.108c13.242-7.675 1.542-32.883-8.179-30.633 18.025-5.034 24.079 26.341 8.179 30.633m29.879 80.383c17.5-3.058 14.859-35.212 3.367-36.658 21.658 1.742 15.679 38.35-3.363 36.654zm4.167-42.525c17.771-9.716 3.129-43.458-9.813-40.804 24.03-6.067 30.996 35.642 9.813 40.804m26.837 70.213c16.763-4.154 12.013-35.159.767-35.767 21.125.204 17.821 36.104-.767 35.767m18.084-55.804c15.354-4.667 9.441-33.196-1.021-33.225 19.612-.834 18.283 32.641 1.021 33.225m34.4 38.637c15.796-3.479 11.316-29.425.721-29.946 19.904.175 16.787 30.234-.721 29.946m16.6-45.842c16.129-6.8 6.271-33.545-5.109-32.016 21.221-3.721 23.805 28.887 5.109 32.016m27.404 34.896c16.533-6.333 6.429-31.208-5.233-29.787 21.75-3.463 24.4 26.871 5.233 29.787m21.333-41.25c14.513-5.558 5.642-27.404-4.6-26.154 19.1-3.042 21.429 23.596 4.6 26.154m29.946 24.721c14.129-5.367 5.513-26.629-4.45-25.425 18.575-2.954 20.834 22.938 4.471 25.425zm24.792-28.958c13.571-7.779 1.358-28.113-8.629-25.284 18.516-5.983 24.962 20.13 8.629 25.284m-232.167 82.429c17.696 1.537 23.4-30.221 12.654-34.563 20.492 7.238 5.317 41.088-12.658 34.563zm-45.421-148.683c13.238-7.675 1.542-32.88-8.179-30.634 18.025-5.037 24.079 26.338 8.179 30.634"/><path d="m540.004 269.521.071-3.638 6.512-6.075 9.159-.55 17.325 9.605 25.571 25.925c-10.263-7.68-55.85-31.467-29.355 8.608l-6.404-5.404-7.729-8.055-8.604-8.391-4.412-6.513zm22.738 71.9 1.325-7.059 8.162-1.987 16.333-2.208H604.9l18.096 2.646 11.042-1.546 8.162 5.3 15.45 1.546c-10.133 6.675-15.308 5.35-26.483 2.754 2.958 10.679 26.033 13.012 38.737 12.587l4.971 5.296c5.079.779 10.15-.179 15.229-3.971l13.471 7.625 16.996 4.413 15.229 2.208 16.996-.663c18.4 24.684 64.275 17.534 79.625 2.151 21.808 13.437 34.7 22.787 155.304 16.295 51.429-2.758 108.05-13.721 159.033-22.275 62.259-10.446 132.234-17.271 141.825-29.983-.158 5.292-3.191 10.5-13.925 14.871l-43.091 8.116-16.9 6.342-48.563 14.567-51.521 15.075 9.917 16.925c-17.125-7.4-27.933-3.767-36.212 6.854-20.975-.079-22.98 9.325-29.967 16.242-19.542-1.746-30.279 7.325-35.896 16.537-19.142-9.246-38.229-11.625-52.379-.896-5.829-5.083-11.917-3.671-13.533.496l-16.755-18.858-30.241-1.546-60.917-12.804-19.429-3.971 5.079 7.946-14.567 8.166 1.542 17.659 4.417 6.841c-26.638-1.529-46.267-25.262-68.204-43.925-11.634-4.875-22.275-8.245-21.634 5.296l-12.358-15.008c-9.504-6.971-14.221-6.763-14.571 0l12.579 18.1c-8.704-5.921-12.341-5.242-11.471 1.321-9.004-13.817-13.591-13.6-16.77-9.254l-6.621-9.938c-5.309-5.533-10.513-10.783-9.717 1.988l-9.046-21.188-3.087-13.904-3.096-5.079-24.058-7.063-5.438-6.466c-1.9 1.979-4.783 2.687-7.129 4.029l-18.1-.442-14.567-.883-5.516 4.633-7.505.663zm3.95-1.308c.07 1.945 4.45 4.629 5.795 6.666 3.984 7.521 19.363 4.088 17.342-1.133 3.746-.671 4.346.775 5.417 1.612 9.183 1.6 25.041 3.184 33.791-2.041 1.709-1.021 1.817-2.571 2.009-4.288-1.046-.121-.734-4.137-3.117-4.458-6.704-.904-17.387-.784-21.712-1.075-3.142-.213-10.792-2.288-13.992-2.167-8.713.334-22.321 2.2-25.267 6.096-.187.246-.25.508-.237.787z" style="fill-opacity:.29"/><path d="M1048.16 158.821c-23.767 8.175-8.109 27.291 16.495 18.596-15.325 14.204-5.495 31.662 12.125 30.783-12.054 11.663-11.97 24.054.746 30.817l-3.412 4.704c-13.321-8.209-16.53-21.221-7.846-31.608-14.567-2.667-17.825-14.08-13.134-27.509-15.774-.521-27.52-5.762-21.191-19.3-18.438-.625-41.829 6.317-52.142 7.104l.254-5.475c22.45-2.916 43.304-9.025 68.105-8.112"/><path d="M294.592 315.329c-2.734 44.463-22.792 95.975 38.783 155.834l2.042 52.966c-61.275-30.737-63.617-102.875-72.467-164.996z" style="fill:#ffd200;fill-rule:nonzero;stroke:#000;stroke-width:8.54px;stroke-miterlimit:4"/><path d="M355.808 209.383c43.792-41.737 57.546-76.666 50.021-123.237-35.471 15.075-54.812 60.042-71.454 110 27.379-59.454 15.238-95.7-3.063-128.334-11.425 36.392-29.041 66.496-20.416 123.238.029-62.317-31.475-91.321-77.575-104.908 6.329 39.725 25.716 85.554 55.125 125.279-37.163-67.342-84.808-57.65-124.529-61.113 21.979 48.734 68.271 65.792 111.258 80.463-49.667-17.284-98.133-32.179-131.671 12.221 55.629 29.737 97.763 19.258 137.796 14.262-55.046 4.763-104.492 17.367-123.508 69.259 54.125 1.258 93.496-22.059 133.721-57.034-47.767 33.692-64.446 76.129-62.271 126.296 40.7-34.717 73.65-71.642 76.558-117.129-20.983 74.475-6.596 111.571 18.375 137.5 22.071-47.729 7.904-87.146 10.208-138.517.454 73.854 37.7 89.588 69.409 114.071-12.692-42.679-3.513-72.55-52.059-122.221 71.246 84.946 90.384 59.413 120.45 57.038-30.45-42.35-67.12-60.325-108.2-71.296 34.592 7.062 75.105 26.383 120.446-16.296-35.204-18.183-73.166-27.629-119.425-10.188 57.388-13.02 88.492-35.225 105.138-67.216-43.684-11.859-71.875 5.675-114.325 47.866z" style="fill:#f1ede5;fill-rule:nonzero;stroke:#000;stroke-width:8.54px;stroke-miterlimit:4"/><path d="M276.208 236.379c0 24.471 19.88 44.309 44.404 44.309 24.526 0 44.401-19.838 44.401-44.309s-19.884-44.304-44.401-44.304c-24.516 0-44.404 19.838-44.404 44.304m1334.17 78.95c2.73 44.463 22.792 95.975-38.791 155.834l-2.038 52.966c61.275-30.737 63.617-102.875 72.471-164.996z" style="fill:#ffd200;fill-rule:nonzero;stroke:#000;stroke-width:8.54px;stroke-miterlimit:4"/><path d="M1549.16 209.383c-43.791-41.737-57.545-76.666-50.016-123.237 35.471 15.075 54.804 60.042 71.45 110-27.383-59.454-15.238-95.7 3.058-128.334 11.429 36.392 29.046 66.496 20.417 123.238-.029-62.317 31.475-91.321 77.579-104.908-6.325 39.725-25.717 85.554-55.121 125.279 37.163-67.342 84.8-57.65 124.529-61.113-21.979 48.734-68.279 65.792-111.262 80.463 49.667-17.284 98.133-32.179 131.671 12.221-55.63 29.737-97.759 19.258-137.796 14.262 55.041 4.763 104.487 17.367 123.504 69.259-54.121 1.258-93.492-22.059-133.712-57.034 47.762 33.692 64.441 76.129 62.262 126.296-40.7-34.717-73.65-71.642-76.554-117.129 20.987 74.475 6.592 111.571-18.371 137.5-22.071-47.729-7.912-87.146-10.208-138.517-.459 73.854-37.704 89.588-69.413 114.071 12.692-42.679 3.513-72.55 52.059-122.221-71.25 84.946-90.388 59.413-120.446 57.038 30.45-42.35 67.116-60.325 108.191-71.296-34.583 7.062-75.1 26.383-120.445-16.296 35.204-18.183 73.17-27.629 119.429-10.188-57.392-13.02-88.492-35.225-105.134-67.216 43.68-11.859 71.867 5.675 114.321 47.866z" style="fill:#f1ede5;fill-rule:nonzero;stroke:#000;stroke-width:8.54px;stroke-miterlimit:4"/><path d="M1628.76 236.379c0 24.471-19.884 44.309-44.4 44.309-24.517 0-44.405-19.838-44.405-44.309s19.88-44.304 44.405-44.304c24.524 0 44.4 19.838 44.4 44.304" style="fill:#ffd200;fill-rule:nonzero;stroke:#000;stroke-width:8.54px;stroke-miterlimit:4"/></svg>