<svg fill-rule="evenodd" stroke-linecap="round" stroke-linejoin="round" stroke-miterlimit="1.5" viewBox="0 0 1905 525" xmlns="http://www.w3.org/2000/svg"><text font-family="TimesNewRomanPSMT,Times New Roman,serif" font-size="166.667" x="705.871" y="400.858">UNIVERSITY</text><text font-family="TimesNewRomanPSMT,Times New Roman,serif" font-size="66.667" x="716.615" y="485.023">A<tspan x="761.081 777.748" y="485.023 485.023"> D</tspan>AISY<tspan x="978.985 995.651" y="485.023 485.023"> L</tspan>EAGUE UNIVERSITY</text><g font-family="TimesNewRomanPS-BoldMT,Times New Roman,serif" font-weight="700"><text font-size="166.667" x="1190.18" y="218.212">HICKEN</text><text font-size="200" x="502.183" y="218.212">W</text><text font-size="166.667" x="702.183" y="218.212">ILD</text><text font-size="200" x="1045.6" y="218.212">C</text></g><g stroke="#000" stroke-width="4.19"><path d="m454.263 252.906v-249.134h-445.044v249.134c12.518 119.268 89.902 200.426 222.521 249.135 132.619-48.709 210.003-129.867 222.523-249.135" fill="#fff"/><path d="m9.219 139.152c.838.834 0-134.67 0-134.67h445.044v134.67" fill="#a51c21" fill-rule="nonzero" stroke-linecap="butt" stroke-miterlimit="2"/><path d="m9.219 139.156 445.044-.711" fill="none"/></g><path d="m386.653 180.197.838.837c0-.837.42-2.094-.419-2.933-.838-.419-1.676 0-2.095.419.419.42 1.257.838 1.676 1.677m15.087 31.01c0-2.514-.42-5.029-1.677-7.124a14.45 14.45 0 0 0 -5.029-5.029c-2.095-1.257-4.191-1.257-5.448-3.771-.418-.419-.838-.419-.418-1.257 0-.42.838-.42 1.257 0 0-.839.418-2.934-.419-3.353.419-.838-.42-3.353-.42-4.61-.418.42-.838.42-1.675.838.418-.838.837-1.257 1.257-2.095-.839 0-1.257-.838-1.257-1.677-2.515 0-5.029-4.189-6.286-5.866 0 1.257-1.677 0-2.096-.419-.419-.838-.838-1.676-1.257-2.095-.838-.838-1.676-1.677-2.933-2.095-1.677-1.258-3.772-2.515-5.868-3.354-1.675-.837-3.352-2.095-4.609-2.932.419.837.838 1.257.838 2.095-.419-.42-2.933-2.934-3.772-2.515-1.257.42.42 1.677.839 2.095-.419-.418-5.029-2.095-2.514-.418-.839-.42-2.096-1.257-2.515 0-1.257-.42-3.353-.42-4.191-1.257-.838-.42-2.095-1.677-2.933-1.677 0 .419.419.838.838 1.257-2.514-.838-5.028-.419-7.543-.419h-2.934c-.837 0-1.257.839-1.676.839-5.867 0-10.895 1.257-16.344 2.514-10.895 2.095-20.114 8.381-27.238 16.762-3.772 4.61-7.124 9.22-10.477 14.248-2.933 3.772-5.029 7.963-8.8 11.315s-9.219 5.866-13.829 7.962c-2.095.838-4.61 2.095-7.124 2.515s-5.029 0-7.543.418-5.867-1.257-8.381-2.095c-2.934-.838-5.868-1.676-8.382-2.095-5.447-1.257-10.895-2.514-16.343-3.353l-18.439-2.514c-5.866-.838-11.734-1.257-17.181-2.933-10.896-2.934-15.505-13.829-23.886-20.115-4.611-3.353-9.639-5.448-15.506-6.286h-4.191c-1.257 0-2.095-1.677-2.933-2.514-2.096-2.096-4.191-3.772-6.705-5.029-.838-.419-1.677-1.257-2.934-1.677-1.675-.419-2.514 0-3.352-.837-2.095-2.096-4.191-4.191-6.286-5.868-4.191-3.771-8.381-7.124-13.829-8.381-1.257-.419-2.934-.419-4.191-.419s-2.095-.419-3.352-.419-1.677.838-2.934 1.258c-1.675.418-3.352.418-5.028.837-5.448 1.258-7.962 6.286-7.962 11.734 0 4.19-.839 8.381-.839 12.572 0 4.61.839 9.219 2.096 13.829-4.61.419-5.448 7.962-3.353 11.315-2.514.838-3.772 3.352-4.19 5.447 0 .839 0 2.096.418 2.934s1.258 1.676 1.258 2.514-.838 2.095-.838 2.934v4.19c.419 2.514 1.257 4.61 2.514 6.705-2.095.42-5.028.42-5.028 2.934-.42 2.095.837 4.609.419 7.124-.419 4.609 2.514 9.638 6.704 12.152.42 0 1.257.42 1.677.839v1.675c0 1.258 0 2.515.419 3.772.419 2.096 1.257 4.61 2.515 6.705 2.514 4.191 5.866 7.543 10.475 10.058 0 0 .42 0 .42.419-1.257 1.676-1.677 3.772-2.095 6.286-.42 2.933-.839 5.447-.42 8.381.838 5.448 4.61 8.8 9.22 11.734l-1.676 1.676c-.42.419-1.258.838-1.677 1.257 0 0 .419.419.419.839-.419 1.675 0 2.095 1.258 3.771-1.258.838-2.934 2.933-.42 2.933-.418 1.257-2.933.839-2.514 2.514s2.096.42 3.353 0c-.839 1.258-3.772 1.258-4.191 2.515-.838 1.676 1.257 1.676 2.514 1.257.42 1.257-2.933 1.676-3.352 2.514-.419.42 0 1.257.419 1.257.838.42 1.257 0 2.096-.418-.42.838-1.677 1.676-1.677 2.933v.839c0 .418 0 .837-.419 1.675.419-.418 1.257-.838 1.676 0-.838.42-2.934 3.772-.838 2.934-.838-.419-.838.838.838 1.257.838 0 1.257-.419 1.677 0s.838 1.257 1.257 1.677c.838 1.675 1.676 2.932 2.933 4.609.419.838 1.257 1.257 2.096 2.095s.837.839.418 2.096-.418 3.772.419 4.609c.42.42 1.258.838 1.677 1.257.838.42.838.42 1.676 1.258.419.419 0 1.676.419 2.095s1.257.419 2.095.419c1.257 0 2.514.419 3.772 0-1.258.838-3.772 2.514-3.353 4.609 0 1.677 2.515 1.677 3.772 1.258 0 1.676.419 2.096 2.514 2.096.838 0 1.258-.839 1.677-.839.838-.419.418 0 1.257 0 1.676.419 2.933.839 3.352 2.514s0 3.772.42 5.448c0 1.257-.839 7.124 1.675 6.706.839-.42 1.677-.839 2.515-.839s2.096-.419 2.933-.838c-1.257 1.257-.837 6.286 1.258 5.867.419 0 1.257-.838 1.257-.838.419.419.838.419 1.257.419.838 0 1.257-.839 2.095-.839q0 1.258 1.257 1.258c1.257 0 2.096.419 2.934 1.676.419.838.838 2.095 1.257 2.934.838 1.257 2.095 2.514 3.352 3.352s2.515 1.677 4.191 2.514c.838.42.42 2.515.838 3.353 1.257 2.514 4.191.838 5.029-.838 1.676 2.514 2.933 4.609 5.867 2.934.838 2.514 3.772 4.189 5.447 6.285.839 1.258 2.096 2.095 3.353 2.515s2.933-.42 3.772.418c1.676 2.096 2.933 4.611 5.867 4.611 2.094 0 2.514-2.096 2.514-3.772 1.257 1.257 1.676 1.676 2.095 3.352.419 1.257.839 2.934 1.257 4.191.839 2.933.839 5.447 1.257 8.381 0 5.448.42 10.477-.838 15.506-.419 1.257 0 5.447-1.257 6.286-.419.418-2.934.418-3.771.837-1.257.42-2.934 1.257-4.191 1.677-1.257.838-4.19 2.933-2.515 4.609 1.258 1.257 3.354-.419 4.611-.419.838-.419 2.095 0 2.932 0 1.258 0 2.096-.419 2.934.419 1.257 2.095 3.772 2.515 6.286 2.515 1.677 0 4.191 1.676 5.867 2.514 2.096 1.257 5.448 1.257 7.543 1.257 2.934 0 5.867.42 8.8.42h3.772c1.257 0 1.676.837 2.933 1.257.838.418 2.095.837 2.934.837s2.095 1.258 3.352 1.677 2.095 1.257 2.934 2.095.838 2.095 1.676 2.514c2.514 2.515 3.353-1.257 3.771-3.352.42-2.934-2.095-4.61-4.19-6.286 3.352 0 6.705-.838 9.638-.419 2.095.419 3.353 1.257 5.029 2.514.419.42 1.257.838 1.677 1.257s.418 1.258.837 1.677c1.677 2.095 2.934-1.677 2.515-2.934-.42-2.933-3.772-5.028-6.286-6.705 3.352.839 7.124 1.677 9.638 3.353 2.096 1.257 3.353 4.19 5.029 5.867 1.676 2.095 2.933 0 3.353-2.095.418-3.353-.839-6.286-3.772-7.963 1.676-.419.419-3.352 0-4.191-1.257-2.095-3.771-3.352-6.286-3.771 2.095-.838 4.19-.419 5.867.839.838.837 1.257 1.257 1.257 2.094s.838 1.677 1.257 2.095c1.257.42 2.515-.418 2.934-1.675.418-1.677-.419-3.353-.839-4.61-5.447-8.801-19.695-3.353-27.658-2.933-2.514 0-4.609.418-7.123.418s-3.353 0-3.353-2.514c0-2.095.419-3.772 0-5.867 0-2.095-.838-4.609-1.676-6.705-1.257-4.609-2.095-9.219-2.934-13.829 0-.838-.418-2.095-.418-2.933 0-.419-.42-1.676 0-1.676.418-.42.837 0 1.257-.42.418-.838-.42-1.675-.839-2.095-.418-1.257-.418-2.095-.418-3.352.837.838 1.675 1.257 2.514 2.095.418.838.838 2.095 1.676 1.677-1.258-2.096-1.676-3.772-2.515-5.868.42.419.42.839 1.257 1.257-.837-1.257-.837-2.514-1.675-3.352-.42-.838-1.257-2.514-.839-3.352 1.257 2.514 2.934 5.029 4.191 7.543.419.838.838 1.676 2.095 2.095.419.419 1.257.838 1.677 1.257-.42-.838-.838-1.257-.42-2.095.42 0 1.257.419 1.257.419.42.419.839 1.257 1.257 1.257.839 0-.418-1.257-.418-1.676-1.257-1.676-2.096-4.61-3.353-6.705l1.257 1.257v-.419c-2.095-2.095-2.933-5.867-3.771-8.381 2.096 2.934 4.61 6.286 7.124 8.8.838.838 3.352 1.677 2.095-.419s-2.514-4.19-3.352-6.286c1.676 2.096 3.352 6.286 6.286 5.867-.419-.419-.839-1.257-.419-1.676.419.419 3.352 2.095 2.933 1.257-.419-.419 0-.419 0-1.257-.419-.838-.838-1.677-1.676-2.515 1.257 1.258 2.934 2.095 4.191 3.353.418.419.838 1.257 1.257.419.418-.419-.839-1.257-1.257-1.677l.418.42c-.838-1.257-1.675-2.095-2.514-2.934-.419-.838-.838-2.095-1.676-2.933s0-1.257.419-2.096c.419-.418 2.514.42 2.933.42 2.934.419 5.029-1.258 7.543-2.095s5.449-1.677 7.963-2.515l15.924-6.286c2.095-.838 3.772-2.514 5.448-3.353 2.095-1.257 2.933-3.352 5.447-3.771 10.058-.838 20.954-4.61 28.915-10.896s13.829-15.086 17.601-24.305c4.191-10.476 7.543-21.373 12.572-31.43 2.514-5.029 5.029-9.638 8.8-13.829 3.353-4.19 6.286-7.543 7.963-12.572 1.676-4.609 1.257-9.638 1.676-14.247.419-5.448 0-10.897.419-16.344.419-2.934.838-5.867 1.676-8.382.838-2.932 2.095-5.447 3.352-8.381.839-2.095.839-4.19.42-6.285 0-.42 1.676-2.095 2.095-2.515.839-.419 1.676 0 2.514-.419 2.514-.419 4.191-2.515 5.868-4.19.837-.839 1.257-1.677 1.675-2.096.42-.838 1.677-1.257 2.515-1.676 1.676-1.257 3.353-2.096 5.028-2.933 2.515-1.258 2.515-.838 4.611 0 1.675.837 3.771 1.676 5.447 2.094 2.934.839 6.286-.418 7.543 2.934 1.257-1.257.839-1.676.839-2.514m-207.017 190.672c0-.837-.419-1.675-.419-2.514.419.419.838 2.096.419 2.514m10.477-1.257c.419 1.257 2.095 2.934 1.676 4.191-.419-1.257-1.676-1.676-1.676-2.514-.42-2.095-1.258-3.772-1.258-5.867.42 1.258.838 2.933 1.258 4.19m0 2.515c-.838 0-.838-.419-.838-1.258 0 .42.418.839.838 1.258m2.514 31.429c0 2.515-.838 5.029-1.257 7.543-5.448-8.8-8.801-18.857-8.381-29.333 1.257.418 1.257 1.675 1.675 2.514.42-.419.42 0 0-.419-.418-1.257-.418-1.257-.418-2.095 0-1.677-.839-3.353-1.257-5.029 1.257 1.257 1.675 2.933 2.095 4.19.838 2.096 1.257 1.677.838-.418.419.418.838 1.257 1.257 1.675 0-.418-.838-1.675-.838-2.095.419-.419 0-.838 0-1.257-.419-1.677-2.095-4.191-2.095-5.867 1.257 2.933 1.676 6.286 3.772 8.381-1.258-5.028-2.096-10.477-2.934-15.505.419 1.676 1.257 2.933 1.676 4.191s.838 2.095.838 2.933c.42 3.353 1.677 6.705 2.095 10.058 2.096 6.704 2.934 13.829 2.934 20.533m.419-32.687c0-.418 0 0 0 0m44.42 48.612-.418-.419c0 .419.418.419.418.419m95.128-279.514c.418 0 .418 0 .838.419-.42 0-.838-.419-.838-.419m36.876 26.401s-.418.419 0 0"/><path d="m387.072 178.101c.419-1.257-.838-3.352-1.676-1.676-.419-.419 0-1.257-.839-1.676-.837-.838-1.675.419-1.675 1.676-2.514-2.096-2.934-2.096-3.772.838 0 .838.419 1.257.419 2.095 0 1.676.839 2.934 1.676 4.191 1.257 2.095 2.934 5.029 1.677 7.543a5.05 5.05 0 0 1 -2.096 2.095c-.838.419-2.095 1.257-1.257 2.096-3.772.418-5.867-5.868-7.962-7.963-1.676-1.676-3.771-2.095-5.867-2.514 0 0 0-.419-.419-.419s-.838 0-1.676.419-1.257.419-2.515.419c-2.514 0-4.609.838-7.123 1.258-1.677.418-2.096.837-1.258 1.675s1.676 1.257 2.095 2.515.42 2.514.838 3.771c.42.42.42.839.839.839.838 0 .838 2.095.418 2.095 0-.42-1.257-.838-1.675-.42s.418.42.418.839v2.095c-1.257-.419-2.933-.419-4.19-.838-1.257 0-1.676-.419-2.933-.838h-1.258c-.419-.419-.837-1.258-1.257-2.095s-1.257-1.257-1.257-2.515c.838.42 1.257.838 2.095.838-.418-.418-1.257-.838-1.676-1.675-.419-.42 0-1.258-.838-1.677-2.095-.838-1.258 5.029-1.676 5.866-.419.42-1.257.839-1.677 1.677 0 .419 0 .838-.419 1.257 0 .42-.418 1.677 0 1.677 0 0 .419-.839.839-.839-.839.839-.42 4.61 0 6.286.418 2.096 1.675 3.353 2.514 5.448.419.838 1.257 1.257 2.095 2.095s.838 2.096 1.257 3.353c.42 2.095.838 4.61 2.095 6.705.839.838 2.096 0 2.515-.419 1.257-1.257.838-2.934 1.676-4.191 2.934-4.609 8.801-7.543 13.41-9.638 1.257-.419 2.514-1.257 3.771-1.257-5.447 2.933-11.314 5.029-15.504 9.638-2.096 2.095.838 2.095 2.514 2.934.838.418 1.257 0 1.676.838s2.514-.42 2.934-.838c0 .418-1.258 2.514-1.258 2.933.838.838 3.353-3.353 3.772-3.772 1.677-1.257 4.191-1.257 5.866-2.095a9.9 9.9 0 0 0 3.354-3.772c.418-.837.418-1.676.837-2.514 0-.419 2.095-.838 2.515-1.257 1.676-.838-.42-1.677-.838-2.095-1.257-1.257 3.772-3.353 4.609-3.353 2.095-.419 4.61.419 7.124 0 .419 0 .419.419.839 0s0-.419 0-.838c0 0-.42 0-.42-.419h.838c.42-.419.839-.419 0-.838-1.257-.42-3.352 0-4.609 0-2.514 0-4.609-.838-7.124-.42-2.934 0-5.448 0-8.382.42v-.838c1.677-.839 3.353-1.677 5.029-1.677.839 0 .839-.419 1.677-.419s1.676-.418 2.514 0c1.257 0 4.191 2.934 5.448 1.257.838-.838.838-1.257.418-2.514 1.258.839.42-.419.839-.838.419-.838 0-.838.419-1.257s1.676-.42 2.096 0c.837 0 2.514 1.676 2.932.419 0-.419-.418-.839-.418-1.257 2.095 0 2.514-.419.838-2.096 0 0-1.257 0-.838-.418s.418-.42.418-.839c0-1.257-1.675-.838-.418-2.514s1.676-2.095.838-4.19c-.42-.839.838-3.354-.838-2.934.418-.838 1.257-2.515.838-3.352-.42-1.257-1.257-.42-2.095.418-1.257 1.677-1.257.839-.839-.838 0-.837 0-1.676-1.257-1.676m-22.629 7.543c2.933.419 5.448 1.676 7.543 4.191 0 .419-.419 0-.838.419s-.838 0-.838.419 0 1.257-.419 1.676c-1.258 1.257-2.515 2.095-4.61 2.095-1.676 0-3.353-1.257-4.191-2.514s-.837-2.933-2.095-3.772c.838-.418 1.258-.838 1.676-1.257 1.257-.838 2.514-.838 4.191-.418 1.257.418 2.095.837 2.934 1.675.837.42.837 1.257 2.095 1.257.419-1.675-3.772-3.352-5.448-3.771m-5.448 4.61c.838 3.352 4.19 6.286 7.962 5.867 1.676-.42 3.771-.838 5.029-2.095-1.676 2.095-4.19 2.932-6.705 2.932-2.096 0-3.353-.837-4.61-2.094-.838-.838-2.514-3.772-1.676-4.61m19.696 14.667c-2.514 0-5.448.838-7.963 1.257-1.257.42-3.771 1.257-4.609.42 1.257-.42 2.095-1.258 3.352-1.677 0 1.257 2.934 0 3.353 0 2.095-.419 4.19-.419 5.867 0m-27.239 10.895q0-.627 0 0m.838 5.029q0 .629 0 0" fill="#a51c21"/><path d="m364.024 187.32c-3.771 1.258-2.096 7.544 2.095 7.544 4.609-.42 2.514-8.381-2.095-7.544m.838 5.867c-2.934-1.257-1.257-5.447 1.257-4.19 1.677 1.257.838 4.609-1.257 4.19" fill="#fc3"/><g fill="#fff" fill-rule="nonzero"><path d="m228.154 41.716c1.493.038-.533 1.71-1.848 2.101-2.533 1.464-6.039 2.427-8.244 4.123 8.573.51 17.393 2.151 25.852 4.883 15.54 5.018 30.295 12.562 43.119 15.394 3.629.005 6.557.723 9.837.323 2.654-.324 5.502.111 8.172.168 2.809.048 4.834 2.759 5.427 5.287.366 2.504-.178 6.851-1.693 8.412-3.258 2.772-9.045 1.979-12.916 3.727a98.4 98.4 0 0 1 -13.563 4.946c-7.747 1.986-15.623 3.498-23.211 6.078-7.072 2.092-14.024 4.676-21.252 6.192-4.825.735-9.748.518-14.609.356-8.035-.695-15.953-2.526-23.666-4.849-1.301-.71-2.7-1.268-4.157-1.517-.759-.055-.493-1.463-.959-1.21-3.389 1.635-7.217.454-10.737-.006-4.024-.822-8.175-1.493-11.916-3.251-1.52-1.677-4.431-4.021-7.117-4.798-1.684-.818-3.83.629-5.227-.814-1.78-.35-3.611-.787-5.272-1.579-.814-.259-1.577-.948-2.322-1.151-3.279.372-6.459.444-9.466.088-1.214 1.625-3.503 1.114-4.954.122-1.432-.777-3.462-2.359-2.517-4.19 1.161-1.402 3.277-1.126 4.891-1.581 2.176-.534 4.396-.337 6.566.097 1.873.265 3.785.249 5.685.521-6.104-4.973-10.543-11.775-17.081-16.245-1.459-1.115-4.154-1.626-5.274.167.015.97 1.463 4.339.042 4.402-1.525-.115-2.981-3.873-3.409-5.064-.603-2.726 1.993-4.707 4.26-5.534 1.938-.604 4.155-.648 6.081.017 1.291.579 2.668 1.232 3.767 2.038.216-1.76 2.365-2.118 3.596-2.981 5.996-2.975 12.365-5.123 18.656-7.378 6.027-1.996 12.477-1.679 18.716-2.377 6.708-.405 13.57-1.605 20.217-.052 3.663.412 7.36.313 11.039.465 4.021-2.468 10.348-4.368 14.99-5.307a2.7 2.7 0 0 1 .492-.03zm-58.801 11.409c-4.069-.205-7.481 3.648-7.775 7.536-.339 3.152 1.716 6.434 4.872 7.148 2.922.874 6.434.289 8.338-2.276 2.95-3.34 2.086-9.103-1.729-11.426-1.111-.729-2.373-1.112-3.712-.989z"/><path d="m334.265 47.884c-2.231 3.066-3.137 7.504-6.176 9.805-.541.099 0 .654-.161 1.025-.183 2.129-1.14 3.661-2.744 5.071-.479.168-.546.275-.177.651.991 1.934 1.29 4.321.305 6.322-.212.519-.482 1.032-.896 1.418.938.453-.021 1.256.136 2.134.103 1.754-.061 3.711-1.255 5.098.963.508 1.077 1.771 1.317 2.733.381 2.024-.046 4.132-.787 6.025-.219.455-.45.942-.884 1.235 1.054.694 1.694 1.91 2.117 3.082.395 1.202.522 2.62-.151 3.748.926.202 1.221 1.271 1.683 1.992.559 1.182.984 2.666.368 3.902-.737 1.014-2.09.453-3.08.244-3.983-.961-6.856-4.315-10.257-6.44l-8.872-5.475c-2.172-1.393-4.805-2.34-7.331-2.897-.859-.048-2.249.505-1.785-.364.456-.899-.587-.913.204-1.369 4.069-.474 9.089-1.611 10.596-2.342 2.505-1.217 2.28-1.055 2.946-3.76 1.301-2.639-.455-10.111-3.145-9.765-1.502-.555-4.988-1.14-12.409-1.818 6.101-4.071 12.226-7.102 18.395-11.282 4.894-3.093 9.073-6.921 14.196-9.668 4.17-2.95 6.774-1.212 7.846.697zm-80.04-4.664c-2.521 4.249-1.349 6.797 3.388 7.236-2.51 2.243-2.477 3.416-.633 7.237-12.664-4.857-25.498-8.693-38.824-9.58.363-1.116 1.52-.956 2.373-1.702 4.964-3.425 10.726-5.814 16.777-6.278 3.766-.398 7.505-1.156 11.273-1.559-1.643 2.935 1.614 5.923 5.645 4.645zm-91.391 45.945c1.023.182 1.672 1.125 2.444 1.744 1.265 1.222 1.853 2.942 2.765 4.414.662-.629 1.604-.151 2.062.479 3.468 3.652 6.886 7.328 10.546 10.775-2.588-3.729-4.759-7.74-7.551-11.324-.648-.614-.644-1.825.266-2.185.196-.073.433-.111.645-.074 1.596.438 3.218.887 4.794 1.397.652.348 1.075 1.002 1.629 1.479.261-.804 1.244-.946 1.937-.639 2.865.675 5.91.933 8.813 1.628a37 37 0 0 1 1.355.375c.44-.966 1.654-.634 2.476-.506 1.474.286 3.036.688 4.192 1.691.498.688 1.166 1.47 1.097 2.35-.196 1.152-1.613.997-2.372 1.597-.979.546-1.708 1.63-1.456 2.781.062 1.181 1.084 1.971 1.572 2.96.19.971-.777 1.377-1.393 1.884-1.337 1.008-1.808 2.987-.874 4.423.513.684.515 1.839-.377 2.201-.977.295-1.939-.347-2.875-.569-1.778-.557-3.452-1.384-5.002-2.401.024.557-.313 1.147-.739 1.513-1.02.863-1.426 2.329-.891 3.569.363.708.394 1.766-.463 2.124-1.039.344-1.937-.554-2.854-.905-3.884-1.95-7.048-5.175-9.092-8.996-3.645-6.421-7.896-12.489-11.336-19.028-.383-.722-.968-1.777-.159-2.437.184-.279.538-.25.824-.321zm104.15 5.237.378.014c1.258.766 2.295 2.113 2.493 3.595.003 1.129-1.237 1.337-2.083 1.351-1.732.124-3.45.762-4.589 2.119-.95 1.014-2.454.756-3.612 1.384-1.401.582-2.283 1.943-2.874 3.267-.761 1.033-2.315.307-3.258 1.137-1.594 1.03-1.705 3.06-2.053 4.737-.376 1.011-1.575 1.331-2.062 2.295-.969 1.242-1.337 2.944-.845 4.447.004 1.232-1.54 1.528-2.367.86-5.043-2.634-9.278-6.589-12.919-10.913-.837-1.198-1.854-2.316-2.447-3.658-.22-1.113.928-1.621 1.851-1.543 2.476-.079 4.919-.563 7.356-.901 1.017.616 1.008-.299 1.963-.569 2.829-.772 5.619-1.713 8.424-2.529.789.297.969-.39 1.688-.61 2.282-.758 4.553-1.576 6.851-2.248.782.337 1.029-.604 1.838-.609 2.071-.595 4.153-1.272 6.267-1.626m-134.485-32.751c1.725.034 3.147 1.168 4.373 2.264l3.69 3.295c3.781 3.56 7.24 7.425 10.9 11.121.527.542.391 1.56-.321 1.881-.564.274-1.215.074-1.818.077-1.943-.167-3.869-.519-5.768-.954-1.064-.372-2.008-1.014-2.973-1.587-6.594-3.696-11.901-12.104-11.612-13.036-.178-1.001.389-2.023 1.28-2.482.678-.396 1.459-.62 2.238-.586z"/></g><path d="m235.301 41.355c-6.811.793-10.353 2.887-15.551 6.023 20.1 1.112 34.084 8.261 49.055 14.307 6.64 2.684 13.282 4.967 18.749 5.513 7.246.86 11.003.129 18.296 2.593l-18.657-1.053c-6.646-1.016-13.12-3.245-19.023-5.628-18.545-7.495-32.152-13.154-51.063-14.645-.554.544-1.835.531-2.388.208 1.024.092 2.013-.63 2.698-1.119 3.467-2.696 7.177-3.718 10.655-5.311-5.505.809-11.272 3.285-15.127 5.903l-11.191-.337-.139-.04c-4.123-1.205-7.909-1.061-12.192-.682l-20.461 1.614c-3.919.309-7.694 1.914-11.544 3.347-6.166 2.295-12.452 4.408-17.121 7.907l-.564.106-.407-.235c-2.054-1.186-3.615-1.805-4.956-1.986s-2.494.04-3.893.671l-.007.003h-.004c-1.277.563-2.091 1.19-2.563 1.809s-.636 1.223-.589 1.94c.093 1.434 1.231 3.328 3.056 5.307 3.65 3.957 9.115 8.774 14.379 11.112l-1.082.592c-.45-.297-.784.218-1.265-.103-4.32-2.878-9.775-6.664-13.29-10.442-1.953-2.1-3.367-4.203-3.506-6.354-.07-1.075.23-2.157.933-3.079s1.77-1.685 3.221-2.324h.005c1.594-.72 3.146-1.034 4.816-.808 1.535.208 3.201.956 5.119 2.019 5.304-2.786 10.987-5.444 17.105-7.721 3.797-1.407 7.713-3.104 12.002-3.443l20.405-1.609c4.558-.359 9.067-.526 12.603.706l10.427.358c9.323-4.237 16.336-5.959 24.62-6.55z"/><path d="m139.755 58.312c7.151 5.414 9.652 11.649 15.962 15.294-7.428-3.106-12.132-10.942-17.115-14.252zm.543 7.934c4.468 4.169 8.049 8.978 12.404 12.555 1.559 1.257 3.135 2.228 5.356 2.155-1.511 1.165-4.963.281-6.386-.775-4.09-3.978-8.36-8.938-12.506-12.668-2.933-2.238-5.442-6.17-8.526-4.153-2.875 1.891 6.769 10.006 10.968 12.96-3.837-1.529-10.709-8.226-11.711-9.657-1.631-2.333-2.044-3.528-.102-4.772 3.72-2.384 7.776 1.951 10.493 4.349z"/><g fill-rule="nonzero"><path d="m227.765 103.505c.74.047 1.506-.069 2.225.119.63.299.875 1.015 1.297 1.53 1.568 2.266 3.257 4.458 5.211 6.407.458.408.78 1.035.508 1.629-.282.724-1.035.598-1.626.128-2.76-1.801-5.327-3.86-7.54-6.279-.5-.617-1.077-1.184-1.484-1.866-.297-.668.145-1.501.861-1.635.181-.04.368-.023.553-.026z" fill="#ac93a7"/><path d="m170.382 90.979c3.13 3.52 5.801 7.285 8.244 11.299.356.608.765 1.19 1.08 1.818.286.618-.1 1.422-.758 1.592-.533.185-1.084-.109-1.438-.503-2.516-2.487-4.76-5.229-7.114-7.867-1.852-2.089-3.775-4.129-5.91-5.933a24 24 0 0 0 -2.301-1.709c.736 1.481 1.551 2.92 2.393 4.341l6.983 11.522c.331.576.081 1.396-.537 1.66-.526.273-.787-.157-1.138-.61a55.4 55.4 0 0 1 -7.483-10.398c-1.173-2.166-2.077-4.455-2.604-6.875-.131-.485-.605-.795-.199-1.131.325-.287.79-.36 1.196-.219.214.102.388.253.546.42a1.2 1.2 0 0 1 .102-.41c2.54-1.199 7.013 1.636 8.946 3.003z" fill="#fff"/></g><path d="m193.436 58.38c5.406 1.384 8.846 7.447 9.449 9.747 4.854 5.774 4.628 16.726-2.089 20.578-.807 2.657-2.441 5.857-5.469 7.519 1.663.264 3.603.877 4.648 1.75 15.953 4.409 23.133 4.282 32.439 4.064 7.644-.18 14.795-2.519 28.247-6.468 11.528-3.492 22.514-7.108 33.228-9.524 6.428-1.379 7.97-1.006 13.643-3.164-5.537 3.759-6.809 3.086-13.214 4.48l-33.29 9.731c-11.587 3.618-19.828 6.429-28.522 6.779-11.932.48-22.601-1.521-33.955-4.644-1.698-1.039-3.333-1.537-5.457-1.5-5.711.102-13.791-1.807-20.772-4.121l-2.706-2.905c5.505 3.163 14.833 4.628 20.058 5.196 5.466.593 9.794-4.318 9.8-8.338 6.793-3.311 6.24-13.688 2.063-18.786-.792-4.11-4.603-8.828-8.104-10.389zm-50.46 19.661c3.186.712 6.391 1.305 8.866 1.135l.881 1.289c-2.833.003-5.902.04-8.055-.606-3.255-.458-5.442.407-8.274.847-.461.211-.673.478-.701.772-.119 1.243 3.049 2.988 4.393 3.228 1.603-.355 1.698-.752 1.643-1.712q.594.118.815.61c3.486.55 8.88.818 9.466-.5 1.515 1.496 5.982 3.163 7.852 2.966.015.309.636.769 1.64 1.311h-.102l2.996 3.199c-2.252-1-4.105-1.965-5.168-2.762-2.899-.317-5.611-1.892-7.595-2.986-2.814.269-5.746.503-9.018-.002-2.581 2.553-5.617.575-7.957-1.917-.558-.572-.726-1.45-.479-2.093.254-.644.712-1.098 1.221-1.534l.192-.169.254-.036c2.255-.304 4.367-1.074 7.155-1.043zm48.427-9.812c.116 2.852-.737 5.748-1.544 9.664-1.854 9.449-9.198 12.85-16.366 11.016-4.446-1.355-7.549-2.925-9.617-5.279 3.725 2.902 7.472 3.755 9.953 4.253 7.121 1.437 13.891-2.962 14.81-10.23.189-3.237 1.662-6.708 1.63-9.538-.074-2.474-.604-5.248-4.402-7.51 3.683.684 5.422 5.208 5.536 7.625z"/><path d="m170.891 91.012c5.395 5.547 7.963 11.266 11.362 15.948 2.98 4.107 6.589 7.196 12.986 8.692-2.462-3.336-.404-6.062 1.743-7.278-3.024-3.148-1.906-6.808 2.344-7.772-.524-.536-.709-1.217-1.007-1.851l1.487-.81c.245 1.443 1.258 2.568 2.063 3.782-5.408.501-6.179 3.853-2.113 7.032-2.847 1.468-4.965 2.615-3.364 5.652.592.642 1.459 1.258 2.131 2.24l1.083 1.582-1.897-.262c-7.893-1.086-12.382-4.427-15.793-8.677-8.425-7.358-14.885-16.091-20.526-20.174-.98-.781-.842-.926-.879-1.841 2.984-1.026 8.544 1.842 10.387 3.743zm-8.421-2.563c6.134 3.813 11.489 11.819 16.33 16.335-2.567-4.204-5.161-8.646-9.009-13.087-1.558-1.802-6.084-4.461-7.321-3.257z"/><g stroke="#000"><ellipse cx="169.353" cy="60.6" fill="#fff" rx="7.726" ry="8.101" stroke-width="1.21"/><ellipse cx="170.026" cy="60.736" rx="4.335" ry="4.545" stroke-width=".48"/></g><path d="m159.691 65.585c3.755 6.627 9.591 6.9 15.488 4.664-6.538 5.933-13.031 1.492-15.489-4.661zm3.746-11.088c-1.449 1.84-2.662 5.373-1.693 8.403.535 1.67 1.37 5.057 6.573 6.288-8.536-.163-10.126-10.307-4.88-14.691m10.403 54.705c2.247 4.548 5.286 8.201 11.339 10.75-1.865-3.704.622-6.044 2.941-6.88l2.183 1.119c-3.054.968-4.847 1.462-3.779 4.725.473.732 1.224 1.484 1.722 2.563l.801 1.743-1.826-.577c-7.598-2.399-11.567-7.188-14.215-11.951-7.276-7.299-11.109-12.296-13.644-21.42-.835-.935-1.207-2.022-1.09-2.931 1.642.007 3.066 1.386 4.135 3.493.398.787.719 1.607 1.212 2.498 2.884 5.212 7.285 11.966 10.22 16.867zm-13.506-20.226c.715 4.478 5.671 12.498 10.464 17.496-1.58-2.41-5.852-9.481-8.497-14.056-1.17-2.03-1.065-2.417-1.966-3.441z"/><path d="m247.227 41.014c-.549-.01-1.214.033-1.835.053zm-1.835.053c-3.636.239-8.599 1.375-14.981 4.285-2.149.98-4.142 2.038-6.041 3.099l-2.071-.309c2.402-1.235 4.987-2.478 7.784-3.568 6.754-2.636 11.636-3.379 15.309-3.507m5.917 4.083c-1.604.168-6.528.882-11.373 2.294-2.722.794-4.908 1.657-6.758 2.533l-1.751-.397-.927-.153c2.375-1.08 5.311-2.072 9.002-2.811 4.984-.996 10.339-1.311 11.807-1.466m-13.635 5.847c1.933.216 3.984.39 7.302.431l9.827.039c-2.707 0-5.264.367-9.792.809l-2.919.237-4.015-1.422z" fill-rule="nonzero"/><path d="m335.909 47.503c-3.937 3.851-3.218 8.07-6.782 10.657.033 1.367-.5 3.942-3.221 5.91 1.212 2.597 1.318 5.311-.174 7.841.722 3.094.622 5.873-.87 7.965 2.019 3.008.89 7.879-.676 10.058 1.792 2.055 2.308 4.55 1.745 6.423 1.581 2.225 1.972 4.27 1.786 7.364-4.862.664-11.986-5.547-16.882-8.526-3.401-2.07-6.731-4.464-9.942-5.833s-7.126-1.864-9.134-1.487l1.51-1.19c2.626-.492 5.036-.2 8.383 1.228s6.171 4.031 9.682 5.978c4.89 2.708 9.6 7.911 14.875 8.348.55-1.536-.231-3.207-1.806-5.231l-.144-.199-.013-.251c1.052-2.003.145-4.318-1.549-5.945l-.412-.411.235-.531c1.56-1.601 3.032-6.512.669-9.578l-.126-.44.3-.342c1.347-1.558 1.459-4.015.684-7.193l-.09-.364.208-.312c1.555-2.354 1.422-4.56.079-7.097l-.279-.606c2.759-.962 4.266-5.221 3.547-6.568l.175-.123c3.998-2.765 3.171-5.705 5.859-9.275-1.409-1.133-2.963-2.006-4.499-1.397-4.378 1.743-9.834 7.784-15.407 10.68-4.458 2.799-13.137 7.919-18.911 11.373l-.053.025c-1.64.768-3.636.221-7.099.216l.005-1.268c3.273-.008 4.946.165 6.349-.485l18.912-11.37c3.673-1.679 10.453-8.226 15.367-10.397 3.036-1.342 5.688.501 7.692 2.35z"/><path d="m324.645 64.937c-.561-.168-1.489-.328-3.338.044-1.39.279-2.971.784-4.881 1.45-4.295 1.498-9.203 2.999-11.521 3.376 3.152-.513 6.183-1.869 11.205-4.163 1.828-.83 3.416-1.524 4.859-1.972 1.93-.604 3.221-.634 4.167-.351zm.699 7.801c-.523.38-1.469.775-3.051 1.114-1.176.25-2.602.449-4.102.549-1.508.101-2.932.094-4.133-.011-1.637-.142-2.517-.428-3.041-.648.511.215 1.459.378 3.05.314 1.177-.048 2.572-.216 4.016-.496s2.772-.638 3.843-1.018c1.465-.518 2.109-.948 2.421-1.175zm2.421-14.665c.02.024-.067-.121-.512-.275-.344-.118-.864-.234-1.596-.288-1.28-.096-3.119.003-5.386.511-5.988 1.342-11.411 4.68-15.221 8.225 3.873-3.603 8.882-7.158 15.004-9.044 2.278-.702 4.205-1.001 5.625-1.053.813-.029 1.466.02 1.972.124q.984.197 1.415.712zm-3.323 22.617c-1.637.831-3.372.769-5.612-.144-1.969-.805-4.007-1.679-5.187-1.736 1.179.056 3.427.55 5.427.922 2.278.424 3.394.06 4.605-.555zm-.553 9.825c-.365.235-.854.314-1.462.267q-.699-.052-1.693-.342c-1.162-.339-2.615-.925-4.153-1.708-4.117-2.093-6.329-4.193-7.368-5.595.98 1.324 3.609 3.267 7.711 4.82 1.584.6 3.014.985 4.109 1.155.625.098 1.092.117 1.423.094.423-.029.541-.131.519-.118zm2.085 6.851c-.216.281-.525.44-.863.511-.32.069-.688.064-1.105.006q-.96-.13-2.484-.687c-1.783-.652-4.136-1.758-6.601-3.183-2.49-1.439-4.805-3.036-6.6-4.598-2.452-2.133-3.372-3.695-3.712-4.764.338 1.063 1.388 2.569 3.923 4.504 1.865 1.424 4.254 2.86 6.788 4.111 2.527 1.248 4.877 2.153 6.619 2.636.997.276 1.727.395 2.216.412.318.011.502-.023.571-.053.06-.026-.033-.011-.098.074zm-146.964-2.556.61-.594c1.434 1.494 4.042 4.827 6.857 7.781 3.105 3.259 5.675 4.998 7.89 5.841-2.313-.88-4.878-2.158-8.474-5.228-2.644-2.255-6.576-6.273-7.492-7.205l.61-.593zm9.646.932c1.253.235 2.818.935 4.803 2.064l4.442 2.403a358 358 0 0 0 -4.783-1.628c-2.462-.789-3.374-.908-4.776-1.172zm-23.304-4.679c.079.165.995.356 1.082.534.812 1.649 3.115 6.633 6.184 11.93 3.71 6.399 6.744 10.175 8.951 12.027-2.332-1.957-5.411-5.249-9.614-11.615-3.381-5.125-6.042-10.039-6.856-11.689-.088-.18.322-1.022.243-1.187z" fill-rule="nonzero"/><path d="m231.036 103.387c2.924 5.886 10.532 13.133 17.066 15.957.736.319 1.293.998 1.939 1.319-4.898-.683-8.006-2.915-11.894-5.687-6.172-2.431-10.401-6.965-13.099-10.605-.067-.096-.131-.187-.192-.361a.9.9 0 0 1 -.056-.381.97.97 0 0 1 .304-.621l.596.211c.176-.152.398.412.407.258s.365.021.348-.026c-.033-.094-.04-.082-.02-.053 2.39 3.412 7.084 8.089 9.925 9.605-3.174-2.847-5.913-7.033-7.646-9.51z"/><path d="m267.211 93.673c2.581 1.346 3.153 3.576 4.023 5.98-3.257-.045-6.775-.246-8.175 2.94-3.532.047-5.344 1.716-5.996 4.735-3.878-.524-5.436 2.116-4.811 5.295-3.536 1.894-4.103 6.554-2.314 8.012l-1.851-.784c-2.323-2.491-.136-6.814 2.373-8.069-.165-3.657 1.875-6.36 5.36-6.215 1.083-3.223 3.374-4.094 6.268-4.513 1.814-2.389 4.119-2.728 6.73-2.898-.224-.58-.467-1.284-.676-1.599-.339-.51-.746-.853-1.722-1.364zm-89.844-28.157c1.976-5.714.807-10.13-3.1-12.802-1.015-.694-2.232-1.133-3.691-1.479 8.392-.737 9.782 8.368 6.791 14.281"/><path d="m241.139 102.234 3.188 4.242c1.643 1.959 2.988 3.059 3.938 3.439-1.064-.425-2.393-1.062-4.532-2.833-1.822-1.507-4.033-3.729-4.493-4.304zm9.985-3.458c.422.495.881 1.435 1.512 2.541s1.151 1.817 1.604 2.09c-.648-.389-1.044-.533-2.251-1.543l-2.153-1.983zm8.154-2.203.768-.358c.287.615.552 2.632.98 3.059-.428-.427-2.206-1.676-2.517-2.343l.78-.356z" fill-rule="nonzero"/><path d="m213.902 62.561c4.493-1.864 1.865-10.289-1.288-9.984 5.883-.83 6.476 9.29 1.288 9.984m.509 13.851c4.737-1.093 3.542-9.84.38-10.065 5.945.156 4.85 10.246-.38 10.065m-3.543 11.222c4.836.505 6.544-8.157 3.627-9.397 5.578 2.069 1.254 11.256-3.628 9.392zm11.138-3.153c4.85-.331 5.05-9.157 1.964-9.879 5.845 1.093 3.171 10.883-1.964 9.879m.101-14.664c4.802-.761 4.215-9.57 1.076-10.014 5.92.567 4.129 10.557-1.076 10.014m-6.781 27.446c4.696 1.271 7.765-7.001 5.086-8.697 5.17 2.95-.56 11.324-5.086 8.697m-11.832-.628c4.574 1.649 8.307-6.351 5.772-8.254 4.913 3.352-1.475 11.239-5.772 8.254m28.208-20.189c4.491-1.865 1.859-10.291-1.296-9.988 5.882-.831 6.476 9.289 1.288 9.984zm-3.763 15.342c4.85-.332 5.05-9.158 1.964-9.88 5.845 1.092 3.171 10.883-1.964 9.88m-6.464 9.971c3.344 1.205 6.073-4.642 4.22-6.034 3.591 2.451-1.078 8.218-4.22 6.034m9.273-1.474c4.861.078 5.801-8.7 2.786-9.679 5.733 1.58 2.246 11.111-2.786 9.679m6.713-15.257c4.719-1.17 3.38-9.895.215-10.07 5.947.059 5.016 10.166-.215 10.07m2.288-14.426c3.178-1.842.37-7.892-1.963-7.352 4.326-1.208 5.779 6.322 1.963 7.352m7.171 19.292c4.2-.734 3.566-8.451.808-8.798 5.198.418 3.763 9.204-.807 8.797zm1-10.206c4.265-2.332.751-10.43-2.355-9.793 5.767-1.456 7.439 8.554 2.355 9.793m6.441 16.851c4.023-.997 2.883-8.438.184-8.584 5.07.049 4.277 8.665-.184 8.584m4.34-13.393c3.685-1.12 2.266-7.967-.245-7.974 4.707-.2 4.388 7.834.245 7.974m8.256 9.273c3.791-.835 2.716-7.062.173-7.187 4.777.042 4.029 7.256-.173 7.187m3.984-11.002c3.871-1.632 1.505-8.051-1.226-7.684 5.093-.893 5.713 6.933 1.226 7.684m6.577 8.375c3.968-1.52 1.543-7.49-1.256-7.149 5.22-.831 5.856 6.449 1.256 7.149m5.12-9.9c3.483-1.334 1.354-6.577-1.104-6.277 4.584-.73 5.143 5.663 1.104 6.277m7.187 5.933c3.391-1.288 1.323-6.391-1.068-6.102 4.458-.709 5 5.505 1.073 6.102zm5.95-6.95c3.257-1.867.326-6.747-2.071-6.068 4.444-1.436 5.991 4.831 2.071 6.068m-55.72 19.783c4.247.369 5.616-7.253 3.037-8.295 4.918 1.737 1.276 9.861-3.038 8.295zm-10.901-35.684c3.177-1.842.37-7.891-1.963-7.352 4.326-1.209 5.779 6.321 1.963 7.352"/><path d="m129.601 64.685.017-.873 1.563-1.458 2.198-.132 4.158 2.305 6.137 6.222c-2.463-1.843-13.404-7.552-7.045 2.066l-1.537-1.297-1.855-1.933-2.065-2.014-1.059-1.563zm5.457 17.256.318-1.694 1.959-.477 3.92-.53h3.921l4.343.635 2.65-.371 1.959 1.272 3.708.371c-2.432 1.602-3.674 1.284-6.356.661.71 2.563 6.248 3.123 9.297 3.021l1.193 1.271c1.219.187 2.436-.043 3.655-.953l3.233 1.83 4.079 1.059 3.655.53 4.079-.159c4.416 5.924 15.426 4.208 19.11.516 5.234 3.225 8.328 5.469 37.273 3.911 12.343-.662 25.932-3.293 38.168-5.346 14.942-2.507 31.736-4.145 34.038-7.196-.038 1.27-.766 2.52-3.342 3.569l-10.342 1.948-4.056 1.522-11.655 3.496-12.365 3.618 2.38 4.062c-4.11-1.776-6.704-.904-8.691 1.645-5.034-.019-5.515 2.238-7.192 3.898-4.69-.419-7.267 1.758-8.615 3.969-4.594-2.219-9.175-2.79-12.571-.215-1.399-1.22-2.86-.881-3.248.119l-4.021-4.526-7.258-.371-14.62-3.073-4.663-.953 1.219 1.907-3.496 1.96.37 4.238 1.06 1.642c-6.393-.367-11.104-6.063-16.369-10.542-2.792-1.17-5.346-1.979-5.192 1.271l-2.966-3.602c-2.281-1.673-3.413-1.623-3.497 0l3.019 4.344c-2.089-1.421-2.962-1.258-2.753.317-2.161-3.316-3.262-3.264-4.025-2.221l-1.589-2.385c-1.274-1.328-2.523-2.588-2.332.477l-2.171-5.085-.741-3.337-.743-1.219-5.774-1.695-1.305-1.552c-.456.475-1.148.645-1.711.967l-4.344-.106-3.496-.212-1.324 1.112-1.801.159zm.948-.314c.017.467 1.068 1.111 1.391 1.6.956 1.805 4.647.981 4.162-.272.899-.161 1.043.186 1.3.387 2.204.384 6.01.764 8.11-.49.41-.245.436-.617.482-1.029-.251-.029-.176-.993-.748-1.07-1.609-.217-4.173-.188-5.211-.258-.754-.051-2.59-.549-3.358-.52-2.091.08-5.357.528-6.064 1.463a.28.28 0 0 0 -.057.189z" fill-opacity=".29"/><path d="m251.559 38.117c-5.704 1.962-1.946 6.55 3.959 4.463-3.678 3.409-1.319 7.599 2.91 7.388-2.893 2.799-2.873 5.773.179 7.396l-.819 1.129c-3.197-1.97-3.967-5.093-1.883-7.586-3.496-.64-4.278-3.379-3.152-6.602-3.786-.125-6.605-1.383-5.086-4.632-4.425-.15-10.039 1.516-12.514 1.705l.061-1.314c5.388-.7 10.393-2.166 16.345-1.947"/><g fill-rule="nonzero" stroke="#000" stroke-miterlimit="4" stroke-width="2.05"><path d="m70.702 75.679c-.656 10.671-5.47 23.034 9.308 37.4l.49 12.712c-14.706-7.377-15.268-24.69-17.392-39.599z" fill="#ffd200"/><path d="m85.394 50.252c10.51-10.017 13.811-18.4 12.005-29.577-8.513 3.618-13.155 14.41-17.149 26.4 6.571-14.269 3.657-22.968-.735-30.8-2.742 8.734-6.97 15.959-4.9 29.577.007-14.956-7.554-21.917-18.618-25.178 1.519 9.534 6.172 20.533 13.23 30.067-8.919-16.162-20.354-13.836-29.887-14.667 5.275 11.696 16.385 15.79 26.702 19.311-11.92-4.148-23.552-7.723-31.601 2.933 13.351 7.137 23.463 4.622 33.071 3.423-13.211 1.143-25.078 4.168-29.642 16.622 12.99.302 22.439-5.294 32.093-13.688-11.464 8.086-15.467 18.271-14.945 30.311 9.768-8.332 17.676-17.194 18.374-28.111-5.036 17.874-1.583 26.777 4.41 33 5.297-11.455 1.897-20.915 2.45-33.244.109 17.725 9.048 21.501 16.658 27.377-3.046-10.243-.843-17.412-12.494-29.333 17.099 20.387 21.692 14.259 28.908 13.689-7.308-10.164-16.109-14.478-25.968-17.111 8.302 1.695 18.025 6.332 28.907-3.911-8.449-4.364-17.56-6.631-28.662-2.445 13.773-3.125 21.238-8.454 25.233-16.132-10.484-2.846-17.25 1.362-27.438 11.488z" fill="#f1ede5"/><path d="m66.29 56.731c0 5.873 4.771 10.634 10.657 10.634s10.656-4.761 10.656-10.634-4.772-10.633-10.656-10.633-10.657 4.761-10.657 10.633m320.202 18.948c.655 10.671 5.47 23.034-9.31 37.4l-.489 12.712c14.706-7.377 15.268-24.69 17.393-39.599z" fill="#ffd200"/><path d="m371.799 50.252c-10.51-10.017-13.811-18.4-12.004-29.577 8.513 3.618 13.153 14.41 17.148 26.4-6.572-14.269-3.657-22.968.734-30.8 2.743 8.734 6.971 15.959 4.9 29.577-.007-14.956 7.554-21.917 18.619-25.178-1.518 9.534-6.172 20.533-13.229 30.067 8.919-16.162 20.352-13.836 29.887-14.667-5.275 11.696-16.387 15.79-26.703 19.311 11.92-4.148 23.552-7.723 31.601 2.933-13.351 7.137-23.462 4.622-33.071 3.423 13.21 1.143 25.077 4.168 29.641 16.622-12.989.302-22.438-5.294-32.091-13.688 11.463 8.086 15.466 18.271 14.943 30.311-9.768-8.332-17.676-17.194-18.373-28.111 5.037 17.874 1.582 26.777-4.409 33-5.297-11.455-1.899-20.915-2.45-33.244-.11 17.725-9.049 21.501-16.659 27.377 3.046-10.243.843-17.412 12.494-29.333-17.1 20.387-21.693 14.259-28.907 13.689 7.308-10.164 16.108-14.478 25.966-17.111-8.3 1.695-18.024 6.332-28.907-3.911 8.449-4.364 17.561-6.631 28.663-2.445-13.774-3.125-21.238-8.454-25.232-16.132 10.483-2.846 17.248 1.362 27.437 11.488z" fill="#f1ede5"/><path d="m390.903 56.731c0 5.873-4.772 10.634-10.656 10.634s-10.657-4.761-10.657-10.634 4.771-10.633 10.657-10.633 10.656 4.761 10.656 10.633" fill="#ffd200"/></g></svg>