<svg xmlns="http://www.w3.org/2000/svg" fill-rule="evenodd" stroke-linecap="round" stroke-linejoin="round" stroke-miterlimit="1.5" viewBox="0 0 463 522" xmlns:v="https://vecta.io/nano"><style><![CDATA[.B{fill-rule:nonzero}.C{fill:#ffd200}]]></style><g stroke="#000" stroke-width="4.17"><path d="M451.667 251.461V3.75H9.166v247.711c12.447 118.586 89.389 199.281 221.25 247.711 131.861-48.43 208.803-129.125 221.251-247.711" fill="#fff"/><path d="m9.166 138.357c.834.829 0-133.901 0-133.901h442.501v133.901" fill="#a51c21" stroke-linecap="butt" stroke-miterlimit="2" class="B"/><path d="m9.166 138.361 442.501-.707" fill="none"/></g><path d="M384.444 179.167l.833.833c0-.833.417-2.083-.417-2.917-.833-.416-1.666 0-2.083.417.417.417 1.25.833 1.667 1.667m15 30.833c0-2.5-.417-5-1.667-7.083a14.36 14.36 0 0 0-5-5c-2.083-1.25-4.167-1.25-5.417-3.75-.416-.417-.833-.417-.416-1.25 0-.417.833-.417 1.25 0 0-.834.416-2.917-.417-3.334.417-.833-.417-3.333-.417-4.583-.416.417-.833.417-1.666.833.416-.833.833-1.25 1.25-2.083-.834 0-1.25-.833-1.25-1.667-2.5 0-5-4.166-6.25-5.833 0 1.25-1.667 0-2.084-.417-.416-.833-.833-1.666-1.25-2.083-.833-.833-1.666-1.667-2.916-2.083-1.667-1.25-3.75-2.5-5.834-3.334-1.666-.833-3.333-2.083-4.583-2.916.417.833.833 1.25.833 2.083-.416-.417-2.916-2.917-3.75-2.5-1.25.417.417 1.667.834 2.083-.417-.416-5-2.083-2.5-.416-.834-.417-2.084-1.25-2.5 0-1.25-.417-3.334-.417-4.167-1.25-.833-.417-2.083-1.667-2.917-1.667 0 .417.417.833.834 1.25-2.5-.833-5-.417-7.5-.417h-2.917c-.833 0-1.25.834-1.667.834-5.833 0-10.833 1.25-16.25 2.5-10.833 2.083-20 8.333-27.083 16.666-3.75 4.584-7.083 9.167-10.417 14.167-2.916 3.75-5 7.917-8.75 11.25s-9.166 5.833-13.75 7.917c-2.083.833-4.583 2.083-7.083 2.5s-5 0-7.5.416-5.833-1.25-8.333-2.083c-2.917-.833-5.834-1.667-8.334-2.083-5.416-1.25-10.833-2.5-16.25-3.334l-18.333-2.5c-5.833-.833-11.667-1.25-17.083-2.916-10.834-2.917-15.417-13.75-23.75-20-4.584-3.334-9.584-5.417-15.417-6.25h-4.167c-1.25 0-2.083-1.667-2.916-2.5-2.084-2.084-4.167-3.75-6.667-5-.833-.417-1.667-1.25-2.917-1.667-1.666-.417-2.5 0-3.333-.833-2.083-2.084-4.167-4.167-6.25-5.834-4.167-3.75-8.333-7.083-13.75-8.333-1.25-.417-2.917-.417-4.167-.417s-2.083-.416-3.333-.416-1.667.833-2.917 1.25c-1.666.416-3.333.416-5 .833-5.416 1.25-7.916 6.25-7.916 11.667 0 4.166-.834 8.333-.834 12.5 0 4.583.834 9.166 2.084 13.75-4.584.416-5.417 7.916-3.334 11.25-2.5.833-3.75 3.333-4.166 5.416 0 .834 0 2.084.416 2.917s1.25 1.667 1.25 2.5-.833 2.083-.833 2.917v4.166c.417 2.5 1.25 4.584 2.5 6.667-2.083.417-5 .417-5 2.917-.417 2.083.833 4.583.417 7.083-.417 4.583 2.5 9.583 6.666 12.083.417 0 1.25.417 1.667.834v1.666c0 1.25 0 2.5.417 3.75.416 2.084 1.25 4.584 2.5 6.667 2.5 4.167 5.833 7.5 10.416 10 0 0 .417 0 .417.417-1.25 1.666-1.667 3.75-2.083 6.25-.417 2.916-.834 5.416-.417 8.333.833 5.417 4.583 8.75 9.167 11.667l-1.667 1.666c-.417.417-1.25.834-1.667 1.25 0 0 .417.417.417.834-.417 1.666 0 2.083 1.25 3.75-1.25.833-2.917 2.916-.417 2.916-.416 1.25-2.916.834-2.5 2.5s2.084.417 3.334 0c-.834 1.25-3.75 1.25-4.167 2.5-.833 1.667 1.25 1.667 2.5 1.25.417 1.25-2.917 1.667-3.333 2.5-.417.417 0 1.25.416 1.25.834.417 1.25 0 2.084-.416-.417.833-1.667 1.666-1.667 2.916v.834c0 .416 0 .833-.417 1.666.417-.416 1.25-.833 1.667 0-.833.417-2.917 3.75-.833 2.917-.834-.417-.834.833.833 1.25.833 0 1.25-.417 1.667 0s.833 1.25 1.25 1.667c.833 1.666 1.666 2.916 2.916 4.583.417.833 1.25 1.25 2.084 2.083s.833.834.416 2.084-.416 3.75.417 4.583c.417.417 1.25.833 1.667 1.25.833.417.833.417 1.666 1.25.417.417 0 1.667.417 2.083s1.25.417 2.083.417c1.25 0 2.5.417 3.75 0-1.25.833-3.75 2.5-3.333 4.583 0 1.667 2.5 1.667 3.75 1.25 0 1.667.417 2.084 2.5 2.084.833 0 1.25-.834 1.667-.834.833-.416.416 0 1.25 0 1.666.417 2.916.834 3.333 2.5s0 3.75.417 5.417c0 1.25-.834 7.083 1.666 6.667.834-.417 1.667-.834 2.5-.834s2.084-.416 2.917-.833c-1.25 1.25-.833 6.25 1.25 5.833.417 0 1.25-.833 1.25-.833.417.417.833.417 1.25.417.833 0 1.25-.834 2.083-.834 0 .834.417 1.25 1.25 1.25 1.25 0 2.084.417 2.917 1.667.417.833.833 2.083 1.25 2.917a12.67 12.67 0 0 0 3.333 3.333c1.25.833 2.5 1.667 4.167 2.5.833.417.417 2.5.833 3.333 1.25 2.5 4.167.834 5-.833 1.667 2.5 2.917 4.583 5.834 2.917.833 2.5 3.75 4.166 5.416 6.25.834 1.25 2.084 2.083 3.334 2.5s2.916-.417 3.75.416c1.666 2.084 2.916 4.584 5.833 4.584 2.083 0 2.5-2.084 2.5-3.75 1.25 1.25 1.667 1.666 2.083 3.333.417 1.25.834 2.917 1.25 4.167.834 2.916.834 5.416 1.25 8.333 0 5.417.417 10.417-.833 15.417-.417 1.25 0 5.416-1.25 6.25-.417.416-2.917.416-3.75.833-1.25.417-2.917 1.25-4.167 1.667-1.25.833-4.166 2.916-2.5 4.583 1.25 1.25 3.334-.417 4.584-.417.833-.416 2.083 0 2.916 0 1.25 0 2.084-.416 2.917.417 1.25 2.083 3.75 2.5 6.25 2.5 1.667 0 4.167 1.667 5.833 2.5 2.084 1.25 5.417 1.25 7.5 1.25 2.917 0 5.834.417 8.75.417h3.75c1.25 0 1.667.833 2.917 1.25.833.416 2.083.833 2.917.833s2.083 1.25 3.333 1.667 2.083 1.25 2.917 2.083.833 2.083 1.666 2.5c2.5 2.5 3.334-1.25 3.75-3.333.417-2.917-2.083-4.584-4.166-6.25 3.333 0 6.666-.834 9.583-.417 2.083.417 3.333 1.25 5 2.5.417.417 1.25.833 1.667 1.25s.416 1.25.833 1.667c1.667 2.083 2.917-1.667 2.5-2.917-.417-2.917-3.75-5-6.25-6.667 3.333.834 7.083 1.667 9.583 3.334 2.084 1.25 3.334 4.166 5 5.833 1.667 2.083 2.917 0 3.334-2.083.416-3.334-.834-6.25-3.75-7.917 1.666-.417.416-3.333 0-4.167-1.25-2.083-3.75-3.333-6.25-3.75 2.083-.833 4.166-.416 5.833.834.833.833 1.25 1.25 1.25 2.083s.833 1.667 1.25 2.083c1.25.417 2.5-.416 2.917-1.666.416-1.667-.417-3.334-.834-4.584-5.416-8.75-19.583-3.333-27.5-2.916-2.5 0-4.583.416-7.083.416s-3.333 0-3.333-2.5c0-2.083.416-3.75 0-5.833 0-2.083-.834-4.583-1.667-6.667-1.25-4.583-2.083-9.166-2.917-13.75 0-.833-.416-2.083-.416-2.916 0-.417-.417-1.667 0-1.667.416-.417.833 0 1.25-.417.416-.833-.417-1.666-.834-2.083-.416-1.25-.416-2.083-.416-3.333.833.833 1.666 1.25 2.5 2.083.416.833.833 2.083 1.666 1.667-1.25-2.084-1.666-3.75-2.5-5.834.417.417.417.834 1.25 1.25-.833-1.25-.833-2.5-1.666-3.333-.417-.833-1.25-2.5-.834-3.333 1.25 2.5 2.917 5 4.167 7.5.417.833.833 1.666 2.083 2.083.417.417 1.25.833 1.667 1.25-.417-.833-.833-1.25-.417-2.083.417 0 1.25.416 1.25.416.417.417.834 1.25 1.25 1.25.834 0-.416-1.25-.416-1.666-1.25-1.667-2.084-4.584-3.334-6.667l1.25 1.25v-.417c-2.083-2.083-2.916-5.833-3.75-8.333 2.084 2.917 4.584 6.25 7.084 8.75.833.833 3.333 1.667 2.083-.417s-2.5-4.166-3.333-6.25c1.666 2.084 3.333 6.25 6.25 5.834-.417-.417-.834-1.25-.417-1.667.417.417 3.333 2.083 2.917 1.25-.417-.417 0-.417 0-1.25-.417-.833-.834-1.667-1.667-2.5 1.25 1.25 2.917 2.083 4.167 3.333.416.417.833 1.25 1.25.417.416-.417-.834-1.25-1.25-1.667l.416.417c-.833-1.25-1.666-2.083-2.5-2.917-.416-.833-.833-2.083-1.666-2.916s0-1.25.416-2.084c.417-.416 2.5.417 2.917.417 2.917.417 5-1.25 7.5-2.083s5.417-1.667 7.917-2.5l15.833-6.25c2.083-.834 3.75-2.5 5.417-3.334 2.083-1.25 2.916-3.333 5.416-3.75 10-.833 20.834-4.583 28.75-10.833s13.75-15 17.5-24.167c4.167-10.416 7.5-21.25 12.5-31.25 2.5-5 5-9.583 8.75-13.75 3.334-4.166 6.25-7.5 7.917-12.5 1.667-4.583 1.25-9.583 1.667-14.166.416-5.417 0-10.834.416-16.25.417-2.917.834-5.834 1.667-8.334.833-2.916 2.083-5.416 3.333-8.333.834-2.083.834-4.167.417-6.25 0-.417 1.667-2.083 2.083-2.5.834-.417 1.667 0 2.5-.417 2.5-.416 4.167-2.5 5.834-4.166.833-.834 1.25-1.667 1.666-2.084.417-.833 1.667-1.25 2.5-1.666 1.667-1.25 3.334-2.084 5-2.917 2.5-1.25 2.5-.833 4.584 0 1.666.833 3.75 1.667 5.416 2.083 2.917.834 6.25-.416 7.5 2.917 1.25-1.25.834-1.667.834-2.5M193.61 399.583c0-.833-.416-1.666-.416-2.5.416.417.833 2.084.416 2.5m10.417-1.25c.417 1.25 2.083 2.917 1.667 4.167-.417-1.25-1.667-1.667-1.667-2.5-.417-2.083-1.25-3.75-1.25-5.833.417 1.25.833 2.916 1.25 4.166m0 2.5c-.833 0-.833-.416-.833-1.25 0 .417.416.834.833 1.25m2.5 31.25c0 2.5-.833 5-1.25 7.5-5.417-8.75-8.75-18.75-8.333-29.166 1.25.416 1.25 1.666 1.666 2.5.417-.417.417 0 0-.417-.416-1.25-.416-1.25-.416-2.083 0-1.667-.834-3.334-1.25-5 1.25 1.25 1.666 2.916 2.083 4.166.833 2.084 1.25 1.667.833-.416.417.416.834 1.25 1.25 1.666 0-.416-.833-1.666-.833-2.083.417-.417 0-.833 0-1.25-.417-1.667-2.083-4.167-2.083-5.833 1.25 2.916 1.666 6.25 3.75 8.333-1.25-5-2.084-10.417-2.917-15.417.417 1.667 1.25 2.917 1.667 4.167s.833 2.083.833 2.917c.417 3.333 1.667 6.666 2.083 10 2.084 6.666 2.917 13.75 2.917 20.416m.417-32.5c0-.416 0 0 0 0m44.166 48.334l-.416-.417c0 .417.416.417.416.417M345.694 170c.416 0 .416 0 .833.417-.417 0-.833-.417-.833-.417m36.666 26.25s-.416.417 0 0h0"/><path d="M384.86 177.083c.417-1.25-.833-3.333-1.666-1.666-.417-.417 0-1.25-.834-1.667-.833-.833-1.666.417-1.666 1.667-2.5-2.084-2.917-2.084-3.75.833 0 .833.416 1.25.416 2.083 0 1.667.834 2.917 1.667 4.167 1.25 2.083 2.917 5 1.667 7.5a5.02 5.02 0 0 1-2.084 2.083c-.833.417-2.083 1.25-1.25 2.084-3.75.416-5.833-5.834-7.916-7.917-1.667-1.667-3.75-2.083-5.834-2.5 0 0 0-.417-.416-.417s-.834 0-1.667.417-1.25.417-2.5.417c-2.5 0-4.583.833-7.083 1.25-1.667.416-2.084.833-1.25 1.666s1.666 1.25 2.083 2.5.417 2.5.833 3.75c.417.417.417.834.834.834.833 0 .833 2.083.416 2.083 0-.417-1.25-.833-1.666-.417s.416.417.416.834v2.083c-1.25-.417-2.916-.417-4.166-.833-1.25 0-1.667-.417-2.917-.834h-1.25c-.417-.416-.833-1.25-1.25-2.083s-1.25-1.25-1.25-2.5c.833.417 1.25.833 2.083.833-.416-.416-1.25-.833-1.666-1.666-.417-.417 0-1.25-.834-1.667-2.083-.833-1.25 5-1.666 5.833-.417.417-1.25.834-1.667 1.667 0 .417 0 .833-.417 1.25 0 .417-.416 1.667 0 1.667 0 0 .417-.834.834-.834-.834.834-.417 4.584 0 6.25.416 2.084 1.666 3.334 2.5 5.417.416.833 1.25 1.25 2.083 2.083s.833 2.084 1.25 3.334c.417 2.083.833 4.583 2.083 6.666.834.834 2.084 0 2.5-.416 1.25-1.25.834-2.917 1.667-4.167 2.917-4.583 8.75-7.5 13.333-9.583 1.25-.417 2.5-1.25 3.75-1.25-5.416 2.916-11.25 5-15.416 9.583-2.084 2.083.833 2.083 2.5 2.917.833.416 1.25 0 1.666.833s2.5-.417 2.917-.833c0 .416-1.25 2.5-1.25 2.916.833.834 3.333-3.333 3.75-3.75 1.667-1.25 4.167-1.25 5.833-2.083a9.84 9.84 0 0 0 3.334-3.75c.416-.833.416-1.667.833-2.5 0-.417 2.083-.833 2.5-1.25 1.667-.833-.417-1.667-.833-2.083-1.25-1.25 3.75-3.334 4.583-3.334 2.083-.416 4.583.417 7.083 0 .417 0 .417.417.834 0s0-.416 0-.833c0 0-.417 0-.417-.417h.833c.417-.416.834-.416 0-.833-1.25-.417-3.333 0-4.583 0-2.5 0-4.583-.833-7.083-.417-2.917 0-5.417 0-8.334.417v-.833c1.667-.834 3.334-1.667 5-1.667.834 0 .834-.417 1.667-.417s1.667-.416 2.5 0c1.25 0 4.167 2.917 5.417 1.25.833-.833.833-1.25.416-2.5 1.25.834.417-.416.834-.833.416-.833 0-.833.416-1.25s1.667-.417 2.084 0c.833 0 2.5 1.667 2.916.417 0-.417-.416-.834-.416-1.25 2.083 0 2.5-.417.833-2.084 0 0-1.25 0-.833-.416s.416-.417.416-.834c0-1.25-1.666-.833-.416-2.5s1.666-2.083.833-4.166c-.417-.834.833-3.334-.833-2.917.416-.833 1.25-2.5.833-3.333-.417-1.25-1.25-.417-2.083.416-1.25 1.667-1.25.834-.834-.833 0-.833 0-1.667-1.25-1.667m-22.5 7.5c2.917.417 5.417 1.667 7.5 4.167 0 .417-.416 0-.833.417s-.833 0-.833.416 0 1.25-.417 1.667c-1.25 1.25-2.5 2.083-4.583 2.083-1.667 0-3.334-1.25-4.167-2.5s-.833-2.916-2.083-3.75c.833-.416 1.25-.833 1.666-1.25 1.25-.833 2.5-.833 4.167-.416 1.25.416 2.083.833 2.917 1.666.833.417.833 1.25 2.083 1.25.417-1.666-3.75-3.333-5.417-3.75m-5.416 4.584c.833 3.333 4.166 6.25 7.916 5.833 1.667-.417 3.75-.833 5-2.083-1.666 2.083-4.166 2.916-6.666 2.916-2.084 0-3.334-.833-4.584-2.083-.833-.833-2.5-3.75-1.666-4.583zm19.583 14.583c-2.5 0-5.417.833-7.917 1.25-1.25.417-3.75 1.25-4.583.417 1.25-.417 2.083-1.25 3.333-1.667 0 1.25 2.917 0 3.334 0 2.083-.417 4.166-.417 5.833 0m-27.083 10.833c0-.416 0-.416 0 0m.833 5c0 .417 0 .417 0 0" fill="#a51c21"/><path d="m361.944 186.25c-3.75 1.25-2.084 7.5 2.083 7.5 4.583-.417 2.5-8.333-2.083-7.5m.833 5.833c-2.917-1.25-1.25-5.416 1.25-4.166 1.667 1.25.833 4.583-1.25 4.166" fill="#fc3"/><g fill="#fff" class="B"><path d="M226.85 41.478c1.485.037-.53 1.7-1.837 2.089-2.519 1.455-6.005 2.413-8.197 4.099a104.47 104.47 0 0 1 25.704 4.855c15.451 4.989 30.122 12.49 42.873 15.306 3.608.005 6.519.719 9.781.321 2.638-.322 5.47.111 8.125.167 2.793.048 4.806 2.744 5.396 5.257.364 2.49-.177 6.812-1.683 8.364-3.24 2.756-8.994 1.968-12.843 3.706-4.389 1.983-8.888 3.606-13.485 4.918-7.703 1.974-15.534 3.478-23.078 6.043-7.032 2.08-13.944 4.649-21.131 6.156-4.797.731-9.692.515-14.526.354-7.989-.691-15.861-2.511-23.53-4.821-1.294-.706-2.685-1.261-4.134-1.508-.754-.055-.49-1.455-.953-1.203-3.37 1.625-7.176.451-10.676-.006-4.001-.818-8.128-1.485-11.848-3.233-1.511-1.667-4.405-3.998-7.076-4.77-1.674-.814-3.808.625-5.197-.81-1.77-.348-3.59-.782-5.242-1.57-.809-.257-1.568-.942-2.309-1.144-3.26.37-6.422.441-9.412.087-1.207 1.616-3.483 1.108-4.925.122-1.424-.773-3.443-2.346-2.503-4.166 1.154-1.394 3.258-1.12 4.863-1.572 2.164-.531 4.371-.335 6.529.096 1.862.264 3.763.248 5.652.518-6.069-4.944-10.483-11.708-16.983-16.152-1.451-1.109-4.131-1.617-5.244.166.015.965 1.454 4.314.042 4.377-1.517-.114-2.964-3.851-3.39-5.035-.599-2.711 1.982-4.68 4.236-5.503 1.927-.6 4.131-.644 6.046.017 1.284.576 2.653 1.225 3.745 2.027.215-1.75 2.352-2.106 3.576-2.964 5.962-2.958 12.294-5.094 18.549-7.336 5.993-1.985 12.406-1.669 18.609-2.363 6.67-.403 13.493-1.596 20.102-.052 3.642.409 7.318.311 10.976.462 3.998-2.454 10.289-4.343 14.904-5.277.162-.02.325-.038.489-.029l.005.007zm-58.465 11.343c-4.045-.203-7.438 3.628-7.73 7.493-.337 3.134 1.706 6.398 4.844 7.108 2.905.869 6.397.287 8.29-2.263 2.933-3.321 2.074-9.051-1.719-11.361-1.105-.725-2.359-1.106-3.691-.984z"/><path d="M332.355 47.61c-2.218 3.049-3.119 7.461-6.141 9.749-.538.099 0 .651-.16 1.019-.182 2.117-1.133 3.641-2.728 5.043-.476.167-.543.273-.176.647.985 1.923 1.282 4.296.303 6.286-.211.516-.479 1.026-.891 1.41.933.45-.021 1.248.135 2.121.103 1.744-.06 3.69-1.247 5.069.957.505 1.07 1.761 1.309 2.718.379 2.012-.046 4.108-.782 5.99-.218.453-.448.937-.879 1.228 1.048.69 1.684 1.899 2.105 3.065.392 1.195.519 2.605-.151 3.726.921.201 1.214 1.264 1.674 1.981.556 1.175.978 2.65.366 3.879-.733 1.009-2.078.451-3.063.243-3.96-.955-6.817-4.29-10.198-6.403l-8.821-5.444c-2.16-1.385-4.778-2.327-7.29-2.88-.854-.048-2.236.502-1.774-.362.453-.894-.584-.908.202-1.361 4.046-.472 9.038-1.602 10.536-2.329 2.491-1.21 2.267-1.049 2.929-3.739 1.294-2.623-.452-10.053-3.127-9.709-1.493-.552-4.959-1.133-12.338-1.807 6.066-4.048 12.156-7.062 18.29-11.218 4.866-3.075 9.021-6.881 14.115-9.613 4.146-2.933 6.735-1.205 7.801.693l.001-.002zm-79.583-4.637c-2.506 4.225-1.341 6.758 3.369 7.195-2.496 2.23-2.463 3.396-.629 7.195-12.592-4.829-25.353-8.643-38.603-9.525.361-1.11 1.512-.95 2.36-1.692 4.935-3.406 10.665-5.781 16.681-6.242 3.744-.396 7.462-1.15 11.209-1.55-1.634 2.918 1.604 5.889 5.612 4.618zm-90.868 45.682c1.017.181 1.662 1.119 2.43 1.735 1.257 1.215 1.842 2.925 2.749 4.388.658-.625 1.595-.15 2.05.477 3.448 3.631 6.847 7.286 10.486 10.713-2.574-3.708-4.732-7.696-7.508-11.259-.644-.611-.64-1.815.264-2.173.195-.072.431-.11.642-.073 1.587.435 3.199.882 4.766 1.389.649.346 1.069.996 1.62 1.47.259-.799 1.237-.94 1.926-.635 2.849.671 5.876.927 8.763 1.619.452.115.899.24 1.347.372.437-.96 1.644-.63 2.462-.503 1.465.285 3.018.684 4.168 1.682.495.684 1.159 1.461 1.09 2.336-.194 1.146-1.603.991-2.358 1.588-.973.543-1.698 1.621-1.448 2.765.062 1.174 1.078 1.96 1.563 2.943.189.966-.772 1.369-1.385 1.873-1.329 1.003-1.797 2.97-.869 4.398.51.68.512 1.829-.375 2.189-.971.293-1.928-.345-2.858-.566-1.768-.554-3.432-1.376-4.974-2.387.024.553-.311 1.14-.734 1.504-1.015.858-1.418 2.316-.886 3.549.361.704.391 1.755-.461 2.111-1.033.342-1.926-.55-2.837-.899-3.862-1.939-7.008-5.146-9.04-8.945-3.625-6.384-7.851-12.418-11.272-18.919-.38-.718-.962-1.767-.158-2.423.183-.278.535-.249.82-.32zm103.554 5.208l.376.013c1.251.762 2.282 2.101 2.479 3.575.003 1.122-1.23 1.329-2.071 1.343-1.722.124-3.43.758-4.563 2.107-.944 1.008-2.44.752-3.591 1.376-1.393.579-2.27 1.932-2.858 3.249-.756 1.027-2.302.305-3.239 1.13-1.585 1.024-1.695 3.043-2.041 4.71-.374 1.005-1.566 1.323-2.051 2.282-.963 1.235-1.329 2.927-.84 4.421.004 1.225-1.531 1.52-2.353.856-5.015-2.619-9.225-6.552-12.846-10.851-.832-1.191-1.843-2.303-2.433-3.637-.218-1.107.923-1.612 1.841-1.534 2.462-.079 4.891-.56 7.314-.896 1.011.612 1.002-.298 1.952-.566 2.812-.768 5.587-1.703 8.375-2.515.785.296.964-.387 1.679-.606 2.269-.754 4.527-1.567 6.812-2.235.777.335 1.023-.601 1.827-.606 2.059-.591 4.129-1.264 6.231-1.616zM131.742 61.299c1.715.034 3.129 1.161 4.348 2.251l3.669 3.276c3.759 3.54 7.198 7.383 10.838 11.057.523.539.388 1.551-.32 1.871-.56.272-1.208.073-1.807.076-1.932-.166-3.847-.516-5.735-.948-1.058-.37-1.997-1.009-2.956-1.578-6.557-3.675-11.833-12.035-11.546-12.962-.177-.995.387-2.011 1.273-2.468.674-.393 1.45-.616 2.225-.582z"/></g><path d="M233.956 41.119c-6.772.788-10.293 2.87-15.462 5.988 19.985 1.106 33.89 8.214 48.775 14.226 6.602 2.668 13.206 4.938 18.642 5.481 7.204.855 10.94.128 18.191 2.578l-18.55-1.047c-6.608-1.01-13.045-3.226-18.914-5.596-18.439-7.452-31.969-13.078-50.772-14.561-.55.541-1.824.528-2.374.207 1.018.091 2.002-.627 2.683-1.113 3.447-2.68 7.136-3.696 10.594-5.28-5.474.804-11.208 3.266-15.041 5.869l-11.127-.335-.138-.04c-4.1-1.198-7.864-1.055-12.122-.678l-20.344 1.605c-3.897.307-7.651 1.903-11.479 3.328-6.13 2.281-12.38 4.382-17.023 7.861l-.56.106-.405-.234c-2.042-1.179-3.594-1.795-4.928-1.975s-2.48.04-3.871.668l-.007.003h-.004c-1.269.559-2.079 1.183-2.548 1.798s-.632 1.216-.586 1.929c.093 1.426 1.224 3.309 3.039 5.277 3.629 3.934 9.063 8.724 14.297 11.048l-1.076.589c-.447-.295-.779.217-1.258-.102-4.295-2.862-9.719-6.626-13.214-10.383-1.942-2.088-3.348-4.179-3.486-6.317-.069-1.069.229-2.145.928-3.062s1.76-1.675 3.203-2.311h.004c1.585-.715 3.129-1.028 4.789-.803 1.526.207 3.183.951 5.09 2.008 5.273-2.771 10.924-5.413 17.007-7.677 3.775-1.399 7.669-3.087 11.933-3.424l20.289-1.599c4.532-.357 9.015-.523 12.531.701l10.367.356c9.27-4.212 16.243-5.925 24.48-6.512z"/><path d="M138.956 57.979c7.111 5.383 9.597 11.582 15.871 15.206-7.385-3.088-12.062-10.879-17.017-14.17zm.54 7.888c4.443 4.146 8.003 8.927 12.333 12.484 1.551 1.25 3.118 2.215 5.326 2.142-1.503 1.159-4.935.28-6.35-.77-4.066-3.955-8.312-8.887-12.434-12.596-2.916-2.225-5.411-6.135-8.478-4.129-2.858 1.88 6.731 9.949 10.906 12.886-3.815-1.52-10.648-8.179-11.644-9.602-1.622-2.32-2.033-3.508-.102-4.745 3.699-2.37 7.732 1.94 10.433 4.324z"/><g class="B"><path d="m226.463 102.914c.736.046 1.498-.069 2.213.118.626.297.87 1.009 1.289 1.521 1.559 2.253 3.239 4.433 5.182 6.371.455.405.775 1.029.505 1.619-.281.72-1.029.595-1.617.127-2.744-1.79-5.297-3.837-7.497-6.243-.497-.613-1.071-1.177-1.475-1.855-.296-.664.144-1.492.856-1.626.18-.039.366-.023.549-.025z" fill="#ac93a7"/><path d="M169.408 90.459c3.113 3.5 5.768 7.243 8.197 11.235.354.604.761 1.183 1.074 1.807.284.615-.099 1.414-.754 1.583-.53.184-1.077-.108-1.429-.5-2.502-2.473-4.733-5.199-7.074-7.822-1.841-2.077-3.753-4.106-5.876-5.899-.71-.601-1.493-1.176-2.288-1.699.732 1.472 1.542 2.903 2.38 4.316l6.943 11.456c.329.573.08 1.388-.534 1.65-.523.272-.783-.156-1.132-.606-2.855-3.13-5.384-6.634-7.44-10.339-1.166-2.153-2.065-4.429-2.589-6.835-.13-.483-.602-.791-.198-1.125.323-.285.785-.358 1.189-.218a1.86 1.86 0 0 1 .543.418c.017-.14.034-.278.101-.408 2.526-1.192 6.973 1.627 8.895 2.986z" fill="#fff"/></g><path d="M192.331 58.046c5.375 1.376 8.795 7.405 9.395 9.692 4.826 5.741 4.601 16.63-2.077 20.46-.803 2.642-2.427 5.824-5.438 7.476 1.653.263 3.582.872 4.621 1.74 15.862 4.384 23.001 4.258 32.254 4.041 7.6-.179 14.71-2.505 28.086-6.431 11.462-3.472 22.385-7.067 33.038-9.47 6.391-1.371 7.924-1 13.565-3.146-5.506 3.738-6.77 3.069-13.139 4.455l-33.1 9.675c-11.52 3.598-19.714 6.392-28.359 6.74-11.863.478-22.471-1.512-33.761-4.617-1.688-1.033-3.314-1.528-5.425-1.491-5.679.101-13.713-1.797-20.654-4.098l-2.69-2.888c5.473 3.145 14.748 4.601 19.943 5.166 5.435.59 9.738-4.293 9.744-8.29 6.754-3.292 6.204-13.61 2.051-18.679-.787-4.087-4.576-8.778-8.057-10.33zm-50.172 19.549c3.168.708 6.354 1.298 8.815 1.129l.876 1.281c-2.817.003-5.868.04-8.009-.602-3.236-.456-5.411.404-8.226.842-.459.21-.67.475-.697.767-.119 1.236 3.031 2.971 4.368 3.21 1.593-.353 1.688-.748 1.633-1.702.394.079.664.279.81.606 3.467.547 8.83.814 9.412-.497 1.507 1.488 5.948 3.145 7.808 2.949.014.307.632.765 1.63 1.304h-.101l2.979 3.18c-2.24-.994-4.082-1.953-5.139-2.746-2.882-.315-5.579-1.881-7.551-2.969-2.798.268-5.714.5-8.967-.002-2.566 2.539-5.585.572-7.911-1.906-.555-.569-.722-1.442-.477-2.081.253-.64.708-1.092 1.214-1.525l.191-.168.253-.036c2.242-.302 4.342-1.068 7.114-1.037zm48.15-9.756c.116 2.836-.733 5.715-1.535 9.609-1.843 9.395-9.145 12.776-16.272 10.953-4.421-1.347-7.506-2.908-9.562-5.249 3.703 2.886 7.429 3.734 9.896 4.229 7.08 1.429 13.811-2.945 14.725-10.172.188-3.218 1.653-6.669 1.621-9.483-.074-2.46-.601-5.218-4.377-7.467 3.662.68 5.391 5.178 5.504 7.581z"/><path d="m169.914 90.492c5.365 5.515 7.918 11.202 11.298 15.857 2.963 4.083 6.551 7.155 12.911 8.642-2.448-3.317-.401-6.027 1.733-7.236-3.006-3.13-1.895-6.769 2.331-7.728-.521-.533-.705-1.21-1.001-1.84l1.478-.806c.244 1.435 1.251 2.554 2.051 3.761-5.377.498-6.143 3.831-2.1 6.992-2.831 1.459-4.937 2.6-3.345 5.619.588.639 1.45 1.251 2.119 2.227l1.076 1.573-1.886-.26c-7.848-1.08-12.311-4.402-15.703-8.628-8.376-7.315-14.799-15.999-20.408-20.058-.975-.777-.837-.921-.874-1.831 2.967-1.02 8.495 1.832 10.327 3.722zm-8.372-2.548c6.099 3.791 11.423 11.751 16.236 16.241-2.552-4.18-5.131-8.596-8.957-13.012-1.549-1.792-6.049-4.435-7.279-3.238z"/><g stroke="#000"><ellipse cx="168.385" cy="60.254" fill="#fff" rx="7.682" ry="8.055" stroke-width="1.2"/><ellipse cx="169.054" cy="60.389" rx="4.31" ry="4.519" stroke-width=".48"/></g><path d="M158.778 65.21c3.734 6.589 9.537 6.861 15.4 4.638-6.501 5.899-12.957 1.483-15.401-4.635zm3.725-11.024c-1.441 1.829-2.647 5.342-1.683 8.355.532 1.66 1.362 5.028 6.535 6.252-8.487-.162-10.068-10.248-4.852-14.607zm10.344 54.392c2.234 4.522 5.255 8.154 11.274 10.689-1.855-3.683.618-6.01 2.924-6.841l2.171 1.112c-3.037.963-4.82 1.454-3.758 4.698.47.728 1.217 1.476 1.712 2.549l.797 1.733-1.816-.574c-7.554-2.385-11.501-7.147-14.134-11.883-7.234-7.257-11.045-12.225-13.566-21.297-.83-.93-1.2-2.011-1.083-2.914 1.632.007 3.048 1.378 4.111 3.473.396.782.715 1.597 1.205 2.483 2.868 5.183 7.243 11.898 10.162 16.771zm-13.429-20.11c.711 4.452 5.638 12.426 10.404 17.396-1.571-2.397-5.819-9.427-8.448-13.976-1.164-2.018-1.059-2.403-1.955-3.421z"/><path d="M245.814 40.78c-.546-.01-1.207.032-1.824.052l1.824-.052zm-1.824.052c-3.615.238-8.55 1.367-14.896 4.261-2.136.974-4.118 2.026-6.006 3.081l-2.059-.307c2.388-1.228 4.958-2.464 7.739-3.548 6.716-2.621 11.57-3.359 15.222-3.487zm5.883 4.06a73.43 73.43 0 0 0-11.308 2.281c-2.707.789-4.88 1.647-6.719 2.518l-1.741-.394-.922-.152c2.361-1.074 5.281-2.061 8.95-2.795 4.956-.991 10.28-1.304 11.74-1.458zm-13.557 5.814c1.922.214 3.961.387 7.26.428l9.771.039c-2.692 0-5.234.365-9.736.804l-2.902.236-3.992-1.414z" class="B"/><path d="m333.99 47.232c-3.915 3.829-3.2 8.023-6.744 10.596.033 1.359-.497 3.919-3.202 5.876 1.205 2.582 1.31 5.281-.173 7.796.718 3.076.618 5.84-.865 7.92 2.007 2.99.885 7.834-.672 10 1.781 2.043 2.294 4.524 1.735 6.386 1.572 2.213 1.96 4.246 1.775 7.322-4.834.661-11.917-5.515-16.785-8.477-3.382-2.058-6.693-4.438-9.885-5.8s-7.086-1.853-9.082-1.478l1.501-1.183c2.611-.49 5.007-.199 8.335 1.221s6.136 4.008 9.627 5.943c4.862 2.693 9.545 7.866 14.79 8.301.547-1.527-.23-3.189-1.796-5.201l-.143-.198-.013-.25c1.046-1.991.144-4.293-1.54-5.911l-.41-.408.234-.528c1.551-1.592 3.015-6.475.665-9.524l-.125-.437.298-.34c1.34-1.549 1.451-3.992.68-7.152l-.089-.362.207-.31c1.546-2.341 1.414-4.534.078-7.057l-.277-.602c2.743-.957 4.241-5.191 3.527-6.531l.174-.122c3.975-2.749 3.152-5.672 5.825-9.222-1.401-1.127-2.946-1.995-4.473-1.389-4.353 1.733-9.778 7.74-15.319 10.619-4.433 2.783-13.062 7.874-18.803 11.308l-.053.025c-1.63.763-3.615.22-7.058.215l.005-1.261c3.254-.008 4.917.164 6.312-.482l18.804-11.305c3.652-1.67 10.394-8.179 15.28-10.338 3.018-1.334 5.655.498 7.648 2.337z"/><path d="M322.79 64.566c-.558-.167-1.481-.326-3.319.044-1.382.277-2.954.779-4.853 1.441-4.271 1.49-9.151 2.982-11.455 3.357 3.134-.51 6.147-1.858 11.141-4.139 1.817-.825 3.396-1.515 4.831-1.961 1.919-.6 3.202-.63 4.143-.349zm.695 7.756c-.52.378-1.461.771-3.034 1.108-1.169.249-2.587.446-4.078.546-1.5.1-2.915.093-4.11-.011-1.627-.141-2.502-.426-3.023-.644.508.213 1.45.375 3.032.312 1.171-.048 2.558-.215 3.993-.493s2.757-.635 3.821-1.013c1.457-.515 2.097-.942 2.408-1.168zm2.407-14.581c.02.024-.067-.12-.509-.273-.342-.118-.859-.233-1.587-.287-1.273-.095-3.101.003-5.355.508-5.954 1.335-11.346 4.654-15.134 8.178 3.851-3.582 8.831-7.117 14.918-8.992 2.265-.698 4.181-.995 5.593-1.047.808-.029 1.458.02 1.961.123.652.131 1.121.367 1.407.708zm-3.304 22.488c-1.628.826-3.353.765-5.58-.143-1.958-.801-3.984-1.67-5.157-1.726 1.172.055 3.407.547 5.396.916 2.265.422 3.374.06 4.578-.551zm-.55 9.769c-.363.233-.849.312-1.453.265-.464-.035-1.025-.148-1.684-.34-1.155-.337-2.6-.92-4.129-1.698-4.094-2.081-6.293-4.169-7.326-5.563.974 1.316 3.588 3.248 7.667 4.792 1.575.597 2.997.98 4.086 1.149.621.097 1.085.116 1.414.093.421-.029.538-.13.516-.117zm2.073 6.812c-.214.279-.522.437-.858.508-.318.068-.684.063-1.098.006-.636-.088-1.46-.314-2.47-.683-1.773-.649-4.113-1.748-6.564-3.165-2.475-1.431-4.777-3.019-6.562-4.572-2.438-2.121-3.353-3.674-3.691-4.737.336 1.057 1.38 2.555 3.901 4.479 1.854 1.415 4.23 2.843 6.749 4.087 2.513 1.241 4.849 2.141 6.581 2.621.992.274 1.717.393 2.204.41.316.011.499-.023.567-.053.06-.026-.032-.011-.097.074zm-146.124-2.542l.607-.59c1.425 1.485 4.019 4.799 6.817 7.736 3.088 3.241 5.643 4.97 7.845 5.808-2.299-.875-4.85-2.146-8.425-5.198-2.629-2.242-6.539-6.237-7.449-7.164l.606-.59zm9.591.927c1.246.234 2.802.93 4.776 2.052l4.416 2.389-4.756-1.618c-2.447-.785-3.354-.903-4.748-1.166zm-23.171-4.652c.079.164.989.354 1.076.531.807 1.639 3.097 6.595 6.149 11.861 3.688 6.363 6.705 10.117 8.899 11.959-2.318-1.946-5.38-5.219-9.559-11.549-3.361-5.096-6.007-9.982-6.816-11.622-.088-.179.32-1.016.241-1.18z" class="B"/><path d="M229.716 102.796c2.907 5.853 10.472 13.058 16.968 15.866.732.317 1.286.992 1.928 1.311-4.87-.679-7.96-2.898-11.826-5.654-6.137-2.417-10.341-6.925-13.024-10.544-.067-.096-.13-.186-.191-.359-.03-.086-.067-.198-.056-.379s.111-.452.303-.618l.592.21c.175-.151.396.41.405.257s.363.021.346-.026c-.033-.094-.04-.082-.02-.053 2.376 3.393 7.044 8.043 9.868 9.55-3.155-2.83-5.879-6.993-7.602-9.455z"/><path d="M265.684 93.138c2.566 1.338 3.135 3.555 4 5.946-3.238-.045-6.736-.245-8.128 2.923-3.512.046-5.314 1.706-5.962 4.708-3.856-.521-5.405 2.104-4.783 5.264-3.516 1.884-4.08 6.517-2.301 7.967l-1.841-.78c-2.309-2.477-.135-6.775 2.36-8.023-.164-3.636 1.864-6.323 5.329-6.179 1.077-3.205 3.355-4.071 6.232-4.487 1.804-2.376 4.096-2.713 6.692-2.882-.223-.577-.464-1.277-.672-1.59-.337-.507-.742-.848-1.712-1.356zm-89.331-27.996c1.965-5.682.803-10.072-3.082-12.729-1.009-.69-2.219-1.127-3.67-1.471 8.344-.733 9.726 8.32 6.752 14.2z"/><path d="M239.761 101.65l3.17 4.218c1.633 1.947 2.971 3.041 3.915 3.419-1.058-.423-2.379-1.056-4.506-2.817-1.811-1.498-4.01-3.708-4.467-4.279zm9.928-3.438c.42.492.876 1.426 1.503 2.526s1.145 1.807 1.595 2.078c-.644-.387-1.038-.53-2.238-1.534l-2.141-1.972zm8.107-2.191l.764-.356c.285.612.549 2.617.974 3.042-.425-.425-2.193-1.667-2.502-2.33l.775-.354z" class="B"/><path d="M212.68 62.204c4.467-1.854 1.854-10.231-1.281-9.927 5.849-.826 6.439 9.236 1.281 9.927zm.506 13.771c4.71-1.086 3.522-9.783.378-10.007 5.911.155 4.822 10.187-.378 10.007zm-3.523 11.158c4.808.502 6.507-8.11 3.606-9.343 5.546 2.057 1.247 11.192-3.607 9.338zm11.074-3.135c4.823-.329 5.022-9.104 1.953-9.822 5.812 1.086 3.153 10.821-1.953 9.822zm.101-14.58c4.774-.757 4.191-9.515 1.07-9.957 5.886.564 4.105 10.497-1.07 9.957zm-6.742 27.289c4.669 1.264 7.72-6.961 5.057-8.647 5.14 2.933-.557 11.259-5.057 8.647zm-11.765-.624c4.548 1.639 8.26-6.315 5.739-8.207 4.885 3.333-1.466 11.175-5.739 8.207zm28.047-20.074c4.465-1.854 1.848-10.232-1.289-9.931 5.849-.826 6.439 9.236 1.281 9.927zm-3.742 15.254c4.823-.33 5.022-9.105 1.953-9.823 5.812 1.086 3.153 10.821-1.953 9.823zm-6.427 9.915c3.325 1.198 6.039-4.616 4.196-6 3.571 2.437-1.072 8.171-4.196 6zm9.22-1.466c4.834.077 5.768-8.65 2.771-9.624 5.7 1.571 2.233 11.048-2.771 9.624zm6.675-15.17c4.692-1.163 3.361-9.838.214-10.012 5.913.058 4.987 10.108-.214 10.012zm2.275-14.343c3.16-1.832.368-7.847-1.952-7.31 4.302-1.202 5.746 6.285 1.952 7.31zm7.13 19.181c4.176-.729 3.546-8.402.803-8.747 5.169.415 3.742 9.151-.802 8.746zm.994-10.147c4.241-2.319.747-10.371-2.341-9.737 5.734-1.448 7.396 8.505 2.341 9.737zm6.405 16.754c4-.991 2.866-8.389.182-8.535 5.041.049 4.253 8.616-.182 8.535zm4.315-13.316c3.664-1.114 2.253-7.922-.244-7.929 4.68-.198 4.363 7.79.244 7.929zm8.209 9.22c3.769-.83 2.7-7.022.172-7.146 4.749.042 4.006 7.214-.172 7.146zm3.961-10.939c3.849-1.623 1.496-8.005-1.219-7.64 5.064-.888 5.68 6.893 1.219 7.64zm6.539 8.327c3.946-1.511 1.534-7.447-1.249-7.108 5.191-.826 5.823 6.412 1.249 7.108zm5.091-9.844c3.463-1.326 1.346-6.539-1.098-6.241 4.558-.725 5.114 5.631 1.098 6.241zm7.146 5.9c3.371-1.281 1.315-6.355-1.062-6.068 4.432-.705 4.971 5.474 1.067 6.068zm5.916-6.911c3.238-1.856.324-6.708-2.059-6.033 4.418-1.428 5.956 4.803 2.059 6.033zm-55.402 19.67c4.223.367 5.584-7.211 3.02-8.247 4.89 1.727 1.269 9.804-3.021 8.247zm-10.838-35.48c3.158-1.831.367-7.846-1.952-7.31 4.301-1.202 5.746 6.285 1.952 7.31z"/><path d="m128.86 64.315.017-.868 1.554-1.449 2.186-.132 4.134 2.292 6.102 6.187c-2.449-1.833-13.327-7.509-7.005 2.054l-1.528-1.29-1.844-1.922-2.054-2.002-1.053-1.554zm5.426 17.158.316-1.685 1.948-.474 3.898-.527h3.898l4.319.632 2.634-.369 1.948 1.264 3.687.369c-2.418 1.593-3.653 1.277-6.32.658.706 2.548 6.213 3.105 9.244 3.003l1.186 1.264c1.212.186 2.423-.043 3.635-.948l3.214 1.82 4.056 1.053 3.634.527 4.056-.158c4.39 5.89 15.337 4.184 19 .513 5.204 3.206 8.281 5.438 37.06 3.889 12.273-.659 25.784-3.275 37.95-5.316 14.857-2.493 31.555-4.121 33.844-7.155-.038 1.263-.762 2.506-3.323 3.549l-10.283 1.937-4.033 1.513-11.588 3.476-12.295 3.597 2.367 4.039c-4.087-1.766-6.666-.899-8.642 1.636-5.005-.019-5.483 2.225-7.15 3.875-4.664-.416-7.226 1.748-8.566 3.947-4.568-2.207-9.123-2.774-12.499-.214-1.391-1.213-2.844-.876-3.23.118l-3.998-4.5-7.216-.369-14.537-3.055-4.636-.948 1.212 1.896-3.476 1.949.368 4.214 1.054 1.633c-6.357-.365-11.041-6.029-16.276-10.482-2.776-1.163-5.315-1.968-5.162 1.264l-2.949-3.582c-2.268-1.663-3.394-1.614-3.477 0l3.002 4.319c-2.077-1.413-2.945-1.25-2.738.316-2.148-3.298-3.243-3.246-4.002-2.209l-1.58-2.371c-1.266-1.321-2.508-2.573-2.318.474l-2.159-5.056-.737-3.318-.738-1.212-5.741-1.685-1.298-1.543c-.453.472-1.141.641-1.701.961l-4.319-.105-3.476-.211-1.317 1.106-1.791.158zm.943-.312c.017.464 1.062 1.104 1.383 1.59.95 1.795 4.62.976 4.138-.27.894-.16 1.037.185 1.293.385 2.191.382 5.975.759 8.063-.487.408-.244.434-.614.48-1.024-.25-.028-.175-.987-.744-1.063-1.6-.216-4.149-.187-5.181-.257-.75-.051-2.576-.546-3.339-.517-2.079.08-5.327.525-6.03 1.455-.044.058-.059.121-.056.188z" fill-opacity=".29"/><path d="m250.122 37.899c-5.672 1.951-1.935 6.513 3.936 4.438-3.657 3.389-1.312 7.555 2.893 7.345-2.876 2.783-2.856 5.74.178 7.354l-.814 1.123c-3.179-1.959-3.944-5.064-1.872-7.543-3.476-.636-4.254-3.36-3.134-6.564-3.765-.124-6.568-1.375-5.057-4.606-4.4-.149-9.982 1.508-12.443 1.696l.061-1.307c5.357-.696 10.334-2.154 16.252-1.936z"/><g stroke="#000" stroke-miterlimit="4" stroke-width="2.04" class="B"><path d="m70.298 75.247c-.652 10.61-5.439 22.902 9.255 37.186l.487 12.639c-14.622-7.335-15.181-24.549-17.293-39.373z" class="C"/><path d="m84.906 49.965c10.45-9.96 13.732-18.295 11.936-29.408-8.464 3.597-13.079 14.328-17.051 26.249 6.534-14.187 3.637-22.837-.73-30.624-2.727 8.684-6.931 15.868-4.872 29.408.007-14.871-7.511-21.792-18.512-25.034 1.51 9.479 6.137 20.416 13.154 29.895-8.868-16.07-20.237-13.757-29.716-14.583 5.245 11.629 16.292 15.7 26.55 19.201-11.852-4.125-23.418-7.679-31.421 2.916 13.275 7.096 23.329 4.595 32.882 3.403-13.135 1.137-24.934 4.144-29.472 16.527 12.915.3 22.31-5.264 31.909-13.61-11.398 8.04-15.378 18.167-14.859 30.138 9.712-8.284 17.575-17.096 18.269-27.95-5.008 17.772-1.574 26.624 4.384 32.811 5.267-11.389 1.887-20.795 2.436-33.054.109 17.624 8.997 21.378 16.563 27.221-3.028-10.185-.838-17.313-12.422-29.166 17.001 20.271 21.568 14.178 28.742 13.611-7.266-10.106-16.017-14.395-25.819-17.013 8.254 1.685 17.922 6.296 28.742-3.889-8.401-4.339-17.46-6.593-28.499-2.431 13.695-3.107 21.117-8.405 25.089-16.04-10.424-2.829-17.151 1.355-27.281 11.423z" fill="#f1ede5"/><path d="M65.911 56.407c0 5.839 4.744 10.573 10.596 10.573s10.595-4.734 10.595-10.573-4.744-10.572-10.595-10.572-10.596 4.733-10.596 10.572zm318.372 18.84c.652 10.61 5.439 22.902-9.256 37.186l-.487 12.639c14.622-7.335 15.181-24.549 17.294-39.373z" class="C"/><path d="m369.674 49.965c-10.45-9.96-13.732-18.295-11.935-29.408 8.464 3.597 13.078 14.328 17.05 26.249-6.534-14.187-3.636-22.837.73-30.624 2.727 8.684 6.931 15.868 4.872 29.408-.007-14.871 7.511-21.792 18.512-25.034-1.509 9.479-6.136 20.416-13.153 29.895 8.868-16.07 20.236-13.757 29.716-14.583-5.245 11.629-16.293 15.7-26.55 19.201 11.852-4.125 23.417-7.679 31.42 2.916-13.274 7.096-23.328 4.595-32.882 3.403 13.135 1.137 24.934 4.144 29.472 16.527-12.915.3-22.31-5.264-31.908-13.61 11.398 8.04 15.378 18.167 14.858 30.138-9.712-8.284-17.575-17.096-18.268-27.95 5.008 17.772 1.573 26.624-4.384 32.811-5.267-11.389-1.888-20.795-2.436-33.054-.109 17.624-8.997 21.378-16.564 27.221 3.029-10.185.838-17.313 12.423-29.166-17.002 20.271-21.569 14.178-28.742 13.611 7.266-10.106 16.016-14.395 25.818-17.013-8.253 1.685-17.921 6.296-28.742-3.889 8.401-4.339 17.46-6.593 28.499-2.431-13.695-3.107-21.117-8.405-25.088-16.04 10.423-2.829 17.15 1.355 27.28 11.423z" fill="#f1ede5"/><path d="M388.669 56.407c0 5.839-4.744 10.573-10.595 10.573s-10.596-4.734-10.596-10.573 4.744-10.572 10.596-10.572 10.595 4.733 10.595 10.572z" class="C"/></g></svg>