<svg enable-background="new 0 0 111.1 125.2" viewBox="0 0 111.1 125.2" xmlns="http://www.w3.org/2000/svg" xmlns:xlink="http://www.w3.org/1999/xlink"><clipPath id="a"><path d="m1.3 0h388.4v125.2h-388.4z"/></clipPath><g clip-path="url(#a)"><path d="m2.2.9h106.2v53.1c-.7 43.3-49.2 66-55.3 65.8-6.3-.2-51-22.5-50.9-66 0-.8 0-52.9 0-52.9" fill="#fff"/><path d="m2.2 33.1c.2.2 0-32.3 0-32.3h106.1v32.3" fill="#900"/><path d="m2.2 33.1c.2.2 0-32.3 0-32.3h106.1v32.3z" fill="none" stroke="#900" stroke-miterlimit="5.9479" stroke-width=".7379"/><path d="m2.2 33.4h106.1" fill="none" stroke="#011f5b" stroke-miterlimit="5.9479" stroke-width=".7379"/><path d="m81.8 8.9h2.9c2.1-.5 2.9-1.7 5.1-1.7 1.6 0 2.3 1 3.4 1 1 0 2.5-1.1 4.1-1.1 1.7 0 2.5 1 3.6 1.5 1 .4 2.2.4 3.6.4v2.4c0 .8 1.1.5 1.1 1.9s-1.4 1.1-1.4 1.7l-.1 5.3c.1.7 1.4.7 1.4 1.7 0 1.5-1.5 1-1.4 2.1.1.9 0 2.7 0 2.7-2.9 0-21.2.2-22.1.1.1-2 .4-1.8.4-2.8.1-.8-1.7-1.2-1.7-2.5 0-.9 1-.8 1.1-1.7v-5.3c-.1-.7-1.6-1-1.5-2 .1-1.2 1.4-1 1.4-1.8.1-.3.1-1.6.1-1.9" fill="#fff"/><g fill="none" stroke-miterlimit="5.9479"><path d="m81.8 8.9h2.9c2.1-.5 2.9-1.7 5.1-1.7 1.6 0 2.3 1 3.4 1 1 0 2.5-1.1 4.1-1.1 1.7 0 2.5 1 3.6 1.5 1 .4 2.2.4 3.6.4v2.4c0 .8 1.1.5 1.1 1.9s-1.4 1.1-1.4 1.7l-.1 5.3c.1.7 1.4.7 1.4 1.7 0 1.5-1.5 1-1.4 2.1.1.9 0 2.7 0 2.7-2.9 0-21.2.2-22.1.1.1-2 .4-1.8.4-2.8.1-.8-1.7-1.2-1.7-2.5 0-.9 1-.8 1.1-1.7v-5.3c-.1-.7-1.6-1-1.5-2 .1-1.2 1.4-1 1.4-1.8.1-.3.1-1.6.1-1.9z" stroke="#011f5b" stroke-width=".7379"/><path d="m84.1 9v14.5h17.9c0-3.1 0-14.6 0-14.6" stroke="#011f5b" stroke-width=".7379"/><path d="m93.1 8.3v15.3" stroke="#011f5b" stroke-width=".7379"/></g><path d="m93.4 21.7c.8 0 2.1.5 3.5 1 1.7.5 3.6.2 5 .4.4.1-8.4.2-8.4.2-.1-1.8-.1-1.6-.1-1.6" fill="#011f5b"/><path d="m93.4 21.7c.8 0 2.1.5 3.5 1 1.7.5 3.6.2 5 .4.4.1-8.4.2-8.4.2-.1-1.8-.1-1.6-.1-1.6z" fill="none" stroke="#011f5b" stroke-miterlimit="5.9479" stroke-width=".7379"/><path d="m92.1 23.9c0-.4.4-.7 1-.7s1 .3 1 .7-.4.7-1 .7-1-.3-1-.7" fill="#011f5b"/><path d="m92.1 23.9c0-.4.4-.7 1-.7s1 .3 1 .7-.4.7-1 .7-1-.3-1-.7z" fill="none" stroke="#011f5b" stroke-miterlimit="5.9479" stroke-width=".7379"/><path d="m92.6 21.7c-.8 0-2.1.5-3.5 1-1.7.5-3.6.2-5 .4-.4.1 8.4.2 8.4.2 0-1.8.1-1.6.1-1.6" fill="#011f5b"/><path d="m92.6 21.7c-.8 0-2.1.5-3.5 1-1.7.5-3.6.2-5 .4-.4.1 8.4.2 8.4.2 0-1.8.1-1.6.1-1.6z" fill="none" stroke="#011f5b" stroke-miterlimit="5.9479" stroke-width=".7379"/><path d="m33.8 28.3c.3 1.1 1.1 1.9 2.5 1.9 2.6 0 5-1.9 6.5-3 1.2-.8 2.4-1.7 2.4-3.5l-.2.7s2-2 7-.4c1.4.4 7.3 3.8 8.5 4.3 1.1.5 4.9 3.2 10.9 2.2 0 0 9.2-1.3 7.1-10.7-1.5-6.7-1-7.2-.5-9.4-.2-.1-5.6-1.3-5.5 6.2-2.3.2-5.3 2-3.4 6.6.8-1.2 1.8-2.4 3.3-2.4.9 0 1.9 1.3 1.9 2.3.1 2.4-2.2 3.4-5.2 2.9-1.5-.2-2.9-1.9-4.9-3.4.4-.2.7-1.4.7-1.9 0-1.2-1-1.7-1.7-2.1.1-.4.4-1 .4-1.4 0-1-1.3-.9-1.9-1.2.2-.3.2-.1.2-.6 0-1.4.2-2.1-2.6-2.1.2-1.4-.1-2.2-1-2.6l-2.1-.3c-1.3-.2 0-.7-1.2-1.8-1.1-1-2.8 0-2.8 0 0-1-.7-1.7-1.8-1.7-.6 0-1.4.1-1.8.3l-.6.6c-1.1 0-1.3-1-2.6-1-1.2 0-1.7 1-2.2 1.6-.8-.4-1-1.1-2.1-1.1-.7 0-.9.7-1.1 1-.7.8-.7 1.7-1.8 2.1l-.4-.8v-.1c-1.7.8-5.5 9.5-5.5 11.3 0 1.7 1.5 1 1.5 2.8 0 1.1-1.6 1.8-1.6 2.8 0 1.2 1.3 1.7 2.5 1.7" fill="#fff"/><path d="m33.8 28.3c.3 1.1 1.1 1.9 2.5 1.9 2.6 0 5-1.9 6.5-3 1.2-.8 2.4-1.7 2.4-3.5l-.2.7s2-2 7-.4c1.4.4 7.3 3.8 8.5 4.3 1.1.5 4.9 3.2 10.9 2.2 0 0 9.2-1.3 7.1-10.7-1.5-6.7-1-7.2-.5-9.4-.2-.1-5.6-1.3-5.5 6.2-2.3.2-5.3 2-3.4 6.6.8-1.2 1.8-2.4 3.3-2.4.9 0 1.9 1.3 1.9 2.3.1 2.4-2.2 3.4-5.2 2.9-1.5-.2-2.9-1.9-4.9-3.4.4-.2.7-1.4.7-1.9 0-1.2-1-1.7-1.7-2.1.1-.4.4-1 .4-1.4 0-1-1.3-.9-1.9-1.2.2-.3.2-.1.2-.6 0-1.4.2-2.1-2.6-2.1.2-1.4-.1-2.2-1-2.6l-2.1-.3c-1.3-.2 0-.7-1.2-1.8-1.1-1-2.8 0-2.8 0 0-1-.7-1.7-1.8-1.7-.6 0-1.4.1-1.8.3l-.6.6c-1.1 0-1.3-1-2.6-1-1.2 0-1.7 1-2.2 1.6-.8-.4-1-1.1-2.1-1.1-.7 0-.9.7-1.1 1-.7.8-.7 1.7-1.8 2.1l-.4-.8v-.1c-1.7.8-5.5 9.5-5.5 11.3 0 1.7 1.5 1 1.5 2.8 0 1.1-1.6 1.8-1.6 2.8 0 1.2 1.3 1.7 2.5 1.7z" fill="none" stroke="#011f5b" stroke-miterlimit="5.9479" stroke-width=".7374"/><path d="m37.7 21s1.9.7 1.9 1.1c0 .5-1.2 1.1-2 1.8h-1c.4-1.2 0-.7 0-1.8 0-.8.8-1.1 1.1-1.1" fill="#011f5b"/><path d="m37.7 21s1.9.7 1.9 1.1c0 .5-1.2 1.1-2 1.8h-1c.4-1.2 0-.7 0-1.8 0-.8.8-1.1 1.1-1.1z" fill="none" stroke="#011f5b" stroke-miterlimit="5.9479" stroke-width=".7379"/><path d="m44.6 17.8c1-.5.5-1.7 2.1-1.7 1.4 0 1.9 1 3.2 1 .8 0 1.4-.8 2.6-.8 1 0 2.4 1.4 2.2 3 0 0 3.6-1.2 3.4 2.7 2.9-1 2.6 1.4 2.9 2.6.3 1.1 2.2.2 1.9 2.6" fill="none" stroke="#011f5b" stroke-miterlimit="5.9479" stroke-width=".7379"/><path d="m6.2 9h2.9c2.1-.5 2.9-1.7 5.1-1.7 1.6 0 2.3 1 3.4 1 1 0 2.5-1.1 4.1-1.1 1.7 0 2.5 1 3.6 1.5 1 .4 2.2.4 3.6.4v2.4c0 .8 1.1.5 1.1 1.8 0 1.4-1.4 1.1-1.4 1.7l-.1 5.3c.1.7 1.4.7 1.4 1.7 0 1.5-1.5 1-1.4 2.1.1.9 0 2.7 0 2.7-2.9 0-20.8 0-21.7 0 .1-2 0-1.7 0-2.6.1-.8-1.7-1.2-1.7-2.5 0-.9 1-.8 1.1-1.7v-5.3c-.1-.7-1.6-1-1.5-2 .1-1.2 1.4-1 1.4-1.8.1-.3.2-1.6.1-1.9" fill="#fff"/><path d="m6.2 9h2.9c2.1-.5 2.9-1.7 5.1-1.7 1.6 0 2.3 1 3.4 1 1 0 2.5-1.1 4.1-1.1 1.7 0 2.5 1 3.6 1.5 1 .4 2.2.4 3.6.4v2.4c0 .8 1.1.5 1.1 1.8 0 1.4-1.4 1.1-1.4 1.7l-.1 5.3c.1.7 1.4.7 1.4 1.7 0 1.5-1.5 1-1.4 2.1.1.9 0 2.7 0 2.7-2.9 0-20.8 0-21.7 0 .1-2 0-1.7 0-2.6.1-.8-1.7-1.2-1.7-2.5 0-.9 1-.8 1.1-1.7v-5.3c-.1-.7-1.6-1-1.5-2 .1-1.2 1.4-1 1.4-1.8.1-.3.2-1.6.1-1.9z" fill="none" stroke="#011f5b" stroke-miterlimit="5.9479" stroke-width=".7379"/><path d="m8.6 9.1v14.5h17.9c0-3.1 0-14.6 0-14.6" fill="none" stroke="#011f5b" stroke-miterlimit="5.9479" stroke-width=".7379"/><path d="m17.5 8.4v15.3" fill="none" stroke="#011f5b" stroke-miterlimit="5.9479" stroke-width=".7379"/><path d="m17.8 21.8c.8 0 2.1.5 3.5 1 1.7.5 3.6.2 5 .4.4.1-8.4.2-8.4.2 0-1.8-.1-1.6-.1-1.6" fill="#011f5b"/><path d="m17.8 21.8c.8 0 2.1.5 3.5 1 1.7.5 3.6.2 5 .4.4.1-8.4.2-8.4.2 0-1.8-.1-1.6-.1-1.6z" fill="none" stroke="#011f5b" stroke-miterlimit="5.9479" stroke-width=".7379"/><path d="m16.5 24c0-.4.4-.7 1-.7s1 .3 1 .7-.4.7-1 .7c-.5 0-1-.3-1-.7" fill="#011f5b"/><path d="m16.5 24c0-.4.4-.7 1-.7s1 .3 1 .7-.4.7-1 .7c-.5 0-1-.3-1-.7z" fill="none" stroke="#011f5b" stroke-miterlimit="5.9479" stroke-width=".7379"/><path d="m17.1 21.8c-.8 0-2.1.5-3.5 1-1.7.5-3.6.2-5 .4-.4.1 8.4.2 8.4.2 0-1.8.1-1.6.1-1.6" fill="#011f5b"/><g fill="none" stroke="#011f5b" stroke-miterlimit="5.9479"><g stroke-width=".7379"><path d="m17.1 21.8c-.8 0-2.1.5-3.5 1-1.7.5-3.6.2-5 .4-.4.1 8.4.2 8.4.2 0-1.8.1-1.6.1-1.6z"/><path d="m64.5 22.1c-2.4-2.6-4.5-5.7-4.8-5.8-1.2-.5-3.9-6-11.4-6.4-1.9-.1-9 .6-9.3 2.4"/><path d="m45.2 24.1c0-.2 0-.4 0-.6 0-.3-1.7-.1-2.2-.3-.3-.1.8-.5.6-.5 1.1-.4 3.8-1.6 2.9-2.6-.9-.9-1.5-1.8-2-2.4-.7-.8-1.5-1.2-2.8-1.2-1.1 0-2.9 1.9-3.6 2.4.5-.5 2.1-1.9 2.1-3 0-2.5-2-4.6-2.5-6.7"/><path d="m34.5 27.9c2 0 3.1-.1 4-.6 1-.5 2.9-1.7 3.3-2.7"/></g><path d="m2.2.9h106.2v53.1c-.7 43.3-49.2 66-55.3 65.8-6.3-.2-51-22.5-50.9-66 0-.8 0-52.9 0-52.9z" stroke-width="1.4625"/></g></g><g clip-rule="evenodd" fill-rule="evenodd"><path d="m92.4 43c.1.1.2.2.2.2 0-.2.1-.5-.1-.7-.2-.1-.4 0-.5.1.1.1.3.2.4.4m3.6 7.4c0-.6-.1-1.2-.4-1.7s-.7-.9-1.2-1.2-1-.3-1.3-.9c-.1-.1-.2-.1-.1-.3 0-.1.2-.1.3 0 0-.2.1-.7-.1-.8.1-.2-.1-.8-.1-1.1-.1.1-.2.1-.4.2.1-.2.2-.3.3-.5-.2 0-.3-.2-.3-.4-.6 0-1.2-1-1.5-1.4 0 .3-.4 0-.5-.1-.1-.2-.2-.4-.3-.5-.2-.2-.4-.4-.7-.5-.4-.3-.9-.6-1.4-.8-.4-.2-.8-.5-1.1-.7.1.2.2.3.2.5-.1-.1-.7-.7-.9-.6-.3.1.1.4.2.5-.1-.1-1.2-.5-.6-.1-.2-.1-.5-.3-.6 0-.3-.1-.8-.1-1-.3-.2-.1-.5-.4-.7-.4 0 .1.1.2.2.3-.6-.2-1.2-.1-1.8-.1-.2 0-.4 0-.7 0-.2 0-.3.2-.4.2-1.4 0-2.6.3-3.9.6-2.6.5-4.8 2-6.5 4-.9 1.1-1.7 2.2-2.5 3.4-.7.9-1.2 1.9-2.1 2.7s-2.2 1.4-3.3 1.9c-.5.2-1.1.5-1.7.6s-1.2 0-1.8.1-1.4-.3-2-.5c-.7-.2-1.4-.4-2-.5-1.3-.3-2.6-.6-3.9-.8-1.5-.2-2.9-.4-4.4-.6-1.4-.2-2.8-.3-4.1-.7-2.6-.7-3.7-3.3-5.7-4.8-1.1-.8-2.3-1.3-3.7-1.5-.3 0-.7 0-1 0s-.5-.4-.7-.6c-.5-.5-1-.9-1.6-1.2-.2-.1-.4-.3-.7-.4-.4-.1-.6 0-.8-.2-.5-.5-1-1-1.5-1.4-1-.9-2-1.7-3.3-2-.3-.1-.7-.1-1-.1s-.5-.1-.8-.1-.4.2-.7.3c-.4.1-.8.1-1.2.2-1.3.3-1.9 1.5-1.9 2.8 0 1-.2 2-.2 3 0 1.1.2 2.2.5 3.3-1.1.1-1.3 1.9-.8 2.7-.6.2-.9.8-1 1.3 0 .2 0 .5.1.7s.3.4.3.6-.2.5-.2.7v1c.1.6.3 1.1.6 1.6-.5.1-1.2.1-1.2.7-.1.5.2 1.1.1 1.7-.1 1.1.6 2.3 1.6 2.9.1 0 .3.1.4.2v.4c0 .3 0 .6.1.9.1.5.3 1.1.6 1.6.6 1 1.4 1.8 2.5 2.4 0 0 .1 0 .1.1-.3.4-.4.9-.5 1.5-.1.7-.2 1.3-.1 2 .2 1.3 1.1 2.1 2.2 2.8-.1.1-.2.2-.4.4-.1.1-.3.2-.4.3 0 0 .1.1.1.2-.1.4 0 .5.3.9-.3.2-.7.7-.1.7-.1.3-.7.2-.6.6s.5.1.8 0c-.2.3-.9.3-1 .6-.2.4.3.4.6.3.1.3-.7.4-.8.6-.1.1 0 .3.1.3.2.1.3 0 .5-.1-.1.2-.4.4-.4.7v.2c0 .1 0 .2-.1.4.1-.1.3-.2.4 0-.2.1-.7.9-.2.7-.2-.1-.2.2.2.3.2 0 .3-.1.4 0s.2.3.3.4c.2.4.4.7.7 1.1.1.2.3.3.5.5s.2.2.1.5-.1.9.1 1.1c.1.1.3.2.4.3.2.1.2.1.4.3.1.1 0 .4.1.5s.3.1.5.1c.3 0 .6.1.9 0-.3.2-.9.6-.8 1.1 0 .4.6.4.9.3 0 .4.1.5.6.5.2 0 .3-.2.4-.2.2-.1.1 0 .3 0 .4.1.7.2.8.6s0 .9.1 1.3c0 .3-.2 1.7.4 1.6.2-.1.4-.2.6-.2s.5-.1.7-.2c-.3.3-.2 1.5.3 1.4.1 0 .3-.2.3-.2.1.1.2.1.3.1.2 0 .3-.2.5-.2 0 .2.1.3.3.3.3 0 .5.1.7.4.1.2.2.5.3.7.2.3.5.6.8.8s.6.4 1 .6c.2.1.1.6.2.8.3.6 1 .2 1.2-.2.4.6.7 1.1 1.4.7.2.6.9 1 1.3 1.5.2.3.5.5.8.6s.7-.1.9.1c.4.5.7 1.1 1.4 1.1.5 0 .6-.5.6-.9.3.3.4.4.5.8.1.3.2.7.3 1 .2.7.2 1.3.3 2 0 1.3.1 2.5-.2 3.7-.1.3 0 1.3-.3 1.5-.1.1-.7.1-.9.2-.3.1-.7.3-1 .4-.3.2-1 .7-.6 1.1.3.3.8-.1 1.1-.1.2-.1.5 0 .7 0 .3 0 .5-.1.7.1.3.5.9.6 1.5.6.4 0 1 .4 1.4.6.5.3 1.3.3 1.8.3.7 0 1.4.1 2.1.1h.9c.3 0 .4.2.7.3.2.1.5.2.7.2s.5.3.8.4.5.3.7.5.2.5.4.6c.6.6.8-.3.9-.8.1-.7-.5-1.1-1-1.5.8 0 1.6-.2 2.3-.1.5.1.8.3 1.2.6.1.1.3.2.4.3s.1.3.2.4c.4.5.7-.4.6-.7-.1-.7-.9-1.2-1.5-1.6.8.2 1.7.4 2.3.8.5.3.8 1 1.2 1.4.4.5.7 0 .8-.5.1-.8-.2-1.5-.9-1.9.4-.1.1-.8 0-1-.3-.5-.9-.8-1.5-.9.5-.2 1-.1 1.4.2.2.2.3.3.3.5s.2.4.3.5c.3.1.6-.1.7-.4.1-.4-.1-.8-.2-1.1-1.3-2.1-4.7-.8-6.6-.7-.6 0-1.1.1-1.7.1s-.8 0-.8-.6c0-.5.1-.9 0-1.4 0-.5-.2-1.1-.4-1.6-.3-1.1-.5-2.2-.7-3.3 0-.2-.1-.5-.1-.7 0-.1-.1-.4 0-.4.1-.1.2 0 .3-.1.1-.2-.1-.4-.2-.5-.1-.3-.1-.5-.1-.8.2.2.4.3.6.5.1.2.2.5.4.4-.3-.5-.4-.9-.6-1.4.1.1.1.2.3.3-.2-.3-.2-.6-.4-.8-.1-.2-.3-.6-.2-.8.3.6.7 1.2 1 1.8.1.2.2.4.5.5.1.1.3.2.4.3-.1-.2-.2-.3-.1-.5.1 0 .3.1.3.1.1.1.2.3.3.3.2 0-.1-.3-.1-.4-.3-.4-.5-1.1-.8-1.6l.3.3s0 0 0-.1c-.5-.5-.7-1.4-.9-2 .5.7 1.1 1.5 1.7 2.1.2.2.8.4.5-.1s-.6-1-.8-1.5c.4.5.8 1.5 1.5 1.4-.1-.1-.2-.3-.1-.4.1.1.8.5.7.3-.1-.1 0-.1 0-.3-.1-.2-.2-.4-.4-.6.3.3.7.5 1 .8.1.1.2.3.3.1.1-.1-.2-.3-.3-.4l.1.1c-.2-.3-.4-.5-.6-.7-.1-.2-.2-.5-.4-.7s0-.3.1-.5c.1-.1.6.1.7.1.7.1 1.2-.3 1.8-.5s1.3-.4 1.9-.6c1.3-.5 2.6-1 3.8-1.5.5-.2.9-.6 1.3-.8.5-.3.7-.8 1.3-.9 2.4-.2 5-1.1 6.9-2.6s3.3-3.6 4.2-5.8c1-2.5 1.8-5.1 3-7.5.6-1.2 1.2-2.3 2.1-3.3.8-1 1.5-1.8 1.9-3 .4-1.1.3-2.3.4-3.4.1-1.3 0-2.6.1-3.9.1-.7.2-1.4.4-2 .2-.7.5-1.3.8-2 .2-.5.2-1 .1-1.5 0-.1.4-.5.5-.6.2-.1.4 0 .6-.1.6-.1 1-.6 1.4-1 .2-.2.3-.4.4-.5.1-.2.4-.3.6-.4.4-.3.8-.5 1.2-.7.6-.3.6-.2 1.1 0 .4.2.9.4 1.3.5.7.2 1.5-.1 1.8.7.3-.3.2-.4.2-.6m-49.4 45.5c0-.2-.1-.4-.1-.6.1.1.2.5.1.6m2.5-.3c.1.3.5.7.4 1-.1-.3-.4-.4-.4-.6-.1-.5-.3-.9-.3-1.4.1.3.2.7.3 1m0 .6c-.2 0-.2-.1-.2-.3 0 .1.1.2.2.3m.6 7.5c0 .6-.2 1.2-.3 1.8-1.3-2.1-2.1-4.5-2-7 .3.1.3.4.4.6.1-.1.1 0 0-.1-.1-.3-.1-.3-.1-.5 0-.4-.2-.8-.3-1.2.3.3.4.7.5 1 .2.5.3.4.2-.1.1.1.2.3.3.4 0-.1-.2-.4-.2-.5.1-.1 0-.2 0-.3-.1-.4-.5-1-.5-1.4.3.7.4 1.5.9 2-.3-1.2-.5-2.5-.7-3.7.1.4.3.7.4 1s.2.5.2.7c.1.8.4 1.6.5 2.4.5 1.6.7 3.3.7 4.9m.1-7.8c0-.1 0 0 0 0m10.6 11.6s0 0-.1-.1c0 .1.1.1.1.1m22.7-66.7c.1 0 .1 0 .2.1-.1 0-.2-.1-.2-.1m8.8 6.3s-.1.1 0 0c0 0 .1 0 0 0 .1 0 .1 0 0 0"/><path d="m92.5 42.5c.1-.3-.2-.8-.4-.4-.1-.1 0-.3-.2-.4-.2-.2-.4.1-.4.4-.6-.5-.7-.5-.9.2 0 .2.1.3.1.5 0 .4.2.7.4 1 .3.5.7 1.2.4 1.8-.1.2-.3.4-.5.5s-.5.3-.3.5c-.9.1-1.4-1.4-1.9-1.9-.4-.4-.9-.5-1.4-.6 0 0 0-.1-.1-.1s-.2 0-.4.1-.3.1-.6.1c-.6 0-1.1.2-1.7.3-.4.1-.5.2-.3.4s.4.3.5.6.1.6.2.9c.1.1.1.2.2.2.2 0 .2.5.1.5 0-.1-.3-.2-.4-.1s.1.1.1.2v.5c-.3-.1-.7-.1-1-.2-.3 0-.4-.1-.7-.2h-.3c-.1-.1-.2-.3-.3-.5s-.3-.3-.3-.6c.2.1.3.2.5.2-.1-.1-.3-.2-.4-.4-.1-.1 0-.3-.2-.4-.5-.2-.3 1.2-.4 1.4-.1.1-.3.2-.4.4 0 .1 0 .2-.1.3 0 .1-.1.4 0 .4 0 0 .1-.2.2-.2-.2.2-.1 1.1 0 1.5.1.5.4.8.6 1.3.1.2.3.3.5.5s.2.5.3.8c.1.5.2 1.1.5 1.6.2.2.5 0 .6-.1.3-.3.2-.7.4-1 .7-1.1 2.1-1.8 3.2-2.3.3-.1.6-.3.9-.3-1.3.7-2.7 1.2-3.7 2.3-.5.5.2.5.6.7.2.1.3 0 .4.2s.6-.1.7-.2c0 .1-.3.6-.3.7.2.2.8-.8.9-.9.4-.3 1-.3 1.4-.5.3-.2.6-.5.8-.9.1-.2.1-.4.2-.6 0-.1.5-.2.6-.3.4-.2-.1-.4-.2-.5-.3-.3.9-.8 1.1-.8.5-.1 1.1.1 1.7 0 .1 0 .1.1.2 0s0-.1 0-.2c0 0-.1 0-.1-.1h.2c.1-.1.2-.1 0-.2-.3-.1-.8 0-1.1 0-.6 0-1.1-.2-1.7-.1-.7 0-1.3 0-2 .1v-.2c.4-.2.8-.4 1.2-.4.2 0 .2-.1.4-.1s.4-.1.6 0c.3 0 1 .7 1.3.3.2-.2.2-.3.1-.6.3.2.1-.1.2-.2.1-.2 0-.2.1-.3s.4-.1.5 0c.2 0 .6.4.7.1 0-.1-.1-.2-.1-.3.5 0 .6-.1.2-.5 0 0-.3 0-.2-.1s.1-.1.1-.2c0-.3-.4-.2-.1-.6s.4-.5.2-1c-.1-.2.2-.8-.2-.7.1-.2.3-.6.2-.8-.1-.3-.3-.1-.5.1-.3.4-.3.2-.2-.2 0-.2 0-.4-.3-.4m-5.4 1.8c.7.1 1.3.4 1.8 1 0 .1-.1 0-.2.1s-.2 0-.2.1 0 .3-.1.4c-.3.3-.6.5-1.1.5-.4 0-.8-.3-1-.6s-.2-.7-.5-.9c.2-.1.3-.2.4-.3.3-.2.6-.2 1-.1.3.1.5.2.7.4.2.1.2.3.5.3.1-.4-.9-.8-1.3-.9m-1.3 1.1c.2.8 1 1.5 1.9 1.4.4-.1.9-.2 1.2-.5-.4.5-1 .7-1.6.7-.5 0-.8-.2-1.1-.5-.2-.2-.6-.9-.4-1.1zm4.7 3.5c-.6 0-1.3.2-1.9.3-.3.1-.9.3-1.1.1.3-.1.5-.3.8-.4 0 .3.7 0 .8 0 .5-.1 1-.1 1.4 0m-6.5 2.6c0-.1 0-.1 0 0m.2 1.2c0 .1 0 .1 0 0" fill="#a51c21"/><path d="m87 44.7c-.9.3-.5 1.8.5 1.8 1.1-.1.6-2-.5-1.8m.2 1.4c-.7-.3-.3-1.3.3-1 .4.3.2 1.1-.3 1" fill="#fc3"/></g></svg>