<?xml version="1.0" encoding="UTF-8" standalone="no"?>
<!DOCTYPE svg PUBLIC "-//W3C//DTD SVG 1.1//EN" "http://www.w3.org/Graphics/SVG/1.1/DTD/svg11.dtd">
<svg width="100%" height="100%" viewBox="0 0 457 126" version="1.1" xmlns="http://www.w3.org/2000/svg" xmlns:xlink="http://www.w3.org/1999/xlink" xml:space="preserve" xmlns:serif="http://www.serif.com/" style="fill-rule:evenodd;clip-rule:evenodd;stroke-miterlimit:5.9479;">
    <g>
        <clipPath id="_clip1">
            <rect x="1.3" y="0" width="388.4" height="125.2"/>
        </clipPath>
        <g clip-path="url(#_clip1)">
            <path d="M2.2,0.9L108.4,0.9L108.4,54C107.7,97.3 59.2,120 53.1,119.8C46.8,119.6 2.1,97.3 2.2,53.8L2.2,0.9" style="fill:white;fill-rule:nonzero;"/>
            <path d="M2.2,33.1C2.4,33.3 2.2,0.8 2.2,0.8L108.3,0.8L108.3,33.1" style="fill:rgb(153,0,0);fill-rule:nonzero;"/>
            <path d="M2.2,33.1C2.4,33.3 2.2,0.8 2.2,0.8L108.3,0.8L108.3,33.1L2.2,33.1Z" style="fill:none;fill-rule:nonzero;stroke:rgb(153,0,0);stroke-width:0.74px;"/>
            <path d="M2.2,33.4L108.3,33.4" style="fill:none;fill-rule:nonzero;stroke:rgb(1,31,91);stroke-width:0.74px;"/>
            <path d="M81.8,8.9L84.7,8.9C86.8,8.4 87.6,7.2 89.8,7.2C91.4,7.2 92.1,8.2 93.2,8.2C94.2,8.2 95.7,7.1 97.3,7.1C99,7.1 99.8,8.1 100.9,8.6C101.9,9 103.1,9 104.5,9L104.5,11.4C104.5,12.2 105.6,11.9 105.6,13.3C105.6,14.7 104.2,14.4 104.2,15L104.1,20.3C104.2,21 105.5,21 105.5,22C105.5,23.5 104,23 104.1,24.1C104.2,25 104.1,26.8 104.1,26.8C101.2,26.8 82.9,27 82,26.9C82.1,24.9 82.4,25.1 82.4,24.1C82.5,23.3 80.7,22.9 80.7,21.6C80.7,20.7 81.7,20.8 81.8,19.9L81.8,14.6C81.7,13.9 80.2,13.6 80.3,12.6C80.4,11.4 81.7,11.6 81.7,10.8C81.8,10.5 81.8,9.2 81.8,8.9" style="fill:white;fill-rule:nonzero;"/>
            <path d="M81.8,8.9L84.7,8.9C86.8,8.4 87.6,7.2 89.8,7.2C91.4,7.2 92.1,8.2 93.2,8.2C94.2,8.2 95.7,7.1 97.3,7.1C99,7.1 99.8,8.1 100.9,8.6C101.9,9 103.1,9 104.5,9L104.5,11.4C104.5,12.2 105.6,11.9 105.6,13.3C105.6,14.7 104.2,14.4 104.2,15L104.1,20.3C104.2,21 105.5,21 105.5,22C105.5,23.5 104,23 104.1,24.1C104.2,25 104.1,26.8 104.1,26.8C101.2,26.8 82.9,27 82,26.9C82.1,24.9 82.4,25.1 82.4,24.1C82.5,23.3 80.7,22.9 80.7,21.6C80.7,20.7 81.7,20.8 81.8,19.9L81.8,14.6C81.7,13.9 80.2,13.6 80.3,12.6C80.4,11.4 81.7,11.6 81.7,10.8C81.8,10.5 81.8,9.2 81.8,8.9Z" style="fill:none;fill-rule:nonzero;stroke:rgb(1,31,91);stroke-width:0.74px;"/>
            <path d="M84.1,9L84.1,23.5L102,23.5L102,8.9" style="fill:none;fill-rule:nonzero;stroke:rgb(1,31,91);stroke-width:0.74px;"/>
            <path d="M93.1,8.3L93.1,23.6" style="fill:none;fill-rule:nonzero;stroke:rgb(1,31,91);stroke-width:0.74px;"/>
            <path d="M93.4,21.7C94.2,21.7 95.5,22.2 96.9,22.7C98.6,23.2 100.5,22.9 101.9,23.1C102.3,23.2 93.5,23.3 93.5,23.3C93.4,21.5 93.4,21.7 93.4,21.7" style="fill:rgb(1,31,91);fill-rule:nonzero;"/>
            <path d="M93.4,21.7C94.2,21.7 95.5,22.2 96.9,22.7C98.6,23.2 100.5,22.9 101.9,23.1C102.3,23.2 93.5,23.3 93.5,23.3C93.4,21.5 93.4,21.7 93.4,21.7Z" style="fill:none;fill-rule:nonzero;stroke:rgb(1,31,91);stroke-width:0.74px;"/>
            <path d="M92.1,23.9C92.1,23.5 92.5,23.2 93.1,23.2C93.7,23.2 94.1,23.5 94.1,23.9C94.1,24.3 93.7,24.6 93.1,24.6C92.5,24.6 92.1,24.3 92.1,23.9" style="fill:rgb(1,31,91);fill-rule:nonzero;"/>
            <path d="M92.1,23.9C92.1,23.5 92.5,23.2 93.1,23.2C93.7,23.2 94.1,23.5 94.1,23.9C94.1,24.3 93.7,24.6 93.1,24.6C92.5,24.6 92.1,24.3 92.1,23.9Z" style="fill:none;fill-rule:nonzero;stroke:rgb(1,31,91);stroke-width:0.74px;"/>
            <path d="M92.6,21.7C91.8,21.7 90.5,22.2 89.1,22.7C87.4,23.2 85.5,22.9 84.1,23.1C83.7,23.2 92.5,23.3 92.5,23.3C92.5,21.5 92.6,21.7 92.6,21.7" style="fill:rgb(1,31,91);fill-rule:nonzero;"/>
            <path d="M92.6,21.7C91.8,21.7 90.5,22.2 89.1,22.7C87.4,23.2 85.5,22.9 84.1,23.1C83.7,23.2 92.5,23.3 92.5,23.3C92.5,21.5 92.6,21.7 92.6,21.7Z" style="fill:none;fill-rule:nonzero;stroke:rgb(1,31,91);stroke-width:0.74px;"/>
            <path d="M33.8,28.3C34.1,29.4 34.9,30.2 36.3,30.2C38.9,30.2 41.3,28.3 42.8,27.2C44,26.4 45.2,25.5 45.2,23.7L45,24.4C45,24.4 47,22.4 52,24C53.4,24.4 59.3,27.8 60.5,28.3C61.6,28.8 65.4,31.5 71.4,30.5C71.4,30.5 80.6,29.2 78.5,19.8C77,13.1 77.5,12.6 78,10.4C77.8,10.3 72.4,9.1 72.5,16.6C70.2,16.8 67.2,18.6 69.1,23.2C69.9,22 70.9,20.8 72.4,20.8C73.3,20.8 74.3,22.1 74.3,23.1C74.4,25.5 72.1,26.5 69.1,26C67.6,25.8 66.2,24.1 64.2,22.6C64.6,22.4 64.9,21.2 64.9,20.7C64.9,19.5 63.9,19 63.2,18.6C63.3,18.2 63.6,17.6 63.6,17.2C63.6,16.2 62.3,16.3 61.7,16C61.9,15.7 61.9,15.9 61.9,15.4C61.9,14 62.1,13.3 59.3,13.3C59.5,11.9 59.2,11.1 58.3,10.7L56.2,10.4C54.9,10.2 56.2,9.7 55,8.6C53.9,7.6 52.2,8.6 52.2,8.6C52.2,7.6 51.5,6.9 50.4,6.9C49.8,6.9 49,7 48.6,7.2L48,7.8C46.9,7.8 46.7,6.8 45.4,6.8C44.2,6.8 43.7,7.8 43.2,8.4C42.4,8 42.2,7.3 41.1,7.3C40.4,7.3 40.2,8 40,8.3C39.3,9.1 39.3,10 38.2,10.4L37.8,9.6L37.8,9.5C36.1,10.3 32.3,19 32.3,20.8C32.3,22.5 33.8,21.8 33.8,23.6C33.8,24.7 32.2,25.4 32.2,26.4C32.2,27.6 33.5,28.1 34.7,28.1" style="fill:white;fill-rule:nonzero;"/>
            <path d="M33.8,28.3C34.1,29.4 34.9,30.2 36.3,30.2C38.9,30.2 41.3,28.3 42.8,27.2C44,26.4 45.2,25.5 45.2,23.7L45,24.4C45,24.4 47,22.4 52,24C53.4,24.4 59.3,27.8 60.5,28.3C61.6,28.8 65.4,31.5 71.4,30.5C71.4,30.5 80.6,29.2 78.5,19.8C77,13.1 77.5,12.6 78,10.4C77.8,10.3 72.4,9.1 72.5,16.6C70.2,16.8 67.2,18.6 69.1,23.2C69.9,22 70.9,20.8 72.4,20.8C73.3,20.8 74.3,22.1 74.3,23.1C74.4,25.5 72.1,26.5 69.1,26C67.6,25.8 66.2,24.1 64.2,22.6C64.6,22.4 64.9,21.2 64.9,20.7C64.9,19.5 63.9,19 63.2,18.6C63.3,18.2 63.6,17.6 63.6,17.2C63.6,16.2 62.3,16.3 61.7,16C61.9,15.7 61.9,15.9 61.9,15.4C61.9,14 62.1,13.3 59.3,13.3C59.5,11.9 59.2,11.1 58.3,10.7L56.2,10.4C54.9,10.2 56.2,9.7 55,8.6C53.9,7.6 52.2,8.6 52.2,8.6C52.2,7.6 51.5,6.9 50.4,6.9C49.8,6.9 49,7 48.6,7.2L48,7.8C46.9,7.8 46.7,6.8 45.4,6.8C44.2,6.8 43.7,7.8 43.2,8.4C42.4,8 42.2,7.3 41.1,7.3C40.4,7.3 40.2,8 40,8.3C39.3,9.1 39.3,10 38.2,10.4L37.8,9.6L37.8,9.5C36.1,10.3 32.3,19 32.3,20.8C32.3,22.5 33.8,21.8 33.8,23.6C33.8,24.7 32.2,25.4 32.2,26.4C32.2,27.6 33.5,28.1 34.7,28.1L33.8,28.3Z" style="fill:none;fill-rule:nonzero;stroke:rgb(1,31,91);stroke-width:0.74px;"/>
            <path d="M37.7,21C37.7,21 39.6,21.7 39.6,22.1C39.6,22.6 38.4,23.2 37.6,23.9L36.6,23.9C37,22.7 36.6,23.2 36.6,22.1C36.6,21.3 37.4,21 37.7,21" style="fill:rgb(1,31,91);fill-rule:nonzero;"/>
            <path d="M37.7,21C37.7,21 39.6,21.7 39.6,22.1C39.6,22.6 38.4,23.2 37.6,23.9L36.6,23.9C37,22.7 36.6,23.2 36.6,22.1C36.6,21.3 37.4,21 37.7,21Z" style="fill:none;fill-rule:nonzero;stroke:rgb(1,31,91);stroke-width:0.74px;"/>
            <path d="M44.6,17.8C45.6,17.3 45.1,16.1 46.7,16.1C48.1,16.1 48.6,17.1 49.9,17.1C50.7,17.1 51.3,16.3 52.5,16.3C53.5,16.3 54.9,17.7 54.7,19.3C54.7,19.3 58.3,18.1 58.1,22C61,21 60.7,23.4 61,24.6C61.3,25.7 63.2,24.8 62.9,27.2" style="fill:none;fill-rule:nonzero;stroke:rgb(1,31,91);stroke-width:0.74px;"/>
            <path d="M6.2,9L9.1,9C11.2,8.5 12,7.3 14.2,7.3C15.8,7.3 16.5,8.3 17.6,8.3C18.6,8.3 20.1,7.2 21.7,7.2C23.4,7.2 24.2,8.2 25.3,8.7C26.3,9.1 27.5,9.1 28.9,9.1L28.9,11.5C28.9,12.3 30,12 30,13.3C30,14.7 28.6,14.4 28.6,15L28.5,20.3C28.6,21 29.9,21 29.9,22C29.9,23.5 28.4,23 28.5,24.1C28.6,25 28.5,26.8 28.5,26.8L6.8,26.8C6.9,24.8 6.8,25.1 6.8,24.2C6.9,23.4 5.1,23 5.1,21.7C5.1,20.8 6.1,20.9 6.2,20L6.2,14.7C6.1,14 4.6,13.7 4.7,12.7C4.8,11.5 6.1,11.7 6.1,10.9C6.2,10.6 6.3,9.3 6.2,9" style="fill:white;fill-rule:nonzero;"/>
            <path d="M6.2,9L9.1,9C11.2,8.5 12,7.3 14.2,7.3C15.8,7.3 16.5,8.3 17.6,8.3C18.6,8.3 20.1,7.2 21.7,7.2C23.4,7.2 24.2,8.2 25.3,8.7C26.3,9.1 27.5,9.1 28.9,9.1L28.9,11.5C28.9,12.3 30,12 30,13.3C30,14.7 28.6,14.4 28.6,15L28.5,20.3C28.6,21 29.9,21 29.9,22C29.9,23.5 28.4,23 28.5,24.1C28.6,25 28.5,26.8 28.5,26.8L6.8,26.8C6.9,24.8 6.8,25.1 6.8,24.2C6.9,23.4 5.1,23 5.1,21.7C5.1,20.8 6.1,20.9 6.2,20L6.2,14.7C6.1,14 4.6,13.7 4.7,12.7C4.8,11.5 6.1,11.7 6.1,10.9C6.2,10.6 6.3,9.3 6.2,9Z" style="fill:none;fill-rule:nonzero;stroke:rgb(1,31,91);stroke-width:0.74px;"/>
            <path d="M8.6,9.1L8.6,23.6L26.5,23.6L26.5,9" style="fill:none;fill-rule:nonzero;stroke:rgb(1,31,91);stroke-width:0.74px;"/>
            <path d="M17.5,8.4L17.5,23.7" style="fill:none;fill-rule:nonzero;stroke:rgb(1,31,91);stroke-width:0.74px;"/>
            <path d="M17.8,21.8C18.6,21.8 19.9,22.3 21.3,22.8C23,23.3 24.9,23 26.3,23.2C26.7,23.3 17.9,23.4 17.9,23.4C17.9,21.6 17.8,21.8 17.8,21.8" style="fill:rgb(1,31,91);fill-rule:nonzero;"/>
            <path d="M17.8,21.8C18.6,21.8 19.9,22.3 21.3,22.8C23,23.3 24.9,23 26.3,23.2C26.7,23.3 17.9,23.4 17.9,23.4C17.9,21.6 17.8,21.8 17.8,21.8Z" style="fill:none;fill-rule:nonzero;stroke:rgb(1,31,91);stroke-width:0.74px;"/>
            <path d="M16.5,24C16.5,23.6 16.9,23.3 17.5,23.3C18.1,23.3 18.5,23.6 18.5,24C18.5,24.4 18.1,24.7 17.5,24.7C17,24.7 16.5,24.4 16.5,24" style="fill:rgb(1,31,91);fill-rule:nonzero;"/>
            <path d="M16.5,24C16.5,23.6 16.9,23.3 17.5,23.3C18.1,23.3 18.5,23.6 18.5,24C18.5,24.4 18.1,24.7 17.5,24.7C17,24.7 16.5,24.4 16.5,24Z" style="fill:none;fill-rule:nonzero;stroke:rgb(1,31,91);stroke-width:0.74px;"/>
            <path d="M17.1,21.8C16.3,21.8 15,22.3 13.6,22.8C11.9,23.3 10,23 8.6,23.2C8.2,23.3 17,23.4 17,23.4C17,21.6 17.1,21.8 17.1,21.8" style="fill:rgb(1,31,91);fill-rule:nonzero;"/>
            <g>
                <path d="M17.1,21.8C16.3,21.8 15,22.3 13.6,22.8C11.9,23.3 10,23 8.6,23.2C8.2,23.3 17,23.4 17,23.4C17,21.6 17.1,21.8 17.1,21.8Z" style="fill:none;fill-rule:nonzero;stroke:rgb(1,31,91);stroke-width:0.74px;"/>
                <path d="M64.5,22.1C62.1,19.5 60,16.4 59.7,16.3C58.5,15.8 55.8,10.3 48.3,9.9C46.4,9.8 39.3,10.5 39,12.3" style="fill:none;fill-rule:nonzero;stroke:rgb(1,31,91);stroke-width:0.74px;"/>
                <path d="M45.2,24.1L45.2,23.5C45.2,23.2 43.5,23.4 43,23.2C42.7,23.1 43.8,22.7 43.6,22.7C44.7,22.3 47.4,21.1 46.5,20.1C45.6,19.2 45,18.3 44.5,17.7C43.8,16.9 43,16.5 41.7,16.5C40.6,16.5 38.8,18.4 38.1,18.9C38.6,18.4 40.2,17 40.2,15.9C40.2,13.4 38.2,11.3 37.7,9.2" style="fill:none;fill-rule:nonzero;stroke:rgb(1,31,91);stroke-width:0.74px;"/>
                <path d="M34.5,27.9C36.5,27.9 37.6,27.8 38.5,27.3C39.5,26.8 41.4,25.6 41.8,24.6" style="fill:none;fill-rule:nonzero;stroke:rgb(1,31,91);stroke-width:0.74px;"/>
                <path d="M2.2,0.9L108.4,0.9L108.4,54C107.7,97.3 59.2,120 53.1,119.8C46.8,119.6 2.1,97.3 2.2,53.8L2.2,0.9Z" style="fill:none;fill-rule:nonzero;stroke:rgb(1,31,91);stroke-width:1.46px;"/>
            </g>
        </g>
    </g>
    <g>
        <path d="M92.4,43C92.5,43.1 92.6,43.2 92.6,43.2C92.6,43 92.7,42.7 92.5,42.5C92.3,42.4 92.1,42.5 92,42.6C92.1,42.7 92.3,42.8 92.4,43M96,50.4C96,49.8 95.9,49.2 95.6,48.7C95.3,48.2 94.9,47.8 94.4,47.5C93.9,47.2 93.4,47.2 93.1,46.6C93,46.5 92.9,46.5 93,46.3C93,46.2 93.2,46.2 93.3,46.3C93.3,46.1 93.4,45.6 93.2,45.5C93.3,45.3 93.1,44.7 93.1,44.4C93,44.5 92.9,44.5 92.7,44.6C92.8,44.4 92.9,44.3 93,44.1C92.8,44.1 92.7,43.9 92.7,43.7C92.1,43.7 91.5,42.7 91.2,42.3C91.2,42.6 90.8,42.3 90.7,42.2C90.6,42 90.5,41.8 90.4,41.7C90.2,41.5 90,41.3 89.7,41.2C89.3,40.9 88.8,40.6 88.3,40.4C87.9,40.2 87.5,39.9 87.2,39.7C87.3,39.9 87.4,40 87.4,40.2C87.3,40.1 86.7,39.5 86.5,39.6C86.2,39.7 86.6,40 86.7,40.1C86.6,40 85.5,39.6 86.1,40C85.9,39.9 85.6,39.7 85.5,40C85.2,39.9 84.7,39.9 84.5,39.7C84.3,39.6 84,39.3 83.8,39.3C83.8,39.4 83.9,39.5 84,39.6C83.4,39.4 82.8,39.5 82.2,39.5L81.5,39.5C81.3,39.5 81.2,39.7 81.1,39.7C79.7,39.7 78.5,40 77.2,40.3C74.6,40.8 72.4,42.3 70.7,44.3C69.8,45.4 69,46.5 68.2,47.7C67.5,48.6 67,49.6 66.1,50.4C65.2,51.2 63.9,51.8 62.8,52.3C62.3,52.5 61.7,52.8 61.1,52.9C60.5,53 59.9,52.9 59.3,53C58.7,53.1 57.9,52.7 57.3,52.5C56.6,52.3 55.9,52.1 55.3,52C54,51.7 52.7,51.4 51.4,51.2C49.9,51 48.5,50.8 47,50.6C45.6,50.4 44.2,50.3 42.9,49.9C40.3,49.2 39.2,46.6 37.2,45.1C36.1,44.3 34.9,43.8 33.5,43.6L32.5,43.6C32.2,43.6 32,43.2 31.8,43C31.3,42.5 30.8,42.1 30.2,41.8C30,41.7 29.8,41.5 29.5,41.4C29.1,41.3 28.9,41.4 28.7,41.2C28.2,40.7 27.7,40.2 27.2,39.8C26.2,38.9 25.2,38.1 23.9,37.8C23.6,37.7 23.2,37.7 22.9,37.7C22.6,37.7 22.4,37.6 22.1,37.6C21.8,37.6 21.7,37.8 21.4,37.9C21,38 20.6,38 20.2,38.1C18.9,38.4 18.3,39.6 18.3,40.9C18.3,41.9 18.1,42.9 18.1,43.9C18.1,45 18.3,46.1 18.6,47.2C17.5,47.3 17.3,49.1 17.8,49.9C17.2,50.1 16.9,50.7 16.8,51.2C16.8,51.4 16.8,51.7 16.9,51.9C17,52.1 17.2,52.3 17.2,52.5C17.2,52.7 17,53 17,53.2L17,54.2C17.1,54.8 17.3,55.3 17.6,55.8C17.1,55.9 16.4,55.9 16.4,56.5C16.3,57 16.6,57.6 16.5,58.2C16.4,59.3 17.1,60.5 18.1,61.1C18.2,61.1 18.4,61.2 18.5,61.3L18.5,61.7C18.5,62 18.5,62.3 18.6,62.6C18.7,63.1 18.9,63.7 19.2,64.2C19.8,65.2 20.6,66 21.7,66.6C21.7,66.6 21.8,66.6 21.8,66.7C21.5,67.1 21.4,67.6 21.3,68.2C21.2,68.9 21.1,69.5 21.2,70.2C21.4,71.5 22.3,72.3 23.4,73C23.3,73.1 23.2,73.2 23,73.4C22.9,73.5 22.7,73.6 22.6,73.7C22.6,73.7 22.7,73.8 22.7,73.9C22.6,74.3 22.7,74.4 23,74.8C22.7,75 22.3,75.5 22.9,75.5C22.8,75.8 22.2,75.7 22.3,76.1C22.4,76.5 22.8,76.2 23.1,76.1C22.9,76.4 22.2,76.4 22.1,76.7C21.9,77.1 22.4,77.1 22.7,77C22.8,77.3 22,77.4 21.9,77.6C21.8,77.7 21.9,77.9 22,77.9C22.2,78 22.3,77.9 22.5,77.8C22.4,78 22.1,78.2 22.1,78.5L22.1,78.7C22.1,78.8 22.1,78.9 22,79.1C22.1,79 22.3,78.9 22.4,79.1C22.2,79.2 21.7,80 22.2,79.8C22,79.7 22,80 22.4,80.1C22.6,80.1 22.7,80 22.8,80.1C22.9,80.2 23,80.4 23.1,80.5C23.3,80.9 23.5,81.2 23.8,81.6C23.9,81.8 24.1,81.9 24.3,82.1C24.5,82.3 24.5,82.3 24.4,82.6C24.3,82.9 24.3,83.5 24.5,83.7C24.6,83.8 24.8,83.9 24.9,84C25.1,84.1 25.1,84.1 25.3,84.3C25.4,84.4 25.3,84.7 25.4,84.8C25.5,84.9 25.7,84.9 25.9,84.9C26.2,84.9 26.5,85 26.8,84.9C26.5,85.1 25.9,85.5 26,86C26,86.4 26.6,86.4 26.9,86.3C26.9,86.7 27,86.8 27.5,86.8C27.7,86.8 27.8,86.6 27.9,86.6C28.1,86.5 28,86.6 28.2,86.6C28.6,86.7 28.9,86.8 29,87.2C29.1,87.6 29,88.1 29.1,88.5C29.1,88.8 28.9,90.2 29.5,90.1C29.7,90 29.9,89.9 30.1,89.9C30.3,89.9 30.6,89.8 30.8,89.7C30.5,90 30.6,91.2 31.1,91.1C31.2,91.1 31.4,90.9 31.4,90.9C31.5,91 31.6,91 31.7,91C31.9,91 32,90.8 32.2,90.8C32.2,91 32.3,91.1 32.5,91.1C32.8,91.1 33,91.2 33.2,91.5C33.3,91.7 33.4,92 33.5,92.2C33.7,92.5 34,92.8 34.3,93C34.6,93.2 34.9,93.4 35.3,93.6C35.5,93.7 35.4,94.2 35.5,94.4C35.8,95 36.5,94.6 36.7,94.2C37.1,94.8 37.4,95.3 38.1,94.9C38.3,95.5 39,95.9 39.4,96.4C39.6,96.7 39.9,96.9 40.2,97C40.5,97.1 40.9,96.9 41.1,97.1C41.5,97.6 41.8,98.2 42.5,98.2C43,98.2 43.1,97.7 43.1,97.3C43.4,97.6 43.5,97.7 43.6,98.1C43.7,98.4 43.8,98.8 43.9,99.1C44.1,99.8 44.1,100.4 44.2,101.1C44.2,102.4 44.3,103.6 44,104.8C43.9,105.1 44,106.1 43.7,106.3C43.6,106.4 43,106.4 42.8,106.5C42.5,106.6 42.1,106.8 41.8,106.9C41.5,107.1 40.8,107.6 41.2,108C41.5,108.3 42,107.9 42.3,107.9C42.5,107.8 42.8,107.9 43,107.9C43.3,107.9 43.5,107.8 43.7,108C44,108.5 44.6,108.6 45.2,108.6C45.6,108.6 46.2,109 46.6,109.2C47.1,109.5 47.9,109.5 48.4,109.5C49.1,109.5 49.8,109.6 50.5,109.6L51.4,109.6C51.7,109.6 51.8,109.8 52.1,109.9C52.3,110 52.6,110.1 52.8,110.1C53,110.1 53.3,110.4 53.6,110.5C53.9,110.6 54.1,110.8 54.3,111C54.5,111.2 54.5,111.5 54.7,111.6C55.3,112.2 55.5,111.3 55.6,110.8C55.7,110.1 55.1,109.7 54.6,109.3C55.4,109.3 56.2,109.1 56.9,109.2C57.4,109.3 57.7,109.5 58.1,109.8C58.2,109.9 58.4,110 58.5,110.1C58.6,110.2 58.6,110.4 58.7,110.5C59.1,111 59.4,110.1 59.3,109.8C59.2,109.1 58.4,108.6 57.8,108.2C58.6,108.4 59.5,108.6 60.1,109C60.6,109.3 60.9,110 61.3,110.4C61.7,110.9 62,110.4 62.1,109.9C62.2,109.1 61.9,108.4 61.2,108C61.6,107.9 61.3,107.2 61.2,107C60.9,106.5 60.3,106.2 59.7,106.1C60.2,105.9 60.7,106 61.1,106.3C61.3,106.5 61.4,106.6 61.4,106.8C61.4,107 61.6,107.2 61.7,107.3C62,107.4 62.3,107.2 62.4,106.9C62.5,106.5 62.3,106.1 62.2,105.8C60.9,103.7 57.5,105 55.6,105.1C55,105.1 54.5,105.2 53.9,105.2C53.3,105.2 53.1,105.2 53.1,104.6C53.1,104.1 53.2,103.7 53.1,103.2C53.1,102.7 52.9,102.1 52.7,101.6C52.4,100.5 52.2,99.4 52,98.3C52,98.1 51.9,97.8 51.9,97.6C51.9,97.5 51.8,97.2 51.9,97.2C52,97.1 52.1,97.2 52.2,97.1C52.3,96.9 52.1,96.7 52,96.6C51.9,96.3 51.9,96.1 51.9,95.8C52.1,96 52.3,96.1 52.5,96.3C52.6,96.5 52.7,96.8 52.9,96.7C52.6,96.2 52.5,95.8 52.3,95.3C52.4,95.4 52.4,95.5 52.6,95.6C52.4,95.3 52.4,95 52.2,94.8C52.1,94.6 51.9,94.2 52,94C52.3,94.6 52.7,95.2 53,95.8C53.1,96 53.2,96.2 53.5,96.3C53.6,96.4 53.8,96.5 53.9,96.6C53.8,96.4 53.7,96.3 53.8,96.1C53.9,96.1 54.1,96.2 54.1,96.2C54.2,96.3 54.3,96.5 54.4,96.5C54.6,96.5 54.3,96.2 54.3,96.1C54,95.7 53.8,95 53.5,94.5L53.8,94.8L53.8,94.7C53.3,94.2 53.1,93.3 52.9,92.7C53.4,93.4 54,94.2 54.6,94.8C54.8,95 55.4,95.2 55.1,94.7C54.8,94.2 54.5,93.7 54.3,93.2C54.7,93.7 55.1,94.7 55.8,94.6C55.7,94.5 55.6,94.3 55.7,94.2C55.8,94.3 56.5,94.7 56.4,94.5C56.3,94.4 56.4,94.4 56.4,94.2C56.3,94 56.2,93.8 56,93.6C56.3,93.9 56.7,94.1 57,94.4C57.1,94.5 57.2,94.7 57.3,94.5C57.4,94.4 57.1,94.2 57,94.1L57.1,94.2C56.9,93.9 56.7,93.7 56.5,93.5C56.4,93.3 56.3,93 56.1,92.8C55.9,92.6 56.1,92.5 56.2,92.3C56.3,92.2 56.8,92.4 56.9,92.4C57.6,92.5 58.1,92.1 58.7,91.9C59.3,91.7 60,91.5 60.6,91.3C61.9,90.8 63.2,90.3 64.4,89.8C64.9,89.6 65.3,89.2 65.7,89C66.2,88.7 66.4,88.2 67,88.1C69.4,87.9 72,87 73.9,85.5C75.8,84 77.2,81.9 78.1,79.7C79.1,77.2 79.9,74.6 81.1,72.2C81.7,71 82.3,69.9 83.2,68.9C84,67.9 84.7,67.1 85.1,65.9C85.5,64.8 85.4,63.6 85.5,62.5C85.6,61.2 85.5,59.9 85.6,58.6C85.7,57.9 85.8,57.2 86,56.6C86.2,55.9 86.5,55.3 86.8,54.6C87,54.1 87,53.6 86.9,53.1C86.9,53 87.3,52.6 87.4,52.5C87.6,52.4 87.8,52.5 88,52.4C88.6,52.3 89,51.8 89.4,51.4C89.6,51.2 89.7,51 89.8,50.9C89.9,50.7 90.2,50.6 90.4,50.5C90.8,50.2 91.2,50 91.6,49.8C92.2,49.5 92.2,49.6 92.7,49.8C93.1,50 93.6,50.2 94,50.3C94.7,50.5 95.5,50.2 95.8,51C96.1,50.7 96,50.6 96,50.4M46.6,95.9C46.6,95.7 46.5,95.5 46.5,95.3C46.6,95.4 46.7,95.8 46.6,95.9M49.1,95.6C49.2,95.9 49.6,96.3 49.5,96.6C49.4,96.3 49.1,96.2 49.1,96C49,95.5 48.8,95.1 48.8,94.6C48.9,94.9 49,95.3 49.1,95.6M49.1,96.2C48.9,96.2 48.9,96.1 48.9,95.9C48.9,96 49,96.1 49.1,96.2M49.7,103.7C49.7,104.3 49.5,104.9 49.4,105.5C48.1,103.4 47.3,101 47.4,98.5C47.7,98.6 47.7,98.9 47.8,99.1C47.9,99 47.9,99.1 47.8,99C47.7,98.7 47.7,98.7 47.7,98.5C47.7,98.1 47.5,97.7 47.4,97.3C47.7,97.6 47.8,98 47.9,98.3C48.1,98.8 48.2,98.7 48.1,98.2C48.2,98.3 48.3,98.5 48.4,98.6C48.4,98.5 48.2,98.2 48.2,98.1C48.3,98 48.2,97.9 48.2,97.8C48.1,97.4 47.7,96.8 47.7,96.4C48,97.1 48.1,97.9 48.6,98.4C48.3,97.2 48.1,95.9 47.9,94.7C48,95.1 48.2,95.4 48.3,95.7C48.4,96 48.5,96.2 48.5,96.4C48.6,97.2 48.9,98 49,98.8C49.5,100.4 49.7,102.1 49.7,103.7M49.8,95.9C49.8,95.8 49.8,95.9 49.8,95.9M60.4,107.5C60.3,107.5 60.4,107.5 60.4,107.5M83.1,40.8C83.2,40.8 83.2,40.8 83.3,40.9C83.2,40.9 83.1,40.8 83.1,40.8M91.9,47.1C91.9,47.1 91.8,47.2 91.9,47.1C91.9,47.1 92,47.1 91.9,47.1C92,47.1 92,47.1 91.9,47.1"/>
        <path d="M92.5,42.5C92.6,42.2 92.3,41.7 92.1,42.1C92,42 92.1,41.8 91.9,41.7C91.7,41.5 91.5,41.8 91.5,42.1C90.9,41.6 90.8,41.6 90.6,42.3C90.6,42.5 90.7,42.6 90.7,42.8C90.7,43.2 90.9,43.5 91.1,43.8C91.4,44.3 91.8,45 91.5,45.6C91.4,45.8 91.2,46 91,46.1C90.8,46.2 90.5,46.4 90.7,46.6C89.8,46.7 89.3,45.2 88.8,44.7C88.4,44.3 87.9,44.2 87.4,44.1C87.4,44.1 87.4,44 87.3,44C87.2,44 87.1,44 86.9,44.1C86.7,44.2 86.6,44.2 86.3,44.2C85.7,44.2 85.2,44.4 84.6,44.5C84.2,44.6 84.1,44.7 84.3,44.9C84.5,45.1 84.7,45.2 84.8,45.5C84.9,45.8 84.9,46.1 85,46.4C85.1,46.5 85.1,46.6 85.2,46.6C85.4,46.6 85.4,47.1 85.3,47.1C85.3,47 85,46.9 84.9,47C84.8,47.1 85,47.1 85,47.2L85,47.7C84.7,47.6 84.3,47.6 84,47.5C83.7,47.5 83.6,47.4 83.3,47.3L83,47.3C82.9,47.2 82.8,47 82.7,46.8C82.6,46.6 82.4,46.5 82.4,46.2C82.6,46.3 82.7,46.4 82.9,46.4C82.8,46.3 82.6,46.2 82.5,46C82.4,45.9 82.5,45.7 82.3,45.6C81.8,45.4 82,46.8 81.9,47C81.8,47.1 81.6,47.2 81.5,47.4C81.5,47.5 81.5,47.6 81.4,47.7C81.4,47.8 81.3,48.1 81.4,48.1C81.4,48.1 81.5,47.9 81.6,47.9C81.4,48.1 81.5,49 81.6,49.4C81.7,49.9 82,50.2 82.2,50.7C82.3,50.9 82.5,51 82.7,51.2C82.9,51.4 82.9,51.7 83,52C83.1,52.5 83.2,53.1 83.5,53.6C83.7,53.8 84,53.6 84.1,53.5C84.4,53.2 84.3,52.8 84.5,52.5C85.2,51.4 86.6,50.7 87.7,50.2C88,50.1 88.3,49.9 88.6,49.9C87.3,50.6 85.9,51.1 84.9,52.2C84.4,52.7 85.1,52.7 85.5,52.9C85.7,53 85.8,52.9 85.9,53.1C86,53.3 86.5,53 86.6,52.9C86.6,53 86.3,53.5 86.3,53.6C86.5,53.8 87.1,52.8 87.2,52.7C87.6,52.4 88.2,52.4 88.6,52.2C88.9,52 89.2,51.7 89.4,51.3C89.5,51.1 89.5,50.9 89.6,50.7C89.6,50.6 90.1,50.5 90.2,50.4C90.6,50.2 90.1,50 90,49.9C89.7,49.6 90.9,49.1 91.1,49.1C91.6,49 92.2,49.2 92.8,49.1C92.9,49.1 92.9,49.2 93,49.1C93.1,49 93,49 93,48.9C93,48.9 92.9,48.9 92.9,48.8L93.1,48.8C93.2,48.7 93.3,48.7 93.1,48.6C92.8,48.5 92.3,48.6 92,48.6C91.4,48.6 90.9,48.4 90.3,48.5C89.6,48.5 89,48.5 88.3,48.6L88.3,48.4C88.7,48.2 89.1,48 89.5,48C89.7,48 89.7,47.9 89.9,47.9C90.1,47.9 90.3,47.8 90.5,47.9C90.8,47.9 91.5,48.6 91.8,48.2C92,48 92,47.9 91.9,47.6C92.2,47.8 92,47.5 92.1,47.4C92.2,47.2 92.1,47.2 92.2,47.1C92.3,47 92.6,47 92.7,47.1C92.9,47.1 93.3,47.5 93.4,47.2C93.4,47.1 93.3,47 93.3,46.9C93.8,46.9 93.9,46.8 93.5,46.4C93.5,46.4 93.2,46.4 93.3,46.3C93.4,46.2 93.4,46.2 93.4,46.1C93.4,45.8 93,45.9 93.3,45.5C93.6,45.1 93.7,45 93.5,44.5C93.4,44.3 93.7,43.7 93.3,43.8C93.4,43.6 93.6,43.2 93.5,43C93.4,42.7 93.2,42.9 93,43.1C92.7,43.5 92.7,43.3 92.8,42.9C92.8,42.7 92.8,42.5 92.5,42.5M87.1,44.3C87.8,44.4 88.4,44.7 88.9,45.3C88.9,45.4 88.8,45.3 88.7,45.4C88.6,45.5 88.5,45.4 88.5,45.5C88.5,45.6 88.5,45.8 88.4,45.9C88.1,46.2 87.8,46.4 87.3,46.4C86.9,46.4 86.5,46.1 86.3,45.8C86.1,45.5 86.1,45.1 85.8,44.9C86,44.8 86.1,44.7 86.2,44.6C86.5,44.4 86.8,44.4 87.2,44.5C87.5,44.6 87.7,44.7 87.9,44.9C88.1,45 88.1,45.2 88.4,45.2C88.5,44.8 87.5,44.4 87.1,44.3M85.8,45.4C86,46.2 86.8,46.9 87.7,46.8C88.1,46.7 88.6,46.6 88.9,46.3C88.5,46.8 87.9,47 87.3,47C86.8,47 86.5,46.8 86.2,46.5C86,46.3 85.6,45.6 85.8,45.4ZM90.5,48.9C89.9,48.9 89.2,49.1 88.6,49.2C88.3,49.3 87.7,49.5 87.5,49.3C87.8,49.2 88,49 88.3,48.9C88.3,49.2 89,48.9 89.1,48.9C89.6,48.8 90.1,48.8 90.5,48.9M84,51.5C84,51.4 84,51.4 84,51.5M84.2,52.7C84.2,52.8 84.2,52.8 84.2,52.7" style="fill:rgb(165,28,33);"/>
        <path d="M87,44.7C86.1,45 86.5,46.5 87.5,46.5C88.6,46.4 88.1,44.5 87,44.7M87.2,46.1C86.5,45.8 86.9,44.8 87.5,45.1C87.9,45.4 87.7,46.2 87.2,46.1" style="fill:rgb(255,204,51);"/>
    </g>
    <g transform="matrix(1,0,0,1,120.524,52.3709)">
        <text x="0px" y="0px" style="font-family:'Times-Bold', 'Times';font-weight:700;font-size:48px;">W</text>
        <g transform="matrix(1,0,0,1,48,0)">
            <text x="0px" y="0px" style="font-family:'Times-Bold', 'Times';font-weight:700;font-size:40px;">ILD</text>
        </g>
    </g>
    <g transform="matrix(1,0,0,1,250.943,52.3709)">
        <text x="0px" y="0px" style="font-family:'Times-Bold', 'Times';font-weight:700;font-size:48px;">C</text>
        <g transform="matrix(1,0,0,1,34.7,0)">
            <text x="0px" y="0px" style="font-family:'Times-Bold', 'Times';font-weight:700;font-size:40px;">HICKEN</text>
        </g>
    </g>
    <g transform="matrix(1,0,0,1,169.409,96.2059)">
        <text x="0px" y="0px" style="font-family:'Times-Roman', 'Times';font-size:40px;">UNIVERSITY</text>
    </g>
    <g transform="matrix(1,0,0,1,48.1966,4.48048)">
        <text x="123.791px" y="111.925px" style="font-family:'Times-Roman', 'Times';font-size:16px;">A DAISY LEAGUE UNIVERSITY</text>
    </g>
</svg>
